%TF.GenerationSoftware,KiCad,Pcbnew,9.0.6*%
%TF.CreationDate,2026-09-07T18:30:41-07:00*%
%TF.ProjectId,ghost-fader,67686f73-742d-4666-9164-65722e6b6963,rev?*%
%TF.SameCoordinates,Original*%
%TF.FileFunction,Soldermask,Bot*%
%TF.FilePolarity,Negative*%
%FSLAX46Y46*%
G04 Gerber Fmt 4.6, Leading zero omitted, Abs format (unit mm)*
G04 Created by KiCad (PCBNEW 9.0.6) date 2026-09-07 18:30:41*
%MOMM*%
%LPD*%
G01*
G04 APERTURE LIST*
G04 Aperture macros list*
%AMRoundRect*
0 Rectangle with rounded corners*
0 $1 Rounding radius*
0 $2 $3 $4 $5 $6 $7 $8 $9 X,Y pos of 4 corners*
0 Add a 4 corners polygon primitive as box body*
4,1,4,$2,$3,$4,$5,$6,$7,$8,$9,$2,$3,0*
0 Add four circle primitives for the rounded corners*
1,1,$1+$1,$2,$3*
1,1,$1+$1,$4,$5*
1,1,$1+$1,$6,$7*
1,1,$1+$1,$8,$9*
0 Add four rect primitives between the rounded corners*
20,1,$1+$1,$2,$3,$4,$5,0*
20,1,$1+$1,$4,$5,$6,$7,0*
20,1,$1+$1,$6,$7,$8,$9,0*
20,1,$1+$1,$8,$9,$2,$3,0*%
G04 Aperture macros list end*
%ADD10C,1.700000*%
%ADD11RoundRect,0.265625X0.584375X-0.584375X0.584375X0.584375X-0.584375X0.584375X-0.584375X-0.584375X0*%
%ADD12RoundRect,0.265625X-0.584375X-0.584375X0.584375X-0.584375X0.584375X0.584375X-0.584375X0.584375X0*%
%ADD13C,3.100000*%
%ADD14C,2.100000*%
%ADD15RoundRect,0.050000X-0.900000X-0.900000X0.900000X-0.900000X0.900000X0.900000X-0.900000X0.900000X0*%
%ADD16C,1.900000*%
%ADD17RoundRect,0.050000X-0.850000X-0.850000X0.850000X-0.850000X0.850000X0.850000X-0.850000X0.850000X0*%
%ADD18C,1.800000*%
%ADD19RoundRect,0.050000X0.850000X0.850000X-0.850000X0.850000X-0.850000X-0.850000X0.850000X-0.850000X0*%
G04 APERTURE END LIST*
D10*
%TO.C,C30*%
X69500000Y-65000000D03*
X74500000Y-65000000D03*
%TD*%
D11*
%TO.C,U4*%
X58000000Y-61000000D03*
D10*
X60540000Y-61000000D03*
X63080000Y-61000000D03*
X65620000Y-61000000D03*
X68160000Y-61000000D03*
X70700000Y-61000000D03*
X73240000Y-61000000D03*
X75780000Y-61000000D03*
X75780000Y-53380000D03*
X73240000Y-53380000D03*
X70700000Y-53380000D03*
X68160000Y-53380000D03*
X65620000Y-53380000D03*
X63080000Y-53380000D03*
X60540000Y-53380000D03*
X58000000Y-53380000D03*
%TD*%
D12*
%TO.C,C42*%
X103000000Y-33500000D03*
D10*
X105500000Y-33500000D03*
%TD*%
D13*
%TO.C,J4*%
X86340000Y-12350000D03*
D14*
X84210000Y-6000000D03*
X95640000Y-6000000D03*
D13*
X84210000Y-9150000D03*
X95640000Y-9150000D03*
X84210000Y-2800000D03*
X95640000Y-2800000D03*
X84210000Y-15500000D03*
X95640000Y-15500000D03*
%TD*%
D10*
%TO.C,FB1*%
X39800000Y-65500000D03*
X49960000Y-65500000D03*
%TD*%
%TO.C,R16*%
X3500000Y-70500000D03*
X3500000Y-60340000D03*
%TD*%
%TO.C,C23*%
X42000000Y-38500000D03*
X42000000Y-33500000D03*
%TD*%
D12*
%TO.C,C19*%
X80000000Y-33500000D03*
D10*
X82500000Y-33500000D03*
%TD*%
%TO.C,R12*%
X79000000Y-39500000D03*
X89160000Y-39500000D03*
%TD*%
D15*
%TO.C,LED1*%
X102000000Y-71000000D03*
D16*
X104540000Y-71000000D03*
%TD*%
D17*
%TO.C,PS1*%
X44500000Y-74700000D03*
D18*
X47040000Y-74700000D03*
X49580000Y-74700000D03*
X57200000Y-74700000D03*
X59740000Y-74700000D03*
X62280000Y-74700000D03*
%TD*%
D12*
%TO.C,C40*%
X50500000Y-28000000D03*
D10*
X53000000Y-28000000D03*
%TD*%
D12*
%TO.C,C6*%
X72000000Y-47500000D03*
D10*
X74500000Y-47500000D03*
%TD*%
%TO.C,R7*%
X105600000Y-66000000D03*
X105600000Y-55840000D03*
%TD*%
%TO.C,C29*%
X67500000Y-51000000D03*
X67500000Y-46000000D03*
%TD*%
%TO.C,R14*%
X7000000Y-55000000D03*
X7000000Y-44840000D03*
%TD*%
D11*
%TO.C,U3*%
X34000000Y-61000000D03*
D10*
X36540000Y-61000000D03*
X39080000Y-61000000D03*
X41620000Y-61000000D03*
X44160000Y-61000000D03*
X46700000Y-61000000D03*
X49240000Y-61000000D03*
X51780000Y-61000000D03*
X51780000Y-53380000D03*
X49240000Y-53380000D03*
X46700000Y-53380000D03*
X44160000Y-53380000D03*
X41620000Y-53380000D03*
X39080000Y-53380000D03*
X36540000Y-53380000D03*
X34000000Y-53380000D03*
%TD*%
%TO.C,C21*%
X22000000Y-38500000D03*
X22000000Y-33500000D03*
%TD*%
D19*
%TO.C,U9*%
X27120000Y-78010000D03*
D18*
X27120000Y-75470000D03*
X27120000Y-72930000D03*
X27120000Y-70390000D03*
X27120000Y-67850000D03*
X27120000Y-65310000D03*
X27120000Y-62770000D03*
X27120000Y-60230000D03*
X27120000Y-57690000D03*
X27120000Y-55150000D03*
X27120000Y-52610000D03*
X27120000Y-50070000D03*
X27120000Y-47530000D03*
X27120000Y-44990000D03*
X11880000Y-78010000D03*
X11880000Y-75470000D03*
X11880000Y-72930000D03*
X11880000Y-70390000D03*
X11880000Y-67850000D03*
X11880000Y-65310000D03*
X11880000Y-62770000D03*
X11880000Y-60230000D03*
X11880000Y-57690000D03*
X11880000Y-55150000D03*
X11880000Y-52610000D03*
X11880000Y-50070000D03*
X11880000Y-47530000D03*
X11880000Y-44990000D03*
%TD*%
D10*
%TO.C,C27*%
X32400000Y-65000000D03*
X37400000Y-65000000D03*
%TD*%
%TO.C,C33*%
X70000000Y-39500000D03*
X75000000Y-39500000D03*
%TD*%
%TO.C,R13*%
X79000000Y-43000000D03*
X89160000Y-43000000D03*
%TD*%
%TO.C,C10*%
X69800000Y-26500000D03*
X74800000Y-26500000D03*
%TD*%
%TO.C,C2*%
X20800000Y-26500000D03*
X25800000Y-26500000D03*
%TD*%
D12*
%TO.C,C4*%
X48000000Y-47500000D03*
D10*
X50500000Y-47500000D03*
%TD*%
D12*
%TO.C,U5*%
X82000000Y-55000000D03*
D10*
X82000000Y-57540000D03*
X82000000Y-60080000D03*
X82000000Y-62620000D03*
X89620000Y-62620000D03*
X89620000Y-60080000D03*
X89620000Y-57540000D03*
X89620000Y-55000000D03*
%TD*%
%TO.C,R2*%
X95700000Y-66000000D03*
X95700000Y-55840000D03*
%TD*%
%TO.C,L1*%
X67600000Y-78500000D03*
X67600000Y-68340000D03*
%TD*%
D12*
%TO.C,C11*%
X53500000Y-65500000D03*
D10*
X56000000Y-65500000D03*
%TD*%
D13*
%TO.C,J3*%
X64340000Y-12350000D03*
D14*
X62210000Y-6000000D03*
X73640000Y-6000000D03*
D13*
X62210000Y-9150000D03*
X73640000Y-9150000D03*
X62210000Y-2800000D03*
X73640000Y-2800000D03*
X62210000Y-15500000D03*
X73640000Y-15500000D03*
%TD*%
D12*
%TO.C,C17*%
X58000000Y-33500000D03*
D10*
X60500000Y-33500000D03*
%TD*%
D12*
%TO.C,C20*%
X96000000Y-33500000D03*
D10*
X98500000Y-33500000D03*
%TD*%
D11*
%TO.C,SW1*%
X31500000Y-78500000D03*
D10*
X34040000Y-78500000D03*
X36580000Y-78500000D03*
X39120000Y-78500000D03*
X39120000Y-70880000D03*
X36580000Y-70880000D03*
X34040000Y-70880000D03*
X31500000Y-70880000D03*
%TD*%
%TO.C,R8*%
X89000000Y-70200000D03*
X99160000Y-70200000D03*
%TD*%
%TO.C,C24*%
X30000000Y-38500000D03*
X30000000Y-33500000D03*
%TD*%
%TO.C,C31*%
X92500000Y-60000000D03*
X92500000Y-55000000D03*
%TD*%
D13*
%TO.C,J2*%
X35340000Y-12350000D03*
D14*
X33210000Y-6000000D03*
X44640000Y-6000000D03*
D13*
X33210000Y-9150000D03*
X44640000Y-9150000D03*
X33210000Y-2800000D03*
X44640000Y-2800000D03*
X33210000Y-15500000D03*
X44640000Y-15500000D03*
%TD*%
D10*
%TO.C,C22*%
X10000000Y-38500000D03*
X10000000Y-33500000D03*
%TD*%
%TO.C,R15*%
X7000000Y-70500000D03*
X7000000Y-60340000D03*
%TD*%
%TO.C,C9*%
X61500000Y-26500000D03*
X66500000Y-26500000D03*
%TD*%
D12*
%TO.C,C18*%
X74000000Y-33500000D03*
D10*
X76500000Y-33500000D03*
%TD*%
%TO.C,R3*%
X99000000Y-66000000D03*
X99000000Y-55840000D03*
%TD*%
%TO.C,R9*%
X89000000Y-74800000D03*
X99160000Y-74800000D03*
%TD*%
%TO.C,R4*%
X75700000Y-70200000D03*
X85860000Y-70200000D03*
%TD*%
D12*
%TO.C,C13*%
X98000000Y-48500000D03*
D10*
X100500000Y-48500000D03*
%TD*%
%TO.C,L2*%
X72600000Y-78500000D03*
X72600000Y-68340000D03*
%TD*%
%TO.C,R5*%
X75700000Y-74800000D03*
X85860000Y-74800000D03*
%TD*%
D12*
%TO.C,C12*%
X90000000Y-48500000D03*
D10*
X92500000Y-48500000D03*
%TD*%
%TO.C,C25*%
X39500000Y-51000000D03*
X39500000Y-46000000D03*
%TD*%
D12*
%TO.C,C43*%
X103000000Y-40500000D03*
D10*
X105500000Y-40500000D03*
%TD*%
%TO.C,C32*%
X79200000Y-61500000D03*
X79200000Y-56500000D03*
%TD*%
%TO.C,C15*%
X82500000Y-26500000D03*
X87500000Y-26500000D03*
%TD*%
%TO.C,C7*%
X32500000Y-26500000D03*
X37500000Y-26500000D03*
%TD*%
D12*
%TO.C,C3*%
X31000000Y-47500000D03*
D10*
X33500000Y-47500000D03*
%TD*%
%TO.C,C8*%
X40800000Y-26500000D03*
X45800000Y-26500000D03*
%TD*%
%TO.C,R10*%
X57000000Y-39500000D03*
X67160000Y-39500000D03*
%TD*%
%TO.C,C28*%
X63500000Y-51000000D03*
X63500000Y-46000000D03*
%TD*%
%TO.C,C16*%
X90800000Y-26500000D03*
X95800000Y-26500000D03*
%TD*%
%TO.C,R6*%
X102300000Y-66000000D03*
X102300000Y-55840000D03*
%TD*%
D13*
%TO.C,J1*%
X15340000Y-12350000D03*
D14*
X13210000Y-6000000D03*
X24640000Y-6000000D03*
D13*
X13210000Y-9150000D03*
X24640000Y-9150000D03*
X13210000Y-2800000D03*
X24640000Y-2800000D03*
X13210000Y-15500000D03*
X24640000Y-15500000D03*
%TD*%
D12*
%TO.C,C41*%
X50500000Y-35500000D03*
D10*
X53000000Y-35500000D03*
%TD*%
%TO.C,C26*%
X43500000Y-51000000D03*
X43500000Y-46000000D03*
%TD*%
%TO.C,C1*%
X12500000Y-26500000D03*
X17500000Y-26500000D03*
%TD*%
%TO.C,C34*%
X70000000Y-43000000D03*
X75000000Y-43000000D03*
%TD*%
D12*
%TO.C,C14*%
X60500000Y-65500000D03*
D10*
X63000000Y-65500000D03*
%TD*%
%TO.C,C35*%
X92000000Y-39500000D03*
X97000000Y-39500000D03*
%TD*%
%TO.C,R11*%
X57000000Y-43000000D03*
X67160000Y-43000000D03*
%TD*%
D12*
%TO.C,C5*%
X55000000Y-47500000D03*
D10*
X57500000Y-47500000D03*
%TD*%
%TO.C,C36*%
X92000000Y-43000000D03*
X97000000Y-43000000D03*
%TD*%
%TO.C,R1*%
X3500000Y-55000000D03*
X3500000Y-44840000D03*
%TD*%
M02*
