M48
; DRILL file {KiCad 9.0.6} date 2026-09-09T20:31:05-0700
; FORMAT={-:-/ absolute / metric / decimal}
; #@! TF.CreationDate,2026-09-09T20:31:05-07:00
; #@! TF.GenerationSoftware,Kicad,Pcbnew,9.0.6
; #@! TF.FileFunction,MixedPlating,1,2
FMAT,2
METRIC
; #@! TA.AperFunction,Plated,PTH,ViaDrill
T1C0.400
; #@! TA.AperFunction,Plated,PTH,ViaDrill
T2C0.500
; #@! TA.AperFunction,Plated,PTH,ComponentDrill
T3C0.800
; #@! TA.AperFunction,Plated,PTH,ComponentDrill
T4C0.900
; #@! TA.AperFunction,Plated,PTH,ComponentDrill
T5C1.000
; #@! TA.AperFunction,Plated,PTH,ComponentDrill
T6C1.500
; #@! TA.AperFunction,NonPlated,NPTH,ComponentDrill
T7C2.000
; #@! TA.AperFunction,NonPlated,NPTH,ComponentDrill
T8C3.000
%
G90
G05
T1
X15.853Y-42.387
X20.211Y-39.475
X20.365Y-54.856
X22.905Y-54.837
X24.561Y-54.857
X32.77Y-49.826
X51.107Y-50.972
X74.378Y-35.647
X79.251Y-64.242
X86.355Y-31.901
X91.443Y-56.033
T2
X47.037Y-59.137
X47.404Y-36.287
X73.646Y-50.124
X87.837Y-70.1
X95.194Y-70.175
T3
X2.5Y-32.84
X2.5Y-43.0
X5.0Y-58.34
X5.0Y-68.5
X6.0Y-32.84
X6.0Y-43.0
X6.5Y-46.0
X6.5Y-51.0
X8.5Y-55.5
X10.0Y-33.5
X10.0Y-38.5
X10.0Y-42.34
X10.0Y-52.5
X12.5Y-26.5
X13.5Y-41.5
X13.5Y-46.5
X13.5Y-55.5
X17.5Y-26.5
X20.8Y-26.5
X22.0Y-33.5
X22.0Y-38.5
X25.8Y-26.5
X30.0Y-33.5
X30.0Y-38.5
X30.5Y-66.5
X31.8Y-70.88
X31.8Y-78.5
X32.5Y-26.5
X34.34Y-70.88
X34.34Y-78.5
X36.0Y-53.38
X36.0Y-61.0
X36.5Y-47.5
X36.88Y-70.88
X36.88Y-78.5
X37.5Y-26.5
X38.54Y-53.38
X38.54Y-61.0
X39.0Y-47.5
X39.42Y-70.88
X39.42Y-78.5
X40.66Y-66.5
X40.8Y-26.5
X41.08Y-53.38
X41.08Y-61.0
X42.0Y-33.5
X42.0Y-38.5
X42.5Y-46.0
X42.5Y-51.0
X43.62Y-53.38
X43.62Y-61.0
X44.5Y-67.5
X45.8Y-26.5
X46.0Y-46.0
X46.0Y-51.0
X46.16Y-53.38
X46.16Y-61.0
X47.0Y-67.5
X48.7Y-53.38
X48.7Y-61.0
X50.5Y-28.0
X50.5Y-35.5
X50.5Y-47.5
X51.24Y-53.38
X51.24Y-61.0
X53.0Y-28.0
X53.0Y-35.5
X53.0Y-47.5
X53.78Y-53.38
X53.78Y-61.0
X54.0Y-65.0
X54.0Y-70.0
X57.0Y-39.5
X57.0Y-43.0
X57.14Y-57.0
X57.14Y-62.0
X57.5Y-65.0
X57.5Y-70.0
X58.0Y-33.5
X58.0Y-47.5
X60.5Y-33.5
X60.5Y-47.5
X60.5Y-53.38
X60.5Y-61.0
X61.5Y-26.5
X62.0Y-65.5
X63.04Y-53.38
X63.04Y-61.0
X64.5Y-65.5
X65.58Y-53.38
X65.58Y-61.0
X66.0Y-46.0
X66.0Y-51.0
X66.5Y-26.5
X67.16Y-39.5
X67.16Y-43.0
X68.12Y-53.38
X68.12Y-61.0
X69.0Y-65.3
X69.0Y-68.34
X69.0Y-78.5
X69.8Y-26.5
X70.0Y-39.5
X70.0Y-43.0
X70.0Y-46.0
X70.0Y-51.0
X70.66Y-53.38
X70.66Y-61.0
X73.2Y-53.38
X73.2Y-61.0
X73.3Y-68.34
X73.3Y-78.5
X74.0Y-33.5
X74.0Y-65.3
X74.8Y-26.5
X75.0Y-39.5
X75.0Y-43.0
X75.0Y-47.5
X75.74Y-53.38
X75.74Y-61.0
X76.5Y-33.5
X76.6Y-72.8
X76.6Y-77.4
X77.5Y-47.5
X77.5Y-67.3
X78.28Y-53.38
X78.28Y-61.0
X79.0Y-39.5
X79.0Y-43.0
X80.0Y-33.5
X80.04Y-67.3
X82.0Y-55.0
X82.0Y-57.54
X82.0Y-60.08
X82.0Y-62.62
X82.5Y-26.5
X82.5Y-33.5
X82.58Y-67.3
X85.0Y-66.0
X86.76Y-72.8
X86.76Y-77.4
X87.5Y-26.5
X89.16Y-39.5
X89.16Y-43.0
X89.2Y-72.8
X89.2Y-77.4
X89.62Y-55.0
X89.62Y-57.54
X89.62Y-60.08
X89.62Y-62.62
X90.0Y-48.5
X90.0Y-66.0
X90.5Y-69.3
X90.8Y-26.5
X92.0Y-39.5
X92.0Y-43.0
X92.5Y-48.5
X92.5Y-55.0
X92.5Y-60.0
X95.7Y-55.84
X95.7Y-66.0
X95.8Y-26.5
X96.0Y-33.5
X97.0Y-39.5
X97.0Y-43.0
X98.0Y-48.5
X98.5Y-33.5
X99.0Y-55.84
X99.0Y-66.0
X99.36Y-72.8
X99.36Y-77.4
X100.5Y-48.5
X100.66Y-69.3
X102.3Y-55.84
X102.3Y-66.0
X103.0Y-33.5
X103.0Y-40.5
X105.5Y-33.5
X105.5Y-40.5
X105.6Y-55.84
X105.6Y-66.0
T4
X3.0Y-72.3
X5.54Y-72.3
T5
X12.38Y-60.48
X12.38Y-63.02
X12.38Y-65.56
X12.38Y-68.1
X12.38Y-70.64
X12.38Y-73.18
X12.38Y-75.72
X27.62Y-60.48
X27.62Y-63.02
X27.62Y-65.56
X27.62Y-68.1
X27.62Y-70.64
X27.62Y-73.18
X27.62Y-75.72
X46.92Y-73.0
X49.46Y-73.0
X54.54Y-73.0
X57.08Y-73.0
X59.62Y-73.0
T6
X13.21Y-2.8
X13.21Y-9.15
X13.21Y-15.5
X24.64Y-2.8
X24.64Y-9.15
X24.64Y-15.5
X33.21Y-2.8
X33.21Y-9.15
X33.21Y-15.5
X44.64Y-2.8
X44.64Y-9.15
X44.64Y-15.5
X62.21Y-2.8
X62.21Y-9.15
X62.21Y-15.5
X73.64Y-2.8
X73.64Y-9.15
X73.64Y-15.5
X84.21Y-2.8
X84.21Y-9.15
X84.21Y-15.5
X95.64Y-2.8
X95.64Y-9.15
X95.64Y-15.5
T7
X13.21Y-6.0
X24.64Y-6.0
X33.21Y-6.0
X44.64Y-6.0
X62.21Y-6.0
X73.64Y-6.0
X84.21Y-6.0
X95.64Y-6.0
T8
X15.34Y-12.35
X35.34Y-12.35
X64.34Y-12.35
X86.34Y-12.35
M30
