M48
; DRILL file {KiCad 9.0.6} date 2026-09-07T18:30:41-0700
; FORMAT={-:-/ absolute / metric / decimal}
; #@! TF.CreationDate,2026-09-07T18:30:41-07:00
; #@! TF.GenerationSoftware,Kicad,Pcbnew,9.0.6
; #@! TF.FileFunction,MixedPlating,1,2
FMAT,2
METRIC
; #@! TA.AperFunction,Plated,PTH,ViaDrill
T1C0.400
; #@! TA.AperFunction,Plated,PTH,ViaDrill
T2C0.500
; #@! TA.AperFunction,Plated,PTH,ComponentDrill
T3C0.800
; #@! TA.AperFunction,Plated,PTH,ComponentDrill
T4C0.900
; #@! TA.AperFunction,Plated,PTH,ComponentDrill
T5C1.000
; #@! TA.AperFunction,Plated,PTH,ComponentDrill
T6C1.500
; #@! TA.AperFunction,NonPlated,NPTH,ComponentDrill
T7C2.000
; #@! TA.AperFunction,NonPlated,NPTH,ComponentDrill
T8C3.000
%
G90
G05
T1
X8.68Y-64.04
X31.861Y-58.89
X53.966Y-64.033
X65.972Y-32.675
X66.993Y-41.079
X68.641Y-57.613
X75.696Y-58.216
X85.412Y-66.0
X86.052Y-27.789
X91.198Y-70.2
T2
X65.979Y-49.161
X94.434Y-43.293
T3
X3.5Y-44.84
X3.5Y-55.0
X3.5Y-60.34
X3.5Y-70.5
X7.0Y-44.84
X7.0Y-55.0
X7.0Y-60.34
X7.0Y-70.5
X10.0Y-33.5
X10.0Y-38.5
X12.5Y-26.5
X17.5Y-26.5
X20.8Y-26.5
X22.0Y-33.5
X22.0Y-38.5
X25.8Y-26.5
X30.0Y-33.5
X30.0Y-38.5
X31.0Y-47.5
X31.5Y-70.88
X31.5Y-78.5
X32.4Y-65.0
X32.5Y-26.5
X33.5Y-47.5
X34.0Y-53.38
X34.0Y-61.0
X34.04Y-70.88
X34.04Y-78.5
X36.54Y-53.38
X36.54Y-61.0
X36.58Y-70.88
X36.58Y-78.5
X37.4Y-65.0
X37.5Y-26.5
X39.08Y-53.38
X39.08Y-61.0
X39.12Y-70.88
X39.12Y-78.5
X39.5Y-46.0
X39.5Y-51.0
X39.8Y-65.5
X40.8Y-26.5
X41.62Y-53.38
X41.62Y-61.0
X42.0Y-33.5
X42.0Y-38.5
X43.5Y-46.0
X43.5Y-51.0
X44.16Y-53.38
X44.16Y-61.0
X45.8Y-26.5
X46.7Y-53.38
X46.7Y-61.0
X48.0Y-47.5
X49.24Y-53.38
X49.24Y-61.0
X49.96Y-65.5
X50.5Y-28.0
X50.5Y-35.5
X50.5Y-47.5
X51.78Y-53.38
X51.78Y-61.0
X53.0Y-28.0
X53.0Y-35.5
X53.5Y-65.5
X55.0Y-47.5
X56.0Y-65.5
X57.0Y-39.5
X57.0Y-43.0
X57.5Y-47.5
X58.0Y-33.5
X58.0Y-53.38
X58.0Y-61.0
X60.5Y-33.5
X60.5Y-65.5
X60.54Y-53.38
X60.54Y-61.0
X61.5Y-26.5
X63.0Y-65.5
X63.08Y-53.38
X63.08Y-61.0
X63.5Y-46.0
X63.5Y-51.0
X65.62Y-53.38
X65.62Y-61.0
X66.5Y-26.5
X67.16Y-39.5
X67.16Y-43.0
X67.5Y-46.0
X67.5Y-51.0
X67.6Y-68.34
X67.6Y-78.5
X68.16Y-53.38
X68.16Y-61.0
X69.5Y-65.0
X69.8Y-26.5
X70.0Y-39.5
X70.0Y-43.0
X70.7Y-53.38
X70.7Y-61.0
X72.0Y-47.5
X72.6Y-68.34
X72.6Y-78.5
X73.24Y-53.38
X73.24Y-61.0
X74.0Y-33.5
X74.5Y-47.5
X74.5Y-65.0
X74.8Y-26.5
X75.0Y-39.5
X75.0Y-43.0
X75.7Y-70.2
X75.7Y-74.8
X75.78Y-53.38
X75.78Y-61.0
X76.5Y-33.5
X79.0Y-39.5
X79.0Y-43.0
X79.2Y-56.5
X79.2Y-61.5
X80.0Y-33.5
X82.0Y-55.0
X82.0Y-57.54
X82.0Y-60.08
X82.0Y-62.62
X82.5Y-26.5
X82.5Y-33.5
X85.86Y-70.2
X85.86Y-74.8
X87.5Y-26.5
X89.0Y-70.2
X89.0Y-74.8
X89.16Y-39.5
X89.16Y-43.0
X89.62Y-55.0
X89.62Y-57.54
X89.62Y-60.08
X89.62Y-62.62
X90.0Y-48.5
X90.8Y-26.5
X92.0Y-39.5
X92.0Y-43.0
X92.5Y-48.5
X92.5Y-55.0
X92.5Y-60.0
X95.7Y-55.84
X95.7Y-66.0
X95.8Y-26.5
X96.0Y-33.5
X97.0Y-39.5
X97.0Y-43.0
X98.0Y-48.5
X98.5Y-33.5
X99.0Y-55.84
X99.0Y-66.0
X99.16Y-70.2
X99.16Y-74.8
X100.5Y-48.5
X102.3Y-55.84
X102.3Y-66.0
X103.0Y-33.5
X103.0Y-40.5
X105.5Y-33.5
X105.5Y-40.5
X105.6Y-55.84
X105.6Y-66.0
T4
X102.0Y-71.0
X104.54Y-71.0
T5
X11.88Y-44.99
X11.88Y-47.53
X11.88Y-50.07
X11.88Y-52.61
X11.88Y-55.15
X11.88Y-57.69
X11.88Y-60.23
X11.88Y-62.77
X11.88Y-65.31
X11.88Y-67.85
X11.88Y-70.39
X11.88Y-72.93
X11.88Y-75.47
X11.88Y-78.01
X27.12Y-44.99
X27.12Y-47.53
X27.12Y-50.07
X27.12Y-52.61
X27.12Y-55.15
X27.12Y-57.69
X27.12Y-60.23
X27.12Y-62.77
X27.12Y-65.31
X27.12Y-67.85
X27.12Y-70.39
X27.12Y-72.93
X27.12Y-75.47
X27.12Y-78.01
X44.5Y-74.7
X47.04Y-74.7
X49.58Y-74.7
X57.2Y-74.7
X59.74Y-74.7
X62.28Y-74.7
T6
X13.21Y-2.8
X13.21Y-9.15
X13.21Y-15.5
X24.64Y-2.8
X24.64Y-9.15
X24.64Y-15.5
X33.21Y-2.8
X33.21Y-9.15
X33.21Y-15.5
X44.64Y-2.8
X44.64Y-9.15
X44.64Y-15.5
X62.21Y-2.8
X62.21Y-9.15
X62.21Y-15.5
X73.64Y-2.8
X73.64Y-9.15
X73.64Y-15.5
X84.21Y-2.8
X84.21Y-9.15
X84.21Y-15.5
X95.64Y-2.8
X95.64Y-9.15
X95.64Y-15.5
T7
X13.21Y-6.0
X24.64Y-6.0
X33.21Y-6.0
X44.64Y-6.0
X62.21Y-6.0
X73.64Y-6.0
X84.21Y-6.0
X95.64Y-6.0
T8
X15.34Y-12.35
X35.34Y-12.35
X64.34Y-12.35
X86.34Y-12.35
M30
