%TF.GenerationSoftware,KiCad,Pcbnew,9.0.6*%
%TF.CreationDate,2026-09-09T20:31:05-07:00*%
%TF.ProjectId,ghost-fader,67686f73-742d-4666-9164-65722e6b6963,rev?*%
%TF.SameCoordinates,Original*%
%TF.FileFunction,Drillmap*%
%TF.FilePolarity,Positive*%
%FSLAX45Y45*%
G04 Gerber Fmt 4.5, Leading zero omitted, Abs format (unit mm)*
G04 Created by KiCad (PCBNEW 9.0.6) date 2026-09-09 20:31:05*
%MOMM*%
%LPD*%
G01*
G04 APERTURE LIST*
%ADD10C,0.100000*%
%ADD11C,0.200000*%
%ADD12C,0.150000*%
%ADD13C,0.300000*%
G04 APERTURE END LIST*
D10*
X10800000Y-7350000D02*
X10050000Y-7350000D01*
X0Y-7350000D02*
X0Y-650000D01*
X750000Y-8000000D02*
X750000Y-7350000D01*
X750000Y-650000D02*
X750000Y0D01*
X10050000Y-7350000D02*
X10050000Y-8000000D01*
X10050000Y0D02*
X10050000Y-650000D01*
X10800000Y-650000D02*
X10800000Y-7350000D01*
X10050000Y-650000D02*
X10800000Y-650000D01*
X750000Y-7350000D02*
X0Y-7350000D01*
X750000Y0D02*
X10050000Y0D01*
X10050000Y-8000000D02*
X750000Y-8000000D01*
X0Y-650000D02*
X750000Y-650000D01*
D11*
D10*
X1565290Y-4218730D02*
X1605290Y-4258730D01*
X1605290Y-4218730D02*
X1565290Y-4258730D01*
X2001080Y-3927490D02*
X2041080Y-3967490D01*
X2041080Y-3927490D02*
X2001080Y-3967490D01*
X2016500Y-5465650D02*
X2056500Y-5505650D01*
X2056500Y-5465650D02*
X2016500Y-5505650D01*
X2270500Y-5463680D02*
X2310500Y-5503680D01*
X2310500Y-5463680D02*
X2270500Y-5503680D01*
X2436070Y-5465720D02*
X2476070Y-5505720D01*
X2476070Y-5465720D02*
X2436070Y-5505720D01*
X3256960Y-4962600D02*
X3296960Y-5002600D01*
X3296960Y-4962600D02*
X3256960Y-5002600D01*
X5090750Y-5077250D02*
X5130750Y-5117250D01*
X5130750Y-5077250D02*
X5090750Y-5117250D01*
X7417840Y-3544720D02*
X7457840Y-3584720D01*
X7457840Y-3544720D02*
X7417840Y-3584720D01*
X7905070Y-6404250D02*
X7945070Y-6444250D01*
X7945070Y-6404250D02*
X7905070Y-6444250D01*
X8615450Y-3170080D02*
X8655450Y-3210080D01*
X8655450Y-3170080D02*
X8615450Y-3210080D01*
X9124280Y-5583330D02*
X9164280Y-5623330D01*
X9164280Y-5583330D02*
X9124280Y-5623330D01*
X4728730Y-5913660D02*
G75*
G02*
X4678730Y-5913660I-25000J0D01*
G01*
X4678730Y-5913660D02*
G75*
G02*
X4728730Y-5913660I25000J0D01*
G01*
X4765410Y-3628690D02*
G75*
G02*
X4715410Y-3628690I-25000J0D01*
G01*
X4715410Y-3628690D02*
G75*
G02*
X4765410Y-3628690I25000J0D01*
G01*
X7389630Y-5012360D02*
G75*
G02*
X7339630Y-5012360I-25000J0D01*
G01*
X7339630Y-5012360D02*
G75*
G02*
X7389630Y-5012360I25000J0D01*
G01*
X8808740Y-7009980D02*
G75*
G02*
X8758740Y-7009980I-25000J0D01*
G01*
X8758740Y-7009980D02*
G75*
G02*
X8808740Y-7009980I25000J0D01*
G01*
X9544400Y-7017550D02*
G75*
G02*
X9494400Y-7017550I-25000J0D01*
G01*
X9494400Y-7017550D02*
G75*
G02*
X9544400Y-7017550I25000J0D01*
G01*
X250000Y-3244000D02*
X250000Y-3324000D01*
X210000Y-3284000D02*
X290000Y-3284000D01*
X250000Y-4260000D02*
X250000Y-4340000D01*
X210000Y-4300000D02*
X290000Y-4300000D01*
X500000Y-5794000D02*
X500000Y-5874000D01*
X460000Y-5834000D02*
X540000Y-5834000D01*
X500000Y-6810000D02*
X500000Y-6890000D01*
X460000Y-6850000D02*
X540000Y-6850000D01*
X600000Y-3244000D02*
X600000Y-3324000D01*
X560000Y-3284000D02*
X640000Y-3284000D01*
X600000Y-4260000D02*
X600000Y-4340000D01*
X560000Y-4300000D02*
X640000Y-4300000D01*
X650000Y-4560000D02*
X650000Y-4640000D01*
X610000Y-4600000D02*
X690000Y-4600000D01*
X650000Y-5060000D02*
X650000Y-5140000D01*
X610000Y-5100000D02*
X690000Y-5100000D01*
X850000Y-5510000D02*
X850000Y-5590000D01*
X810000Y-5550000D02*
X890000Y-5550000D01*
X1000000Y-3310000D02*
X1000000Y-3390000D01*
X960000Y-3350000D02*
X1040000Y-3350000D01*
X1000000Y-3810000D02*
X1000000Y-3890000D01*
X960000Y-3850000D02*
X1040000Y-3850000D01*
X1000000Y-4194000D02*
X1000000Y-4274000D01*
X960000Y-4234000D02*
X1040000Y-4234000D01*
X1000000Y-5210000D02*
X1000000Y-5290000D01*
X960000Y-5250000D02*
X1040000Y-5250000D01*
X1250000Y-2610000D02*
X1250000Y-2690000D01*
X1210000Y-2650000D02*
X1290000Y-2650000D01*
X1350000Y-4110000D02*
X1350000Y-4190000D01*
X1310000Y-4150000D02*
X1390000Y-4150000D01*
X1350000Y-4610000D02*
X1350000Y-4690000D01*
X1310000Y-4650000D02*
X1390000Y-4650000D01*
X1350000Y-5510000D02*
X1350000Y-5590000D01*
X1310000Y-5550000D02*
X1390000Y-5550000D01*
X1750000Y-2610000D02*
X1750000Y-2690000D01*
X1710000Y-2650000D02*
X1790000Y-2650000D01*
X2080000Y-2610000D02*
X2080000Y-2690000D01*
X2040000Y-2650000D02*
X2120000Y-2650000D01*
X2200000Y-3310000D02*
X2200000Y-3390000D01*
X2160000Y-3350000D02*
X2240000Y-3350000D01*
X2200000Y-3810000D02*
X2200000Y-3890000D01*
X2160000Y-3850000D02*
X2240000Y-3850000D01*
X2580000Y-2610000D02*
X2580000Y-2690000D01*
X2540000Y-2650000D02*
X2620000Y-2650000D01*
X3000000Y-3310000D02*
X3000000Y-3390000D01*
X2960000Y-3350000D02*
X3040000Y-3350000D01*
X3000000Y-3810000D02*
X3000000Y-3890000D01*
X2960000Y-3850000D02*
X3040000Y-3850000D01*
X3050000Y-6610000D02*
X3050000Y-6690000D01*
X3010000Y-6650000D02*
X3090000Y-6650000D01*
X3180000Y-7048000D02*
X3180000Y-7128000D01*
X3140000Y-7088000D02*
X3220000Y-7088000D01*
X3180000Y-7810000D02*
X3180000Y-7890000D01*
X3140000Y-7850000D02*
X3220000Y-7850000D01*
X3250000Y-2610000D02*
X3250000Y-2690000D01*
X3210000Y-2650000D02*
X3290000Y-2650000D01*
X3434000Y-7048000D02*
X3434000Y-7128000D01*
X3394000Y-7088000D02*
X3474000Y-7088000D01*
X3434000Y-7810000D02*
X3434000Y-7890000D01*
X3394000Y-7850000D02*
X3474000Y-7850000D01*
X3600000Y-5298000D02*
X3600000Y-5378000D01*
X3560000Y-5338000D02*
X3640000Y-5338000D01*
X3600000Y-6060000D02*
X3600000Y-6140000D01*
X3560000Y-6100000D02*
X3640000Y-6100000D01*
X3650000Y-4710000D02*
X3650000Y-4790000D01*
X3610000Y-4750000D02*
X3690000Y-4750000D01*
X3688000Y-7048000D02*
X3688000Y-7128000D01*
X3648000Y-7088000D02*
X3728000Y-7088000D01*
X3688000Y-7810000D02*
X3688000Y-7890000D01*
X3648000Y-7850000D02*
X3728000Y-7850000D01*
X3750000Y-2610000D02*
X3750000Y-2690000D01*
X3710000Y-2650000D02*
X3790000Y-2650000D01*
X3854000Y-5298000D02*
X3854000Y-5378000D01*
X3814000Y-5338000D02*
X3894000Y-5338000D01*
X3854000Y-6060000D02*
X3854000Y-6140000D01*
X3814000Y-6100000D02*
X3894000Y-6100000D01*
X3900000Y-4710000D02*
X3900000Y-4790000D01*
X3860000Y-4750000D02*
X3940000Y-4750000D01*
X3942000Y-7048000D02*
X3942000Y-7128000D01*
X3902000Y-7088000D02*
X3982000Y-7088000D01*
X3942000Y-7810000D02*
X3942000Y-7890000D01*
X3902000Y-7850000D02*
X3982000Y-7850000D01*
X4066000Y-6610000D02*
X4066000Y-6690000D01*
X4026000Y-6650000D02*
X4106000Y-6650000D01*
X4080000Y-2610000D02*
X4080000Y-2690000D01*
X4040000Y-2650000D02*
X4120000Y-2650000D01*
X4108000Y-5298000D02*
X4108000Y-5378000D01*
X4068000Y-5338000D02*
X4148000Y-5338000D01*
X4108000Y-6060000D02*
X4108000Y-6140000D01*
X4068000Y-6100000D02*
X4148000Y-6100000D01*
X4200000Y-3310000D02*
X4200000Y-3390000D01*
X4160000Y-3350000D02*
X4240000Y-3350000D01*
X4200000Y-3810000D02*
X4200000Y-3890000D01*
X4160000Y-3850000D02*
X4240000Y-3850000D01*
X4250000Y-4560000D02*
X4250000Y-4640000D01*
X4210000Y-4600000D02*
X4290000Y-4600000D01*
X4250000Y-5060000D02*
X4250000Y-5140000D01*
X4210000Y-5100000D02*
X4290000Y-5100000D01*
X4362000Y-5298000D02*
X4362000Y-5378000D01*
X4322000Y-5338000D02*
X4402000Y-5338000D01*
X4362000Y-6060000D02*
X4362000Y-6140000D01*
X4322000Y-6100000D02*
X4402000Y-6100000D01*
X4450000Y-6710000D02*
X4450000Y-6790000D01*
X4410000Y-6750000D02*
X4490000Y-6750000D01*
X4580000Y-2610000D02*
X4580000Y-2690000D01*
X4540000Y-2650000D02*
X4620000Y-2650000D01*
X4600000Y-4560000D02*
X4600000Y-4640000D01*
X4560000Y-4600000D02*
X4640000Y-4600000D01*
X4600000Y-5060000D02*
X4600000Y-5140000D01*
X4560000Y-5100000D02*
X4640000Y-5100000D01*
X4616000Y-5298000D02*
X4616000Y-5378000D01*
X4576000Y-5338000D02*
X4656000Y-5338000D01*
X4616000Y-6060000D02*
X4616000Y-6140000D01*
X4576000Y-6100000D02*
X4656000Y-6100000D01*
X4700000Y-6710000D02*
X4700000Y-6790000D01*
X4660000Y-6750000D02*
X4740000Y-6750000D01*
X4870000Y-5298000D02*
X4870000Y-5378000D01*
X4830000Y-5338000D02*
X4910000Y-5338000D01*
X4870000Y-6060000D02*
X4870000Y-6140000D01*
X4830000Y-6100000D02*
X4910000Y-6100000D01*
X5050000Y-2760000D02*
X5050000Y-2840000D01*
X5010000Y-2800000D02*
X5090000Y-2800000D01*
X5050000Y-3510000D02*
X5050000Y-3590000D01*
X5010000Y-3550000D02*
X5090000Y-3550000D01*
X5050000Y-4710000D02*
X5050000Y-4790000D01*
X5010000Y-4750000D02*
X5090000Y-4750000D01*
X5124000Y-5298000D02*
X5124000Y-5378000D01*
X5084000Y-5338000D02*
X5164000Y-5338000D01*
X5124000Y-6060000D02*
X5124000Y-6140000D01*
X5084000Y-6100000D02*
X5164000Y-6100000D01*
X5300000Y-2760000D02*
X5300000Y-2840000D01*
X5260000Y-2800000D02*
X5340000Y-2800000D01*
X5300000Y-3510000D02*
X5300000Y-3590000D01*
X5260000Y-3550000D02*
X5340000Y-3550000D01*
X5300000Y-4710000D02*
X5300000Y-4790000D01*
X5260000Y-4750000D02*
X5340000Y-4750000D01*
X5378000Y-5298000D02*
X5378000Y-5378000D01*
X5338000Y-5338000D02*
X5418000Y-5338000D01*
X5378000Y-6060000D02*
X5378000Y-6140000D01*
X5338000Y-6100000D02*
X5418000Y-6100000D01*
X5400000Y-6460000D02*
X5400000Y-6540000D01*
X5360000Y-6500000D02*
X5440000Y-6500000D01*
X5400000Y-6960000D02*
X5400000Y-7040000D01*
X5360000Y-7000000D02*
X5440000Y-7000000D01*
X5700000Y-3910000D02*
X5700000Y-3990000D01*
X5660000Y-3950000D02*
X5740000Y-3950000D01*
X5700000Y-4260000D02*
X5700000Y-4340000D01*
X5660000Y-4300000D02*
X5740000Y-4300000D01*
X5714000Y-5660000D02*
X5714000Y-5740000D01*
X5674000Y-5700000D02*
X5754000Y-5700000D01*
X5714000Y-6160000D02*
X5714000Y-6240000D01*
X5674000Y-6200000D02*
X5754000Y-6200000D01*
X5750000Y-6460000D02*
X5750000Y-6540000D01*
X5710000Y-6500000D02*
X5790000Y-6500000D01*
X5750000Y-6960000D02*
X5750000Y-7040000D01*
X5710000Y-7000000D02*
X5790000Y-7000000D01*
X5800000Y-3310000D02*
X5800000Y-3390000D01*
X5760000Y-3350000D02*
X5840000Y-3350000D01*
X5800000Y-4710000D02*
X5800000Y-4790000D01*
X5760000Y-4750000D02*
X5840000Y-4750000D01*
X6050000Y-3310000D02*
X6050000Y-3390000D01*
X6010000Y-3350000D02*
X6090000Y-3350000D01*
X6050000Y-4710000D02*
X6050000Y-4790000D01*
X6010000Y-4750000D02*
X6090000Y-4750000D01*
X6050000Y-5298000D02*
X6050000Y-5378000D01*
X6010000Y-5338000D02*
X6090000Y-5338000D01*
X6050000Y-6060000D02*
X6050000Y-6140000D01*
X6010000Y-6100000D02*
X6090000Y-6100000D01*
X6150000Y-2610000D02*
X6150000Y-2690000D01*
X6110000Y-2650000D02*
X6190000Y-2650000D01*
X6200000Y-6510000D02*
X6200000Y-6590000D01*
X6160000Y-6550000D02*
X6240000Y-6550000D01*
X6304000Y-5298000D02*
X6304000Y-5378000D01*
X6264000Y-5338000D02*
X6344000Y-5338000D01*
X6304000Y-6060000D02*
X6304000Y-6140000D01*
X6264000Y-6100000D02*
X6344000Y-6100000D01*
X6450000Y-6510000D02*
X6450000Y-6590000D01*
X6410000Y-6550000D02*
X6490000Y-6550000D01*
X6558000Y-5298000D02*
X6558000Y-5378000D01*
X6518000Y-5338000D02*
X6598000Y-5338000D01*
X6558000Y-6060000D02*
X6558000Y-6140000D01*
X6518000Y-6100000D02*
X6598000Y-6100000D01*
X6600000Y-4560000D02*
X6600000Y-4640000D01*
X6560000Y-4600000D02*
X6640000Y-4600000D01*
X6600000Y-5060000D02*
X6600000Y-5140000D01*
X6560000Y-5100000D02*
X6640000Y-5100000D01*
X6650000Y-2610000D02*
X6650000Y-2690000D01*
X6610000Y-2650000D02*
X6690000Y-2650000D01*
X6716000Y-3910000D02*
X6716000Y-3990000D01*
X6676000Y-3950000D02*
X6756000Y-3950000D01*
X6716000Y-4260000D02*
X6716000Y-4340000D01*
X6676000Y-4300000D02*
X6756000Y-4300000D01*
X6812000Y-5298000D02*
X6812000Y-5378000D01*
X6772000Y-5338000D02*
X6852000Y-5338000D01*
X6812000Y-6060000D02*
X6812000Y-6140000D01*
X6772000Y-6100000D02*
X6852000Y-6100000D01*
X6900000Y-6490000D02*
X6900000Y-6570000D01*
X6860000Y-6530000D02*
X6940000Y-6530000D01*
X6900000Y-6794000D02*
X6900000Y-6874000D01*
X6860000Y-6834000D02*
X6940000Y-6834000D01*
X6900000Y-7810000D02*
X6900000Y-7890000D01*
X6860000Y-7850000D02*
X6940000Y-7850000D01*
X6980000Y-2610000D02*
X6980000Y-2690000D01*
X6940000Y-2650000D02*
X7020000Y-2650000D01*
X7000000Y-3910000D02*
X7000000Y-3990000D01*
X6960000Y-3950000D02*
X7040000Y-3950000D01*
X7000000Y-4260000D02*
X7000000Y-4340000D01*
X6960000Y-4300000D02*
X7040000Y-4300000D01*
X7000000Y-4560000D02*
X7000000Y-4640000D01*
X6960000Y-4600000D02*
X7040000Y-4600000D01*
X7000000Y-5060000D02*
X7000000Y-5140000D01*
X6960000Y-5100000D02*
X7040000Y-5100000D01*
X7066000Y-5298000D02*
X7066000Y-5378000D01*
X7026000Y-5338000D02*
X7106000Y-5338000D01*
X7066000Y-6060000D02*
X7066000Y-6140000D01*
X7026000Y-6100000D02*
X7106000Y-6100000D01*
X7320000Y-5298000D02*
X7320000Y-5378000D01*
X7280000Y-5338000D02*
X7360000Y-5338000D01*
X7320000Y-6060000D02*
X7320000Y-6140000D01*
X7280000Y-6100000D02*
X7360000Y-6100000D01*
X7330000Y-6794000D02*
X7330000Y-6874000D01*
X7290000Y-6834000D02*
X7370000Y-6834000D01*
X7330000Y-7810000D02*
X7330000Y-7890000D01*
X7290000Y-7850000D02*
X7370000Y-7850000D01*
X7400000Y-3310000D02*
X7400000Y-3390000D01*
X7360000Y-3350000D02*
X7440000Y-3350000D01*
X7400000Y-6490000D02*
X7400000Y-6570000D01*
X7360000Y-6530000D02*
X7440000Y-6530000D01*
X7480000Y-2610000D02*
X7480000Y-2690000D01*
X7440000Y-2650000D02*
X7520000Y-2650000D01*
X7500000Y-3910000D02*
X7500000Y-3990000D01*
X7460000Y-3950000D02*
X7540000Y-3950000D01*
X7500000Y-4260000D02*
X7500000Y-4340000D01*
X7460000Y-4300000D02*
X7540000Y-4300000D01*
X7500000Y-4710000D02*
X7500000Y-4790000D01*
X7460000Y-4750000D02*
X7540000Y-4750000D01*
X7574000Y-5298000D02*
X7574000Y-5378000D01*
X7534000Y-5338000D02*
X7614000Y-5338000D01*
X7574000Y-6060000D02*
X7574000Y-6140000D01*
X7534000Y-6100000D02*
X7614000Y-6100000D01*
X7650000Y-3310000D02*
X7650000Y-3390000D01*
X7610000Y-3350000D02*
X7690000Y-3350000D01*
X7660000Y-7240000D02*
X7660000Y-7320000D01*
X7620000Y-7280000D02*
X7700000Y-7280000D01*
X7660000Y-7700000D02*
X7660000Y-7780000D01*
X7620000Y-7740000D02*
X7700000Y-7740000D01*
X7750000Y-4710000D02*
X7750000Y-4790000D01*
X7710000Y-4750000D02*
X7790000Y-4750000D01*
X7750000Y-6690000D02*
X7750000Y-6770000D01*
X7710000Y-6730000D02*
X7790000Y-6730000D01*
X7828000Y-5298000D02*
X7828000Y-5378000D01*
X7788000Y-5338000D02*
X7868000Y-5338000D01*
X7828000Y-6060000D02*
X7828000Y-6140000D01*
X7788000Y-6100000D02*
X7868000Y-6100000D01*
X7900000Y-3910000D02*
X7900000Y-3990000D01*
X7860000Y-3950000D02*
X7940000Y-3950000D01*
X7900000Y-4260000D02*
X7900000Y-4340000D01*
X7860000Y-4300000D02*
X7940000Y-4300000D01*
X8000000Y-3310000D02*
X8000000Y-3390000D01*
X7960000Y-3350000D02*
X8040000Y-3350000D01*
X8004000Y-6690000D02*
X8004000Y-6770000D01*
X7964000Y-6730000D02*
X8044000Y-6730000D01*
X8200000Y-5460000D02*
X8200000Y-5540000D01*
X8160000Y-5500000D02*
X8240000Y-5500000D01*
X8200000Y-5714000D02*
X8200000Y-5794000D01*
X8160000Y-5754000D02*
X8240000Y-5754000D01*
X8200000Y-5968000D02*
X8200000Y-6048000D01*
X8160000Y-6008000D02*
X8240000Y-6008000D01*
X8200000Y-6222000D02*
X8200000Y-6302000D01*
X8160000Y-6262000D02*
X8240000Y-6262000D01*
X8250000Y-2610000D02*
X8250000Y-2690000D01*
X8210000Y-2650000D02*
X8290000Y-2650000D01*
X8250000Y-3310000D02*
X8250000Y-3390000D01*
X8210000Y-3350000D02*
X8290000Y-3350000D01*
X8258000Y-6690000D02*
X8258000Y-6770000D01*
X8218000Y-6730000D02*
X8298000Y-6730000D01*
X8500000Y-6560000D02*
X8500000Y-6640000D01*
X8460000Y-6600000D02*
X8540000Y-6600000D01*
X8676000Y-7240000D02*
X8676000Y-7320000D01*
X8636000Y-7280000D02*
X8716000Y-7280000D01*
X8676000Y-7700000D02*
X8676000Y-7780000D01*
X8636000Y-7740000D02*
X8716000Y-7740000D01*
X8750000Y-2610000D02*
X8750000Y-2690000D01*
X8710000Y-2650000D02*
X8790000Y-2650000D01*
X8916000Y-3910000D02*
X8916000Y-3990000D01*
X8876000Y-3950000D02*
X8956000Y-3950000D01*
X8916000Y-4260000D02*
X8916000Y-4340000D01*
X8876000Y-4300000D02*
X8956000Y-4300000D01*
X8920000Y-7240000D02*
X8920000Y-7320000D01*
X8880000Y-7280000D02*
X8960000Y-7280000D01*
X8920000Y-7700000D02*
X8920000Y-7780000D01*
X8880000Y-7740000D02*
X8960000Y-7740000D01*
X8962000Y-5460000D02*
X8962000Y-5540000D01*
X8922000Y-5500000D02*
X9002000Y-5500000D01*
X8962000Y-5714000D02*
X8962000Y-5794000D01*
X8922000Y-5754000D02*
X9002000Y-5754000D01*
X8962000Y-5968000D02*
X8962000Y-6048000D01*
X8922000Y-6008000D02*
X9002000Y-6008000D01*
X8962000Y-6222000D02*
X8962000Y-6302000D01*
X8922000Y-6262000D02*
X9002000Y-6262000D01*
X9000000Y-4810000D02*
X9000000Y-4890000D01*
X8960000Y-4850000D02*
X9040000Y-4850000D01*
X9000000Y-6560000D02*
X9000000Y-6640000D01*
X8960000Y-6600000D02*
X9040000Y-6600000D01*
X9050000Y-6890000D02*
X9050000Y-6970000D01*
X9010000Y-6930000D02*
X9090000Y-6930000D01*
X9080000Y-2610000D02*
X9080000Y-2690000D01*
X9040000Y-2650000D02*
X9120000Y-2650000D01*
X9200000Y-3910000D02*
X9200000Y-3990000D01*
X9160000Y-3950000D02*
X9240000Y-3950000D01*
X9200000Y-4260000D02*
X9200000Y-4340000D01*
X9160000Y-4300000D02*
X9240000Y-4300000D01*
X9250000Y-4810000D02*
X9250000Y-4890000D01*
X9210000Y-4850000D02*
X9290000Y-4850000D01*
X9250000Y-5460000D02*
X9250000Y-5540000D01*
X9210000Y-5500000D02*
X9290000Y-5500000D01*
X9250000Y-5960000D02*
X9250000Y-6040000D01*
X9210000Y-6000000D02*
X9290000Y-6000000D01*
X9570000Y-5544000D02*
X9570000Y-5624000D01*
X9530000Y-5584000D02*
X9610000Y-5584000D01*
X9570000Y-6560000D02*
X9570000Y-6640000D01*
X9530000Y-6600000D02*
X9610000Y-6600000D01*
X9580000Y-2610000D02*
X9580000Y-2690000D01*
X9540000Y-2650000D02*
X9620000Y-2650000D01*
X9600000Y-3310000D02*
X9600000Y-3390000D01*
X9560000Y-3350000D02*
X9640000Y-3350000D01*
X9700000Y-3910000D02*
X9700000Y-3990000D01*
X9660000Y-3950000D02*
X9740000Y-3950000D01*
X9700000Y-4260000D02*
X9700000Y-4340000D01*
X9660000Y-4300000D02*
X9740000Y-4300000D01*
X9800000Y-4810000D02*
X9800000Y-4890000D01*
X9760000Y-4850000D02*
X9840000Y-4850000D01*
X9850000Y-3310000D02*
X9850000Y-3390000D01*
X9810000Y-3350000D02*
X9890000Y-3350000D01*
X9900000Y-5544000D02*
X9900000Y-5624000D01*
X9860000Y-5584000D02*
X9940000Y-5584000D01*
X9900000Y-6560000D02*
X9900000Y-6640000D01*
X9860000Y-6600000D02*
X9940000Y-6600000D01*
X9936000Y-7240000D02*
X9936000Y-7320000D01*
X9896000Y-7280000D02*
X9976000Y-7280000D01*
X9936000Y-7700000D02*
X9936000Y-7780000D01*
X9896000Y-7740000D02*
X9976000Y-7740000D01*
X10050000Y-4810000D02*
X10050000Y-4890000D01*
X10010000Y-4850000D02*
X10090000Y-4850000D01*
X10066000Y-6890000D02*
X10066000Y-6970000D01*
X10026000Y-6930000D02*
X10106000Y-6930000D01*
X10230000Y-5544000D02*
X10230000Y-5624000D01*
X10190000Y-5584000D02*
X10270000Y-5584000D01*
X10230000Y-6560000D02*
X10230000Y-6640000D01*
X10190000Y-6600000D02*
X10270000Y-6600000D01*
X10300000Y-3310000D02*
X10300000Y-3390000D01*
X10260000Y-3350000D02*
X10340000Y-3350000D01*
X10300000Y-4010000D02*
X10300000Y-4090000D01*
X10260000Y-4050000D02*
X10340000Y-4050000D01*
X10550000Y-3310000D02*
X10550000Y-3390000D01*
X10510000Y-3350000D02*
X10590000Y-3350000D01*
X10550000Y-4010000D02*
X10550000Y-4090000D01*
X10510000Y-4050000D02*
X10590000Y-4050000D01*
X10560000Y-5544000D02*
X10560000Y-5624000D01*
X10520000Y-5584000D02*
X10600000Y-5584000D01*
X10560000Y-6560000D02*
X10560000Y-6640000D01*
X10520000Y-6600000D02*
X10600000Y-6600000D01*
X331820Y-7261820D02*
X331820Y-7198180D01*
X268180Y-7198180D01*
X268180Y-7261820D01*
X331820Y-7261820D01*
X585820Y-7261820D02*
X585820Y-7198180D01*
X522180Y-7198180D01*
X522180Y-7261820D01*
X585820Y-7261820D01*
X1238000Y-6098000D02*
X1288000Y-6048000D01*
X1238000Y-5998000D01*
X1188000Y-6048000D01*
X1238000Y-6098000D01*
X1238000Y-6352000D02*
X1288000Y-6302000D01*
X1238000Y-6252000D01*
X1188000Y-6302000D01*
X1238000Y-6352000D01*
X1238000Y-6606000D02*
X1288000Y-6556000D01*
X1238000Y-6506000D01*
X1188000Y-6556000D01*
X1238000Y-6606000D01*
X1238000Y-6860000D02*
X1288000Y-6810000D01*
X1238000Y-6760000D01*
X1188000Y-6810000D01*
X1238000Y-6860000D01*
X1238000Y-7114000D02*
X1288000Y-7064000D01*
X1238000Y-7014000D01*
X1188000Y-7064000D01*
X1238000Y-7114000D01*
X1238000Y-7368000D02*
X1288000Y-7318000D01*
X1238000Y-7268000D01*
X1188000Y-7318000D01*
X1238000Y-7368000D01*
X1238000Y-7622000D02*
X1288000Y-7572000D01*
X1238000Y-7522000D01*
X1188000Y-7572000D01*
X1238000Y-7622000D01*
X2762000Y-6098000D02*
X2812000Y-6048000D01*
X2762000Y-5998000D01*
X2712000Y-6048000D01*
X2762000Y-6098000D01*
X2762000Y-6352000D02*
X2812000Y-6302000D01*
X2762000Y-6252000D01*
X2712000Y-6302000D01*
X2762000Y-6352000D01*
X2762000Y-6606000D02*
X2812000Y-6556000D01*
X2762000Y-6506000D01*
X2712000Y-6556000D01*
X2762000Y-6606000D01*
X2762000Y-6860000D02*
X2812000Y-6810000D01*
X2762000Y-6760000D01*
X2712000Y-6810000D01*
X2762000Y-6860000D01*
X2762000Y-7114000D02*
X2812000Y-7064000D01*
X2762000Y-7014000D01*
X2712000Y-7064000D01*
X2762000Y-7114000D01*
X2762000Y-7368000D02*
X2812000Y-7318000D01*
X2762000Y-7268000D01*
X2712000Y-7318000D01*
X2762000Y-7368000D01*
X2762000Y-7622000D02*
X2812000Y-7572000D01*
X2762000Y-7522000D01*
X2712000Y-7572000D01*
X2762000Y-7622000D01*
X4692000Y-7350000D02*
X4742000Y-7300000D01*
X4692000Y-7250000D01*
X4642000Y-7300000D01*
X4692000Y-7350000D01*
X4946000Y-7350000D02*
X4996000Y-7300000D01*
X4946000Y-7250000D01*
X4896000Y-7300000D01*
X4946000Y-7350000D01*
X5454000Y-7350000D02*
X5504000Y-7300000D01*
X5454000Y-7250000D01*
X5404000Y-7300000D01*
X5454000Y-7350000D01*
X5708000Y-7350000D02*
X5758000Y-7300000D01*
X5708000Y-7250000D01*
X5658000Y-7300000D01*
X5708000Y-7350000D01*
X5962000Y-7350000D02*
X6012000Y-7300000D01*
X5962000Y-7250000D01*
X5912000Y-7300000D01*
X5962000Y-7350000D01*
D12*
X1246000Y-205000D02*
X1396000Y-355000D01*
X1396000Y-205000D02*
X1246000Y-355000D01*
X1396000Y-280000D02*
G75*
G02*
X1246000Y-280000I-75000J0D01*
G01*
X1246000Y-280000D02*
G75*
G02*
X1396000Y-280000I75000J0D01*
G01*
X1246000Y-840000D02*
X1396000Y-990000D01*
X1396000Y-840000D02*
X1246000Y-990000D01*
X1396000Y-915000D02*
G75*
G02*
X1246000Y-915000I-75000J0D01*
G01*
X1246000Y-915000D02*
G75*
G02*
X1396000Y-915000I75000J0D01*
G01*
X1246000Y-1475000D02*
X1396000Y-1625000D01*
X1396000Y-1475000D02*
X1246000Y-1625000D01*
X1396000Y-1550000D02*
G75*
G02*
X1246000Y-1550000I-75000J0D01*
G01*
X1246000Y-1550000D02*
G75*
G02*
X1396000Y-1550000I75000J0D01*
G01*
X2389000Y-205000D02*
X2539000Y-355000D01*
X2539000Y-205000D02*
X2389000Y-355000D01*
X2539000Y-280000D02*
G75*
G02*
X2389000Y-280000I-75000J0D01*
G01*
X2389000Y-280000D02*
G75*
G02*
X2539000Y-280000I75000J0D01*
G01*
X2389000Y-840000D02*
X2539000Y-990000D01*
X2539000Y-840000D02*
X2389000Y-990000D01*
X2539000Y-915000D02*
G75*
G02*
X2389000Y-915000I-75000J0D01*
G01*
X2389000Y-915000D02*
G75*
G02*
X2539000Y-915000I75000J0D01*
G01*
X2389000Y-1475000D02*
X2539000Y-1625000D01*
X2539000Y-1475000D02*
X2389000Y-1625000D01*
X2539000Y-1550000D02*
G75*
G02*
X2389000Y-1550000I-75000J0D01*
G01*
X2389000Y-1550000D02*
G75*
G02*
X2539000Y-1550000I75000J0D01*
G01*
X3246000Y-205000D02*
X3396000Y-355000D01*
X3396000Y-205000D02*
X3246000Y-355000D01*
X3396000Y-280000D02*
G75*
G02*
X3246000Y-280000I-75000J0D01*
G01*
X3246000Y-280000D02*
G75*
G02*
X3396000Y-280000I75000J0D01*
G01*
X3246000Y-840000D02*
X3396000Y-990000D01*
X3396000Y-840000D02*
X3246000Y-990000D01*
X3396000Y-915000D02*
G75*
G02*
X3246000Y-915000I-75000J0D01*
G01*
X3246000Y-915000D02*
G75*
G02*
X3396000Y-915000I75000J0D01*
G01*
X3246000Y-1475000D02*
X3396000Y-1625000D01*
X3396000Y-1475000D02*
X3246000Y-1625000D01*
X3396000Y-1550000D02*
G75*
G02*
X3246000Y-1550000I-75000J0D01*
G01*
X3246000Y-1550000D02*
G75*
G02*
X3396000Y-1550000I75000J0D01*
G01*
X4389000Y-205000D02*
X4539000Y-355000D01*
X4539000Y-205000D02*
X4389000Y-355000D01*
X4539000Y-280000D02*
G75*
G02*
X4389000Y-280000I-75000J0D01*
G01*
X4389000Y-280000D02*
G75*
G02*
X4539000Y-280000I75000J0D01*
G01*
X4389000Y-840000D02*
X4539000Y-990000D01*
X4539000Y-840000D02*
X4389000Y-990000D01*
X4539000Y-915000D02*
G75*
G02*
X4389000Y-915000I-75000J0D01*
G01*
X4389000Y-915000D02*
G75*
G02*
X4539000Y-915000I75000J0D01*
G01*
X4389000Y-1475000D02*
X4539000Y-1625000D01*
X4539000Y-1475000D02*
X4389000Y-1625000D01*
X4539000Y-1550000D02*
G75*
G02*
X4389000Y-1550000I-75000J0D01*
G01*
X4389000Y-1550000D02*
G75*
G02*
X4539000Y-1550000I75000J0D01*
G01*
X6146000Y-205000D02*
X6296000Y-355000D01*
X6296000Y-205000D02*
X6146000Y-355000D01*
X6296000Y-280000D02*
G75*
G02*
X6146000Y-280000I-75000J0D01*
G01*
X6146000Y-280000D02*
G75*
G02*
X6296000Y-280000I75000J0D01*
G01*
X6146000Y-840000D02*
X6296000Y-990000D01*
X6296000Y-840000D02*
X6146000Y-990000D01*
X6296000Y-915000D02*
G75*
G02*
X6146000Y-915000I-75000J0D01*
G01*
X6146000Y-915000D02*
G75*
G02*
X6296000Y-915000I75000J0D01*
G01*
X6146000Y-1475000D02*
X6296000Y-1625000D01*
X6296000Y-1475000D02*
X6146000Y-1625000D01*
X6296000Y-1550000D02*
G75*
G02*
X6146000Y-1550000I-75000J0D01*
G01*
X6146000Y-1550000D02*
G75*
G02*
X6296000Y-1550000I75000J0D01*
G01*
X7289000Y-205000D02*
X7439000Y-355000D01*
X7439000Y-205000D02*
X7289000Y-355000D01*
X7439000Y-280000D02*
G75*
G02*
X7289000Y-280000I-75000J0D01*
G01*
X7289000Y-280000D02*
G75*
G02*
X7439000Y-280000I75000J0D01*
G01*
X7289000Y-840000D02*
X7439000Y-990000D01*
X7439000Y-840000D02*
X7289000Y-990000D01*
X7439000Y-915000D02*
G75*
G02*
X7289000Y-915000I-75000J0D01*
G01*
X7289000Y-915000D02*
G75*
G02*
X7439000Y-915000I75000J0D01*
G01*
X7289000Y-1475000D02*
X7439000Y-1625000D01*
X7439000Y-1475000D02*
X7289000Y-1625000D01*
X7439000Y-1550000D02*
G75*
G02*
X7289000Y-1550000I-75000J0D01*
G01*
X7289000Y-1550000D02*
G75*
G02*
X7439000Y-1550000I75000J0D01*
G01*
X8346000Y-205000D02*
X8496000Y-355000D01*
X8496000Y-205000D02*
X8346000Y-355000D01*
X8496000Y-280000D02*
G75*
G02*
X8346000Y-280000I-75000J0D01*
G01*
X8346000Y-280000D02*
G75*
G02*
X8496000Y-280000I75000J0D01*
G01*
X8346000Y-840000D02*
X8496000Y-990000D01*
X8496000Y-840000D02*
X8346000Y-990000D01*
X8496000Y-915000D02*
G75*
G02*
X8346000Y-915000I-75000J0D01*
G01*
X8346000Y-915000D02*
G75*
G02*
X8496000Y-915000I75000J0D01*
G01*
X8346000Y-1475000D02*
X8496000Y-1625000D01*
X8496000Y-1475000D02*
X8346000Y-1625000D01*
X8496000Y-1550000D02*
G75*
G02*
X8346000Y-1550000I-75000J0D01*
G01*
X8346000Y-1550000D02*
G75*
G02*
X8496000Y-1550000I75000J0D01*
G01*
X9489000Y-205000D02*
X9639000Y-355000D01*
X9639000Y-205000D02*
X9489000Y-355000D01*
X9639000Y-280000D02*
G75*
G02*
X9489000Y-280000I-75000J0D01*
G01*
X9489000Y-280000D02*
G75*
G02*
X9639000Y-280000I75000J0D01*
G01*
X9489000Y-840000D02*
X9639000Y-990000D01*
X9639000Y-840000D02*
X9489000Y-990000D01*
X9639000Y-915000D02*
G75*
G02*
X9489000Y-915000I-75000J0D01*
G01*
X9489000Y-915000D02*
G75*
G02*
X9639000Y-915000I75000J0D01*
G01*
X9489000Y-1475000D02*
X9639000Y-1625000D01*
X9639000Y-1475000D02*
X9489000Y-1625000D01*
X9639000Y-1550000D02*
G75*
G02*
X9489000Y-1550000I-75000J0D01*
G01*
X9489000Y-1550000D02*
G75*
G02*
X9639000Y-1550000I75000J0D01*
G01*
D11*
X1221000Y-500000D02*
X1421000Y-700000D01*
X1421000Y-500000D02*
X1221000Y-700000D01*
X1321000Y-500000D02*
X1321000Y-700000D01*
X1221000Y-600000D02*
X1421000Y-600000D01*
X2364000Y-500000D02*
X2564000Y-700000D01*
X2564000Y-500000D02*
X2364000Y-700000D01*
X2464000Y-500000D02*
X2464000Y-700000D01*
X2364000Y-600000D02*
X2564000Y-600000D01*
X3221000Y-500000D02*
X3421000Y-700000D01*
X3421000Y-500000D02*
X3221000Y-700000D01*
X3321000Y-500000D02*
X3321000Y-700000D01*
X3221000Y-600000D02*
X3421000Y-600000D01*
X4364000Y-500000D02*
X4564000Y-700000D01*
X4564000Y-500000D02*
X4364000Y-700000D01*
X4464000Y-500000D02*
X4464000Y-700000D01*
X4364000Y-600000D02*
X4564000Y-600000D01*
X6121000Y-500000D02*
X6321000Y-700000D01*
X6321000Y-500000D02*
X6121000Y-700000D01*
X6221000Y-500000D02*
X6221000Y-700000D01*
X6121000Y-600000D02*
X6321000Y-600000D01*
X7264000Y-500000D02*
X7464000Y-700000D01*
X7464000Y-500000D02*
X7264000Y-700000D01*
X7364000Y-500000D02*
X7364000Y-700000D01*
X7264000Y-600000D02*
X7464000Y-600000D01*
X8321000Y-500000D02*
X8521000Y-700000D01*
X8521000Y-500000D02*
X8321000Y-700000D01*
X8421000Y-500000D02*
X8421000Y-700000D01*
X8321000Y-600000D02*
X8521000Y-600000D01*
X9464000Y-500000D02*
X9664000Y-700000D01*
X9664000Y-500000D02*
X9464000Y-700000D01*
X9564000Y-500000D02*
X9564000Y-700000D01*
X9464000Y-600000D02*
X9664000Y-600000D01*
D13*
X1384000Y-1085000D02*
X1684000Y-1385000D01*
X1684000Y-1085000D02*
X1384000Y-1385000D01*
X1640067Y-1341067D02*
X1640067Y-1128933D01*
X1427933Y-1128933D01*
X1427933Y-1341067D01*
X1640067Y-1341067D01*
X3384000Y-1085000D02*
X3684000Y-1385000D01*
X3684000Y-1085000D02*
X3384000Y-1385000D01*
X3640067Y-1341067D02*
X3640067Y-1128933D01*
X3427933Y-1128933D01*
X3427933Y-1341067D01*
X3640067Y-1341067D01*
X6284000Y-1085000D02*
X6584000Y-1385000D01*
X6584000Y-1085000D02*
X6284000Y-1385000D01*
X6540067Y-1341067D02*
X6540067Y-1128933D01*
X6327933Y-1128933D01*
X6327933Y-1341067D01*
X6540067Y-1341067D01*
X8484000Y-1085000D02*
X8784000Y-1385000D01*
X8784000Y-1085000D02*
X8484000Y-1385000D01*
X8740067Y-1341067D02*
X8740067Y-1128933D01*
X8527933Y-1128933D01*
X8527933Y-1341067D01*
X8740067Y-1341067D01*
D11*
X255777Y-8316484D02*
X255777Y-8116484D01*
X255777Y-8116484D02*
X303396Y-8116484D01*
X303396Y-8116484D02*
X331967Y-8126008D01*
X331967Y-8126008D02*
X351015Y-8145055D01*
X351015Y-8145055D02*
X360539Y-8164103D01*
X360539Y-8164103D02*
X370062Y-8202198D01*
X370062Y-8202198D02*
X370062Y-8230769D01*
X370062Y-8230769D02*
X360539Y-8268865D01*
X360539Y-8268865D02*
X351015Y-8287912D01*
X351015Y-8287912D02*
X331967Y-8306960D01*
X331967Y-8306960D02*
X303396Y-8316484D01*
X303396Y-8316484D02*
X255777Y-8316484D01*
X455777Y-8316484D02*
X455777Y-8183150D01*
X455777Y-8221246D02*
X465301Y-8202198D01*
X465301Y-8202198D02*
X474824Y-8192674D01*
X474824Y-8192674D02*
X493872Y-8183150D01*
X493872Y-8183150D02*
X512920Y-8183150D01*
X579586Y-8316484D02*
X579586Y-8183150D01*
X579586Y-8116484D02*
X570063Y-8126008D01*
X570063Y-8126008D02*
X579586Y-8135531D01*
X579586Y-8135531D02*
X589110Y-8126008D01*
X589110Y-8126008D02*
X579586Y-8116484D01*
X579586Y-8116484D02*
X579586Y-8135531D01*
X703396Y-8316484D02*
X684348Y-8306960D01*
X684348Y-8306960D02*
X674824Y-8287912D01*
X674824Y-8287912D02*
X674824Y-8116484D01*
X808158Y-8316484D02*
X789110Y-8306960D01*
X789110Y-8306960D02*
X779586Y-8287912D01*
X779586Y-8287912D02*
X779586Y-8116484D01*
X1036729Y-8316484D02*
X1036729Y-8116484D01*
X1036729Y-8116484D02*
X1103396Y-8259341D01*
X1103396Y-8259341D02*
X1170063Y-8116484D01*
X1170063Y-8116484D02*
X1170063Y-8316484D01*
X1351015Y-8316484D02*
X1351015Y-8211722D01*
X1351015Y-8211722D02*
X1341491Y-8192674D01*
X1341491Y-8192674D02*
X1322444Y-8183150D01*
X1322444Y-8183150D02*
X1284348Y-8183150D01*
X1284348Y-8183150D02*
X1265301Y-8192674D01*
X1351015Y-8306960D02*
X1331967Y-8316484D01*
X1331967Y-8316484D02*
X1284348Y-8316484D01*
X1284348Y-8316484D02*
X1265301Y-8306960D01*
X1265301Y-8306960D02*
X1255777Y-8287912D01*
X1255777Y-8287912D02*
X1255777Y-8268865D01*
X1255777Y-8268865D02*
X1265301Y-8249817D01*
X1265301Y-8249817D02*
X1284348Y-8240293D01*
X1284348Y-8240293D02*
X1331967Y-8240293D01*
X1331967Y-8240293D02*
X1351015Y-8230769D01*
X1446253Y-8183150D02*
X1446253Y-8383150D01*
X1446253Y-8192674D02*
X1465301Y-8183150D01*
X1465301Y-8183150D02*
X1503396Y-8183150D01*
X1503396Y-8183150D02*
X1522443Y-8192674D01*
X1522443Y-8192674D02*
X1531967Y-8202198D01*
X1531967Y-8202198D02*
X1541491Y-8221246D01*
X1541491Y-8221246D02*
X1541491Y-8278388D01*
X1541491Y-8278388D02*
X1531967Y-8297436D01*
X1531967Y-8297436D02*
X1522443Y-8306960D01*
X1522443Y-8306960D02*
X1503396Y-8316484D01*
X1503396Y-8316484D02*
X1465301Y-8316484D01*
X1465301Y-8316484D02*
X1446253Y-8306960D01*
X1627205Y-8297436D02*
X1636729Y-8306960D01*
X1636729Y-8306960D02*
X1627205Y-8316484D01*
X1627205Y-8316484D02*
X1617682Y-8306960D01*
X1617682Y-8306960D02*
X1627205Y-8297436D01*
X1627205Y-8297436D02*
X1627205Y-8316484D01*
X1627205Y-8192674D02*
X1636729Y-8202198D01*
X1636729Y-8202198D02*
X1627205Y-8211722D01*
X1627205Y-8211722D02*
X1617682Y-8202198D01*
X1617682Y-8202198D02*
X1627205Y-8192674D01*
X1627205Y-8192674D02*
X1627205Y-8211722D01*
D10*
X-45000Y-8625000D02*
X-5000Y-8665000D01*
X-5000Y-8625000D02*
X-45000Y-8665000D01*
D11*
X293872Y-8536484D02*
X312920Y-8536484D01*
X312920Y-8536484D02*
X331967Y-8546008D01*
X331967Y-8546008D02*
X341491Y-8555531D01*
X341491Y-8555531D02*
X351015Y-8574579D01*
X351015Y-8574579D02*
X360539Y-8612674D01*
X360539Y-8612674D02*
X360539Y-8660293D01*
X360539Y-8660293D02*
X351015Y-8698389D01*
X351015Y-8698389D02*
X341491Y-8717436D01*
X341491Y-8717436D02*
X331967Y-8726960D01*
X331967Y-8726960D02*
X312920Y-8736484D01*
X312920Y-8736484D02*
X293872Y-8736484D01*
X293872Y-8736484D02*
X274824Y-8726960D01*
X274824Y-8726960D02*
X265301Y-8717436D01*
X265301Y-8717436D02*
X255777Y-8698389D01*
X255777Y-8698389D02*
X246253Y-8660293D01*
X246253Y-8660293D02*
X246253Y-8612674D01*
X246253Y-8612674D02*
X255777Y-8574579D01*
X255777Y-8574579D02*
X265301Y-8555531D01*
X265301Y-8555531D02*
X274824Y-8546008D01*
X274824Y-8546008D02*
X293872Y-8536484D01*
X446253Y-8717436D02*
X455777Y-8726960D01*
X455777Y-8726960D02*
X446253Y-8736484D01*
X446253Y-8736484D02*
X436729Y-8726960D01*
X436729Y-8726960D02*
X446253Y-8717436D01*
X446253Y-8717436D02*
X446253Y-8736484D01*
X627205Y-8603150D02*
X627205Y-8736484D01*
X579586Y-8526960D02*
X531967Y-8669817D01*
X531967Y-8669817D02*
X655777Y-8669817D01*
X770062Y-8536484D02*
X789110Y-8536484D01*
X789110Y-8536484D02*
X808158Y-8546008D01*
X808158Y-8546008D02*
X817682Y-8555531D01*
X817682Y-8555531D02*
X827205Y-8574579D01*
X827205Y-8574579D02*
X836729Y-8612674D01*
X836729Y-8612674D02*
X836729Y-8660293D01*
X836729Y-8660293D02*
X827205Y-8698389D01*
X827205Y-8698389D02*
X817682Y-8717436D01*
X817682Y-8717436D02*
X808158Y-8726960D01*
X808158Y-8726960D02*
X789110Y-8736484D01*
X789110Y-8736484D02*
X770062Y-8736484D01*
X770062Y-8736484D02*
X751015Y-8726960D01*
X751015Y-8726960D02*
X741491Y-8717436D01*
X741491Y-8717436D02*
X731967Y-8698389D01*
X731967Y-8698389D02*
X722443Y-8660293D01*
X722443Y-8660293D02*
X722443Y-8612674D01*
X722443Y-8612674D02*
X731967Y-8574579D01*
X731967Y-8574579D02*
X741491Y-8555531D01*
X741491Y-8555531D02*
X751015Y-8546008D01*
X751015Y-8546008D02*
X770062Y-8536484D01*
X960539Y-8536484D02*
X979586Y-8536484D01*
X979586Y-8536484D02*
X998634Y-8546008D01*
X998634Y-8546008D02*
X1008158Y-8555531D01*
X1008158Y-8555531D02*
X1017682Y-8574579D01*
X1017682Y-8574579D02*
X1027205Y-8612674D01*
X1027205Y-8612674D02*
X1027205Y-8660293D01*
X1027205Y-8660293D02*
X1017682Y-8698389D01*
X1017682Y-8698389D02*
X1008158Y-8717436D01*
X1008158Y-8717436D02*
X998634Y-8726960D01*
X998634Y-8726960D02*
X979586Y-8736484D01*
X979586Y-8736484D02*
X960539Y-8736484D01*
X960539Y-8736484D02*
X941491Y-8726960D01*
X941491Y-8726960D02*
X931967Y-8717436D01*
X931967Y-8717436D02*
X922443Y-8698389D01*
X922443Y-8698389D02*
X912920Y-8660293D01*
X912920Y-8660293D02*
X912920Y-8612674D01*
X912920Y-8612674D02*
X922443Y-8574579D01*
X922443Y-8574579D02*
X931967Y-8555531D01*
X931967Y-8555531D02*
X941491Y-8546008D01*
X941491Y-8546008D02*
X960539Y-8536484D01*
X1112920Y-8736484D02*
X1112920Y-8603150D01*
X1112920Y-8622198D02*
X1122444Y-8612674D01*
X1122444Y-8612674D02*
X1141491Y-8603150D01*
X1141491Y-8603150D02*
X1170063Y-8603150D01*
X1170063Y-8603150D02*
X1189110Y-8612674D01*
X1189110Y-8612674D02*
X1198634Y-8631722D01*
X1198634Y-8631722D02*
X1198634Y-8736484D01*
X1198634Y-8631722D02*
X1208158Y-8612674D01*
X1208158Y-8612674D02*
X1227205Y-8603150D01*
X1227205Y-8603150D02*
X1255777Y-8603150D01*
X1255777Y-8603150D02*
X1274825Y-8612674D01*
X1274825Y-8612674D02*
X1284348Y-8631722D01*
X1284348Y-8631722D02*
X1284348Y-8736484D01*
X1379586Y-8736484D02*
X1379586Y-8603150D01*
X1379586Y-8622198D02*
X1389110Y-8612674D01*
X1389110Y-8612674D02*
X1408158Y-8603150D01*
X1408158Y-8603150D02*
X1436729Y-8603150D01*
X1436729Y-8603150D02*
X1455777Y-8612674D01*
X1455777Y-8612674D02*
X1465301Y-8631722D01*
X1465301Y-8631722D02*
X1465301Y-8736484D01*
X1465301Y-8631722D02*
X1474824Y-8612674D01*
X1474824Y-8612674D02*
X1493872Y-8603150D01*
X1493872Y-8603150D02*
X1522443Y-8603150D01*
X1522443Y-8603150D02*
X1541491Y-8612674D01*
X1541491Y-8612674D02*
X1551015Y-8631722D01*
X1551015Y-8631722D02*
X1551015Y-8736484D01*
X1941491Y-8526960D02*
X1770063Y-8784103D01*
X2198634Y-8536484D02*
X2217682Y-8536484D01*
X2217682Y-8536484D02*
X2236729Y-8546008D01*
X2236729Y-8546008D02*
X2246253Y-8555531D01*
X2246253Y-8555531D02*
X2255777Y-8574579D01*
X2255777Y-8574579D02*
X2265301Y-8612674D01*
X2265301Y-8612674D02*
X2265301Y-8660293D01*
X2265301Y-8660293D02*
X2255777Y-8698389D01*
X2255777Y-8698389D02*
X2246253Y-8717436D01*
X2246253Y-8717436D02*
X2236729Y-8726960D01*
X2236729Y-8726960D02*
X2217682Y-8736484D01*
X2217682Y-8736484D02*
X2198634Y-8736484D01*
X2198634Y-8736484D02*
X2179587Y-8726960D01*
X2179587Y-8726960D02*
X2170063Y-8717436D01*
X2170063Y-8717436D02*
X2160539Y-8698389D01*
X2160539Y-8698389D02*
X2151015Y-8660293D01*
X2151015Y-8660293D02*
X2151015Y-8612674D01*
X2151015Y-8612674D02*
X2160539Y-8574579D01*
X2160539Y-8574579D02*
X2170063Y-8555531D01*
X2170063Y-8555531D02*
X2179587Y-8546008D01*
X2179587Y-8546008D02*
X2198634Y-8536484D01*
X2351015Y-8717436D02*
X2360539Y-8726960D01*
X2360539Y-8726960D02*
X2351015Y-8736484D01*
X2351015Y-8736484D02*
X2341491Y-8726960D01*
X2341491Y-8726960D02*
X2351015Y-8717436D01*
X2351015Y-8717436D02*
X2351015Y-8736484D01*
X2484348Y-8536484D02*
X2503396Y-8536484D01*
X2503396Y-8536484D02*
X2522444Y-8546008D01*
X2522444Y-8546008D02*
X2531968Y-8555531D01*
X2531968Y-8555531D02*
X2541491Y-8574579D01*
X2541491Y-8574579D02*
X2551015Y-8612674D01*
X2551015Y-8612674D02*
X2551015Y-8660293D01*
X2551015Y-8660293D02*
X2541491Y-8698389D01*
X2541491Y-8698389D02*
X2531968Y-8717436D01*
X2531968Y-8717436D02*
X2522444Y-8726960D01*
X2522444Y-8726960D02*
X2503396Y-8736484D01*
X2503396Y-8736484D02*
X2484348Y-8736484D01*
X2484348Y-8736484D02*
X2465301Y-8726960D01*
X2465301Y-8726960D02*
X2455777Y-8717436D01*
X2455777Y-8717436D02*
X2446253Y-8698389D01*
X2446253Y-8698389D02*
X2436729Y-8660293D01*
X2436729Y-8660293D02*
X2436729Y-8612674D01*
X2436729Y-8612674D02*
X2446253Y-8574579D01*
X2446253Y-8574579D02*
X2455777Y-8555531D01*
X2455777Y-8555531D02*
X2465301Y-8546008D01*
X2465301Y-8546008D02*
X2484348Y-8536484D01*
X2741491Y-8736484D02*
X2627206Y-8736484D01*
X2684348Y-8736484D02*
X2684348Y-8536484D01*
X2684348Y-8536484D02*
X2665301Y-8565055D01*
X2665301Y-8565055D02*
X2646253Y-8584103D01*
X2646253Y-8584103D02*
X2627206Y-8593627D01*
X2922444Y-8536484D02*
X2827206Y-8536484D01*
X2827206Y-8536484D02*
X2817682Y-8631722D01*
X2817682Y-8631722D02*
X2827206Y-8622198D01*
X2827206Y-8622198D02*
X2846253Y-8612674D01*
X2846253Y-8612674D02*
X2893872Y-8612674D01*
X2893872Y-8612674D02*
X2912920Y-8622198D01*
X2912920Y-8622198D02*
X2922444Y-8631722D01*
X2922444Y-8631722D02*
X2931967Y-8650770D01*
X2931967Y-8650770D02*
X2931967Y-8698389D01*
X2931967Y-8698389D02*
X2922444Y-8717436D01*
X2922444Y-8717436D02*
X2912920Y-8726960D01*
X2912920Y-8726960D02*
X2893872Y-8736484D01*
X2893872Y-8736484D02*
X2846253Y-8736484D01*
X2846253Y-8736484D02*
X2827206Y-8726960D01*
X2827206Y-8726960D02*
X2817682Y-8717436D01*
X2998634Y-8536484D02*
X3131967Y-8536484D01*
X3131967Y-8536484D02*
X3046253Y-8736484D01*
X3198634Y-8536484D02*
X3198634Y-8574579D01*
X3274825Y-8536484D02*
X3274825Y-8574579D01*
X3570063Y-8812674D02*
X3560539Y-8803150D01*
X3560539Y-8803150D02*
X3541491Y-8774579D01*
X3541491Y-8774579D02*
X3531968Y-8755531D01*
X3531968Y-8755531D02*
X3522444Y-8726960D01*
X3522444Y-8726960D02*
X3512920Y-8679341D01*
X3512920Y-8679341D02*
X3512920Y-8641246D01*
X3512920Y-8641246D02*
X3522444Y-8593627D01*
X3522444Y-8593627D02*
X3531968Y-8565055D01*
X3531968Y-8565055D02*
X3541491Y-8546008D01*
X3541491Y-8546008D02*
X3560539Y-8517436D01*
X3560539Y-8517436D02*
X3570063Y-8507912D01*
X3751015Y-8736484D02*
X3636729Y-8736484D01*
X3693872Y-8736484D02*
X3693872Y-8536484D01*
X3693872Y-8536484D02*
X3674825Y-8565055D01*
X3674825Y-8565055D02*
X3655777Y-8584103D01*
X3655777Y-8584103D02*
X3636729Y-8593627D01*
X3941491Y-8736484D02*
X3827206Y-8736484D01*
X3884348Y-8736484D02*
X3884348Y-8536484D01*
X3884348Y-8536484D02*
X3865301Y-8565055D01*
X3865301Y-8565055D02*
X3846253Y-8584103D01*
X3846253Y-8584103D02*
X3827206Y-8593627D01*
X4179587Y-8736484D02*
X4179587Y-8536484D01*
X4265301Y-8736484D02*
X4265301Y-8631722D01*
X4265301Y-8631722D02*
X4255777Y-8612674D01*
X4255777Y-8612674D02*
X4236730Y-8603150D01*
X4236730Y-8603150D02*
X4208158Y-8603150D01*
X4208158Y-8603150D02*
X4189110Y-8612674D01*
X4189110Y-8612674D02*
X4179587Y-8622198D01*
X4389111Y-8736484D02*
X4370063Y-8726960D01*
X4370063Y-8726960D02*
X4360539Y-8717436D01*
X4360539Y-8717436D02*
X4351015Y-8698389D01*
X4351015Y-8698389D02*
X4351015Y-8641246D01*
X4351015Y-8641246D02*
X4360539Y-8622198D01*
X4360539Y-8622198D02*
X4370063Y-8612674D01*
X4370063Y-8612674D02*
X4389111Y-8603150D01*
X4389111Y-8603150D02*
X4417682Y-8603150D01*
X4417682Y-8603150D02*
X4436730Y-8612674D01*
X4436730Y-8612674D02*
X4446253Y-8622198D01*
X4446253Y-8622198D02*
X4455777Y-8641246D01*
X4455777Y-8641246D02*
X4455777Y-8698389D01*
X4455777Y-8698389D02*
X4446253Y-8717436D01*
X4446253Y-8717436D02*
X4436730Y-8726960D01*
X4436730Y-8726960D02*
X4417682Y-8736484D01*
X4417682Y-8736484D02*
X4389111Y-8736484D01*
X4570063Y-8736484D02*
X4551015Y-8726960D01*
X4551015Y-8726960D02*
X4541492Y-8707912D01*
X4541492Y-8707912D02*
X4541492Y-8536484D01*
X4722444Y-8726960D02*
X4703396Y-8736484D01*
X4703396Y-8736484D02*
X4665301Y-8736484D01*
X4665301Y-8736484D02*
X4646253Y-8726960D01*
X4646253Y-8726960D02*
X4636730Y-8707912D01*
X4636730Y-8707912D02*
X4636730Y-8631722D01*
X4636730Y-8631722D02*
X4646253Y-8612674D01*
X4646253Y-8612674D02*
X4665301Y-8603150D01*
X4665301Y-8603150D02*
X4703396Y-8603150D01*
X4703396Y-8603150D02*
X4722444Y-8612674D01*
X4722444Y-8612674D02*
X4731968Y-8631722D01*
X4731968Y-8631722D02*
X4731968Y-8650770D01*
X4731968Y-8650770D02*
X4636730Y-8669817D01*
X4808158Y-8726960D02*
X4827206Y-8736484D01*
X4827206Y-8736484D02*
X4865301Y-8736484D01*
X4865301Y-8736484D02*
X4884349Y-8726960D01*
X4884349Y-8726960D02*
X4893873Y-8707912D01*
X4893873Y-8707912D02*
X4893873Y-8698389D01*
X4893873Y-8698389D02*
X4884349Y-8679341D01*
X4884349Y-8679341D02*
X4865301Y-8669817D01*
X4865301Y-8669817D02*
X4836730Y-8669817D01*
X4836730Y-8669817D02*
X4817682Y-8660293D01*
X4817682Y-8660293D02*
X4808158Y-8641246D01*
X4808158Y-8641246D02*
X4808158Y-8631722D01*
X4808158Y-8631722D02*
X4817682Y-8612674D01*
X4817682Y-8612674D02*
X4836730Y-8603150D01*
X4836730Y-8603150D02*
X4865301Y-8603150D01*
X4865301Y-8603150D02*
X4884349Y-8612674D01*
X4960539Y-8812674D02*
X4970063Y-8803150D01*
X4970063Y-8803150D02*
X4989111Y-8774579D01*
X4989111Y-8774579D02*
X4998634Y-8755531D01*
X4998634Y-8755531D02*
X5008158Y-8726960D01*
X5008158Y-8726960D02*
X5017682Y-8679341D01*
X5017682Y-8679341D02*
X5017682Y-8641246D01*
X5017682Y-8641246D02*
X5008158Y-8593627D01*
X5008158Y-8593627D02*
X4998634Y-8565055D01*
X4998634Y-8565055D02*
X4989111Y-8546008D01*
X4989111Y-8546008D02*
X4970063Y-8517436D01*
X4970063Y-8517436D02*
X4960539Y-8507912D01*
D10*
X-5000Y-8909000D02*
G75*
G02*
X-55000Y-8909000I-25000J0D01*
G01*
X-55000Y-8909000D02*
G75*
G02*
X-5000Y-8909000I25000J0D01*
G01*
D11*
X293872Y-8800484D02*
X312920Y-8800484D01*
X312920Y-8800484D02*
X331967Y-8810008D01*
X331967Y-8810008D02*
X341491Y-8819531D01*
X341491Y-8819531D02*
X351015Y-8838579D01*
X351015Y-8838579D02*
X360539Y-8876674D01*
X360539Y-8876674D02*
X360539Y-8924293D01*
X360539Y-8924293D02*
X351015Y-8962389D01*
X351015Y-8962389D02*
X341491Y-8981436D01*
X341491Y-8981436D02*
X331967Y-8990960D01*
X331967Y-8990960D02*
X312920Y-9000484D01*
X312920Y-9000484D02*
X293872Y-9000484D01*
X293872Y-9000484D02*
X274824Y-8990960D01*
X274824Y-8990960D02*
X265301Y-8981436D01*
X265301Y-8981436D02*
X255777Y-8962389D01*
X255777Y-8962389D02*
X246253Y-8924293D01*
X246253Y-8924293D02*
X246253Y-8876674D01*
X246253Y-8876674D02*
X255777Y-8838579D01*
X255777Y-8838579D02*
X265301Y-8819531D01*
X265301Y-8819531D02*
X274824Y-8810008D01*
X274824Y-8810008D02*
X293872Y-8800484D01*
X446253Y-8981436D02*
X455777Y-8990960D01*
X455777Y-8990960D02*
X446253Y-9000484D01*
X446253Y-9000484D02*
X436729Y-8990960D01*
X436729Y-8990960D02*
X446253Y-8981436D01*
X446253Y-8981436D02*
X446253Y-9000484D01*
X636729Y-8800484D02*
X541491Y-8800484D01*
X541491Y-8800484D02*
X531967Y-8895722D01*
X531967Y-8895722D02*
X541491Y-8886198D01*
X541491Y-8886198D02*
X560539Y-8876674D01*
X560539Y-8876674D02*
X608158Y-8876674D01*
X608158Y-8876674D02*
X627205Y-8886198D01*
X627205Y-8886198D02*
X636729Y-8895722D01*
X636729Y-8895722D02*
X646253Y-8914770D01*
X646253Y-8914770D02*
X646253Y-8962389D01*
X646253Y-8962389D02*
X636729Y-8981436D01*
X636729Y-8981436D02*
X627205Y-8990960D01*
X627205Y-8990960D02*
X608158Y-9000484D01*
X608158Y-9000484D02*
X560539Y-9000484D01*
X560539Y-9000484D02*
X541491Y-8990960D01*
X541491Y-8990960D02*
X531967Y-8981436D01*
X770062Y-8800484D02*
X789110Y-8800484D01*
X789110Y-8800484D02*
X808158Y-8810008D01*
X808158Y-8810008D02*
X817682Y-8819531D01*
X817682Y-8819531D02*
X827205Y-8838579D01*
X827205Y-8838579D02*
X836729Y-8876674D01*
X836729Y-8876674D02*
X836729Y-8924293D01*
X836729Y-8924293D02*
X827205Y-8962389D01*
X827205Y-8962389D02*
X817682Y-8981436D01*
X817682Y-8981436D02*
X808158Y-8990960D01*
X808158Y-8990960D02*
X789110Y-9000484D01*
X789110Y-9000484D02*
X770062Y-9000484D01*
X770062Y-9000484D02*
X751015Y-8990960D01*
X751015Y-8990960D02*
X741491Y-8981436D01*
X741491Y-8981436D02*
X731967Y-8962389D01*
X731967Y-8962389D02*
X722443Y-8924293D01*
X722443Y-8924293D02*
X722443Y-8876674D01*
X722443Y-8876674D02*
X731967Y-8838579D01*
X731967Y-8838579D02*
X741491Y-8819531D01*
X741491Y-8819531D02*
X751015Y-8810008D01*
X751015Y-8810008D02*
X770062Y-8800484D01*
X960539Y-8800484D02*
X979586Y-8800484D01*
X979586Y-8800484D02*
X998634Y-8810008D01*
X998634Y-8810008D02*
X1008158Y-8819531D01*
X1008158Y-8819531D02*
X1017682Y-8838579D01*
X1017682Y-8838579D02*
X1027205Y-8876674D01*
X1027205Y-8876674D02*
X1027205Y-8924293D01*
X1027205Y-8924293D02*
X1017682Y-8962389D01*
X1017682Y-8962389D02*
X1008158Y-8981436D01*
X1008158Y-8981436D02*
X998634Y-8990960D01*
X998634Y-8990960D02*
X979586Y-9000484D01*
X979586Y-9000484D02*
X960539Y-9000484D01*
X960539Y-9000484D02*
X941491Y-8990960D01*
X941491Y-8990960D02*
X931967Y-8981436D01*
X931967Y-8981436D02*
X922443Y-8962389D01*
X922443Y-8962389D02*
X912920Y-8924293D01*
X912920Y-8924293D02*
X912920Y-8876674D01*
X912920Y-8876674D02*
X922443Y-8838579D01*
X922443Y-8838579D02*
X931967Y-8819531D01*
X931967Y-8819531D02*
X941491Y-8810008D01*
X941491Y-8810008D02*
X960539Y-8800484D01*
X1112920Y-9000484D02*
X1112920Y-8867150D01*
X1112920Y-8886198D02*
X1122444Y-8876674D01*
X1122444Y-8876674D02*
X1141491Y-8867150D01*
X1141491Y-8867150D02*
X1170063Y-8867150D01*
X1170063Y-8867150D02*
X1189110Y-8876674D01*
X1189110Y-8876674D02*
X1198634Y-8895722D01*
X1198634Y-8895722D02*
X1198634Y-9000484D01*
X1198634Y-8895722D02*
X1208158Y-8876674D01*
X1208158Y-8876674D02*
X1227205Y-8867150D01*
X1227205Y-8867150D02*
X1255777Y-8867150D01*
X1255777Y-8867150D02*
X1274825Y-8876674D01*
X1274825Y-8876674D02*
X1284348Y-8895722D01*
X1284348Y-8895722D02*
X1284348Y-9000484D01*
X1379586Y-9000484D02*
X1379586Y-8867150D01*
X1379586Y-8886198D02*
X1389110Y-8876674D01*
X1389110Y-8876674D02*
X1408158Y-8867150D01*
X1408158Y-8867150D02*
X1436729Y-8867150D01*
X1436729Y-8867150D02*
X1455777Y-8876674D01*
X1455777Y-8876674D02*
X1465301Y-8895722D01*
X1465301Y-8895722D02*
X1465301Y-9000484D01*
X1465301Y-8895722D02*
X1474824Y-8876674D01*
X1474824Y-8876674D02*
X1493872Y-8867150D01*
X1493872Y-8867150D02*
X1522443Y-8867150D01*
X1522443Y-8867150D02*
X1541491Y-8876674D01*
X1541491Y-8876674D02*
X1551015Y-8895722D01*
X1551015Y-8895722D02*
X1551015Y-9000484D01*
X1941491Y-8790960D02*
X1770063Y-9048103D01*
X2198634Y-8800484D02*
X2217682Y-8800484D01*
X2217682Y-8800484D02*
X2236729Y-8810008D01*
X2236729Y-8810008D02*
X2246253Y-8819531D01*
X2246253Y-8819531D02*
X2255777Y-8838579D01*
X2255777Y-8838579D02*
X2265301Y-8876674D01*
X2265301Y-8876674D02*
X2265301Y-8924293D01*
X2265301Y-8924293D02*
X2255777Y-8962389D01*
X2255777Y-8962389D02*
X2246253Y-8981436D01*
X2246253Y-8981436D02*
X2236729Y-8990960D01*
X2236729Y-8990960D02*
X2217682Y-9000484D01*
X2217682Y-9000484D02*
X2198634Y-9000484D01*
X2198634Y-9000484D02*
X2179587Y-8990960D01*
X2179587Y-8990960D02*
X2170063Y-8981436D01*
X2170063Y-8981436D02*
X2160539Y-8962389D01*
X2160539Y-8962389D02*
X2151015Y-8924293D01*
X2151015Y-8924293D02*
X2151015Y-8876674D01*
X2151015Y-8876674D02*
X2160539Y-8838579D01*
X2160539Y-8838579D02*
X2170063Y-8819531D01*
X2170063Y-8819531D02*
X2179587Y-8810008D01*
X2179587Y-8810008D02*
X2198634Y-8800484D01*
X2351015Y-8981436D02*
X2360539Y-8990960D01*
X2360539Y-8990960D02*
X2351015Y-9000484D01*
X2351015Y-9000484D02*
X2341491Y-8990960D01*
X2341491Y-8990960D02*
X2351015Y-8981436D01*
X2351015Y-8981436D02*
X2351015Y-9000484D01*
X2484348Y-8800484D02*
X2503396Y-8800484D01*
X2503396Y-8800484D02*
X2522444Y-8810008D01*
X2522444Y-8810008D02*
X2531968Y-8819531D01*
X2531968Y-8819531D02*
X2541491Y-8838579D01*
X2541491Y-8838579D02*
X2551015Y-8876674D01*
X2551015Y-8876674D02*
X2551015Y-8924293D01*
X2551015Y-8924293D02*
X2541491Y-8962389D01*
X2541491Y-8962389D02*
X2531968Y-8981436D01*
X2531968Y-8981436D02*
X2522444Y-8990960D01*
X2522444Y-8990960D02*
X2503396Y-9000484D01*
X2503396Y-9000484D02*
X2484348Y-9000484D01*
X2484348Y-9000484D02*
X2465301Y-8990960D01*
X2465301Y-8990960D02*
X2455777Y-8981436D01*
X2455777Y-8981436D02*
X2446253Y-8962389D01*
X2446253Y-8962389D02*
X2436729Y-8924293D01*
X2436729Y-8924293D02*
X2436729Y-8876674D01*
X2436729Y-8876674D02*
X2446253Y-8838579D01*
X2446253Y-8838579D02*
X2455777Y-8819531D01*
X2455777Y-8819531D02*
X2465301Y-8810008D01*
X2465301Y-8810008D02*
X2484348Y-8800484D01*
X2741491Y-9000484D02*
X2627206Y-9000484D01*
X2684348Y-9000484D02*
X2684348Y-8800484D01*
X2684348Y-8800484D02*
X2665301Y-8829055D01*
X2665301Y-8829055D02*
X2646253Y-8848103D01*
X2646253Y-8848103D02*
X2627206Y-8857627D01*
X2836729Y-9000484D02*
X2874825Y-9000484D01*
X2874825Y-9000484D02*
X2893872Y-8990960D01*
X2893872Y-8990960D02*
X2903396Y-8981436D01*
X2903396Y-8981436D02*
X2922444Y-8952865D01*
X2922444Y-8952865D02*
X2931967Y-8914770D01*
X2931967Y-8914770D02*
X2931967Y-8838579D01*
X2931967Y-8838579D02*
X2922444Y-8819531D01*
X2922444Y-8819531D02*
X2912920Y-8810008D01*
X2912920Y-8810008D02*
X2893872Y-8800484D01*
X2893872Y-8800484D02*
X2855777Y-8800484D01*
X2855777Y-8800484D02*
X2836729Y-8810008D01*
X2836729Y-8810008D02*
X2827206Y-8819531D01*
X2827206Y-8819531D02*
X2817682Y-8838579D01*
X2817682Y-8838579D02*
X2817682Y-8886198D01*
X2817682Y-8886198D02*
X2827206Y-8905246D01*
X2827206Y-8905246D02*
X2836729Y-8914770D01*
X2836729Y-8914770D02*
X2855777Y-8924293D01*
X2855777Y-8924293D02*
X2893872Y-8924293D01*
X2893872Y-8924293D02*
X2912920Y-8914770D01*
X2912920Y-8914770D02*
X2922444Y-8905246D01*
X2922444Y-8905246D02*
X2931967Y-8886198D01*
X2998634Y-8800484D02*
X3131967Y-8800484D01*
X3131967Y-8800484D02*
X3046253Y-9000484D01*
X3198634Y-8800484D02*
X3198634Y-8838579D01*
X3274825Y-8800484D02*
X3274825Y-8838579D01*
X3570063Y-9076674D02*
X3560539Y-9067150D01*
X3560539Y-9067150D02*
X3541491Y-9038579D01*
X3541491Y-9038579D02*
X3531968Y-9019531D01*
X3531968Y-9019531D02*
X3522444Y-8990960D01*
X3522444Y-8990960D02*
X3512920Y-8943341D01*
X3512920Y-8943341D02*
X3512920Y-8905246D01*
X3512920Y-8905246D02*
X3522444Y-8857627D01*
X3522444Y-8857627D02*
X3531968Y-8829055D01*
X3531968Y-8829055D02*
X3541491Y-8810008D01*
X3541491Y-8810008D02*
X3560539Y-8781436D01*
X3560539Y-8781436D02*
X3570063Y-8771912D01*
X3741491Y-8800484D02*
X3646253Y-8800484D01*
X3646253Y-8800484D02*
X3636729Y-8895722D01*
X3636729Y-8895722D02*
X3646253Y-8886198D01*
X3646253Y-8886198D02*
X3665301Y-8876674D01*
X3665301Y-8876674D02*
X3712920Y-8876674D01*
X3712920Y-8876674D02*
X3731968Y-8886198D01*
X3731968Y-8886198D02*
X3741491Y-8895722D01*
X3741491Y-8895722D02*
X3751015Y-8914770D01*
X3751015Y-8914770D02*
X3751015Y-8962389D01*
X3751015Y-8962389D02*
X3741491Y-8981436D01*
X3741491Y-8981436D02*
X3731968Y-8990960D01*
X3731968Y-8990960D02*
X3712920Y-9000484D01*
X3712920Y-9000484D02*
X3665301Y-9000484D01*
X3665301Y-9000484D02*
X3646253Y-8990960D01*
X3646253Y-8990960D02*
X3636729Y-8981436D01*
X3989110Y-9000484D02*
X3989110Y-8800484D01*
X4074825Y-9000484D02*
X4074825Y-8895722D01*
X4074825Y-8895722D02*
X4065301Y-8876674D01*
X4065301Y-8876674D02*
X4046253Y-8867150D01*
X4046253Y-8867150D02*
X4017682Y-8867150D01*
X4017682Y-8867150D02*
X3998634Y-8876674D01*
X3998634Y-8876674D02*
X3989110Y-8886198D01*
X4198634Y-9000484D02*
X4179587Y-8990960D01*
X4179587Y-8990960D02*
X4170063Y-8981436D01*
X4170063Y-8981436D02*
X4160539Y-8962389D01*
X4160539Y-8962389D02*
X4160539Y-8905246D01*
X4160539Y-8905246D02*
X4170063Y-8886198D01*
X4170063Y-8886198D02*
X4179587Y-8876674D01*
X4179587Y-8876674D02*
X4198634Y-8867150D01*
X4198634Y-8867150D02*
X4227206Y-8867150D01*
X4227206Y-8867150D02*
X4246253Y-8876674D01*
X4246253Y-8876674D02*
X4255777Y-8886198D01*
X4255777Y-8886198D02*
X4265301Y-8905246D01*
X4265301Y-8905246D02*
X4265301Y-8962389D01*
X4265301Y-8962389D02*
X4255777Y-8981436D01*
X4255777Y-8981436D02*
X4246253Y-8990960D01*
X4246253Y-8990960D02*
X4227206Y-9000484D01*
X4227206Y-9000484D02*
X4198634Y-9000484D01*
X4379587Y-9000484D02*
X4360539Y-8990960D01*
X4360539Y-8990960D02*
X4351015Y-8971912D01*
X4351015Y-8971912D02*
X4351015Y-8800484D01*
X4531968Y-8990960D02*
X4512920Y-9000484D01*
X4512920Y-9000484D02*
X4474825Y-9000484D01*
X4474825Y-9000484D02*
X4455777Y-8990960D01*
X4455777Y-8990960D02*
X4446253Y-8971912D01*
X4446253Y-8971912D02*
X4446253Y-8895722D01*
X4446253Y-8895722D02*
X4455777Y-8876674D01*
X4455777Y-8876674D02*
X4474825Y-8867150D01*
X4474825Y-8867150D02*
X4512920Y-8867150D01*
X4512920Y-8867150D02*
X4531968Y-8876674D01*
X4531968Y-8876674D02*
X4541492Y-8895722D01*
X4541492Y-8895722D02*
X4541492Y-8914770D01*
X4541492Y-8914770D02*
X4446253Y-8933817D01*
X4617682Y-8990960D02*
X4636730Y-9000484D01*
X4636730Y-9000484D02*
X4674825Y-9000484D01*
X4674825Y-9000484D02*
X4693873Y-8990960D01*
X4693873Y-8990960D02*
X4703396Y-8971912D01*
X4703396Y-8971912D02*
X4703396Y-8962389D01*
X4703396Y-8962389D02*
X4693873Y-8943341D01*
X4693873Y-8943341D02*
X4674825Y-8933817D01*
X4674825Y-8933817D02*
X4646253Y-8933817D01*
X4646253Y-8933817D02*
X4627206Y-8924293D01*
X4627206Y-8924293D02*
X4617682Y-8905246D01*
X4617682Y-8905246D02*
X4617682Y-8895722D01*
X4617682Y-8895722D02*
X4627206Y-8876674D01*
X4627206Y-8876674D02*
X4646253Y-8867150D01*
X4646253Y-8867150D02*
X4674825Y-8867150D01*
X4674825Y-8867150D02*
X4693873Y-8876674D01*
X4770063Y-9076674D02*
X4779587Y-9067150D01*
X4779587Y-9067150D02*
X4798634Y-9038579D01*
X4798634Y-9038579D02*
X4808158Y-9019531D01*
X4808158Y-9019531D02*
X4817682Y-8990960D01*
X4817682Y-8990960D02*
X4827206Y-8943341D01*
X4827206Y-8943341D02*
X4827206Y-8905246D01*
X4827206Y-8905246D02*
X4817682Y-8857627D01*
X4817682Y-8857627D02*
X4808158Y-8829055D01*
X4808158Y-8829055D02*
X4798634Y-8810008D01*
X4798634Y-8810008D02*
X4779587Y-8781436D01*
X4779587Y-8781436D02*
X4770063Y-8771912D01*
D10*
X-45000Y-9133000D02*
X-45000Y-9213000D01*
X-85000Y-9173000D02*
X-5000Y-9173000D01*
D11*
X293872Y-9064484D02*
X312920Y-9064484D01*
X312920Y-9064484D02*
X331967Y-9074008D01*
X331967Y-9074008D02*
X341491Y-9083531D01*
X341491Y-9083531D02*
X351015Y-9102579D01*
X351015Y-9102579D02*
X360539Y-9140674D01*
X360539Y-9140674D02*
X360539Y-9188293D01*
X360539Y-9188293D02*
X351015Y-9226389D01*
X351015Y-9226389D02*
X341491Y-9245436D01*
X341491Y-9245436D02*
X331967Y-9254960D01*
X331967Y-9254960D02*
X312920Y-9264484D01*
X312920Y-9264484D02*
X293872Y-9264484D01*
X293872Y-9264484D02*
X274824Y-9254960D01*
X274824Y-9254960D02*
X265301Y-9245436D01*
X265301Y-9245436D02*
X255777Y-9226389D01*
X255777Y-9226389D02*
X246253Y-9188293D01*
X246253Y-9188293D02*
X246253Y-9140674D01*
X246253Y-9140674D02*
X255777Y-9102579D01*
X255777Y-9102579D02*
X265301Y-9083531D01*
X265301Y-9083531D02*
X274824Y-9074008D01*
X274824Y-9074008D02*
X293872Y-9064484D01*
X446253Y-9245436D02*
X455777Y-9254960D01*
X455777Y-9254960D02*
X446253Y-9264484D01*
X446253Y-9264484D02*
X436729Y-9254960D01*
X436729Y-9254960D02*
X446253Y-9245436D01*
X446253Y-9245436D02*
X446253Y-9264484D01*
X570063Y-9150198D02*
X551015Y-9140674D01*
X551015Y-9140674D02*
X541491Y-9131150D01*
X541491Y-9131150D02*
X531967Y-9112103D01*
X531967Y-9112103D02*
X531967Y-9102579D01*
X531967Y-9102579D02*
X541491Y-9083531D01*
X541491Y-9083531D02*
X551015Y-9074008D01*
X551015Y-9074008D02*
X570063Y-9064484D01*
X570063Y-9064484D02*
X608158Y-9064484D01*
X608158Y-9064484D02*
X627205Y-9074008D01*
X627205Y-9074008D02*
X636729Y-9083531D01*
X636729Y-9083531D02*
X646253Y-9102579D01*
X646253Y-9102579D02*
X646253Y-9112103D01*
X646253Y-9112103D02*
X636729Y-9131150D01*
X636729Y-9131150D02*
X627205Y-9140674D01*
X627205Y-9140674D02*
X608158Y-9150198D01*
X608158Y-9150198D02*
X570063Y-9150198D01*
X570063Y-9150198D02*
X551015Y-9159722D01*
X551015Y-9159722D02*
X541491Y-9169246D01*
X541491Y-9169246D02*
X531967Y-9188293D01*
X531967Y-9188293D02*
X531967Y-9226389D01*
X531967Y-9226389D02*
X541491Y-9245436D01*
X541491Y-9245436D02*
X551015Y-9254960D01*
X551015Y-9254960D02*
X570063Y-9264484D01*
X570063Y-9264484D02*
X608158Y-9264484D01*
X608158Y-9264484D02*
X627205Y-9254960D01*
X627205Y-9254960D02*
X636729Y-9245436D01*
X636729Y-9245436D02*
X646253Y-9226389D01*
X646253Y-9226389D02*
X646253Y-9188293D01*
X646253Y-9188293D02*
X636729Y-9169246D01*
X636729Y-9169246D02*
X627205Y-9159722D01*
X627205Y-9159722D02*
X608158Y-9150198D01*
X770062Y-9064484D02*
X789110Y-9064484D01*
X789110Y-9064484D02*
X808158Y-9074008D01*
X808158Y-9074008D02*
X817682Y-9083531D01*
X817682Y-9083531D02*
X827205Y-9102579D01*
X827205Y-9102579D02*
X836729Y-9140674D01*
X836729Y-9140674D02*
X836729Y-9188293D01*
X836729Y-9188293D02*
X827205Y-9226389D01*
X827205Y-9226389D02*
X817682Y-9245436D01*
X817682Y-9245436D02*
X808158Y-9254960D01*
X808158Y-9254960D02*
X789110Y-9264484D01*
X789110Y-9264484D02*
X770062Y-9264484D01*
X770062Y-9264484D02*
X751015Y-9254960D01*
X751015Y-9254960D02*
X741491Y-9245436D01*
X741491Y-9245436D02*
X731967Y-9226389D01*
X731967Y-9226389D02*
X722443Y-9188293D01*
X722443Y-9188293D02*
X722443Y-9140674D01*
X722443Y-9140674D02*
X731967Y-9102579D01*
X731967Y-9102579D02*
X741491Y-9083531D01*
X741491Y-9083531D02*
X751015Y-9074008D01*
X751015Y-9074008D02*
X770062Y-9064484D01*
X960539Y-9064484D02*
X979586Y-9064484D01*
X979586Y-9064484D02*
X998634Y-9074008D01*
X998634Y-9074008D02*
X1008158Y-9083531D01*
X1008158Y-9083531D02*
X1017682Y-9102579D01*
X1017682Y-9102579D02*
X1027205Y-9140674D01*
X1027205Y-9140674D02*
X1027205Y-9188293D01*
X1027205Y-9188293D02*
X1017682Y-9226389D01*
X1017682Y-9226389D02*
X1008158Y-9245436D01*
X1008158Y-9245436D02*
X998634Y-9254960D01*
X998634Y-9254960D02*
X979586Y-9264484D01*
X979586Y-9264484D02*
X960539Y-9264484D01*
X960539Y-9264484D02*
X941491Y-9254960D01*
X941491Y-9254960D02*
X931967Y-9245436D01*
X931967Y-9245436D02*
X922443Y-9226389D01*
X922443Y-9226389D02*
X912920Y-9188293D01*
X912920Y-9188293D02*
X912920Y-9140674D01*
X912920Y-9140674D02*
X922443Y-9102579D01*
X922443Y-9102579D02*
X931967Y-9083531D01*
X931967Y-9083531D02*
X941491Y-9074008D01*
X941491Y-9074008D02*
X960539Y-9064484D01*
X1112920Y-9264484D02*
X1112920Y-9131150D01*
X1112920Y-9150198D02*
X1122444Y-9140674D01*
X1122444Y-9140674D02*
X1141491Y-9131150D01*
X1141491Y-9131150D02*
X1170063Y-9131150D01*
X1170063Y-9131150D02*
X1189110Y-9140674D01*
X1189110Y-9140674D02*
X1198634Y-9159722D01*
X1198634Y-9159722D02*
X1198634Y-9264484D01*
X1198634Y-9159722D02*
X1208158Y-9140674D01*
X1208158Y-9140674D02*
X1227205Y-9131150D01*
X1227205Y-9131150D02*
X1255777Y-9131150D01*
X1255777Y-9131150D02*
X1274825Y-9140674D01*
X1274825Y-9140674D02*
X1284348Y-9159722D01*
X1284348Y-9159722D02*
X1284348Y-9264484D01*
X1379586Y-9264484D02*
X1379586Y-9131150D01*
X1379586Y-9150198D02*
X1389110Y-9140674D01*
X1389110Y-9140674D02*
X1408158Y-9131150D01*
X1408158Y-9131150D02*
X1436729Y-9131150D01*
X1436729Y-9131150D02*
X1455777Y-9140674D01*
X1455777Y-9140674D02*
X1465301Y-9159722D01*
X1465301Y-9159722D02*
X1465301Y-9264484D01*
X1465301Y-9159722D02*
X1474824Y-9140674D01*
X1474824Y-9140674D02*
X1493872Y-9131150D01*
X1493872Y-9131150D02*
X1522443Y-9131150D01*
X1522443Y-9131150D02*
X1541491Y-9140674D01*
X1541491Y-9140674D02*
X1551015Y-9159722D01*
X1551015Y-9159722D02*
X1551015Y-9264484D01*
X1941491Y-9054960D02*
X1770063Y-9312103D01*
X2198634Y-9064484D02*
X2217682Y-9064484D01*
X2217682Y-9064484D02*
X2236729Y-9074008D01*
X2236729Y-9074008D02*
X2246253Y-9083531D01*
X2246253Y-9083531D02*
X2255777Y-9102579D01*
X2255777Y-9102579D02*
X2265301Y-9140674D01*
X2265301Y-9140674D02*
X2265301Y-9188293D01*
X2265301Y-9188293D02*
X2255777Y-9226389D01*
X2255777Y-9226389D02*
X2246253Y-9245436D01*
X2246253Y-9245436D02*
X2236729Y-9254960D01*
X2236729Y-9254960D02*
X2217682Y-9264484D01*
X2217682Y-9264484D02*
X2198634Y-9264484D01*
X2198634Y-9264484D02*
X2179587Y-9254960D01*
X2179587Y-9254960D02*
X2170063Y-9245436D01*
X2170063Y-9245436D02*
X2160539Y-9226389D01*
X2160539Y-9226389D02*
X2151015Y-9188293D01*
X2151015Y-9188293D02*
X2151015Y-9140674D01*
X2151015Y-9140674D02*
X2160539Y-9102579D01*
X2160539Y-9102579D02*
X2170063Y-9083531D01*
X2170063Y-9083531D02*
X2179587Y-9074008D01*
X2179587Y-9074008D02*
X2198634Y-9064484D01*
X2351015Y-9245436D02*
X2360539Y-9254960D01*
X2360539Y-9254960D02*
X2351015Y-9264484D01*
X2351015Y-9264484D02*
X2341491Y-9254960D01*
X2341491Y-9254960D02*
X2351015Y-9245436D01*
X2351015Y-9245436D02*
X2351015Y-9264484D01*
X2484348Y-9064484D02*
X2503396Y-9064484D01*
X2503396Y-9064484D02*
X2522444Y-9074008D01*
X2522444Y-9074008D02*
X2531968Y-9083531D01*
X2531968Y-9083531D02*
X2541491Y-9102579D01*
X2541491Y-9102579D02*
X2551015Y-9140674D01*
X2551015Y-9140674D02*
X2551015Y-9188293D01*
X2551015Y-9188293D02*
X2541491Y-9226389D01*
X2541491Y-9226389D02*
X2531968Y-9245436D01*
X2531968Y-9245436D02*
X2522444Y-9254960D01*
X2522444Y-9254960D02*
X2503396Y-9264484D01*
X2503396Y-9264484D02*
X2484348Y-9264484D01*
X2484348Y-9264484D02*
X2465301Y-9254960D01*
X2465301Y-9254960D02*
X2455777Y-9245436D01*
X2455777Y-9245436D02*
X2446253Y-9226389D01*
X2446253Y-9226389D02*
X2436729Y-9188293D01*
X2436729Y-9188293D02*
X2436729Y-9140674D01*
X2436729Y-9140674D02*
X2446253Y-9102579D01*
X2446253Y-9102579D02*
X2455777Y-9083531D01*
X2455777Y-9083531D02*
X2465301Y-9074008D01*
X2465301Y-9074008D02*
X2484348Y-9064484D01*
X2617682Y-9064484D02*
X2741491Y-9064484D01*
X2741491Y-9064484D02*
X2674825Y-9140674D01*
X2674825Y-9140674D02*
X2703396Y-9140674D01*
X2703396Y-9140674D02*
X2722444Y-9150198D01*
X2722444Y-9150198D02*
X2731968Y-9159722D01*
X2731968Y-9159722D02*
X2741491Y-9178770D01*
X2741491Y-9178770D02*
X2741491Y-9226389D01*
X2741491Y-9226389D02*
X2731968Y-9245436D01*
X2731968Y-9245436D02*
X2722444Y-9254960D01*
X2722444Y-9254960D02*
X2703396Y-9264484D01*
X2703396Y-9264484D02*
X2646253Y-9264484D01*
X2646253Y-9264484D02*
X2627206Y-9254960D01*
X2627206Y-9254960D02*
X2617682Y-9245436D01*
X2931967Y-9264484D02*
X2817682Y-9264484D01*
X2874825Y-9264484D02*
X2874825Y-9064484D01*
X2874825Y-9064484D02*
X2855777Y-9093055D01*
X2855777Y-9093055D02*
X2836729Y-9112103D01*
X2836729Y-9112103D02*
X2817682Y-9121627D01*
X3112920Y-9064484D02*
X3017682Y-9064484D01*
X3017682Y-9064484D02*
X3008158Y-9159722D01*
X3008158Y-9159722D02*
X3017682Y-9150198D01*
X3017682Y-9150198D02*
X3036729Y-9140674D01*
X3036729Y-9140674D02*
X3084348Y-9140674D01*
X3084348Y-9140674D02*
X3103396Y-9150198D01*
X3103396Y-9150198D02*
X3112920Y-9159722D01*
X3112920Y-9159722D02*
X3122444Y-9178770D01*
X3122444Y-9178770D02*
X3122444Y-9226389D01*
X3122444Y-9226389D02*
X3112920Y-9245436D01*
X3112920Y-9245436D02*
X3103396Y-9254960D01*
X3103396Y-9254960D02*
X3084348Y-9264484D01*
X3084348Y-9264484D02*
X3036729Y-9264484D01*
X3036729Y-9264484D02*
X3017682Y-9254960D01*
X3017682Y-9254960D02*
X3008158Y-9245436D01*
X3198634Y-9064484D02*
X3198634Y-9102579D01*
X3274825Y-9064484D02*
X3274825Y-9102579D01*
X3570063Y-9340674D02*
X3560539Y-9331150D01*
X3560539Y-9331150D02*
X3541491Y-9302579D01*
X3541491Y-9302579D02*
X3531968Y-9283531D01*
X3531968Y-9283531D02*
X3522444Y-9254960D01*
X3522444Y-9254960D02*
X3512920Y-9207341D01*
X3512920Y-9207341D02*
X3512920Y-9169246D01*
X3512920Y-9169246D02*
X3522444Y-9121627D01*
X3522444Y-9121627D02*
X3531968Y-9093055D01*
X3531968Y-9093055D02*
X3541491Y-9074008D01*
X3541491Y-9074008D02*
X3560539Y-9045436D01*
X3560539Y-9045436D02*
X3570063Y-9035912D01*
X3751015Y-9264484D02*
X3636729Y-9264484D01*
X3693872Y-9264484D02*
X3693872Y-9064484D01*
X3693872Y-9064484D02*
X3674825Y-9093055D01*
X3674825Y-9093055D02*
X3655777Y-9112103D01*
X3655777Y-9112103D02*
X3636729Y-9121627D01*
X3865301Y-9150198D02*
X3846253Y-9140674D01*
X3846253Y-9140674D02*
X3836729Y-9131150D01*
X3836729Y-9131150D02*
X3827206Y-9112103D01*
X3827206Y-9112103D02*
X3827206Y-9102579D01*
X3827206Y-9102579D02*
X3836729Y-9083531D01*
X3836729Y-9083531D02*
X3846253Y-9074008D01*
X3846253Y-9074008D02*
X3865301Y-9064484D01*
X3865301Y-9064484D02*
X3903396Y-9064484D01*
X3903396Y-9064484D02*
X3922444Y-9074008D01*
X3922444Y-9074008D02*
X3931968Y-9083531D01*
X3931968Y-9083531D02*
X3941491Y-9102579D01*
X3941491Y-9102579D02*
X3941491Y-9112103D01*
X3941491Y-9112103D02*
X3931968Y-9131150D01*
X3931968Y-9131150D02*
X3922444Y-9140674D01*
X3922444Y-9140674D02*
X3903396Y-9150198D01*
X3903396Y-9150198D02*
X3865301Y-9150198D01*
X3865301Y-9150198D02*
X3846253Y-9159722D01*
X3846253Y-9159722D02*
X3836729Y-9169246D01*
X3836729Y-9169246D02*
X3827206Y-9188293D01*
X3827206Y-9188293D02*
X3827206Y-9226389D01*
X3827206Y-9226389D02*
X3836729Y-9245436D01*
X3836729Y-9245436D02*
X3846253Y-9254960D01*
X3846253Y-9254960D02*
X3865301Y-9264484D01*
X3865301Y-9264484D02*
X3903396Y-9264484D01*
X3903396Y-9264484D02*
X3922444Y-9254960D01*
X3922444Y-9254960D02*
X3931968Y-9245436D01*
X3931968Y-9245436D02*
X3941491Y-9226389D01*
X3941491Y-9226389D02*
X3941491Y-9188293D01*
X3941491Y-9188293D02*
X3931968Y-9169246D01*
X3931968Y-9169246D02*
X3922444Y-9159722D01*
X3922444Y-9159722D02*
X3903396Y-9150198D01*
X4131968Y-9264484D02*
X4017682Y-9264484D01*
X4074825Y-9264484D02*
X4074825Y-9064484D01*
X4074825Y-9064484D02*
X4055777Y-9093055D01*
X4055777Y-9093055D02*
X4036729Y-9112103D01*
X4036729Y-9112103D02*
X4017682Y-9121627D01*
X4370063Y-9264484D02*
X4370063Y-9064484D01*
X4455777Y-9264484D02*
X4455777Y-9159722D01*
X4455777Y-9159722D02*
X4446253Y-9140674D01*
X4446253Y-9140674D02*
X4427206Y-9131150D01*
X4427206Y-9131150D02*
X4398634Y-9131150D01*
X4398634Y-9131150D02*
X4379587Y-9140674D01*
X4379587Y-9140674D02*
X4370063Y-9150198D01*
X4579587Y-9264484D02*
X4560539Y-9254960D01*
X4560539Y-9254960D02*
X4551015Y-9245436D01*
X4551015Y-9245436D02*
X4541492Y-9226389D01*
X4541492Y-9226389D02*
X4541492Y-9169246D01*
X4541492Y-9169246D02*
X4551015Y-9150198D01*
X4551015Y-9150198D02*
X4560539Y-9140674D01*
X4560539Y-9140674D02*
X4579587Y-9131150D01*
X4579587Y-9131150D02*
X4608158Y-9131150D01*
X4608158Y-9131150D02*
X4627206Y-9140674D01*
X4627206Y-9140674D02*
X4636730Y-9150198D01*
X4636730Y-9150198D02*
X4646253Y-9169246D01*
X4646253Y-9169246D02*
X4646253Y-9226389D01*
X4646253Y-9226389D02*
X4636730Y-9245436D01*
X4636730Y-9245436D02*
X4627206Y-9254960D01*
X4627206Y-9254960D02*
X4608158Y-9264484D01*
X4608158Y-9264484D02*
X4579587Y-9264484D01*
X4760539Y-9264484D02*
X4741492Y-9254960D01*
X4741492Y-9254960D02*
X4731968Y-9235912D01*
X4731968Y-9235912D02*
X4731968Y-9064484D01*
X4912920Y-9254960D02*
X4893873Y-9264484D01*
X4893873Y-9264484D02*
X4855777Y-9264484D01*
X4855777Y-9264484D02*
X4836730Y-9254960D01*
X4836730Y-9254960D02*
X4827206Y-9235912D01*
X4827206Y-9235912D02*
X4827206Y-9159722D01*
X4827206Y-9159722D02*
X4836730Y-9140674D01*
X4836730Y-9140674D02*
X4855777Y-9131150D01*
X4855777Y-9131150D02*
X4893873Y-9131150D01*
X4893873Y-9131150D02*
X4912920Y-9140674D01*
X4912920Y-9140674D02*
X4922444Y-9159722D01*
X4922444Y-9159722D02*
X4922444Y-9178770D01*
X4922444Y-9178770D02*
X4827206Y-9197817D01*
X4998634Y-9254960D02*
X5017682Y-9264484D01*
X5017682Y-9264484D02*
X5055777Y-9264484D01*
X5055777Y-9264484D02*
X5074825Y-9254960D01*
X5074825Y-9254960D02*
X5084349Y-9235912D01*
X5084349Y-9235912D02*
X5084349Y-9226389D01*
X5084349Y-9226389D02*
X5074825Y-9207341D01*
X5074825Y-9207341D02*
X5055777Y-9197817D01*
X5055777Y-9197817D02*
X5027206Y-9197817D01*
X5027206Y-9197817D02*
X5008158Y-9188293D01*
X5008158Y-9188293D02*
X4998634Y-9169246D01*
X4998634Y-9169246D02*
X4998634Y-9159722D01*
X4998634Y-9159722D02*
X5008158Y-9140674D01*
X5008158Y-9140674D02*
X5027206Y-9131150D01*
X5027206Y-9131150D02*
X5055777Y-9131150D01*
X5055777Y-9131150D02*
X5074825Y-9140674D01*
X5151015Y-9340674D02*
X5160539Y-9331150D01*
X5160539Y-9331150D02*
X5179587Y-9302579D01*
X5179587Y-9302579D02*
X5189111Y-9283531D01*
X5189111Y-9283531D02*
X5198634Y-9254960D01*
X5198634Y-9254960D02*
X5208158Y-9207341D01*
X5208158Y-9207341D02*
X5208158Y-9169246D01*
X5208158Y-9169246D02*
X5198634Y-9121627D01*
X5198634Y-9121627D02*
X5189111Y-9093055D01*
X5189111Y-9093055D02*
X5179587Y-9074008D01*
X5179587Y-9074008D02*
X5160539Y-9045436D01*
X5160539Y-9045436D02*
X5151015Y-9035912D01*
D10*
X-18180Y-9468820D02*
X-18180Y-9405180D01*
X-81820Y-9405180D01*
X-81820Y-9468820D01*
X-18180Y-9468820D01*
D11*
X293872Y-9328484D02*
X312920Y-9328484D01*
X312920Y-9328484D02*
X331967Y-9338008D01*
X331967Y-9338008D02*
X341491Y-9347531D01*
X341491Y-9347531D02*
X351015Y-9366579D01*
X351015Y-9366579D02*
X360539Y-9404674D01*
X360539Y-9404674D02*
X360539Y-9452293D01*
X360539Y-9452293D02*
X351015Y-9490389D01*
X351015Y-9490389D02*
X341491Y-9509436D01*
X341491Y-9509436D02*
X331967Y-9518960D01*
X331967Y-9518960D02*
X312920Y-9528484D01*
X312920Y-9528484D02*
X293872Y-9528484D01*
X293872Y-9528484D02*
X274824Y-9518960D01*
X274824Y-9518960D02*
X265301Y-9509436D01*
X265301Y-9509436D02*
X255777Y-9490389D01*
X255777Y-9490389D02*
X246253Y-9452293D01*
X246253Y-9452293D02*
X246253Y-9404674D01*
X246253Y-9404674D02*
X255777Y-9366579D01*
X255777Y-9366579D02*
X265301Y-9347531D01*
X265301Y-9347531D02*
X274824Y-9338008D01*
X274824Y-9338008D02*
X293872Y-9328484D01*
X446253Y-9509436D02*
X455777Y-9518960D01*
X455777Y-9518960D02*
X446253Y-9528484D01*
X446253Y-9528484D02*
X436729Y-9518960D01*
X436729Y-9518960D02*
X446253Y-9509436D01*
X446253Y-9509436D02*
X446253Y-9528484D01*
X551015Y-9528484D02*
X589110Y-9528484D01*
X589110Y-9528484D02*
X608158Y-9518960D01*
X608158Y-9518960D02*
X617682Y-9509436D01*
X617682Y-9509436D02*
X636729Y-9480865D01*
X636729Y-9480865D02*
X646253Y-9442770D01*
X646253Y-9442770D02*
X646253Y-9366579D01*
X646253Y-9366579D02*
X636729Y-9347531D01*
X636729Y-9347531D02*
X627205Y-9338008D01*
X627205Y-9338008D02*
X608158Y-9328484D01*
X608158Y-9328484D02*
X570063Y-9328484D01*
X570063Y-9328484D02*
X551015Y-9338008D01*
X551015Y-9338008D02*
X541491Y-9347531D01*
X541491Y-9347531D02*
X531967Y-9366579D01*
X531967Y-9366579D02*
X531967Y-9414198D01*
X531967Y-9414198D02*
X541491Y-9433246D01*
X541491Y-9433246D02*
X551015Y-9442770D01*
X551015Y-9442770D02*
X570063Y-9452293D01*
X570063Y-9452293D02*
X608158Y-9452293D01*
X608158Y-9452293D02*
X627205Y-9442770D01*
X627205Y-9442770D02*
X636729Y-9433246D01*
X636729Y-9433246D02*
X646253Y-9414198D01*
X770062Y-9328484D02*
X789110Y-9328484D01*
X789110Y-9328484D02*
X808158Y-9338008D01*
X808158Y-9338008D02*
X817682Y-9347531D01*
X817682Y-9347531D02*
X827205Y-9366579D01*
X827205Y-9366579D02*
X836729Y-9404674D01*
X836729Y-9404674D02*
X836729Y-9452293D01*
X836729Y-9452293D02*
X827205Y-9490389D01*
X827205Y-9490389D02*
X817682Y-9509436D01*
X817682Y-9509436D02*
X808158Y-9518960D01*
X808158Y-9518960D02*
X789110Y-9528484D01*
X789110Y-9528484D02*
X770062Y-9528484D01*
X770062Y-9528484D02*
X751015Y-9518960D01*
X751015Y-9518960D02*
X741491Y-9509436D01*
X741491Y-9509436D02*
X731967Y-9490389D01*
X731967Y-9490389D02*
X722443Y-9452293D01*
X722443Y-9452293D02*
X722443Y-9404674D01*
X722443Y-9404674D02*
X731967Y-9366579D01*
X731967Y-9366579D02*
X741491Y-9347531D01*
X741491Y-9347531D02*
X751015Y-9338008D01*
X751015Y-9338008D02*
X770062Y-9328484D01*
X960539Y-9328484D02*
X979586Y-9328484D01*
X979586Y-9328484D02*
X998634Y-9338008D01*
X998634Y-9338008D02*
X1008158Y-9347531D01*
X1008158Y-9347531D02*
X1017682Y-9366579D01*
X1017682Y-9366579D02*
X1027205Y-9404674D01*
X1027205Y-9404674D02*
X1027205Y-9452293D01*
X1027205Y-9452293D02*
X1017682Y-9490389D01*
X1017682Y-9490389D02*
X1008158Y-9509436D01*
X1008158Y-9509436D02*
X998634Y-9518960D01*
X998634Y-9518960D02*
X979586Y-9528484D01*
X979586Y-9528484D02*
X960539Y-9528484D01*
X960539Y-9528484D02*
X941491Y-9518960D01*
X941491Y-9518960D02*
X931967Y-9509436D01*
X931967Y-9509436D02*
X922443Y-9490389D01*
X922443Y-9490389D02*
X912920Y-9452293D01*
X912920Y-9452293D02*
X912920Y-9404674D01*
X912920Y-9404674D02*
X922443Y-9366579D01*
X922443Y-9366579D02*
X931967Y-9347531D01*
X931967Y-9347531D02*
X941491Y-9338008D01*
X941491Y-9338008D02*
X960539Y-9328484D01*
X1112920Y-9528484D02*
X1112920Y-9395150D01*
X1112920Y-9414198D02*
X1122444Y-9404674D01*
X1122444Y-9404674D02*
X1141491Y-9395150D01*
X1141491Y-9395150D02*
X1170063Y-9395150D01*
X1170063Y-9395150D02*
X1189110Y-9404674D01*
X1189110Y-9404674D02*
X1198634Y-9423722D01*
X1198634Y-9423722D02*
X1198634Y-9528484D01*
X1198634Y-9423722D02*
X1208158Y-9404674D01*
X1208158Y-9404674D02*
X1227205Y-9395150D01*
X1227205Y-9395150D02*
X1255777Y-9395150D01*
X1255777Y-9395150D02*
X1274825Y-9404674D01*
X1274825Y-9404674D02*
X1284348Y-9423722D01*
X1284348Y-9423722D02*
X1284348Y-9528484D01*
X1379586Y-9528484D02*
X1379586Y-9395150D01*
X1379586Y-9414198D02*
X1389110Y-9404674D01*
X1389110Y-9404674D02*
X1408158Y-9395150D01*
X1408158Y-9395150D02*
X1436729Y-9395150D01*
X1436729Y-9395150D02*
X1455777Y-9404674D01*
X1455777Y-9404674D02*
X1465301Y-9423722D01*
X1465301Y-9423722D02*
X1465301Y-9528484D01*
X1465301Y-9423722D02*
X1474824Y-9404674D01*
X1474824Y-9404674D02*
X1493872Y-9395150D01*
X1493872Y-9395150D02*
X1522443Y-9395150D01*
X1522443Y-9395150D02*
X1541491Y-9404674D01*
X1541491Y-9404674D02*
X1551015Y-9423722D01*
X1551015Y-9423722D02*
X1551015Y-9528484D01*
X1941491Y-9318960D02*
X1770063Y-9576103D01*
X2198634Y-9328484D02*
X2217682Y-9328484D01*
X2217682Y-9328484D02*
X2236729Y-9338008D01*
X2236729Y-9338008D02*
X2246253Y-9347531D01*
X2246253Y-9347531D02*
X2255777Y-9366579D01*
X2255777Y-9366579D02*
X2265301Y-9404674D01*
X2265301Y-9404674D02*
X2265301Y-9452293D01*
X2265301Y-9452293D02*
X2255777Y-9490389D01*
X2255777Y-9490389D02*
X2246253Y-9509436D01*
X2246253Y-9509436D02*
X2236729Y-9518960D01*
X2236729Y-9518960D02*
X2217682Y-9528484D01*
X2217682Y-9528484D02*
X2198634Y-9528484D01*
X2198634Y-9528484D02*
X2179587Y-9518960D01*
X2179587Y-9518960D02*
X2170063Y-9509436D01*
X2170063Y-9509436D02*
X2160539Y-9490389D01*
X2160539Y-9490389D02*
X2151015Y-9452293D01*
X2151015Y-9452293D02*
X2151015Y-9404674D01*
X2151015Y-9404674D02*
X2160539Y-9366579D01*
X2160539Y-9366579D02*
X2170063Y-9347531D01*
X2170063Y-9347531D02*
X2179587Y-9338008D01*
X2179587Y-9338008D02*
X2198634Y-9328484D01*
X2351015Y-9509436D02*
X2360539Y-9518960D01*
X2360539Y-9518960D02*
X2351015Y-9528484D01*
X2351015Y-9528484D02*
X2341491Y-9518960D01*
X2341491Y-9518960D02*
X2351015Y-9509436D01*
X2351015Y-9509436D02*
X2351015Y-9528484D01*
X2484348Y-9328484D02*
X2503396Y-9328484D01*
X2503396Y-9328484D02*
X2522444Y-9338008D01*
X2522444Y-9338008D02*
X2531968Y-9347531D01*
X2531968Y-9347531D02*
X2541491Y-9366579D01*
X2541491Y-9366579D02*
X2551015Y-9404674D01*
X2551015Y-9404674D02*
X2551015Y-9452293D01*
X2551015Y-9452293D02*
X2541491Y-9490389D01*
X2541491Y-9490389D02*
X2531968Y-9509436D01*
X2531968Y-9509436D02*
X2522444Y-9518960D01*
X2522444Y-9518960D02*
X2503396Y-9528484D01*
X2503396Y-9528484D02*
X2484348Y-9528484D01*
X2484348Y-9528484D02*
X2465301Y-9518960D01*
X2465301Y-9518960D02*
X2455777Y-9509436D01*
X2455777Y-9509436D02*
X2446253Y-9490389D01*
X2446253Y-9490389D02*
X2436729Y-9452293D01*
X2436729Y-9452293D02*
X2436729Y-9404674D01*
X2436729Y-9404674D02*
X2446253Y-9366579D01*
X2446253Y-9366579D02*
X2455777Y-9347531D01*
X2455777Y-9347531D02*
X2465301Y-9338008D01*
X2465301Y-9338008D02*
X2484348Y-9328484D01*
X2617682Y-9328484D02*
X2741491Y-9328484D01*
X2741491Y-9328484D02*
X2674825Y-9404674D01*
X2674825Y-9404674D02*
X2703396Y-9404674D01*
X2703396Y-9404674D02*
X2722444Y-9414198D01*
X2722444Y-9414198D02*
X2731968Y-9423722D01*
X2731968Y-9423722D02*
X2741491Y-9442770D01*
X2741491Y-9442770D02*
X2741491Y-9490389D01*
X2741491Y-9490389D02*
X2731968Y-9509436D01*
X2731968Y-9509436D02*
X2722444Y-9518960D01*
X2722444Y-9518960D02*
X2703396Y-9528484D01*
X2703396Y-9528484D02*
X2646253Y-9528484D01*
X2646253Y-9528484D02*
X2627206Y-9518960D01*
X2627206Y-9518960D02*
X2617682Y-9509436D01*
X2922444Y-9328484D02*
X2827206Y-9328484D01*
X2827206Y-9328484D02*
X2817682Y-9423722D01*
X2817682Y-9423722D02*
X2827206Y-9414198D01*
X2827206Y-9414198D02*
X2846253Y-9404674D01*
X2846253Y-9404674D02*
X2893872Y-9404674D01*
X2893872Y-9404674D02*
X2912920Y-9414198D01*
X2912920Y-9414198D02*
X2922444Y-9423722D01*
X2922444Y-9423722D02*
X2931967Y-9442770D01*
X2931967Y-9442770D02*
X2931967Y-9490389D01*
X2931967Y-9490389D02*
X2922444Y-9509436D01*
X2922444Y-9509436D02*
X2912920Y-9518960D01*
X2912920Y-9518960D02*
X2893872Y-9528484D01*
X2893872Y-9528484D02*
X2846253Y-9528484D01*
X2846253Y-9528484D02*
X2827206Y-9518960D01*
X2827206Y-9518960D02*
X2817682Y-9509436D01*
X3103396Y-9395150D02*
X3103396Y-9528484D01*
X3055777Y-9318960D02*
X3008158Y-9461817D01*
X3008158Y-9461817D02*
X3131967Y-9461817D01*
X3198634Y-9328484D02*
X3198634Y-9366579D01*
X3274825Y-9328484D02*
X3274825Y-9366579D01*
X3570063Y-9604674D02*
X3560539Y-9595150D01*
X3560539Y-9595150D02*
X3541491Y-9566579D01*
X3541491Y-9566579D02*
X3531968Y-9547531D01*
X3531968Y-9547531D02*
X3522444Y-9518960D01*
X3522444Y-9518960D02*
X3512920Y-9471341D01*
X3512920Y-9471341D02*
X3512920Y-9433246D01*
X3512920Y-9433246D02*
X3522444Y-9385627D01*
X3522444Y-9385627D02*
X3531968Y-9357055D01*
X3531968Y-9357055D02*
X3541491Y-9338008D01*
X3541491Y-9338008D02*
X3560539Y-9309436D01*
X3560539Y-9309436D02*
X3570063Y-9299912D01*
X3636729Y-9347531D02*
X3646253Y-9338008D01*
X3646253Y-9338008D02*
X3665301Y-9328484D01*
X3665301Y-9328484D02*
X3712920Y-9328484D01*
X3712920Y-9328484D02*
X3731968Y-9338008D01*
X3731968Y-9338008D02*
X3741491Y-9347531D01*
X3741491Y-9347531D02*
X3751015Y-9366579D01*
X3751015Y-9366579D02*
X3751015Y-9385627D01*
X3751015Y-9385627D02*
X3741491Y-9414198D01*
X3741491Y-9414198D02*
X3627206Y-9528484D01*
X3627206Y-9528484D02*
X3751015Y-9528484D01*
X3989110Y-9528484D02*
X3989110Y-9328484D01*
X4074825Y-9528484D02*
X4074825Y-9423722D01*
X4074825Y-9423722D02*
X4065301Y-9404674D01*
X4065301Y-9404674D02*
X4046253Y-9395150D01*
X4046253Y-9395150D02*
X4017682Y-9395150D01*
X4017682Y-9395150D02*
X3998634Y-9404674D01*
X3998634Y-9404674D02*
X3989110Y-9414198D01*
X4198634Y-9528484D02*
X4179587Y-9518960D01*
X4179587Y-9518960D02*
X4170063Y-9509436D01*
X4170063Y-9509436D02*
X4160539Y-9490389D01*
X4160539Y-9490389D02*
X4160539Y-9433246D01*
X4160539Y-9433246D02*
X4170063Y-9414198D01*
X4170063Y-9414198D02*
X4179587Y-9404674D01*
X4179587Y-9404674D02*
X4198634Y-9395150D01*
X4198634Y-9395150D02*
X4227206Y-9395150D01*
X4227206Y-9395150D02*
X4246253Y-9404674D01*
X4246253Y-9404674D02*
X4255777Y-9414198D01*
X4255777Y-9414198D02*
X4265301Y-9433246D01*
X4265301Y-9433246D02*
X4265301Y-9490389D01*
X4265301Y-9490389D02*
X4255777Y-9509436D01*
X4255777Y-9509436D02*
X4246253Y-9518960D01*
X4246253Y-9518960D02*
X4227206Y-9528484D01*
X4227206Y-9528484D02*
X4198634Y-9528484D01*
X4379587Y-9528484D02*
X4360539Y-9518960D01*
X4360539Y-9518960D02*
X4351015Y-9499912D01*
X4351015Y-9499912D02*
X4351015Y-9328484D01*
X4531968Y-9518960D02*
X4512920Y-9528484D01*
X4512920Y-9528484D02*
X4474825Y-9528484D01*
X4474825Y-9528484D02*
X4455777Y-9518960D01*
X4455777Y-9518960D02*
X4446253Y-9499912D01*
X4446253Y-9499912D02*
X4446253Y-9423722D01*
X4446253Y-9423722D02*
X4455777Y-9404674D01*
X4455777Y-9404674D02*
X4474825Y-9395150D01*
X4474825Y-9395150D02*
X4512920Y-9395150D01*
X4512920Y-9395150D02*
X4531968Y-9404674D01*
X4531968Y-9404674D02*
X4541492Y-9423722D01*
X4541492Y-9423722D02*
X4541492Y-9442770D01*
X4541492Y-9442770D02*
X4446253Y-9461817D01*
X4617682Y-9518960D02*
X4636730Y-9528484D01*
X4636730Y-9528484D02*
X4674825Y-9528484D01*
X4674825Y-9528484D02*
X4693873Y-9518960D01*
X4693873Y-9518960D02*
X4703396Y-9499912D01*
X4703396Y-9499912D02*
X4703396Y-9490389D01*
X4703396Y-9490389D02*
X4693873Y-9471341D01*
X4693873Y-9471341D02*
X4674825Y-9461817D01*
X4674825Y-9461817D02*
X4646253Y-9461817D01*
X4646253Y-9461817D02*
X4627206Y-9452293D01*
X4627206Y-9452293D02*
X4617682Y-9433246D01*
X4617682Y-9433246D02*
X4617682Y-9423722D01*
X4617682Y-9423722D02*
X4627206Y-9404674D01*
X4627206Y-9404674D02*
X4646253Y-9395150D01*
X4646253Y-9395150D02*
X4674825Y-9395150D01*
X4674825Y-9395150D02*
X4693873Y-9404674D01*
X4770063Y-9604674D02*
X4779587Y-9595150D01*
X4779587Y-9595150D02*
X4798634Y-9566579D01*
X4798634Y-9566579D02*
X4808158Y-9547531D01*
X4808158Y-9547531D02*
X4817682Y-9518960D01*
X4817682Y-9518960D02*
X4827206Y-9471341D01*
X4827206Y-9471341D02*
X4827206Y-9433246D01*
X4827206Y-9433246D02*
X4817682Y-9385627D01*
X4817682Y-9385627D02*
X4808158Y-9357055D01*
X4808158Y-9357055D02*
X4798634Y-9338008D01*
X4798634Y-9338008D02*
X4779587Y-9309436D01*
X4779587Y-9309436D02*
X4770063Y-9299912D01*
D10*
X-55000Y-9751000D02*
X-5000Y-9701000D01*
X-55000Y-9651000D01*
X-105000Y-9701000D01*
X-55000Y-9751000D01*
D11*
X360539Y-9792484D02*
X246253Y-9792484D01*
X303396Y-9792484D02*
X303396Y-9592484D01*
X303396Y-9592484D02*
X284348Y-9621055D01*
X284348Y-9621055D02*
X265301Y-9640103D01*
X265301Y-9640103D02*
X246253Y-9649627D01*
X446253Y-9773436D02*
X455777Y-9782960D01*
X455777Y-9782960D02*
X446253Y-9792484D01*
X446253Y-9792484D02*
X436729Y-9782960D01*
X436729Y-9782960D02*
X446253Y-9773436D01*
X446253Y-9773436D02*
X446253Y-9792484D01*
X579586Y-9592484D02*
X598634Y-9592484D01*
X598634Y-9592484D02*
X617682Y-9602008D01*
X617682Y-9602008D02*
X627205Y-9611531D01*
X627205Y-9611531D02*
X636729Y-9630579D01*
X636729Y-9630579D02*
X646253Y-9668674D01*
X646253Y-9668674D02*
X646253Y-9716293D01*
X646253Y-9716293D02*
X636729Y-9754389D01*
X636729Y-9754389D02*
X627205Y-9773436D01*
X627205Y-9773436D02*
X617682Y-9782960D01*
X617682Y-9782960D02*
X598634Y-9792484D01*
X598634Y-9792484D02*
X579586Y-9792484D01*
X579586Y-9792484D02*
X560539Y-9782960D01*
X560539Y-9782960D02*
X551015Y-9773436D01*
X551015Y-9773436D02*
X541491Y-9754389D01*
X541491Y-9754389D02*
X531967Y-9716293D01*
X531967Y-9716293D02*
X531967Y-9668674D01*
X531967Y-9668674D02*
X541491Y-9630579D01*
X541491Y-9630579D02*
X551015Y-9611531D01*
X551015Y-9611531D02*
X560539Y-9602008D01*
X560539Y-9602008D02*
X579586Y-9592484D01*
X770062Y-9592484D02*
X789110Y-9592484D01*
X789110Y-9592484D02*
X808158Y-9602008D01*
X808158Y-9602008D02*
X817682Y-9611531D01*
X817682Y-9611531D02*
X827205Y-9630579D01*
X827205Y-9630579D02*
X836729Y-9668674D01*
X836729Y-9668674D02*
X836729Y-9716293D01*
X836729Y-9716293D02*
X827205Y-9754389D01*
X827205Y-9754389D02*
X817682Y-9773436D01*
X817682Y-9773436D02*
X808158Y-9782960D01*
X808158Y-9782960D02*
X789110Y-9792484D01*
X789110Y-9792484D02*
X770062Y-9792484D01*
X770062Y-9792484D02*
X751015Y-9782960D01*
X751015Y-9782960D02*
X741491Y-9773436D01*
X741491Y-9773436D02*
X731967Y-9754389D01*
X731967Y-9754389D02*
X722443Y-9716293D01*
X722443Y-9716293D02*
X722443Y-9668674D01*
X722443Y-9668674D02*
X731967Y-9630579D01*
X731967Y-9630579D02*
X741491Y-9611531D01*
X741491Y-9611531D02*
X751015Y-9602008D01*
X751015Y-9602008D02*
X770062Y-9592484D01*
X960539Y-9592484D02*
X979586Y-9592484D01*
X979586Y-9592484D02*
X998634Y-9602008D01*
X998634Y-9602008D02*
X1008158Y-9611531D01*
X1008158Y-9611531D02*
X1017682Y-9630579D01*
X1017682Y-9630579D02*
X1027205Y-9668674D01*
X1027205Y-9668674D02*
X1027205Y-9716293D01*
X1027205Y-9716293D02*
X1017682Y-9754389D01*
X1017682Y-9754389D02*
X1008158Y-9773436D01*
X1008158Y-9773436D02*
X998634Y-9782960D01*
X998634Y-9782960D02*
X979586Y-9792484D01*
X979586Y-9792484D02*
X960539Y-9792484D01*
X960539Y-9792484D02*
X941491Y-9782960D01*
X941491Y-9782960D02*
X931967Y-9773436D01*
X931967Y-9773436D02*
X922443Y-9754389D01*
X922443Y-9754389D02*
X912920Y-9716293D01*
X912920Y-9716293D02*
X912920Y-9668674D01*
X912920Y-9668674D02*
X922443Y-9630579D01*
X922443Y-9630579D02*
X931967Y-9611531D01*
X931967Y-9611531D02*
X941491Y-9602008D01*
X941491Y-9602008D02*
X960539Y-9592484D01*
X1112920Y-9792484D02*
X1112920Y-9659150D01*
X1112920Y-9678198D02*
X1122444Y-9668674D01*
X1122444Y-9668674D02*
X1141491Y-9659150D01*
X1141491Y-9659150D02*
X1170063Y-9659150D01*
X1170063Y-9659150D02*
X1189110Y-9668674D01*
X1189110Y-9668674D02*
X1198634Y-9687722D01*
X1198634Y-9687722D02*
X1198634Y-9792484D01*
X1198634Y-9687722D02*
X1208158Y-9668674D01*
X1208158Y-9668674D02*
X1227205Y-9659150D01*
X1227205Y-9659150D02*
X1255777Y-9659150D01*
X1255777Y-9659150D02*
X1274825Y-9668674D01*
X1274825Y-9668674D02*
X1284348Y-9687722D01*
X1284348Y-9687722D02*
X1284348Y-9792484D01*
X1379586Y-9792484D02*
X1379586Y-9659150D01*
X1379586Y-9678198D02*
X1389110Y-9668674D01*
X1389110Y-9668674D02*
X1408158Y-9659150D01*
X1408158Y-9659150D02*
X1436729Y-9659150D01*
X1436729Y-9659150D02*
X1455777Y-9668674D01*
X1455777Y-9668674D02*
X1465301Y-9687722D01*
X1465301Y-9687722D02*
X1465301Y-9792484D01*
X1465301Y-9687722D02*
X1474824Y-9668674D01*
X1474824Y-9668674D02*
X1493872Y-9659150D01*
X1493872Y-9659150D02*
X1522443Y-9659150D01*
X1522443Y-9659150D02*
X1541491Y-9668674D01*
X1541491Y-9668674D02*
X1551015Y-9687722D01*
X1551015Y-9687722D02*
X1551015Y-9792484D01*
X1941491Y-9582960D02*
X1770063Y-9840103D01*
X2198634Y-9592484D02*
X2217682Y-9592484D01*
X2217682Y-9592484D02*
X2236729Y-9602008D01*
X2236729Y-9602008D02*
X2246253Y-9611531D01*
X2246253Y-9611531D02*
X2255777Y-9630579D01*
X2255777Y-9630579D02*
X2265301Y-9668674D01*
X2265301Y-9668674D02*
X2265301Y-9716293D01*
X2265301Y-9716293D02*
X2255777Y-9754389D01*
X2255777Y-9754389D02*
X2246253Y-9773436D01*
X2246253Y-9773436D02*
X2236729Y-9782960D01*
X2236729Y-9782960D02*
X2217682Y-9792484D01*
X2217682Y-9792484D02*
X2198634Y-9792484D01*
X2198634Y-9792484D02*
X2179587Y-9782960D01*
X2179587Y-9782960D02*
X2170063Y-9773436D01*
X2170063Y-9773436D02*
X2160539Y-9754389D01*
X2160539Y-9754389D02*
X2151015Y-9716293D01*
X2151015Y-9716293D02*
X2151015Y-9668674D01*
X2151015Y-9668674D02*
X2160539Y-9630579D01*
X2160539Y-9630579D02*
X2170063Y-9611531D01*
X2170063Y-9611531D02*
X2179587Y-9602008D01*
X2179587Y-9602008D02*
X2198634Y-9592484D01*
X2351015Y-9773436D02*
X2360539Y-9782960D01*
X2360539Y-9782960D02*
X2351015Y-9792484D01*
X2351015Y-9792484D02*
X2341491Y-9782960D01*
X2341491Y-9782960D02*
X2351015Y-9773436D01*
X2351015Y-9773436D02*
X2351015Y-9792484D01*
X2484348Y-9592484D02*
X2503396Y-9592484D01*
X2503396Y-9592484D02*
X2522444Y-9602008D01*
X2522444Y-9602008D02*
X2531968Y-9611531D01*
X2531968Y-9611531D02*
X2541491Y-9630579D01*
X2541491Y-9630579D02*
X2551015Y-9668674D01*
X2551015Y-9668674D02*
X2551015Y-9716293D01*
X2551015Y-9716293D02*
X2541491Y-9754389D01*
X2541491Y-9754389D02*
X2531968Y-9773436D01*
X2531968Y-9773436D02*
X2522444Y-9782960D01*
X2522444Y-9782960D02*
X2503396Y-9792484D01*
X2503396Y-9792484D02*
X2484348Y-9792484D01*
X2484348Y-9792484D02*
X2465301Y-9782960D01*
X2465301Y-9782960D02*
X2455777Y-9773436D01*
X2455777Y-9773436D02*
X2446253Y-9754389D01*
X2446253Y-9754389D02*
X2436729Y-9716293D01*
X2436729Y-9716293D02*
X2436729Y-9668674D01*
X2436729Y-9668674D02*
X2446253Y-9630579D01*
X2446253Y-9630579D02*
X2455777Y-9611531D01*
X2455777Y-9611531D02*
X2465301Y-9602008D01*
X2465301Y-9602008D02*
X2484348Y-9592484D01*
X2617682Y-9592484D02*
X2741491Y-9592484D01*
X2741491Y-9592484D02*
X2674825Y-9668674D01*
X2674825Y-9668674D02*
X2703396Y-9668674D01*
X2703396Y-9668674D02*
X2722444Y-9678198D01*
X2722444Y-9678198D02*
X2731968Y-9687722D01*
X2731968Y-9687722D02*
X2741491Y-9706770D01*
X2741491Y-9706770D02*
X2741491Y-9754389D01*
X2741491Y-9754389D02*
X2731968Y-9773436D01*
X2731968Y-9773436D02*
X2722444Y-9782960D01*
X2722444Y-9782960D02*
X2703396Y-9792484D01*
X2703396Y-9792484D02*
X2646253Y-9792484D01*
X2646253Y-9792484D02*
X2627206Y-9782960D01*
X2627206Y-9782960D02*
X2617682Y-9773436D01*
X2836729Y-9792484D02*
X2874825Y-9792484D01*
X2874825Y-9792484D02*
X2893872Y-9782960D01*
X2893872Y-9782960D02*
X2903396Y-9773436D01*
X2903396Y-9773436D02*
X2922444Y-9744865D01*
X2922444Y-9744865D02*
X2931967Y-9706770D01*
X2931967Y-9706770D02*
X2931967Y-9630579D01*
X2931967Y-9630579D02*
X2922444Y-9611531D01*
X2922444Y-9611531D02*
X2912920Y-9602008D01*
X2912920Y-9602008D02*
X2893872Y-9592484D01*
X2893872Y-9592484D02*
X2855777Y-9592484D01*
X2855777Y-9592484D02*
X2836729Y-9602008D01*
X2836729Y-9602008D02*
X2827206Y-9611531D01*
X2827206Y-9611531D02*
X2817682Y-9630579D01*
X2817682Y-9630579D02*
X2817682Y-9678198D01*
X2817682Y-9678198D02*
X2827206Y-9697246D01*
X2827206Y-9697246D02*
X2836729Y-9706770D01*
X2836729Y-9706770D02*
X2855777Y-9716293D01*
X2855777Y-9716293D02*
X2893872Y-9716293D01*
X2893872Y-9716293D02*
X2912920Y-9706770D01*
X2912920Y-9706770D02*
X2922444Y-9697246D01*
X2922444Y-9697246D02*
X2931967Y-9678198D01*
X3103396Y-9659150D02*
X3103396Y-9792484D01*
X3055777Y-9582960D02*
X3008158Y-9725817D01*
X3008158Y-9725817D02*
X3131967Y-9725817D01*
X3198634Y-9592484D02*
X3198634Y-9630579D01*
X3274825Y-9592484D02*
X3274825Y-9630579D01*
X3570063Y-9868674D02*
X3560539Y-9859150D01*
X3560539Y-9859150D02*
X3541491Y-9830579D01*
X3541491Y-9830579D02*
X3531968Y-9811531D01*
X3531968Y-9811531D02*
X3522444Y-9782960D01*
X3522444Y-9782960D02*
X3512920Y-9735341D01*
X3512920Y-9735341D02*
X3512920Y-9697246D01*
X3512920Y-9697246D02*
X3522444Y-9649627D01*
X3522444Y-9649627D02*
X3531968Y-9621055D01*
X3531968Y-9621055D02*
X3541491Y-9602008D01*
X3541491Y-9602008D02*
X3560539Y-9573436D01*
X3560539Y-9573436D02*
X3570063Y-9563912D01*
X3751015Y-9792484D02*
X3636729Y-9792484D01*
X3693872Y-9792484D02*
X3693872Y-9592484D01*
X3693872Y-9592484D02*
X3674825Y-9621055D01*
X3674825Y-9621055D02*
X3655777Y-9640103D01*
X3655777Y-9640103D02*
X3636729Y-9649627D01*
X3846253Y-9792484D02*
X3884348Y-9792484D01*
X3884348Y-9792484D02*
X3903396Y-9782960D01*
X3903396Y-9782960D02*
X3912920Y-9773436D01*
X3912920Y-9773436D02*
X3931968Y-9744865D01*
X3931968Y-9744865D02*
X3941491Y-9706770D01*
X3941491Y-9706770D02*
X3941491Y-9630579D01*
X3941491Y-9630579D02*
X3931968Y-9611531D01*
X3931968Y-9611531D02*
X3922444Y-9602008D01*
X3922444Y-9602008D02*
X3903396Y-9592484D01*
X3903396Y-9592484D02*
X3865301Y-9592484D01*
X3865301Y-9592484D02*
X3846253Y-9602008D01*
X3846253Y-9602008D02*
X3836729Y-9611531D01*
X3836729Y-9611531D02*
X3827206Y-9630579D01*
X3827206Y-9630579D02*
X3827206Y-9678198D01*
X3827206Y-9678198D02*
X3836729Y-9697246D01*
X3836729Y-9697246D02*
X3846253Y-9706770D01*
X3846253Y-9706770D02*
X3865301Y-9716293D01*
X3865301Y-9716293D02*
X3903396Y-9716293D01*
X3903396Y-9716293D02*
X3922444Y-9706770D01*
X3922444Y-9706770D02*
X3931968Y-9697246D01*
X3931968Y-9697246D02*
X3941491Y-9678198D01*
X4179587Y-9792484D02*
X4179587Y-9592484D01*
X4265301Y-9792484D02*
X4265301Y-9687722D01*
X4265301Y-9687722D02*
X4255777Y-9668674D01*
X4255777Y-9668674D02*
X4236730Y-9659150D01*
X4236730Y-9659150D02*
X4208158Y-9659150D01*
X4208158Y-9659150D02*
X4189110Y-9668674D01*
X4189110Y-9668674D02*
X4179587Y-9678198D01*
X4389111Y-9792484D02*
X4370063Y-9782960D01*
X4370063Y-9782960D02*
X4360539Y-9773436D01*
X4360539Y-9773436D02*
X4351015Y-9754389D01*
X4351015Y-9754389D02*
X4351015Y-9697246D01*
X4351015Y-9697246D02*
X4360539Y-9678198D01*
X4360539Y-9678198D02*
X4370063Y-9668674D01*
X4370063Y-9668674D02*
X4389111Y-9659150D01*
X4389111Y-9659150D02*
X4417682Y-9659150D01*
X4417682Y-9659150D02*
X4436730Y-9668674D01*
X4436730Y-9668674D02*
X4446253Y-9678198D01*
X4446253Y-9678198D02*
X4455777Y-9697246D01*
X4455777Y-9697246D02*
X4455777Y-9754389D01*
X4455777Y-9754389D02*
X4446253Y-9773436D01*
X4446253Y-9773436D02*
X4436730Y-9782960D01*
X4436730Y-9782960D02*
X4417682Y-9792484D01*
X4417682Y-9792484D02*
X4389111Y-9792484D01*
X4570063Y-9792484D02*
X4551015Y-9782960D01*
X4551015Y-9782960D02*
X4541492Y-9763912D01*
X4541492Y-9763912D02*
X4541492Y-9592484D01*
X4722444Y-9782960D02*
X4703396Y-9792484D01*
X4703396Y-9792484D02*
X4665301Y-9792484D01*
X4665301Y-9792484D02*
X4646253Y-9782960D01*
X4646253Y-9782960D02*
X4636730Y-9763912D01*
X4636730Y-9763912D02*
X4636730Y-9687722D01*
X4636730Y-9687722D02*
X4646253Y-9668674D01*
X4646253Y-9668674D02*
X4665301Y-9659150D01*
X4665301Y-9659150D02*
X4703396Y-9659150D01*
X4703396Y-9659150D02*
X4722444Y-9668674D01*
X4722444Y-9668674D02*
X4731968Y-9687722D01*
X4731968Y-9687722D02*
X4731968Y-9706770D01*
X4731968Y-9706770D02*
X4636730Y-9725817D01*
X4808158Y-9782960D02*
X4827206Y-9792484D01*
X4827206Y-9792484D02*
X4865301Y-9792484D01*
X4865301Y-9792484D02*
X4884349Y-9782960D01*
X4884349Y-9782960D02*
X4893873Y-9763912D01*
X4893873Y-9763912D02*
X4893873Y-9754389D01*
X4893873Y-9754389D02*
X4884349Y-9735341D01*
X4884349Y-9735341D02*
X4865301Y-9725817D01*
X4865301Y-9725817D02*
X4836730Y-9725817D01*
X4836730Y-9725817D02*
X4817682Y-9716293D01*
X4817682Y-9716293D02*
X4808158Y-9697246D01*
X4808158Y-9697246D02*
X4808158Y-9687722D01*
X4808158Y-9687722D02*
X4817682Y-9668674D01*
X4817682Y-9668674D02*
X4836730Y-9659150D01*
X4836730Y-9659150D02*
X4865301Y-9659150D01*
X4865301Y-9659150D02*
X4884349Y-9668674D01*
X4960539Y-9868674D02*
X4970063Y-9859150D01*
X4970063Y-9859150D02*
X4989111Y-9830579D01*
X4989111Y-9830579D02*
X4998634Y-9811531D01*
X4998634Y-9811531D02*
X5008158Y-9782960D01*
X5008158Y-9782960D02*
X5017682Y-9735341D01*
X5017682Y-9735341D02*
X5017682Y-9697246D01*
X5017682Y-9697246D02*
X5008158Y-9649627D01*
X5008158Y-9649627D02*
X4998634Y-9621055D01*
X4998634Y-9621055D02*
X4989111Y-9602008D01*
X4989111Y-9602008D02*
X4970063Y-9573436D01*
X4970063Y-9573436D02*
X4960539Y-9563912D01*
D12*
X-155000Y-9890000D02*
X-5000Y-10040000D01*
X-5000Y-9890000D02*
X-155000Y-10040000D01*
X-5000Y-9965000D02*
G75*
G02*
X-155000Y-9965000I-75000J0D01*
G01*
X-155000Y-9965000D02*
G75*
G02*
X-5000Y-9965000I75000J0D01*
G01*
D11*
X360539Y-10056484D02*
X246253Y-10056484D01*
X303396Y-10056484D02*
X303396Y-9856484D01*
X303396Y-9856484D02*
X284348Y-9885055D01*
X284348Y-9885055D02*
X265301Y-9904103D01*
X265301Y-9904103D02*
X246253Y-9913627D01*
X446253Y-10037436D02*
X455777Y-10046960D01*
X455777Y-10046960D02*
X446253Y-10056484D01*
X446253Y-10056484D02*
X436729Y-10046960D01*
X436729Y-10046960D02*
X446253Y-10037436D01*
X446253Y-10037436D02*
X446253Y-10056484D01*
X636729Y-9856484D02*
X541491Y-9856484D01*
X541491Y-9856484D02*
X531967Y-9951722D01*
X531967Y-9951722D02*
X541491Y-9942198D01*
X541491Y-9942198D02*
X560539Y-9932674D01*
X560539Y-9932674D02*
X608158Y-9932674D01*
X608158Y-9932674D02*
X627205Y-9942198D01*
X627205Y-9942198D02*
X636729Y-9951722D01*
X636729Y-9951722D02*
X646253Y-9970770D01*
X646253Y-9970770D02*
X646253Y-10018389D01*
X646253Y-10018389D02*
X636729Y-10037436D01*
X636729Y-10037436D02*
X627205Y-10046960D01*
X627205Y-10046960D02*
X608158Y-10056484D01*
X608158Y-10056484D02*
X560539Y-10056484D01*
X560539Y-10056484D02*
X541491Y-10046960D01*
X541491Y-10046960D02*
X531967Y-10037436D01*
X770062Y-9856484D02*
X789110Y-9856484D01*
X789110Y-9856484D02*
X808158Y-9866008D01*
X808158Y-9866008D02*
X817682Y-9875531D01*
X817682Y-9875531D02*
X827205Y-9894579D01*
X827205Y-9894579D02*
X836729Y-9932674D01*
X836729Y-9932674D02*
X836729Y-9980293D01*
X836729Y-9980293D02*
X827205Y-10018389D01*
X827205Y-10018389D02*
X817682Y-10037436D01*
X817682Y-10037436D02*
X808158Y-10046960D01*
X808158Y-10046960D02*
X789110Y-10056484D01*
X789110Y-10056484D02*
X770062Y-10056484D01*
X770062Y-10056484D02*
X751015Y-10046960D01*
X751015Y-10046960D02*
X741491Y-10037436D01*
X741491Y-10037436D02*
X731967Y-10018389D01*
X731967Y-10018389D02*
X722443Y-9980293D01*
X722443Y-9980293D02*
X722443Y-9932674D01*
X722443Y-9932674D02*
X731967Y-9894579D01*
X731967Y-9894579D02*
X741491Y-9875531D01*
X741491Y-9875531D02*
X751015Y-9866008D01*
X751015Y-9866008D02*
X770062Y-9856484D01*
X960539Y-9856484D02*
X979586Y-9856484D01*
X979586Y-9856484D02*
X998634Y-9866008D01*
X998634Y-9866008D02*
X1008158Y-9875531D01*
X1008158Y-9875531D02*
X1017682Y-9894579D01*
X1017682Y-9894579D02*
X1027205Y-9932674D01*
X1027205Y-9932674D02*
X1027205Y-9980293D01*
X1027205Y-9980293D02*
X1017682Y-10018389D01*
X1017682Y-10018389D02*
X1008158Y-10037436D01*
X1008158Y-10037436D02*
X998634Y-10046960D01*
X998634Y-10046960D02*
X979586Y-10056484D01*
X979586Y-10056484D02*
X960539Y-10056484D01*
X960539Y-10056484D02*
X941491Y-10046960D01*
X941491Y-10046960D02*
X931967Y-10037436D01*
X931967Y-10037436D02*
X922443Y-10018389D01*
X922443Y-10018389D02*
X912920Y-9980293D01*
X912920Y-9980293D02*
X912920Y-9932674D01*
X912920Y-9932674D02*
X922443Y-9894579D01*
X922443Y-9894579D02*
X931967Y-9875531D01*
X931967Y-9875531D02*
X941491Y-9866008D01*
X941491Y-9866008D02*
X960539Y-9856484D01*
X1112920Y-10056484D02*
X1112920Y-9923150D01*
X1112920Y-9942198D02*
X1122444Y-9932674D01*
X1122444Y-9932674D02*
X1141491Y-9923150D01*
X1141491Y-9923150D02*
X1170063Y-9923150D01*
X1170063Y-9923150D02*
X1189110Y-9932674D01*
X1189110Y-9932674D02*
X1198634Y-9951722D01*
X1198634Y-9951722D02*
X1198634Y-10056484D01*
X1198634Y-9951722D02*
X1208158Y-9932674D01*
X1208158Y-9932674D02*
X1227205Y-9923150D01*
X1227205Y-9923150D02*
X1255777Y-9923150D01*
X1255777Y-9923150D02*
X1274825Y-9932674D01*
X1274825Y-9932674D02*
X1284348Y-9951722D01*
X1284348Y-9951722D02*
X1284348Y-10056484D01*
X1379586Y-10056484D02*
X1379586Y-9923150D01*
X1379586Y-9942198D02*
X1389110Y-9932674D01*
X1389110Y-9932674D02*
X1408158Y-9923150D01*
X1408158Y-9923150D02*
X1436729Y-9923150D01*
X1436729Y-9923150D02*
X1455777Y-9932674D01*
X1455777Y-9932674D02*
X1465301Y-9951722D01*
X1465301Y-9951722D02*
X1465301Y-10056484D01*
X1465301Y-9951722D02*
X1474824Y-9932674D01*
X1474824Y-9932674D02*
X1493872Y-9923150D01*
X1493872Y-9923150D02*
X1522443Y-9923150D01*
X1522443Y-9923150D02*
X1541491Y-9932674D01*
X1541491Y-9932674D02*
X1551015Y-9951722D01*
X1551015Y-9951722D02*
X1551015Y-10056484D01*
X1941491Y-9846960D02*
X1770063Y-10104103D01*
X2198634Y-9856484D02*
X2217682Y-9856484D01*
X2217682Y-9856484D02*
X2236729Y-9866008D01*
X2236729Y-9866008D02*
X2246253Y-9875531D01*
X2246253Y-9875531D02*
X2255777Y-9894579D01*
X2255777Y-9894579D02*
X2265301Y-9932674D01*
X2265301Y-9932674D02*
X2265301Y-9980293D01*
X2265301Y-9980293D02*
X2255777Y-10018389D01*
X2255777Y-10018389D02*
X2246253Y-10037436D01*
X2246253Y-10037436D02*
X2236729Y-10046960D01*
X2236729Y-10046960D02*
X2217682Y-10056484D01*
X2217682Y-10056484D02*
X2198634Y-10056484D01*
X2198634Y-10056484D02*
X2179587Y-10046960D01*
X2179587Y-10046960D02*
X2170063Y-10037436D01*
X2170063Y-10037436D02*
X2160539Y-10018389D01*
X2160539Y-10018389D02*
X2151015Y-9980293D01*
X2151015Y-9980293D02*
X2151015Y-9932674D01*
X2151015Y-9932674D02*
X2160539Y-9894579D01*
X2160539Y-9894579D02*
X2170063Y-9875531D01*
X2170063Y-9875531D02*
X2179587Y-9866008D01*
X2179587Y-9866008D02*
X2198634Y-9856484D01*
X2351015Y-10037436D02*
X2360539Y-10046960D01*
X2360539Y-10046960D02*
X2351015Y-10056484D01*
X2351015Y-10056484D02*
X2341491Y-10046960D01*
X2341491Y-10046960D02*
X2351015Y-10037436D01*
X2351015Y-10037436D02*
X2351015Y-10056484D01*
X2484348Y-9856484D02*
X2503396Y-9856484D01*
X2503396Y-9856484D02*
X2522444Y-9866008D01*
X2522444Y-9866008D02*
X2531968Y-9875531D01*
X2531968Y-9875531D02*
X2541491Y-9894579D01*
X2541491Y-9894579D02*
X2551015Y-9932674D01*
X2551015Y-9932674D02*
X2551015Y-9980293D01*
X2551015Y-9980293D02*
X2541491Y-10018389D01*
X2541491Y-10018389D02*
X2531968Y-10037436D01*
X2531968Y-10037436D02*
X2522444Y-10046960D01*
X2522444Y-10046960D02*
X2503396Y-10056484D01*
X2503396Y-10056484D02*
X2484348Y-10056484D01*
X2484348Y-10056484D02*
X2465301Y-10046960D01*
X2465301Y-10046960D02*
X2455777Y-10037436D01*
X2455777Y-10037436D02*
X2446253Y-10018389D01*
X2446253Y-10018389D02*
X2436729Y-9980293D01*
X2436729Y-9980293D02*
X2436729Y-9932674D01*
X2436729Y-9932674D02*
X2446253Y-9894579D01*
X2446253Y-9894579D02*
X2455777Y-9875531D01*
X2455777Y-9875531D02*
X2465301Y-9866008D01*
X2465301Y-9866008D02*
X2484348Y-9856484D01*
X2731968Y-9856484D02*
X2636729Y-9856484D01*
X2636729Y-9856484D02*
X2627206Y-9951722D01*
X2627206Y-9951722D02*
X2636729Y-9942198D01*
X2636729Y-9942198D02*
X2655777Y-9932674D01*
X2655777Y-9932674D02*
X2703396Y-9932674D01*
X2703396Y-9932674D02*
X2722444Y-9942198D01*
X2722444Y-9942198D02*
X2731968Y-9951722D01*
X2731968Y-9951722D02*
X2741491Y-9970770D01*
X2741491Y-9970770D02*
X2741491Y-10018389D01*
X2741491Y-10018389D02*
X2731968Y-10037436D01*
X2731968Y-10037436D02*
X2722444Y-10046960D01*
X2722444Y-10046960D02*
X2703396Y-10056484D01*
X2703396Y-10056484D02*
X2655777Y-10056484D01*
X2655777Y-10056484D02*
X2636729Y-10046960D01*
X2636729Y-10046960D02*
X2627206Y-10037436D01*
X2836729Y-10056484D02*
X2874825Y-10056484D01*
X2874825Y-10056484D02*
X2893872Y-10046960D01*
X2893872Y-10046960D02*
X2903396Y-10037436D01*
X2903396Y-10037436D02*
X2922444Y-10008865D01*
X2922444Y-10008865D02*
X2931967Y-9970770D01*
X2931967Y-9970770D02*
X2931967Y-9894579D01*
X2931967Y-9894579D02*
X2922444Y-9875531D01*
X2922444Y-9875531D02*
X2912920Y-9866008D01*
X2912920Y-9866008D02*
X2893872Y-9856484D01*
X2893872Y-9856484D02*
X2855777Y-9856484D01*
X2855777Y-9856484D02*
X2836729Y-9866008D01*
X2836729Y-9866008D02*
X2827206Y-9875531D01*
X2827206Y-9875531D02*
X2817682Y-9894579D01*
X2817682Y-9894579D02*
X2817682Y-9942198D01*
X2817682Y-9942198D02*
X2827206Y-9961246D01*
X2827206Y-9961246D02*
X2836729Y-9970770D01*
X2836729Y-9970770D02*
X2855777Y-9980293D01*
X2855777Y-9980293D02*
X2893872Y-9980293D01*
X2893872Y-9980293D02*
X2912920Y-9970770D01*
X2912920Y-9970770D02*
X2922444Y-9961246D01*
X2922444Y-9961246D02*
X2931967Y-9942198D01*
X3122444Y-10056484D02*
X3008158Y-10056484D01*
X3065301Y-10056484D02*
X3065301Y-9856484D01*
X3065301Y-9856484D02*
X3046253Y-9885055D01*
X3046253Y-9885055D02*
X3027206Y-9904103D01*
X3027206Y-9904103D02*
X3008158Y-9913627D01*
X3198634Y-9856484D02*
X3198634Y-9894579D01*
X3274825Y-9856484D02*
X3274825Y-9894579D01*
X3570063Y-10132674D02*
X3560539Y-10123150D01*
X3560539Y-10123150D02*
X3541491Y-10094579D01*
X3541491Y-10094579D02*
X3531968Y-10075531D01*
X3531968Y-10075531D02*
X3522444Y-10046960D01*
X3522444Y-10046960D02*
X3512920Y-9999341D01*
X3512920Y-9999341D02*
X3512920Y-9961246D01*
X3512920Y-9961246D02*
X3522444Y-9913627D01*
X3522444Y-9913627D02*
X3531968Y-9885055D01*
X3531968Y-9885055D02*
X3541491Y-9866008D01*
X3541491Y-9866008D02*
X3560539Y-9837436D01*
X3560539Y-9837436D02*
X3570063Y-9827912D01*
X3636729Y-9875531D02*
X3646253Y-9866008D01*
X3646253Y-9866008D02*
X3665301Y-9856484D01*
X3665301Y-9856484D02*
X3712920Y-9856484D01*
X3712920Y-9856484D02*
X3731968Y-9866008D01*
X3731968Y-9866008D02*
X3741491Y-9875531D01*
X3741491Y-9875531D02*
X3751015Y-9894579D01*
X3751015Y-9894579D02*
X3751015Y-9913627D01*
X3751015Y-9913627D02*
X3741491Y-9942198D01*
X3741491Y-9942198D02*
X3627206Y-10056484D01*
X3627206Y-10056484D02*
X3751015Y-10056484D01*
X3922444Y-9923150D02*
X3922444Y-10056484D01*
X3874825Y-9846960D02*
X3827206Y-9989817D01*
X3827206Y-9989817D02*
X3951015Y-9989817D01*
X4179587Y-10056484D02*
X4179587Y-9856484D01*
X4265301Y-10056484D02*
X4265301Y-9951722D01*
X4265301Y-9951722D02*
X4255777Y-9932674D01*
X4255777Y-9932674D02*
X4236730Y-9923150D01*
X4236730Y-9923150D02*
X4208158Y-9923150D01*
X4208158Y-9923150D02*
X4189110Y-9932674D01*
X4189110Y-9932674D02*
X4179587Y-9942198D01*
X4389111Y-10056484D02*
X4370063Y-10046960D01*
X4370063Y-10046960D02*
X4360539Y-10037436D01*
X4360539Y-10037436D02*
X4351015Y-10018389D01*
X4351015Y-10018389D02*
X4351015Y-9961246D01*
X4351015Y-9961246D02*
X4360539Y-9942198D01*
X4360539Y-9942198D02*
X4370063Y-9932674D01*
X4370063Y-9932674D02*
X4389111Y-9923150D01*
X4389111Y-9923150D02*
X4417682Y-9923150D01*
X4417682Y-9923150D02*
X4436730Y-9932674D01*
X4436730Y-9932674D02*
X4446253Y-9942198D01*
X4446253Y-9942198D02*
X4455777Y-9961246D01*
X4455777Y-9961246D02*
X4455777Y-10018389D01*
X4455777Y-10018389D02*
X4446253Y-10037436D01*
X4446253Y-10037436D02*
X4436730Y-10046960D01*
X4436730Y-10046960D02*
X4417682Y-10056484D01*
X4417682Y-10056484D02*
X4389111Y-10056484D01*
X4570063Y-10056484D02*
X4551015Y-10046960D01*
X4551015Y-10046960D02*
X4541492Y-10027912D01*
X4541492Y-10027912D02*
X4541492Y-9856484D01*
X4722444Y-10046960D02*
X4703396Y-10056484D01*
X4703396Y-10056484D02*
X4665301Y-10056484D01*
X4665301Y-10056484D02*
X4646253Y-10046960D01*
X4646253Y-10046960D02*
X4636730Y-10027912D01*
X4636730Y-10027912D02*
X4636730Y-9951722D01*
X4636730Y-9951722D02*
X4646253Y-9932674D01*
X4646253Y-9932674D02*
X4665301Y-9923150D01*
X4665301Y-9923150D02*
X4703396Y-9923150D01*
X4703396Y-9923150D02*
X4722444Y-9932674D01*
X4722444Y-9932674D02*
X4731968Y-9951722D01*
X4731968Y-9951722D02*
X4731968Y-9970770D01*
X4731968Y-9970770D02*
X4636730Y-9989817D01*
X4808158Y-10046960D02*
X4827206Y-10056484D01*
X4827206Y-10056484D02*
X4865301Y-10056484D01*
X4865301Y-10056484D02*
X4884349Y-10046960D01*
X4884349Y-10046960D02*
X4893873Y-10027912D01*
X4893873Y-10027912D02*
X4893873Y-10018389D01*
X4893873Y-10018389D02*
X4884349Y-9999341D01*
X4884349Y-9999341D02*
X4865301Y-9989817D01*
X4865301Y-9989817D02*
X4836730Y-9989817D01*
X4836730Y-9989817D02*
X4817682Y-9980293D01*
X4817682Y-9980293D02*
X4808158Y-9961246D01*
X4808158Y-9961246D02*
X4808158Y-9951722D01*
X4808158Y-9951722D02*
X4817682Y-9932674D01*
X4817682Y-9932674D02*
X4836730Y-9923150D01*
X4836730Y-9923150D02*
X4865301Y-9923150D01*
X4865301Y-9923150D02*
X4884349Y-9932674D01*
X4960539Y-10132674D02*
X4970063Y-10123150D01*
X4970063Y-10123150D02*
X4989111Y-10094579D01*
X4989111Y-10094579D02*
X4998634Y-10075531D01*
X4998634Y-10075531D02*
X5008158Y-10046960D01*
X5008158Y-10046960D02*
X5017682Y-9999341D01*
X5017682Y-9999341D02*
X5017682Y-9961246D01*
X5017682Y-9961246D02*
X5008158Y-9913627D01*
X5008158Y-9913627D02*
X4998634Y-9885055D01*
X4998634Y-9885055D02*
X4989111Y-9866008D01*
X4989111Y-9866008D02*
X4970063Y-9837436D01*
X4970063Y-9837436D02*
X4960539Y-9827912D01*
X-205000Y-10135000D02*
X-5000Y-10335000D01*
X-5000Y-10135000D02*
X-205000Y-10335000D01*
X-105000Y-10135000D02*
X-105000Y-10335000D01*
X-205000Y-10235000D02*
X-5000Y-10235000D01*
X246253Y-10145531D02*
X255777Y-10136008D01*
X255777Y-10136008D02*
X274824Y-10126484D01*
X274824Y-10126484D02*
X322444Y-10126484D01*
X322444Y-10126484D02*
X341491Y-10136008D01*
X341491Y-10136008D02*
X351015Y-10145531D01*
X351015Y-10145531D02*
X360539Y-10164579D01*
X360539Y-10164579D02*
X360539Y-10183627D01*
X360539Y-10183627D02*
X351015Y-10212198D01*
X351015Y-10212198D02*
X236729Y-10326484D01*
X236729Y-10326484D02*
X360539Y-10326484D01*
X446253Y-10307436D02*
X455777Y-10316960D01*
X455777Y-10316960D02*
X446253Y-10326484D01*
X446253Y-10326484D02*
X436729Y-10316960D01*
X436729Y-10316960D02*
X446253Y-10307436D01*
X446253Y-10307436D02*
X446253Y-10326484D01*
X579586Y-10126484D02*
X598634Y-10126484D01*
X598634Y-10126484D02*
X617682Y-10136008D01*
X617682Y-10136008D02*
X627205Y-10145531D01*
X627205Y-10145531D02*
X636729Y-10164579D01*
X636729Y-10164579D02*
X646253Y-10202674D01*
X646253Y-10202674D02*
X646253Y-10250293D01*
X646253Y-10250293D02*
X636729Y-10288389D01*
X636729Y-10288389D02*
X627205Y-10307436D01*
X627205Y-10307436D02*
X617682Y-10316960D01*
X617682Y-10316960D02*
X598634Y-10326484D01*
X598634Y-10326484D02*
X579586Y-10326484D01*
X579586Y-10326484D02*
X560539Y-10316960D01*
X560539Y-10316960D02*
X551015Y-10307436D01*
X551015Y-10307436D02*
X541491Y-10288389D01*
X541491Y-10288389D02*
X531967Y-10250293D01*
X531967Y-10250293D02*
X531967Y-10202674D01*
X531967Y-10202674D02*
X541491Y-10164579D01*
X541491Y-10164579D02*
X551015Y-10145531D01*
X551015Y-10145531D02*
X560539Y-10136008D01*
X560539Y-10136008D02*
X579586Y-10126484D01*
X770062Y-10126484D02*
X789110Y-10126484D01*
X789110Y-10126484D02*
X808158Y-10136008D01*
X808158Y-10136008D02*
X817682Y-10145531D01*
X817682Y-10145531D02*
X827205Y-10164579D01*
X827205Y-10164579D02*
X836729Y-10202674D01*
X836729Y-10202674D02*
X836729Y-10250293D01*
X836729Y-10250293D02*
X827205Y-10288389D01*
X827205Y-10288389D02*
X817682Y-10307436D01*
X817682Y-10307436D02*
X808158Y-10316960D01*
X808158Y-10316960D02*
X789110Y-10326484D01*
X789110Y-10326484D02*
X770062Y-10326484D01*
X770062Y-10326484D02*
X751015Y-10316960D01*
X751015Y-10316960D02*
X741491Y-10307436D01*
X741491Y-10307436D02*
X731967Y-10288389D01*
X731967Y-10288389D02*
X722443Y-10250293D01*
X722443Y-10250293D02*
X722443Y-10202674D01*
X722443Y-10202674D02*
X731967Y-10164579D01*
X731967Y-10164579D02*
X741491Y-10145531D01*
X741491Y-10145531D02*
X751015Y-10136008D01*
X751015Y-10136008D02*
X770062Y-10126484D01*
X960539Y-10126484D02*
X979586Y-10126484D01*
X979586Y-10126484D02*
X998634Y-10136008D01*
X998634Y-10136008D02*
X1008158Y-10145531D01*
X1008158Y-10145531D02*
X1017682Y-10164579D01*
X1017682Y-10164579D02*
X1027205Y-10202674D01*
X1027205Y-10202674D02*
X1027205Y-10250293D01*
X1027205Y-10250293D02*
X1017682Y-10288389D01*
X1017682Y-10288389D02*
X1008158Y-10307436D01*
X1008158Y-10307436D02*
X998634Y-10316960D01*
X998634Y-10316960D02*
X979586Y-10326484D01*
X979586Y-10326484D02*
X960539Y-10326484D01*
X960539Y-10326484D02*
X941491Y-10316960D01*
X941491Y-10316960D02*
X931967Y-10307436D01*
X931967Y-10307436D02*
X922443Y-10288389D01*
X922443Y-10288389D02*
X912920Y-10250293D01*
X912920Y-10250293D02*
X912920Y-10202674D01*
X912920Y-10202674D02*
X922443Y-10164579D01*
X922443Y-10164579D02*
X931967Y-10145531D01*
X931967Y-10145531D02*
X941491Y-10136008D01*
X941491Y-10136008D02*
X960539Y-10126484D01*
X1112920Y-10326484D02*
X1112920Y-10193150D01*
X1112920Y-10212198D02*
X1122444Y-10202674D01*
X1122444Y-10202674D02*
X1141491Y-10193150D01*
X1141491Y-10193150D02*
X1170063Y-10193150D01*
X1170063Y-10193150D02*
X1189110Y-10202674D01*
X1189110Y-10202674D02*
X1198634Y-10221722D01*
X1198634Y-10221722D02*
X1198634Y-10326484D01*
X1198634Y-10221722D02*
X1208158Y-10202674D01*
X1208158Y-10202674D02*
X1227205Y-10193150D01*
X1227205Y-10193150D02*
X1255777Y-10193150D01*
X1255777Y-10193150D02*
X1274825Y-10202674D01*
X1274825Y-10202674D02*
X1284348Y-10221722D01*
X1284348Y-10221722D02*
X1284348Y-10326484D01*
X1379586Y-10326484D02*
X1379586Y-10193150D01*
X1379586Y-10212198D02*
X1389110Y-10202674D01*
X1389110Y-10202674D02*
X1408158Y-10193150D01*
X1408158Y-10193150D02*
X1436729Y-10193150D01*
X1436729Y-10193150D02*
X1455777Y-10202674D01*
X1455777Y-10202674D02*
X1465301Y-10221722D01*
X1465301Y-10221722D02*
X1465301Y-10326484D01*
X1465301Y-10221722D02*
X1474824Y-10202674D01*
X1474824Y-10202674D02*
X1493872Y-10193150D01*
X1493872Y-10193150D02*
X1522443Y-10193150D01*
X1522443Y-10193150D02*
X1541491Y-10202674D01*
X1541491Y-10202674D02*
X1551015Y-10221722D01*
X1551015Y-10221722D02*
X1551015Y-10326484D01*
X1941491Y-10116960D02*
X1770063Y-10374103D01*
X2198634Y-10126484D02*
X2217682Y-10126484D01*
X2217682Y-10126484D02*
X2236729Y-10136008D01*
X2236729Y-10136008D02*
X2246253Y-10145531D01*
X2246253Y-10145531D02*
X2255777Y-10164579D01*
X2255777Y-10164579D02*
X2265301Y-10202674D01*
X2265301Y-10202674D02*
X2265301Y-10250293D01*
X2265301Y-10250293D02*
X2255777Y-10288389D01*
X2255777Y-10288389D02*
X2246253Y-10307436D01*
X2246253Y-10307436D02*
X2236729Y-10316960D01*
X2236729Y-10316960D02*
X2217682Y-10326484D01*
X2217682Y-10326484D02*
X2198634Y-10326484D01*
X2198634Y-10326484D02*
X2179587Y-10316960D01*
X2179587Y-10316960D02*
X2170063Y-10307436D01*
X2170063Y-10307436D02*
X2160539Y-10288389D01*
X2160539Y-10288389D02*
X2151015Y-10250293D01*
X2151015Y-10250293D02*
X2151015Y-10202674D01*
X2151015Y-10202674D02*
X2160539Y-10164579D01*
X2160539Y-10164579D02*
X2170063Y-10145531D01*
X2170063Y-10145531D02*
X2179587Y-10136008D01*
X2179587Y-10136008D02*
X2198634Y-10126484D01*
X2351015Y-10307436D02*
X2360539Y-10316960D01*
X2360539Y-10316960D02*
X2351015Y-10326484D01*
X2351015Y-10326484D02*
X2341491Y-10316960D01*
X2341491Y-10316960D02*
X2351015Y-10307436D01*
X2351015Y-10307436D02*
X2351015Y-10326484D01*
X2484348Y-10126484D02*
X2503396Y-10126484D01*
X2503396Y-10126484D02*
X2522444Y-10136008D01*
X2522444Y-10136008D02*
X2531968Y-10145531D01*
X2531968Y-10145531D02*
X2541491Y-10164579D01*
X2541491Y-10164579D02*
X2551015Y-10202674D01*
X2551015Y-10202674D02*
X2551015Y-10250293D01*
X2551015Y-10250293D02*
X2541491Y-10288389D01*
X2541491Y-10288389D02*
X2531968Y-10307436D01*
X2531968Y-10307436D02*
X2522444Y-10316960D01*
X2522444Y-10316960D02*
X2503396Y-10326484D01*
X2503396Y-10326484D02*
X2484348Y-10326484D01*
X2484348Y-10326484D02*
X2465301Y-10316960D01*
X2465301Y-10316960D02*
X2455777Y-10307436D01*
X2455777Y-10307436D02*
X2446253Y-10288389D01*
X2446253Y-10288389D02*
X2436729Y-10250293D01*
X2436729Y-10250293D02*
X2436729Y-10202674D01*
X2436729Y-10202674D02*
X2446253Y-10164579D01*
X2446253Y-10164579D02*
X2455777Y-10145531D01*
X2455777Y-10145531D02*
X2465301Y-10136008D01*
X2465301Y-10136008D02*
X2484348Y-10126484D01*
X2617682Y-10126484D02*
X2751015Y-10126484D01*
X2751015Y-10126484D02*
X2665301Y-10326484D01*
X2855777Y-10212198D02*
X2836729Y-10202674D01*
X2836729Y-10202674D02*
X2827206Y-10193150D01*
X2827206Y-10193150D02*
X2817682Y-10174103D01*
X2817682Y-10174103D02*
X2817682Y-10164579D01*
X2817682Y-10164579D02*
X2827206Y-10145531D01*
X2827206Y-10145531D02*
X2836729Y-10136008D01*
X2836729Y-10136008D02*
X2855777Y-10126484D01*
X2855777Y-10126484D02*
X2893872Y-10126484D01*
X2893872Y-10126484D02*
X2912920Y-10136008D01*
X2912920Y-10136008D02*
X2922444Y-10145531D01*
X2922444Y-10145531D02*
X2931967Y-10164579D01*
X2931967Y-10164579D02*
X2931967Y-10174103D01*
X2931967Y-10174103D02*
X2922444Y-10193150D01*
X2922444Y-10193150D02*
X2912920Y-10202674D01*
X2912920Y-10202674D02*
X2893872Y-10212198D01*
X2893872Y-10212198D02*
X2855777Y-10212198D01*
X2855777Y-10212198D02*
X2836729Y-10221722D01*
X2836729Y-10221722D02*
X2827206Y-10231246D01*
X2827206Y-10231246D02*
X2817682Y-10250293D01*
X2817682Y-10250293D02*
X2817682Y-10288389D01*
X2817682Y-10288389D02*
X2827206Y-10307436D01*
X2827206Y-10307436D02*
X2836729Y-10316960D01*
X2836729Y-10316960D02*
X2855777Y-10326484D01*
X2855777Y-10326484D02*
X2893872Y-10326484D01*
X2893872Y-10326484D02*
X2912920Y-10316960D01*
X2912920Y-10316960D02*
X2922444Y-10307436D01*
X2922444Y-10307436D02*
X2931967Y-10288389D01*
X2931967Y-10288389D02*
X2931967Y-10250293D01*
X2931967Y-10250293D02*
X2922444Y-10231246D01*
X2922444Y-10231246D02*
X2912920Y-10221722D01*
X2912920Y-10221722D02*
X2893872Y-10212198D01*
X2998634Y-10126484D02*
X3131967Y-10126484D01*
X3131967Y-10126484D02*
X3046253Y-10326484D01*
X3198634Y-10126484D02*
X3198634Y-10164579D01*
X3274825Y-10126484D02*
X3274825Y-10164579D01*
X3570063Y-10402674D02*
X3560539Y-10393150D01*
X3560539Y-10393150D02*
X3541491Y-10364579D01*
X3541491Y-10364579D02*
X3531968Y-10345531D01*
X3531968Y-10345531D02*
X3522444Y-10316960D01*
X3522444Y-10316960D02*
X3512920Y-10269341D01*
X3512920Y-10269341D02*
X3512920Y-10231246D01*
X3512920Y-10231246D02*
X3522444Y-10183627D01*
X3522444Y-10183627D02*
X3531968Y-10155055D01*
X3531968Y-10155055D02*
X3541491Y-10136008D01*
X3541491Y-10136008D02*
X3560539Y-10107436D01*
X3560539Y-10107436D02*
X3570063Y-10097912D01*
X3674825Y-10212198D02*
X3655777Y-10202674D01*
X3655777Y-10202674D02*
X3646253Y-10193150D01*
X3646253Y-10193150D02*
X3636729Y-10174103D01*
X3636729Y-10174103D02*
X3636729Y-10164579D01*
X3636729Y-10164579D02*
X3646253Y-10145531D01*
X3646253Y-10145531D02*
X3655777Y-10136008D01*
X3655777Y-10136008D02*
X3674825Y-10126484D01*
X3674825Y-10126484D02*
X3712920Y-10126484D01*
X3712920Y-10126484D02*
X3731968Y-10136008D01*
X3731968Y-10136008D02*
X3741491Y-10145531D01*
X3741491Y-10145531D02*
X3751015Y-10164579D01*
X3751015Y-10164579D02*
X3751015Y-10174103D01*
X3751015Y-10174103D02*
X3741491Y-10193150D01*
X3741491Y-10193150D02*
X3731968Y-10202674D01*
X3731968Y-10202674D02*
X3712920Y-10212198D01*
X3712920Y-10212198D02*
X3674825Y-10212198D01*
X3674825Y-10212198D02*
X3655777Y-10221722D01*
X3655777Y-10221722D02*
X3646253Y-10231246D01*
X3646253Y-10231246D02*
X3636729Y-10250293D01*
X3636729Y-10250293D02*
X3636729Y-10288389D01*
X3636729Y-10288389D02*
X3646253Y-10307436D01*
X3646253Y-10307436D02*
X3655777Y-10316960D01*
X3655777Y-10316960D02*
X3674825Y-10326484D01*
X3674825Y-10326484D02*
X3712920Y-10326484D01*
X3712920Y-10326484D02*
X3731968Y-10316960D01*
X3731968Y-10316960D02*
X3741491Y-10307436D01*
X3741491Y-10307436D02*
X3751015Y-10288389D01*
X3751015Y-10288389D02*
X3751015Y-10250293D01*
X3751015Y-10250293D02*
X3741491Y-10231246D01*
X3741491Y-10231246D02*
X3731968Y-10221722D01*
X3731968Y-10221722D02*
X3712920Y-10212198D01*
X3989110Y-10326484D02*
X3989110Y-10126484D01*
X4074825Y-10326484D02*
X4074825Y-10221722D01*
X4074825Y-10221722D02*
X4065301Y-10202674D01*
X4065301Y-10202674D02*
X4046253Y-10193150D01*
X4046253Y-10193150D02*
X4017682Y-10193150D01*
X4017682Y-10193150D02*
X3998634Y-10202674D01*
X3998634Y-10202674D02*
X3989110Y-10212198D01*
X4198634Y-10326484D02*
X4179587Y-10316960D01*
X4179587Y-10316960D02*
X4170063Y-10307436D01*
X4170063Y-10307436D02*
X4160539Y-10288389D01*
X4160539Y-10288389D02*
X4160539Y-10231246D01*
X4160539Y-10231246D02*
X4170063Y-10212198D01*
X4170063Y-10212198D02*
X4179587Y-10202674D01*
X4179587Y-10202674D02*
X4198634Y-10193150D01*
X4198634Y-10193150D02*
X4227206Y-10193150D01*
X4227206Y-10193150D02*
X4246253Y-10202674D01*
X4246253Y-10202674D02*
X4255777Y-10212198D01*
X4255777Y-10212198D02*
X4265301Y-10231246D01*
X4265301Y-10231246D02*
X4265301Y-10288389D01*
X4265301Y-10288389D02*
X4255777Y-10307436D01*
X4255777Y-10307436D02*
X4246253Y-10316960D01*
X4246253Y-10316960D02*
X4227206Y-10326484D01*
X4227206Y-10326484D02*
X4198634Y-10326484D01*
X4379587Y-10326484D02*
X4360539Y-10316960D01*
X4360539Y-10316960D02*
X4351015Y-10297912D01*
X4351015Y-10297912D02*
X4351015Y-10126484D01*
X4531968Y-10316960D02*
X4512920Y-10326484D01*
X4512920Y-10326484D02*
X4474825Y-10326484D01*
X4474825Y-10326484D02*
X4455777Y-10316960D01*
X4455777Y-10316960D02*
X4446253Y-10297912D01*
X4446253Y-10297912D02*
X4446253Y-10221722D01*
X4446253Y-10221722D02*
X4455777Y-10202674D01*
X4455777Y-10202674D02*
X4474825Y-10193150D01*
X4474825Y-10193150D02*
X4512920Y-10193150D01*
X4512920Y-10193150D02*
X4531968Y-10202674D01*
X4531968Y-10202674D02*
X4541492Y-10221722D01*
X4541492Y-10221722D02*
X4541492Y-10240770D01*
X4541492Y-10240770D02*
X4446253Y-10259817D01*
X4617682Y-10316960D02*
X4636730Y-10326484D01*
X4636730Y-10326484D02*
X4674825Y-10326484D01*
X4674825Y-10326484D02*
X4693873Y-10316960D01*
X4693873Y-10316960D02*
X4703396Y-10297912D01*
X4703396Y-10297912D02*
X4703396Y-10288389D01*
X4703396Y-10288389D02*
X4693873Y-10269341D01*
X4693873Y-10269341D02*
X4674825Y-10259817D01*
X4674825Y-10259817D02*
X4646253Y-10259817D01*
X4646253Y-10259817D02*
X4627206Y-10250293D01*
X4627206Y-10250293D02*
X4617682Y-10231246D01*
X4617682Y-10231246D02*
X4617682Y-10221722D01*
X4617682Y-10221722D02*
X4627206Y-10202674D01*
X4627206Y-10202674D02*
X4646253Y-10193150D01*
X4646253Y-10193150D02*
X4674825Y-10193150D01*
X4674825Y-10193150D02*
X4693873Y-10202674D01*
X4770063Y-10402674D02*
X4779587Y-10393150D01*
X4779587Y-10393150D02*
X4798634Y-10364579D01*
X4798634Y-10364579D02*
X4808158Y-10345531D01*
X4808158Y-10345531D02*
X4817682Y-10316960D01*
X4817682Y-10316960D02*
X4827206Y-10269341D01*
X4827206Y-10269341D02*
X4827206Y-10231246D01*
X4827206Y-10231246D02*
X4817682Y-10183627D01*
X4817682Y-10183627D02*
X4808158Y-10155055D01*
X4808158Y-10155055D02*
X4798634Y-10136008D01*
X4798634Y-10136008D02*
X4779587Y-10107436D01*
X4779587Y-10107436D02*
X4770063Y-10097912D01*
X5131968Y-10402674D02*
X5122444Y-10393150D01*
X5122444Y-10393150D02*
X5103396Y-10364579D01*
X5103396Y-10364579D02*
X5093873Y-10345531D01*
X5093873Y-10345531D02*
X5084349Y-10316960D01*
X5084349Y-10316960D02*
X5074825Y-10269341D01*
X5074825Y-10269341D02*
X5074825Y-10231246D01*
X5074825Y-10231246D02*
X5084349Y-10183627D01*
X5084349Y-10183627D02*
X5093873Y-10155055D01*
X5093873Y-10155055D02*
X5103396Y-10136008D01*
X5103396Y-10136008D02*
X5122444Y-10107436D01*
X5122444Y-10107436D02*
X5131968Y-10097912D01*
X5208158Y-10193150D02*
X5208158Y-10326484D01*
X5208158Y-10212198D02*
X5217682Y-10202674D01*
X5217682Y-10202674D02*
X5236730Y-10193150D01*
X5236730Y-10193150D02*
X5265301Y-10193150D01*
X5265301Y-10193150D02*
X5284349Y-10202674D01*
X5284349Y-10202674D02*
X5293873Y-10221722D01*
X5293873Y-10221722D02*
X5293873Y-10326484D01*
X5417682Y-10326484D02*
X5398634Y-10316960D01*
X5398634Y-10316960D02*
X5389111Y-10307436D01*
X5389111Y-10307436D02*
X5379587Y-10288389D01*
X5379587Y-10288389D02*
X5379587Y-10231246D01*
X5379587Y-10231246D02*
X5389111Y-10212198D01*
X5389111Y-10212198D02*
X5398634Y-10202674D01*
X5398634Y-10202674D02*
X5417682Y-10193150D01*
X5417682Y-10193150D02*
X5446254Y-10193150D01*
X5446254Y-10193150D02*
X5465301Y-10202674D01*
X5465301Y-10202674D02*
X5474825Y-10212198D01*
X5474825Y-10212198D02*
X5484349Y-10231246D01*
X5484349Y-10231246D02*
X5484349Y-10288389D01*
X5484349Y-10288389D02*
X5474825Y-10307436D01*
X5474825Y-10307436D02*
X5465301Y-10316960D01*
X5465301Y-10316960D02*
X5446254Y-10326484D01*
X5446254Y-10326484D02*
X5417682Y-10326484D01*
X5541492Y-10193150D02*
X5617682Y-10193150D01*
X5570063Y-10126484D02*
X5570063Y-10297912D01*
X5570063Y-10297912D02*
X5579587Y-10316960D01*
X5579587Y-10316960D02*
X5598634Y-10326484D01*
X5598634Y-10326484D02*
X5617682Y-10326484D01*
X5836730Y-10193150D02*
X5836730Y-10393150D01*
X5836730Y-10202674D02*
X5855777Y-10193150D01*
X5855777Y-10193150D02*
X5893873Y-10193150D01*
X5893873Y-10193150D02*
X5912920Y-10202674D01*
X5912920Y-10202674D02*
X5922444Y-10212198D01*
X5922444Y-10212198D02*
X5931968Y-10231246D01*
X5931968Y-10231246D02*
X5931968Y-10288389D01*
X5931968Y-10288389D02*
X5922444Y-10307436D01*
X5922444Y-10307436D02*
X5912920Y-10316960D01*
X5912920Y-10316960D02*
X5893873Y-10326484D01*
X5893873Y-10326484D02*
X5855777Y-10326484D01*
X5855777Y-10326484D02*
X5836730Y-10316960D01*
X6046253Y-10326484D02*
X6027206Y-10316960D01*
X6027206Y-10316960D02*
X6017682Y-10297912D01*
X6017682Y-10297912D02*
X6017682Y-10126484D01*
X6208158Y-10326484D02*
X6208158Y-10221722D01*
X6208158Y-10221722D02*
X6198634Y-10202674D01*
X6198634Y-10202674D02*
X6179587Y-10193150D01*
X6179587Y-10193150D02*
X6141492Y-10193150D01*
X6141492Y-10193150D02*
X6122444Y-10202674D01*
X6208158Y-10316960D02*
X6189111Y-10326484D01*
X6189111Y-10326484D02*
X6141492Y-10326484D01*
X6141492Y-10326484D02*
X6122444Y-10316960D01*
X6122444Y-10316960D02*
X6112920Y-10297912D01*
X6112920Y-10297912D02*
X6112920Y-10278865D01*
X6112920Y-10278865D02*
X6122444Y-10259817D01*
X6122444Y-10259817D02*
X6141492Y-10250293D01*
X6141492Y-10250293D02*
X6189111Y-10250293D01*
X6189111Y-10250293D02*
X6208158Y-10240770D01*
X6274825Y-10193150D02*
X6351015Y-10193150D01*
X6303396Y-10126484D02*
X6303396Y-10297912D01*
X6303396Y-10297912D02*
X6312920Y-10316960D01*
X6312920Y-10316960D02*
X6331968Y-10326484D01*
X6331968Y-10326484D02*
X6351015Y-10326484D01*
X6493873Y-10316960D02*
X6474825Y-10326484D01*
X6474825Y-10326484D02*
X6436730Y-10326484D01*
X6436730Y-10326484D02*
X6417682Y-10316960D01*
X6417682Y-10316960D02*
X6408158Y-10297912D01*
X6408158Y-10297912D02*
X6408158Y-10221722D01*
X6408158Y-10221722D02*
X6417682Y-10202674D01*
X6417682Y-10202674D02*
X6436730Y-10193150D01*
X6436730Y-10193150D02*
X6474825Y-10193150D01*
X6474825Y-10193150D02*
X6493873Y-10202674D01*
X6493873Y-10202674D02*
X6503396Y-10221722D01*
X6503396Y-10221722D02*
X6503396Y-10240770D01*
X6503396Y-10240770D02*
X6408158Y-10259817D01*
X6674825Y-10326484D02*
X6674825Y-10126484D01*
X6674825Y-10316960D02*
X6655777Y-10326484D01*
X6655777Y-10326484D02*
X6617682Y-10326484D01*
X6617682Y-10326484D02*
X6598634Y-10316960D01*
X6598634Y-10316960D02*
X6589111Y-10307436D01*
X6589111Y-10307436D02*
X6579587Y-10288389D01*
X6579587Y-10288389D02*
X6579587Y-10231246D01*
X6579587Y-10231246D02*
X6589111Y-10212198D01*
X6589111Y-10212198D02*
X6598634Y-10202674D01*
X6598634Y-10202674D02*
X6617682Y-10193150D01*
X6617682Y-10193150D02*
X6655777Y-10193150D01*
X6655777Y-10193150D02*
X6674825Y-10202674D01*
X6751015Y-10402674D02*
X6760539Y-10393150D01*
X6760539Y-10393150D02*
X6779587Y-10364579D01*
X6779587Y-10364579D02*
X6789111Y-10345531D01*
X6789111Y-10345531D02*
X6798634Y-10316960D01*
X6798634Y-10316960D02*
X6808158Y-10269341D01*
X6808158Y-10269341D02*
X6808158Y-10231246D01*
X6808158Y-10231246D02*
X6798634Y-10183627D01*
X6798634Y-10183627D02*
X6789111Y-10155055D01*
X6789111Y-10155055D02*
X6779587Y-10136008D01*
X6779587Y-10136008D02*
X6760539Y-10107436D01*
X6760539Y-10107436D02*
X6751015Y-10097912D01*
X-205000Y-10455000D02*
X-5000Y-10655000D01*
X-5000Y-10455000D02*
X-205000Y-10655000D01*
X-34289Y-10625711D02*
X-34289Y-10484289D01*
X-175711Y-10484289D01*
X-175711Y-10625711D01*
X-34289Y-10625711D01*
X236729Y-10446484D02*
X360539Y-10446484D01*
X360539Y-10446484D02*
X293872Y-10522674D01*
X293872Y-10522674D02*
X322444Y-10522674D01*
X322444Y-10522674D02*
X341491Y-10532198D01*
X341491Y-10532198D02*
X351015Y-10541722D01*
X351015Y-10541722D02*
X360539Y-10560770D01*
X360539Y-10560770D02*
X360539Y-10608389D01*
X360539Y-10608389D02*
X351015Y-10627436D01*
X351015Y-10627436D02*
X341491Y-10636960D01*
X341491Y-10636960D02*
X322444Y-10646484D01*
X322444Y-10646484D02*
X265301Y-10646484D01*
X265301Y-10646484D02*
X246253Y-10636960D01*
X246253Y-10636960D02*
X236729Y-10627436D01*
X446253Y-10627436D02*
X455777Y-10636960D01*
X455777Y-10636960D02*
X446253Y-10646484D01*
X446253Y-10646484D02*
X436729Y-10636960D01*
X436729Y-10636960D02*
X446253Y-10627436D01*
X446253Y-10627436D02*
X446253Y-10646484D01*
X579586Y-10446484D02*
X598634Y-10446484D01*
X598634Y-10446484D02*
X617682Y-10456008D01*
X617682Y-10456008D02*
X627205Y-10465531D01*
X627205Y-10465531D02*
X636729Y-10484579D01*
X636729Y-10484579D02*
X646253Y-10522674D01*
X646253Y-10522674D02*
X646253Y-10570293D01*
X646253Y-10570293D02*
X636729Y-10608389D01*
X636729Y-10608389D02*
X627205Y-10627436D01*
X627205Y-10627436D02*
X617682Y-10636960D01*
X617682Y-10636960D02*
X598634Y-10646484D01*
X598634Y-10646484D02*
X579586Y-10646484D01*
X579586Y-10646484D02*
X560539Y-10636960D01*
X560539Y-10636960D02*
X551015Y-10627436D01*
X551015Y-10627436D02*
X541491Y-10608389D01*
X541491Y-10608389D02*
X531967Y-10570293D01*
X531967Y-10570293D02*
X531967Y-10522674D01*
X531967Y-10522674D02*
X541491Y-10484579D01*
X541491Y-10484579D02*
X551015Y-10465531D01*
X551015Y-10465531D02*
X560539Y-10456008D01*
X560539Y-10456008D02*
X579586Y-10446484D01*
X770062Y-10446484D02*
X789110Y-10446484D01*
X789110Y-10446484D02*
X808158Y-10456008D01*
X808158Y-10456008D02*
X817682Y-10465531D01*
X817682Y-10465531D02*
X827205Y-10484579D01*
X827205Y-10484579D02*
X836729Y-10522674D01*
X836729Y-10522674D02*
X836729Y-10570293D01*
X836729Y-10570293D02*
X827205Y-10608389D01*
X827205Y-10608389D02*
X817682Y-10627436D01*
X817682Y-10627436D02*
X808158Y-10636960D01*
X808158Y-10636960D02*
X789110Y-10646484D01*
X789110Y-10646484D02*
X770062Y-10646484D01*
X770062Y-10646484D02*
X751015Y-10636960D01*
X751015Y-10636960D02*
X741491Y-10627436D01*
X741491Y-10627436D02*
X731967Y-10608389D01*
X731967Y-10608389D02*
X722443Y-10570293D01*
X722443Y-10570293D02*
X722443Y-10522674D01*
X722443Y-10522674D02*
X731967Y-10484579D01*
X731967Y-10484579D02*
X741491Y-10465531D01*
X741491Y-10465531D02*
X751015Y-10456008D01*
X751015Y-10456008D02*
X770062Y-10446484D01*
X960539Y-10446484D02*
X979586Y-10446484D01*
X979586Y-10446484D02*
X998634Y-10456008D01*
X998634Y-10456008D02*
X1008158Y-10465531D01*
X1008158Y-10465531D02*
X1017682Y-10484579D01*
X1017682Y-10484579D02*
X1027205Y-10522674D01*
X1027205Y-10522674D02*
X1027205Y-10570293D01*
X1027205Y-10570293D02*
X1017682Y-10608389D01*
X1017682Y-10608389D02*
X1008158Y-10627436D01*
X1008158Y-10627436D02*
X998634Y-10636960D01*
X998634Y-10636960D02*
X979586Y-10646484D01*
X979586Y-10646484D02*
X960539Y-10646484D01*
X960539Y-10646484D02*
X941491Y-10636960D01*
X941491Y-10636960D02*
X931967Y-10627436D01*
X931967Y-10627436D02*
X922443Y-10608389D01*
X922443Y-10608389D02*
X912920Y-10570293D01*
X912920Y-10570293D02*
X912920Y-10522674D01*
X912920Y-10522674D02*
X922443Y-10484579D01*
X922443Y-10484579D02*
X931967Y-10465531D01*
X931967Y-10465531D02*
X941491Y-10456008D01*
X941491Y-10456008D02*
X960539Y-10446484D01*
X1112920Y-10646484D02*
X1112920Y-10513150D01*
X1112920Y-10532198D02*
X1122444Y-10522674D01*
X1122444Y-10522674D02*
X1141491Y-10513150D01*
X1141491Y-10513150D02*
X1170063Y-10513150D01*
X1170063Y-10513150D02*
X1189110Y-10522674D01*
X1189110Y-10522674D02*
X1198634Y-10541722D01*
X1198634Y-10541722D02*
X1198634Y-10646484D01*
X1198634Y-10541722D02*
X1208158Y-10522674D01*
X1208158Y-10522674D02*
X1227205Y-10513150D01*
X1227205Y-10513150D02*
X1255777Y-10513150D01*
X1255777Y-10513150D02*
X1274825Y-10522674D01*
X1274825Y-10522674D02*
X1284348Y-10541722D01*
X1284348Y-10541722D02*
X1284348Y-10646484D01*
X1379586Y-10646484D02*
X1379586Y-10513150D01*
X1379586Y-10532198D02*
X1389110Y-10522674D01*
X1389110Y-10522674D02*
X1408158Y-10513150D01*
X1408158Y-10513150D02*
X1436729Y-10513150D01*
X1436729Y-10513150D02*
X1455777Y-10522674D01*
X1455777Y-10522674D02*
X1465301Y-10541722D01*
X1465301Y-10541722D02*
X1465301Y-10646484D01*
X1465301Y-10541722D02*
X1474824Y-10522674D01*
X1474824Y-10522674D02*
X1493872Y-10513150D01*
X1493872Y-10513150D02*
X1522443Y-10513150D01*
X1522443Y-10513150D02*
X1541491Y-10522674D01*
X1541491Y-10522674D02*
X1551015Y-10541722D01*
X1551015Y-10541722D02*
X1551015Y-10646484D01*
X1941491Y-10436960D02*
X1770063Y-10694103D01*
X2198634Y-10446484D02*
X2217682Y-10446484D01*
X2217682Y-10446484D02*
X2236729Y-10456008D01*
X2236729Y-10456008D02*
X2246253Y-10465531D01*
X2246253Y-10465531D02*
X2255777Y-10484579D01*
X2255777Y-10484579D02*
X2265301Y-10522674D01*
X2265301Y-10522674D02*
X2265301Y-10570293D01*
X2265301Y-10570293D02*
X2255777Y-10608389D01*
X2255777Y-10608389D02*
X2246253Y-10627436D01*
X2246253Y-10627436D02*
X2236729Y-10636960D01*
X2236729Y-10636960D02*
X2217682Y-10646484D01*
X2217682Y-10646484D02*
X2198634Y-10646484D01*
X2198634Y-10646484D02*
X2179587Y-10636960D01*
X2179587Y-10636960D02*
X2170063Y-10627436D01*
X2170063Y-10627436D02*
X2160539Y-10608389D01*
X2160539Y-10608389D02*
X2151015Y-10570293D01*
X2151015Y-10570293D02*
X2151015Y-10522674D01*
X2151015Y-10522674D02*
X2160539Y-10484579D01*
X2160539Y-10484579D02*
X2170063Y-10465531D01*
X2170063Y-10465531D02*
X2179587Y-10456008D01*
X2179587Y-10456008D02*
X2198634Y-10446484D01*
X2351015Y-10627436D02*
X2360539Y-10636960D01*
X2360539Y-10636960D02*
X2351015Y-10646484D01*
X2351015Y-10646484D02*
X2341491Y-10636960D01*
X2341491Y-10636960D02*
X2351015Y-10627436D01*
X2351015Y-10627436D02*
X2351015Y-10646484D01*
X2551015Y-10646484D02*
X2436729Y-10646484D01*
X2493872Y-10646484D02*
X2493872Y-10446484D01*
X2493872Y-10446484D02*
X2474825Y-10475055D01*
X2474825Y-10475055D02*
X2455777Y-10494103D01*
X2455777Y-10494103D02*
X2436729Y-10503627D01*
X2741491Y-10646484D02*
X2627206Y-10646484D01*
X2684348Y-10646484D02*
X2684348Y-10446484D01*
X2684348Y-10446484D02*
X2665301Y-10475055D01*
X2665301Y-10475055D02*
X2646253Y-10494103D01*
X2646253Y-10494103D02*
X2627206Y-10503627D01*
X2855777Y-10532198D02*
X2836729Y-10522674D01*
X2836729Y-10522674D02*
X2827206Y-10513150D01*
X2827206Y-10513150D02*
X2817682Y-10494103D01*
X2817682Y-10494103D02*
X2817682Y-10484579D01*
X2817682Y-10484579D02*
X2827206Y-10465531D01*
X2827206Y-10465531D02*
X2836729Y-10456008D01*
X2836729Y-10456008D02*
X2855777Y-10446484D01*
X2855777Y-10446484D02*
X2893872Y-10446484D01*
X2893872Y-10446484D02*
X2912920Y-10456008D01*
X2912920Y-10456008D02*
X2922444Y-10465531D01*
X2922444Y-10465531D02*
X2931967Y-10484579D01*
X2931967Y-10484579D02*
X2931967Y-10494103D01*
X2931967Y-10494103D02*
X2922444Y-10513150D01*
X2922444Y-10513150D02*
X2912920Y-10522674D01*
X2912920Y-10522674D02*
X2893872Y-10532198D01*
X2893872Y-10532198D02*
X2855777Y-10532198D01*
X2855777Y-10532198D02*
X2836729Y-10541722D01*
X2836729Y-10541722D02*
X2827206Y-10551246D01*
X2827206Y-10551246D02*
X2817682Y-10570293D01*
X2817682Y-10570293D02*
X2817682Y-10608389D01*
X2817682Y-10608389D02*
X2827206Y-10627436D01*
X2827206Y-10627436D02*
X2836729Y-10636960D01*
X2836729Y-10636960D02*
X2855777Y-10646484D01*
X2855777Y-10646484D02*
X2893872Y-10646484D01*
X2893872Y-10646484D02*
X2912920Y-10636960D01*
X2912920Y-10636960D02*
X2922444Y-10627436D01*
X2922444Y-10627436D02*
X2931967Y-10608389D01*
X2931967Y-10608389D02*
X2931967Y-10570293D01*
X2931967Y-10570293D02*
X2922444Y-10551246D01*
X2922444Y-10551246D02*
X2912920Y-10541722D01*
X2912920Y-10541722D02*
X2893872Y-10532198D01*
X3122444Y-10646484D02*
X3008158Y-10646484D01*
X3065301Y-10646484D02*
X3065301Y-10446484D01*
X3065301Y-10446484D02*
X3046253Y-10475055D01*
X3046253Y-10475055D02*
X3027206Y-10494103D01*
X3027206Y-10494103D02*
X3008158Y-10503627D01*
X3198634Y-10446484D02*
X3198634Y-10484579D01*
X3274825Y-10446484D02*
X3274825Y-10484579D01*
X3570063Y-10722674D02*
X3560539Y-10713150D01*
X3560539Y-10713150D02*
X3541491Y-10684579D01*
X3541491Y-10684579D02*
X3531968Y-10665531D01*
X3531968Y-10665531D02*
X3522444Y-10636960D01*
X3522444Y-10636960D02*
X3512920Y-10589341D01*
X3512920Y-10589341D02*
X3512920Y-10551246D01*
X3512920Y-10551246D02*
X3522444Y-10503627D01*
X3522444Y-10503627D02*
X3531968Y-10475055D01*
X3531968Y-10475055D02*
X3541491Y-10456008D01*
X3541491Y-10456008D02*
X3560539Y-10427436D01*
X3560539Y-10427436D02*
X3570063Y-10417912D01*
X3731968Y-10513150D02*
X3731968Y-10646484D01*
X3684348Y-10436960D02*
X3636729Y-10579817D01*
X3636729Y-10579817D02*
X3760539Y-10579817D01*
X3989110Y-10646484D02*
X3989110Y-10446484D01*
X4074825Y-10646484D02*
X4074825Y-10541722D01*
X4074825Y-10541722D02*
X4065301Y-10522674D01*
X4065301Y-10522674D02*
X4046253Y-10513150D01*
X4046253Y-10513150D02*
X4017682Y-10513150D01*
X4017682Y-10513150D02*
X3998634Y-10522674D01*
X3998634Y-10522674D02*
X3989110Y-10532198D01*
X4198634Y-10646484D02*
X4179587Y-10636960D01*
X4179587Y-10636960D02*
X4170063Y-10627436D01*
X4170063Y-10627436D02*
X4160539Y-10608389D01*
X4160539Y-10608389D02*
X4160539Y-10551246D01*
X4160539Y-10551246D02*
X4170063Y-10532198D01*
X4170063Y-10532198D02*
X4179587Y-10522674D01*
X4179587Y-10522674D02*
X4198634Y-10513150D01*
X4198634Y-10513150D02*
X4227206Y-10513150D01*
X4227206Y-10513150D02*
X4246253Y-10522674D01*
X4246253Y-10522674D02*
X4255777Y-10532198D01*
X4255777Y-10532198D02*
X4265301Y-10551246D01*
X4265301Y-10551246D02*
X4265301Y-10608389D01*
X4265301Y-10608389D02*
X4255777Y-10627436D01*
X4255777Y-10627436D02*
X4246253Y-10636960D01*
X4246253Y-10636960D02*
X4227206Y-10646484D01*
X4227206Y-10646484D02*
X4198634Y-10646484D01*
X4379587Y-10646484D02*
X4360539Y-10636960D01*
X4360539Y-10636960D02*
X4351015Y-10617912D01*
X4351015Y-10617912D02*
X4351015Y-10446484D01*
X4531968Y-10636960D02*
X4512920Y-10646484D01*
X4512920Y-10646484D02*
X4474825Y-10646484D01*
X4474825Y-10646484D02*
X4455777Y-10636960D01*
X4455777Y-10636960D02*
X4446253Y-10617912D01*
X4446253Y-10617912D02*
X4446253Y-10541722D01*
X4446253Y-10541722D02*
X4455777Y-10522674D01*
X4455777Y-10522674D02*
X4474825Y-10513150D01*
X4474825Y-10513150D02*
X4512920Y-10513150D01*
X4512920Y-10513150D02*
X4531968Y-10522674D01*
X4531968Y-10522674D02*
X4541492Y-10541722D01*
X4541492Y-10541722D02*
X4541492Y-10560770D01*
X4541492Y-10560770D02*
X4446253Y-10579817D01*
X4617682Y-10636960D02*
X4636730Y-10646484D01*
X4636730Y-10646484D02*
X4674825Y-10646484D01*
X4674825Y-10646484D02*
X4693873Y-10636960D01*
X4693873Y-10636960D02*
X4703396Y-10617912D01*
X4703396Y-10617912D02*
X4703396Y-10608389D01*
X4703396Y-10608389D02*
X4693873Y-10589341D01*
X4693873Y-10589341D02*
X4674825Y-10579817D01*
X4674825Y-10579817D02*
X4646253Y-10579817D01*
X4646253Y-10579817D02*
X4627206Y-10570293D01*
X4627206Y-10570293D02*
X4617682Y-10551246D01*
X4617682Y-10551246D02*
X4617682Y-10541722D01*
X4617682Y-10541722D02*
X4627206Y-10522674D01*
X4627206Y-10522674D02*
X4646253Y-10513150D01*
X4646253Y-10513150D02*
X4674825Y-10513150D01*
X4674825Y-10513150D02*
X4693873Y-10522674D01*
X4770063Y-10722674D02*
X4779587Y-10713150D01*
X4779587Y-10713150D02*
X4798634Y-10684579D01*
X4798634Y-10684579D02*
X4808158Y-10665531D01*
X4808158Y-10665531D02*
X4817682Y-10636960D01*
X4817682Y-10636960D02*
X4827206Y-10589341D01*
X4827206Y-10589341D02*
X4827206Y-10551246D01*
X4827206Y-10551246D02*
X4817682Y-10503627D01*
X4817682Y-10503627D02*
X4808158Y-10475055D01*
X4808158Y-10475055D02*
X4798634Y-10456008D01*
X4798634Y-10456008D02*
X4779587Y-10427436D01*
X4779587Y-10427436D02*
X4770063Y-10417912D01*
X5131968Y-10722674D02*
X5122444Y-10713150D01*
X5122444Y-10713150D02*
X5103396Y-10684579D01*
X5103396Y-10684579D02*
X5093873Y-10665531D01*
X5093873Y-10665531D02*
X5084349Y-10636960D01*
X5084349Y-10636960D02*
X5074825Y-10589341D01*
X5074825Y-10589341D02*
X5074825Y-10551246D01*
X5074825Y-10551246D02*
X5084349Y-10503627D01*
X5084349Y-10503627D02*
X5093873Y-10475055D01*
X5093873Y-10475055D02*
X5103396Y-10456008D01*
X5103396Y-10456008D02*
X5122444Y-10427436D01*
X5122444Y-10427436D02*
X5131968Y-10417912D01*
X5208158Y-10513150D02*
X5208158Y-10646484D01*
X5208158Y-10532198D02*
X5217682Y-10522674D01*
X5217682Y-10522674D02*
X5236730Y-10513150D01*
X5236730Y-10513150D02*
X5265301Y-10513150D01*
X5265301Y-10513150D02*
X5284349Y-10522674D01*
X5284349Y-10522674D02*
X5293873Y-10541722D01*
X5293873Y-10541722D02*
X5293873Y-10646484D01*
X5417682Y-10646484D02*
X5398634Y-10636960D01*
X5398634Y-10636960D02*
X5389111Y-10627436D01*
X5389111Y-10627436D02*
X5379587Y-10608389D01*
X5379587Y-10608389D02*
X5379587Y-10551246D01*
X5379587Y-10551246D02*
X5389111Y-10532198D01*
X5389111Y-10532198D02*
X5398634Y-10522674D01*
X5398634Y-10522674D02*
X5417682Y-10513150D01*
X5417682Y-10513150D02*
X5446254Y-10513150D01*
X5446254Y-10513150D02*
X5465301Y-10522674D01*
X5465301Y-10522674D02*
X5474825Y-10532198D01*
X5474825Y-10532198D02*
X5484349Y-10551246D01*
X5484349Y-10551246D02*
X5484349Y-10608389D01*
X5484349Y-10608389D02*
X5474825Y-10627436D01*
X5474825Y-10627436D02*
X5465301Y-10636960D01*
X5465301Y-10636960D02*
X5446254Y-10646484D01*
X5446254Y-10646484D02*
X5417682Y-10646484D01*
X5541492Y-10513150D02*
X5617682Y-10513150D01*
X5570063Y-10446484D02*
X5570063Y-10617912D01*
X5570063Y-10617912D02*
X5579587Y-10636960D01*
X5579587Y-10636960D02*
X5598634Y-10646484D01*
X5598634Y-10646484D02*
X5617682Y-10646484D01*
X5836730Y-10513150D02*
X5836730Y-10713150D01*
X5836730Y-10522674D02*
X5855777Y-10513150D01*
X5855777Y-10513150D02*
X5893873Y-10513150D01*
X5893873Y-10513150D02*
X5912920Y-10522674D01*
X5912920Y-10522674D02*
X5922444Y-10532198D01*
X5922444Y-10532198D02*
X5931968Y-10551246D01*
X5931968Y-10551246D02*
X5931968Y-10608389D01*
X5931968Y-10608389D02*
X5922444Y-10627436D01*
X5922444Y-10627436D02*
X5912920Y-10636960D01*
X5912920Y-10636960D02*
X5893873Y-10646484D01*
X5893873Y-10646484D02*
X5855777Y-10646484D01*
X5855777Y-10646484D02*
X5836730Y-10636960D01*
X6046253Y-10646484D02*
X6027206Y-10636960D01*
X6027206Y-10636960D02*
X6017682Y-10617912D01*
X6017682Y-10617912D02*
X6017682Y-10446484D01*
X6208158Y-10646484D02*
X6208158Y-10541722D01*
X6208158Y-10541722D02*
X6198634Y-10522674D01*
X6198634Y-10522674D02*
X6179587Y-10513150D01*
X6179587Y-10513150D02*
X6141492Y-10513150D01*
X6141492Y-10513150D02*
X6122444Y-10522674D01*
X6208158Y-10636960D02*
X6189111Y-10646484D01*
X6189111Y-10646484D02*
X6141492Y-10646484D01*
X6141492Y-10646484D02*
X6122444Y-10636960D01*
X6122444Y-10636960D02*
X6112920Y-10617912D01*
X6112920Y-10617912D02*
X6112920Y-10598865D01*
X6112920Y-10598865D02*
X6122444Y-10579817D01*
X6122444Y-10579817D02*
X6141492Y-10570293D01*
X6141492Y-10570293D02*
X6189111Y-10570293D01*
X6189111Y-10570293D02*
X6208158Y-10560770D01*
X6274825Y-10513150D02*
X6351015Y-10513150D01*
X6303396Y-10446484D02*
X6303396Y-10617912D01*
X6303396Y-10617912D02*
X6312920Y-10636960D01*
X6312920Y-10636960D02*
X6331968Y-10646484D01*
X6331968Y-10646484D02*
X6351015Y-10646484D01*
X6493873Y-10636960D02*
X6474825Y-10646484D01*
X6474825Y-10646484D02*
X6436730Y-10646484D01*
X6436730Y-10646484D02*
X6417682Y-10636960D01*
X6417682Y-10636960D02*
X6408158Y-10617912D01*
X6408158Y-10617912D02*
X6408158Y-10541722D01*
X6408158Y-10541722D02*
X6417682Y-10522674D01*
X6417682Y-10522674D02*
X6436730Y-10513150D01*
X6436730Y-10513150D02*
X6474825Y-10513150D01*
X6474825Y-10513150D02*
X6493873Y-10522674D01*
X6493873Y-10522674D02*
X6503396Y-10541722D01*
X6503396Y-10541722D02*
X6503396Y-10560770D01*
X6503396Y-10560770D02*
X6408158Y-10579817D01*
X6674825Y-10646484D02*
X6674825Y-10446484D01*
X6674825Y-10636960D02*
X6655777Y-10646484D01*
X6655777Y-10646484D02*
X6617682Y-10646484D01*
X6617682Y-10646484D02*
X6598634Y-10636960D01*
X6598634Y-10636960D02*
X6589111Y-10627436D01*
X6589111Y-10627436D02*
X6579587Y-10608389D01*
X6579587Y-10608389D02*
X6579587Y-10551246D01*
X6579587Y-10551246D02*
X6589111Y-10532198D01*
X6589111Y-10532198D02*
X6598634Y-10522674D01*
X6598634Y-10522674D02*
X6617682Y-10513150D01*
X6617682Y-10513150D02*
X6655777Y-10513150D01*
X6655777Y-10513150D02*
X6674825Y-10522674D01*
X6751015Y-10722674D02*
X6760539Y-10713150D01*
X6760539Y-10713150D02*
X6779587Y-10684579D01*
X6779587Y-10684579D02*
X6789111Y-10665531D01*
X6789111Y-10665531D02*
X6798634Y-10636960D01*
X6798634Y-10636960D02*
X6808158Y-10589341D01*
X6808158Y-10589341D02*
X6808158Y-10551246D01*
X6808158Y-10551246D02*
X6798634Y-10503627D01*
X6798634Y-10503627D02*
X6789111Y-10475055D01*
X6789111Y-10475055D02*
X6779587Y-10456008D01*
X6779587Y-10456008D02*
X6760539Y-10427436D01*
X6760539Y-10427436D02*
X6751015Y-10417912D01*
M02*
