%TF.GenerationSoftware,KiCad,Pcbnew,9.0.6*%
%TF.CreationDate,2026-09-09T19:00:14-07:00*%
%TF.ProjectId,ghost-fader,67686f73-742d-4666-9164-65722e6b6963,rev?*%
%TF.SameCoordinates,Original*%
%TF.FileFunction,Drillmap*%
%TF.FilePolarity,Positive*%
%FSLAX45Y45*%
G04 Gerber Fmt 4.5, Leading zero omitted, Abs format (unit mm)*
G04 Created by KiCad (PCBNEW 9.0.6) date 2026-09-09 19:00:14*
%MOMM*%
%LPD*%
G01*
G04 APERTURE LIST*
%ADD10C,0.100000*%
%ADD11C,0.200000*%
%ADD12C,0.150000*%
%ADD13C,0.300000*%
G04 APERTURE END LIST*
D10*
X0Y-7350000D02*
X0Y-650000D01*
X10800000Y-7350000D02*
X10050000Y-7350000D01*
X0Y-650000D02*
X750000Y-650000D01*
X750000Y0D02*
X10050000Y0D01*
X10800000Y-650000D02*
X10800000Y-7350000D01*
X750000Y-650000D02*
X750000Y0D01*
X10050000Y-7350000D02*
X10050000Y-8000000D01*
X10050000Y0D02*
X10050000Y-650000D01*
X10050000Y-8000000D02*
X750000Y-8000000D01*
X750000Y-7350000D02*
X0Y-7350000D01*
X10050000Y-650000D02*
X10800000Y-650000D01*
X750000Y-8000000D02*
X750000Y-7350000D01*
D11*
D10*
X2311100Y-6790000D02*
X2351100Y-6830000D01*
X2351100Y-6790000D02*
X2311100Y-6830000D01*
X5186810Y-5797110D02*
X5226810Y-5837110D01*
X5226810Y-5797110D02*
X5186810Y-5837110D01*
X7092610Y-3692470D02*
X7132610Y-3732470D01*
X7132610Y-3692470D02*
X7092610Y-3732470D01*
X8201360Y-7294970D02*
X8241360Y-7334970D01*
X8241360Y-7294970D02*
X8201360Y-7334970D01*
X8415900Y-6829210D02*
X8455900Y-6869210D01*
X8455900Y-6829210D02*
X8415900Y-6869210D01*
X8521270Y-6379620D02*
X8561270Y-6419620D01*
X8561270Y-6379620D02*
X8521270Y-6419620D01*
X8813080Y-3247530D02*
X8853080Y-3287530D01*
X8853080Y-3247530D02*
X8813080Y-3287530D01*
X390000Y-4484000D02*
G75*
G02*
X310000Y-4484000I-40000J0D01*
G01*
X310000Y-4484000D02*
G75*
G02*
X390000Y-4484000I40000J0D01*
G01*
X390000Y-5500000D02*
G75*
G02*
X310000Y-5500000I-40000J0D01*
G01*
X310000Y-5500000D02*
G75*
G02*
X390000Y-5500000I40000J0D01*
G01*
X390000Y-6034000D02*
G75*
G02*
X310000Y-6034000I-40000J0D01*
G01*
X310000Y-6034000D02*
G75*
G02*
X390000Y-6034000I40000J0D01*
G01*
X390000Y-7050000D02*
G75*
G02*
X310000Y-7050000I-40000J0D01*
G01*
X310000Y-7050000D02*
G75*
G02*
X390000Y-7050000I40000J0D01*
G01*
X740000Y-4484000D02*
G75*
G02*
X660000Y-4484000I-40000J0D01*
G01*
X660000Y-4484000D02*
G75*
G02*
X740000Y-4484000I40000J0D01*
G01*
X740000Y-5500000D02*
G75*
G02*
X660000Y-5500000I-40000J0D01*
G01*
X660000Y-5500000D02*
G75*
G02*
X740000Y-5500000I40000J0D01*
G01*
X740000Y-6034000D02*
G75*
G02*
X660000Y-6034000I-40000J0D01*
G01*
X660000Y-6034000D02*
G75*
G02*
X740000Y-6034000I40000J0D01*
G01*
X740000Y-7050000D02*
G75*
G02*
X660000Y-7050000I-40000J0D01*
G01*
X660000Y-7050000D02*
G75*
G02*
X740000Y-7050000I40000J0D01*
G01*
X1040000Y-3350000D02*
G75*
G02*
X960000Y-3350000I-40000J0D01*
G01*
X960000Y-3350000D02*
G75*
G02*
X1040000Y-3350000I40000J0D01*
G01*
X1040000Y-3850000D02*
G75*
G02*
X960000Y-3850000I-40000J0D01*
G01*
X960000Y-3850000D02*
G75*
G02*
X1040000Y-3850000I40000J0D01*
G01*
X1290000Y-2650000D02*
G75*
G02*
X1210000Y-2650000I-40000J0D01*
G01*
X1210000Y-2650000D02*
G75*
G02*
X1290000Y-2650000I40000J0D01*
G01*
X1790000Y-2650000D02*
G75*
G02*
X1710000Y-2650000I-40000J0D01*
G01*
X1710000Y-2650000D02*
G75*
G02*
X1790000Y-2650000I40000J0D01*
G01*
X2120000Y-2650000D02*
G75*
G02*
X2040000Y-2650000I-40000J0D01*
G01*
X2040000Y-2650000D02*
G75*
G02*
X2120000Y-2650000I40000J0D01*
G01*
X2240000Y-3350000D02*
G75*
G02*
X2160000Y-3350000I-40000J0D01*
G01*
X2160000Y-3350000D02*
G75*
G02*
X2240000Y-3350000I40000J0D01*
G01*
X2240000Y-3850000D02*
G75*
G02*
X2160000Y-3850000I-40000J0D01*
G01*
X2160000Y-3850000D02*
G75*
G02*
X2240000Y-3850000I40000J0D01*
G01*
X2620000Y-2650000D02*
G75*
G02*
X2540000Y-2650000I-40000J0D01*
G01*
X2540000Y-2650000D02*
G75*
G02*
X2620000Y-2650000I40000J0D01*
G01*
X3040000Y-3350000D02*
G75*
G02*
X2960000Y-3350000I-40000J0D01*
G01*
X2960000Y-3350000D02*
G75*
G02*
X3040000Y-3350000I40000J0D01*
G01*
X3040000Y-3850000D02*
G75*
G02*
X2960000Y-3850000I-40000J0D01*
G01*
X2960000Y-3850000D02*
G75*
G02*
X3040000Y-3850000I40000J0D01*
G01*
X3140000Y-4750000D02*
G75*
G02*
X3060000Y-4750000I-40000J0D01*
G01*
X3060000Y-4750000D02*
G75*
G02*
X3140000Y-4750000I40000J0D01*
G01*
X3190000Y-7088000D02*
G75*
G02*
X3110000Y-7088000I-40000J0D01*
G01*
X3110000Y-7088000D02*
G75*
G02*
X3190000Y-7088000I40000J0D01*
G01*
X3190000Y-7850000D02*
G75*
G02*
X3110000Y-7850000I-40000J0D01*
G01*
X3110000Y-7850000D02*
G75*
G02*
X3190000Y-7850000I40000J0D01*
G01*
X3280000Y-6500000D02*
G75*
G02*
X3200000Y-6500000I-40000J0D01*
G01*
X3200000Y-6500000D02*
G75*
G02*
X3280000Y-6500000I40000J0D01*
G01*
X3290000Y-2650000D02*
G75*
G02*
X3210000Y-2650000I-40000J0D01*
G01*
X3210000Y-2650000D02*
G75*
G02*
X3290000Y-2650000I40000J0D01*
G01*
X3390000Y-4750000D02*
G75*
G02*
X3310000Y-4750000I-40000J0D01*
G01*
X3310000Y-4750000D02*
G75*
G02*
X3390000Y-4750000I40000J0D01*
G01*
X3440000Y-5338000D02*
G75*
G02*
X3360000Y-5338000I-40000J0D01*
G01*
X3360000Y-5338000D02*
G75*
G02*
X3440000Y-5338000I40000J0D01*
G01*
X3440000Y-6100000D02*
G75*
G02*
X3360000Y-6100000I-40000J0D01*
G01*
X3360000Y-6100000D02*
G75*
G02*
X3440000Y-6100000I40000J0D01*
G01*
X3444000Y-7088000D02*
G75*
G02*
X3364000Y-7088000I-40000J0D01*
G01*
X3364000Y-7088000D02*
G75*
G02*
X3444000Y-7088000I40000J0D01*
G01*
X3444000Y-7850000D02*
G75*
G02*
X3364000Y-7850000I-40000J0D01*
G01*
X3364000Y-7850000D02*
G75*
G02*
X3444000Y-7850000I40000J0D01*
G01*
X3694000Y-5338000D02*
G75*
G02*
X3614000Y-5338000I-40000J0D01*
G01*
X3614000Y-5338000D02*
G75*
G02*
X3694000Y-5338000I40000J0D01*
G01*
X3694000Y-6100000D02*
G75*
G02*
X3614000Y-6100000I-40000J0D01*
G01*
X3614000Y-6100000D02*
G75*
G02*
X3694000Y-6100000I40000J0D01*
G01*
X3698000Y-7088000D02*
G75*
G02*
X3618000Y-7088000I-40000J0D01*
G01*
X3618000Y-7088000D02*
G75*
G02*
X3698000Y-7088000I40000J0D01*
G01*
X3698000Y-7850000D02*
G75*
G02*
X3618000Y-7850000I-40000J0D01*
G01*
X3618000Y-7850000D02*
G75*
G02*
X3698000Y-7850000I40000J0D01*
G01*
X3780000Y-6500000D02*
G75*
G02*
X3700000Y-6500000I-40000J0D01*
G01*
X3700000Y-6500000D02*
G75*
G02*
X3780000Y-6500000I40000J0D01*
G01*
X3790000Y-2650000D02*
G75*
G02*
X3710000Y-2650000I-40000J0D01*
G01*
X3710000Y-2650000D02*
G75*
G02*
X3790000Y-2650000I40000J0D01*
G01*
X3948000Y-5338000D02*
G75*
G02*
X3868000Y-5338000I-40000J0D01*
G01*
X3868000Y-5338000D02*
G75*
G02*
X3948000Y-5338000I40000J0D01*
G01*
X3948000Y-6100000D02*
G75*
G02*
X3868000Y-6100000I-40000J0D01*
G01*
X3868000Y-6100000D02*
G75*
G02*
X3948000Y-6100000I40000J0D01*
G01*
X3952000Y-7088000D02*
G75*
G02*
X3872000Y-7088000I-40000J0D01*
G01*
X3872000Y-7088000D02*
G75*
G02*
X3952000Y-7088000I40000J0D01*
G01*
X3952000Y-7850000D02*
G75*
G02*
X3872000Y-7850000I-40000J0D01*
G01*
X3872000Y-7850000D02*
G75*
G02*
X3952000Y-7850000I40000J0D01*
G01*
X3990000Y-4600000D02*
G75*
G02*
X3910000Y-4600000I-40000J0D01*
G01*
X3910000Y-4600000D02*
G75*
G02*
X3990000Y-4600000I40000J0D01*
G01*
X3990000Y-5100000D02*
G75*
G02*
X3910000Y-5100000I-40000J0D01*
G01*
X3910000Y-5100000D02*
G75*
G02*
X3990000Y-5100000I40000J0D01*
G01*
X4020000Y-6550000D02*
G75*
G02*
X3940000Y-6550000I-40000J0D01*
G01*
X3940000Y-6550000D02*
G75*
G02*
X4020000Y-6550000I40000J0D01*
G01*
X4120000Y-2650000D02*
G75*
G02*
X4040000Y-2650000I-40000J0D01*
G01*
X4040000Y-2650000D02*
G75*
G02*
X4120000Y-2650000I40000J0D01*
G01*
X4202000Y-5338000D02*
G75*
G02*
X4122000Y-5338000I-40000J0D01*
G01*
X4122000Y-5338000D02*
G75*
G02*
X4202000Y-5338000I40000J0D01*
G01*
X4202000Y-6100000D02*
G75*
G02*
X4122000Y-6100000I-40000J0D01*
G01*
X4122000Y-6100000D02*
G75*
G02*
X4202000Y-6100000I40000J0D01*
G01*
X4240000Y-3350000D02*
G75*
G02*
X4160000Y-3350000I-40000J0D01*
G01*
X4160000Y-3350000D02*
G75*
G02*
X4240000Y-3350000I40000J0D01*
G01*
X4240000Y-3850000D02*
G75*
G02*
X4160000Y-3850000I-40000J0D01*
G01*
X4160000Y-3850000D02*
G75*
G02*
X4240000Y-3850000I40000J0D01*
G01*
X4390000Y-4600000D02*
G75*
G02*
X4310000Y-4600000I-40000J0D01*
G01*
X4310000Y-4600000D02*
G75*
G02*
X4390000Y-4600000I40000J0D01*
G01*
X4390000Y-5100000D02*
G75*
G02*
X4310000Y-5100000I-40000J0D01*
G01*
X4310000Y-5100000D02*
G75*
G02*
X4390000Y-5100000I40000J0D01*
G01*
X4456000Y-5338000D02*
G75*
G02*
X4376000Y-5338000I-40000J0D01*
G01*
X4376000Y-5338000D02*
G75*
G02*
X4456000Y-5338000I40000J0D01*
G01*
X4456000Y-6100000D02*
G75*
G02*
X4376000Y-6100000I-40000J0D01*
G01*
X4376000Y-6100000D02*
G75*
G02*
X4456000Y-6100000I40000J0D01*
G01*
X4620000Y-2650000D02*
G75*
G02*
X4540000Y-2650000I-40000J0D01*
G01*
X4540000Y-2650000D02*
G75*
G02*
X4620000Y-2650000I40000J0D01*
G01*
X4710000Y-5338000D02*
G75*
G02*
X4630000Y-5338000I-40000J0D01*
G01*
X4630000Y-5338000D02*
G75*
G02*
X4710000Y-5338000I40000J0D01*
G01*
X4710000Y-6100000D02*
G75*
G02*
X4630000Y-6100000I-40000J0D01*
G01*
X4630000Y-6100000D02*
G75*
G02*
X4710000Y-6100000I40000J0D01*
G01*
X4840000Y-4750000D02*
G75*
G02*
X4760000Y-4750000I-40000J0D01*
G01*
X4760000Y-4750000D02*
G75*
G02*
X4840000Y-4750000I40000J0D01*
G01*
X4964000Y-5338000D02*
G75*
G02*
X4884000Y-5338000I-40000J0D01*
G01*
X4884000Y-5338000D02*
G75*
G02*
X4964000Y-5338000I40000J0D01*
G01*
X4964000Y-6100000D02*
G75*
G02*
X4884000Y-6100000I-40000J0D01*
G01*
X4884000Y-6100000D02*
G75*
G02*
X4964000Y-6100000I40000J0D01*
G01*
X5036000Y-6550000D02*
G75*
G02*
X4956000Y-6550000I-40000J0D01*
G01*
X4956000Y-6550000D02*
G75*
G02*
X5036000Y-6550000I40000J0D01*
G01*
X5090000Y-2800000D02*
G75*
G02*
X5010000Y-2800000I-40000J0D01*
G01*
X5010000Y-2800000D02*
G75*
G02*
X5090000Y-2800000I40000J0D01*
G01*
X5090000Y-3550000D02*
G75*
G02*
X5010000Y-3550000I-40000J0D01*
G01*
X5010000Y-3550000D02*
G75*
G02*
X5090000Y-3550000I40000J0D01*
G01*
X5090000Y-4750000D02*
G75*
G02*
X5010000Y-4750000I-40000J0D01*
G01*
X5010000Y-4750000D02*
G75*
G02*
X5090000Y-4750000I40000J0D01*
G01*
X5218000Y-5338000D02*
G75*
G02*
X5138000Y-5338000I-40000J0D01*
G01*
X5138000Y-5338000D02*
G75*
G02*
X5218000Y-5338000I40000J0D01*
G01*
X5218000Y-6100000D02*
G75*
G02*
X5138000Y-6100000I-40000J0D01*
G01*
X5138000Y-6100000D02*
G75*
G02*
X5218000Y-6100000I40000J0D01*
G01*
X5340000Y-2800000D02*
G75*
G02*
X5260000Y-2800000I-40000J0D01*
G01*
X5260000Y-2800000D02*
G75*
G02*
X5340000Y-2800000I40000J0D01*
G01*
X5340000Y-3550000D02*
G75*
G02*
X5260000Y-3550000I-40000J0D01*
G01*
X5260000Y-3550000D02*
G75*
G02*
X5340000Y-3550000I40000J0D01*
G01*
X5390000Y-6550000D02*
G75*
G02*
X5310000Y-6550000I-40000J0D01*
G01*
X5310000Y-6550000D02*
G75*
G02*
X5390000Y-6550000I40000J0D01*
G01*
X5540000Y-4750000D02*
G75*
G02*
X5460000Y-4750000I-40000J0D01*
G01*
X5460000Y-4750000D02*
G75*
G02*
X5540000Y-4750000I40000J0D01*
G01*
X5640000Y-6550000D02*
G75*
G02*
X5560000Y-6550000I-40000J0D01*
G01*
X5560000Y-6550000D02*
G75*
G02*
X5640000Y-6550000I40000J0D01*
G01*
X5740000Y-3950000D02*
G75*
G02*
X5660000Y-3950000I-40000J0D01*
G01*
X5660000Y-3950000D02*
G75*
G02*
X5740000Y-3950000I40000J0D01*
G01*
X5740000Y-4300000D02*
G75*
G02*
X5660000Y-4300000I-40000J0D01*
G01*
X5660000Y-4300000D02*
G75*
G02*
X5740000Y-4300000I40000J0D01*
G01*
X5790000Y-4750000D02*
G75*
G02*
X5710000Y-4750000I-40000J0D01*
G01*
X5710000Y-4750000D02*
G75*
G02*
X5790000Y-4750000I40000J0D01*
G01*
X5840000Y-3350000D02*
G75*
G02*
X5760000Y-3350000I-40000J0D01*
G01*
X5760000Y-3350000D02*
G75*
G02*
X5840000Y-3350000I40000J0D01*
G01*
X5840000Y-5338000D02*
G75*
G02*
X5760000Y-5338000I-40000J0D01*
G01*
X5760000Y-5338000D02*
G75*
G02*
X5840000Y-5338000I40000J0D01*
G01*
X5840000Y-6100000D02*
G75*
G02*
X5760000Y-6100000I-40000J0D01*
G01*
X5760000Y-6100000D02*
G75*
G02*
X5840000Y-6100000I40000J0D01*
G01*
X6090000Y-3350000D02*
G75*
G02*
X6010000Y-3350000I-40000J0D01*
G01*
X6010000Y-3350000D02*
G75*
G02*
X6090000Y-3350000I40000J0D01*
G01*
X6090000Y-6550000D02*
G75*
G02*
X6010000Y-6550000I-40000J0D01*
G01*
X6010000Y-6550000D02*
G75*
G02*
X6090000Y-6550000I40000J0D01*
G01*
X6094000Y-5338000D02*
G75*
G02*
X6014000Y-5338000I-40000J0D01*
G01*
X6014000Y-5338000D02*
G75*
G02*
X6094000Y-5338000I40000J0D01*
G01*
X6094000Y-6100000D02*
G75*
G02*
X6014000Y-6100000I-40000J0D01*
G01*
X6014000Y-6100000D02*
G75*
G02*
X6094000Y-6100000I40000J0D01*
G01*
X6190000Y-2650000D02*
G75*
G02*
X6110000Y-2650000I-40000J0D01*
G01*
X6110000Y-2650000D02*
G75*
G02*
X6190000Y-2650000I40000J0D01*
G01*
X6340000Y-6550000D02*
G75*
G02*
X6260000Y-6550000I-40000J0D01*
G01*
X6260000Y-6550000D02*
G75*
G02*
X6340000Y-6550000I40000J0D01*
G01*
X6348000Y-5338000D02*
G75*
G02*
X6268000Y-5338000I-40000J0D01*
G01*
X6268000Y-5338000D02*
G75*
G02*
X6348000Y-5338000I40000J0D01*
G01*
X6348000Y-6100000D02*
G75*
G02*
X6268000Y-6100000I-40000J0D01*
G01*
X6268000Y-6100000D02*
G75*
G02*
X6348000Y-6100000I40000J0D01*
G01*
X6390000Y-4600000D02*
G75*
G02*
X6310000Y-4600000I-40000J0D01*
G01*
X6310000Y-4600000D02*
G75*
G02*
X6390000Y-4600000I40000J0D01*
G01*
X6390000Y-5100000D02*
G75*
G02*
X6310000Y-5100000I-40000J0D01*
G01*
X6310000Y-5100000D02*
G75*
G02*
X6390000Y-5100000I40000J0D01*
G01*
X6602000Y-5338000D02*
G75*
G02*
X6522000Y-5338000I-40000J0D01*
G01*
X6522000Y-5338000D02*
G75*
G02*
X6602000Y-5338000I40000J0D01*
G01*
X6602000Y-6100000D02*
G75*
G02*
X6522000Y-6100000I-40000J0D01*
G01*
X6522000Y-6100000D02*
G75*
G02*
X6602000Y-6100000I40000J0D01*
G01*
X6690000Y-2650000D02*
G75*
G02*
X6610000Y-2650000I-40000J0D01*
G01*
X6610000Y-2650000D02*
G75*
G02*
X6690000Y-2650000I40000J0D01*
G01*
X6756000Y-3950000D02*
G75*
G02*
X6676000Y-3950000I-40000J0D01*
G01*
X6676000Y-3950000D02*
G75*
G02*
X6756000Y-3950000I40000J0D01*
G01*
X6756000Y-4300000D02*
G75*
G02*
X6676000Y-4300000I-40000J0D01*
G01*
X6676000Y-4300000D02*
G75*
G02*
X6756000Y-4300000I40000J0D01*
G01*
X6790000Y-4600000D02*
G75*
G02*
X6710000Y-4600000I-40000J0D01*
G01*
X6710000Y-4600000D02*
G75*
G02*
X6790000Y-4600000I40000J0D01*
G01*
X6790000Y-5100000D02*
G75*
G02*
X6710000Y-5100000I-40000J0D01*
G01*
X6710000Y-5100000D02*
G75*
G02*
X6790000Y-5100000I40000J0D01*
G01*
X6800000Y-6834000D02*
G75*
G02*
X6720000Y-6834000I-40000J0D01*
G01*
X6720000Y-6834000D02*
G75*
G02*
X6800000Y-6834000I40000J0D01*
G01*
X6800000Y-7850000D02*
G75*
G02*
X6720000Y-7850000I-40000J0D01*
G01*
X6720000Y-7850000D02*
G75*
G02*
X6800000Y-7850000I40000J0D01*
G01*
X6856000Y-5338000D02*
G75*
G02*
X6776000Y-5338000I-40000J0D01*
G01*
X6776000Y-5338000D02*
G75*
G02*
X6856000Y-5338000I40000J0D01*
G01*
X6856000Y-6100000D02*
G75*
G02*
X6776000Y-6100000I-40000J0D01*
G01*
X6776000Y-6100000D02*
G75*
G02*
X6856000Y-6100000I40000J0D01*
G01*
X6990000Y-6500000D02*
G75*
G02*
X6910000Y-6500000I-40000J0D01*
G01*
X6910000Y-6500000D02*
G75*
G02*
X6990000Y-6500000I40000J0D01*
G01*
X7020000Y-2650000D02*
G75*
G02*
X6940000Y-2650000I-40000J0D01*
G01*
X6940000Y-2650000D02*
G75*
G02*
X7020000Y-2650000I40000J0D01*
G01*
X7040000Y-3950000D02*
G75*
G02*
X6960000Y-3950000I-40000J0D01*
G01*
X6960000Y-3950000D02*
G75*
G02*
X7040000Y-3950000I40000J0D01*
G01*
X7040000Y-4300000D02*
G75*
G02*
X6960000Y-4300000I-40000J0D01*
G01*
X6960000Y-4300000D02*
G75*
G02*
X7040000Y-4300000I40000J0D01*
G01*
X7110000Y-5338000D02*
G75*
G02*
X7030000Y-5338000I-40000J0D01*
G01*
X7030000Y-5338000D02*
G75*
G02*
X7110000Y-5338000I40000J0D01*
G01*
X7110000Y-6100000D02*
G75*
G02*
X7030000Y-6100000I-40000J0D01*
G01*
X7030000Y-6100000D02*
G75*
G02*
X7110000Y-6100000I40000J0D01*
G01*
X7240000Y-4750000D02*
G75*
G02*
X7160000Y-4750000I-40000J0D01*
G01*
X7160000Y-4750000D02*
G75*
G02*
X7240000Y-4750000I40000J0D01*
G01*
X7300000Y-6834000D02*
G75*
G02*
X7220000Y-6834000I-40000J0D01*
G01*
X7220000Y-6834000D02*
G75*
G02*
X7300000Y-6834000I40000J0D01*
G01*
X7300000Y-7850000D02*
G75*
G02*
X7220000Y-7850000I-40000J0D01*
G01*
X7220000Y-7850000D02*
G75*
G02*
X7300000Y-7850000I40000J0D01*
G01*
X7364000Y-5338000D02*
G75*
G02*
X7284000Y-5338000I-40000J0D01*
G01*
X7284000Y-5338000D02*
G75*
G02*
X7364000Y-5338000I40000J0D01*
G01*
X7364000Y-6100000D02*
G75*
G02*
X7284000Y-6100000I-40000J0D01*
G01*
X7284000Y-6100000D02*
G75*
G02*
X7364000Y-6100000I40000J0D01*
G01*
X7440000Y-3350000D02*
G75*
G02*
X7360000Y-3350000I-40000J0D01*
G01*
X7360000Y-3350000D02*
G75*
G02*
X7440000Y-3350000I40000J0D01*
G01*
X7490000Y-4750000D02*
G75*
G02*
X7410000Y-4750000I-40000J0D01*
G01*
X7410000Y-4750000D02*
G75*
G02*
X7490000Y-4750000I40000J0D01*
G01*
X7490000Y-6500000D02*
G75*
G02*
X7410000Y-6500000I-40000J0D01*
G01*
X7410000Y-6500000D02*
G75*
G02*
X7490000Y-6500000I40000J0D01*
G01*
X7520000Y-2650000D02*
G75*
G02*
X7440000Y-2650000I-40000J0D01*
G01*
X7440000Y-2650000D02*
G75*
G02*
X7520000Y-2650000I40000J0D01*
G01*
X7540000Y-3950000D02*
G75*
G02*
X7460000Y-3950000I-40000J0D01*
G01*
X7460000Y-3950000D02*
G75*
G02*
X7540000Y-3950000I40000J0D01*
G01*
X7540000Y-4300000D02*
G75*
G02*
X7460000Y-4300000I-40000J0D01*
G01*
X7460000Y-4300000D02*
G75*
G02*
X7540000Y-4300000I40000J0D01*
G01*
X7610000Y-7020000D02*
G75*
G02*
X7530000Y-7020000I-40000J0D01*
G01*
X7530000Y-7020000D02*
G75*
G02*
X7610000Y-7020000I40000J0D01*
G01*
X7610000Y-7480000D02*
G75*
G02*
X7530000Y-7480000I-40000J0D01*
G01*
X7530000Y-7480000D02*
G75*
G02*
X7610000Y-7480000I40000J0D01*
G01*
X7618000Y-5338000D02*
G75*
G02*
X7538000Y-5338000I-40000J0D01*
G01*
X7538000Y-5338000D02*
G75*
G02*
X7618000Y-5338000I40000J0D01*
G01*
X7618000Y-6100000D02*
G75*
G02*
X7538000Y-6100000I-40000J0D01*
G01*
X7538000Y-6100000D02*
G75*
G02*
X7618000Y-6100000I40000J0D01*
G01*
X7690000Y-3350000D02*
G75*
G02*
X7610000Y-3350000I-40000J0D01*
G01*
X7610000Y-3350000D02*
G75*
G02*
X7690000Y-3350000I40000J0D01*
G01*
X7940000Y-3950000D02*
G75*
G02*
X7860000Y-3950000I-40000J0D01*
G01*
X7860000Y-3950000D02*
G75*
G02*
X7940000Y-3950000I40000J0D01*
G01*
X7940000Y-4300000D02*
G75*
G02*
X7860000Y-4300000I-40000J0D01*
G01*
X7860000Y-4300000D02*
G75*
G02*
X7940000Y-4300000I40000J0D01*
G01*
X7960000Y-5650000D02*
G75*
G02*
X7880000Y-5650000I-40000J0D01*
G01*
X7880000Y-5650000D02*
G75*
G02*
X7960000Y-5650000I40000J0D01*
G01*
X7960000Y-6150000D02*
G75*
G02*
X7880000Y-6150000I-40000J0D01*
G01*
X7880000Y-6150000D02*
G75*
G02*
X7960000Y-6150000I40000J0D01*
G01*
X8040000Y-3350000D02*
G75*
G02*
X7960000Y-3350000I-40000J0D01*
G01*
X7960000Y-3350000D02*
G75*
G02*
X8040000Y-3350000I40000J0D01*
G01*
X8240000Y-5500000D02*
G75*
G02*
X8160000Y-5500000I-40000J0D01*
G01*
X8160000Y-5500000D02*
G75*
G02*
X8240000Y-5500000I40000J0D01*
G01*
X8240000Y-5754000D02*
G75*
G02*
X8160000Y-5754000I-40000J0D01*
G01*
X8160000Y-5754000D02*
G75*
G02*
X8240000Y-5754000I40000J0D01*
G01*
X8240000Y-6008000D02*
G75*
G02*
X8160000Y-6008000I-40000J0D01*
G01*
X8160000Y-6008000D02*
G75*
G02*
X8240000Y-6008000I40000J0D01*
G01*
X8240000Y-6262000D02*
G75*
G02*
X8160000Y-6262000I-40000J0D01*
G01*
X8160000Y-6262000D02*
G75*
G02*
X8240000Y-6262000I40000J0D01*
G01*
X8290000Y-2650000D02*
G75*
G02*
X8210000Y-2650000I-40000J0D01*
G01*
X8210000Y-2650000D02*
G75*
G02*
X8290000Y-2650000I40000J0D01*
G01*
X8290000Y-3350000D02*
G75*
G02*
X8210000Y-3350000I-40000J0D01*
G01*
X8210000Y-3350000D02*
G75*
G02*
X8290000Y-3350000I40000J0D01*
G01*
X8626000Y-7020000D02*
G75*
G02*
X8546000Y-7020000I-40000J0D01*
G01*
X8546000Y-7020000D02*
G75*
G02*
X8626000Y-7020000I40000J0D01*
G01*
X8626000Y-7480000D02*
G75*
G02*
X8546000Y-7480000I-40000J0D01*
G01*
X8546000Y-7480000D02*
G75*
G02*
X8626000Y-7480000I40000J0D01*
G01*
X8790000Y-2650000D02*
G75*
G02*
X8710000Y-2650000I-40000J0D01*
G01*
X8710000Y-2650000D02*
G75*
G02*
X8790000Y-2650000I40000J0D01*
G01*
X8940000Y-7020000D02*
G75*
G02*
X8860000Y-7020000I-40000J0D01*
G01*
X8860000Y-7020000D02*
G75*
G02*
X8940000Y-7020000I40000J0D01*
G01*
X8940000Y-7480000D02*
G75*
G02*
X8860000Y-7480000I-40000J0D01*
G01*
X8860000Y-7480000D02*
G75*
G02*
X8940000Y-7480000I40000J0D01*
G01*
X8956000Y-3950000D02*
G75*
G02*
X8876000Y-3950000I-40000J0D01*
G01*
X8876000Y-3950000D02*
G75*
G02*
X8956000Y-3950000I40000J0D01*
G01*
X8956000Y-4300000D02*
G75*
G02*
X8876000Y-4300000I-40000J0D01*
G01*
X8876000Y-4300000D02*
G75*
G02*
X8956000Y-4300000I40000J0D01*
G01*
X9002000Y-5500000D02*
G75*
G02*
X8922000Y-5500000I-40000J0D01*
G01*
X8922000Y-5500000D02*
G75*
G02*
X9002000Y-5500000I40000J0D01*
G01*
X9002000Y-5754000D02*
G75*
G02*
X8922000Y-5754000I-40000J0D01*
G01*
X8922000Y-5754000D02*
G75*
G02*
X9002000Y-5754000I40000J0D01*
G01*
X9002000Y-6008000D02*
G75*
G02*
X8922000Y-6008000I-40000J0D01*
G01*
X8922000Y-6008000D02*
G75*
G02*
X9002000Y-6008000I40000J0D01*
G01*
X9002000Y-6262000D02*
G75*
G02*
X8922000Y-6262000I-40000J0D01*
G01*
X8922000Y-6262000D02*
G75*
G02*
X9002000Y-6262000I40000J0D01*
G01*
X9040000Y-4850000D02*
G75*
G02*
X8960000Y-4850000I-40000J0D01*
G01*
X8960000Y-4850000D02*
G75*
G02*
X9040000Y-4850000I40000J0D01*
G01*
X9120000Y-2650000D02*
G75*
G02*
X9040000Y-2650000I-40000J0D01*
G01*
X9040000Y-2650000D02*
G75*
G02*
X9120000Y-2650000I40000J0D01*
G01*
X9240000Y-3950000D02*
G75*
G02*
X9160000Y-3950000I-40000J0D01*
G01*
X9160000Y-3950000D02*
G75*
G02*
X9240000Y-3950000I40000J0D01*
G01*
X9240000Y-4300000D02*
G75*
G02*
X9160000Y-4300000I-40000J0D01*
G01*
X9160000Y-4300000D02*
G75*
G02*
X9240000Y-4300000I40000J0D01*
G01*
X9290000Y-4850000D02*
G75*
G02*
X9210000Y-4850000I-40000J0D01*
G01*
X9210000Y-4850000D02*
G75*
G02*
X9290000Y-4850000I40000J0D01*
G01*
X9290000Y-5500000D02*
G75*
G02*
X9210000Y-5500000I-40000J0D01*
G01*
X9210000Y-5500000D02*
G75*
G02*
X9290000Y-5500000I40000J0D01*
G01*
X9290000Y-6000000D02*
G75*
G02*
X9210000Y-6000000I-40000J0D01*
G01*
X9210000Y-6000000D02*
G75*
G02*
X9290000Y-6000000I40000J0D01*
G01*
X9610000Y-5584000D02*
G75*
G02*
X9530000Y-5584000I-40000J0D01*
G01*
X9530000Y-5584000D02*
G75*
G02*
X9610000Y-5584000I40000J0D01*
G01*
X9610000Y-6600000D02*
G75*
G02*
X9530000Y-6600000I-40000J0D01*
G01*
X9530000Y-6600000D02*
G75*
G02*
X9610000Y-6600000I40000J0D01*
G01*
X9620000Y-2650000D02*
G75*
G02*
X9540000Y-2650000I-40000J0D01*
G01*
X9540000Y-2650000D02*
G75*
G02*
X9620000Y-2650000I40000J0D01*
G01*
X9640000Y-3350000D02*
G75*
G02*
X9560000Y-3350000I-40000J0D01*
G01*
X9560000Y-3350000D02*
G75*
G02*
X9640000Y-3350000I40000J0D01*
G01*
X9740000Y-3950000D02*
G75*
G02*
X9660000Y-3950000I-40000J0D01*
G01*
X9660000Y-3950000D02*
G75*
G02*
X9740000Y-3950000I40000J0D01*
G01*
X9740000Y-4300000D02*
G75*
G02*
X9660000Y-4300000I-40000J0D01*
G01*
X9660000Y-4300000D02*
G75*
G02*
X9740000Y-4300000I40000J0D01*
G01*
X9840000Y-4850000D02*
G75*
G02*
X9760000Y-4850000I-40000J0D01*
G01*
X9760000Y-4850000D02*
G75*
G02*
X9840000Y-4850000I40000J0D01*
G01*
X9890000Y-3350000D02*
G75*
G02*
X9810000Y-3350000I-40000J0D01*
G01*
X9810000Y-3350000D02*
G75*
G02*
X9890000Y-3350000I40000J0D01*
G01*
X9940000Y-5584000D02*
G75*
G02*
X9860000Y-5584000I-40000J0D01*
G01*
X9860000Y-5584000D02*
G75*
G02*
X9940000Y-5584000I40000J0D01*
G01*
X9940000Y-6600000D02*
G75*
G02*
X9860000Y-6600000I-40000J0D01*
G01*
X9860000Y-6600000D02*
G75*
G02*
X9940000Y-6600000I40000J0D01*
G01*
X9956000Y-7020000D02*
G75*
G02*
X9876000Y-7020000I-40000J0D01*
G01*
X9876000Y-7020000D02*
G75*
G02*
X9956000Y-7020000I40000J0D01*
G01*
X9956000Y-7480000D02*
G75*
G02*
X9876000Y-7480000I-40000J0D01*
G01*
X9876000Y-7480000D02*
G75*
G02*
X9956000Y-7480000I40000J0D01*
G01*
X10090000Y-4850000D02*
G75*
G02*
X10010000Y-4850000I-40000J0D01*
G01*
X10010000Y-4850000D02*
G75*
G02*
X10090000Y-4850000I40000J0D01*
G01*
X10270000Y-5584000D02*
G75*
G02*
X10190000Y-5584000I-40000J0D01*
G01*
X10190000Y-5584000D02*
G75*
G02*
X10270000Y-5584000I40000J0D01*
G01*
X10270000Y-6600000D02*
G75*
G02*
X10190000Y-6600000I-40000J0D01*
G01*
X10190000Y-6600000D02*
G75*
G02*
X10270000Y-6600000I40000J0D01*
G01*
X10340000Y-3350000D02*
G75*
G02*
X10260000Y-3350000I-40000J0D01*
G01*
X10260000Y-3350000D02*
G75*
G02*
X10340000Y-3350000I40000J0D01*
G01*
X10340000Y-4050000D02*
G75*
G02*
X10260000Y-4050000I-40000J0D01*
G01*
X10260000Y-4050000D02*
G75*
G02*
X10340000Y-4050000I40000J0D01*
G01*
X10590000Y-3350000D02*
G75*
G02*
X10510000Y-3350000I-40000J0D01*
G01*
X10510000Y-3350000D02*
G75*
G02*
X10590000Y-3350000I40000J0D01*
G01*
X10590000Y-4050000D02*
G75*
G02*
X10510000Y-4050000I-40000J0D01*
G01*
X10510000Y-4050000D02*
G75*
G02*
X10590000Y-4050000I40000J0D01*
G01*
X10600000Y-5584000D02*
G75*
G02*
X10520000Y-5584000I-40000J0D01*
G01*
X10520000Y-5584000D02*
G75*
G02*
X10600000Y-5584000I40000J0D01*
G01*
X10600000Y-6600000D02*
G75*
G02*
X10520000Y-6600000I-40000J0D01*
G01*
X10520000Y-6600000D02*
G75*
G02*
X10600000Y-6600000I40000J0D01*
G01*
X10200000Y-7055000D02*
X10200000Y-7145000D01*
X10155000Y-7100000D02*
X10245000Y-7100000D01*
X10454000Y-7055000D02*
X10454000Y-7145000D01*
X10409000Y-7100000D02*
X10499000Y-7100000D01*
X1223356Y-6083356D02*
X1223356Y-6012644D01*
X1152644Y-6012644D01*
X1152644Y-6083356D01*
X1223356Y-6083356D01*
X1223356Y-6337356D02*
X1223356Y-6266644D01*
X1152644Y-6266644D01*
X1152644Y-6337356D01*
X1223356Y-6337356D01*
X1223356Y-6591356D02*
X1223356Y-6520644D01*
X1152644Y-6520644D01*
X1152644Y-6591356D01*
X1223356Y-6591356D01*
X1223356Y-6845356D02*
X1223356Y-6774644D01*
X1152644Y-6774644D01*
X1152644Y-6845356D01*
X1223356Y-6845356D01*
X1223356Y-7099356D02*
X1223356Y-7028644D01*
X1152644Y-7028644D01*
X1152644Y-7099356D01*
X1223356Y-7099356D01*
X1223356Y-7353356D02*
X1223356Y-7282644D01*
X1152644Y-7282644D01*
X1152644Y-7353356D01*
X1223356Y-7353356D01*
X1223356Y-7607356D02*
X1223356Y-7536644D01*
X1152644Y-7536644D01*
X1152644Y-7607356D01*
X1223356Y-7607356D01*
X2747356Y-6083356D02*
X2747356Y-6012644D01*
X2676644Y-6012644D01*
X2676644Y-6083356D01*
X2747356Y-6083356D01*
X2747356Y-6337356D02*
X2747356Y-6266644D01*
X2676644Y-6266644D01*
X2676644Y-6337356D01*
X2747356Y-6337356D01*
X2747356Y-6591356D02*
X2747356Y-6520644D01*
X2676644Y-6520644D01*
X2676644Y-6591356D01*
X2747356Y-6591356D01*
X2747356Y-6845356D02*
X2747356Y-6774644D01*
X2676644Y-6774644D01*
X2676644Y-6845356D01*
X2747356Y-6845356D01*
X2747356Y-7099356D02*
X2747356Y-7028644D01*
X2676644Y-7028644D01*
X2676644Y-7099356D01*
X2747356Y-7099356D01*
X2747356Y-7353356D02*
X2747356Y-7282644D01*
X2676644Y-7282644D01*
X2676644Y-7353356D01*
X2747356Y-7353356D01*
X2747356Y-7607356D02*
X2747356Y-7536644D01*
X2676644Y-7536644D01*
X2676644Y-7607356D01*
X2747356Y-7607356D01*
X4485356Y-7335356D02*
X4485356Y-7264644D01*
X4414644Y-7264644D01*
X4414644Y-7335356D01*
X4485356Y-7335356D01*
X4739356Y-7335356D02*
X4739356Y-7264644D01*
X4668644Y-7264644D01*
X4668644Y-7335356D01*
X4739356Y-7335356D01*
X5247356Y-7335356D02*
X5247356Y-7264644D01*
X5176644Y-7264644D01*
X5176644Y-7335356D01*
X5247356Y-7335356D01*
X5501356Y-7335356D02*
X5501356Y-7264644D01*
X5430644Y-7264644D01*
X5430644Y-7335356D01*
X5501356Y-7335356D01*
X5755356Y-7335356D02*
X5755356Y-7264644D01*
X5684644Y-7264644D01*
X5684644Y-7335356D01*
X5755356Y-7335356D01*
D12*
X1321000Y-355000D02*
X1396000Y-280000D01*
X1321000Y-205000D01*
X1246000Y-280000D01*
X1321000Y-355000D01*
X1321000Y-990000D02*
X1396000Y-915000D01*
X1321000Y-840000D01*
X1246000Y-915000D01*
X1321000Y-990000D01*
X1321000Y-1625000D02*
X1396000Y-1550000D01*
X1321000Y-1475000D01*
X1246000Y-1550000D01*
X1321000Y-1625000D01*
X2464000Y-355000D02*
X2539000Y-280000D01*
X2464000Y-205000D01*
X2389000Y-280000D01*
X2464000Y-355000D01*
X2464000Y-990000D02*
X2539000Y-915000D01*
X2464000Y-840000D01*
X2389000Y-915000D01*
X2464000Y-990000D01*
X2464000Y-1625000D02*
X2539000Y-1550000D01*
X2464000Y-1475000D01*
X2389000Y-1550000D01*
X2464000Y-1625000D01*
X3321000Y-355000D02*
X3396000Y-280000D01*
X3321000Y-205000D01*
X3246000Y-280000D01*
X3321000Y-355000D01*
X3321000Y-990000D02*
X3396000Y-915000D01*
X3321000Y-840000D01*
X3246000Y-915000D01*
X3321000Y-990000D01*
X3321000Y-1625000D02*
X3396000Y-1550000D01*
X3321000Y-1475000D01*
X3246000Y-1550000D01*
X3321000Y-1625000D01*
X4464000Y-355000D02*
X4539000Y-280000D01*
X4464000Y-205000D01*
X4389000Y-280000D01*
X4464000Y-355000D01*
X4464000Y-990000D02*
X4539000Y-915000D01*
X4464000Y-840000D01*
X4389000Y-915000D01*
X4464000Y-990000D01*
X4464000Y-1625000D02*
X4539000Y-1550000D01*
X4464000Y-1475000D01*
X4389000Y-1550000D01*
X4464000Y-1625000D01*
X6221000Y-355000D02*
X6296000Y-280000D01*
X6221000Y-205000D01*
X6146000Y-280000D01*
X6221000Y-355000D01*
X6221000Y-990000D02*
X6296000Y-915000D01*
X6221000Y-840000D01*
X6146000Y-915000D01*
X6221000Y-990000D01*
X6221000Y-1625000D02*
X6296000Y-1550000D01*
X6221000Y-1475000D01*
X6146000Y-1550000D01*
X6221000Y-1625000D01*
X7364000Y-355000D02*
X7439000Y-280000D01*
X7364000Y-205000D01*
X7289000Y-280000D01*
X7364000Y-355000D01*
X7364000Y-990000D02*
X7439000Y-915000D01*
X7364000Y-840000D01*
X7289000Y-915000D01*
X7364000Y-990000D01*
X7364000Y-1625000D02*
X7439000Y-1550000D01*
X7364000Y-1475000D01*
X7289000Y-1550000D01*
X7364000Y-1625000D01*
X8421000Y-355000D02*
X8496000Y-280000D01*
X8421000Y-205000D01*
X8346000Y-280000D01*
X8421000Y-355000D01*
X8421000Y-990000D02*
X8496000Y-915000D01*
X8421000Y-840000D01*
X8346000Y-915000D01*
X8421000Y-990000D01*
X8421000Y-1625000D02*
X8496000Y-1550000D01*
X8421000Y-1475000D01*
X8346000Y-1550000D01*
X8421000Y-1625000D01*
X9564000Y-355000D02*
X9639000Y-280000D01*
X9564000Y-205000D01*
X9489000Y-280000D01*
X9564000Y-355000D01*
X9564000Y-990000D02*
X9639000Y-915000D01*
X9564000Y-840000D01*
X9489000Y-915000D01*
X9564000Y-990000D01*
X9564000Y-1625000D02*
X9639000Y-1550000D01*
X9564000Y-1475000D01*
X9489000Y-1550000D01*
X9564000Y-1625000D01*
D11*
X1221000Y-500000D02*
X1421000Y-700000D01*
X1421000Y-500000D02*
X1221000Y-700000D01*
X1421000Y-600000D02*
G75*
G02*
X1221000Y-600000I-100000J0D01*
G01*
X1221000Y-600000D02*
G75*
G02*
X1421000Y-600000I100000J0D01*
G01*
X2364000Y-500000D02*
X2564000Y-700000D01*
X2564000Y-500000D02*
X2364000Y-700000D01*
X2564000Y-600000D02*
G75*
G02*
X2364000Y-600000I-100000J0D01*
G01*
X2364000Y-600000D02*
G75*
G02*
X2564000Y-600000I100000J0D01*
G01*
X3221000Y-500000D02*
X3421000Y-700000D01*
X3421000Y-500000D02*
X3221000Y-700000D01*
X3421000Y-600000D02*
G75*
G02*
X3221000Y-600000I-100000J0D01*
G01*
X3221000Y-600000D02*
G75*
G02*
X3421000Y-600000I100000J0D01*
G01*
X4364000Y-500000D02*
X4564000Y-700000D01*
X4564000Y-500000D02*
X4364000Y-700000D01*
X4564000Y-600000D02*
G75*
G02*
X4364000Y-600000I-100000J0D01*
G01*
X4364000Y-600000D02*
G75*
G02*
X4564000Y-600000I100000J0D01*
G01*
X6121000Y-500000D02*
X6321000Y-700000D01*
X6321000Y-500000D02*
X6121000Y-700000D01*
X6321000Y-600000D02*
G75*
G02*
X6121000Y-600000I-100000J0D01*
G01*
X6121000Y-600000D02*
G75*
G02*
X6321000Y-600000I100000J0D01*
G01*
X7264000Y-500000D02*
X7464000Y-700000D01*
X7464000Y-500000D02*
X7264000Y-700000D01*
X7464000Y-600000D02*
G75*
G02*
X7264000Y-600000I-100000J0D01*
G01*
X7264000Y-600000D02*
G75*
G02*
X7464000Y-600000I100000J0D01*
G01*
X8321000Y-500000D02*
X8521000Y-700000D01*
X8521000Y-500000D02*
X8321000Y-700000D01*
X8521000Y-600000D02*
G75*
G02*
X8321000Y-600000I-100000J0D01*
G01*
X8321000Y-600000D02*
G75*
G02*
X8521000Y-600000I100000J0D01*
G01*
X9464000Y-500000D02*
X9664000Y-700000D01*
X9664000Y-500000D02*
X9464000Y-700000D01*
X9664000Y-600000D02*
G75*
G02*
X9464000Y-600000I-100000J0D01*
G01*
X9464000Y-600000D02*
G75*
G02*
X9664000Y-600000I100000J0D01*
G01*
D13*
X1384000Y-1085000D02*
X1684000Y-1385000D01*
X1684000Y-1085000D02*
X1384000Y-1385000D01*
X1534000Y-1085000D02*
X1534000Y-1385000D01*
X1384000Y-1235000D02*
X1684000Y-1235000D01*
X3384000Y-1085000D02*
X3684000Y-1385000D01*
X3684000Y-1085000D02*
X3384000Y-1385000D01*
X3534000Y-1085000D02*
X3534000Y-1385000D01*
X3384000Y-1235000D02*
X3684000Y-1235000D01*
X6284000Y-1085000D02*
X6584000Y-1385000D01*
X6584000Y-1085000D02*
X6284000Y-1385000D01*
X6434000Y-1085000D02*
X6434000Y-1385000D01*
X6284000Y-1235000D02*
X6584000Y-1235000D01*
X8484000Y-1085000D02*
X8784000Y-1385000D01*
X8784000Y-1085000D02*
X8484000Y-1385000D01*
X8634000Y-1085000D02*
X8634000Y-1385000D01*
X8484000Y-1235000D02*
X8784000Y-1235000D01*
D11*
X255777Y-8316484D02*
X255777Y-8116484D01*
X255777Y-8116484D02*
X303396Y-8116484D01*
X303396Y-8116484D02*
X331967Y-8126008D01*
X331967Y-8126008D02*
X351015Y-8145055D01*
X351015Y-8145055D02*
X360539Y-8164103D01*
X360539Y-8164103D02*
X370062Y-8202198D01*
X370062Y-8202198D02*
X370062Y-8230769D01*
X370062Y-8230769D02*
X360539Y-8268865D01*
X360539Y-8268865D02*
X351015Y-8287912D01*
X351015Y-8287912D02*
X331967Y-8306960D01*
X331967Y-8306960D02*
X303396Y-8316484D01*
X303396Y-8316484D02*
X255777Y-8316484D01*
X455777Y-8316484D02*
X455777Y-8183150D01*
X455777Y-8221246D02*
X465301Y-8202198D01*
X465301Y-8202198D02*
X474824Y-8192674D01*
X474824Y-8192674D02*
X493872Y-8183150D01*
X493872Y-8183150D02*
X512920Y-8183150D01*
X579586Y-8316484D02*
X579586Y-8183150D01*
X579586Y-8116484D02*
X570063Y-8126008D01*
X570063Y-8126008D02*
X579586Y-8135531D01*
X579586Y-8135531D02*
X589110Y-8126008D01*
X589110Y-8126008D02*
X579586Y-8116484D01*
X579586Y-8116484D02*
X579586Y-8135531D01*
X703396Y-8316484D02*
X684348Y-8306960D01*
X684348Y-8306960D02*
X674824Y-8287912D01*
X674824Y-8287912D02*
X674824Y-8116484D01*
X808158Y-8316484D02*
X789110Y-8306960D01*
X789110Y-8306960D02*
X779586Y-8287912D01*
X779586Y-8287912D02*
X779586Y-8116484D01*
X1036729Y-8316484D02*
X1036729Y-8116484D01*
X1036729Y-8116484D02*
X1103396Y-8259341D01*
X1103396Y-8259341D02*
X1170063Y-8116484D01*
X1170063Y-8116484D02*
X1170063Y-8316484D01*
X1351015Y-8316484D02*
X1351015Y-8211722D01*
X1351015Y-8211722D02*
X1341491Y-8192674D01*
X1341491Y-8192674D02*
X1322444Y-8183150D01*
X1322444Y-8183150D02*
X1284348Y-8183150D01*
X1284348Y-8183150D02*
X1265301Y-8192674D01*
X1351015Y-8306960D02*
X1331967Y-8316484D01*
X1331967Y-8316484D02*
X1284348Y-8316484D01*
X1284348Y-8316484D02*
X1265301Y-8306960D01*
X1265301Y-8306960D02*
X1255777Y-8287912D01*
X1255777Y-8287912D02*
X1255777Y-8268865D01*
X1255777Y-8268865D02*
X1265301Y-8249817D01*
X1265301Y-8249817D02*
X1284348Y-8240293D01*
X1284348Y-8240293D02*
X1331967Y-8240293D01*
X1331967Y-8240293D02*
X1351015Y-8230769D01*
X1446253Y-8183150D02*
X1446253Y-8383150D01*
X1446253Y-8192674D02*
X1465301Y-8183150D01*
X1465301Y-8183150D02*
X1503396Y-8183150D01*
X1503396Y-8183150D02*
X1522443Y-8192674D01*
X1522443Y-8192674D02*
X1531967Y-8202198D01*
X1531967Y-8202198D02*
X1541491Y-8221246D01*
X1541491Y-8221246D02*
X1541491Y-8278388D01*
X1541491Y-8278388D02*
X1531967Y-8297436D01*
X1531967Y-8297436D02*
X1522443Y-8306960D01*
X1522443Y-8306960D02*
X1503396Y-8316484D01*
X1503396Y-8316484D02*
X1465301Y-8316484D01*
X1465301Y-8316484D02*
X1446253Y-8306960D01*
X1627205Y-8297436D02*
X1636729Y-8306960D01*
X1636729Y-8306960D02*
X1627205Y-8316484D01*
X1627205Y-8316484D02*
X1617682Y-8306960D01*
X1617682Y-8306960D02*
X1627205Y-8297436D01*
X1627205Y-8297436D02*
X1627205Y-8316484D01*
X1627205Y-8192674D02*
X1636729Y-8202198D01*
X1636729Y-8202198D02*
X1627205Y-8211722D01*
X1627205Y-8211722D02*
X1617682Y-8202198D01*
X1617682Y-8202198D02*
X1627205Y-8192674D01*
X1627205Y-8192674D02*
X1627205Y-8211722D01*
D10*
X-45000Y-8625000D02*
X-5000Y-8665000D01*
X-5000Y-8625000D02*
X-45000Y-8665000D01*
D11*
X293872Y-8536484D02*
X312920Y-8536484D01*
X312920Y-8536484D02*
X331967Y-8546008D01*
X331967Y-8546008D02*
X341491Y-8555531D01*
X341491Y-8555531D02*
X351015Y-8574579D01*
X351015Y-8574579D02*
X360539Y-8612674D01*
X360539Y-8612674D02*
X360539Y-8660293D01*
X360539Y-8660293D02*
X351015Y-8698389D01*
X351015Y-8698389D02*
X341491Y-8717436D01*
X341491Y-8717436D02*
X331967Y-8726960D01*
X331967Y-8726960D02*
X312920Y-8736484D01*
X312920Y-8736484D02*
X293872Y-8736484D01*
X293872Y-8736484D02*
X274824Y-8726960D01*
X274824Y-8726960D02*
X265301Y-8717436D01*
X265301Y-8717436D02*
X255777Y-8698389D01*
X255777Y-8698389D02*
X246253Y-8660293D01*
X246253Y-8660293D02*
X246253Y-8612674D01*
X246253Y-8612674D02*
X255777Y-8574579D01*
X255777Y-8574579D02*
X265301Y-8555531D01*
X265301Y-8555531D02*
X274824Y-8546008D01*
X274824Y-8546008D02*
X293872Y-8536484D01*
X446253Y-8717436D02*
X455777Y-8726960D01*
X455777Y-8726960D02*
X446253Y-8736484D01*
X446253Y-8736484D02*
X436729Y-8726960D01*
X436729Y-8726960D02*
X446253Y-8717436D01*
X446253Y-8717436D02*
X446253Y-8736484D01*
X627205Y-8603150D02*
X627205Y-8736484D01*
X579586Y-8526960D02*
X531967Y-8669817D01*
X531967Y-8669817D02*
X655777Y-8669817D01*
X770062Y-8536484D02*
X789110Y-8536484D01*
X789110Y-8536484D02*
X808158Y-8546008D01*
X808158Y-8546008D02*
X817682Y-8555531D01*
X817682Y-8555531D02*
X827205Y-8574579D01*
X827205Y-8574579D02*
X836729Y-8612674D01*
X836729Y-8612674D02*
X836729Y-8660293D01*
X836729Y-8660293D02*
X827205Y-8698389D01*
X827205Y-8698389D02*
X817682Y-8717436D01*
X817682Y-8717436D02*
X808158Y-8726960D01*
X808158Y-8726960D02*
X789110Y-8736484D01*
X789110Y-8736484D02*
X770062Y-8736484D01*
X770062Y-8736484D02*
X751015Y-8726960D01*
X751015Y-8726960D02*
X741491Y-8717436D01*
X741491Y-8717436D02*
X731967Y-8698389D01*
X731967Y-8698389D02*
X722443Y-8660293D01*
X722443Y-8660293D02*
X722443Y-8612674D01*
X722443Y-8612674D02*
X731967Y-8574579D01*
X731967Y-8574579D02*
X741491Y-8555531D01*
X741491Y-8555531D02*
X751015Y-8546008D01*
X751015Y-8546008D02*
X770062Y-8536484D01*
X960539Y-8536484D02*
X979586Y-8536484D01*
X979586Y-8536484D02*
X998634Y-8546008D01*
X998634Y-8546008D02*
X1008158Y-8555531D01*
X1008158Y-8555531D02*
X1017682Y-8574579D01*
X1017682Y-8574579D02*
X1027205Y-8612674D01*
X1027205Y-8612674D02*
X1027205Y-8660293D01*
X1027205Y-8660293D02*
X1017682Y-8698389D01*
X1017682Y-8698389D02*
X1008158Y-8717436D01*
X1008158Y-8717436D02*
X998634Y-8726960D01*
X998634Y-8726960D02*
X979586Y-8736484D01*
X979586Y-8736484D02*
X960539Y-8736484D01*
X960539Y-8736484D02*
X941491Y-8726960D01*
X941491Y-8726960D02*
X931967Y-8717436D01*
X931967Y-8717436D02*
X922443Y-8698389D01*
X922443Y-8698389D02*
X912920Y-8660293D01*
X912920Y-8660293D02*
X912920Y-8612674D01*
X912920Y-8612674D02*
X922443Y-8574579D01*
X922443Y-8574579D02*
X931967Y-8555531D01*
X931967Y-8555531D02*
X941491Y-8546008D01*
X941491Y-8546008D02*
X960539Y-8536484D01*
X1112920Y-8736484D02*
X1112920Y-8603150D01*
X1112920Y-8622198D02*
X1122444Y-8612674D01*
X1122444Y-8612674D02*
X1141491Y-8603150D01*
X1141491Y-8603150D02*
X1170063Y-8603150D01*
X1170063Y-8603150D02*
X1189110Y-8612674D01*
X1189110Y-8612674D02*
X1198634Y-8631722D01*
X1198634Y-8631722D02*
X1198634Y-8736484D01*
X1198634Y-8631722D02*
X1208158Y-8612674D01*
X1208158Y-8612674D02*
X1227205Y-8603150D01*
X1227205Y-8603150D02*
X1255777Y-8603150D01*
X1255777Y-8603150D02*
X1274825Y-8612674D01*
X1274825Y-8612674D02*
X1284348Y-8631722D01*
X1284348Y-8631722D02*
X1284348Y-8736484D01*
X1379586Y-8736484D02*
X1379586Y-8603150D01*
X1379586Y-8622198D02*
X1389110Y-8612674D01*
X1389110Y-8612674D02*
X1408158Y-8603150D01*
X1408158Y-8603150D02*
X1436729Y-8603150D01*
X1436729Y-8603150D02*
X1455777Y-8612674D01*
X1455777Y-8612674D02*
X1465301Y-8631722D01*
X1465301Y-8631722D02*
X1465301Y-8736484D01*
X1465301Y-8631722D02*
X1474824Y-8612674D01*
X1474824Y-8612674D02*
X1493872Y-8603150D01*
X1493872Y-8603150D02*
X1522443Y-8603150D01*
X1522443Y-8603150D02*
X1541491Y-8612674D01*
X1541491Y-8612674D02*
X1551015Y-8631722D01*
X1551015Y-8631722D02*
X1551015Y-8736484D01*
X1941491Y-8526960D02*
X1770063Y-8784103D01*
X2198634Y-8536484D02*
X2217682Y-8536484D01*
X2217682Y-8536484D02*
X2236729Y-8546008D01*
X2236729Y-8546008D02*
X2246253Y-8555531D01*
X2246253Y-8555531D02*
X2255777Y-8574579D01*
X2255777Y-8574579D02*
X2265301Y-8612674D01*
X2265301Y-8612674D02*
X2265301Y-8660293D01*
X2265301Y-8660293D02*
X2255777Y-8698389D01*
X2255777Y-8698389D02*
X2246253Y-8717436D01*
X2246253Y-8717436D02*
X2236729Y-8726960D01*
X2236729Y-8726960D02*
X2217682Y-8736484D01*
X2217682Y-8736484D02*
X2198634Y-8736484D01*
X2198634Y-8736484D02*
X2179587Y-8726960D01*
X2179587Y-8726960D02*
X2170063Y-8717436D01*
X2170063Y-8717436D02*
X2160539Y-8698389D01*
X2160539Y-8698389D02*
X2151015Y-8660293D01*
X2151015Y-8660293D02*
X2151015Y-8612674D01*
X2151015Y-8612674D02*
X2160539Y-8574579D01*
X2160539Y-8574579D02*
X2170063Y-8555531D01*
X2170063Y-8555531D02*
X2179587Y-8546008D01*
X2179587Y-8546008D02*
X2198634Y-8536484D01*
X2351015Y-8717436D02*
X2360539Y-8726960D01*
X2360539Y-8726960D02*
X2351015Y-8736484D01*
X2351015Y-8736484D02*
X2341491Y-8726960D01*
X2341491Y-8726960D02*
X2351015Y-8717436D01*
X2351015Y-8717436D02*
X2351015Y-8736484D01*
X2484348Y-8536484D02*
X2503396Y-8536484D01*
X2503396Y-8536484D02*
X2522444Y-8546008D01*
X2522444Y-8546008D02*
X2531968Y-8555531D01*
X2531968Y-8555531D02*
X2541491Y-8574579D01*
X2541491Y-8574579D02*
X2551015Y-8612674D01*
X2551015Y-8612674D02*
X2551015Y-8660293D01*
X2551015Y-8660293D02*
X2541491Y-8698389D01*
X2541491Y-8698389D02*
X2531968Y-8717436D01*
X2531968Y-8717436D02*
X2522444Y-8726960D01*
X2522444Y-8726960D02*
X2503396Y-8736484D01*
X2503396Y-8736484D02*
X2484348Y-8736484D01*
X2484348Y-8736484D02*
X2465301Y-8726960D01*
X2465301Y-8726960D02*
X2455777Y-8717436D01*
X2455777Y-8717436D02*
X2446253Y-8698389D01*
X2446253Y-8698389D02*
X2436729Y-8660293D01*
X2436729Y-8660293D02*
X2436729Y-8612674D01*
X2436729Y-8612674D02*
X2446253Y-8574579D01*
X2446253Y-8574579D02*
X2455777Y-8555531D01*
X2455777Y-8555531D02*
X2465301Y-8546008D01*
X2465301Y-8546008D02*
X2484348Y-8536484D01*
X2741491Y-8736484D02*
X2627206Y-8736484D01*
X2684348Y-8736484D02*
X2684348Y-8536484D01*
X2684348Y-8536484D02*
X2665301Y-8565055D01*
X2665301Y-8565055D02*
X2646253Y-8584103D01*
X2646253Y-8584103D02*
X2627206Y-8593627D01*
X2922444Y-8536484D02*
X2827206Y-8536484D01*
X2827206Y-8536484D02*
X2817682Y-8631722D01*
X2817682Y-8631722D02*
X2827206Y-8622198D01*
X2827206Y-8622198D02*
X2846253Y-8612674D01*
X2846253Y-8612674D02*
X2893872Y-8612674D01*
X2893872Y-8612674D02*
X2912920Y-8622198D01*
X2912920Y-8622198D02*
X2922444Y-8631722D01*
X2922444Y-8631722D02*
X2931967Y-8650770D01*
X2931967Y-8650770D02*
X2931967Y-8698389D01*
X2931967Y-8698389D02*
X2922444Y-8717436D01*
X2922444Y-8717436D02*
X2912920Y-8726960D01*
X2912920Y-8726960D02*
X2893872Y-8736484D01*
X2893872Y-8736484D02*
X2846253Y-8736484D01*
X2846253Y-8736484D02*
X2827206Y-8726960D01*
X2827206Y-8726960D02*
X2817682Y-8717436D01*
X2998634Y-8536484D02*
X3131967Y-8536484D01*
X3131967Y-8536484D02*
X3046253Y-8736484D01*
X3198634Y-8536484D02*
X3198634Y-8574579D01*
X3274825Y-8536484D02*
X3274825Y-8574579D01*
X3570063Y-8812674D02*
X3560539Y-8803150D01*
X3560539Y-8803150D02*
X3541491Y-8774579D01*
X3541491Y-8774579D02*
X3531968Y-8755531D01*
X3531968Y-8755531D02*
X3522444Y-8726960D01*
X3522444Y-8726960D02*
X3512920Y-8679341D01*
X3512920Y-8679341D02*
X3512920Y-8641246D01*
X3512920Y-8641246D02*
X3522444Y-8593627D01*
X3522444Y-8593627D02*
X3531968Y-8565055D01*
X3531968Y-8565055D02*
X3541491Y-8546008D01*
X3541491Y-8546008D02*
X3560539Y-8517436D01*
X3560539Y-8517436D02*
X3570063Y-8507912D01*
X3627206Y-8536484D02*
X3760539Y-8536484D01*
X3760539Y-8536484D02*
X3674825Y-8736484D01*
X3989110Y-8736484D02*
X3989110Y-8536484D01*
X4074825Y-8736484D02*
X4074825Y-8631722D01*
X4074825Y-8631722D02*
X4065301Y-8612674D01*
X4065301Y-8612674D02*
X4046253Y-8603150D01*
X4046253Y-8603150D02*
X4017682Y-8603150D01*
X4017682Y-8603150D02*
X3998634Y-8612674D01*
X3998634Y-8612674D02*
X3989110Y-8622198D01*
X4198634Y-8736484D02*
X4179587Y-8726960D01*
X4179587Y-8726960D02*
X4170063Y-8717436D01*
X4170063Y-8717436D02*
X4160539Y-8698389D01*
X4160539Y-8698389D02*
X4160539Y-8641246D01*
X4160539Y-8641246D02*
X4170063Y-8622198D01*
X4170063Y-8622198D02*
X4179587Y-8612674D01*
X4179587Y-8612674D02*
X4198634Y-8603150D01*
X4198634Y-8603150D02*
X4227206Y-8603150D01*
X4227206Y-8603150D02*
X4246253Y-8612674D01*
X4246253Y-8612674D02*
X4255777Y-8622198D01*
X4255777Y-8622198D02*
X4265301Y-8641246D01*
X4265301Y-8641246D02*
X4265301Y-8698389D01*
X4265301Y-8698389D02*
X4255777Y-8717436D01*
X4255777Y-8717436D02*
X4246253Y-8726960D01*
X4246253Y-8726960D02*
X4227206Y-8736484D01*
X4227206Y-8736484D02*
X4198634Y-8736484D01*
X4379587Y-8736484D02*
X4360539Y-8726960D01*
X4360539Y-8726960D02*
X4351015Y-8707912D01*
X4351015Y-8707912D02*
X4351015Y-8536484D01*
X4531968Y-8726960D02*
X4512920Y-8736484D01*
X4512920Y-8736484D02*
X4474825Y-8736484D01*
X4474825Y-8736484D02*
X4455777Y-8726960D01*
X4455777Y-8726960D02*
X4446253Y-8707912D01*
X4446253Y-8707912D02*
X4446253Y-8631722D01*
X4446253Y-8631722D02*
X4455777Y-8612674D01*
X4455777Y-8612674D02*
X4474825Y-8603150D01*
X4474825Y-8603150D02*
X4512920Y-8603150D01*
X4512920Y-8603150D02*
X4531968Y-8612674D01*
X4531968Y-8612674D02*
X4541492Y-8631722D01*
X4541492Y-8631722D02*
X4541492Y-8650770D01*
X4541492Y-8650770D02*
X4446253Y-8669817D01*
X4617682Y-8726960D02*
X4636730Y-8736484D01*
X4636730Y-8736484D02*
X4674825Y-8736484D01*
X4674825Y-8736484D02*
X4693873Y-8726960D01*
X4693873Y-8726960D02*
X4703396Y-8707912D01*
X4703396Y-8707912D02*
X4703396Y-8698389D01*
X4703396Y-8698389D02*
X4693873Y-8679341D01*
X4693873Y-8679341D02*
X4674825Y-8669817D01*
X4674825Y-8669817D02*
X4646253Y-8669817D01*
X4646253Y-8669817D02*
X4627206Y-8660293D01*
X4627206Y-8660293D02*
X4617682Y-8641246D01*
X4617682Y-8641246D02*
X4617682Y-8631722D01*
X4617682Y-8631722D02*
X4627206Y-8612674D01*
X4627206Y-8612674D02*
X4646253Y-8603150D01*
X4646253Y-8603150D02*
X4674825Y-8603150D01*
X4674825Y-8603150D02*
X4693873Y-8612674D01*
X4770063Y-8812674D02*
X4779587Y-8803150D01*
X4779587Y-8803150D02*
X4798634Y-8774579D01*
X4798634Y-8774579D02*
X4808158Y-8755531D01*
X4808158Y-8755531D02*
X4817682Y-8726960D01*
X4817682Y-8726960D02*
X4827206Y-8679341D01*
X4827206Y-8679341D02*
X4827206Y-8641246D01*
X4827206Y-8641246D02*
X4817682Y-8593627D01*
X4817682Y-8593627D02*
X4808158Y-8565055D01*
X4808158Y-8565055D02*
X4798634Y-8546008D01*
X4798634Y-8546008D02*
X4779587Y-8517436D01*
X4779587Y-8517436D02*
X4770063Y-8507912D01*
D10*
X-5000Y-8909000D02*
G75*
G02*
X-85000Y-8909000I-40000J0D01*
G01*
X-85000Y-8909000D02*
G75*
G02*
X-5000Y-8909000I40000J0D01*
G01*
D11*
X293872Y-8800484D02*
X312920Y-8800484D01*
X312920Y-8800484D02*
X331967Y-8810008D01*
X331967Y-8810008D02*
X341491Y-8819531D01*
X341491Y-8819531D02*
X351015Y-8838579D01*
X351015Y-8838579D02*
X360539Y-8876674D01*
X360539Y-8876674D02*
X360539Y-8924293D01*
X360539Y-8924293D02*
X351015Y-8962389D01*
X351015Y-8962389D02*
X341491Y-8981436D01*
X341491Y-8981436D02*
X331967Y-8990960D01*
X331967Y-8990960D02*
X312920Y-9000484D01*
X312920Y-9000484D02*
X293872Y-9000484D01*
X293872Y-9000484D02*
X274824Y-8990960D01*
X274824Y-8990960D02*
X265301Y-8981436D01*
X265301Y-8981436D02*
X255777Y-8962389D01*
X255777Y-8962389D02*
X246253Y-8924293D01*
X246253Y-8924293D02*
X246253Y-8876674D01*
X246253Y-8876674D02*
X255777Y-8838579D01*
X255777Y-8838579D02*
X265301Y-8819531D01*
X265301Y-8819531D02*
X274824Y-8810008D01*
X274824Y-8810008D02*
X293872Y-8800484D01*
X446253Y-8981436D02*
X455777Y-8990960D01*
X455777Y-8990960D02*
X446253Y-9000484D01*
X446253Y-9000484D02*
X436729Y-8990960D01*
X436729Y-8990960D02*
X446253Y-8981436D01*
X446253Y-8981436D02*
X446253Y-9000484D01*
X570063Y-8886198D02*
X551015Y-8876674D01*
X551015Y-8876674D02*
X541491Y-8867150D01*
X541491Y-8867150D02*
X531967Y-8848103D01*
X531967Y-8848103D02*
X531967Y-8838579D01*
X531967Y-8838579D02*
X541491Y-8819531D01*
X541491Y-8819531D02*
X551015Y-8810008D01*
X551015Y-8810008D02*
X570063Y-8800484D01*
X570063Y-8800484D02*
X608158Y-8800484D01*
X608158Y-8800484D02*
X627205Y-8810008D01*
X627205Y-8810008D02*
X636729Y-8819531D01*
X636729Y-8819531D02*
X646253Y-8838579D01*
X646253Y-8838579D02*
X646253Y-8848103D01*
X646253Y-8848103D02*
X636729Y-8867150D01*
X636729Y-8867150D02*
X627205Y-8876674D01*
X627205Y-8876674D02*
X608158Y-8886198D01*
X608158Y-8886198D02*
X570063Y-8886198D01*
X570063Y-8886198D02*
X551015Y-8895722D01*
X551015Y-8895722D02*
X541491Y-8905246D01*
X541491Y-8905246D02*
X531967Y-8924293D01*
X531967Y-8924293D02*
X531967Y-8962389D01*
X531967Y-8962389D02*
X541491Y-8981436D01*
X541491Y-8981436D02*
X551015Y-8990960D01*
X551015Y-8990960D02*
X570063Y-9000484D01*
X570063Y-9000484D02*
X608158Y-9000484D01*
X608158Y-9000484D02*
X627205Y-8990960D01*
X627205Y-8990960D02*
X636729Y-8981436D01*
X636729Y-8981436D02*
X646253Y-8962389D01*
X646253Y-8962389D02*
X646253Y-8924293D01*
X646253Y-8924293D02*
X636729Y-8905246D01*
X636729Y-8905246D02*
X627205Y-8895722D01*
X627205Y-8895722D02*
X608158Y-8886198D01*
X770062Y-8800484D02*
X789110Y-8800484D01*
X789110Y-8800484D02*
X808158Y-8810008D01*
X808158Y-8810008D02*
X817682Y-8819531D01*
X817682Y-8819531D02*
X827205Y-8838579D01*
X827205Y-8838579D02*
X836729Y-8876674D01*
X836729Y-8876674D02*
X836729Y-8924293D01*
X836729Y-8924293D02*
X827205Y-8962389D01*
X827205Y-8962389D02*
X817682Y-8981436D01*
X817682Y-8981436D02*
X808158Y-8990960D01*
X808158Y-8990960D02*
X789110Y-9000484D01*
X789110Y-9000484D02*
X770062Y-9000484D01*
X770062Y-9000484D02*
X751015Y-8990960D01*
X751015Y-8990960D02*
X741491Y-8981436D01*
X741491Y-8981436D02*
X731967Y-8962389D01*
X731967Y-8962389D02*
X722443Y-8924293D01*
X722443Y-8924293D02*
X722443Y-8876674D01*
X722443Y-8876674D02*
X731967Y-8838579D01*
X731967Y-8838579D02*
X741491Y-8819531D01*
X741491Y-8819531D02*
X751015Y-8810008D01*
X751015Y-8810008D02*
X770062Y-8800484D01*
X960539Y-8800484D02*
X979586Y-8800484D01*
X979586Y-8800484D02*
X998634Y-8810008D01*
X998634Y-8810008D02*
X1008158Y-8819531D01*
X1008158Y-8819531D02*
X1017682Y-8838579D01*
X1017682Y-8838579D02*
X1027205Y-8876674D01*
X1027205Y-8876674D02*
X1027205Y-8924293D01*
X1027205Y-8924293D02*
X1017682Y-8962389D01*
X1017682Y-8962389D02*
X1008158Y-8981436D01*
X1008158Y-8981436D02*
X998634Y-8990960D01*
X998634Y-8990960D02*
X979586Y-9000484D01*
X979586Y-9000484D02*
X960539Y-9000484D01*
X960539Y-9000484D02*
X941491Y-8990960D01*
X941491Y-8990960D02*
X931967Y-8981436D01*
X931967Y-8981436D02*
X922443Y-8962389D01*
X922443Y-8962389D02*
X912920Y-8924293D01*
X912920Y-8924293D02*
X912920Y-8876674D01*
X912920Y-8876674D02*
X922443Y-8838579D01*
X922443Y-8838579D02*
X931967Y-8819531D01*
X931967Y-8819531D02*
X941491Y-8810008D01*
X941491Y-8810008D02*
X960539Y-8800484D01*
X1112920Y-9000484D02*
X1112920Y-8867150D01*
X1112920Y-8886198D02*
X1122444Y-8876674D01*
X1122444Y-8876674D02*
X1141491Y-8867150D01*
X1141491Y-8867150D02*
X1170063Y-8867150D01*
X1170063Y-8867150D02*
X1189110Y-8876674D01*
X1189110Y-8876674D02*
X1198634Y-8895722D01*
X1198634Y-8895722D02*
X1198634Y-9000484D01*
X1198634Y-8895722D02*
X1208158Y-8876674D01*
X1208158Y-8876674D02*
X1227205Y-8867150D01*
X1227205Y-8867150D02*
X1255777Y-8867150D01*
X1255777Y-8867150D02*
X1274825Y-8876674D01*
X1274825Y-8876674D02*
X1284348Y-8895722D01*
X1284348Y-8895722D02*
X1284348Y-9000484D01*
X1379586Y-9000484D02*
X1379586Y-8867150D01*
X1379586Y-8886198D02*
X1389110Y-8876674D01*
X1389110Y-8876674D02*
X1408158Y-8867150D01*
X1408158Y-8867150D02*
X1436729Y-8867150D01*
X1436729Y-8867150D02*
X1455777Y-8876674D01*
X1455777Y-8876674D02*
X1465301Y-8895722D01*
X1465301Y-8895722D02*
X1465301Y-9000484D01*
X1465301Y-8895722D02*
X1474824Y-8876674D01*
X1474824Y-8876674D02*
X1493872Y-8867150D01*
X1493872Y-8867150D02*
X1522443Y-8867150D01*
X1522443Y-8867150D02*
X1541491Y-8876674D01*
X1541491Y-8876674D02*
X1551015Y-8895722D01*
X1551015Y-8895722D02*
X1551015Y-9000484D01*
X1941491Y-8790960D02*
X1770063Y-9048103D01*
X2198634Y-8800484D02*
X2217682Y-8800484D01*
X2217682Y-8800484D02*
X2236729Y-8810008D01*
X2236729Y-8810008D02*
X2246253Y-8819531D01*
X2246253Y-8819531D02*
X2255777Y-8838579D01*
X2255777Y-8838579D02*
X2265301Y-8876674D01*
X2265301Y-8876674D02*
X2265301Y-8924293D01*
X2265301Y-8924293D02*
X2255777Y-8962389D01*
X2255777Y-8962389D02*
X2246253Y-8981436D01*
X2246253Y-8981436D02*
X2236729Y-8990960D01*
X2236729Y-8990960D02*
X2217682Y-9000484D01*
X2217682Y-9000484D02*
X2198634Y-9000484D01*
X2198634Y-9000484D02*
X2179587Y-8990960D01*
X2179587Y-8990960D02*
X2170063Y-8981436D01*
X2170063Y-8981436D02*
X2160539Y-8962389D01*
X2160539Y-8962389D02*
X2151015Y-8924293D01*
X2151015Y-8924293D02*
X2151015Y-8876674D01*
X2151015Y-8876674D02*
X2160539Y-8838579D01*
X2160539Y-8838579D02*
X2170063Y-8819531D01*
X2170063Y-8819531D02*
X2179587Y-8810008D01*
X2179587Y-8810008D02*
X2198634Y-8800484D01*
X2351015Y-8981436D02*
X2360539Y-8990960D01*
X2360539Y-8990960D02*
X2351015Y-9000484D01*
X2351015Y-9000484D02*
X2341491Y-8990960D01*
X2341491Y-8990960D02*
X2351015Y-8981436D01*
X2351015Y-8981436D02*
X2351015Y-9000484D01*
X2484348Y-8800484D02*
X2503396Y-8800484D01*
X2503396Y-8800484D02*
X2522444Y-8810008D01*
X2522444Y-8810008D02*
X2531968Y-8819531D01*
X2531968Y-8819531D02*
X2541491Y-8838579D01*
X2541491Y-8838579D02*
X2551015Y-8876674D01*
X2551015Y-8876674D02*
X2551015Y-8924293D01*
X2551015Y-8924293D02*
X2541491Y-8962389D01*
X2541491Y-8962389D02*
X2531968Y-8981436D01*
X2531968Y-8981436D02*
X2522444Y-8990960D01*
X2522444Y-8990960D02*
X2503396Y-9000484D01*
X2503396Y-9000484D02*
X2484348Y-9000484D01*
X2484348Y-9000484D02*
X2465301Y-8990960D01*
X2465301Y-8990960D02*
X2455777Y-8981436D01*
X2455777Y-8981436D02*
X2446253Y-8962389D01*
X2446253Y-8962389D02*
X2436729Y-8924293D01*
X2436729Y-8924293D02*
X2436729Y-8876674D01*
X2436729Y-8876674D02*
X2446253Y-8838579D01*
X2446253Y-8838579D02*
X2455777Y-8819531D01*
X2455777Y-8819531D02*
X2465301Y-8810008D01*
X2465301Y-8810008D02*
X2484348Y-8800484D01*
X2617682Y-8800484D02*
X2741491Y-8800484D01*
X2741491Y-8800484D02*
X2674825Y-8876674D01*
X2674825Y-8876674D02*
X2703396Y-8876674D01*
X2703396Y-8876674D02*
X2722444Y-8886198D01*
X2722444Y-8886198D02*
X2731968Y-8895722D01*
X2731968Y-8895722D02*
X2741491Y-8914770D01*
X2741491Y-8914770D02*
X2741491Y-8962389D01*
X2741491Y-8962389D02*
X2731968Y-8981436D01*
X2731968Y-8981436D02*
X2722444Y-8990960D01*
X2722444Y-8990960D02*
X2703396Y-9000484D01*
X2703396Y-9000484D02*
X2646253Y-9000484D01*
X2646253Y-9000484D02*
X2627206Y-8990960D01*
X2627206Y-8990960D02*
X2617682Y-8981436D01*
X2931967Y-9000484D02*
X2817682Y-9000484D01*
X2874825Y-9000484D02*
X2874825Y-8800484D01*
X2874825Y-8800484D02*
X2855777Y-8829055D01*
X2855777Y-8829055D02*
X2836729Y-8848103D01*
X2836729Y-8848103D02*
X2817682Y-8857627D01*
X3112920Y-8800484D02*
X3017682Y-8800484D01*
X3017682Y-8800484D02*
X3008158Y-8895722D01*
X3008158Y-8895722D02*
X3017682Y-8886198D01*
X3017682Y-8886198D02*
X3036729Y-8876674D01*
X3036729Y-8876674D02*
X3084348Y-8876674D01*
X3084348Y-8876674D02*
X3103396Y-8886198D01*
X3103396Y-8886198D02*
X3112920Y-8895722D01*
X3112920Y-8895722D02*
X3122444Y-8914770D01*
X3122444Y-8914770D02*
X3122444Y-8962389D01*
X3122444Y-8962389D02*
X3112920Y-8981436D01*
X3112920Y-8981436D02*
X3103396Y-8990960D01*
X3103396Y-8990960D02*
X3084348Y-9000484D01*
X3084348Y-9000484D02*
X3036729Y-9000484D01*
X3036729Y-9000484D02*
X3017682Y-8990960D01*
X3017682Y-8990960D02*
X3008158Y-8981436D01*
X3198634Y-8800484D02*
X3198634Y-8838579D01*
X3274825Y-8800484D02*
X3274825Y-8838579D01*
X3570063Y-9076674D02*
X3560539Y-9067150D01*
X3560539Y-9067150D02*
X3541491Y-9038579D01*
X3541491Y-9038579D02*
X3531968Y-9019531D01*
X3531968Y-9019531D02*
X3522444Y-8990960D01*
X3522444Y-8990960D02*
X3512920Y-8943341D01*
X3512920Y-8943341D02*
X3512920Y-8905246D01*
X3512920Y-8905246D02*
X3522444Y-8857627D01*
X3522444Y-8857627D02*
X3531968Y-8829055D01*
X3531968Y-8829055D02*
X3541491Y-8810008D01*
X3541491Y-8810008D02*
X3560539Y-8781436D01*
X3560539Y-8781436D02*
X3570063Y-8771912D01*
X3751015Y-9000484D02*
X3636729Y-9000484D01*
X3693872Y-9000484D02*
X3693872Y-8800484D01*
X3693872Y-8800484D02*
X3674825Y-8829055D01*
X3674825Y-8829055D02*
X3655777Y-8848103D01*
X3655777Y-8848103D02*
X3636729Y-8857627D01*
X3922444Y-8800484D02*
X3884348Y-8800484D01*
X3884348Y-8800484D02*
X3865301Y-8810008D01*
X3865301Y-8810008D02*
X3855777Y-8819531D01*
X3855777Y-8819531D02*
X3836729Y-8848103D01*
X3836729Y-8848103D02*
X3827206Y-8886198D01*
X3827206Y-8886198D02*
X3827206Y-8962389D01*
X3827206Y-8962389D02*
X3836729Y-8981436D01*
X3836729Y-8981436D02*
X3846253Y-8990960D01*
X3846253Y-8990960D02*
X3865301Y-9000484D01*
X3865301Y-9000484D02*
X3903396Y-9000484D01*
X3903396Y-9000484D02*
X3922444Y-8990960D01*
X3922444Y-8990960D02*
X3931968Y-8981436D01*
X3931968Y-8981436D02*
X3941491Y-8962389D01*
X3941491Y-8962389D02*
X3941491Y-8914770D01*
X3941491Y-8914770D02*
X3931968Y-8895722D01*
X3931968Y-8895722D02*
X3922444Y-8886198D01*
X3922444Y-8886198D02*
X3903396Y-8876674D01*
X3903396Y-8876674D02*
X3865301Y-8876674D01*
X3865301Y-8876674D02*
X3846253Y-8886198D01*
X3846253Y-8886198D02*
X3836729Y-8895722D01*
X3836729Y-8895722D02*
X3827206Y-8914770D01*
X4112920Y-8800484D02*
X4074825Y-8800484D01*
X4074825Y-8800484D02*
X4055777Y-8810008D01*
X4055777Y-8810008D02*
X4046253Y-8819531D01*
X4046253Y-8819531D02*
X4027206Y-8848103D01*
X4027206Y-8848103D02*
X4017682Y-8886198D01*
X4017682Y-8886198D02*
X4017682Y-8962389D01*
X4017682Y-8962389D02*
X4027206Y-8981436D01*
X4027206Y-8981436D02*
X4036729Y-8990960D01*
X4036729Y-8990960D02*
X4055777Y-9000484D01*
X4055777Y-9000484D02*
X4093872Y-9000484D01*
X4093872Y-9000484D02*
X4112920Y-8990960D01*
X4112920Y-8990960D02*
X4122444Y-8981436D01*
X4122444Y-8981436D02*
X4131968Y-8962389D01*
X4131968Y-8962389D02*
X4131968Y-8914770D01*
X4131968Y-8914770D02*
X4122444Y-8895722D01*
X4122444Y-8895722D02*
X4112920Y-8886198D01*
X4112920Y-8886198D02*
X4093872Y-8876674D01*
X4093872Y-8876674D02*
X4055777Y-8876674D01*
X4055777Y-8876674D02*
X4036729Y-8886198D01*
X4036729Y-8886198D02*
X4027206Y-8895722D01*
X4027206Y-8895722D02*
X4017682Y-8914770D01*
X4370063Y-9000484D02*
X4370063Y-8800484D01*
X4455777Y-9000484D02*
X4455777Y-8895722D01*
X4455777Y-8895722D02*
X4446253Y-8876674D01*
X4446253Y-8876674D02*
X4427206Y-8867150D01*
X4427206Y-8867150D02*
X4398634Y-8867150D01*
X4398634Y-8867150D02*
X4379587Y-8876674D01*
X4379587Y-8876674D02*
X4370063Y-8886198D01*
X4579587Y-9000484D02*
X4560539Y-8990960D01*
X4560539Y-8990960D02*
X4551015Y-8981436D01*
X4551015Y-8981436D02*
X4541492Y-8962389D01*
X4541492Y-8962389D02*
X4541492Y-8905246D01*
X4541492Y-8905246D02*
X4551015Y-8886198D01*
X4551015Y-8886198D02*
X4560539Y-8876674D01*
X4560539Y-8876674D02*
X4579587Y-8867150D01*
X4579587Y-8867150D02*
X4608158Y-8867150D01*
X4608158Y-8867150D02*
X4627206Y-8876674D01*
X4627206Y-8876674D02*
X4636730Y-8886198D01*
X4636730Y-8886198D02*
X4646253Y-8905246D01*
X4646253Y-8905246D02*
X4646253Y-8962389D01*
X4646253Y-8962389D02*
X4636730Y-8981436D01*
X4636730Y-8981436D02*
X4627206Y-8990960D01*
X4627206Y-8990960D02*
X4608158Y-9000484D01*
X4608158Y-9000484D02*
X4579587Y-9000484D01*
X4760539Y-9000484D02*
X4741492Y-8990960D01*
X4741492Y-8990960D02*
X4731968Y-8971912D01*
X4731968Y-8971912D02*
X4731968Y-8800484D01*
X4912920Y-8990960D02*
X4893873Y-9000484D01*
X4893873Y-9000484D02*
X4855777Y-9000484D01*
X4855777Y-9000484D02*
X4836730Y-8990960D01*
X4836730Y-8990960D02*
X4827206Y-8971912D01*
X4827206Y-8971912D02*
X4827206Y-8895722D01*
X4827206Y-8895722D02*
X4836730Y-8876674D01*
X4836730Y-8876674D02*
X4855777Y-8867150D01*
X4855777Y-8867150D02*
X4893873Y-8867150D01*
X4893873Y-8867150D02*
X4912920Y-8876674D01*
X4912920Y-8876674D02*
X4922444Y-8895722D01*
X4922444Y-8895722D02*
X4922444Y-8914770D01*
X4922444Y-8914770D02*
X4827206Y-8933817D01*
X4998634Y-8990960D02*
X5017682Y-9000484D01*
X5017682Y-9000484D02*
X5055777Y-9000484D01*
X5055777Y-9000484D02*
X5074825Y-8990960D01*
X5074825Y-8990960D02*
X5084349Y-8971912D01*
X5084349Y-8971912D02*
X5084349Y-8962389D01*
X5084349Y-8962389D02*
X5074825Y-8943341D01*
X5074825Y-8943341D02*
X5055777Y-8933817D01*
X5055777Y-8933817D02*
X5027206Y-8933817D01*
X5027206Y-8933817D02*
X5008158Y-8924293D01*
X5008158Y-8924293D02*
X4998634Y-8905246D01*
X4998634Y-8905246D02*
X4998634Y-8895722D01*
X4998634Y-8895722D02*
X5008158Y-8876674D01*
X5008158Y-8876674D02*
X5027206Y-8867150D01*
X5027206Y-8867150D02*
X5055777Y-8867150D01*
X5055777Y-8867150D02*
X5074825Y-8876674D01*
X5151015Y-9076674D02*
X5160539Y-9067150D01*
X5160539Y-9067150D02*
X5179587Y-9038579D01*
X5179587Y-9038579D02*
X5189111Y-9019531D01*
X5189111Y-9019531D02*
X5198634Y-8990960D01*
X5198634Y-8990960D02*
X5208158Y-8943341D01*
X5208158Y-8943341D02*
X5208158Y-8905246D01*
X5208158Y-8905246D02*
X5198634Y-8857627D01*
X5198634Y-8857627D02*
X5189111Y-8829055D01*
X5189111Y-8829055D02*
X5179587Y-8810008D01*
X5179587Y-8810008D02*
X5160539Y-8781436D01*
X5160539Y-8781436D02*
X5151015Y-8771912D01*
D10*
X-50000Y-9128000D02*
X-50000Y-9218000D01*
X-95000Y-9173000D02*
X-5000Y-9173000D01*
D11*
X293872Y-9064484D02*
X312920Y-9064484D01*
X312920Y-9064484D02*
X331967Y-9074008D01*
X331967Y-9074008D02*
X341491Y-9083531D01*
X341491Y-9083531D02*
X351015Y-9102579D01*
X351015Y-9102579D02*
X360539Y-9140674D01*
X360539Y-9140674D02*
X360539Y-9188293D01*
X360539Y-9188293D02*
X351015Y-9226389D01*
X351015Y-9226389D02*
X341491Y-9245436D01*
X341491Y-9245436D02*
X331967Y-9254960D01*
X331967Y-9254960D02*
X312920Y-9264484D01*
X312920Y-9264484D02*
X293872Y-9264484D01*
X293872Y-9264484D02*
X274824Y-9254960D01*
X274824Y-9254960D02*
X265301Y-9245436D01*
X265301Y-9245436D02*
X255777Y-9226389D01*
X255777Y-9226389D02*
X246253Y-9188293D01*
X246253Y-9188293D02*
X246253Y-9140674D01*
X246253Y-9140674D02*
X255777Y-9102579D01*
X255777Y-9102579D02*
X265301Y-9083531D01*
X265301Y-9083531D02*
X274824Y-9074008D01*
X274824Y-9074008D02*
X293872Y-9064484D01*
X446253Y-9245436D02*
X455777Y-9254960D01*
X455777Y-9254960D02*
X446253Y-9264484D01*
X446253Y-9264484D02*
X436729Y-9254960D01*
X436729Y-9254960D02*
X446253Y-9245436D01*
X446253Y-9245436D02*
X446253Y-9264484D01*
X551015Y-9264484D02*
X589110Y-9264484D01*
X589110Y-9264484D02*
X608158Y-9254960D01*
X608158Y-9254960D02*
X617682Y-9245436D01*
X617682Y-9245436D02*
X636729Y-9216865D01*
X636729Y-9216865D02*
X646253Y-9178770D01*
X646253Y-9178770D02*
X646253Y-9102579D01*
X646253Y-9102579D02*
X636729Y-9083531D01*
X636729Y-9083531D02*
X627205Y-9074008D01*
X627205Y-9074008D02*
X608158Y-9064484D01*
X608158Y-9064484D02*
X570063Y-9064484D01*
X570063Y-9064484D02*
X551015Y-9074008D01*
X551015Y-9074008D02*
X541491Y-9083531D01*
X541491Y-9083531D02*
X531967Y-9102579D01*
X531967Y-9102579D02*
X531967Y-9150198D01*
X531967Y-9150198D02*
X541491Y-9169246D01*
X541491Y-9169246D02*
X551015Y-9178770D01*
X551015Y-9178770D02*
X570063Y-9188293D01*
X570063Y-9188293D02*
X608158Y-9188293D01*
X608158Y-9188293D02*
X627205Y-9178770D01*
X627205Y-9178770D02*
X636729Y-9169246D01*
X636729Y-9169246D02*
X646253Y-9150198D01*
X770062Y-9064484D02*
X789110Y-9064484D01*
X789110Y-9064484D02*
X808158Y-9074008D01*
X808158Y-9074008D02*
X817682Y-9083531D01*
X817682Y-9083531D02*
X827205Y-9102579D01*
X827205Y-9102579D02*
X836729Y-9140674D01*
X836729Y-9140674D02*
X836729Y-9188293D01*
X836729Y-9188293D02*
X827205Y-9226389D01*
X827205Y-9226389D02*
X817682Y-9245436D01*
X817682Y-9245436D02*
X808158Y-9254960D01*
X808158Y-9254960D02*
X789110Y-9264484D01*
X789110Y-9264484D02*
X770062Y-9264484D01*
X770062Y-9264484D02*
X751015Y-9254960D01*
X751015Y-9254960D02*
X741491Y-9245436D01*
X741491Y-9245436D02*
X731967Y-9226389D01*
X731967Y-9226389D02*
X722443Y-9188293D01*
X722443Y-9188293D02*
X722443Y-9140674D01*
X722443Y-9140674D02*
X731967Y-9102579D01*
X731967Y-9102579D02*
X741491Y-9083531D01*
X741491Y-9083531D02*
X751015Y-9074008D01*
X751015Y-9074008D02*
X770062Y-9064484D01*
X960539Y-9064484D02*
X979586Y-9064484D01*
X979586Y-9064484D02*
X998634Y-9074008D01*
X998634Y-9074008D02*
X1008158Y-9083531D01*
X1008158Y-9083531D02*
X1017682Y-9102579D01*
X1017682Y-9102579D02*
X1027205Y-9140674D01*
X1027205Y-9140674D02*
X1027205Y-9188293D01*
X1027205Y-9188293D02*
X1017682Y-9226389D01*
X1017682Y-9226389D02*
X1008158Y-9245436D01*
X1008158Y-9245436D02*
X998634Y-9254960D01*
X998634Y-9254960D02*
X979586Y-9264484D01*
X979586Y-9264484D02*
X960539Y-9264484D01*
X960539Y-9264484D02*
X941491Y-9254960D01*
X941491Y-9254960D02*
X931967Y-9245436D01*
X931967Y-9245436D02*
X922443Y-9226389D01*
X922443Y-9226389D02*
X912920Y-9188293D01*
X912920Y-9188293D02*
X912920Y-9140674D01*
X912920Y-9140674D02*
X922443Y-9102579D01*
X922443Y-9102579D02*
X931967Y-9083531D01*
X931967Y-9083531D02*
X941491Y-9074008D01*
X941491Y-9074008D02*
X960539Y-9064484D01*
X1112920Y-9264484D02*
X1112920Y-9131150D01*
X1112920Y-9150198D02*
X1122444Y-9140674D01*
X1122444Y-9140674D02*
X1141491Y-9131150D01*
X1141491Y-9131150D02*
X1170063Y-9131150D01*
X1170063Y-9131150D02*
X1189110Y-9140674D01*
X1189110Y-9140674D02*
X1198634Y-9159722D01*
X1198634Y-9159722D02*
X1198634Y-9264484D01*
X1198634Y-9159722D02*
X1208158Y-9140674D01*
X1208158Y-9140674D02*
X1227205Y-9131150D01*
X1227205Y-9131150D02*
X1255777Y-9131150D01*
X1255777Y-9131150D02*
X1274825Y-9140674D01*
X1274825Y-9140674D02*
X1284348Y-9159722D01*
X1284348Y-9159722D02*
X1284348Y-9264484D01*
X1379586Y-9264484D02*
X1379586Y-9131150D01*
X1379586Y-9150198D02*
X1389110Y-9140674D01*
X1389110Y-9140674D02*
X1408158Y-9131150D01*
X1408158Y-9131150D02*
X1436729Y-9131150D01*
X1436729Y-9131150D02*
X1455777Y-9140674D01*
X1455777Y-9140674D02*
X1465301Y-9159722D01*
X1465301Y-9159722D02*
X1465301Y-9264484D01*
X1465301Y-9159722D02*
X1474824Y-9140674D01*
X1474824Y-9140674D02*
X1493872Y-9131150D01*
X1493872Y-9131150D02*
X1522443Y-9131150D01*
X1522443Y-9131150D02*
X1541491Y-9140674D01*
X1541491Y-9140674D02*
X1551015Y-9159722D01*
X1551015Y-9159722D02*
X1551015Y-9264484D01*
X1941491Y-9054960D02*
X1770063Y-9312103D01*
X2198634Y-9064484D02*
X2217682Y-9064484D01*
X2217682Y-9064484D02*
X2236729Y-9074008D01*
X2236729Y-9074008D02*
X2246253Y-9083531D01*
X2246253Y-9083531D02*
X2255777Y-9102579D01*
X2255777Y-9102579D02*
X2265301Y-9140674D01*
X2265301Y-9140674D02*
X2265301Y-9188293D01*
X2265301Y-9188293D02*
X2255777Y-9226389D01*
X2255777Y-9226389D02*
X2246253Y-9245436D01*
X2246253Y-9245436D02*
X2236729Y-9254960D01*
X2236729Y-9254960D02*
X2217682Y-9264484D01*
X2217682Y-9264484D02*
X2198634Y-9264484D01*
X2198634Y-9264484D02*
X2179587Y-9254960D01*
X2179587Y-9254960D02*
X2170063Y-9245436D01*
X2170063Y-9245436D02*
X2160539Y-9226389D01*
X2160539Y-9226389D02*
X2151015Y-9188293D01*
X2151015Y-9188293D02*
X2151015Y-9140674D01*
X2151015Y-9140674D02*
X2160539Y-9102579D01*
X2160539Y-9102579D02*
X2170063Y-9083531D01*
X2170063Y-9083531D02*
X2179587Y-9074008D01*
X2179587Y-9074008D02*
X2198634Y-9064484D01*
X2351015Y-9245436D02*
X2360539Y-9254960D01*
X2360539Y-9254960D02*
X2351015Y-9264484D01*
X2351015Y-9264484D02*
X2341491Y-9254960D01*
X2341491Y-9254960D02*
X2351015Y-9245436D01*
X2351015Y-9245436D02*
X2351015Y-9264484D01*
X2484348Y-9064484D02*
X2503396Y-9064484D01*
X2503396Y-9064484D02*
X2522444Y-9074008D01*
X2522444Y-9074008D02*
X2531968Y-9083531D01*
X2531968Y-9083531D02*
X2541491Y-9102579D01*
X2541491Y-9102579D02*
X2551015Y-9140674D01*
X2551015Y-9140674D02*
X2551015Y-9188293D01*
X2551015Y-9188293D02*
X2541491Y-9226389D01*
X2541491Y-9226389D02*
X2531968Y-9245436D01*
X2531968Y-9245436D02*
X2522444Y-9254960D01*
X2522444Y-9254960D02*
X2503396Y-9264484D01*
X2503396Y-9264484D02*
X2484348Y-9264484D01*
X2484348Y-9264484D02*
X2465301Y-9254960D01*
X2465301Y-9254960D02*
X2455777Y-9245436D01*
X2455777Y-9245436D02*
X2446253Y-9226389D01*
X2446253Y-9226389D02*
X2436729Y-9188293D01*
X2436729Y-9188293D02*
X2436729Y-9140674D01*
X2436729Y-9140674D02*
X2446253Y-9102579D01*
X2446253Y-9102579D02*
X2455777Y-9083531D01*
X2455777Y-9083531D02*
X2465301Y-9074008D01*
X2465301Y-9074008D02*
X2484348Y-9064484D01*
X2617682Y-9064484D02*
X2741491Y-9064484D01*
X2741491Y-9064484D02*
X2674825Y-9140674D01*
X2674825Y-9140674D02*
X2703396Y-9140674D01*
X2703396Y-9140674D02*
X2722444Y-9150198D01*
X2722444Y-9150198D02*
X2731968Y-9159722D01*
X2731968Y-9159722D02*
X2741491Y-9178770D01*
X2741491Y-9178770D02*
X2741491Y-9226389D01*
X2741491Y-9226389D02*
X2731968Y-9245436D01*
X2731968Y-9245436D02*
X2722444Y-9254960D01*
X2722444Y-9254960D02*
X2703396Y-9264484D01*
X2703396Y-9264484D02*
X2646253Y-9264484D01*
X2646253Y-9264484D02*
X2627206Y-9254960D01*
X2627206Y-9254960D02*
X2617682Y-9245436D01*
X2922444Y-9064484D02*
X2827206Y-9064484D01*
X2827206Y-9064484D02*
X2817682Y-9159722D01*
X2817682Y-9159722D02*
X2827206Y-9150198D01*
X2827206Y-9150198D02*
X2846253Y-9140674D01*
X2846253Y-9140674D02*
X2893872Y-9140674D01*
X2893872Y-9140674D02*
X2912920Y-9150198D01*
X2912920Y-9150198D02*
X2922444Y-9159722D01*
X2922444Y-9159722D02*
X2931967Y-9178770D01*
X2931967Y-9178770D02*
X2931967Y-9226389D01*
X2931967Y-9226389D02*
X2922444Y-9245436D01*
X2922444Y-9245436D02*
X2912920Y-9254960D01*
X2912920Y-9254960D02*
X2893872Y-9264484D01*
X2893872Y-9264484D02*
X2846253Y-9264484D01*
X2846253Y-9264484D02*
X2827206Y-9254960D01*
X2827206Y-9254960D02*
X2817682Y-9245436D01*
X3103396Y-9131150D02*
X3103396Y-9264484D01*
X3055777Y-9054960D02*
X3008158Y-9197817D01*
X3008158Y-9197817D02*
X3131967Y-9197817D01*
X3198634Y-9064484D02*
X3198634Y-9102579D01*
X3274825Y-9064484D02*
X3274825Y-9102579D01*
X3570063Y-9340674D02*
X3560539Y-9331150D01*
X3560539Y-9331150D02*
X3541491Y-9302579D01*
X3541491Y-9302579D02*
X3531968Y-9283531D01*
X3531968Y-9283531D02*
X3522444Y-9254960D01*
X3522444Y-9254960D02*
X3512920Y-9207341D01*
X3512920Y-9207341D02*
X3512920Y-9169246D01*
X3512920Y-9169246D02*
X3522444Y-9121627D01*
X3522444Y-9121627D02*
X3531968Y-9093055D01*
X3531968Y-9093055D02*
X3541491Y-9074008D01*
X3541491Y-9074008D02*
X3560539Y-9045436D01*
X3560539Y-9045436D02*
X3570063Y-9035912D01*
X3636729Y-9083531D02*
X3646253Y-9074008D01*
X3646253Y-9074008D02*
X3665301Y-9064484D01*
X3665301Y-9064484D02*
X3712920Y-9064484D01*
X3712920Y-9064484D02*
X3731968Y-9074008D01*
X3731968Y-9074008D02*
X3741491Y-9083531D01*
X3741491Y-9083531D02*
X3751015Y-9102579D01*
X3751015Y-9102579D02*
X3751015Y-9121627D01*
X3751015Y-9121627D02*
X3741491Y-9150198D01*
X3741491Y-9150198D02*
X3627206Y-9264484D01*
X3627206Y-9264484D02*
X3751015Y-9264484D01*
X3989110Y-9264484D02*
X3989110Y-9064484D01*
X4074825Y-9264484D02*
X4074825Y-9159722D01*
X4074825Y-9159722D02*
X4065301Y-9140674D01*
X4065301Y-9140674D02*
X4046253Y-9131150D01*
X4046253Y-9131150D02*
X4017682Y-9131150D01*
X4017682Y-9131150D02*
X3998634Y-9140674D01*
X3998634Y-9140674D02*
X3989110Y-9150198D01*
X4198634Y-9264484D02*
X4179587Y-9254960D01*
X4179587Y-9254960D02*
X4170063Y-9245436D01*
X4170063Y-9245436D02*
X4160539Y-9226389D01*
X4160539Y-9226389D02*
X4160539Y-9169246D01*
X4160539Y-9169246D02*
X4170063Y-9150198D01*
X4170063Y-9150198D02*
X4179587Y-9140674D01*
X4179587Y-9140674D02*
X4198634Y-9131150D01*
X4198634Y-9131150D02*
X4227206Y-9131150D01*
X4227206Y-9131150D02*
X4246253Y-9140674D01*
X4246253Y-9140674D02*
X4255777Y-9150198D01*
X4255777Y-9150198D02*
X4265301Y-9169246D01*
X4265301Y-9169246D02*
X4265301Y-9226389D01*
X4265301Y-9226389D02*
X4255777Y-9245436D01*
X4255777Y-9245436D02*
X4246253Y-9254960D01*
X4246253Y-9254960D02*
X4227206Y-9264484D01*
X4227206Y-9264484D02*
X4198634Y-9264484D01*
X4379587Y-9264484D02*
X4360539Y-9254960D01*
X4360539Y-9254960D02*
X4351015Y-9235912D01*
X4351015Y-9235912D02*
X4351015Y-9064484D01*
X4531968Y-9254960D02*
X4512920Y-9264484D01*
X4512920Y-9264484D02*
X4474825Y-9264484D01*
X4474825Y-9264484D02*
X4455777Y-9254960D01*
X4455777Y-9254960D02*
X4446253Y-9235912D01*
X4446253Y-9235912D02*
X4446253Y-9159722D01*
X4446253Y-9159722D02*
X4455777Y-9140674D01*
X4455777Y-9140674D02*
X4474825Y-9131150D01*
X4474825Y-9131150D02*
X4512920Y-9131150D01*
X4512920Y-9131150D02*
X4531968Y-9140674D01*
X4531968Y-9140674D02*
X4541492Y-9159722D01*
X4541492Y-9159722D02*
X4541492Y-9178770D01*
X4541492Y-9178770D02*
X4446253Y-9197817D01*
X4617682Y-9254960D02*
X4636730Y-9264484D01*
X4636730Y-9264484D02*
X4674825Y-9264484D01*
X4674825Y-9264484D02*
X4693873Y-9254960D01*
X4693873Y-9254960D02*
X4703396Y-9235912D01*
X4703396Y-9235912D02*
X4703396Y-9226389D01*
X4703396Y-9226389D02*
X4693873Y-9207341D01*
X4693873Y-9207341D02*
X4674825Y-9197817D01*
X4674825Y-9197817D02*
X4646253Y-9197817D01*
X4646253Y-9197817D02*
X4627206Y-9188293D01*
X4627206Y-9188293D02*
X4617682Y-9169246D01*
X4617682Y-9169246D02*
X4617682Y-9159722D01*
X4617682Y-9159722D02*
X4627206Y-9140674D01*
X4627206Y-9140674D02*
X4646253Y-9131150D01*
X4646253Y-9131150D02*
X4674825Y-9131150D01*
X4674825Y-9131150D02*
X4693873Y-9140674D01*
X4770063Y-9340674D02*
X4779587Y-9331150D01*
X4779587Y-9331150D02*
X4798634Y-9302579D01*
X4798634Y-9302579D02*
X4808158Y-9283531D01*
X4808158Y-9283531D02*
X4817682Y-9254960D01*
X4817682Y-9254960D02*
X4827206Y-9207341D01*
X4827206Y-9207341D02*
X4827206Y-9169246D01*
X4827206Y-9169246D02*
X4817682Y-9121627D01*
X4817682Y-9121627D02*
X4808158Y-9093055D01*
X4808158Y-9093055D02*
X4798634Y-9074008D01*
X4798634Y-9074008D02*
X4779587Y-9045436D01*
X4779587Y-9045436D02*
X4770063Y-9035912D01*
D10*
X-19644Y-9472356D02*
X-19644Y-9401644D01*
X-90356Y-9401644D01*
X-90356Y-9472356D01*
X-19644Y-9472356D01*
D11*
X360539Y-9528484D02*
X246253Y-9528484D01*
X303396Y-9528484D02*
X303396Y-9328484D01*
X303396Y-9328484D02*
X284348Y-9357055D01*
X284348Y-9357055D02*
X265301Y-9376103D01*
X265301Y-9376103D02*
X246253Y-9385627D01*
X446253Y-9509436D02*
X455777Y-9518960D01*
X455777Y-9518960D02*
X446253Y-9528484D01*
X446253Y-9528484D02*
X436729Y-9518960D01*
X436729Y-9518960D02*
X446253Y-9509436D01*
X446253Y-9509436D02*
X446253Y-9528484D01*
X579586Y-9328484D02*
X598634Y-9328484D01*
X598634Y-9328484D02*
X617682Y-9338008D01*
X617682Y-9338008D02*
X627205Y-9347531D01*
X627205Y-9347531D02*
X636729Y-9366579D01*
X636729Y-9366579D02*
X646253Y-9404674D01*
X646253Y-9404674D02*
X646253Y-9452293D01*
X646253Y-9452293D02*
X636729Y-9490389D01*
X636729Y-9490389D02*
X627205Y-9509436D01*
X627205Y-9509436D02*
X617682Y-9518960D01*
X617682Y-9518960D02*
X598634Y-9528484D01*
X598634Y-9528484D02*
X579586Y-9528484D01*
X579586Y-9528484D02*
X560539Y-9518960D01*
X560539Y-9518960D02*
X551015Y-9509436D01*
X551015Y-9509436D02*
X541491Y-9490389D01*
X541491Y-9490389D02*
X531967Y-9452293D01*
X531967Y-9452293D02*
X531967Y-9404674D01*
X531967Y-9404674D02*
X541491Y-9366579D01*
X541491Y-9366579D02*
X551015Y-9347531D01*
X551015Y-9347531D02*
X560539Y-9338008D01*
X560539Y-9338008D02*
X579586Y-9328484D01*
X770062Y-9328484D02*
X789110Y-9328484D01*
X789110Y-9328484D02*
X808158Y-9338008D01*
X808158Y-9338008D02*
X817682Y-9347531D01*
X817682Y-9347531D02*
X827205Y-9366579D01*
X827205Y-9366579D02*
X836729Y-9404674D01*
X836729Y-9404674D02*
X836729Y-9452293D01*
X836729Y-9452293D02*
X827205Y-9490389D01*
X827205Y-9490389D02*
X817682Y-9509436D01*
X817682Y-9509436D02*
X808158Y-9518960D01*
X808158Y-9518960D02*
X789110Y-9528484D01*
X789110Y-9528484D02*
X770062Y-9528484D01*
X770062Y-9528484D02*
X751015Y-9518960D01*
X751015Y-9518960D02*
X741491Y-9509436D01*
X741491Y-9509436D02*
X731967Y-9490389D01*
X731967Y-9490389D02*
X722443Y-9452293D01*
X722443Y-9452293D02*
X722443Y-9404674D01*
X722443Y-9404674D02*
X731967Y-9366579D01*
X731967Y-9366579D02*
X741491Y-9347531D01*
X741491Y-9347531D02*
X751015Y-9338008D01*
X751015Y-9338008D02*
X770062Y-9328484D01*
X960539Y-9328484D02*
X979586Y-9328484D01*
X979586Y-9328484D02*
X998634Y-9338008D01*
X998634Y-9338008D02*
X1008158Y-9347531D01*
X1008158Y-9347531D02*
X1017682Y-9366579D01*
X1017682Y-9366579D02*
X1027205Y-9404674D01*
X1027205Y-9404674D02*
X1027205Y-9452293D01*
X1027205Y-9452293D02*
X1017682Y-9490389D01*
X1017682Y-9490389D02*
X1008158Y-9509436D01*
X1008158Y-9509436D02*
X998634Y-9518960D01*
X998634Y-9518960D02*
X979586Y-9528484D01*
X979586Y-9528484D02*
X960539Y-9528484D01*
X960539Y-9528484D02*
X941491Y-9518960D01*
X941491Y-9518960D02*
X931967Y-9509436D01*
X931967Y-9509436D02*
X922443Y-9490389D01*
X922443Y-9490389D02*
X912920Y-9452293D01*
X912920Y-9452293D02*
X912920Y-9404674D01*
X912920Y-9404674D02*
X922443Y-9366579D01*
X922443Y-9366579D02*
X931967Y-9347531D01*
X931967Y-9347531D02*
X941491Y-9338008D01*
X941491Y-9338008D02*
X960539Y-9328484D01*
X1112920Y-9528484D02*
X1112920Y-9395150D01*
X1112920Y-9414198D02*
X1122444Y-9404674D01*
X1122444Y-9404674D02*
X1141491Y-9395150D01*
X1141491Y-9395150D02*
X1170063Y-9395150D01*
X1170063Y-9395150D02*
X1189110Y-9404674D01*
X1189110Y-9404674D02*
X1198634Y-9423722D01*
X1198634Y-9423722D02*
X1198634Y-9528484D01*
X1198634Y-9423722D02*
X1208158Y-9404674D01*
X1208158Y-9404674D02*
X1227205Y-9395150D01*
X1227205Y-9395150D02*
X1255777Y-9395150D01*
X1255777Y-9395150D02*
X1274825Y-9404674D01*
X1274825Y-9404674D02*
X1284348Y-9423722D01*
X1284348Y-9423722D02*
X1284348Y-9528484D01*
X1379586Y-9528484D02*
X1379586Y-9395150D01*
X1379586Y-9414198D02*
X1389110Y-9404674D01*
X1389110Y-9404674D02*
X1408158Y-9395150D01*
X1408158Y-9395150D02*
X1436729Y-9395150D01*
X1436729Y-9395150D02*
X1455777Y-9404674D01*
X1455777Y-9404674D02*
X1465301Y-9423722D01*
X1465301Y-9423722D02*
X1465301Y-9528484D01*
X1465301Y-9423722D02*
X1474824Y-9404674D01*
X1474824Y-9404674D02*
X1493872Y-9395150D01*
X1493872Y-9395150D02*
X1522443Y-9395150D01*
X1522443Y-9395150D02*
X1541491Y-9404674D01*
X1541491Y-9404674D02*
X1551015Y-9423722D01*
X1551015Y-9423722D02*
X1551015Y-9528484D01*
X1941491Y-9318960D02*
X1770063Y-9576103D01*
X2198634Y-9328484D02*
X2217682Y-9328484D01*
X2217682Y-9328484D02*
X2236729Y-9338008D01*
X2236729Y-9338008D02*
X2246253Y-9347531D01*
X2246253Y-9347531D02*
X2255777Y-9366579D01*
X2255777Y-9366579D02*
X2265301Y-9404674D01*
X2265301Y-9404674D02*
X2265301Y-9452293D01*
X2265301Y-9452293D02*
X2255777Y-9490389D01*
X2255777Y-9490389D02*
X2246253Y-9509436D01*
X2246253Y-9509436D02*
X2236729Y-9518960D01*
X2236729Y-9518960D02*
X2217682Y-9528484D01*
X2217682Y-9528484D02*
X2198634Y-9528484D01*
X2198634Y-9528484D02*
X2179587Y-9518960D01*
X2179587Y-9518960D02*
X2170063Y-9509436D01*
X2170063Y-9509436D02*
X2160539Y-9490389D01*
X2160539Y-9490389D02*
X2151015Y-9452293D01*
X2151015Y-9452293D02*
X2151015Y-9404674D01*
X2151015Y-9404674D02*
X2160539Y-9366579D01*
X2160539Y-9366579D02*
X2170063Y-9347531D01*
X2170063Y-9347531D02*
X2179587Y-9338008D01*
X2179587Y-9338008D02*
X2198634Y-9328484D01*
X2351015Y-9509436D02*
X2360539Y-9518960D01*
X2360539Y-9518960D02*
X2351015Y-9528484D01*
X2351015Y-9528484D02*
X2341491Y-9518960D01*
X2341491Y-9518960D02*
X2351015Y-9509436D01*
X2351015Y-9509436D02*
X2351015Y-9528484D01*
X2484348Y-9328484D02*
X2503396Y-9328484D01*
X2503396Y-9328484D02*
X2522444Y-9338008D01*
X2522444Y-9338008D02*
X2531968Y-9347531D01*
X2531968Y-9347531D02*
X2541491Y-9366579D01*
X2541491Y-9366579D02*
X2551015Y-9404674D01*
X2551015Y-9404674D02*
X2551015Y-9452293D01*
X2551015Y-9452293D02*
X2541491Y-9490389D01*
X2541491Y-9490389D02*
X2531968Y-9509436D01*
X2531968Y-9509436D02*
X2522444Y-9518960D01*
X2522444Y-9518960D02*
X2503396Y-9528484D01*
X2503396Y-9528484D02*
X2484348Y-9528484D01*
X2484348Y-9528484D02*
X2465301Y-9518960D01*
X2465301Y-9518960D02*
X2455777Y-9509436D01*
X2455777Y-9509436D02*
X2446253Y-9490389D01*
X2446253Y-9490389D02*
X2436729Y-9452293D01*
X2436729Y-9452293D02*
X2436729Y-9404674D01*
X2436729Y-9404674D02*
X2446253Y-9366579D01*
X2446253Y-9366579D02*
X2455777Y-9347531D01*
X2455777Y-9347531D02*
X2465301Y-9338008D01*
X2465301Y-9338008D02*
X2484348Y-9328484D01*
X2617682Y-9328484D02*
X2741491Y-9328484D01*
X2741491Y-9328484D02*
X2674825Y-9404674D01*
X2674825Y-9404674D02*
X2703396Y-9404674D01*
X2703396Y-9404674D02*
X2722444Y-9414198D01*
X2722444Y-9414198D02*
X2731968Y-9423722D01*
X2731968Y-9423722D02*
X2741491Y-9442770D01*
X2741491Y-9442770D02*
X2741491Y-9490389D01*
X2741491Y-9490389D02*
X2731968Y-9509436D01*
X2731968Y-9509436D02*
X2722444Y-9518960D01*
X2722444Y-9518960D02*
X2703396Y-9528484D01*
X2703396Y-9528484D02*
X2646253Y-9528484D01*
X2646253Y-9528484D02*
X2627206Y-9518960D01*
X2627206Y-9518960D02*
X2617682Y-9509436D01*
X2836729Y-9528484D02*
X2874825Y-9528484D01*
X2874825Y-9528484D02*
X2893872Y-9518960D01*
X2893872Y-9518960D02*
X2903396Y-9509436D01*
X2903396Y-9509436D02*
X2922444Y-9480865D01*
X2922444Y-9480865D02*
X2931967Y-9442770D01*
X2931967Y-9442770D02*
X2931967Y-9366579D01*
X2931967Y-9366579D02*
X2922444Y-9347531D01*
X2922444Y-9347531D02*
X2912920Y-9338008D01*
X2912920Y-9338008D02*
X2893872Y-9328484D01*
X2893872Y-9328484D02*
X2855777Y-9328484D01*
X2855777Y-9328484D02*
X2836729Y-9338008D01*
X2836729Y-9338008D02*
X2827206Y-9347531D01*
X2827206Y-9347531D02*
X2817682Y-9366579D01*
X2817682Y-9366579D02*
X2817682Y-9414198D01*
X2817682Y-9414198D02*
X2827206Y-9433246D01*
X2827206Y-9433246D02*
X2836729Y-9442770D01*
X2836729Y-9442770D02*
X2855777Y-9452293D01*
X2855777Y-9452293D02*
X2893872Y-9452293D01*
X2893872Y-9452293D02*
X2912920Y-9442770D01*
X2912920Y-9442770D02*
X2922444Y-9433246D01*
X2922444Y-9433246D02*
X2931967Y-9414198D01*
X3103396Y-9395150D02*
X3103396Y-9528484D01*
X3055777Y-9318960D02*
X3008158Y-9461817D01*
X3008158Y-9461817D02*
X3131967Y-9461817D01*
X3198634Y-9328484D02*
X3198634Y-9366579D01*
X3274825Y-9328484D02*
X3274825Y-9366579D01*
X3570063Y-9604674D02*
X3560539Y-9595150D01*
X3560539Y-9595150D02*
X3541491Y-9566579D01*
X3541491Y-9566579D02*
X3531968Y-9547531D01*
X3531968Y-9547531D02*
X3522444Y-9518960D01*
X3522444Y-9518960D02*
X3512920Y-9471341D01*
X3512920Y-9471341D02*
X3512920Y-9433246D01*
X3512920Y-9433246D02*
X3522444Y-9385627D01*
X3522444Y-9385627D02*
X3531968Y-9357055D01*
X3531968Y-9357055D02*
X3541491Y-9338008D01*
X3541491Y-9338008D02*
X3560539Y-9309436D01*
X3560539Y-9309436D02*
X3570063Y-9299912D01*
X3751015Y-9528484D02*
X3636729Y-9528484D01*
X3693872Y-9528484D02*
X3693872Y-9328484D01*
X3693872Y-9328484D02*
X3674825Y-9357055D01*
X3674825Y-9357055D02*
X3655777Y-9376103D01*
X3655777Y-9376103D02*
X3636729Y-9385627D01*
X3846253Y-9528484D02*
X3884348Y-9528484D01*
X3884348Y-9528484D02*
X3903396Y-9518960D01*
X3903396Y-9518960D02*
X3912920Y-9509436D01*
X3912920Y-9509436D02*
X3931968Y-9480865D01*
X3931968Y-9480865D02*
X3941491Y-9442770D01*
X3941491Y-9442770D02*
X3941491Y-9366579D01*
X3941491Y-9366579D02*
X3931968Y-9347531D01*
X3931968Y-9347531D02*
X3922444Y-9338008D01*
X3922444Y-9338008D02*
X3903396Y-9328484D01*
X3903396Y-9328484D02*
X3865301Y-9328484D01*
X3865301Y-9328484D02*
X3846253Y-9338008D01*
X3846253Y-9338008D02*
X3836729Y-9347531D01*
X3836729Y-9347531D02*
X3827206Y-9366579D01*
X3827206Y-9366579D02*
X3827206Y-9414198D01*
X3827206Y-9414198D02*
X3836729Y-9433246D01*
X3836729Y-9433246D02*
X3846253Y-9442770D01*
X3846253Y-9442770D02*
X3865301Y-9452293D01*
X3865301Y-9452293D02*
X3903396Y-9452293D01*
X3903396Y-9452293D02*
X3922444Y-9442770D01*
X3922444Y-9442770D02*
X3931968Y-9433246D01*
X3931968Y-9433246D02*
X3941491Y-9414198D01*
X4179587Y-9528484D02*
X4179587Y-9328484D01*
X4265301Y-9528484D02*
X4265301Y-9423722D01*
X4265301Y-9423722D02*
X4255777Y-9404674D01*
X4255777Y-9404674D02*
X4236730Y-9395150D01*
X4236730Y-9395150D02*
X4208158Y-9395150D01*
X4208158Y-9395150D02*
X4189110Y-9404674D01*
X4189110Y-9404674D02*
X4179587Y-9414198D01*
X4389111Y-9528484D02*
X4370063Y-9518960D01*
X4370063Y-9518960D02*
X4360539Y-9509436D01*
X4360539Y-9509436D02*
X4351015Y-9490389D01*
X4351015Y-9490389D02*
X4351015Y-9433246D01*
X4351015Y-9433246D02*
X4360539Y-9414198D01*
X4360539Y-9414198D02*
X4370063Y-9404674D01*
X4370063Y-9404674D02*
X4389111Y-9395150D01*
X4389111Y-9395150D02*
X4417682Y-9395150D01*
X4417682Y-9395150D02*
X4436730Y-9404674D01*
X4436730Y-9404674D02*
X4446253Y-9414198D01*
X4446253Y-9414198D02*
X4455777Y-9433246D01*
X4455777Y-9433246D02*
X4455777Y-9490389D01*
X4455777Y-9490389D02*
X4446253Y-9509436D01*
X4446253Y-9509436D02*
X4436730Y-9518960D01*
X4436730Y-9518960D02*
X4417682Y-9528484D01*
X4417682Y-9528484D02*
X4389111Y-9528484D01*
X4570063Y-9528484D02*
X4551015Y-9518960D01*
X4551015Y-9518960D02*
X4541492Y-9499912D01*
X4541492Y-9499912D02*
X4541492Y-9328484D01*
X4722444Y-9518960D02*
X4703396Y-9528484D01*
X4703396Y-9528484D02*
X4665301Y-9528484D01*
X4665301Y-9528484D02*
X4646253Y-9518960D01*
X4646253Y-9518960D02*
X4636730Y-9499912D01*
X4636730Y-9499912D02*
X4636730Y-9423722D01*
X4636730Y-9423722D02*
X4646253Y-9404674D01*
X4646253Y-9404674D02*
X4665301Y-9395150D01*
X4665301Y-9395150D02*
X4703396Y-9395150D01*
X4703396Y-9395150D02*
X4722444Y-9404674D01*
X4722444Y-9404674D02*
X4731968Y-9423722D01*
X4731968Y-9423722D02*
X4731968Y-9442770D01*
X4731968Y-9442770D02*
X4636730Y-9461817D01*
X4808158Y-9518960D02*
X4827206Y-9528484D01*
X4827206Y-9528484D02*
X4865301Y-9528484D01*
X4865301Y-9528484D02*
X4884349Y-9518960D01*
X4884349Y-9518960D02*
X4893873Y-9499912D01*
X4893873Y-9499912D02*
X4893873Y-9490389D01*
X4893873Y-9490389D02*
X4884349Y-9471341D01*
X4884349Y-9471341D02*
X4865301Y-9461817D01*
X4865301Y-9461817D02*
X4836730Y-9461817D01*
X4836730Y-9461817D02*
X4817682Y-9452293D01*
X4817682Y-9452293D02*
X4808158Y-9433246D01*
X4808158Y-9433246D02*
X4808158Y-9423722D01*
X4808158Y-9423722D02*
X4817682Y-9404674D01*
X4817682Y-9404674D02*
X4836730Y-9395150D01*
X4836730Y-9395150D02*
X4865301Y-9395150D01*
X4865301Y-9395150D02*
X4884349Y-9404674D01*
X4960539Y-9604674D02*
X4970063Y-9595150D01*
X4970063Y-9595150D02*
X4989111Y-9566579D01*
X4989111Y-9566579D02*
X4998634Y-9547531D01*
X4998634Y-9547531D02*
X5008158Y-9518960D01*
X5008158Y-9518960D02*
X5017682Y-9471341D01*
X5017682Y-9471341D02*
X5017682Y-9433246D01*
X5017682Y-9433246D02*
X5008158Y-9385627D01*
X5008158Y-9385627D02*
X4998634Y-9357055D01*
X4998634Y-9357055D02*
X4989111Y-9338008D01*
X4989111Y-9338008D02*
X4970063Y-9309436D01*
X4970063Y-9309436D02*
X4960539Y-9299912D01*
D12*
X-80000Y-9776000D02*
X-5000Y-9701000D01*
X-80000Y-9626000D01*
X-155000Y-9701000D01*
X-80000Y-9776000D01*
D11*
X360539Y-9792484D02*
X246253Y-9792484D01*
X303396Y-9792484D02*
X303396Y-9592484D01*
X303396Y-9592484D02*
X284348Y-9621055D01*
X284348Y-9621055D02*
X265301Y-9640103D01*
X265301Y-9640103D02*
X246253Y-9649627D01*
X446253Y-9773436D02*
X455777Y-9782960D01*
X455777Y-9782960D02*
X446253Y-9792484D01*
X446253Y-9792484D02*
X436729Y-9782960D01*
X436729Y-9782960D02*
X446253Y-9773436D01*
X446253Y-9773436D02*
X446253Y-9792484D01*
X636729Y-9592484D02*
X541491Y-9592484D01*
X541491Y-9592484D02*
X531967Y-9687722D01*
X531967Y-9687722D02*
X541491Y-9678198D01*
X541491Y-9678198D02*
X560539Y-9668674D01*
X560539Y-9668674D02*
X608158Y-9668674D01*
X608158Y-9668674D02*
X627205Y-9678198D01*
X627205Y-9678198D02*
X636729Y-9687722D01*
X636729Y-9687722D02*
X646253Y-9706770D01*
X646253Y-9706770D02*
X646253Y-9754389D01*
X646253Y-9754389D02*
X636729Y-9773436D01*
X636729Y-9773436D02*
X627205Y-9782960D01*
X627205Y-9782960D02*
X608158Y-9792484D01*
X608158Y-9792484D02*
X560539Y-9792484D01*
X560539Y-9792484D02*
X541491Y-9782960D01*
X541491Y-9782960D02*
X531967Y-9773436D01*
X770062Y-9592484D02*
X789110Y-9592484D01*
X789110Y-9592484D02*
X808158Y-9602008D01*
X808158Y-9602008D02*
X817682Y-9611531D01*
X817682Y-9611531D02*
X827205Y-9630579D01*
X827205Y-9630579D02*
X836729Y-9668674D01*
X836729Y-9668674D02*
X836729Y-9716293D01*
X836729Y-9716293D02*
X827205Y-9754389D01*
X827205Y-9754389D02*
X817682Y-9773436D01*
X817682Y-9773436D02*
X808158Y-9782960D01*
X808158Y-9782960D02*
X789110Y-9792484D01*
X789110Y-9792484D02*
X770062Y-9792484D01*
X770062Y-9792484D02*
X751015Y-9782960D01*
X751015Y-9782960D02*
X741491Y-9773436D01*
X741491Y-9773436D02*
X731967Y-9754389D01*
X731967Y-9754389D02*
X722443Y-9716293D01*
X722443Y-9716293D02*
X722443Y-9668674D01*
X722443Y-9668674D02*
X731967Y-9630579D01*
X731967Y-9630579D02*
X741491Y-9611531D01*
X741491Y-9611531D02*
X751015Y-9602008D01*
X751015Y-9602008D02*
X770062Y-9592484D01*
X960539Y-9592484D02*
X979586Y-9592484D01*
X979586Y-9592484D02*
X998634Y-9602008D01*
X998634Y-9602008D02*
X1008158Y-9611531D01*
X1008158Y-9611531D02*
X1017682Y-9630579D01*
X1017682Y-9630579D02*
X1027205Y-9668674D01*
X1027205Y-9668674D02*
X1027205Y-9716293D01*
X1027205Y-9716293D02*
X1017682Y-9754389D01*
X1017682Y-9754389D02*
X1008158Y-9773436D01*
X1008158Y-9773436D02*
X998634Y-9782960D01*
X998634Y-9782960D02*
X979586Y-9792484D01*
X979586Y-9792484D02*
X960539Y-9792484D01*
X960539Y-9792484D02*
X941491Y-9782960D01*
X941491Y-9782960D02*
X931967Y-9773436D01*
X931967Y-9773436D02*
X922443Y-9754389D01*
X922443Y-9754389D02*
X912920Y-9716293D01*
X912920Y-9716293D02*
X912920Y-9668674D01*
X912920Y-9668674D02*
X922443Y-9630579D01*
X922443Y-9630579D02*
X931967Y-9611531D01*
X931967Y-9611531D02*
X941491Y-9602008D01*
X941491Y-9602008D02*
X960539Y-9592484D01*
X1112920Y-9792484D02*
X1112920Y-9659150D01*
X1112920Y-9678198D02*
X1122444Y-9668674D01*
X1122444Y-9668674D02*
X1141491Y-9659150D01*
X1141491Y-9659150D02*
X1170063Y-9659150D01*
X1170063Y-9659150D02*
X1189110Y-9668674D01*
X1189110Y-9668674D02*
X1198634Y-9687722D01*
X1198634Y-9687722D02*
X1198634Y-9792484D01*
X1198634Y-9687722D02*
X1208158Y-9668674D01*
X1208158Y-9668674D02*
X1227205Y-9659150D01*
X1227205Y-9659150D02*
X1255777Y-9659150D01*
X1255777Y-9659150D02*
X1274825Y-9668674D01*
X1274825Y-9668674D02*
X1284348Y-9687722D01*
X1284348Y-9687722D02*
X1284348Y-9792484D01*
X1379586Y-9792484D02*
X1379586Y-9659150D01*
X1379586Y-9678198D02*
X1389110Y-9668674D01*
X1389110Y-9668674D02*
X1408158Y-9659150D01*
X1408158Y-9659150D02*
X1436729Y-9659150D01*
X1436729Y-9659150D02*
X1455777Y-9668674D01*
X1455777Y-9668674D02*
X1465301Y-9687722D01*
X1465301Y-9687722D02*
X1465301Y-9792484D01*
X1465301Y-9687722D02*
X1474824Y-9668674D01*
X1474824Y-9668674D02*
X1493872Y-9659150D01*
X1493872Y-9659150D02*
X1522443Y-9659150D01*
X1522443Y-9659150D02*
X1541491Y-9668674D01*
X1541491Y-9668674D02*
X1551015Y-9687722D01*
X1551015Y-9687722D02*
X1551015Y-9792484D01*
X1941491Y-9582960D02*
X1770063Y-9840103D01*
X2198634Y-9592484D02*
X2217682Y-9592484D01*
X2217682Y-9592484D02*
X2236729Y-9602008D01*
X2236729Y-9602008D02*
X2246253Y-9611531D01*
X2246253Y-9611531D02*
X2255777Y-9630579D01*
X2255777Y-9630579D02*
X2265301Y-9668674D01*
X2265301Y-9668674D02*
X2265301Y-9716293D01*
X2265301Y-9716293D02*
X2255777Y-9754389D01*
X2255777Y-9754389D02*
X2246253Y-9773436D01*
X2246253Y-9773436D02*
X2236729Y-9782960D01*
X2236729Y-9782960D02*
X2217682Y-9792484D01*
X2217682Y-9792484D02*
X2198634Y-9792484D01*
X2198634Y-9792484D02*
X2179587Y-9782960D01*
X2179587Y-9782960D02*
X2170063Y-9773436D01*
X2170063Y-9773436D02*
X2160539Y-9754389D01*
X2160539Y-9754389D02*
X2151015Y-9716293D01*
X2151015Y-9716293D02*
X2151015Y-9668674D01*
X2151015Y-9668674D02*
X2160539Y-9630579D01*
X2160539Y-9630579D02*
X2170063Y-9611531D01*
X2170063Y-9611531D02*
X2179587Y-9602008D01*
X2179587Y-9602008D02*
X2198634Y-9592484D01*
X2351015Y-9773436D02*
X2360539Y-9782960D01*
X2360539Y-9782960D02*
X2351015Y-9792484D01*
X2351015Y-9792484D02*
X2341491Y-9782960D01*
X2341491Y-9782960D02*
X2351015Y-9773436D01*
X2351015Y-9773436D02*
X2351015Y-9792484D01*
X2484348Y-9592484D02*
X2503396Y-9592484D01*
X2503396Y-9592484D02*
X2522444Y-9602008D01*
X2522444Y-9602008D02*
X2531968Y-9611531D01*
X2531968Y-9611531D02*
X2541491Y-9630579D01*
X2541491Y-9630579D02*
X2551015Y-9668674D01*
X2551015Y-9668674D02*
X2551015Y-9716293D01*
X2551015Y-9716293D02*
X2541491Y-9754389D01*
X2541491Y-9754389D02*
X2531968Y-9773436D01*
X2531968Y-9773436D02*
X2522444Y-9782960D01*
X2522444Y-9782960D02*
X2503396Y-9792484D01*
X2503396Y-9792484D02*
X2484348Y-9792484D01*
X2484348Y-9792484D02*
X2465301Y-9782960D01*
X2465301Y-9782960D02*
X2455777Y-9773436D01*
X2455777Y-9773436D02*
X2446253Y-9754389D01*
X2446253Y-9754389D02*
X2436729Y-9716293D01*
X2436729Y-9716293D02*
X2436729Y-9668674D01*
X2436729Y-9668674D02*
X2446253Y-9630579D01*
X2446253Y-9630579D02*
X2455777Y-9611531D01*
X2455777Y-9611531D02*
X2465301Y-9602008D01*
X2465301Y-9602008D02*
X2484348Y-9592484D01*
X2731968Y-9592484D02*
X2636729Y-9592484D01*
X2636729Y-9592484D02*
X2627206Y-9687722D01*
X2627206Y-9687722D02*
X2636729Y-9678198D01*
X2636729Y-9678198D02*
X2655777Y-9668674D01*
X2655777Y-9668674D02*
X2703396Y-9668674D01*
X2703396Y-9668674D02*
X2722444Y-9678198D01*
X2722444Y-9678198D02*
X2731968Y-9687722D01*
X2731968Y-9687722D02*
X2741491Y-9706770D01*
X2741491Y-9706770D02*
X2741491Y-9754389D01*
X2741491Y-9754389D02*
X2731968Y-9773436D01*
X2731968Y-9773436D02*
X2722444Y-9782960D01*
X2722444Y-9782960D02*
X2703396Y-9792484D01*
X2703396Y-9792484D02*
X2655777Y-9792484D01*
X2655777Y-9792484D02*
X2636729Y-9782960D01*
X2636729Y-9782960D02*
X2627206Y-9773436D01*
X2836729Y-9792484D02*
X2874825Y-9792484D01*
X2874825Y-9792484D02*
X2893872Y-9782960D01*
X2893872Y-9782960D02*
X2903396Y-9773436D01*
X2903396Y-9773436D02*
X2922444Y-9744865D01*
X2922444Y-9744865D02*
X2931967Y-9706770D01*
X2931967Y-9706770D02*
X2931967Y-9630579D01*
X2931967Y-9630579D02*
X2922444Y-9611531D01*
X2922444Y-9611531D02*
X2912920Y-9602008D01*
X2912920Y-9602008D02*
X2893872Y-9592484D01*
X2893872Y-9592484D02*
X2855777Y-9592484D01*
X2855777Y-9592484D02*
X2836729Y-9602008D01*
X2836729Y-9602008D02*
X2827206Y-9611531D01*
X2827206Y-9611531D02*
X2817682Y-9630579D01*
X2817682Y-9630579D02*
X2817682Y-9678198D01*
X2817682Y-9678198D02*
X2827206Y-9697246D01*
X2827206Y-9697246D02*
X2836729Y-9706770D01*
X2836729Y-9706770D02*
X2855777Y-9716293D01*
X2855777Y-9716293D02*
X2893872Y-9716293D01*
X2893872Y-9716293D02*
X2912920Y-9706770D01*
X2912920Y-9706770D02*
X2922444Y-9697246D01*
X2922444Y-9697246D02*
X2931967Y-9678198D01*
X3122444Y-9792484D02*
X3008158Y-9792484D01*
X3065301Y-9792484D02*
X3065301Y-9592484D01*
X3065301Y-9592484D02*
X3046253Y-9621055D01*
X3046253Y-9621055D02*
X3027206Y-9640103D01*
X3027206Y-9640103D02*
X3008158Y-9649627D01*
X3198634Y-9592484D02*
X3198634Y-9630579D01*
X3274825Y-9592484D02*
X3274825Y-9630579D01*
X3570063Y-9868674D02*
X3560539Y-9859150D01*
X3560539Y-9859150D02*
X3541491Y-9830579D01*
X3541491Y-9830579D02*
X3531968Y-9811531D01*
X3531968Y-9811531D02*
X3522444Y-9782960D01*
X3522444Y-9782960D02*
X3512920Y-9735341D01*
X3512920Y-9735341D02*
X3512920Y-9697246D01*
X3512920Y-9697246D02*
X3522444Y-9649627D01*
X3522444Y-9649627D02*
X3531968Y-9621055D01*
X3531968Y-9621055D02*
X3541491Y-9602008D01*
X3541491Y-9602008D02*
X3560539Y-9573436D01*
X3560539Y-9573436D02*
X3570063Y-9563912D01*
X3636729Y-9611531D02*
X3646253Y-9602008D01*
X3646253Y-9602008D02*
X3665301Y-9592484D01*
X3665301Y-9592484D02*
X3712920Y-9592484D01*
X3712920Y-9592484D02*
X3731968Y-9602008D01*
X3731968Y-9602008D02*
X3741491Y-9611531D01*
X3741491Y-9611531D02*
X3751015Y-9630579D01*
X3751015Y-9630579D02*
X3751015Y-9649627D01*
X3751015Y-9649627D02*
X3741491Y-9678198D01*
X3741491Y-9678198D02*
X3627206Y-9792484D01*
X3627206Y-9792484D02*
X3751015Y-9792484D01*
X3922444Y-9659150D02*
X3922444Y-9792484D01*
X3874825Y-9582960D02*
X3827206Y-9725817D01*
X3827206Y-9725817D02*
X3951015Y-9725817D01*
X4179587Y-9792484D02*
X4179587Y-9592484D01*
X4265301Y-9792484D02*
X4265301Y-9687722D01*
X4265301Y-9687722D02*
X4255777Y-9668674D01*
X4255777Y-9668674D02*
X4236730Y-9659150D01*
X4236730Y-9659150D02*
X4208158Y-9659150D01*
X4208158Y-9659150D02*
X4189110Y-9668674D01*
X4189110Y-9668674D02*
X4179587Y-9678198D01*
X4389111Y-9792484D02*
X4370063Y-9782960D01*
X4370063Y-9782960D02*
X4360539Y-9773436D01*
X4360539Y-9773436D02*
X4351015Y-9754389D01*
X4351015Y-9754389D02*
X4351015Y-9697246D01*
X4351015Y-9697246D02*
X4360539Y-9678198D01*
X4360539Y-9678198D02*
X4370063Y-9668674D01*
X4370063Y-9668674D02*
X4389111Y-9659150D01*
X4389111Y-9659150D02*
X4417682Y-9659150D01*
X4417682Y-9659150D02*
X4436730Y-9668674D01*
X4436730Y-9668674D02*
X4446253Y-9678198D01*
X4446253Y-9678198D02*
X4455777Y-9697246D01*
X4455777Y-9697246D02*
X4455777Y-9754389D01*
X4455777Y-9754389D02*
X4446253Y-9773436D01*
X4446253Y-9773436D02*
X4436730Y-9782960D01*
X4436730Y-9782960D02*
X4417682Y-9792484D01*
X4417682Y-9792484D02*
X4389111Y-9792484D01*
X4570063Y-9792484D02*
X4551015Y-9782960D01*
X4551015Y-9782960D02*
X4541492Y-9763912D01*
X4541492Y-9763912D02*
X4541492Y-9592484D01*
X4722444Y-9782960D02*
X4703396Y-9792484D01*
X4703396Y-9792484D02*
X4665301Y-9792484D01*
X4665301Y-9792484D02*
X4646253Y-9782960D01*
X4646253Y-9782960D02*
X4636730Y-9763912D01*
X4636730Y-9763912D02*
X4636730Y-9687722D01*
X4636730Y-9687722D02*
X4646253Y-9668674D01*
X4646253Y-9668674D02*
X4665301Y-9659150D01*
X4665301Y-9659150D02*
X4703396Y-9659150D01*
X4703396Y-9659150D02*
X4722444Y-9668674D01*
X4722444Y-9668674D02*
X4731968Y-9687722D01*
X4731968Y-9687722D02*
X4731968Y-9706770D01*
X4731968Y-9706770D02*
X4636730Y-9725817D01*
X4808158Y-9782960D02*
X4827206Y-9792484D01*
X4827206Y-9792484D02*
X4865301Y-9792484D01*
X4865301Y-9792484D02*
X4884349Y-9782960D01*
X4884349Y-9782960D02*
X4893873Y-9763912D01*
X4893873Y-9763912D02*
X4893873Y-9754389D01*
X4893873Y-9754389D02*
X4884349Y-9735341D01*
X4884349Y-9735341D02*
X4865301Y-9725817D01*
X4865301Y-9725817D02*
X4836730Y-9725817D01*
X4836730Y-9725817D02*
X4817682Y-9716293D01*
X4817682Y-9716293D02*
X4808158Y-9697246D01*
X4808158Y-9697246D02*
X4808158Y-9687722D01*
X4808158Y-9687722D02*
X4817682Y-9668674D01*
X4817682Y-9668674D02*
X4836730Y-9659150D01*
X4836730Y-9659150D02*
X4865301Y-9659150D01*
X4865301Y-9659150D02*
X4884349Y-9668674D01*
X4960539Y-9868674D02*
X4970063Y-9859150D01*
X4970063Y-9859150D02*
X4989111Y-9830579D01*
X4989111Y-9830579D02*
X4998634Y-9811531D01*
X4998634Y-9811531D02*
X5008158Y-9782960D01*
X5008158Y-9782960D02*
X5017682Y-9735341D01*
X5017682Y-9735341D02*
X5017682Y-9697246D01*
X5017682Y-9697246D02*
X5008158Y-9649627D01*
X5008158Y-9649627D02*
X4998634Y-9621055D01*
X4998634Y-9621055D02*
X4989111Y-9602008D01*
X4989111Y-9602008D02*
X4970063Y-9573436D01*
X4970063Y-9573436D02*
X4960539Y-9563912D01*
X-205000Y-9871000D02*
X-5000Y-10071000D01*
X-5000Y-9871000D02*
X-205000Y-10071000D01*
X-5000Y-9971000D02*
G75*
G02*
X-205000Y-9971000I-100000J0D01*
G01*
X-205000Y-9971000D02*
G75*
G02*
X-5000Y-9971000I100000J0D01*
G01*
X246253Y-9881531D02*
X255777Y-9872008D01*
X255777Y-9872008D02*
X274824Y-9862484D01*
X274824Y-9862484D02*
X322444Y-9862484D01*
X322444Y-9862484D02*
X341491Y-9872008D01*
X341491Y-9872008D02*
X351015Y-9881531D01*
X351015Y-9881531D02*
X360539Y-9900579D01*
X360539Y-9900579D02*
X360539Y-9919627D01*
X360539Y-9919627D02*
X351015Y-9948198D01*
X351015Y-9948198D02*
X236729Y-10062484D01*
X236729Y-10062484D02*
X360539Y-10062484D01*
X446253Y-10043436D02*
X455777Y-10052960D01*
X455777Y-10052960D02*
X446253Y-10062484D01*
X446253Y-10062484D02*
X436729Y-10052960D01*
X436729Y-10052960D02*
X446253Y-10043436D01*
X446253Y-10043436D02*
X446253Y-10062484D01*
X579586Y-9862484D02*
X598634Y-9862484D01*
X598634Y-9862484D02*
X617682Y-9872008D01*
X617682Y-9872008D02*
X627205Y-9881531D01*
X627205Y-9881531D02*
X636729Y-9900579D01*
X636729Y-9900579D02*
X646253Y-9938674D01*
X646253Y-9938674D02*
X646253Y-9986293D01*
X646253Y-9986293D02*
X636729Y-10024389D01*
X636729Y-10024389D02*
X627205Y-10043436D01*
X627205Y-10043436D02*
X617682Y-10052960D01*
X617682Y-10052960D02*
X598634Y-10062484D01*
X598634Y-10062484D02*
X579586Y-10062484D01*
X579586Y-10062484D02*
X560539Y-10052960D01*
X560539Y-10052960D02*
X551015Y-10043436D01*
X551015Y-10043436D02*
X541491Y-10024389D01*
X541491Y-10024389D02*
X531967Y-9986293D01*
X531967Y-9986293D02*
X531967Y-9938674D01*
X531967Y-9938674D02*
X541491Y-9900579D01*
X541491Y-9900579D02*
X551015Y-9881531D01*
X551015Y-9881531D02*
X560539Y-9872008D01*
X560539Y-9872008D02*
X579586Y-9862484D01*
X770062Y-9862484D02*
X789110Y-9862484D01*
X789110Y-9862484D02*
X808158Y-9872008D01*
X808158Y-9872008D02*
X817682Y-9881531D01*
X817682Y-9881531D02*
X827205Y-9900579D01*
X827205Y-9900579D02*
X836729Y-9938674D01*
X836729Y-9938674D02*
X836729Y-9986293D01*
X836729Y-9986293D02*
X827205Y-10024389D01*
X827205Y-10024389D02*
X817682Y-10043436D01*
X817682Y-10043436D02*
X808158Y-10052960D01*
X808158Y-10052960D02*
X789110Y-10062484D01*
X789110Y-10062484D02*
X770062Y-10062484D01*
X770062Y-10062484D02*
X751015Y-10052960D01*
X751015Y-10052960D02*
X741491Y-10043436D01*
X741491Y-10043436D02*
X731967Y-10024389D01*
X731967Y-10024389D02*
X722443Y-9986293D01*
X722443Y-9986293D02*
X722443Y-9938674D01*
X722443Y-9938674D02*
X731967Y-9900579D01*
X731967Y-9900579D02*
X741491Y-9881531D01*
X741491Y-9881531D02*
X751015Y-9872008D01*
X751015Y-9872008D02*
X770062Y-9862484D01*
X960539Y-9862484D02*
X979586Y-9862484D01*
X979586Y-9862484D02*
X998634Y-9872008D01*
X998634Y-9872008D02*
X1008158Y-9881531D01*
X1008158Y-9881531D02*
X1017682Y-9900579D01*
X1017682Y-9900579D02*
X1027205Y-9938674D01*
X1027205Y-9938674D02*
X1027205Y-9986293D01*
X1027205Y-9986293D02*
X1017682Y-10024389D01*
X1017682Y-10024389D02*
X1008158Y-10043436D01*
X1008158Y-10043436D02*
X998634Y-10052960D01*
X998634Y-10052960D02*
X979586Y-10062484D01*
X979586Y-10062484D02*
X960539Y-10062484D01*
X960539Y-10062484D02*
X941491Y-10052960D01*
X941491Y-10052960D02*
X931967Y-10043436D01*
X931967Y-10043436D02*
X922443Y-10024389D01*
X922443Y-10024389D02*
X912920Y-9986293D01*
X912920Y-9986293D02*
X912920Y-9938674D01*
X912920Y-9938674D02*
X922443Y-9900579D01*
X922443Y-9900579D02*
X931967Y-9881531D01*
X931967Y-9881531D02*
X941491Y-9872008D01*
X941491Y-9872008D02*
X960539Y-9862484D01*
X1112920Y-10062484D02*
X1112920Y-9929150D01*
X1112920Y-9948198D02*
X1122444Y-9938674D01*
X1122444Y-9938674D02*
X1141491Y-9929150D01*
X1141491Y-9929150D02*
X1170063Y-9929150D01*
X1170063Y-9929150D02*
X1189110Y-9938674D01*
X1189110Y-9938674D02*
X1198634Y-9957722D01*
X1198634Y-9957722D02*
X1198634Y-10062484D01*
X1198634Y-9957722D02*
X1208158Y-9938674D01*
X1208158Y-9938674D02*
X1227205Y-9929150D01*
X1227205Y-9929150D02*
X1255777Y-9929150D01*
X1255777Y-9929150D02*
X1274825Y-9938674D01*
X1274825Y-9938674D02*
X1284348Y-9957722D01*
X1284348Y-9957722D02*
X1284348Y-10062484D01*
X1379586Y-10062484D02*
X1379586Y-9929150D01*
X1379586Y-9948198D02*
X1389110Y-9938674D01*
X1389110Y-9938674D02*
X1408158Y-9929150D01*
X1408158Y-9929150D02*
X1436729Y-9929150D01*
X1436729Y-9929150D02*
X1455777Y-9938674D01*
X1455777Y-9938674D02*
X1465301Y-9957722D01*
X1465301Y-9957722D02*
X1465301Y-10062484D01*
X1465301Y-9957722D02*
X1474824Y-9938674D01*
X1474824Y-9938674D02*
X1493872Y-9929150D01*
X1493872Y-9929150D02*
X1522443Y-9929150D01*
X1522443Y-9929150D02*
X1541491Y-9938674D01*
X1541491Y-9938674D02*
X1551015Y-9957722D01*
X1551015Y-9957722D02*
X1551015Y-10062484D01*
X1941491Y-9852960D02*
X1770063Y-10110103D01*
X2198634Y-9862484D02*
X2217682Y-9862484D01*
X2217682Y-9862484D02*
X2236729Y-9872008D01*
X2236729Y-9872008D02*
X2246253Y-9881531D01*
X2246253Y-9881531D02*
X2255777Y-9900579D01*
X2255777Y-9900579D02*
X2265301Y-9938674D01*
X2265301Y-9938674D02*
X2265301Y-9986293D01*
X2265301Y-9986293D02*
X2255777Y-10024389D01*
X2255777Y-10024389D02*
X2246253Y-10043436D01*
X2246253Y-10043436D02*
X2236729Y-10052960D01*
X2236729Y-10052960D02*
X2217682Y-10062484D01*
X2217682Y-10062484D02*
X2198634Y-10062484D01*
X2198634Y-10062484D02*
X2179587Y-10052960D01*
X2179587Y-10052960D02*
X2170063Y-10043436D01*
X2170063Y-10043436D02*
X2160539Y-10024389D01*
X2160539Y-10024389D02*
X2151015Y-9986293D01*
X2151015Y-9986293D02*
X2151015Y-9938674D01*
X2151015Y-9938674D02*
X2160539Y-9900579D01*
X2160539Y-9900579D02*
X2170063Y-9881531D01*
X2170063Y-9881531D02*
X2179587Y-9872008D01*
X2179587Y-9872008D02*
X2198634Y-9862484D01*
X2351015Y-10043436D02*
X2360539Y-10052960D01*
X2360539Y-10052960D02*
X2351015Y-10062484D01*
X2351015Y-10062484D02*
X2341491Y-10052960D01*
X2341491Y-10052960D02*
X2351015Y-10043436D01*
X2351015Y-10043436D02*
X2351015Y-10062484D01*
X2484348Y-9862484D02*
X2503396Y-9862484D01*
X2503396Y-9862484D02*
X2522444Y-9872008D01*
X2522444Y-9872008D02*
X2531968Y-9881531D01*
X2531968Y-9881531D02*
X2541491Y-9900579D01*
X2541491Y-9900579D02*
X2551015Y-9938674D01*
X2551015Y-9938674D02*
X2551015Y-9986293D01*
X2551015Y-9986293D02*
X2541491Y-10024389D01*
X2541491Y-10024389D02*
X2531968Y-10043436D01*
X2531968Y-10043436D02*
X2522444Y-10052960D01*
X2522444Y-10052960D02*
X2503396Y-10062484D01*
X2503396Y-10062484D02*
X2484348Y-10062484D01*
X2484348Y-10062484D02*
X2465301Y-10052960D01*
X2465301Y-10052960D02*
X2455777Y-10043436D01*
X2455777Y-10043436D02*
X2446253Y-10024389D01*
X2446253Y-10024389D02*
X2436729Y-9986293D01*
X2436729Y-9986293D02*
X2436729Y-9938674D01*
X2436729Y-9938674D02*
X2446253Y-9900579D01*
X2446253Y-9900579D02*
X2455777Y-9881531D01*
X2455777Y-9881531D02*
X2465301Y-9872008D01*
X2465301Y-9872008D02*
X2484348Y-9862484D01*
X2617682Y-9862484D02*
X2751015Y-9862484D01*
X2751015Y-9862484D02*
X2665301Y-10062484D01*
X2855777Y-9948198D02*
X2836729Y-9938674D01*
X2836729Y-9938674D02*
X2827206Y-9929150D01*
X2827206Y-9929150D02*
X2817682Y-9910103D01*
X2817682Y-9910103D02*
X2817682Y-9900579D01*
X2817682Y-9900579D02*
X2827206Y-9881531D01*
X2827206Y-9881531D02*
X2836729Y-9872008D01*
X2836729Y-9872008D02*
X2855777Y-9862484D01*
X2855777Y-9862484D02*
X2893872Y-9862484D01*
X2893872Y-9862484D02*
X2912920Y-9872008D01*
X2912920Y-9872008D02*
X2922444Y-9881531D01*
X2922444Y-9881531D02*
X2931967Y-9900579D01*
X2931967Y-9900579D02*
X2931967Y-9910103D01*
X2931967Y-9910103D02*
X2922444Y-9929150D01*
X2922444Y-9929150D02*
X2912920Y-9938674D01*
X2912920Y-9938674D02*
X2893872Y-9948198D01*
X2893872Y-9948198D02*
X2855777Y-9948198D01*
X2855777Y-9948198D02*
X2836729Y-9957722D01*
X2836729Y-9957722D02*
X2827206Y-9967246D01*
X2827206Y-9967246D02*
X2817682Y-9986293D01*
X2817682Y-9986293D02*
X2817682Y-10024389D01*
X2817682Y-10024389D02*
X2827206Y-10043436D01*
X2827206Y-10043436D02*
X2836729Y-10052960D01*
X2836729Y-10052960D02*
X2855777Y-10062484D01*
X2855777Y-10062484D02*
X2893872Y-10062484D01*
X2893872Y-10062484D02*
X2912920Y-10052960D01*
X2912920Y-10052960D02*
X2922444Y-10043436D01*
X2922444Y-10043436D02*
X2931967Y-10024389D01*
X2931967Y-10024389D02*
X2931967Y-9986293D01*
X2931967Y-9986293D02*
X2922444Y-9967246D01*
X2922444Y-9967246D02*
X2912920Y-9957722D01*
X2912920Y-9957722D02*
X2893872Y-9948198D01*
X2998634Y-9862484D02*
X3131967Y-9862484D01*
X3131967Y-9862484D02*
X3046253Y-10062484D01*
X3198634Y-9862484D02*
X3198634Y-9900579D01*
X3274825Y-9862484D02*
X3274825Y-9900579D01*
X3570063Y-10138674D02*
X3560539Y-10129150D01*
X3560539Y-10129150D02*
X3541491Y-10100579D01*
X3541491Y-10100579D02*
X3531968Y-10081531D01*
X3531968Y-10081531D02*
X3522444Y-10052960D01*
X3522444Y-10052960D02*
X3512920Y-10005341D01*
X3512920Y-10005341D02*
X3512920Y-9967246D01*
X3512920Y-9967246D02*
X3522444Y-9919627D01*
X3522444Y-9919627D02*
X3531968Y-9891055D01*
X3531968Y-9891055D02*
X3541491Y-9872008D01*
X3541491Y-9872008D02*
X3560539Y-9843436D01*
X3560539Y-9843436D02*
X3570063Y-9833912D01*
X3674825Y-9948198D02*
X3655777Y-9938674D01*
X3655777Y-9938674D02*
X3646253Y-9929150D01*
X3646253Y-9929150D02*
X3636729Y-9910103D01*
X3636729Y-9910103D02*
X3636729Y-9900579D01*
X3636729Y-9900579D02*
X3646253Y-9881531D01*
X3646253Y-9881531D02*
X3655777Y-9872008D01*
X3655777Y-9872008D02*
X3674825Y-9862484D01*
X3674825Y-9862484D02*
X3712920Y-9862484D01*
X3712920Y-9862484D02*
X3731968Y-9872008D01*
X3731968Y-9872008D02*
X3741491Y-9881531D01*
X3741491Y-9881531D02*
X3751015Y-9900579D01*
X3751015Y-9900579D02*
X3751015Y-9910103D01*
X3751015Y-9910103D02*
X3741491Y-9929150D01*
X3741491Y-9929150D02*
X3731968Y-9938674D01*
X3731968Y-9938674D02*
X3712920Y-9948198D01*
X3712920Y-9948198D02*
X3674825Y-9948198D01*
X3674825Y-9948198D02*
X3655777Y-9957722D01*
X3655777Y-9957722D02*
X3646253Y-9967246D01*
X3646253Y-9967246D02*
X3636729Y-9986293D01*
X3636729Y-9986293D02*
X3636729Y-10024389D01*
X3636729Y-10024389D02*
X3646253Y-10043436D01*
X3646253Y-10043436D02*
X3655777Y-10052960D01*
X3655777Y-10052960D02*
X3674825Y-10062484D01*
X3674825Y-10062484D02*
X3712920Y-10062484D01*
X3712920Y-10062484D02*
X3731968Y-10052960D01*
X3731968Y-10052960D02*
X3741491Y-10043436D01*
X3741491Y-10043436D02*
X3751015Y-10024389D01*
X3751015Y-10024389D02*
X3751015Y-9986293D01*
X3751015Y-9986293D02*
X3741491Y-9967246D01*
X3741491Y-9967246D02*
X3731968Y-9957722D01*
X3731968Y-9957722D02*
X3712920Y-9948198D01*
X3989110Y-10062484D02*
X3989110Y-9862484D01*
X4074825Y-10062484D02*
X4074825Y-9957722D01*
X4074825Y-9957722D02*
X4065301Y-9938674D01*
X4065301Y-9938674D02*
X4046253Y-9929150D01*
X4046253Y-9929150D02*
X4017682Y-9929150D01*
X4017682Y-9929150D02*
X3998634Y-9938674D01*
X3998634Y-9938674D02*
X3989110Y-9948198D01*
X4198634Y-10062484D02*
X4179587Y-10052960D01*
X4179587Y-10052960D02*
X4170063Y-10043436D01*
X4170063Y-10043436D02*
X4160539Y-10024389D01*
X4160539Y-10024389D02*
X4160539Y-9967246D01*
X4160539Y-9967246D02*
X4170063Y-9948198D01*
X4170063Y-9948198D02*
X4179587Y-9938674D01*
X4179587Y-9938674D02*
X4198634Y-9929150D01*
X4198634Y-9929150D02*
X4227206Y-9929150D01*
X4227206Y-9929150D02*
X4246253Y-9938674D01*
X4246253Y-9938674D02*
X4255777Y-9948198D01*
X4255777Y-9948198D02*
X4265301Y-9967246D01*
X4265301Y-9967246D02*
X4265301Y-10024389D01*
X4265301Y-10024389D02*
X4255777Y-10043436D01*
X4255777Y-10043436D02*
X4246253Y-10052960D01*
X4246253Y-10052960D02*
X4227206Y-10062484D01*
X4227206Y-10062484D02*
X4198634Y-10062484D01*
X4379587Y-10062484D02*
X4360539Y-10052960D01*
X4360539Y-10052960D02*
X4351015Y-10033912D01*
X4351015Y-10033912D02*
X4351015Y-9862484D01*
X4531968Y-10052960D02*
X4512920Y-10062484D01*
X4512920Y-10062484D02*
X4474825Y-10062484D01*
X4474825Y-10062484D02*
X4455777Y-10052960D01*
X4455777Y-10052960D02*
X4446253Y-10033912D01*
X4446253Y-10033912D02*
X4446253Y-9957722D01*
X4446253Y-9957722D02*
X4455777Y-9938674D01*
X4455777Y-9938674D02*
X4474825Y-9929150D01*
X4474825Y-9929150D02*
X4512920Y-9929150D01*
X4512920Y-9929150D02*
X4531968Y-9938674D01*
X4531968Y-9938674D02*
X4541492Y-9957722D01*
X4541492Y-9957722D02*
X4541492Y-9976770D01*
X4541492Y-9976770D02*
X4446253Y-9995817D01*
X4617682Y-10052960D02*
X4636730Y-10062484D01*
X4636730Y-10062484D02*
X4674825Y-10062484D01*
X4674825Y-10062484D02*
X4693873Y-10052960D01*
X4693873Y-10052960D02*
X4703396Y-10033912D01*
X4703396Y-10033912D02*
X4703396Y-10024389D01*
X4703396Y-10024389D02*
X4693873Y-10005341D01*
X4693873Y-10005341D02*
X4674825Y-9995817D01*
X4674825Y-9995817D02*
X4646253Y-9995817D01*
X4646253Y-9995817D02*
X4627206Y-9986293D01*
X4627206Y-9986293D02*
X4617682Y-9967246D01*
X4617682Y-9967246D02*
X4617682Y-9957722D01*
X4617682Y-9957722D02*
X4627206Y-9938674D01*
X4627206Y-9938674D02*
X4646253Y-9929150D01*
X4646253Y-9929150D02*
X4674825Y-9929150D01*
X4674825Y-9929150D02*
X4693873Y-9938674D01*
X4770063Y-10138674D02*
X4779587Y-10129150D01*
X4779587Y-10129150D02*
X4798634Y-10100579D01*
X4798634Y-10100579D02*
X4808158Y-10081531D01*
X4808158Y-10081531D02*
X4817682Y-10052960D01*
X4817682Y-10052960D02*
X4827206Y-10005341D01*
X4827206Y-10005341D02*
X4827206Y-9967246D01*
X4827206Y-9967246D02*
X4817682Y-9919627D01*
X4817682Y-9919627D02*
X4808158Y-9891055D01*
X4808158Y-9891055D02*
X4798634Y-9872008D01*
X4798634Y-9872008D02*
X4779587Y-9843436D01*
X4779587Y-9843436D02*
X4770063Y-9833912D01*
X5131968Y-10138674D02*
X5122444Y-10129150D01*
X5122444Y-10129150D02*
X5103396Y-10100579D01*
X5103396Y-10100579D02*
X5093873Y-10081531D01*
X5093873Y-10081531D02*
X5084349Y-10052960D01*
X5084349Y-10052960D02*
X5074825Y-10005341D01*
X5074825Y-10005341D02*
X5074825Y-9967246D01*
X5074825Y-9967246D02*
X5084349Y-9919627D01*
X5084349Y-9919627D02*
X5093873Y-9891055D01*
X5093873Y-9891055D02*
X5103396Y-9872008D01*
X5103396Y-9872008D02*
X5122444Y-9843436D01*
X5122444Y-9843436D02*
X5131968Y-9833912D01*
X5208158Y-9929150D02*
X5208158Y-10062484D01*
X5208158Y-9948198D02*
X5217682Y-9938674D01*
X5217682Y-9938674D02*
X5236730Y-9929150D01*
X5236730Y-9929150D02*
X5265301Y-9929150D01*
X5265301Y-9929150D02*
X5284349Y-9938674D01*
X5284349Y-9938674D02*
X5293873Y-9957722D01*
X5293873Y-9957722D02*
X5293873Y-10062484D01*
X5417682Y-10062484D02*
X5398634Y-10052960D01*
X5398634Y-10052960D02*
X5389111Y-10043436D01*
X5389111Y-10043436D02*
X5379587Y-10024389D01*
X5379587Y-10024389D02*
X5379587Y-9967246D01*
X5379587Y-9967246D02*
X5389111Y-9948198D01*
X5389111Y-9948198D02*
X5398634Y-9938674D01*
X5398634Y-9938674D02*
X5417682Y-9929150D01*
X5417682Y-9929150D02*
X5446254Y-9929150D01*
X5446254Y-9929150D02*
X5465301Y-9938674D01*
X5465301Y-9938674D02*
X5474825Y-9948198D01*
X5474825Y-9948198D02*
X5484349Y-9967246D01*
X5484349Y-9967246D02*
X5484349Y-10024389D01*
X5484349Y-10024389D02*
X5474825Y-10043436D01*
X5474825Y-10043436D02*
X5465301Y-10052960D01*
X5465301Y-10052960D02*
X5446254Y-10062484D01*
X5446254Y-10062484D02*
X5417682Y-10062484D01*
X5541492Y-9929150D02*
X5617682Y-9929150D01*
X5570063Y-9862484D02*
X5570063Y-10033912D01*
X5570063Y-10033912D02*
X5579587Y-10052960D01*
X5579587Y-10052960D02*
X5598634Y-10062484D01*
X5598634Y-10062484D02*
X5617682Y-10062484D01*
X5836730Y-9929150D02*
X5836730Y-10129150D01*
X5836730Y-9938674D02*
X5855777Y-9929150D01*
X5855777Y-9929150D02*
X5893873Y-9929150D01*
X5893873Y-9929150D02*
X5912920Y-9938674D01*
X5912920Y-9938674D02*
X5922444Y-9948198D01*
X5922444Y-9948198D02*
X5931968Y-9967246D01*
X5931968Y-9967246D02*
X5931968Y-10024389D01*
X5931968Y-10024389D02*
X5922444Y-10043436D01*
X5922444Y-10043436D02*
X5912920Y-10052960D01*
X5912920Y-10052960D02*
X5893873Y-10062484D01*
X5893873Y-10062484D02*
X5855777Y-10062484D01*
X5855777Y-10062484D02*
X5836730Y-10052960D01*
X6046253Y-10062484D02*
X6027206Y-10052960D01*
X6027206Y-10052960D02*
X6017682Y-10033912D01*
X6017682Y-10033912D02*
X6017682Y-9862484D01*
X6208158Y-10062484D02*
X6208158Y-9957722D01*
X6208158Y-9957722D02*
X6198634Y-9938674D01*
X6198634Y-9938674D02*
X6179587Y-9929150D01*
X6179587Y-9929150D02*
X6141492Y-9929150D01*
X6141492Y-9929150D02*
X6122444Y-9938674D01*
X6208158Y-10052960D02*
X6189111Y-10062484D01*
X6189111Y-10062484D02*
X6141492Y-10062484D01*
X6141492Y-10062484D02*
X6122444Y-10052960D01*
X6122444Y-10052960D02*
X6112920Y-10033912D01*
X6112920Y-10033912D02*
X6112920Y-10014865D01*
X6112920Y-10014865D02*
X6122444Y-9995817D01*
X6122444Y-9995817D02*
X6141492Y-9986293D01*
X6141492Y-9986293D02*
X6189111Y-9986293D01*
X6189111Y-9986293D02*
X6208158Y-9976770D01*
X6274825Y-9929150D02*
X6351015Y-9929150D01*
X6303396Y-9862484D02*
X6303396Y-10033912D01*
X6303396Y-10033912D02*
X6312920Y-10052960D01*
X6312920Y-10052960D02*
X6331968Y-10062484D01*
X6331968Y-10062484D02*
X6351015Y-10062484D01*
X6493873Y-10052960D02*
X6474825Y-10062484D01*
X6474825Y-10062484D02*
X6436730Y-10062484D01*
X6436730Y-10062484D02*
X6417682Y-10052960D01*
X6417682Y-10052960D02*
X6408158Y-10033912D01*
X6408158Y-10033912D02*
X6408158Y-9957722D01*
X6408158Y-9957722D02*
X6417682Y-9938674D01*
X6417682Y-9938674D02*
X6436730Y-9929150D01*
X6436730Y-9929150D02*
X6474825Y-9929150D01*
X6474825Y-9929150D02*
X6493873Y-9938674D01*
X6493873Y-9938674D02*
X6503396Y-9957722D01*
X6503396Y-9957722D02*
X6503396Y-9976770D01*
X6503396Y-9976770D02*
X6408158Y-9995817D01*
X6674825Y-10062484D02*
X6674825Y-9862484D01*
X6674825Y-10052960D02*
X6655777Y-10062484D01*
X6655777Y-10062484D02*
X6617682Y-10062484D01*
X6617682Y-10062484D02*
X6598634Y-10052960D01*
X6598634Y-10052960D02*
X6589111Y-10043436D01*
X6589111Y-10043436D02*
X6579587Y-10024389D01*
X6579587Y-10024389D02*
X6579587Y-9967246D01*
X6579587Y-9967246D02*
X6589111Y-9948198D01*
X6589111Y-9948198D02*
X6598634Y-9938674D01*
X6598634Y-9938674D02*
X6617682Y-9929150D01*
X6617682Y-9929150D02*
X6655777Y-9929150D01*
X6655777Y-9929150D02*
X6674825Y-9938674D01*
X6751015Y-10138674D02*
X6760539Y-10129150D01*
X6760539Y-10129150D02*
X6779587Y-10100579D01*
X6779587Y-10100579D02*
X6789111Y-10081531D01*
X6789111Y-10081531D02*
X6798634Y-10052960D01*
X6798634Y-10052960D02*
X6808158Y-10005341D01*
X6808158Y-10005341D02*
X6808158Y-9967246D01*
X6808158Y-9967246D02*
X6798634Y-9919627D01*
X6798634Y-9919627D02*
X6789111Y-9891055D01*
X6789111Y-9891055D02*
X6779587Y-9872008D01*
X6779587Y-9872008D02*
X6760539Y-9843436D01*
X6760539Y-9843436D02*
X6751015Y-9833912D01*
X-205000Y-10191000D02*
X-5000Y-10391000D01*
X-5000Y-10191000D02*
X-205000Y-10391000D01*
X-105000Y-10191000D02*
X-105000Y-10391000D01*
X-205000Y-10291000D02*
X-5000Y-10291000D01*
X236729Y-10182484D02*
X360539Y-10182484D01*
X360539Y-10182484D02*
X293872Y-10258674D01*
X293872Y-10258674D02*
X322444Y-10258674D01*
X322444Y-10258674D02*
X341491Y-10268198D01*
X341491Y-10268198D02*
X351015Y-10277722D01*
X351015Y-10277722D02*
X360539Y-10296770D01*
X360539Y-10296770D02*
X360539Y-10344389D01*
X360539Y-10344389D02*
X351015Y-10363436D01*
X351015Y-10363436D02*
X341491Y-10372960D01*
X341491Y-10372960D02*
X322444Y-10382484D01*
X322444Y-10382484D02*
X265301Y-10382484D01*
X265301Y-10382484D02*
X246253Y-10372960D01*
X246253Y-10372960D02*
X236729Y-10363436D01*
X446253Y-10363436D02*
X455777Y-10372960D01*
X455777Y-10372960D02*
X446253Y-10382484D01*
X446253Y-10382484D02*
X436729Y-10372960D01*
X436729Y-10372960D02*
X446253Y-10363436D01*
X446253Y-10363436D02*
X446253Y-10382484D01*
X579586Y-10182484D02*
X598634Y-10182484D01*
X598634Y-10182484D02*
X617682Y-10192008D01*
X617682Y-10192008D02*
X627205Y-10201531D01*
X627205Y-10201531D02*
X636729Y-10220579D01*
X636729Y-10220579D02*
X646253Y-10258674D01*
X646253Y-10258674D02*
X646253Y-10306293D01*
X646253Y-10306293D02*
X636729Y-10344389D01*
X636729Y-10344389D02*
X627205Y-10363436D01*
X627205Y-10363436D02*
X617682Y-10372960D01*
X617682Y-10372960D02*
X598634Y-10382484D01*
X598634Y-10382484D02*
X579586Y-10382484D01*
X579586Y-10382484D02*
X560539Y-10372960D01*
X560539Y-10372960D02*
X551015Y-10363436D01*
X551015Y-10363436D02*
X541491Y-10344389D01*
X541491Y-10344389D02*
X531967Y-10306293D01*
X531967Y-10306293D02*
X531967Y-10258674D01*
X531967Y-10258674D02*
X541491Y-10220579D01*
X541491Y-10220579D02*
X551015Y-10201531D01*
X551015Y-10201531D02*
X560539Y-10192008D01*
X560539Y-10192008D02*
X579586Y-10182484D01*
X770062Y-10182484D02*
X789110Y-10182484D01*
X789110Y-10182484D02*
X808158Y-10192008D01*
X808158Y-10192008D02*
X817682Y-10201531D01*
X817682Y-10201531D02*
X827205Y-10220579D01*
X827205Y-10220579D02*
X836729Y-10258674D01*
X836729Y-10258674D02*
X836729Y-10306293D01*
X836729Y-10306293D02*
X827205Y-10344389D01*
X827205Y-10344389D02*
X817682Y-10363436D01*
X817682Y-10363436D02*
X808158Y-10372960D01*
X808158Y-10372960D02*
X789110Y-10382484D01*
X789110Y-10382484D02*
X770062Y-10382484D01*
X770062Y-10382484D02*
X751015Y-10372960D01*
X751015Y-10372960D02*
X741491Y-10363436D01*
X741491Y-10363436D02*
X731967Y-10344389D01*
X731967Y-10344389D02*
X722443Y-10306293D01*
X722443Y-10306293D02*
X722443Y-10258674D01*
X722443Y-10258674D02*
X731967Y-10220579D01*
X731967Y-10220579D02*
X741491Y-10201531D01*
X741491Y-10201531D02*
X751015Y-10192008D01*
X751015Y-10192008D02*
X770062Y-10182484D01*
X960539Y-10182484D02*
X979586Y-10182484D01*
X979586Y-10182484D02*
X998634Y-10192008D01*
X998634Y-10192008D02*
X1008158Y-10201531D01*
X1008158Y-10201531D02*
X1017682Y-10220579D01*
X1017682Y-10220579D02*
X1027205Y-10258674D01*
X1027205Y-10258674D02*
X1027205Y-10306293D01*
X1027205Y-10306293D02*
X1017682Y-10344389D01*
X1017682Y-10344389D02*
X1008158Y-10363436D01*
X1008158Y-10363436D02*
X998634Y-10372960D01*
X998634Y-10372960D02*
X979586Y-10382484D01*
X979586Y-10382484D02*
X960539Y-10382484D01*
X960539Y-10382484D02*
X941491Y-10372960D01*
X941491Y-10372960D02*
X931967Y-10363436D01*
X931967Y-10363436D02*
X922443Y-10344389D01*
X922443Y-10344389D02*
X912920Y-10306293D01*
X912920Y-10306293D02*
X912920Y-10258674D01*
X912920Y-10258674D02*
X922443Y-10220579D01*
X922443Y-10220579D02*
X931967Y-10201531D01*
X931967Y-10201531D02*
X941491Y-10192008D01*
X941491Y-10192008D02*
X960539Y-10182484D01*
X1112920Y-10382484D02*
X1112920Y-10249150D01*
X1112920Y-10268198D02*
X1122444Y-10258674D01*
X1122444Y-10258674D02*
X1141491Y-10249150D01*
X1141491Y-10249150D02*
X1170063Y-10249150D01*
X1170063Y-10249150D02*
X1189110Y-10258674D01*
X1189110Y-10258674D02*
X1198634Y-10277722D01*
X1198634Y-10277722D02*
X1198634Y-10382484D01*
X1198634Y-10277722D02*
X1208158Y-10258674D01*
X1208158Y-10258674D02*
X1227205Y-10249150D01*
X1227205Y-10249150D02*
X1255777Y-10249150D01*
X1255777Y-10249150D02*
X1274825Y-10258674D01*
X1274825Y-10258674D02*
X1284348Y-10277722D01*
X1284348Y-10277722D02*
X1284348Y-10382484D01*
X1379586Y-10382484D02*
X1379586Y-10249150D01*
X1379586Y-10268198D02*
X1389110Y-10258674D01*
X1389110Y-10258674D02*
X1408158Y-10249150D01*
X1408158Y-10249150D02*
X1436729Y-10249150D01*
X1436729Y-10249150D02*
X1455777Y-10258674D01*
X1455777Y-10258674D02*
X1465301Y-10277722D01*
X1465301Y-10277722D02*
X1465301Y-10382484D01*
X1465301Y-10277722D02*
X1474824Y-10258674D01*
X1474824Y-10258674D02*
X1493872Y-10249150D01*
X1493872Y-10249150D02*
X1522443Y-10249150D01*
X1522443Y-10249150D02*
X1541491Y-10258674D01*
X1541491Y-10258674D02*
X1551015Y-10277722D01*
X1551015Y-10277722D02*
X1551015Y-10382484D01*
X1941491Y-10172960D02*
X1770063Y-10430103D01*
X2198634Y-10182484D02*
X2217682Y-10182484D01*
X2217682Y-10182484D02*
X2236729Y-10192008D01*
X2236729Y-10192008D02*
X2246253Y-10201531D01*
X2246253Y-10201531D02*
X2255777Y-10220579D01*
X2255777Y-10220579D02*
X2265301Y-10258674D01*
X2265301Y-10258674D02*
X2265301Y-10306293D01*
X2265301Y-10306293D02*
X2255777Y-10344389D01*
X2255777Y-10344389D02*
X2246253Y-10363436D01*
X2246253Y-10363436D02*
X2236729Y-10372960D01*
X2236729Y-10372960D02*
X2217682Y-10382484D01*
X2217682Y-10382484D02*
X2198634Y-10382484D01*
X2198634Y-10382484D02*
X2179587Y-10372960D01*
X2179587Y-10372960D02*
X2170063Y-10363436D01*
X2170063Y-10363436D02*
X2160539Y-10344389D01*
X2160539Y-10344389D02*
X2151015Y-10306293D01*
X2151015Y-10306293D02*
X2151015Y-10258674D01*
X2151015Y-10258674D02*
X2160539Y-10220579D01*
X2160539Y-10220579D02*
X2170063Y-10201531D01*
X2170063Y-10201531D02*
X2179587Y-10192008D01*
X2179587Y-10192008D02*
X2198634Y-10182484D01*
X2351015Y-10363436D02*
X2360539Y-10372960D01*
X2360539Y-10372960D02*
X2351015Y-10382484D01*
X2351015Y-10382484D02*
X2341491Y-10372960D01*
X2341491Y-10372960D02*
X2351015Y-10363436D01*
X2351015Y-10363436D02*
X2351015Y-10382484D01*
X2551015Y-10382484D02*
X2436729Y-10382484D01*
X2493872Y-10382484D02*
X2493872Y-10182484D01*
X2493872Y-10182484D02*
X2474825Y-10211055D01*
X2474825Y-10211055D02*
X2455777Y-10230103D01*
X2455777Y-10230103D02*
X2436729Y-10239627D01*
X2741491Y-10382484D02*
X2627206Y-10382484D01*
X2684348Y-10382484D02*
X2684348Y-10182484D01*
X2684348Y-10182484D02*
X2665301Y-10211055D01*
X2665301Y-10211055D02*
X2646253Y-10230103D01*
X2646253Y-10230103D02*
X2627206Y-10239627D01*
X2855777Y-10268198D02*
X2836729Y-10258674D01*
X2836729Y-10258674D02*
X2827206Y-10249150D01*
X2827206Y-10249150D02*
X2817682Y-10230103D01*
X2817682Y-10230103D02*
X2817682Y-10220579D01*
X2817682Y-10220579D02*
X2827206Y-10201531D01*
X2827206Y-10201531D02*
X2836729Y-10192008D01*
X2836729Y-10192008D02*
X2855777Y-10182484D01*
X2855777Y-10182484D02*
X2893872Y-10182484D01*
X2893872Y-10182484D02*
X2912920Y-10192008D01*
X2912920Y-10192008D02*
X2922444Y-10201531D01*
X2922444Y-10201531D02*
X2931967Y-10220579D01*
X2931967Y-10220579D02*
X2931967Y-10230103D01*
X2931967Y-10230103D02*
X2922444Y-10249150D01*
X2922444Y-10249150D02*
X2912920Y-10258674D01*
X2912920Y-10258674D02*
X2893872Y-10268198D01*
X2893872Y-10268198D02*
X2855777Y-10268198D01*
X2855777Y-10268198D02*
X2836729Y-10277722D01*
X2836729Y-10277722D02*
X2827206Y-10287246D01*
X2827206Y-10287246D02*
X2817682Y-10306293D01*
X2817682Y-10306293D02*
X2817682Y-10344389D01*
X2817682Y-10344389D02*
X2827206Y-10363436D01*
X2827206Y-10363436D02*
X2836729Y-10372960D01*
X2836729Y-10372960D02*
X2855777Y-10382484D01*
X2855777Y-10382484D02*
X2893872Y-10382484D01*
X2893872Y-10382484D02*
X2912920Y-10372960D01*
X2912920Y-10372960D02*
X2922444Y-10363436D01*
X2922444Y-10363436D02*
X2931967Y-10344389D01*
X2931967Y-10344389D02*
X2931967Y-10306293D01*
X2931967Y-10306293D02*
X2922444Y-10287246D01*
X2922444Y-10287246D02*
X2912920Y-10277722D01*
X2912920Y-10277722D02*
X2893872Y-10268198D01*
X3122444Y-10382484D02*
X3008158Y-10382484D01*
X3065301Y-10382484D02*
X3065301Y-10182484D01*
X3065301Y-10182484D02*
X3046253Y-10211055D01*
X3046253Y-10211055D02*
X3027206Y-10230103D01*
X3027206Y-10230103D02*
X3008158Y-10239627D01*
X3198634Y-10182484D02*
X3198634Y-10220579D01*
X3274825Y-10182484D02*
X3274825Y-10220579D01*
X3570063Y-10458674D02*
X3560539Y-10449150D01*
X3560539Y-10449150D02*
X3541491Y-10420579D01*
X3541491Y-10420579D02*
X3531968Y-10401531D01*
X3531968Y-10401531D02*
X3522444Y-10372960D01*
X3522444Y-10372960D02*
X3512920Y-10325341D01*
X3512920Y-10325341D02*
X3512920Y-10287246D01*
X3512920Y-10287246D02*
X3522444Y-10239627D01*
X3522444Y-10239627D02*
X3531968Y-10211055D01*
X3531968Y-10211055D02*
X3541491Y-10192008D01*
X3541491Y-10192008D02*
X3560539Y-10163436D01*
X3560539Y-10163436D02*
X3570063Y-10153912D01*
X3731968Y-10249150D02*
X3731968Y-10382484D01*
X3684348Y-10172960D02*
X3636729Y-10315817D01*
X3636729Y-10315817D02*
X3760539Y-10315817D01*
X3989110Y-10382484D02*
X3989110Y-10182484D01*
X4074825Y-10382484D02*
X4074825Y-10277722D01*
X4074825Y-10277722D02*
X4065301Y-10258674D01*
X4065301Y-10258674D02*
X4046253Y-10249150D01*
X4046253Y-10249150D02*
X4017682Y-10249150D01*
X4017682Y-10249150D02*
X3998634Y-10258674D01*
X3998634Y-10258674D02*
X3989110Y-10268198D01*
X4198634Y-10382484D02*
X4179587Y-10372960D01*
X4179587Y-10372960D02*
X4170063Y-10363436D01*
X4170063Y-10363436D02*
X4160539Y-10344389D01*
X4160539Y-10344389D02*
X4160539Y-10287246D01*
X4160539Y-10287246D02*
X4170063Y-10268198D01*
X4170063Y-10268198D02*
X4179587Y-10258674D01*
X4179587Y-10258674D02*
X4198634Y-10249150D01*
X4198634Y-10249150D02*
X4227206Y-10249150D01*
X4227206Y-10249150D02*
X4246253Y-10258674D01*
X4246253Y-10258674D02*
X4255777Y-10268198D01*
X4255777Y-10268198D02*
X4265301Y-10287246D01*
X4265301Y-10287246D02*
X4265301Y-10344389D01*
X4265301Y-10344389D02*
X4255777Y-10363436D01*
X4255777Y-10363436D02*
X4246253Y-10372960D01*
X4246253Y-10372960D02*
X4227206Y-10382484D01*
X4227206Y-10382484D02*
X4198634Y-10382484D01*
X4379587Y-10382484D02*
X4360539Y-10372960D01*
X4360539Y-10372960D02*
X4351015Y-10353912D01*
X4351015Y-10353912D02*
X4351015Y-10182484D01*
X4531968Y-10372960D02*
X4512920Y-10382484D01*
X4512920Y-10382484D02*
X4474825Y-10382484D01*
X4474825Y-10382484D02*
X4455777Y-10372960D01*
X4455777Y-10372960D02*
X4446253Y-10353912D01*
X4446253Y-10353912D02*
X4446253Y-10277722D01*
X4446253Y-10277722D02*
X4455777Y-10258674D01*
X4455777Y-10258674D02*
X4474825Y-10249150D01*
X4474825Y-10249150D02*
X4512920Y-10249150D01*
X4512920Y-10249150D02*
X4531968Y-10258674D01*
X4531968Y-10258674D02*
X4541492Y-10277722D01*
X4541492Y-10277722D02*
X4541492Y-10296770D01*
X4541492Y-10296770D02*
X4446253Y-10315817D01*
X4617682Y-10372960D02*
X4636730Y-10382484D01*
X4636730Y-10382484D02*
X4674825Y-10382484D01*
X4674825Y-10382484D02*
X4693873Y-10372960D01*
X4693873Y-10372960D02*
X4703396Y-10353912D01*
X4703396Y-10353912D02*
X4703396Y-10344389D01*
X4703396Y-10344389D02*
X4693873Y-10325341D01*
X4693873Y-10325341D02*
X4674825Y-10315817D01*
X4674825Y-10315817D02*
X4646253Y-10315817D01*
X4646253Y-10315817D02*
X4627206Y-10306293D01*
X4627206Y-10306293D02*
X4617682Y-10287246D01*
X4617682Y-10287246D02*
X4617682Y-10277722D01*
X4617682Y-10277722D02*
X4627206Y-10258674D01*
X4627206Y-10258674D02*
X4646253Y-10249150D01*
X4646253Y-10249150D02*
X4674825Y-10249150D01*
X4674825Y-10249150D02*
X4693873Y-10258674D01*
X4770063Y-10458674D02*
X4779587Y-10449150D01*
X4779587Y-10449150D02*
X4798634Y-10420579D01*
X4798634Y-10420579D02*
X4808158Y-10401531D01*
X4808158Y-10401531D02*
X4817682Y-10372960D01*
X4817682Y-10372960D02*
X4827206Y-10325341D01*
X4827206Y-10325341D02*
X4827206Y-10287246D01*
X4827206Y-10287246D02*
X4817682Y-10239627D01*
X4817682Y-10239627D02*
X4808158Y-10211055D01*
X4808158Y-10211055D02*
X4798634Y-10192008D01*
X4798634Y-10192008D02*
X4779587Y-10163436D01*
X4779587Y-10163436D02*
X4770063Y-10153912D01*
X5131968Y-10458674D02*
X5122444Y-10449150D01*
X5122444Y-10449150D02*
X5103396Y-10420579D01*
X5103396Y-10420579D02*
X5093873Y-10401531D01*
X5093873Y-10401531D02*
X5084349Y-10372960D01*
X5084349Y-10372960D02*
X5074825Y-10325341D01*
X5074825Y-10325341D02*
X5074825Y-10287246D01*
X5074825Y-10287246D02*
X5084349Y-10239627D01*
X5084349Y-10239627D02*
X5093873Y-10211055D01*
X5093873Y-10211055D02*
X5103396Y-10192008D01*
X5103396Y-10192008D02*
X5122444Y-10163436D01*
X5122444Y-10163436D02*
X5131968Y-10153912D01*
X5208158Y-10249150D02*
X5208158Y-10382484D01*
X5208158Y-10268198D02*
X5217682Y-10258674D01*
X5217682Y-10258674D02*
X5236730Y-10249150D01*
X5236730Y-10249150D02*
X5265301Y-10249150D01*
X5265301Y-10249150D02*
X5284349Y-10258674D01*
X5284349Y-10258674D02*
X5293873Y-10277722D01*
X5293873Y-10277722D02*
X5293873Y-10382484D01*
X5417682Y-10382484D02*
X5398634Y-10372960D01*
X5398634Y-10372960D02*
X5389111Y-10363436D01*
X5389111Y-10363436D02*
X5379587Y-10344389D01*
X5379587Y-10344389D02*
X5379587Y-10287246D01*
X5379587Y-10287246D02*
X5389111Y-10268198D01*
X5389111Y-10268198D02*
X5398634Y-10258674D01*
X5398634Y-10258674D02*
X5417682Y-10249150D01*
X5417682Y-10249150D02*
X5446254Y-10249150D01*
X5446254Y-10249150D02*
X5465301Y-10258674D01*
X5465301Y-10258674D02*
X5474825Y-10268198D01*
X5474825Y-10268198D02*
X5484349Y-10287246D01*
X5484349Y-10287246D02*
X5484349Y-10344389D01*
X5484349Y-10344389D02*
X5474825Y-10363436D01*
X5474825Y-10363436D02*
X5465301Y-10372960D01*
X5465301Y-10372960D02*
X5446254Y-10382484D01*
X5446254Y-10382484D02*
X5417682Y-10382484D01*
X5541492Y-10249150D02*
X5617682Y-10249150D01*
X5570063Y-10182484D02*
X5570063Y-10353912D01*
X5570063Y-10353912D02*
X5579587Y-10372960D01*
X5579587Y-10372960D02*
X5598634Y-10382484D01*
X5598634Y-10382484D02*
X5617682Y-10382484D01*
X5836730Y-10249150D02*
X5836730Y-10449150D01*
X5836730Y-10258674D02*
X5855777Y-10249150D01*
X5855777Y-10249150D02*
X5893873Y-10249150D01*
X5893873Y-10249150D02*
X5912920Y-10258674D01*
X5912920Y-10258674D02*
X5922444Y-10268198D01*
X5922444Y-10268198D02*
X5931968Y-10287246D01*
X5931968Y-10287246D02*
X5931968Y-10344389D01*
X5931968Y-10344389D02*
X5922444Y-10363436D01*
X5922444Y-10363436D02*
X5912920Y-10372960D01*
X5912920Y-10372960D02*
X5893873Y-10382484D01*
X5893873Y-10382484D02*
X5855777Y-10382484D01*
X5855777Y-10382484D02*
X5836730Y-10372960D01*
X6046253Y-10382484D02*
X6027206Y-10372960D01*
X6027206Y-10372960D02*
X6017682Y-10353912D01*
X6017682Y-10353912D02*
X6017682Y-10182484D01*
X6208158Y-10382484D02*
X6208158Y-10277722D01*
X6208158Y-10277722D02*
X6198634Y-10258674D01*
X6198634Y-10258674D02*
X6179587Y-10249150D01*
X6179587Y-10249150D02*
X6141492Y-10249150D01*
X6141492Y-10249150D02*
X6122444Y-10258674D01*
X6208158Y-10372960D02*
X6189111Y-10382484D01*
X6189111Y-10382484D02*
X6141492Y-10382484D01*
X6141492Y-10382484D02*
X6122444Y-10372960D01*
X6122444Y-10372960D02*
X6112920Y-10353912D01*
X6112920Y-10353912D02*
X6112920Y-10334865D01*
X6112920Y-10334865D02*
X6122444Y-10315817D01*
X6122444Y-10315817D02*
X6141492Y-10306293D01*
X6141492Y-10306293D02*
X6189111Y-10306293D01*
X6189111Y-10306293D02*
X6208158Y-10296770D01*
X6274825Y-10249150D02*
X6351015Y-10249150D01*
X6303396Y-10182484D02*
X6303396Y-10353912D01*
X6303396Y-10353912D02*
X6312920Y-10372960D01*
X6312920Y-10372960D02*
X6331968Y-10382484D01*
X6331968Y-10382484D02*
X6351015Y-10382484D01*
X6493873Y-10372960D02*
X6474825Y-10382484D01*
X6474825Y-10382484D02*
X6436730Y-10382484D01*
X6436730Y-10382484D02*
X6417682Y-10372960D01*
X6417682Y-10372960D02*
X6408158Y-10353912D01*
X6408158Y-10353912D02*
X6408158Y-10277722D01*
X6408158Y-10277722D02*
X6417682Y-10258674D01*
X6417682Y-10258674D02*
X6436730Y-10249150D01*
X6436730Y-10249150D02*
X6474825Y-10249150D01*
X6474825Y-10249150D02*
X6493873Y-10258674D01*
X6493873Y-10258674D02*
X6503396Y-10277722D01*
X6503396Y-10277722D02*
X6503396Y-10296770D01*
X6503396Y-10296770D02*
X6408158Y-10315817D01*
X6674825Y-10382484D02*
X6674825Y-10182484D01*
X6674825Y-10372960D02*
X6655777Y-10382484D01*
X6655777Y-10382484D02*
X6617682Y-10382484D01*
X6617682Y-10382484D02*
X6598634Y-10372960D01*
X6598634Y-10372960D02*
X6589111Y-10363436D01*
X6589111Y-10363436D02*
X6579587Y-10344389D01*
X6579587Y-10344389D02*
X6579587Y-10287246D01*
X6579587Y-10287246D02*
X6589111Y-10268198D01*
X6589111Y-10268198D02*
X6598634Y-10258674D01*
X6598634Y-10258674D02*
X6617682Y-10249150D01*
X6617682Y-10249150D02*
X6655777Y-10249150D01*
X6655777Y-10249150D02*
X6674825Y-10258674D01*
X6751015Y-10458674D02*
X6760539Y-10449150D01*
X6760539Y-10449150D02*
X6779587Y-10420579D01*
X6779587Y-10420579D02*
X6789111Y-10401531D01*
X6789111Y-10401531D02*
X6798634Y-10372960D01*
X6798634Y-10372960D02*
X6808158Y-10325341D01*
X6808158Y-10325341D02*
X6808158Y-10287246D01*
X6808158Y-10287246D02*
X6798634Y-10239627D01*
X6798634Y-10239627D02*
X6789111Y-10211055D01*
X6789111Y-10211055D02*
X6779587Y-10192008D01*
X6779587Y-10192008D02*
X6760539Y-10163436D01*
X6760539Y-10163436D02*
X6751015Y-10153912D01*
M02*
