M48
; DRILL file {KiCad 9.0.6} date 2026-09-09T19:00:14-0700
; FORMAT={-:-/ absolute / metric / decimal}
; #@! TF.CreationDate,2026-09-09T19:00:14-07:00
; #@! TF.GenerationSoftware,Kicad,Pcbnew,9.0.6
; #@! TF.FileFunction,MixedPlating,1,2
FMAT,2
METRIC
; #@! TA.AperFunction,Plated,PTH,ViaDrill
T1C0.400
; #@! TA.AperFunction,Plated,PTH,ComponentDrill
T2C0.800
; #@! TA.AperFunction,Plated,PTH,ComponentDrill
T3C0.900
; #@! TA.AperFunction,Plated,PTH,ComponentDrill
T4C1.000
; #@! TA.AperFunction,Plated,PTH,ComponentDrill
T5C1.500
; #@! TA.AperFunction,NonPlated,NPTH,ComponentDrill
T6C2.000
; #@! TA.AperFunction,NonPlated,NPTH,ComponentDrill
T7C3.000
%
G90
G05
T1
X23.311Y-68.1
X52.068Y-58.171
X71.126Y-37.125
X82.214Y-73.15
X84.359Y-68.492
X85.413Y-63.996
X88.331Y-32.675
T2
X3.5Y-44.84
X3.5Y-55.0
X3.5Y-60.34
X3.5Y-70.5
X7.0Y-44.84
X7.0Y-55.0
X7.0Y-60.34
X7.0Y-70.5
X10.0Y-33.5
X10.0Y-38.5
X12.5Y-26.5
X17.5Y-26.5
X20.8Y-26.5
X22.0Y-33.5
X22.0Y-38.5
X25.8Y-26.5
X30.0Y-33.5
X30.0Y-38.5
X31.0Y-47.5
X31.5Y-70.88
X31.5Y-78.5
X32.4Y-65.0
X32.5Y-26.5
X33.5Y-47.5
X34.0Y-53.38
X34.0Y-61.0
X34.04Y-70.88
X34.04Y-78.5
X36.54Y-53.38
X36.54Y-61.0
X36.58Y-70.88
X36.58Y-78.5
X37.4Y-65.0
X37.5Y-26.5
X39.08Y-53.38
X39.08Y-61.0
X39.12Y-70.88
X39.12Y-78.5
X39.5Y-46.0
X39.5Y-51.0
X39.8Y-65.5
X40.8Y-26.5
X41.62Y-53.38
X41.62Y-61.0
X42.0Y-33.5
X42.0Y-38.5
X43.5Y-46.0
X43.5Y-51.0
X44.16Y-53.38
X44.16Y-61.0
X45.8Y-26.5
X46.7Y-53.38
X46.7Y-61.0
X48.0Y-47.5
X49.24Y-53.38
X49.24Y-61.0
X49.96Y-65.5
X50.5Y-28.0
X50.5Y-35.5
X50.5Y-47.5
X51.78Y-53.38
X51.78Y-61.0
X53.0Y-28.0
X53.0Y-35.5
X53.5Y-65.5
X55.0Y-47.5
X56.0Y-65.5
X57.0Y-39.5
X57.0Y-43.0
X57.5Y-47.5
X58.0Y-33.5
X58.0Y-53.38
X58.0Y-61.0
X60.5Y-33.5
X60.5Y-65.5
X60.54Y-53.38
X60.54Y-61.0
X61.5Y-26.5
X63.0Y-65.5
X63.08Y-53.38
X63.08Y-61.0
X63.5Y-46.0
X63.5Y-51.0
X65.62Y-53.38
X65.62Y-61.0
X66.5Y-26.5
X67.16Y-39.5
X67.16Y-43.0
X67.5Y-46.0
X67.5Y-51.0
X67.6Y-68.34
X67.6Y-78.5
X68.16Y-53.38
X68.16Y-61.0
X69.5Y-65.0
X69.8Y-26.5
X70.0Y-39.5
X70.0Y-43.0
X70.7Y-53.38
X70.7Y-61.0
X72.0Y-47.5
X72.6Y-68.34
X72.6Y-78.5
X73.24Y-53.38
X73.24Y-61.0
X74.0Y-33.5
X74.5Y-47.5
X74.5Y-65.0
X74.8Y-26.5
X75.0Y-39.5
X75.0Y-43.0
X75.7Y-70.2
X75.7Y-74.8
X75.78Y-53.38
X75.78Y-61.0
X76.5Y-33.5
X79.0Y-39.5
X79.0Y-43.0
X79.2Y-56.5
X79.2Y-61.5
X80.0Y-33.5
X82.0Y-55.0
X82.0Y-57.54
X82.0Y-60.08
X82.0Y-62.62
X82.5Y-26.5
X82.5Y-33.5
X85.86Y-70.2
X85.86Y-74.8
X87.5Y-26.5
X89.0Y-70.2
X89.0Y-74.8
X89.16Y-39.5
X89.16Y-43.0
X89.62Y-55.0
X89.62Y-57.54
X89.62Y-60.08
X89.62Y-62.62
X90.0Y-48.5
X90.8Y-26.5
X92.0Y-39.5
X92.0Y-43.0
X92.5Y-48.5
X92.5Y-55.0
X92.5Y-60.0
X95.7Y-55.84
X95.7Y-66.0
X95.8Y-26.5
X96.0Y-33.5
X97.0Y-39.5
X97.0Y-43.0
X98.0Y-48.5
X98.5Y-33.5
X99.0Y-55.84
X99.0Y-66.0
X99.16Y-70.2
X99.16Y-74.8
X100.5Y-48.5
X102.3Y-55.84
X102.3Y-66.0
X103.0Y-33.5
X103.0Y-40.5
X105.5Y-33.5
X105.5Y-40.5
X105.6Y-55.84
X105.6Y-66.0
T3
X102.0Y-71.0
X104.54Y-71.0
T4
X11.88Y-60.48
X11.88Y-63.02
X11.88Y-65.56
X11.88Y-68.1
X11.88Y-70.64
X11.88Y-73.18
X11.88Y-75.72
X27.12Y-60.48
X27.12Y-63.02
X27.12Y-65.56
X27.12Y-68.1
X27.12Y-70.64
X27.12Y-73.18
X27.12Y-75.72
X44.5Y-73.0
X47.04Y-73.0
X52.12Y-73.0
X54.66Y-73.0
X57.2Y-73.0
T5
X13.21Y-2.8
X13.21Y-9.15
X13.21Y-15.5
X24.64Y-2.8
X24.64Y-9.15
X24.64Y-15.5
X33.21Y-2.8
X33.21Y-9.15
X33.21Y-15.5
X44.64Y-2.8
X44.64Y-9.15
X44.64Y-15.5
X62.21Y-2.8
X62.21Y-9.15
X62.21Y-15.5
X73.64Y-2.8
X73.64Y-9.15
X73.64Y-15.5
X84.21Y-2.8
X84.21Y-9.15
X84.21Y-15.5
X95.64Y-2.8
X95.64Y-9.15
X95.64Y-15.5
T6
X13.21Y-6.0
X24.64Y-6.0
X33.21Y-6.0
X44.64Y-6.0
X62.21Y-6.0
X73.64Y-6.0
X84.21Y-6.0
X95.64Y-6.0
T7
X15.34Y-12.35
X35.34Y-12.35
X64.34Y-12.35
X86.34Y-12.35
M30
