%TF.GenerationSoftware,KiCad,Pcbnew,9.0.6*%
%TF.CreationDate,2026-09-07T18:30:41-07:00*%
%TF.ProjectId,ghost-fader,67686f73-742d-4666-9164-65722e6b6963,rev?*%
%TF.SameCoordinates,Original*%
%TF.FileFunction,Legend,Bot*%
%TF.FilePolarity,Positive*%
%FSLAX46Y46*%
G04 Gerber Fmt 4.6, Leading zero omitted, Abs format (unit mm)*
G04 Created by KiCad (PCBNEW 9.0.6) date 2026-09-07 18:30:41*
%MOMM*%
%LPD*%
G01*
G04 APERTURE LIST*
G04 Aperture macros list*
%AMRoundRect*
0 Rectangle with rounded corners*
0 $1 Rounding radius*
0 $2 $3 $4 $5 $6 $7 $8 $9 X,Y pos of 4 corners*
0 Add a 4 corners polygon primitive as box body*
4,1,4,$2,$3,$4,$5,$6,$7,$8,$9,$2,$3,0*
0 Add four circle primitives for the rounded corners*
1,1,$1+$1,$2,$3*
1,1,$1+$1,$4,$5*
1,1,$1+$1,$6,$7*
1,1,$1+$1,$8,$9*
0 Add four rect primitives between the rounded corners*
20,1,$1+$1,$2,$3,$4,$5,0*
20,1,$1+$1,$4,$5,$6,$7,0*
20,1,$1+$1,$6,$7,$8,$9,0*
20,1,$1+$1,$8,$9,$2,$3,0*%
G04 Aperture macros list end*
%ADD10C,0.200000*%
%ADD11C,1.700000*%
%ADD12RoundRect,0.265625X0.584375X-0.584375X0.584375X0.584375X-0.584375X0.584375X-0.584375X-0.584375X0*%
%ADD13RoundRect,0.265625X-0.584375X-0.584375X0.584375X-0.584375X0.584375X0.584375X-0.584375X0.584375X0*%
%ADD14C,3.100000*%
%ADD15C,2.100000*%
%ADD16RoundRect,0.050000X-0.900000X-0.900000X0.900000X-0.900000X0.900000X0.900000X-0.900000X0.900000X0*%
%ADD17C,1.900000*%
%ADD18RoundRect,0.050000X-0.850000X-0.850000X0.850000X-0.850000X0.850000X0.850000X-0.850000X0.850000X0*%
%ADD19C,1.800000*%
%ADD20RoundRect,0.050000X0.850000X0.850000X-0.850000X0.850000X-0.850000X-0.850000X0.850000X-0.850000X0*%
G04 APERTURE END LIST*
D10*
X70142857Y-4344742D02*
X69914285Y-4344742D01*
X69914285Y-4344742D02*
X69800000Y-4401885D01*
X69800000Y-4401885D02*
X69685714Y-4516171D01*
X69685714Y-4516171D02*
X69628571Y-4744742D01*
X69628571Y-4744742D02*
X69628571Y-5144742D01*
X69628571Y-5144742D02*
X69685714Y-5373314D01*
X69685714Y-5373314D02*
X69800000Y-5487600D01*
X69800000Y-5487600D02*
X69914285Y-5544742D01*
X69914285Y-5544742D02*
X70142857Y-5544742D01*
X70142857Y-5544742D02*
X70257143Y-5487600D01*
X70257143Y-5487600D02*
X70371428Y-5373314D01*
X70371428Y-5373314D02*
X70428571Y-5144742D01*
X70428571Y-5144742D02*
X70428571Y-4744742D01*
X70428571Y-4744742D02*
X70371428Y-4516171D01*
X70371428Y-4516171D02*
X70257143Y-4401885D01*
X70257143Y-4401885D02*
X70142857Y-4344742D01*
X69114285Y-4344742D02*
X69114285Y-5316171D01*
X69114285Y-5316171D02*
X69057142Y-5430457D01*
X69057142Y-5430457D02*
X69000000Y-5487600D01*
X69000000Y-5487600D02*
X68885714Y-5544742D01*
X68885714Y-5544742D02*
X68657142Y-5544742D01*
X68657142Y-5544742D02*
X68542857Y-5487600D01*
X68542857Y-5487600D02*
X68485714Y-5430457D01*
X68485714Y-5430457D02*
X68428571Y-5316171D01*
X68428571Y-5316171D02*
X68428571Y-4344742D01*
X68028571Y-4344742D02*
X67342857Y-4344742D01*
X67685714Y-5544742D02*
X67685714Y-4344742D01*
X65457142Y-5544742D02*
X66028570Y-5544742D01*
X66028570Y-5544742D02*
X66028570Y-4344742D01*
X20571428Y-5544742D02*
X20571428Y-4344742D01*
X19999999Y-5544742D02*
X19999999Y-4344742D01*
X19999999Y-4344742D02*
X19314285Y-5544742D01*
X19314285Y-5544742D02*
X19314285Y-4344742D01*
X17257142Y-5544742D02*
X17828570Y-5544742D01*
X17828570Y-5544742D02*
X17828570Y-4344742D01*
X67085714Y-56308028D02*
X67257143Y-56222314D01*
X67257143Y-56222314D02*
X67514285Y-56222314D01*
X67514285Y-56222314D02*
X67771428Y-56308028D01*
X67771428Y-56308028D02*
X67942857Y-56479457D01*
X67942857Y-56479457D02*
X68028571Y-56650885D01*
X68028571Y-56650885D02*
X68114285Y-56993742D01*
X68114285Y-56993742D02*
X68114285Y-57250885D01*
X68114285Y-57250885D02*
X68028571Y-57593742D01*
X68028571Y-57593742D02*
X67942857Y-57765171D01*
X67942857Y-57765171D02*
X67771428Y-57936600D01*
X67771428Y-57936600D02*
X67514285Y-58022314D01*
X67514285Y-58022314D02*
X67342857Y-58022314D01*
X67342857Y-58022314D02*
X67085714Y-57936600D01*
X67085714Y-57936600D02*
X67000000Y-57850885D01*
X67000000Y-57850885D02*
X67000000Y-57250885D01*
X67000000Y-57250885D02*
X67342857Y-57250885D01*
X66228571Y-58022314D02*
X66228571Y-56222314D01*
X66228571Y-57079457D02*
X65200000Y-57079457D01*
X65200000Y-58022314D02*
X65200000Y-56222314D01*
X64000000Y-56222314D02*
X63657143Y-56222314D01*
X63657143Y-56222314D02*
X63485714Y-56308028D01*
X63485714Y-56308028D02*
X63314286Y-56479457D01*
X63314286Y-56479457D02*
X63228571Y-56822314D01*
X63228571Y-56822314D02*
X63228571Y-57422314D01*
X63228571Y-57422314D02*
X63314286Y-57765171D01*
X63314286Y-57765171D02*
X63485714Y-57936600D01*
X63485714Y-57936600D02*
X63657143Y-58022314D01*
X63657143Y-58022314D02*
X64000000Y-58022314D01*
X64000000Y-58022314D02*
X64171429Y-57936600D01*
X64171429Y-57936600D02*
X64342857Y-57765171D01*
X64342857Y-57765171D02*
X64428571Y-57422314D01*
X64428571Y-57422314D02*
X64428571Y-56822314D01*
X64428571Y-56822314D02*
X64342857Y-56479457D01*
X64342857Y-56479457D02*
X64171429Y-56308028D01*
X64171429Y-56308028D02*
X64000000Y-56222314D01*
X62542857Y-57936600D02*
X62285715Y-58022314D01*
X62285715Y-58022314D02*
X61857143Y-58022314D01*
X61857143Y-58022314D02*
X61685715Y-57936600D01*
X61685715Y-57936600D02*
X61600000Y-57850885D01*
X61600000Y-57850885D02*
X61514286Y-57679457D01*
X61514286Y-57679457D02*
X61514286Y-57508028D01*
X61514286Y-57508028D02*
X61600000Y-57336600D01*
X61600000Y-57336600D02*
X61685715Y-57250885D01*
X61685715Y-57250885D02*
X61857143Y-57165171D01*
X61857143Y-57165171D02*
X62200000Y-57079457D01*
X62200000Y-57079457D02*
X62371429Y-56993742D01*
X62371429Y-56993742D02*
X62457143Y-56908028D01*
X62457143Y-56908028D02*
X62542857Y-56736600D01*
X62542857Y-56736600D02*
X62542857Y-56565171D01*
X62542857Y-56565171D02*
X62457143Y-56393742D01*
X62457143Y-56393742D02*
X62371429Y-56308028D01*
X62371429Y-56308028D02*
X62200000Y-56222314D01*
X62200000Y-56222314D02*
X61771429Y-56222314D01*
X61771429Y-56222314D02*
X61514286Y-56308028D01*
X61000000Y-56222314D02*
X59971429Y-56222314D01*
X60485714Y-58022314D02*
X60485714Y-56222314D01*
X57399999Y-57079457D02*
X57999999Y-57079457D01*
X57999999Y-58022314D02*
X57999999Y-56222314D01*
X57999999Y-56222314D02*
X57142856Y-56222314D01*
X56542856Y-57508028D02*
X55685714Y-57508028D01*
X56714285Y-58022314D02*
X56114285Y-56222314D01*
X56114285Y-56222314D02*
X55514285Y-58022314D01*
X54914285Y-58022314D02*
X54914285Y-56222314D01*
X54914285Y-56222314D02*
X54485714Y-56222314D01*
X54485714Y-56222314D02*
X54228571Y-56308028D01*
X54228571Y-56308028D02*
X54057142Y-56479457D01*
X54057142Y-56479457D02*
X53971428Y-56650885D01*
X53971428Y-56650885D02*
X53885714Y-56993742D01*
X53885714Y-56993742D02*
X53885714Y-57250885D01*
X53885714Y-57250885D02*
X53971428Y-57593742D01*
X53971428Y-57593742D02*
X54057142Y-57765171D01*
X54057142Y-57765171D02*
X54228571Y-57936600D01*
X54228571Y-57936600D02*
X54485714Y-58022314D01*
X54485714Y-58022314D02*
X54914285Y-58022314D01*
X53114285Y-57079457D02*
X52514285Y-57079457D01*
X52257142Y-58022314D02*
X53114285Y-58022314D01*
X53114285Y-58022314D02*
X53114285Y-56222314D01*
X53114285Y-56222314D02*
X52257142Y-56222314D01*
X50457143Y-58022314D02*
X51057143Y-57165171D01*
X51485714Y-58022314D02*
X51485714Y-56222314D01*
X51485714Y-56222314D02*
X50800000Y-56222314D01*
X50800000Y-56222314D02*
X50628571Y-56308028D01*
X50628571Y-56308028D02*
X50542857Y-56393742D01*
X50542857Y-56393742D02*
X50457143Y-56565171D01*
X50457143Y-56565171D02*
X50457143Y-56822314D01*
X50457143Y-56822314D02*
X50542857Y-56993742D01*
X50542857Y-56993742D02*
X50628571Y-57079457D01*
X50628571Y-57079457D02*
X50800000Y-57165171D01*
X50800000Y-57165171D02*
X51485714Y-57165171D01*
X48314285Y-58022314D02*
X48314285Y-56822314D01*
X48314285Y-57165171D02*
X48228571Y-56993742D01*
X48228571Y-56993742D02*
X48142857Y-56908028D01*
X48142857Y-56908028D02*
X47971428Y-56822314D01*
X47971428Y-56822314D02*
X47799999Y-56822314D01*
X46514285Y-57936600D02*
X46685713Y-58022314D01*
X46685713Y-58022314D02*
X47028571Y-58022314D01*
X47028571Y-58022314D02*
X47199999Y-57936600D01*
X47199999Y-57936600D02*
X47285713Y-57765171D01*
X47285713Y-57765171D02*
X47285713Y-57079457D01*
X47285713Y-57079457D02*
X47199999Y-56908028D01*
X47199999Y-56908028D02*
X47028571Y-56822314D01*
X47028571Y-56822314D02*
X46685713Y-56822314D01*
X46685713Y-56822314D02*
X46514285Y-56908028D01*
X46514285Y-56908028D02*
X46428571Y-57079457D01*
X46428571Y-57079457D02*
X46428571Y-57250885D01*
X46428571Y-57250885D02*
X47285713Y-57422314D01*
X45828571Y-56822314D02*
X45399999Y-58022314D01*
X45399999Y-58022314D02*
X44971428Y-56822314D01*
X42314284Y-57079457D02*
X42057141Y-57165171D01*
X42057141Y-57165171D02*
X41971427Y-57250885D01*
X41971427Y-57250885D02*
X41885713Y-57422314D01*
X41885713Y-57422314D02*
X41885713Y-57679457D01*
X41885713Y-57679457D02*
X41971427Y-57850885D01*
X41971427Y-57850885D02*
X42057141Y-57936600D01*
X42057141Y-57936600D02*
X42228570Y-58022314D01*
X42228570Y-58022314D02*
X42914284Y-58022314D01*
X42914284Y-58022314D02*
X42914284Y-56222314D01*
X42914284Y-56222314D02*
X42314284Y-56222314D01*
X42314284Y-56222314D02*
X42142856Y-56308028D01*
X42142856Y-56308028D02*
X42057141Y-56393742D01*
X42057141Y-56393742D02*
X41971427Y-56565171D01*
X41971427Y-56565171D02*
X41971427Y-56736600D01*
X41971427Y-56736600D02*
X42057141Y-56908028D01*
X42057141Y-56908028D02*
X42142856Y-56993742D01*
X42142856Y-56993742D02*
X42314284Y-57079457D01*
X42314284Y-57079457D02*
X42914284Y-57079457D01*
X92257143Y-4344742D02*
X92028571Y-4344742D01*
X92028571Y-4344742D02*
X91914286Y-4401885D01*
X91914286Y-4401885D02*
X91800000Y-4516171D01*
X91800000Y-4516171D02*
X91742857Y-4744742D01*
X91742857Y-4744742D02*
X91742857Y-5144742D01*
X91742857Y-5144742D02*
X91800000Y-5373314D01*
X91800000Y-5373314D02*
X91914286Y-5487600D01*
X91914286Y-5487600D02*
X92028571Y-5544742D01*
X92028571Y-5544742D02*
X92257143Y-5544742D01*
X92257143Y-5544742D02*
X92371429Y-5487600D01*
X92371429Y-5487600D02*
X92485714Y-5373314D01*
X92485714Y-5373314D02*
X92542857Y-5144742D01*
X92542857Y-5144742D02*
X92542857Y-4744742D01*
X92542857Y-4744742D02*
X92485714Y-4516171D01*
X92485714Y-4516171D02*
X92371429Y-4401885D01*
X92371429Y-4401885D02*
X92257143Y-4344742D01*
X91228571Y-4344742D02*
X91228571Y-5316171D01*
X91228571Y-5316171D02*
X91171428Y-5430457D01*
X91171428Y-5430457D02*
X91114286Y-5487600D01*
X91114286Y-5487600D02*
X91000000Y-5544742D01*
X91000000Y-5544742D02*
X90771428Y-5544742D01*
X90771428Y-5544742D02*
X90657143Y-5487600D01*
X90657143Y-5487600D02*
X90600000Y-5430457D01*
X90600000Y-5430457D02*
X90542857Y-5316171D01*
X90542857Y-5316171D02*
X90542857Y-4344742D01*
X90142857Y-4344742D02*
X89457143Y-4344742D01*
X89800000Y-5544742D02*
X89800000Y-4344742D01*
X87457142Y-5544742D02*
X87857142Y-4973314D01*
X88142856Y-5544742D02*
X88142856Y-4344742D01*
X88142856Y-4344742D02*
X87685713Y-4344742D01*
X87685713Y-4344742D02*
X87571428Y-4401885D01*
X87571428Y-4401885D02*
X87514285Y-4459028D01*
X87514285Y-4459028D02*
X87457142Y-4573314D01*
X87457142Y-4573314D02*
X87457142Y-4744742D01*
X87457142Y-4744742D02*
X87514285Y-4859028D01*
X87514285Y-4859028D02*
X87571428Y-4916171D01*
X87571428Y-4916171D02*
X87685713Y-4973314D01*
X87685713Y-4973314D02*
X88142856Y-4973314D01*
X40685714Y-5544742D02*
X40685714Y-4344742D01*
X40114285Y-5544742D02*
X40114285Y-4344742D01*
X40114285Y-4344742D02*
X39428571Y-5544742D01*
X39428571Y-5544742D02*
X39428571Y-4344742D01*
X37257142Y-5544742D02*
X37657142Y-4973314D01*
X37942856Y-5544742D02*
X37942856Y-4344742D01*
X37942856Y-4344742D02*
X37485713Y-4344742D01*
X37485713Y-4344742D02*
X37371428Y-4401885D01*
X37371428Y-4401885D02*
X37314285Y-4459028D01*
X37314285Y-4459028D02*
X37257142Y-4573314D01*
X37257142Y-4573314D02*
X37257142Y-4744742D01*
X37257142Y-4744742D02*
X37314285Y-4859028D01*
X37314285Y-4859028D02*
X37371428Y-4916171D01*
X37371428Y-4916171D02*
X37485713Y-4973314D01*
X37485713Y-4973314D02*
X37942856Y-4973314D01*
%LPC*%
D11*
%TO.C,C30*%
X69500000Y-65000000D03*
X74500000Y-65000000D03*
%TD*%
D12*
%TO.C,U4*%
X58000000Y-61000000D03*
D11*
X60540000Y-61000000D03*
X63080000Y-61000000D03*
X65620000Y-61000000D03*
X68160000Y-61000000D03*
X70700000Y-61000000D03*
X73240000Y-61000000D03*
X75780000Y-61000000D03*
X75780000Y-53380000D03*
X73240000Y-53380000D03*
X70700000Y-53380000D03*
X68160000Y-53380000D03*
X65620000Y-53380000D03*
X63080000Y-53380000D03*
X60540000Y-53380000D03*
X58000000Y-53380000D03*
%TD*%
D13*
%TO.C,C42*%
X103000000Y-33500000D03*
D11*
X105500000Y-33500000D03*
%TD*%
D14*
%TO.C,J4*%
X86340000Y-12350000D03*
D15*
X84210000Y-6000000D03*
X95640000Y-6000000D03*
D14*
X84210000Y-9150000D03*
X95640000Y-9150000D03*
X84210000Y-2800000D03*
X95640000Y-2800000D03*
X84210000Y-15500000D03*
X95640000Y-15500000D03*
%TD*%
D11*
%TO.C,FB1*%
X39800000Y-65500000D03*
X49960000Y-65500000D03*
%TD*%
%TO.C,R16*%
X3500000Y-70500000D03*
X3500000Y-60340000D03*
%TD*%
%TO.C,C23*%
X42000000Y-38500000D03*
X42000000Y-33500000D03*
%TD*%
D13*
%TO.C,C19*%
X80000000Y-33500000D03*
D11*
X82500000Y-33500000D03*
%TD*%
%TO.C,R12*%
X79000000Y-39500000D03*
X89160000Y-39500000D03*
%TD*%
D16*
%TO.C,LED1*%
X102000000Y-71000000D03*
D17*
X104540000Y-71000000D03*
%TD*%
D18*
%TO.C,PS1*%
X44500000Y-74700000D03*
D19*
X47040000Y-74700000D03*
X49580000Y-74700000D03*
X57200000Y-74700000D03*
X59740000Y-74700000D03*
X62280000Y-74700000D03*
%TD*%
D13*
%TO.C,C40*%
X50500000Y-28000000D03*
D11*
X53000000Y-28000000D03*
%TD*%
D13*
%TO.C,C6*%
X72000000Y-47500000D03*
D11*
X74500000Y-47500000D03*
%TD*%
%TO.C,R7*%
X105600000Y-66000000D03*
X105600000Y-55840000D03*
%TD*%
%TO.C,C29*%
X67500000Y-51000000D03*
X67500000Y-46000000D03*
%TD*%
%TO.C,R14*%
X7000000Y-55000000D03*
X7000000Y-44840000D03*
%TD*%
D12*
%TO.C,U3*%
X34000000Y-61000000D03*
D11*
X36540000Y-61000000D03*
X39080000Y-61000000D03*
X41620000Y-61000000D03*
X44160000Y-61000000D03*
X46700000Y-61000000D03*
X49240000Y-61000000D03*
X51780000Y-61000000D03*
X51780000Y-53380000D03*
X49240000Y-53380000D03*
X46700000Y-53380000D03*
X44160000Y-53380000D03*
X41620000Y-53380000D03*
X39080000Y-53380000D03*
X36540000Y-53380000D03*
X34000000Y-53380000D03*
%TD*%
%TO.C,C21*%
X22000000Y-38500000D03*
X22000000Y-33500000D03*
%TD*%
D20*
%TO.C,U9*%
X27120000Y-78010000D03*
D19*
X27120000Y-75470000D03*
X27120000Y-72930000D03*
X27120000Y-70390000D03*
X27120000Y-67850000D03*
X27120000Y-65310000D03*
X27120000Y-62770000D03*
X27120000Y-60230000D03*
X27120000Y-57690000D03*
X27120000Y-55150000D03*
X27120000Y-52610000D03*
X27120000Y-50070000D03*
X27120000Y-47530000D03*
X27120000Y-44990000D03*
X11880000Y-78010000D03*
X11880000Y-75470000D03*
X11880000Y-72930000D03*
X11880000Y-70390000D03*
X11880000Y-67850000D03*
X11880000Y-65310000D03*
X11880000Y-62770000D03*
X11880000Y-60230000D03*
X11880000Y-57690000D03*
X11880000Y-55150000D03*
X11880000Y-52610000D03*
X11880000Y-50070000D03*
X11880000Y-47530000D03*
X11880000Y-44990000D03*
%TD*%
D11*
%TO.C,C27*%
X32400000Y-65000000D03*
X37400000Y-65000000D03*
%TD*%
%TO.C,C33*%
X70000000Y-39500000D03*
X75000000Y-39500000D03*
%TD*%
%TO.C,R13*%
X79000000Y-43000000D03*
X89160000Y-43000000D03*
%TD*%
%TO.C,C10*%
X69800000Y-26500000D03*
X74800000Y-26500000D03*
%TD*%
%TO.C,C2*%
X20800000Y-26500000D03*
X25800000Y-26500000D03*
%TD*%
D13*
%TO.C,C4*%
X48000000Y-47500000D03*
D11*
X50500000Y-47500000D03*
%TD*%
D13*
%TO.C,U5*%
X82000000Y-55000000D03*
D11*
X82000000Y-57540000D03*
X82000000Y-60080000D03*
X82000000Y-62620000D03*
X89620000Y-62620000D03*
X89620000Y-60080000D03*
X89620000Y-57540000D03*
X89620000Y-55000000D03*
%TD*%
%TO.C,R2*%
X95700000Y-66000000D03*
X95700000Y-55840000D03*
%TD*%
%TO.C,L1*%
X67600000Y-78500000D03*
X67600000Y-68340000D03*
%TD*%
D13*
%TO.C,C11*%
X53500000Y-65500000D03*
D11*
X56000000Y-65500000D03*
%TD*%
D14*
%TO.C,J3*%
X64340000Y-12350000D03*
D15*
X62210000Y-6000000D03*
X73640000Y-6000000D03*
D14*
X62210000Y-9150000D03*
X73640000Y-9150000D03*
X62210000Y-2800000D03*
X73640000Y-2800000D03*
X62210000Y-15500000D03*
X73640000Y-15500000D03*
%TD*%
D13*
%TO.C,C17*%
X58000000Y-33500000D03*
D11*
X60500000Y-33500000D03*
%TD*%
D13*
%TO.C,C20*%
X96000000Y-33500000D03*
D11*
X98500000Y-33500000D03*
%TD*%
D12*
%TO.C,SW1*%
X31500000Y-78500000D03*
D11*
X34040000Y-78500000D03*
X36580000Y-78500000D03*
X39120000Y-78500000D03*
X39120000Y-70880000D03*
X36580000Y-70880000D03*
X34040000Y-70880000D03*
X31500000Y-70880000D03*
%TD*%
%TO.C,R8*%
X89000000Y-70200000D03*
X99160000Y-70200000D03*
%TD*%
%TO.C,C24*%
X30000000Y-38500000D03*
X30000000Y-33500000D03*
%TD*%
%TO.C,C31*%
X92500000Y-60000000D03*
X92500000Y-55000000D03*
%TD*%
D14*
%TO.C,J2*%
X35340000Y-12350000D03*
D15*
X33210000Y-6000000D03*
X44640000Y-6000000D03*
D14*
X33210000Y-9150000D03*
X44640000Y-9150000D03*
X33210000Y-2800000D03*
X44640000Y-2800000D03*
X33210000Y-15500000D03*
X44640000Y-15500000D03*
%TD*%
D11*
%TO.C,C22*%
X10000000Y-38500000D03*
X10000000Y-33500000D03*
%TD*%
%TO.C,R15*%
X7000000Y-70500000D03*
X7000000Y-60340000D03*
%TD*%
%TO.C,C9*%
X61500000Y-26500000D03*
X66500000Y-26500000D03*
%TD*%
D13*
%TO.C,C18*%
X74000000Y-33500000D03*
D11*
X76500000Y-33500000D03*
%TD*%
%TO.C,R3*%
X99000000Y-66000000D03*
X99000000Y-55840000D03*
%TD*%
%TO.C,R9*%
X89000000Y-74800000D03*
X99160000Y-74800000D03*
%TD*%
%TO.C,R4*%
X75700000Y-70200000D03*
X85860000Y-70200000D03*
%TD*%
D13*
%TO.C,C13*%
X98000000Y-48500000D03*
D11*
X100500000Y-48500000D03*
%TD*%
%TO.C,L2*%
X72600000Y-78500000D03*
X72600000Y-68340000D03*
%TD*%
%TO.C,R5*%
X75700000Y-74800000D03*
X85860000Y-74800000D03*
%TD*%
D13*
%TO.C,C12*%
X90000000Y-48500000D03*
D11*
X92500000Y-48500000D03*
%TD*%
%TO.C,C25*%
X39500000Y-51000000D03*
X39500000Y-46000000D03*
%TD*%
D13*
%TO.C,C43*%
X103000000Y-40500000D03*
D11*
X105500000Y-40500000D03*
%TD*%
%TO.C,C32*%
X79200000Y-61500000D03*
X79200000Y-56500000D03*
%TD*%
%TO.C,C15*%
X82500000Y-26500000D03*
X87500000Y-26500000D03*
%TD*%
%TO.C,C7*%
X32500000Y-26500000D03*
X37500000Y-26500000D03*
%TD*%
D13*
%TO.C,C3*%
X31000000Y-47500000D03*
D11*
X33500000Y-47500000D03*
%TD*%
%TO.C,C8*%
X40800000Y-26500000D03*
X45800000Y-26500000D03*
%TD*%
%TO.C,R10*%
X57000000Y-39500000D03*
X67160000Y-39500000D03*
%TD*%
%TO.C,C28*%
X63500000Y-51000000D03*
X63500000Y-46000000D03*
%TD*%
%TO.C,C16*%
X90800000Y-26500000D03*
X95800000Y-26500000D03*
%TD*%
%TO.C,R6*%
X102300000Y-66000000D03*
X102300000Y-55840000D03*
%TD*%
D14*
%TO.C,J1*%
X15340000Y-12350000D03*
D15*
X13210000Y-6000000D03*
X24640000Y-6000000D03*
D14*
X13210000Y-9150000D03*
X24640000Y-9150000D03*
X13210000Y-2800000D03*
X24640000Y-2800000D03*
X13210000Y-15500000D03*
X24640000Y-15500000D03*
%TD*%
D13*
%TO.C,C41*%
X50500000Y-35500000D03*
D11*
X53000000Y-35500000D03*
%TD*%
%TO.C,C26*%
X43500000Y-51000000D03*
X43500000Y-46000000D03*
%TD*%
%TO.C,C1*%
X12500000Y-26500000D03*
X17500000Y-26500000D03*
%TD*%
%TO.C,C34*%
X70000000Y-43000000D03*
X75000000Y-43000000D03*
%TD*%
D13*
%TO.C,C14*%
X60500000Y-65500000D03*
D11*
X63000000Y-65500000D03*
%TD*%
%TO.C,C35*%
X92000000Y-39500000D03*
X97000000Y-39500000D03*
%TD*%
%TO.C,R11*%
X57000000Y-43000000D03*
X67160000Y-43000000D03*
%TD*%
D13*
%TO.C,C5*%
X55000000Y-47500000D03*
D11*
X57500000Y-47500000D03*
%TD*%
%TO.C,C36*%
X92000000Y-43000000D03*
X97000000Y-43000000D03*
%TD*%
%TO.C,R1*%
X3500000Y-55000000D03*
X3500000Y-44840000D03*
%TD*%
%LPD*%
M02*
