%TF.GenerationSoftware,KiCad,Pcbnew,9.0.6*%
%TF.CreationDate,2026-09-09T20:31:05-07:00*%
%TF.ProjectId,ghost-fader,67686f73-742d-4666-9164-65722e6b6963,rev?*%
%TF.SameCoordinates,Original*%
%TF.FileFunction,Legend,Bot*%
%TF.FilePolarity,Positive*%
%FSLAX46Y46*%
G04 Gerber Fmt 4.6, Leading zero omitted, Abs format (unit mm)*
G04 Created by KiCad (PCBNEW 9.0.6) date 2026-09-09 20:31:05*
%MOMM*%
%LPD*%
G01*
G04 APERTURE LIST*
%ADD10C,0.200000*%
G04 APERTURE END LIST*
D10*
X70142857Y-4344742D02*
X69914285Y-4344742D01*
X69914285Y-4344742D02*
X69800000Y-4401885D01*
X69800000Y-4401885D02*
X69685714Y-4516171D01*
X69685714Y-4516171D02*
X69628571Y-4744742D01*
X69628571Y-4744742D02*
X69628571Y-5144742D01*
X69628571Y-5144742D02*
X69685714Y-5373314D01*
X69685714Y-5373314D02*
X69800000Y-5487600D01*
X69800000Y-5487600D02*
X69914285Y-5544742D01*
X69914285Y-5544742D02*
X70142857Y-5544742D01*
X70142857Y-5544742D02*
X70257143Y-5487600D01*
X70257143Y-5487600D02*
X70371428Y-5373314D01*
X70371428Y-5373314D02*
X70428571Y-5144742D01*
X70428571Y-5144742D02*
X70428571Y-4744742D01*
X70428571Y-4744742D02*
X70371428Y-4516171D01*
X70371428Y-4516171D02*
X70257143Y-4401885D01*
X70257143Y-4401885D02*
X70142857Y-4344742D01*
X69114285Y-4344742D02*
X69114285Y-5316171D01*
X69114285Y-5316171D02*
X69057142Y-5430457D01*
X69057142Y-5430457D02*
X69000000Y-5487600D01*
X69000000Y-5487600D02*
X68885714Y-5544742D01*
X68885714Y-5544742D02*
X68657142Y-5544742D01*
X68657142Y-5544742D02*
X68542857Y-5487600D01*
X68542857Y-5487600D02*
X68485714Y-5430457D01*
X68485714Y-5430457D02*
X68428571Y-5316171D01*
X68428571Y-5316171D02*
X68428571Y-4344742D01*
X68028571Y-4344742D02*
X67342857Y-4344742D01*
X67685714Y-5544742D02*
X67685714Y-4344742D01*
X65457142Y-5544742D02*
X66028570Y-5544742D01*
X66028570Y-5544742D02*
X66028570Y-4344742D01*
X37742858Y-42005980D02*
X37895239Y-41929790D01*
X37895239Y-41929790D02*
X38123810Y-41929790D01*
X38123810Y-41929790D02*
X38352382Y-42005980D01*
X38352382Y-42005980D02*
X38504763Y-42158361D01*
X38504763Y-42158361D02*
X38580953Y-42310742D01*
X38580953Y-42310742D02*
X38657144Y-42615504D01*
X38657144Y-42615504D02*
X38657144Y-42844076D01*
X38657144Y-42844076D02*
X38580953Y-43148838D01*
X38580953Y-43148838D02*
X38504763Y-43301219D01*
X38504763Y-43301219D02*
X38352382Y-43453600D01*
X38352382Y-43453600D02*
X38123810Y-43529790D01*
X38123810Y-43529790D02*
X37971429Y-43529790D01*
X37971429Y-43529790D02*
X37742858Y-43453600D01*
X37742858Y-43453600D02*
X37666667Y-43377409D01*
X37666667Y-43377409D02*
X37666667Y-42844076D01*
X37666667Y-42844076D02*
X37971429Y-42844076D01*
X36980953Y-43529790D02*
X36980953Y-41929790D01*
X36980953Y-42691695D02*
X36066667Y-42691695D01*
X36066667Y-43529790D02*
X36066667Y-41929790D01*
X35000001Y-41929790D02*
X34695239Y-41929790D01*
X34695239Y-41929790D02*
X34542858Y-42005980D01*
X34542858Y-42005980D02*
X34390477Y-42158361D01*
X34390477Y-42158361D02*
X34314287Y-42463123D01*
X34314287Y-42463123D02*
X34314287Y-42996457D01*
X34314287Y-42996457D02*
X34390477Y-43301219D01*
X34390477Y-43301219D02*
X34542858Y-43453600D01*
X34542858Y-43453600D02*
X34695239Y-43529790D01*
X34695239Y-43529790D02*
X35000001Y-43529790D01*
X35000001Y-43529790D02*
X35152382Y-43453600D01*
X35152382Y-43453600D02*
X35304763Y-43301219D01*
X35304763Y-43301219D02*
X35380954Y-42996457D01*
X35380954Y-42996457D02*
X35380954Y-42463123D01*
X35380954Y-42463123D02*
X35304763Y-42158361D01*
X35304763Y-42158361D02*
X35152382Y-42005980D01*
X35152382Y-42005980D02*
X35000001Y-41929790D01*
X33704764Y-43453600D02*
X33476192Y-43529790D01*
X33476192Y-43529790D02*
X33095240Y-43529790D01*
X33095240Y-43529790D02*
X32942859Y-43453600D01*
X32942859Y-43453600D02*
X32866668Y-43377409D01*
X32866668Y-43377409D02*
X32790478Y-43225028D01*
X32790478Y-43225028D02*
X32790478Y-43072647D01*
X32790478Y-43072647D02*
X32866668Y-42920266D01*
X32866668Y-42920266D02*
X32942859Y-42844076D01*
X32942859Y-42844076D02*
X33095240Y-42767885D01*
X33095240Y-42767885D02*
X33400002Y-42691695D01*
X33400002Y-42691695D02*
X33552383Y-42615504D01*
X33552383Y-42615504D02*
X33628573Y-42539314D01*
X33628573Y-42539314D02*
X33704764Y-42386933D01*
X33704764Y-42386933D02*
X33704764Y-42234552D01*
X33704764Y-42234552D02*
X33628573Y-42082171D01*
X33628573Y-42082171D02*
X33552383Y-42005980D01*
X33552383Y-42005980D02*
X33400002Y-41929790D01*
X33400002Y-41929790D02*
X33019049Y-41929790D01*
X33019049Y-41929790D02*
X32790478Y-42005980D01*
X32333335Y-41929790D02*
X31419049Y-41929790D01*
X31876192Y-43529790D02*
X31876192Y-41929790D01*
X29133334Y-42691695D02*
X29666667Y-42691695D01*
X29666667Y-43529790D02*
X29666667Y-41929790D01*
X29666667Y-41929790D02*
X28904762Y-41929790D01*
X28371429Y-43072647D02*
X27609524Y-43072647D01*
X28523810Y-43529790D02*
X27990476Y-41929790D01*
X27990476Y-41929790D02*
X27457143Y-43529790D01*
X26923809Y-43529790D02*
X26923809Y-41929790D01*
X26923809Y-41929790D02*
X26542857Y-41929790D01*
X26542857Y-41929790D02*
X26314285Y-42005980D01*
X26314285Y-42005980D02*
X26161904Y-42158361D01*
X26161904Y-42158361D02*
X26085714Y-42310742D01*
X26085714Y-42310742D02*
X26009523Y-42615504D01*
X26009523Y-42615504D02*
X26009523Y-42844076D01*
X26009523Y-42844076D02*
X26085714Y-43148838D01*
X26085714Y-43148838D02*
X26161904Y-43301219D01*
X26161904Y-43301219D02*
X26314285Y-43453600D01*
X26314285Y-43453600D02*
X26542857Y-43529790D01*
X26542857Y-43529790D02*
X26923809Y-43529790D01*
X25323809Y-42691695D02*
X24790476Y-42691695D01*
X24561904Y-43529790D02*
X25323809Y-43529790D01*
X25323809Y-43529790D02*
X25323809Y-41929790D01*
X25323809Y-41929790D02*
X24561904Y-41929790D01*
X22961904Y-43529790D02*
X23495238Y-42767885D01*
X23876190Y-43529790D02*
X23876190Y-41929790D01*
X23876190Y-41929790D02*
X23266666Y-41929790D01*
X23266666Y-41929790D02*
X23114285Y-42005980D01*
X23114285Y-42005980D02*
X23038095Y-42082171D01*
X23038095Y-42082171D02*
X22961904Y-42234552D01*
X22961904Y-42234552D02*
X22961904Y-42463123D01*
X22961904Y-42463123D02*
X23038095Y-42615504D01*
X23038095Y-42615504D02*
X23114285Y-42691695D01*
X23114285Y-42691695D02*
X23266666Y-42767885D01*
X23266666Y-42767885D02*
X23876190Y-42767885D01*
X21057142Y-43529790D02*
X21057142Y-42463123D01*
X21057142Y-42767885D02*
X20980952Y-42615504D01*
X20980952Y-42615504D02*
X20904761Y-42539314D01*
X20904761Y-42539314D02*
X20752380Y-42463123D01*
X20752380Y-42463123D02*
X20599999Y-42463123D01*
X19457142Y-43453600D02*
X19609523Y-43529790D01*
X19609523Y-43529790D02*
X19914285Y-43529790D01*
X19914285Y-43529790D02*
X20066666Y-43453600D01*
X20066666Y-43453600D02*
X20142857Y-43301219D01*
X20142857Y-43301219D02*
X20142857Y-42691695D01*
X20142857Y-42691695D02*
X20066666Y-42539314D01*
X20066666Y-42539314D02*
X19914285Y-42463123D01*
X19914285Y-42463123D02*
X19609523Y-42463123D01*
X19609523Y-42463123D02*
X19457142Y-42539314D01*
X19457142Y-42539314D02*
X19380952Y-42691695D01*
X19380952Y-42691695D02*
X19380952Y-42844076D01*
X19380952Y-42844076D02*
X20142857Y-42996457D01*
X18847618Y-42463123D02*
X18466666Y-43529790D01*
X18466666Y-43529790D02*
X18085713Y-42463123D01*
X16257141Y-43529790D02*
X16257141Y-41929790D01*
X16257141Y-41929790D02*
X15876189Y-41929790D01*
X15876189Y-41929790D02*
X15647617Y-42005980D01*
X15647617Y-42005980D02*
X15495236Y-42158361D01*
X15495236Y-42158361D02*
X15419046Y-42310742D01*
X15419046Y-42310742D02*
X15342855Y-42615504D01*
X15342855Y-42615504D02*
X15342855Y-42844076D01*
X15342855Y-42844076D02*
X15419046Y-43148838D01*
X15419046Y-43148838D02*
X15495236Y-43301219D01*
X15495236Y-43301219D02*
X15647617Y-43453600D01*
X15647617Y-43453600D02*
X15876189Y-43529790D01*
X15876189Y-43529790D02*
X16257141Y-43529790D01*
X92257143Y-4344742D02*
X92028571Y-4344742D01*
X92028571Y-4344742D02*
X91914286Y-4401885D01*
X91914286Y-4401885D02*
X91800000Y-4516171D01*
X91800000Y-4516171D02*
X91742857Y-4744742D01*
X91742857Y-4744742D02*
X91742857Y-5144742D01*
X91742857Y-5144742D02*
X91800000Y-5373314D01*
X91800000Y-5373314D02*
X91914286Y-5487600D01*
X91914286Y-5487600D02*
X92028571Y-5544742D01*
X92028571Y-5544742D02*
X92257143Y-5544742D01*
X92257143Y-5544742D02*
X92371429Y-5487600D01*
X92371429Y-5487600D02*
X92485714Y-5373314D01*
X92485714Y-5373314D02*
X92542857Y-5144742D01*
X92542857Y-5144742D02*
X92542857Y-4744742D01*
X92542857Y-4744742D02*
X92485714Y-4516171D01*
X92485714Y-4516171D02*
X92371429Y-4401885D01*
X92371429Y-4401885D02*
X92257143Y-4344742D01*
X91228571Y-4344742D02*
X91228571Y-5316171D01*
X91228571Y-5316171D02*
X91171428Y-5430457D01*
X91171428Y-5430457D02*
X91114286Y-5487600D01*
X91114286Y-5487600D02*
X91000000Y-5544742D01*
X91000000Y-5544742D02*
X90771428Y-5544742D01*
X90771428Y-5544742D02*
X90657143Y-5487600D01*
X90657143Y-5487600D02*
X90600000Y-5430457D01*
X90600000Y-5430457D02*
X90542857Y-5316171D01*
X90542857Y-5316171D02*
X90542857Y-4344742D01*
X90142857Y-4344742D02*
X89457143Y-4344742D01*
X89800000Y-5544742D02*
X89800000Y-4344742D01*
X87457142Y-5544742D02*
X87857142Y-4973314D01*
X88142856Y-5544742D02*
X88142856Y-4344742D01*
X88142856Y-4344742D02*
X87685713Y-4344742D01*
X87685713Y-4344742D02*
X87571428Y-4401885D01*
X87571428Y-4401885D02*
X87514285Y-4459028D01*
X87514285Y-4459028D02*
X87457142Y-4573314D01*
X87457142Y-4573314D02*
X87457142Y-4744742D01*
X87457142Y-4744742D02*
X87514285Y-4859028D01*
X87514285Y-4859028D02*
X87571428Y-4916171D01*
X87571428Y-4916171D02*
X87685713Y-4973314D01*
X87685713Y-4973314D02*
X88142856Y-4973314D01*
X20571428Y-5544742D02*
X20571428Y-4344742D01*
X19999999Y-5544742D02*
X19999999Y-4344742D01*
X19999999Y-4344742D02*
X19314285Y-5544742D01*
X19314285Y-5544742D02*
X19314285Y-4344742D01*
X17257142Y-5544742D02*
X17828570Y-5544742D01*
X17828570Y-5544742D02*
X17828570Y-4344742D01*
X23799999Y-73344742D02*
X23799999Y-74316171D01*
X23799999Y-74316171D02*
X23742856Y-74430457D01*
X23742856Y-74430457D02*
X23685714Y-74487600D01*
X23685714Y-74487600D02*
X23571428Y-74544742D01*
X23571428Y-74544742D02*
X23342856Y-74544742D01*
X23342856Y-74544742D02*
X23228571Y-74487600D01*
X23228571Y-74487600D02*
X23171428Y-74430457D01*
X23171428Y-74430457D02*
X23114285Y-74316171D01*
X23114285Y-74316171D02*
X23114285Y-73344742D01*
X22599999Y-74487600D02*
X22428571Y-74544742D01*
X22428571Y-74544742D02*
X22142856Y-74544742D01*
X22142856Y-74544742D02*
X22028571Y-74487600D01*
X22028571Y-74487600D02*
X21971428Y-74430457D01*
X21971428Y-74430457D02*
X21914285Y-74316171D01*
X21914285Y-74316171D02*
X21914285Y-74201885D01*
X21914285Y-74201885D02*
X21971428Y-74087600D01*
X21971428Y-74087600D02*
X22028571Y-74030457D01*
X22028571Y-74030457D02*
X22142856Y-73973314D01*
X22142856Y-73973314D02*
X22371428Y-73916171D01*
X22371428Y-73916171D02*
X22485713Y-73859028D01*
X22485713Y-73859028D02*
X22542856Y-73801885D01*
X22542856Y-73801885D02*
X22599999Y-73687600D01*
X22599999Y-73687600D02*
X22599999Y-73573314D01*
X22599999Y-73573314D02*
X22542856Y-73459028D01*
X22542856Y-73459028D02*
X22485713Y-73401885D01*
X22485713Y-73401885D02*
X22371428Y-73344742D01*
X22371428Y-73344742D02*
X22085713Y-73344742D01*
X22085713Y-73344742D02*
X21914285Y-73401885D01*
X20999999Y-73916171D02*
X20828571Y-73973314D01*
X20828571Y-73973314D02*
X20771428Y-74030457D01*
X20771428Y-74030457D02*
X20714285Y-74144742D01*
X20714285Y-74144742D02*
X20714285Y-74316171D01*
X20714285Y-74316171D02*
X20771428Y-74430457D01*
X20771428Y-74430457D02*
X20828571Y-74487600D01*
X20828571Y-74487600D02*
X20942856Y-74544742D01*
X20942856Y-74544742D02*
X21399999Y-74544742D01*
X21399999Y-74544742D02*
X21399999Y-73344742D01*
X21399999Y-73344742D02*
X20999999Y-73344742D01*
X20999999Y-73344742D02*
X20885714Y-73401885D01*
X20885714Y-73401885D02*
X20828571Y-73459028D01*
X20828571Y-73459028D02*
X20771428Y-73573314D01*
X20771428Y-73573314D02*
X20771428Y-73687600D01*
X20771428Y-73687600D02*
X20828571Y-73801885D01*
X20828571Y-73801885D02*
X20885714Y-73859028D01*
X20885714Y-73859028D02*
X20999999Y-73916171D01*
X20999999Y-73916171D02*
X21399999Y-73916171D01*
X18657142Y-73401885D02*
X18771428Y-73344742D01*
X18771428Y-73344742D02*
X18942856Y-73344742D01*
X18942856Y-73344742D02*
X19114285Y-73401885D01*
X19114285Y-73401885D02*
X19228570Y-73516171D01*
X19228570Y-73516171D02*
X19285713Y-73630457D01*
X19285713Y-73630457D02*
X19342856Y-73859028D01*
X19342856Y-73859028D02*
X19342856Y-74030457D01*
X19342856Y-74030457D02*
X19285713Y-74259028D01*
X19285713Y-74259028D02*
X19228570Y-74373314D01*
X19228570Y-74373314D02*
X19114285Y-74487600D01*
X19114285Y-74487600D02*
X18942856Y-74544742D01*
X18942856Y-74544742D02*
X18828570Y-74544742D01*
X18828570Y-74544742D02*
X18657142Y-74487600D01*
X18657142Y-74487600D02*
X18599999Y-74430457D01*
X18599999Y-74430457D02*
X18599999Y-74030457D01*
X18599999Y-74030457D02*
X18828570Y-74030457D01*
X18085713Y-74544742D02*
X18085713Y-73344742D01*
X18085713Y-73344742D02*
X17399999Y-74544742D01*
X17399999Y-74544742D02*
X17399999Y-73344742D01*
X16828570Y-74544742D02*
X16828570Y-73344742D01*
X16828570Y-73344742D02*
X16542856Y-73344742D01*
X16542856Y-73344742D02*
X16371427Y-73401885D01*
X16371427Y-73401885D02*
X16257142Y-73516171D01*
X16257142Y-73516171D02*
X16199999Y-73630457D01*
X16199999Y-73630457D02*
X16142856Y-73859028D01*
X16142856Y-73859028D02*
X16142856Y-74030457D01*
X16142856Y-74030457D02*
X16199999Y-74259028D01*
X16199999Y-74259028D02*
X16257142Y-74373314D01*
X16257142Y-74373314D02*
X16371427Y-74487600D01*
X16371427Y-74487600D02*
X16542856Y-74544742D01*
X16542856Y-74544742D02*
X16828570Y-74544742D01*
X67428570Y-76466504D02*
X66952380Y-76466504D01*
X67523808Y-76752219D02*
X67190475Y-75752219D01*
X67190475Y-75752219D02*
X66857142Y-76752219D01*
X66523808Y-75752219D02*
X66523808Y-76561742D01*
X66523808Y-76561742D02*
X66476189Y-76656980D01*
X66476189Y-76656980D02*
X66428570Y-76704600D01*
X66428570Y-76704600D02*
X66333332Y-76752219D01*
X66333332Y-76752219D02*
X66142856Y-76752219D01*
X66142856Y-76752219D02*
X66047618Y-76704600D01*
X66047618Y-76704600D02*
X65999999Y-76656980D01*
X65999999Y-76656980D02*
X65952380Y-76561742D01*
X65952380Y-76561742D02*
X65952380Y-75752219D01*
X65476189Y-76752219D02*
X65476189Y-75752219D01*
X65476189Y-75752219D02*
X65238094Y-75752219D01*
X65238094Y-75752219D02*
X65095237Y-75799838D01*
X65095237Y-75799838D02*
X64999999Y-75895076D01*
X64999999Y-75895076D02*
X64952380Y-75990314D01*
X64952380Y-75990314D02*
X64904761Y-76180790D01*
X64904761Y-76180790D02*
X64904761Y-76323647D01*
X64904761Y-76323647D02*
X64952380Y-76514123D01*
X64952380Y-76514123D02*
X64999999Y-76609361D01*
X64999999Y-76609361D02*
X65095237Y-76704600D01*
X65095237Y-76704600D02*
X65238094Y-76752219D01*
X65238094Y-76752219D02*
X65476189Y-76752219D01*
X64476189Y-76752219D02*
X64476189Y-75752219D01*
X63809523Y-75752219D02*
X63619047Y-75752219D01*
X63619047Y-75752219D02*
X63523809Y-75799838D01*
X63523809Y-75799838D02*
X63428571Y-75895076D01*
X63428571Y-75895076D02*
X63380952Y-76085552D01*
X63380952Y-76085552D02*
X63380952Y-76418885D01*
X63380952Y-76418885D02*
X63428571Y-76609361D01*
X63428571Y-76609361D02*
X63523809Y-76704600D01*
X63523809Y-76704600D02*
X63619047Y-76752219D01*
X63619047Y-76752219D02*
X63809523Y-76752219D01*
X63809523Y-76752219D02*
X63904761Y-76704600D01*
X63904761Y-76704600D02*
X63999999Y-76609361D01*
X63999999Y-76609361D02*
X64047618Y-76418885D01*
X64047618Y-76418885D02*
X64047618Y-76085552D01*
X64047618Y-76085552D02*
X63999999Y-75895076D01*
X63999999Y-75895076D02*
X63904761Y-75799838D01*
X63904761Y-75799838D02*
X63809523Y-75752219D01*
X61666666Y-75799838D02*
X61761904Y-75752219D01*
X61761904Y-75752219D02*
X61904761Y-75752219D01*
X61904761Y-75752219D02*
X62047618Y-75799838D01*
X62047618Y-75799838D02*
X62142856Y-75895076D01*
X62142856Y-75895076D02*
X62190475Y-75990314D01*
X62190475Y-75990314D02*
X62238094Y-76180790D01*
X62238094Y-76180790D02*
X62238094Y-76323647D01*
X62238094Y-76323647D02*
X62190475Y-76514123D01*
X62190475Y-76514123D02*
X62142856Y-76609361D01*
X62142856Y-76609361D02*
X62047618Y-76704600D01*
X62047618Y-76704600D02*
X61904761Y-76752219D01*
X61904761Y-76752219D02*
X61809523Y-76752219D01*
X61809523Y-76752219D02*
X61666666Y-76704600D01*
X61666666Y-76704600D02*
X61619047Y-76656980D01*
X61619047Y-76656980D02*
X61619047Y-76323647D01*
X61619047Y-76323647D02*
X61809523Y-76323647D01*
X61190475Y-76752219D02*
X61190475Y-75752219D01*
X61190475Y-75752219D02*
X60619047Y-76752219D01*
X60619047Y-76752219D02*
X60619047Y-75752219D01*
X60142856Y-76752219D02*
X60142856Y-75752219D01*
X60142856Y-75752219D02*
X59904761Y-75752219D01*
X59904761Y-75752219D02*
X59761904Y-75799838D01*
X59761904Y-75799838D02*
X59666666Y-75895076D01*
X59666666Y-75895076D02*
X59619047Y-75990314D01*
X59619047Y-75990314D02*
X59571428Y-76180790D01*
X59571428Y-76180790D02*
X59571428Y-76323647D01*
X59571428Y-76323647D02*
X59619047Y-76514123D01*
X59619047Y-76514123D02*
X59666666Y-76609361D01*
X59666666Y-76609361D02*
X59761904Y-76704600D01*
X59761904Y-76704600D02*
X59904761Y-76752219D01*
X59904761Y-76752219D02*
X60142856Y-76752219D01*
X40685714Y-5544742D02*
X40685714Y-4344742D01*
X40114285Y-5544742D02*
X40114285Y-4344742D01*
X40114285Y-4344742D02*
X39428571Y-5544742D01*
X39428571Y-5544742D02*
X39428571Y-4344742D01*
X37257142Y-5544742D02*
X37657142Y-4973314D01*
X37942856Y-5544742D02*
X37942856Y-4344742D01*
X37942856Y-4344742D02*
X37485713Y-4344742D01*
X37485713Y-4344742D02*
X37371428Y-4401885D01*
X37371428Y-4401885D02*
X37314285Y-4459028D01*
X37314285Y-4459028D02*
X37257142Y-4573314D01*
X37257142Y-4573314D02*
X37257142Y-4744742D01*
X37257142Y-4744742D02*
X37314285Y-4859028D01*
X37314285Y-4859028D02*
X37371428Y-4916171D01*
X37371428Y-4916171D02*
X37485713Y-4973314D01*
X37485713Y-4973314D02*
X37942856Y-4973314D01*
M02*
