%TF.GenerationSoftware,KiCad,Pcbnew,9.0.6*%
%TF.CreationDate,2026-09-09T19:00:14-07:00*%
%TF.ProjectId,ghost-fader,67686f73-742d-4666-9164-65722e6b6963,rev?*%
%TF.SameCoordinates,Original*%
%TF.FileFunction,Legend,Bot*%
%TF.FilePolarity,Positive*%
%FSLAX46Y46*%
G04 Gerber Fmt 4.6, Leading zero omitted, Abs format (unit mm)*
G04 Created by KiCad (PCBNEW 9.0.6) date 2026-09-09 19:00:14*
%MOMM*%
%LPD*%
G01*
G04 APERTURE LIST*
%ADD10C,0.200000*%
G04 APERTURE END LIST*
D10*
X67085714Y-56308028D02*
X67257143Y-56222314D01*
X67257143Y-56222314D02*
X67514285Y-56222314D01*
X67514285Y-56222314D02*
X67771428Y-56308028D01*
X67771428Y-56308028D02*
X67942857Y-56479457D01*
X67942857Y-56479457D02*
X68028571Y-56650885D01*
X68028571Y-56650885D02*
X68114285Y-56993742D01*
X68114285Y-56993742D02*
X68114285Y-57250885D01*
X68114285Y-57250885D02*
X68028571Y-57593742D01*
X68028571Y-57593742D02*
X67942857Y-57765171D01*
X67942857Y-57765171D02*
X67771428Y-57936600D01*
X67771428Y-57936600D02*
X67514285Y-58022314D01*
X67514285Y-58022314D02*
X67342857Y-58022314D01*
X67342857Y-58022314D02*
X67085714Y-57936600D01*
X67085714Y-57936600D02*
X67000000Y-57850885D01*
X67000000Y-57850885D02*
X67000000Y-57250885D01*
X67000000Y-57250885D02*
X67342857Y-57250885D01*
X66228571Y-58022314D02*
X66228571Y-56222314D01*
X66228571Y-57079457D02*
X65200000Y-57079457D01*
X65200000Y-58022314D02*
X65200000Y-56222314D01*
X64000000Y-56222314D02*
X63657143Y-56222314D01*
X63657143Y-56222314D02*
X63485714Y-56308028D01*
X63485714Y-56308028D02*
X63314286Y-56479457D01*
X63314286Y-56479457D02*
X63228571Y-56822314D01*
X63228571Y-56822314D02*
X63228571Y-57422314D01*
X63228571Y-57422314D02*
X63314286Y-57765171D01*
X63314286Y-57765171D02*
X63485714Y-57936600D01*
X63485714Y-57936600D02*
X63657143Y-58022314D01*
X63657143Y-58022314D02*
X64000000Y-58022314D01*
X64000000Y-58022314D02*
X64171429Y-57936600D01*
X64171429Y-57936600D02*
X64342857Y-57765171D01*
X64342857Y-57765171D02*
X64428571Y-57422314D01*
X64428571Y-57422314D02*
X64428571Y-56822314D01*
X64428571Y-56822314D02*
X64342857Y-56479457D01*
X64342857Y-56479457D02*
X64171429Y-56308028D01*
X64171429Y-56308028D02*
X64000000Y-56222314D01*
X62542857Y-57936600D02*
X62285715Y-58022314D01*
X62285715Y-58022314D02*
X61857143Y-58022314D01*
X61857143Y-58022314D02*
X61685715Y-57936600D01*
X61685715Y-57936600D02*
X61600000Y-57850885D01*
X61600000Y-57850885D02*
X61514286Y-57679457D01*
X61514286Y-57679457D02*
X61514286Y-57508028D01*
X61514286Y-57508028D02*
X61600000Y-57336600D01*
X61600000Y-57336600D02*
X61685715Y-57250885D01*
X61685715Y-57250885D02*
X61857143Y-57165171D01*
X61857143Y-57165171D02*
X62200000Y-57079457D01*
X62200000Y-57079457D02*
X62371429Y-56993742D01*
X62371429Y-56993742D02*
X62457143Y-56908028D01*
X62457143Y-56908028D02*
X62542857Y-56736600D01*
X62542857Y-56736600D02*
X62542857Y-56565171D01*
X62542857Y-56565171D02*
X62457143Y-56393742D01*
X62457143Y-56393742D02*
X62371429Y-56308028D01*
X62371429Y-56308028D02*
X62200000Y-56222314D01*
X62200000Y-56222314D02*
X61771429Y-56222314D01*
X61771429Y-56222314D02*
X61514286Y-56308028D01*
X61000000Y-56222314D02*
X59971429Y-56222314D01*
X60485714Y-58022314D02*
X60485714Y-56222314D01*
X57399999Y-57079457D02*
X57999999Y-57079457D01*
X57999999Y-58022314D02*
X57999999Y-56222314D01*
X57999999Y-56222314D02*
X57142856Y-56222314D01*
X56542856Y-57508028D02*
X55685714Y-57508028D01*
X56714285Y-58022314D02*
X56114285Y-56222314D01*
X56114285Y-56222314D02*
X55514285Y-58022314D01*
X54914285Y-58022314D02*
X54914285Y-56222314D01*
X54914285Y-56222314D02*
X54485714Y-56222314D01*
X54485714Y-56222314D02*
X54228571Y-56308028D01*
X54228571Y-56308028D02*
X54057142Y-56479457D01*
X54057142Y-56479457D02*
X53971428Y-56650885D01*
X53971428Y-56650885D02*
X53885714Y-56993742D01*
X53885714Y-56993742D02*
X53885714Y-57250885D01*
X53885714Y-57250885D02*
X53971428Y-57593742D01*
X53971428Y-57593742D02*
X54057142Y-57765171D01*
X54057142Y-57765171D02*
X54228571Y-57936600D01*
X54228571Y-57936600D02*
X54485714Y-58022314D01*
X54485714Y-58022314D02*
X54914285Y-58022314D01*
X53114285Y-57079457D02*
X52514285Y-57079457D01*
X52257142Y-58022314D02*
X53114285Y-58022314D01*
X53114285Y-58022314D02*
X53114285Y-56222314D01*
X53114285Y-56222314D02*
X52257142Y-56222314D01*
X50457143Y-58022314D02*
X51057143Y-57165171D01*
X51485714Y-58022314D02*
X51485714Y-56222314D01*
X51485714Y-56222314D02*
X50800000Y-56222314D01*
X50800000Y-56222314D02*
X50628571Y-56308028D01*
X50628571Y-56308028D02*
X50542857Y-56393742D01*
X50542857Y-56393742D02*
X50457143Y-56565171D01*
X50457143Y-56565171D02*
X50457143Y-56822314D01*
X50457143Y-56822314D02*
X50542857Y-56993742D01*
X50542857Y-56993742D02*
X50628571Y-57079457D01*
X50628571Y-57079457D02*
X50800000Y-57165171D01*
X50800000Y-57165171D02*
X51485714Y-57165171D01*
X48314285Y-58022314D02*
X48314285Y-56822314D01*
X48314285Y-57165171D02*
X48228571Y-56993742D01*
X48228571Y-56993742D02*
X48142857Y-56908028D01*
X48142857Y-56908028D02*
X47971428Y-56822314D01*
X47971428Y-56822314D02*
X47799999Y-56822314D01*
X46514285Y-57936600D02*
X46685713Y-58022314D01*
X46685713Y-58022314D02*
X47028571Y-58022314D01*
X47028571Y-58022314D02*
X47199999Y-57936600D01*
X47199999Y-57936600D02*
X47285713Y-57765171D01*
X47285713Y-57765171D02*
X47285713Y-57079457D01*
X47285713Y-57079457D02*
X47199999Y-56908028D01*
X47199999Y-56908028D02*
X47028571Y-56822314D01*
X47028571Y-56822314D02*
X46685713Y-56822314D01*
X46685713Y-56822314D02*
X46514285Y-56908028D01*
X46514285Y-56908028D02*
X46428571Y-57079457D01*
X46428571Y-57079457D02*
X46428571Y-57250885D01*
X46428571Y-57250885D02*
X47285713Y-57422314D01*
X45828571Y-56822314D02*
X45399999Y-58022314D01*
X45399999Y-58022314D02*
X44971428Y-56822314D01*
X41885713Y-57850885D02*
X41971427Y-57936600D01*
X41971427Y-57936600D02*
X42228570Y-58022314D01*
X42228570Y-58022314D02*
X42399998Y-58022314D01*
X42399998Y-58022314D02*
X42657141Y-57936600D01*
X42657141Y-57936600D02*
X42828570Y-57765171D01*
X42828570Y-57765171D02*
X42914284Y-57593742D01*
X42914284Y-57593742D02*
X42999998Y-57250885D01*
X42999998Y-57250885D02*
X42999998Y-56993742D01*
X42999998Y-56993742D02*
X42914284Y-56650885D01*
X42914284Y-56650885D02*
X42828570Y-56479457D01*
X42828570Y-56479457D02*
X42657141Y-56308028D01*
X42657141Y-56308028D02*
X42399998Y-56222314D01*
X42399998Y-56222314D02*
X42228570Y-56222314D01*
X42228570Y-56222314D02*
X41971427Y-56308028D01*
X41971427Y-56308028D02*
X41885713Y-56393742D01*
X70142857Y-4344742D02*
X69914285Y-4344742D01*
X69914285Y-4344742D02*
X69800000Y-4401885D01*
X69800000Y-4401885D02*
X69685714Y-4516171D01*
X69685714Y-4516171D02*
X69628571Y-4744742D01*
X69628571Y-4744742D02*
X69628571Y-5144742D01*
X69628571Y-5144742D02*
X69685714Y-5373314D01*
X69685714Y-5373314D02*
X69800000Y-5487600D01*
X69800000Y-5487600D02*
X69914285Y-5544742D01*
X69914285Y-5544742D02*
X70142857Y-5544742D01*
X70142857Y-5544742D02*
X70257143Y-5487600D01*
X70257143Y-5487600D02*
X70371428Y-5373314D01*
X70371428Y-5373314D02*
X70428571Y-5144742D01*
X70428571Y-5144742D02*
X70428571Y-4744742D01*
X70428571Y-4744742D02*
X70371428Y-4516171D01*
X70371428Y-4516171D02*
X70257143Y-4401885D01*
X70257143Y-4401885D02*
X70142857Y-4344742D01*
X69114285Y-4344742D02*
X69114285Y-5316171D01*
X69114285Y-5316171D02*
X69057142Y-5430457D01*
X69057142Y-5430457D02*
X69000000Y-5487600D01*
X69000000Y-5487600D02*
X68885714Y-5544742D01*
X68885714Y-5544742D02*
X68657142Y-5544742D01*
X68657142Y-5544742D02*
X68542857Y-5487600D01*
X68542857Y-5487600D02*
X68485714Y-5430457D01*
X68485714Y-5430457D02*
X68428571Y-5316171D01*
X68428571Y-5316171D02*
X68428571Y-4344742D01*
X68028571Y-4344742D02*
X67342857Y-4344742D01*
X67685714Y-5544742D02*
X67685714Y-4344742D01*
X65457142Y-5544742D02*
X66028570Y-5544742D01*
X66028570Y-5544742D02*
X66028570Y-4344742D01*
X92257143Y-4344742D02*
X92028571Y-4344742D01*
X92028571Y-4344742D02*
X91914286Y-4401885D01*
X91914286Y-4401885D02*
X91800000Y-4516171D01*
X91800000Y-4516171D02*
X91742857Y-4744742D01*
X91742857Y-4744742D02*
X91742857Y-5144742D01*
X91742857Y-5144742D02*
X91800000Y-5373314D01*
X91800000Y-5373314D02*
X91914286Y-5487600D01*
X91914286Y-5487600D02*
X92028571Y-5544742D01*
X92028571Y-5544742D02*
X92257143Y-5544742D01*
X92257143Y-5544742D02*
X92371429Y-5487600D01*
X92371429Y-5487600D02*
X92485714Y-5373314D01*
X92485714Y-5373314D02*
X92542857Y-5144742D01*
X92542857Y-5144742D02*
X92542857Y-4744742D01*
X92542857Y-4744742D02*
X92485714Y-4516171D01*
X92485714Y-4516171D02*
X92371429Y-4401885D01*
X92371429Y-4401885D02*
X92257143Y-4344742D01*
X91228571Y-4344742D02*
X91228571Y-5316171D01*
X91228571Y-5316171D02*
X91171428Y-5430457D01*
X91171428Y-5430457D02*
X91114286Y-5487600D01*
X91114286Y-5487600D02*
X91000000Y-5544742D01*
X91000000Y-5544742D02*
X90771428Y-5544742D01*
X90771428Y-5544742D02*
X90657143Y-5487600D01*
X90657143Y-5487600D02*
X90600000Y-5430457D01*
X90600000Y-5430457D02*
X90542857Y-5316171D01*
X90542857Y-5316171D02*
X90542857Y-4344742D01*
X90142857Y-4344742D02*
X89457143Y-4344742D01*
X89800000Y-5544742D02*
X89800000Y-4344742D01*
X87457142Y-5544742D02*
X87857142Y-4973314D01*
X88142856Y-5544742D02*
X88142856Y-4344742D01*
X88142856Y-4344742D02*
X87685713Y-4344742D01*
X87685713Y-4344742D02*
X87571428Y-4401885D01*
X87571428Y-4401885D02*
X87514285Y-4459028D01*
X87514285Y-4459028D02*
X87457142Y-4573314D01*
X87457142Y-4573314D02*
X87457142Y-4744742D01*
X87457142Y-4744742D02*
X87514285Y-4859028D01*
X87514285Y-4859028D02*
X87571428Y-4916171D01*
X87571428Y-4916171D02*
X87685713Y-4973314D01*
X87685713Y-4973314D02*
X88142856Y-4973314D01*
X20571428Y-5544742D02*
X20571428Y-4344742D01*
X19999999Y-5544742D02*
X19999999Y-4344742D01*
X19999999Y-4344742D02*
X19314285Y-5544742D01*
X19314285Y-5544742D02*
X19314285Y-4344742D01*
X17257142Y-5544742D02*
X17828570Y-5544742D01*
X17828570Y-5544742D02*
X17828570Y-4344742D01*
X40685714Y-5544742D02*
X40685714Y-4344742D01*
X40114285Y-5544742D02*
X40114285Y-4344742D01*
X40114285Y-4344742D02*
X39428571Y-5544742D01*
X39428571Y-5544742D02*
X39428571Y-4344742D01*
X37257142Y-5544742D02*
X37657142Y-4973314D01*
X37942856Y-5544742D02*
X37942856Y-4344742D01*
X37942856Y-4344742D02*
X37485713Y-4344742D01*
X37485713Y-4344742D02*
X37371428Y-4401885D01*
X37371428Y-4401885D02*
X37314285Y-4459028D01*
X37314285Y-4459028D02*
X37257142Y-4573314D01*
X37257142Y-4573314D02*
X37257142Y-4744742D01*
X37257142Y-4744742D02*
X37314285Y-4859028D01*
X37314285Y-4859028D02*
X37371428Y-4916171D01*
X37371428Y-4916171D02*
X37485713Y-4973314D01*
X37485713Y-4973314D02*
X37942856Y-4973314D01*
M02*
