%TF.GenerationSoftware,KiCad,Pcbnew,9.0.6*%
%TF.CreationDate,2026-09-06T19:19:28-07:00*%
%TF.ProjectId,ghost-fader,67686f73-742d-4666-9164-65722e6b6963,rev?*%
%TF.SameCoordinates,Original*%
%TF.FileFunction,Legend,Bot*%
%TF.FilePolarity,Positive*%
%FSLAX46Y46*%
G04 Gerber Fmt 4.6, Leading zero omitted, Abs format (unit mm)*
G04 Created by KiCad (PCBNEW 9.0.6) date 2026-09-06 19:19:28*
%MOMM*%
%LPD*%
G01*
G04 APERTURE LIST*
G04 Aperture macros list*
%AMRoundRect*
0 Rectangle with rounded corners*
0 $1 Rounding radius*
0 $2 $3 $4 $5 $6 $7 $8 $9 X,Y pos of 4 corners*
0 Add a 4 corners polygon primitive as box body*
4,1,4,$2,$3,$4,$5,$6,$7,$8,$9,$2,$3,0*
0 Add four circle primitives for the rounded corners*
1,1,$1+$1,$2,$3*
1,1,$1+$1,$4,$5*
1,1,$1+$1,$6,$7*
1,1,$1+$1,$8,$9*
0 Add four rect primitives between the rounded corners*
20,1,$1+$1,$2,$3,$4,$5,0*
20,1,$1+$1,$4,$5,$6,$7,0*
20,1,$1+$1,$6,$7,$8,$9,0*
20,1,$1+$1,$8,$9,$2,$3,0*%
G04 Aperture macros list end*
%ADD10C,0.200000*%
%ADD11C,1.700000*%
%ADD12RoundRect,0.265625X-0.584375X-0.584375X0.584375X-0.584375X0.584375X0.584375X-0.584375X0.584375X0*%
%ADD13RoundRect,0.050000X0.850000X0.850000X-0.850000X0.850000X-0.850000X-0.850000X0.850000X-0.850000X0*%
%ADD14C,1.800000*%
%ADD15RoundRect,0.050000X-0.900000X-0.900000X0.900000X-0.900000X0.900000X0.900000X-0.900000X0.900000X0*%
%ADD16C,1.900000*%
%ADD17C,3.100000*%
%ADD18C,2.100000*%
%ADD19RoundRect,0.265625X0.584375X-0.584375X0.584375X0.584375X-0.584375X0.584375X-0.584375X-0.584375X0*%
%ADD20RoundRect,0.050000X-0.850000X-0.850000X0.850000X-0.850000X0.850000X0.850000X-0.850000X0.850000X0*%
G04 APERTURE END LIST*
D10*
X92257143Y-4344742D02*
X92028571Y-4344742D01*
X92028571Y-4344742D02*
X91914286Y-4401885D01*
X91914286Y-4401885D02*
X91800000Y-4516171D01*
X91800000Y-4516171D02*
X91742857Y-4744742D01*
X91742857Y-4744742D02*
X91742857Y-5144742D01*
X91742857Y-5144742D02*
X91800000Y-5373314D01*
X91800000Y-5373314D02*
X91914286Y-5487600D01*
X91914286Y-5487600D02*
X92028571Y-5544742D01*
X92028571Y-5544742D02*
X92257143Y-5544742D01*
X92257143Y-5544742D02*
X92371429Y-5487600D01*
X92371429Y-5487600D02*
X92485714Y-5373314D01*
X92485714Y-5373314D02*
X92542857Y-5144742D01*
X92542857Y-5144742D02*
X92542857Y-4744742D01*
X92542857Y-4744742D02*
X92485714Y-4516171D01*
X92485714Y-4516171D02*
X92371429Y-4401885D01*
X92371429Y-4401885D02*
X92257143Y-4344742D01*
X91228571Y-4344742D02*
X91228571Y-5316171D01*
X91228571Y-5316171D02*
X91171428Y-5430457D01*
X91171428Y-5430457D02*
X91114286Y-5487600D01*
X91114286Y-5487600D02*
X91000000Y-5544742D01*
X91000000Y-5544742D02*
X90771428Y-5544742D01*
X90771428Y-5544742D02*
X90657143Y-5487600D01*
X90657143Y-5487600D02*
X90600000Y-5430457D01*
X90600000Y-5430457D02*
X90542857Y-5316171D01*
X90542857Y-5316171D02*
X90542857Y-4344742D01*
X90142857Y-4344742D02*
X89457143Y-4344742D01*
X89800000Y-5544742D02*
X89800000Y-4344742D01*
X87457142Y-5544742D02*
X87857142Y-4973314D01*
X88142856Y-5544742D02*
X88142856Y-4344742D01*
X88142856Y-4344742D02*
X87685713Y-4344742D01*
X87685713Y-4344742D02*
X87571428Y-4401885D01*
X87571428Y-4401885D02*
X87514285Y-4459028D01*
X87514285Y-4459028D02*
X87457142Y-4573314D01*
X87457142Y-4573314D02*
X87457142Y-4744742D01*
X87457142Y-4744742D02*
X87514285Y-4859028D01*
X87514285Y-4859028D02*
X87571428Y-4916171D01*
X87571428Y-4916171D02*
X87685713Y-4973314D01*
X87685713Y-4973314D02*
X88142856Y-4973314D01*
X40685714Y-5544742D02*
X40685714Y-4344742D01*
X40114285Y-5544742D02*
X40114285Y-4344742D01*
X40114285Y-4344742D02*
X39428571Y-5544742D01*
X39428571Y-5544742D02*
X39428571Y-4344742D01*
X37257142Y-5544742D02*
X37657142Y-4973314D01*
X37942856Y-5544742D02*
X37942856Y-4344742D01*
X37942856Y-4344742D02*
X37485713Y-4344742D01*
X37485713Y-4344742D02*
X37371428Y-4401885D01*
X37371428Y-4401885D02*
X37314285Y-4459028D01*
X37314285Y-4459028D02*
X37257142Y-4573314D01*
X37257142Y-4573314D02*
X37257142Y-4744742D01*
X37257142Y-4744742D02*
X37314285Y-4859028D01*
X37314285Y-4859028D02*
X37371428Y-4916171D01*
X37371428Y-4916171D02*
X37485713Y-4973314D01*
X37485713Y-4973314D02*
X37942856Y-4973314D01*
X70142857Y-4344742D02*
X69914285Y-4344742D01*
X69914285Y-4344742D02*
X69800000Y-4401885D01*
X69800000Y-4401885D02*
X69685714Y-4516171D01*
X69685714Y-4516171D02*
X69628571Y-4744742D01*
X69628571Y-4744742D02*
X69628571Y-5144742D01*
X69628571Y-5144742D02*
X69685714Y-5373314D01*
X69685714Y-5373314D02*
X69800000Y-5487600D01*
X69800000Y-5487600D02*
X69914285Y-5544742D01*
X69914285Y-5544742D02*
X70142857Y-5544742D01*
X70142857Y-5544742D02*
X70257143Y-5487600D01*
X70257143Y-5487600D02*
X70371428Y-5373314D01*
X70371428Y-5373314D02*
X70428571Y-5144742D01*
X70428571Y-5144742D02*
X70428571Y-4744742D01*
X70428571Y-4744742D02*
X70371428Y-4516171D01*
X70371428Y-4516171D02*
X70257143Y-4401885D01*
X70257143Y-4401885D02*
X70142857Y-4344742D01*
X69114285Y-4344742D02*
X69114285Y-5316171D01*
X69114285Y-5316171D02*
X69057142Y-5430457D01*
X69057142Y-5430457D02*
X69000000Y-5487600D01*
X69000000Y-5487600D02*
X68885714Y-5544742D01*
X68885714Y-5544742D02*
X68657142Y-5544742D01*
X68657142Y-5544742D02*
X68542857Y-5487600D01*
X68542857Y-5487600D02*
X68485714Y-5430457D01*
X68485714Y-5430457D02*
X68428571Y-5316171D01*
X68428571Y-5316171D02*
X68428571Y-4344742D01*
X68028571Y-4344742D02*
X67342857Y-4344742D01*
X67685714Y-5544742D02*
X67685714Y-4344742D01*
X65457142Y-5544742D02*
X66028570Y-5544742D01*
X66028570Y-5544742D02*
X66028570Y-4344742D01*
X20571428Y-5544742D02*
X20571428Y-4344742D01*
X19999999Y-5544742D02*
X19999999Y-4344742D01*
X19999999Y-4344742D02*
X19314285Y-5544742D01*
X19314285Y-5544742D02*
X19314285Y-4344742D01*
X17257142Y-5544742D02*
X17828570Y-5544742D01*
X17828570Y-5544742D02*
X17828570Y-4344742D01*
%LPC*%
D11*
%TO.C,R6*%
X98000000Y-65800000D03*
X98000000Y-55640000D03*
%TD*%
%TO.C,C34*%
X70000000Y-43000000D03*
X75000000Y-43000000D03*
%TD*%
D12*
%TO.C,C14*%
X60500000Y-65500000D03*
D11*
X63000000Y-65500000D03*
%TD*%
%TO.C,C23*%
X42000000Y-38500000D03*
X42000000Y-33500000D03*
%TD*%
%TO.C,R7*%
X101500000Y-65800000D03*
X101500000Y-55640000D03*
%TD*%
%TO.C,R2*%
X91000000Y-65800000D03*
X91000000Y-55640000D03*
%TD*%
%TO.C,C33*%
X70000000Y-39500000D03*
X75000000Y-39500000D03*
%TD*%
D13*
%TO.C,U9*%
X27120000Y-78010000D03*
D14*
X27120000Y-75470000D03*
X27120000Y-72930000D03*
X27120000Y-70390000D03*
X27120000Y-67850000D03*
X27120000Y-65310000D03*
X27120000Y-62770000D03*
X27120000Y-60230000D03*
X27120000Y-57690000D03*
X27120000Y-55150000D03*
X27120000Y-52610000D03*
X27120000Y-50070000D03*
X27120000Y-47530000D03*
X27120000Y-44990000D03*
X11880000Y-78010000D03*
X11880000Y-75470000D03*
X11880000Y-72930000D03*
X11880000Y-70390000D03*
X11880000Y-67850000D03*
X11880000Y-65310000D03*
X11880000Y-62770000D03*
X11880000Y-60230000D03*
X11880000Y-57690000D03*
X11880000Y-55150000D03*
X11880000Y-52610000D03*
X11880000Y-50070000D03*
X11880000Y-47530000D03*
X11880000Y-44990000D03*
%TD*%
D11*
%TO.C,C32*%
X84000000Y-51500000D03*
X89000000Y-51500000D03*
%TD*%
%TO.C,C29*%
X67500000Y-51000000D03*
X67500000Y-46000000D03*
%TD*%
%TO.C,R1*%
X3500000Y-55000000D03*
X3500000Y-44840000D03*
%TD*%
%TO.C,R5*%
X89100000Y-71800000D03*
X99260000Y-71800000D03*
%TD*%
%TO.C,C30*%
X69500000Y-65000000D03*
X74500000Y-65000000D03*
%TD*%
%TO.C,R16*%
X105500000Y-66000000D03*
X105500000Y-55840000D03*
%TD*%
D12*
%TO.C,C12*%
X76300000Y-74000000D03*
D11*
X78800000Y-74000000D03*
%TD*%
%TO.C,R8*%
X89100000Y-75100000D03*
X99260000Y-75100000D03*
%TD*%
D15*
%TO.C,LED1*%
X102000000Y-71000000D03*
D16*
X104540000Y-71000000D03*
%TD*%
D11*
%TO.C,L1*%
X67300000Y-78500000D03*
X67300000Y-68340000D03*
%TD*%
D17*
%TO.C,J4*%
X86340000Y-12350000D03*
D18*
X84210000Y-6000000D03*
X95640000Y-6000000D03*
D17*
X84210000Y-9150000D03*
X95640000Y-9150000D03*
X84210000Y-2800000D03*
X95640000Y-2800000D03*
X84210000Y-15500000D03*
X95640000Y-15500000D03*
%TD*%
D11*
%TO.C,C27*%
X32400000Y-65000000D03*
X37400000Y-65000000D03*
%TD*%
D12*
%TO.C,C40*%
X50500000Y-28000000D03*
D11*
X53000000Y-28000000D03*
%TD*%
D12*
%TO.C,C42*%
X103000000Y-33500000D03*
D11*
X105500000Y-33500000D03*
%TD*%
%TO.C,C9*%
X61500000Y-26500000D03*
X66500000Y-26500000D03*
%TD*%
%TO.C,C25*%
X39500000Y-51000000D03*
X39500000Y-46000000D03*
%TD*%
D12*
%TO.C,C4*%
X48000000Y-47500000D03*
D11*
X50500000Y-47500000D03*
%TD*%
D19*
%TO.C,U3*%
X34000000Y-61000000D03*
D11*
X36540000Y-61000000D03*
X39080000Y-61000000D03*
X41620000Y-61000000D03*
X44160000Y-61000000D03*
X46700000Y-61000000D03*
X49240000Y-61000000D03*
X51780000Y-61000000D03*
X51780000Y-53380000D03*
X49240000Y-53380000D03*
X46700000Y-53380000D03*
X44160000Y-53380000D03*
X41620000Y-53380000D03*
X39080000Y-53380000D03*
X36540000Y-53380000D03*
X34000000Y-53380000D03*
%TD*%
D12*
%TO.C,C20*%
X96000000Y-33500000D03*
D11*
X98500000Y-33500000D03*
%TD*%
%TO.C,C22*%
X10000000Y-38500000D03*
X10000000Y-33500000D03*
%TD*%
D17*
%TO.C,J1*%
X15340000Y-12350000D03*
D18*
X13210000Y-6000000D03*
X24640000Y-6000000D03*
D17*
X13210000Y-9150000D03*
X24640000Y-9150000D03*
X13210000Y-2800000D03*
X24640000Y-2800000D03*
X13210000Y-15500000D03*
X24640000Y-15500000D03*
%TD*%
D12*
%TO.C,U5*%
X80000000Y-55000000D03*
D11*
X80000000Y-57540000D03*
X80000000Y-60080000D03*
X80000000Y-62620000D03*
X87620000Y-62620000D03*
X87620000Y-60080000D03*
X87620000Y-57540000D03*
X87620000Y-55000000D03*
%TD*%
%TO.C,C26*%
X43500000Y-51000000D03*
X43500000Y-46000000D03*
%TD*%
%TO.C,C35*%
X92000000Y-39500000D03*
X97000000Y-39500000D03*
%TD*%
%TO.C,C10*%
X69800000Y-26500000D03*
X74800000Y-26500000D03*
%TD*%
D12*
%TO.C,C43*%
X103000000Y-40500000D03*
D11*
X105500000Y-40500000D03*
%TD*%
D12*
%TO.C,C13*%
X83300000Y-74000000D03*
D11*
X85800000Y-74000000D03*
%TD*%
%TO.C,R15*%
X5250000Y-68000000D03*
X5250000Y-57840000D03*
%TD*%
%TO.C,C31*%
X84000000Y-48000000D03*
X89000000Y-48000000D03*
%TD*%
%TO.C,R13*%
X79000000Y-43000000D03*
X89160000Y-43000000D03*
%TD*%
%TO.C,C24*%
X30000000Y-38500000D03*
X30000000Y-33500000D03*
%TD*%
%TO.C,C36*%
X92000000Y-43000000D03*
X97000000Y-43000000D03*
%TD*%
%TO.C,C2*%
X20800000Y-26500000D03*
X25800000Y-26500000D03*
%TD*%
%TO.C,R9*%
X89100000Y-78400000D03*
X99260000Y-78400000D03*
%TD*%
D12*
%TO.C,C3*%
X31000000Y-47500000D03*
D11*
X33500000Y-47500000D03*
%TD*%
%TO.C,C16*%
X90800000Y-26500000D03*
X95800000Y-26500000D03*
%TD*%
D20*
%TO.C,PS1*%
X44500000Y-74700000D03*
D14*
X47040000Y-74700000D03*
X49580000Y-74700000D03*
X57200000Y-74700000D03*
X59740000Y-74700000D03*
X62280000Y-74700000D03*
%TD*%
D17*
%TO.C,J2*%
X35340000Y-12350000D03*
D18*
X33210000Y-6000000D03*
X44640000Y-6000000D03*
D17*
X33210000Y-9150000D03*
X44640000Y-9150000D03*
X33210000Y-2800000D03*
X44640000Y-2800000D03*
X33210000Y-15500000D03*
X44640000Y-15500000D03*
%TD*%
D11*
%TO.C,R12*%
X79000000Y-39500000D03*
X89160000Y-39500000D03*
%TD*%
%TO.C,C1*%
X12500000Y-26500000D03*
X17500000Y-26500000D03*
%TD*%
D12*
%TO.C,C5*%
X55000000Y-47500000D03*
D11*
X57500000Y-47500000D03*
%TD*%
D12*
%TO.C,C41*%
X50500000Y-35500000D03*
D11*
X53000000Y-35500000D03*
%TD*%
%TO.C,C28*%
X63500000Y-51000000D03*
X63500000Y-46000000D03*
%TD*%
D17*
%TO.C,J3*%
X64340000Y-12350000D03*
D18*
X62210000Y-6000000D03*
X73640000Y-6000000D03*
D17*
X62210000Y-9150000D03*
X73640000Y-9150000D03*
X62210000Y-2800000D03*
X73640000Y-2800000D03*
X62210000Y-15500000D03*
X73640000Y-15500000D03*
%TD*%
D12*
%TO.C,C19*%
X80000000Y-33500000D03*
D11*
X82500000Y-33500000D03*
%TD*%
%TO.C,R4*%
X89100000Y-68500000D03*
X99260000Y-68500000D03*
%TD*%
D12*
%TO.C,C11*%
X53500000Y-65500000D03*
D11*
X56000000Y-65500000D03*
%TD*%
%TO.C,L2*%
X71300000Y-78500000D03*
X71300000Y-68340000D03*
%TD*%
%TO.C,C21*%
X22000000Y-38500000D03*
X22000000Y-33500000D03*
%TD*%
%TO.C,C15*%
X82500000Y-26500000D03*
X87500000Y-26500000D03*
%TD*%
D12*
%TO.C,C18*%
X74000000Y-33500000D03*
D11*
X76500000Y-33500000D03*
%TD*%
D19*
%TO.C,U4*%
X58000000Y-61000000D03*
D11*
X60540000Y-61000000D03*
X63080000Y-61000000D03*
X65620000Y-61000000D03*
X68160000Y-61000000D03*
X70700000Y-61000000D03*
X73240000Y-61000000D03*
X75780000Y-61000000D03*
X75780000Y-53380000D03*
X73240000Y-53380000D03*
X70700000Y-53380000D03*
X68160000Y-53380000D03*
X65620000Y-53380000D03*
X63080000Y-53380000D03*
X60540000Y-53380000D03*
X58000000Y-53380000D03*
%TD*%
%TO.C,R3*%
X94500000Y-65800000D03*
X94500000Y-55640000D03*
%TD*%
%TO.C,R10*%
X57000000Y-39500000D03*
X67160000Y-39500000D03*
%TD*%
%TO.C,C8*%
X40800000Y-26500000D03*
X45800000Y-26500000D03*
%TD*%
%TO.C,FB1*%
X39800000Y-65500000D03*
X49960000Y-65500000D03*
%TD*%
D19*
%TO.C,SW1*%
X31500000Y-78500000D03*
D11*
X34040000Y-78500000D03*
X36580000Y-78500000D03*
X39120000Y-78500000D03*
X39120000Y-70880000D03*
X36580000Y-70880000D03*
X34040000Y-70880000D03*
X31500000Y-70880000D03*
%TD*%
D12*
%TO.C,C6*%
X72000000Y-47500000D03*
D11*
X74500000Y-47500000D03*
%TD*%
%TO.C,R11*%
X57000000Y-43000000D03*
X67160000Y-43000000D03*
%TD*%
%TO.C,R14*%
X7000000Y-55000000D03*
X7000000Y-44840000D03*
%TD*%
D12*
%TO.C,C17*%
X58000000Y-33500000D03*
D11*
X60500000Y-33500000D03*
%TD*%
%TO.C,C7*%
X32500000Y-26500000D03*
X37500000Y-26500000D03*
%TD*%
%LPD*%
M02*
