%TF.GenerationSoftware,KiCad,Pcbnew,9.0.6*%
%TF.CreationDate,2026-09-08T13:17:16-07:00*%
%TF.ProjectId,ghost-fader-narrow,67686f73-742d-4666-9164-65722d6e6172,rev?*%
%TF.SameCoordinates,Original*%
%TF.FileFunction,Soldermask,Top*%
%TF.FilePolarity,Negative*%
%FSLAX46Y46*%
G04 Gerber Fmt 4.6, Leading zero omitted, Abs format (unit mm)*
G04 Created by KiCad (PCBNEW 9.0.6) date 2026-09-08 13:17:16*
%MOMM*%
%LPD*%
G01*
G04 APERTURE LIST*
G04 Aperture macros list*
%AMRoundRect*
0 Rectangle with rounded corners*
0 $1 Rounding radius*
0 $2 $3 $4 $5 $6 $7 $8 $9 X,Y pos of 4 corners*
0 Add a 4 corners polygon primitive as box body*
4,1,4,$2,$3,$4,$5,$6,$7,$8,$9,$2,$3,0*
0 Add four circle primitives for the rounded corners*
1,1,$1+$1,$2,$3*
1,1,$1+$1,$4,$5*
1,1,$1+$1,$6,$7*
1,1,$1+$1,$8,$9*
0 Add four rect primitives between the rounded corners*
20,1,$1+$1,$2,$3,$4,$5,0*
20,1,$1+$1,$4,$5,$6,$7,0*
20,1,$1+$1,$6,$7,$8,$9,0*
20,1,$1+$1,$8,$9,$2,$3,0*%
G04 Aperture macros list end*
%ADD10RoundRect,0.265625X-0.584375X-0.584375X0.584375X-0.584375X0.584375X0.584375X-0.584375X0.584375X0*%
%ADD11C,1.700000*%
%ADD12C,3.100000*%
%ADD13C,2.100000*%
%ADD14RoundRect,0.175000X0.850000X0.175000X-0.850000X0.175000X-0.850000X-0.175000X0.850000X-0.175000X0*%
%ADD15RoundRect,0.050000X-0.850000X-0.850000X0.850000X-0.850000X0.850000X0.850000X-0.850000X0.850000X0*%
%ADD16C,1.800000*%
%ADD17RoundRect,0.175000X-0.850000X-0.175000X0.850000X-0.175000X0.850000X0.175000X-0.850000X0.175000X0*%
%ADD18RoundRect,0.265625X-0.584375X0.584375X-0.584375X-0.584375X0.584375X-0.584375X0.584375X0.584375X0*%
%ADD19RoundRect,0.050000X-0.900000X-0.900000X0.900000X-0.900000X0.900000X0.900000X-0.900000X0.900000X0*%
%ADD20C,1.900000*%
G04 APERTURE END LIST*
D10*
%TO.C,C43*%
X16000000Y-8000000D03*
D11*
X18500000Y-8000000D03*
%TD*%
D12*
%TO.C,J1*%
X143650000Y-21590000D03*
D13*
X150000000Y-19460000D03*
X150000000Y-30890000D03*
D12*
X146850000Y-19460000D03*
X146850000Y-30890000D03*
X153200000Y-19460000D03*
X153200000Y-30890000D03*
X140500000Y-19460000D03*
X140500000Y-30890000D03*
%TD*%
D11*
%TO.C,C8*%
X129500000Y-51000000D03*
X129500000Y-56000000D03*
%TD*%
%TO.C,R7*%
X84000000Y-59500000D03*
X84000000Y-69660000D03*
%TD*%
D14*
%TO.C,U2*%
X120475000Y-51155000D03*
X120475000Y-49885000D03*
X120475000Y-48615000D03*
X120475000Y-47345000D03*
X115525000Y-47345000D03*
X115525000Y-48615000D03*
X115525000Y-49885000D03*
X115525000Y-51155000D03*
%TD*%
D11*
%TO.C,R12*%
X43000000Y-44500000D03*
X53160000Y-44500000D03*
%TD*%
%TO.C,R9*%
X70000000Y-59500000D03*
X70000000Y-69660000D03*
%TD*%
D12*
%TO.C,J3*%
X12350000Y-28910000D03*
D13*
X6000000Y-31040000D03*
X6000000Y-19610000D03*
D12*
X9150000Y-31040000D03*
X9150000Y-19610000D03*
X2800000Y-31040000D03*
X2800000Y-19610000D03*
X15500000Y-31040000D03*
X15500000Y-19610000D03*
%TD*%
D11*
%TO.C,C1*%
X129500000Y-18750000D03*
X129500000Y-23750000D03*
%TD*%
%TO.C,R13*%
X30000000Y-65000000D03*
X40160000Y-65000000D03*
%TD*%
%TO.C,R5*%
X63000000Y-59500000D03*
X63000000Y-69660000D03*
%TD*%
%TO.C,R4*%
X59500000Y-59500000D03*
X59500000Y-69660000D03*
%TD*%
D10*
%TO.C,C17*%
X36000000Y-15500000D03*
D11*
X38500000Y-15500000D03*
%TD*%
D15*
%TO.C,PS1*%
X91000000Y-14000000D03*
D16*
X93540000Y-14000000D03*
X96080000Y-14000000D03*
X103700000Y-14000000D03*
X106240000Y-14000000D03*
X108780000Y-14000000D03*
%TD*%
D10*
%TO.C,U5*%
X45500000Y-62500000D03*
D11*
X45500000Y-65040000D03*
X45500000Y-67580000D03*
X45500000Y-70120000D03*
X53120000Y-70120000D03*
X53120000Y-67580000D03*
X53120000Y-65040000D03*
X53120000Y-62500000D03*
%TD*%
%TO.C,R10*%
X44000000Y-8500000D03*
X54160000Y-8500000D03*
%TD*%
D17*
%TO.C,U7*%
X35525000Y-47345000D03*
X35525000Y-48615000D03*
X35525000Y-49885000D03*
X35525000Y-51155000D03*
X40475000Y-51155000D03*
X40475000Y-49885000D03*
X40475000Y-48615000D03*
X40475000Y-47345000D03*
%TD*%
D11*
%TO.C,C24*%
X116000000Y-42000000D03*
X121000000Y-42000000D03*
%TD*%
D10*
%TO.C,C5*%
X96500000Y-54500000D03*
D11*
X99000000Y-54500000D03*
%TD*%
%TO.C,C33*%
X44000000Y-22000000D03*
X44000000Y-27000000D03*
%TD*%
D18*
%TO.C,U4*%
X100000000Y-41000000D03*
D11*
X97460000Y-41000000D03*
X94920000Y-41000000D03*
X92380000Y-41000000D03*
X89840000Y-41000000D03*
X87300000Y-41000000D03*
X84760000Y-41000000D03*
X82220000Y-41000000D03*
X82220000Y-48620000D03*
X84760000Y-48620000D03*
X87300000Y-48620000D03*
X89840000Y-48620000D03*
X92380000Y-48620000D03*
X94920000Y-48620000D03*
X97460000Y-48620000D03*
X100000000Y-48620000D03*
%TD*%
%TO.C,C29*%
X86500000Y-51500000D03*
X86500000Y-56500000D03*
%TD*%
%TO.C,C30*%
X103000000Y-36500000D03*
X108000000Y-36500000D03*
%TD*%
D12*
%TO.C,J4*%
X12350000Y-52910000D03*
D13*
X6000000Y-55040000D03*
X6000000Y-43610000D03*
D12*
X9150000Y-55040000D03*
X9150000Y-43610000D03*
X2800000Y-55040000D03*
X2800000Y-43610000D03*
X15500000Y-55040000D03*
X15500000Y-43610000D03*
%TD*%
D11*
%TO.C,C16*%
X26500000Y-51000000D03*
X26500000Y-56000000D03*
%TD*%
%TO.C,R15*%
X54500000Y-24500000D03*
X54500000Y-34660000D03*
%TD*%
%TO.C,C23*%
X116000000Y-56500000D03*
X121000000Y-56500000D03*
%TD*%
D10*
%TO.C,C41*%
X149000000Y-8000000D03*
D11*
X151500000Y-8000000D03*
%TD*%
%TO.C,C35*%
X44000000Y-47500000D03*
X44000000Y-52500000D03*
%TD*%
D10*
%TO.C,C20*%
X36000000Y-57500000D03*
D11*
X38500000Y-57500000D03*
%TD*%
D14*
%TO.C,U1*%
X120475000Y-27155000D03*
X120475000Y-25885000D03*
X120475000Y-24615000D03*
X120475000Y-23345000D03*
X115525000Y-23345000D03*
X115525000Y-24615000D03*
X115525000Y-25885000D03*
X115525000Y-27155000D03*
%TD*%
D11*
%TO.C,C26*%
X63500000Y-51500000D03*
X63500000Y-56500000D03*
%TD*%
%TO.C,R1*%
X61500000Y-24500000D03*
X61500000Y-34660000D03*
%TD*%
D19*
%TO.C,LED1*%
X63000000Y-4500000D03*
D20*
X65540000Y-4500000D03*
%TD*%
D10*
%TO.C,C6*%
X80500000Y-54500000D03*
D11*
X83000000Y-54500000D03*
%TD*%
%TO.C,C22*%
X116000000Y-18000000D03*
X121000000Y-18000000D03*
%TD*%
%TO.C,R8*%
X66500000Y-59500000D03*
X66500000Y-69660000D03*
%TD*%
%TO.C,R16*%
X58000000Y-24500000D03*
X58000000Y-34660000D03*
%TD*%
%TO.C,C10*%
X26500000Y-27000000D03*
X26500000Y-32000000D03*
%TD*%
%TO.C,C2*%
X129500000Y-27000000D03*
X129500000Y-32000000D03*
%TD*%
%TO.C,C21*%
X116000000Y-32500000D03*
X121000000Y-32500000D03*
%TD*%
D10*
%TO.C,C14*%
X113000000Y-5200000D03*
D11*
X115500000Y-5200000D03*
%TD*%
%TO.C,R14*%
X65000000Y-24500000D03*
X65000000Y-34660000D03*
%TD*%
D10*
%TO.C,C4*%
X57500000Y-54500000D03*
D11*
X60000000Y-54500000D03*
%TD*%
D10*
%TO.C,C13*%
X94000000Y-32000000D03*
D11*
X96500000Y-32000000D03*
%TD*%
%TO.C,C31*%
X56000000Y-60500000D03*
X56000000Y-65500000D03*
%TD*%
D10*
%TO.C,C40*%
X140000000Y-8000000D03*
D11*
X142500000Y-8000000D03*
%TD*%
%TO.C,C34*%
X48500000Y-22000000D03*
X48500000Y-27000000D03*
%TD*%
%TO.C,R3*%
X80500000Y-59500000D03*
X80500000Y-69660000D03*
%TD*%
%TO.C,L1*%
X103700000Y-21500000D03*
X103700000Y-31660000D03*
%TD*%
D10*
%TO.C,C3*%
X73500000Y-54500000D03*
D11*
X76000000Y-54500000D03*
%TD*%
%TO.C,C27*%
X56000000Y-41000000D03*
X56000000Y-46000000D03*
%TD*%
%TO.C,C28*%
X91000000Y-51500000D03*
X91000000Y-56500000D03*
%TD*%
D10*
%TO.C,C42*%
X7000000Y-8000000D03*
D11*
X9500000Y-8000000D03*
%TD*%
%TO.C,C32*%
X35000000Y-70000000D03*
X40000000Y-70000000D03*
%TD*%
%TO.C,C36*%
X48500000Y-47500000D03*
X48500000Y-52500000D03*
%TD*%
D12*
%TO.C,J2*%
X143650000Y-45590000D03*
D13*
X150000000Y-43460000D03*
X150000000Y-54890000D03*
D12*
X146850000Y-43460000D03*
X146850000Y-54890000D03*
X153200000Y-43460000D03*
X153200000Y-54890000D03*
X140500000Y-43460000D03*
X140500000Y-54890000D03*
%TD*%
D11*
%TO.C,C25*%
X68000000Y-51500000D03*
X68000000Y-56500000D03*
%TD*%
%TO.C,C9*%
X26500000Y-18750000D03*
X26500000Y-23750000D03*
%TD*%
D17*
%TO.C,U6*%
X35525000Y-23345000D03*
X35525000Y-24615000D03*
X35525000Y-25885000D03*
X35525000Y-27155000D03*
X40475000Y-27155000D03*
X40475000Y-25885000D03*
X40475000Y-24615000D03*
X40475000Y-23345000D03*
%TD*%
D11*
%TO.C,FB1*%
X90000000Y-4500000D03*
X100160000Y-4500000D03*
%TD*%
D18*
%TO.C,U3*%
X77000000Y-41000000D03*
D11*
X74460000Y-41000000D03*
X71920000Y-41000000D03*
X69380000Y-41000000D03*
X66840000Y-41000000D03*
X64300000Y-41000000D03*
X61760000Y-41000000D03*
X59220000Y-41000000D03*
X59220000Y-48620000D03*
X61760000Y-48620000D03*
X64300000Y-48620000D03*
X66840000Y-48620000D03*
X69380000Y-48620000D03*
X71920000Y-48620000D03*
X74460000Y-48620000D03*
X77000000Y-48620000D03*
%TD*%
D10*
%TO.C,C18*%
X36000000Y-32000000D03*
D11*
X38500000Y-32000000D03*
%TD*%
%TO.C,L2*%
X108780000Y-21500000D03*
X108780000Y-31660000D03*
%TD*%
%TO.C,C7*%
X129500000Y-42750000D03*
X129500000Y-47750000D03*
%TD*%
D10*
%TO.C,C19*%
X36000000Y-41000000D03*
D11*
X38500000Y-41000000D03*
%TD*%
%TO.C,R2*%
X77000000Y-59500000D03*
X77000000Y-69660000D03*
%TD*%
%TO.C,R11*%
X42500000Y-37500000D03*
X52660000Y-37500000D03*
%TD*%
D10*
%TO.C,SW1*%
X58000000Y-12000000D03*
D11*
X58000000Y-14540000D03*
X58000000Y-17080000D03*
X58000000Y-19620000D03*
X65620000Y-19620000D03*
X65620000Y-17080000D03*
X65620000Y-14540000D03*
X65620000Y-12000000D03*
%TD*%
D15*
%TO.C,U9*%
X70380000Y-2790000D03*
D16*
X70380000Y-5330000D03*
X70380000Y-7870000D03*
X70380000Y-10410000D03*
X70380000Y-12950000D03*
X70380000Y-15490000D03*
X70380000Y-18030000D03*
X70380000Y-20570000D03*
X70380000Y-23110000D03*
X70380000Y-25650000D03*
X70380000Y-28190000D03*
X70380000Y-30730000D03*
X70380000Y-33270000D03*
X70380000Y-35810000D03*
X85620000Y-2790000D03*
X85620000Y-5330000D03*
X85620000Y-7870000D03*
X85620000Y-10410000D03*
X85620000Y-12950000D03*
X85620000Y-15490000D03*
X85620000Y-18030000D03*
X85620000Y-20570000D03*
X85620000Y-23110000D03*
X85620000Y-25650000D03*
X85620000Y-28190000D03*
X85620000Y-30730000D03*
X85620000Y-33270000D03*
X85620000Y-35810000D03*
%TD*%
D10*
%TO.C,C11*%
X104000000Y-5200000D03*
D11*
X106500000Y-5200000D03*
%TD*%
%TO.C,C15*%
X26500000Y-42750000D03*
X26500000Y-47750000D03*
%TD*%
%TO.C,R6*%
X73500000Y-59500000D03*
X73500000Y-69660000D03*
%TD*%
D10*
%TO.C,C12*%
X94000000Y-24000000D03*
D11*
X96500000Y-24000000D03*
%TD*%
M02*
