%TF.GenerationSoftware,KiCad,Pcbnew,9.0.6*%
%TF.CreationDate,2026-09-08T13:17:16-07:00*%
%TF.ProjectId,ghost-fader-narrow,67686f73-742d-4666-9164-65722d6e6172,rev?*%
%TF.SameCoordinates,Original*%
%TF.FileFunction,Drillmap*%
%TF.FilePolarity,Positive*%
%FSLAX45Y45*%
G04 Gerber Fmt 4.5, Leading zero omitted, Abs format (unit mm)*
G04 Created by KiCad (PCBNEW 9.0.6) date 2026-09-08 13:17:16*
%MOMM*%
%LPD*%
G01*
G04 APERTURE LIST*
%ADD10C,0.100000*%
%ADD11C,0.200000*%
%ADD12C,0.150000*%
%ADD13C,0.300000*%
G04 APERTURE END LIST*
D10*
X0Y0D02*
X15600000Y0D01*
X15600000Y-7450000D02*
X0Y-7450000D01*
X15600000Y0D02*
X15600000Y-7450000D01*
X0Y-7450000D02*
X0Y0D01*
D11*
D10*
X3233440Y-3332430D02*
X3273440Y-3372430D01*
X3273440Y-3332430D02*
X3233440Y-3372430D01*
X3581770Y-2892660D02*
X3621770Y-2932660D01*
X3621770Y-2892660D02*
X3581770Y-2932660D01*
X6684170Y-6650170D02*
X6724170Y-6690170D01*
X6724170Y-6650170D02*
X6684170Y-6690170D01*
X11300490Y-2441500D02*
X11340490Y-2481500D01*
X11340490Y-2441500D02*
X11300490Y-2481500D01*
X10496520Y-3492110D02*
G75*
G02*
X10446520Y-3492110I-25000J0D01*
G01*
X10446520Y-3492110D02*
G75*
G02*
X10496520Y-3492110I25000J0D01*
G01*
X700000Y-760000D02*
X700000Y-840000D01*
X660000Y-800000D02*
X740000Y-800000D01*
X950000Y-760000D02*
X950000Y-840000D01*
X910000Y-800000D02*
X990000Y-800000D01*
X1600000Y-760000D02*
X1600000Y-840000D01*
X1560000Y-800000D02*
X1640000Y-800000D01*
X1850000Y-760000D02*
X1850000Y-840000D01*
X1810000Y-800000D02*
X1890000Y-800000D01*
X2650000Y-1835000D02*
X2650000Y-1915000D01*
X2610000Y-1875000D02*
X2690000Y-1875000D01*
X2650000Y-2335000D02*
X2650000Y-2415000D01*
X2610000Y-2375000D02*
X2690000Y-2375000D01*
X2650000Y-2660000D02*
X2650000Y-2740000D01*
X2610000Y-2700000D02*
X2690000Y-2700000D01*
X2650000Y-3160000D02*
X2650000Y-3240000D01*
X2610000Y-3200000D02*
X2690000Y-3200000D01*
X2650000Y-4235000D02*
X2650000Y-4315000D01*
X2610000Y-4275000D02*
X2690000Y-4275000D01*
X2650000Y-4735000D02*
X2650000Y-4815000D01*
X2610000Y-4775000D02*
X2690000Y-4775000D01*
X2650000Y-5060000D02*
X2650000Y-5140000D01*
X2610000Y-5100000D02*
X2690000Y-5100000D01*
X2650000Y-5560000D02*
X2650000Y-5640000D01*
X2610000Y-5600000D02*
X2690000Y-5600000D01*
X3000000Y-6460000D02*
X3000000Y-6540000D01*
X2960000Y-6500000D02*
X3040000Y-6500000D01*
X3500000Y-6960000D02*
X3500000Y-7040000D01*
X3460000Y-7000000D02*
X3540000Y-7000000D01*
X3600000Y-1510000D02*
X3600000Y-1590000D01*
X3560000Y-1550000D02*
X3640000Y-1550000D01*
X3600000Y-3160000D02*
X3600000Y-3240000D01*
X3560000Y-3200000D02*
X3640000Y-3200000D01*
X3600000Y-4060000D02*
X3600000Y-4140000D01*
X3560000Y-4100000D02*
X3640000Y-4100000D01*
X3600000Y-5710000D02*
X3600000Y-5790000D01*
X3560000Y-5750000D02*
X3640000Y-5750000D01*
X3850000Y-1510000D02*
X3850000Y-1590000D01*
X3810000Y-1550000D02*
X3890000Y-1550000D01*
X3850000Y-3160000D02*
X3850000Y-3240000D01*
X3810000Y-3200000D02*
X3890000Y-3200000D01*
X3850000Y-4060000D02*
X3850000Y-4140000D01*
X3810000Y-4100000D02*
X3890000Y-4100000D01*
X3850000Y-5710000D02*
X3850000Y-5790000D01*
X3810000Y-5750000D02*
X3890000Y-5750000D01*
X4000000Y-6960000D02*
X4000000Y-7040000D01*
X3960000Y-7000000D02*
X4040000Y-7000000D01*
X4016000Y-6460000D02*
X4016000Y-6540000D01*
X3976000Y-6500000D02*
X4056000Y-6500000D01*
X4250000Y-3710000D02*
X4250000Y-3790000D01*
X4210000Y-3750000D02*
X4290000Y-3750000D01*
X4300000Y-4410000D02*
X4300000Y-4490000D01*
X4260000Y-4450000D02*
X4340000Y-4450000D01*
X4400000Y-810000D02*
X4400000Y-890000D01*
X4360000Y-850000D02*
X4440000Y-850000D01*
X4400000Y-2160000D02*
X4400000Y-2240000D01*
X4360000Y-2200000D02*
X4440000Y-2200000D01*
X4400000Y-2660000D02*
X4400000Y-2740000D01*
X4360000Y-2700000D02*
X4440000Y-2700000D01*
X4400000Y-4710000D02*
X4400000Y-4790000D01*
X4360000Y-4750000D02*
X4440000Y-4750000D01*
X4400000Y-5210000D02*
X4400000Y-5290000D01*
X4360000Y-5250000D02*
X4440000Y-5250000D01*
X4550000Y-6210000D02*
X4550000Y-6290000D01*
X4510000Y-6250000D02*
X4590000Y-6250000D01*
X4550000Y-6464000D02*
X4550000Y-6544000D01*
X4510000Y-6504000D02*
X4590000Y-6504000D01*
X4550000Y-6718000D02*
X4550000Y-6798000D01*
X4510000Y-6758000D02*
X4590000Y-6758000D01*
X4550000Y-6972000D02*
X4550000Y-7052000D01*
X4510000Y-7012000D02*
X4590000Y-7012000D01*
X4850000Y-2160000D02*
X4850000Y-2240000D01*
X4810000Y-2200000D02*
X4890000Y-2200000D01*
X4850000Y-2660000D02*
X4850000Y-2740000D01*
X4810000Y-2700000D02*
X4890000Y-2700000D01*
X4850000Y-4710000D02*
X4850000Y-4790000D01*
X4810000Y-4750000D02*
X4890000Y-4750000D01*
X4850000Y-5210000D02*
X4850000Y-5290000D01*
X4810000Y-5250000D02*
X4890000Y-5250000D01*
X5266000Y-3710000D02*
X5266000Y-3790000D01*
X5226000Y-3750000D02*
X5306000Y-3750000D01*
X5312000Y-6210000D02*
X5312000Y-6290000D01*
X5272000Y-6250000D02*
X5352000Y-6250000D01*
X5312000Y-6464000D02*
X5312000Y-6544000D01*
X5272000Y-6504000D02*
X5352000Y-6504000D01*
X5312000Y-6718000D02*
X5312000Y-6798000D01*
X5272000Y-6758000D02*
X5352000Y-6758000D01*
X5312000Y-6972000D02*
X5312000Y-7052000D01*
X5272000Y-7012000D02*
X5352000Y-7012000D01*
X5316000Y-4410000D02*
X5316000Y-4490000D01*
X5276000Y-4450000D02*
X5356000Y-4450000D01*
X5416000Y-810000D02*
X5416000Y-890000D01*
X5376000Y-850000D02*
X5456000Y-850000D01*
X5450000Y-2410000D02*
X5450000Y-2490000D01*
X5410000Y-2450000D02*
X5490000Y-2450000D01*
X5450000Y-3426000D02*
X5450000Y-3506000D01*
X5410000Y-3466000D02*
X5490000Y-3466000D01*
X5600000Y-4060000D02*
X5600000Y-4140000D01*
X5560000Y-4100000D02*
X5640000Y-4100000D01*
X5600000Y-4560000D02*
X5600000Y-4640000D01*
X5560000Y-4600000D02*
X5640000Y-4600000D01*
X5600000Y-6010000D02*
X5600000Y-6090000D01*
X5560000Y-6050000D02*
X5640000Y-6050000D01*
X5600000Y-6510000D02*
X5600000Y-6590000D01*
X5560000Y-6550000D02*
X5640000Y-6550000D01*
X5750000Y-5410000D02*
X5750000Y-5490000D01*
X5710000Y-5450000D02*
X5790000Y-5450000D01*
X5800000Y-1160000D02*
X5800000Y-1240000D01*
X5760000Y-1200000D02*
X5840000Y-1200000D01*
X5800000Y-1414000D02*
X5800000Y-1494000D01*
X5760000Y-1454000D02*
X5840000Y-1454000D01*
X5800000Y-1668000D02*
X5800000Y-1748000D01*
X5760000Y-1708000D02*
X5840000Y-1708000D01*
X5800000Y-1922000D02*
X5800000Y-2002000D01*
X5760000Y-1962000D02*
X5840000Y-1962000D01*
X5800000Y-2410000D02*
X5800000Y-2490000D01*
X5760000Y-2450000D02*
X5840000Y-2450000D01*
X5800000Y-3426000D02*
X5800000Y-3506000D01*
X5760000Y-3466000D02*
X5840000Y-3466000D01*
X5922000Y-4060000D02*
X5922000Y-4140000D01*
X5882000Y-4100000D02*
X5962000Y-4100000D01*
X5922000Y-4822000D02*
X5922000Y-4902000D01*
X5882000Y-4862000D02*
X5962000Y-4862000D01*
X5950000Y-5910000D02*
X5950000Y-5990000D01*
X5910000Y-5950000D02*
X5990000Y-5950000D01*
X5950000Y-6926000D02*
X5950000Y-7006000D01*
X5910000Y-6966000D02*
X5990000Y-6966000D01*
X6000000Y-5410000D02*
X6000000Y-5490000D01*
X5960000Y-5450000D02*
X6040000Y-5450000D01*
X6150000Y-2410000D02*
X6150000Y-2490000D01*
X6110000Y-2450000D02*
X6190000Y-2450000D01*
X6150000Y-3426000D02*
X6150000Y-3506000D01*
X6110000Y-3466000D02*
X6190000Y-3466000D01*
X6176000Y-4060000D02*
X6176000Y-4140000D01*
X6136000Y-4100000D02*
X6216000Y-4100000D01*
X6176000Y-4822000D02*
X6176000Y-4902000D01*
X6136000Y-4862000D02*
X6216000Y-4862000D01*
X6300000Y-5910000D02*
X6300000Y-5990000D01*
X6260000Y-5950000D02*
X6340000Y-5950000D01*
X6300000Y-6926000D02*
X6300000Y-7006000D01*
X6260000Y-6966000D02*
X6340000Y-6966000D01*
X6350000Y-5110000D02*
X6350000Y-5190000D01*
X6310000Y-5150000D02*
X6390000Y-5150000D01*
X6350000Y-5610000D02*
X6350000Y-5690000D01*
X6310000Y-5650000D02*
X6390000Y-5650000D01*
X6430000Y-4060000D02*
X6430000Y-4140000D01*
X6390000Y-4100000D02*
X6470000Y-4100000D01*
X6430000Y-4822000D02*
X6430000Y-4902000D01*
X6390000Y-4862000D02*
X6470000Y-4862000D01*
X6500000Y-2410000D02*
X6500000Y-2490000D01*
X6460000Y-2450000D02*
X6540000Y-2450000D01*
X6500000Y-3426000D02*
X6500000Y-3506000D01*
X6460000Y-3466000D02*
X6540000Y-3466000D01*
X6562000Y-1160000D02*
X6562000Y-1240000D01*
X6522000Y-1200000D02*
X6602000Y-1200000D01*
X6562000Y-1414000D02*
X6562000Y-1494000D01*
X6522000Y-1454000D02*
X6602000Y-1454000D01*
X6562000Y-1668000D02*
X6562000Y-1748000D01*
X6522000Y-1708000D02*
X6602000Y-1708000D01*
X6562000Y-1922000D02*
X6562000Y-2002000D01*
X6522000Y-1962000D02*
X6602000Y-1962000D01*
X6650000Y-5910000D02*
X6650000Y-5990000D01*
X6610000Y-5950000D02*
X6690000Y-5950000D01*
X6650000Y-6926000D02*
X6650000Y-7006000D01*
X6610000Y-6966000D02*
X6690000Y-6966000D01*
X6684000Y-4060000D02*
X6684000Y-4140000D01*
X6644000Y-4100000D02*
X6724000Y-4100000D01*
X6684000Y-4822000D02*
X6684000Y-4902000D01*
X6644000Y-4862000D02*
X6724000Y-4862000D01*
X6800000Y-5110000D02*
X6800000Y-5190000D01*
X6760000Y-5150000D02*
X6840000Y-5150000D01*
X6800000Y-5610000D02*
X6800000Y-5690000D01*
X6760000Y-5650000D02*
X6840000Y-5650000D01*
X6938000Y-4060000D02*
X6938000Y-4140000D01*
X6898000Y-4100000D02*
X6978000Y-4100000D01*
X6938000Y-4822000D02*
X6938000Y-4902000D01*
X6898000Y-4862000D02*
X6978000Y-4862000D01*
X7000000Y-5910000D02*
X7000000Y-5990000D01*
X6960000Y-5950000D02*
X7040000Y-5950000D01*
X7000000Y-6926000D02*
X7000000Y-7006000D01*
X6960000Y-6966000D02*
X7040000Y-6966000D01*
X7192000Y-4060000D02*
X7192000Y-4140000D01*
X7152000Y-4100000D02*
X7232000Y-4100000D01*
X7192000Y-4822000D02*
X7192000Y-4902000D01*
X7152000Y-4862000D02*
X7232000Y-4862000D01*
X7350000Y-5410000D02*
X7350000Y-5490000D01*
X7310000Y-5450000D02*
X7390000Y-5450000D01*
X7350000Y-5910000D02*
X7350000Y-5990000D01*
X7310000Y-5950000D02*
X7390000Y-5950000D01*
X7350000Y-6926000D02*
X7350000Y-7006000D01*
X7310000Y-6966000D02*
X7390000Y-6966000D01*
X7446000Y-4060000D02*
X7446000Y-4140000D01*
X7406000Y-4100000D02*
X7486000Y-4100000D01*
X7446000Y-4822000D02*
X7446000Y-4902000D01*
X7406000Y-4862000D02*
X7486000Y-4862000D01*
X7600000Y-5410000D02*
X7600000Y-5490000D01*
X7560000Y-5450000D02*
X7640000Y-5450000D01*
X7700000Y-4060000D02*
X7700000Y-4140000D01*
X7660000Y-4100000D02*
X7740000Y-4100000D01*
X7700000Y-4822000D02*
X7700000Y-4902000D01*
X7660000Y-4862000D02*
X7740000Y-4862000D01*
X7700000Y-5910000D02*
X7700000Y-5990000D01*
X7660000Y-5950000D02*
X7740000Y-5950000D01*
X7700000Y-6926000D02*
X7700000Y-7006000D01*
X7660000Y-6966000D02*
X7740000Y-6966000D01*
X8050000Y-5410000D02*
X8050000Y-5490000D01*
X8010000Y-5450000D02*
X8090000Y-5450000D01*
X8050000Y-5910000D02*
X8050000Y-5990000D01*
X8010000Y-5950000D02*
X8090000Y-5950000D01*
X8050000Y-6926000D02*
X8050000Y-7006000D01*
X8010000Y-6966000D02*
X8090000Y-6966000D01*
X8222000Y-4060000D02*
X8222000Y-4140000D01*
X8182000Y-4100000D02*
X8262000Y-4100000D01*
X8222000Y-4822000D02*
X8222000Y-4902000D01*
X8182000Y-4862000D02*
X8262000Y-4862000D01*
X8300000Y-5410000D02*
X8300000Y-5490000D01*
X8260000Y-5450000D02*
X8340000Y-5450000D01*
X8400000Y-5910000D02*
X8400000Y-5990000D01*
X8360000Y-5950000D02*
X8440000Y-5950000D01*
X8400000Y-6926000D02*
X8400000Y-7006000D01*
X8360000Y-6966000D02*
X8440000Y-6966000D01*
X8476000Y-4060000D02*
X8476000Y-4140000D01*
X8436000Y-4100000D02*
X8516000Y-4100000D01*
X8476000Y-4822000D02*
X8476000Y-4902000D01*
X8436000Y-4862000D02*
X8516000Y-4862000D01*
X8650000Y-5110000D02*
X8650000Y-5190000D01*
X8610000Y-5150000D02*
X8690000Y-5150000D01*
X8650000Y-5610000D02*
X8650000Y-5690000D01*
X8610000Y-5650000D02*
X8690000Y-5650000D01*
X8730000Y-4060000D02*
X8730000Y-4140000D01*
X8690000Y-4100000D02*
X8770000Y-4100000D01*
X8730000Y-4822000D02*
X8730000Y-4902000D01*
X8690000Y-4862000D02*
X8770000Y-4862000D01*
X8984000Y-4060000D02*
X8984000Y-4140000D01*
X8944000Y-4100000D02*
X9024000Y-4100000D01*
X8984000Y-4822000D02*
X8984000Y-4902000D01*
X8944000Y-4862000D02*
X9024000Y-4862000D01*
X9000000Y-410000D02*
X9000000Y-490000D01*
X8960000Y-450000D02*
X9040000Y-450000D01*
X9100000Y-5110000D02*
X9100000Y-5190000D01*
X9060000Y-5150000D02*
X9140000Y-5150000D01*
X9100000Y-5610000D02*
X9100000Y-5690000D01*
X9060000Y-5650000D02*
X9140000Y-5650000D01*
X9238000Y-4060000D02*
X9238000Y-4140000D01*
X9198000Y-4100000D02*
X9278000Y-4100000D01*
X9238000Y-4822000D02*
X9238000Y-4902000D01*
X9198000Y-4862000D02*
X9278000Y-4862000D01*
X9400000Y-2360000D02*
X9400000Y-2440000D01*
X9360000Y-2400000D02*
X9440000Y-2400000D01*
X9400000Y-3160000D02*
X9400000Y-3240000D01*
X9360000Y-3200000D02*
X9440000Y-3200000D01*
X9492000Y-4060000D02*
X9492000Y-4140000D01*
X9452000Y-4100000D02*
X9532000Y-4100000D01*
X9492000Y-4822000D02*
X9492000Y-4902000D01*
X9452000Y-4862000D02*
X9532000Y-4862000D01*
X9650000Y-2360000D02*
X9650000Y-2440000D01*
X9610000Y-2400000D02*
X9690000Y-2400000D01*
X9650000Y-3160000D02*
X9650000Y-3240000D01*
X9610000Y-3200000D02*
X9690000Y-3200000D01*
X9650000Y-5410000D02*
X9650000Y-5490000D01*
X9610000Y-5450000D02*
X9690000Y-5450000D01*
X9746000Y-4060000D02*
X9746000Y-4140000D01*
X9706000Y-4100000D02*
X9786000Y-4100000D01*
X9746000Y-4822000D02*
X9746000Y-4902000D01*
X9706000Y-4862000D02*
X9786000Y-4862000D01*
X9900000Y-5410000D02*
X9900000Y-5490000D01*
X9860000Y-5450000D02*
X9940000Y-5450000D01*
X10000000Y-4060000D02*
X10000000Y-4140000D01*
X9960000Y-4100000D02*
X10040000Y-4100000D01*
X10000000Y-4822000D02*
X10000000Y-4902000D01*
X9960000Y-4862000D02*
X10040000Y-4862000D01*
X10016000Y-410000D02*
X10016000Y-490000D01*
X9976000Y-450000D02*
X10056000Y-450000D01*
X10300000Y-3610000D02*
X10300000Y-3690000D01*
X10260000Y-3650000D02*
X10340000Y-3650000D01*
X10370000Y-2110000D02*
X10370000Y-2190000D01*
X10330000Y-2150000D02*
X10410000Y-2150000D01*
X10370000Y-3126000D02*
X10370000Y-3206000D01*
X10330000Y-3166000D02*
X10410000Y-3166000D01*
X10400000Y-480000D02*
X10400000Y-560000D01*
X10360000Y-520000D02*
X10440000Y-520000D01*
X10650000Y-480000D02*
X10650000Y-560000D01*
X10610000Y-520000D02*
X10690000Y-520000D01*
X10800000Y-3610000D02*
X10800000Y-3690000D01*
X10760000Y-3650000D02*
X10840000Y-3650000D01*
X10878000Y-2110000D02*
X10878000Y-2190000D01*
X10838000Y-2150000D02*
X10918000Y-2150000D01*
X10878000Y-3126000D02*
X10878000Y-3206000D01*
X10838000Y-3166000D02*
X10918000Y-3166000D01*
X11300000Y-480000D02*
X11300000Y-560000D01*
X11260000Y-520000D02*
X11340000Y-520000D01*
X11550000Y-480000D02*
X11550000Y-560000D01*
X11510000Y-520000D02*
X11590000Y-520000D01*
X11600000Y-1760000D02*
X11600000Y-1840000D01*
X11560000Y-1800000D02*
X11640000Y-1800000D01*
X11600000Y-3210000D02*
X11600000Y-3290000D01*
X11560000Y-3250000D02*
X11640000Y-3250000D01*
X11600000Y-4160000D02*
X11600000Y-4240000D01*
X11560000Y-4200000D02*
X11640000Y-4200000D01*
X11600000Y-5610000D02*
X11600000Y-5690000D01*
X11560000Y-5650000D02*
X11640000Y-5650000D01*
X12100000Y-1760000D02*
X12100000Y-1840000D01*
X12060000Y-1800000D02*
X12140000Y-1800000D01*
X12100000Y-3210000D02*
X12100000Y-3290000D01*
X12060000Y-3250000D02*
X12140000Y-3250000D01*
X12100000Y-4160000D02*
X12100000Y-4240000D01*
X12060000Y-4200000D02*
X12140000Y-4200000D01*
X12100000Y-5610000D02*
X12100000Y-5690000D01*
X12060000Y-5650000D02*
X12140000Y-5650000D01*
X12950000Y-1835000D02*
X12950000Y-1915000D01*
X12910000Y-1875000D02*
X12990000Y-1875000D01*
X12950000Y-2335000D02*
X12950000Y-2415000D01*
X12910000Y-2375000D02*
X12990000Y-2375000D01*
X12950000Y-2660000D02*
X12950000Y-2740000D01*
X12910000Y-2700000D02*
X12990000Y-2700000D01*
X12950000Y-3160000D02*
X12950000Y-3240000D01*
X12910000Y-3200000D02*
X12990000Y-3200000D01*
X12950000Y-4235000D02*
X12950000Y-4315000D01*
X12910000Y-4275000D02*
X12990000Y-4275000D01*
X12950000Y-4735000D02*
X12950000Y-4815000D01*
X12910000Y-4775000D02*
X12990000Y-4775000D01*
X12950000Y-5060000D02*
X12950000Y-5140000D01*
X12910000Y-5100000D02*
X12990000Y-5100000D01*
X12950000Y-5560000D02*
X12950000Y-5640000D01*
X12910000Y-5600000D02*
X12990000Y-5600000D01*
X14000000Y-760000D02*
X14000000Y-840000D01*
X13960000Y-800000D02*
X14040000Y-800000D01*
X14250000Y-760000D02*
X14250000Y-840000D01*
X14210000Y-800000D02*
X14290000Y-800000D01*
X14900000Y-760000D02*
X14900000Y-840000D01*
X14860000Y-800000D02*
X14940000Y-800000D01*
X15150000Y-760000D02*
X15150000Y-840000D01*
X15110000Y-800000D02*
X15190000Y-800000D01*
X6331820Y-481820D02*
X6331820Y-418180D01*
X6268180Y-418180D01*
X6268180Y-481820D01*
X6331820Y-481820D01*
X6585820Y-481820D02*
X6585820Y-418180D01*
X6522180Y-418180D01*
X6522180Y-481820D01*
X6585820Y-481820D01*
X7038000Y-329000D02*
X7088000Y-279000D01*
X7038000Y-229000D01*
X6988000Y-279000D01*
X7038000Y-329000D01*
X7038000Y-583000D02*
X7088000Y-533000D01*
X7038000Y-483000D01*
X6988000Y-533000D01*
X7038000Y-583000D01*
X7038000Y-837000D02*
X7088000Y-787000D01*
X7038000Y-737000D01*
X6988000Y-787000D01*
X7038000Y-837000D01*
X7038000Y-1091000D02*
X7088000Y-1041000D01*
X7038000Y-991000D01*
X6988000Y-1041000D01*
X7038000Y-1091000D01*
X7038000Y-1345000D02*
X7088000Y-1295000D01*
X7038000Y-1245000D01*
X6988000Y-1295000D01*
X7038000Y-1345000D01*
X7038000Y-1599000D02*
X7088000Y-1549000D01*
X7038000Y-1499000D01*
X6988000Y-1549000D01*
X7038000Y-1599000D01*
X7038000Y-1853000D02*
X7088000Y-1803000D01*
X7038000Y-1753000D01*
X6988000Y-1803000D01*
X7038000Y-1853000D01*
X7038000Y-2107000D02*
X7088000Y-2057000D01*
X7038000Y-2007000D01*
X6988000Y-2057000D01*
X7038000Y-2107000D01*
X7038000Y-2361000D02*
X7088000Y-2311000D01*
X7038000Y-2261000D01*
X6988000Y-2311000D01*
X7038000Y-2361000D01*
X7038000Y-2615000D02*
X7088000Y-2565000D01*
X7038000Y-2515000D01*
X6988000Y-2565000D01*
X7038000Y-2615000D01*
X7038000Y-2869000D02*
X7088000Y-2819000D01*
X7038000Y-2769000D01*
X6988000Y-2819000D01*
X7038000Y-2869000D01*
X7038000Y-3123000D02*
X7088000Y-3073000D01*
X7038000Y-3023000D01*
X6988000Y-3073000D01*
X7038000Y-3123000D01*
X7038000Y-3377000D02*
X7088000Y-3327000D01*
X7038000Y-3277000D01*
X6988000Y-3327000D01*
X7038000Y-3377000D01*
X7038000Y-3631000D02*
X7088000Y-3581000D01*
X7038000Y-3531000D01*
X6988000Y-3581000D01*
X7038000Y-3631000D01*
X8562000Y-329000D02*
X8612000Y-279000D01*
X8562000Y-229000D01*
X8512000Y-279000D01*
X8562000Y-329000D01*
X8562000Y-583000D02*
X8612000Y-533000D01*
X8562000Y-483000D01*
X8512000Y-533000D01*
X8562000Y-583000D01*
X8562000Y-837000D02*
X8612000Y-787000D01*
X8562000Y-737000D01*
X8512000Y-787000D01*
X8562000Y-837000D01*
X8562000Y-1091000D02*
X8612000Y-1041000D01*
X8562000Y-991000D01*
X8512000Y-1041000D01*
X8562000Y-1091000D01*
X8562000Y-1345000D02*
X8612000Y-1295000D01*
X8562000Y-1245000D01*
X8512000Y-1295000D01*
X8562000Y-1345000D01*
X8562000Y-1599000D02*
X8612000Y-1549000D01*
X8562000Y-1499000D01*
X8512000Y-1549000D01*
X8562000Y-1599000D01*
X8562000Y-1853000D02*
X8612000Y-1803000D01*
X8562000Y-1753000D01*
X8512000Y-1803000D01*
X8562000Y-1853000D01*
X8562000Y-2107000D02*
X8612000Y-2057000D01*
X8562000Y-2007000D01*
X8512000Y-2057000D01*
X8562000Y-2107000D01*
X8562000Y-2361000D02*
X8612000Y-2311000D01*
X8562000Y-2261000D01*
X8512000Y-2311000D01*
X8562000Y-2361000D01*
X8562000Y-2615000D02*
X8612000Y-2565000D01*
X8562000Y-2515000D01*
X8512000Y-2565000D01*
X8562000Y-2615000D01*
X8562000Y-2869000D02*
X8612000Y-2819000D01*
X8562000Y-2769000D01*
X8512000Y-2819000D01*
X8562000Y-2869000D01*
X8562000Y-3123000D02*
X8612000Y-3073000D01*
X8562000Y-3023000D01*
X8512000Y-3073000D01*
X8562000Y-3123000D01*
X8562000Y-3377000D02*
X8612000Y-3327000D01*
X8562000Y-3277000D01*
X8512000Y-3327000D01*
X8562000Y-3377000D01*
X8562000Y-3631000D02*
X8612000Y-3581000D01*
X8562000Y-3531000D01*
X8512000Y-3581000D01*
X8562000Y-3631000D01*
X9100000Y-1450000D02*
X9150000Y-1400000D01*
X9100000Y-1350000D01*
X9050000Y-1400000D01*
X9100000Y-1450000D01*
X9354000Y-1450000D02*
X9404000Y-1400000D01*
X9354000Y-1350000D01*
X9304000Y-1400000D01*
X9354000Y-1450000D01*
X9608000Y-1450000D02*
X9658000Y-1400000D01*
X9608000Y-1350000D01*
X9558000Y-1400000D01*
X9608000Y-1450000D01*
X10370000Y-1450000D02*
X10420000Y-1400000D01*
X10370000Y-1350000D01*
X10320000Y-1400000D01*
X10370000Y-1450000D01*
X10624000Y-1450000D02*
X10674000Y-1400000D01*
X10624000Y-1350000D01*
X10574000Y-1400000D01*
X10624000Y-1450000D01*
X10878000Y-1450000D02*
X10928000Y-1400000D01*
X10878000Y-1350000D01*
X10828000Y-1400000D01*
X10878000Y-1450000D01*
D12*
X205000Y-1886000D02*
X355000Y-2036000D01*
X355000Y-1886000D02*
X205000Y-2036000D01*
X355000Y-1961000D02*
G75*
G02*
X205000Y-1961000I-75000J0D01*
G01*
X205000Y-1961000D02*
G75*
G02*
X355000Y-1961000I75000J0D01*
G01*
X205000Y-3029000D02*
X355000Y-3179000D01*
X355000Y-3029000D02*
X205000Y-3179000D01*
X355000Y-3104000D02*
G75*
G02*
X205000Y-3104000I-75000J0D01*
G01*
X205000Y-3104000D02*
G75*
G02*
X355000Y-3104000I75000J0D01*
G01*
X205000Y-4286000D02*
X355000Y-4436000D01*
X355000Y-4286000D02*
X205000Y-4436000D01*
X355000Y-4361000D02*
G75*
G02*
X205000Y-4361000I-75000J0D01*
G01*
X205000Y-4361000D02*
G75*
G02*
X355000Y-4361000I75000J0D01*
G01*
X205000Y-5429000D02*
X355000Y-5579000D01*
X355000Y-5429000D02*
X205000Y-5579000D01*
X355000Y-5504000D02*
G75*
G02*
X205000Y-5504000I-75000J0D01*
G01*
X205000Y-5504000D02*
G75*
G02*
X355000Y-5504000I75000J0D01*
G01*
X840000Y-1886000D02*
X990000Y-2036000D01*
X990000Y-1886000D02*
X840000Y-2036000D01*
X990000Y-1961000D02*
G75*
G02*
X840000Y-1961000I-75000J0D01*
G01*
X840000Y-1961000D02*
G75*
G02*
X990000Y-1961000I75000J0D01*
G01*
X840000Y-3029000D02*
X990000Y-3179000D01*
X990000Y-3029000D02*
X840000Y-3179000D01*
X990000Y-3104000D02*
G75*
G02*
X840000Y-3104000I-75000J0D01*
G01*
X840000Y-3104000D02*
G75*
G02*
X990000Y-3104000I75000J0D01*
G01*
X840000Y-4286000D02*
X990000Y-4436000D01*
X990000Y-4286000D02*
X840000Y-4436000D01*
X990000Y-4361000D02*
G75*
G02*
X840000Y-4361000I-75000J0D01*
G01*
X840000Y-4361000D02*
G75*
G02*
X990000Y-4361000I75000J0D01*
G01*
X840000Y-5429000D02*
X990000Y-5579000D01*
X990000Y-5429000D02*
X840000Y-5579000D01*
X990000Y-5504000D02*
G75*
G02*
X840000Y-5504000I-75000J0D01*
G01*
X840000Y-5504000D02*
G75*
G02*
X990000Y-5504000I75000J0D01*
G01*
X1475000Y-1886000D02*
X1625000Y-2036000D01*
X1625000Y-1886000D02*
X1475000Y-2036000D01*
X1625000Y-1961000D02*
G75*
G02*
X1475000Y-1961000I-75000J0D01*
G01*
X1475000Y-1961000D02*
G75*
G02*
X1625000Y-1961000I75000J0D01*
G01*
X1475000Y-3029000D02*
X1625000Y-3179000D01*
X1625000Y-3029000D02*
X1475000Y-3179000D01*
X1625000Y-3104000D02*
G75*
G02*
X1475000Y-3104000I-75000J0D01*
G01*
X1475000Y-3104000D02*
G75*
G02*
X1625000Y-3104000I75000J0D01*
G01*
X1475000Y-4286000D02*
X1625000Y-4436000D01*
X1625000Y-4286000D02*
X1475000Y-4436000D01*
X1625000Y-4361000D02*
G75*
G02*
X1475000Y-4361000I-75000J0D01*
G01*
X1475000Y-4361000D02*
G75*
G02*
X1625000Y-4361000I75000J0D01*
G01*
X1475000Y-5429000D02*
X1625000Y-5579000D01*
X1625000Y-5429000D02*
X1475000Y-5579000D01*
X1625000Y-5504000D02*
G75*
G02*
X1475000Y-5504000I-75000J0D01*
G01*
X1475000Y-5504000D02*
G75*
G02*
X1625000Y-5504000I75000J0D01*
G01*
X13975000Y-1871000D02*
X14125000Y-2021000D01*
X14125000Y-1871000D02*
X13975000Y-2021000D01*
X14125000Y-1946000D02*
G75*
G02*
X13975000Y-1946000I-75000J0D01*
G01*
X13975000Y-1946000D02*
G75*
G02*
X14125000Y-1946000I75000J0D01*
G01*
X13975000Y-3014000D02*
X14125000Y-3164000D01*
X14125000Y-3014000D02*
X13975000Y-3164000D01*
X14125000Y-3089000D02*
G75*
G02*
X13975000Y-3089000I-75000J0D01*
G01*
X13975000Y-3089000D02*
G75*
G02*
X14125000Y-3089000I75000J0D01*
G01*
X13975000Y-4271000D02*
X14125000Y-4421000D01*
X14125000Y-4271000D02*
X13975000Y-4421000D01*
X14125000Y-4346000D02*
G75*
G02*
X13975000Y-4346000I-75000J0D01*
G01*
X13975000Y-4346000D02*
G75*
G02*
X14125000Y-4346000I75000J0D01*
G01*
X13975000Y-5414000D02*
X14125000Y-5564000D01*
X14125000Y-5414000D02*
X13975000Y-5564000D01*
X14125000Y-5489000D02*
G75*
G02*
X13975000Y-5489000I-75000J0D01*
G01*
X13975000Y-5489000D02*
G75*
G02*
X14125000Y-5489000I75000J0D01*
G01*
X14610000Y-1871000D02*
X14760000Y-2021000D01*
X14760000Y-1871000D02*
X14610000Y-2021000D01*
X14760000Y-1946000D02*
G75*
G02*
X14610000Y-1946000I-75000J0D01*
G01*
X14610000Y-1946000D02*
G75*
G02*
X14760000Y-1946000I75000J0D01*
G01*
X14610000Y-3014000D02*
X14760000Y-3164000D01*
X14760000Y-3014000D02*
X14610000Y-3164000D01*
X14760000Y-3089000D02*
G75*
G02*
X14610000Y-3089000I-75000J0D01*
G01*
X14610000Y-3089000D02*
G75*
G02*
X14760000Y-3089000I75000J0D01*
G01*
X14610000Y-4271000D02*
X14760000Y-4421000D01*
X14760000Y-4271000D02*
X14610000Y-4421000D01*
X14760000Y-4346000D02*
G75*
G02*
X14610000Y-4346000I-75000J0D01*
G01*
X14610000Y-4346000D02*
G75*
G02*
X14760000Y-4346000I75000J0D01*
G01*
X14610000Y-5414000D02*
X14760000Y-5564000D01*
X14760000Y-5414000D02*
X14610000Y-5564000D01*
X14760000Y-5489000D02*
G75*
G02*
X14610000Y-5489000I-75000J0D01*
G01*
X14610000Y-5489000D02*
G75*
G02*
X14760000Y-5489000I75000J0D01*
G01*
X15245000Y-1871000D02*
X15395000Y-2021000D01*
X15395000Y-1871000D02*
X15245000Y-2021000D01*
X15395000Y-1946000D02*
G75*
G02*
X15245000Y-1946000I-75000J0D01*
G01*
X15245000Y-1946000D02*
G75*
G02*
X15395000Y-1946000I75000J0D01*
G01*
X15245000Y-3014000D02*
X15395000Y-3164000D01*
X15395000Y-3014000D02*
X15245000Y-3164000D01*
X15395000Y-3089000D02*
G75*
G02*
X15245000Y-3089000I-75000J0D01*
G01*
X15245000Y-3089000D02*
G75*
G02*
X15395000Y-3089000I75000J0D01*
G01*
X15245000Y-4271000D02*
X15395000Y-4421000D01*
X15395000Y-4271000D02*
X15245000Y-4421000D01*
X15395000Y-4346000D02*
G75*
G02*
X15245000Y-4346000I-75000J0D01*
G01*
X15245000Y-4346000D02*
G75*
G02*
X15395000Y-4346000I75000J0D01*
G01*
X15245000Y-5414000D02*
X15395000Y-5564000D01*
X15395000Y-5414000D02*
X15245000Y-5564000D01*
X15395000Y-5489000D02*
G75*
G02*
X15245000Y-5489000I-75000J0D01*
G01*
X15245000Y-5489000D02*
G75*
G02*
X15395000Y-5489000I75000J0D01*
G01*
D11*
X500000Y-1861000D02*
X700000Y-2061000D01*
X700000Y-1861000D02*
X500000Y-2061000D01*
X600000Y-1861000D02*
X600000Y-2061000D01*
X500000Y-1961000D02*
X700000Y-1961000D01*
X500000Y-3004000D02*
X700000Y-3204000D01*
X700000Y-3004000D02*
X500000Y-3204000D01*
X600000Y-3004000D02*
X600000Y-3204000D01*
X500000Y-3104000D02*
X700000Y-3104000D01*
X500000Y-4261000D02*
X700000Y-4461000D01*
X700000Y-4261000D02*
X500000Y-4461000D01*
X600000Y-4261000D02*
X600000Y-4461000D01*
X500000Y-4361000D02*
X700000Y-4361000D01*
X500000Y-5404000D02*
X700000Y-5604000D01*
X700000Y-5404000D02*
X500000Y-5604000D01*
X600000Y-5404000D02*
X600000Y-5604000D01*
X500000Y-5504000D02*
X700000Y-5504000D01*
X14900000Y-1846000D02*
X15100000Y-2046000D01*
X15100000Y-1846000D02*
X14900000Y-2046000D01*
X15000000Y-1846000D02*
X15000000Y-2046000D01*
X14900000Y-1946000D02*
X15100000Y-1946000D01*
X14900000Y-2989000D02*
X15100000Y-3189000D01*
X15100000Y-2989000D02*
X14900000Y-3189000D01*
X15000000Y-2989000D02*
X15000000Y-3189000D01*
X14900000Y-3089000D02*
X15100000Y-3089000D01*
X14900000Y-4246000D02*
X15100000Y-4446000D01*
X15100000Y-4246000D02*
X14900000Y-4446000D01*
X15000000Y-4246000D02*
X15000000Y-4446000D01*
X14900000Y-4346000D02*
X15100000Y-4346000D01*
X14900000Y-5389000D02*
X15100000Y-5589000D01*
X15100000Y-5389000D02*
X14900000Y-5589000D01*
X15000000Y-5389000D02*
X15000000Y-5589000D01*
X14900000Y-5489000D02*
X15100000Y-5489000D01*
D13*
X1085000Y-2741000D02*
X1385000Y-3041000D01*
X1385000Y-2741000D02*
X1085000Y-3041000D01*
X1341067Y-2997067D02*
X1341067Y-2784933D01*
X1128933Y-2784933D01*
X1128933Y-2997067D01*
X1341067Y-2997067D01*
X1085000Y-5141000D02*
X1385000Y-5441000D01*
X1385000Y-5141000D02*
X1085000Y-5441000D01*
X1341067Y-5397067D02*
X1341067Y-5184933D01*
X1128933Y-5184933D01*
X1128933Y-5397067D01*
X1341067Y-5397067D01*
X14215000Y-2009000D02*
X14515000Y-2309000D01*
X14515000Y-2009000D02*
X14215000Y-2309000D01*
X14471067Y-2265067D02*
X14471067Y-2052933D01*
X14258933Y-2052933D01*
X14258933Y-2265067D01*
X14471067Y-2265067D01*
X14215000Y-4409000D02*
X14515000Y-4709000D01*
X14515000Y-4409000D02*
X14215000Y-4709000D01*
X14471067Y-4665067D02*
X14471067Y-4452933D01*
X14258933Y-4452933D01*
X14258933Y-4665067D01*
X14471067Y-4665067D01*
D11*
X255777Y-7766484D02*
X255777Y-7566484D01*
X255777Y-7566484D02*
X303396Y-7566484D01*
X303396Y-7566484D02*
X331967Y-7576008D01*
X331967Y-7576008D02*
X351015Y-7595055D01*
X351015Y-7595055D02*
X360539Y-7614103D01*
X360539Y-7614103D02*
X370062Y-7652198D01*
X370062Y-7652198D02*
X370062Y-7680769D01*
X370062Y-7680769D02*
X360539Y-7718865D01*
X360539Y-7718865D02*
X351015Y-7737912D01*
X351015Y-7737912D02*
X331967Y-7756960D01*
X331967Y-7756960D02*
X303396Y-7766484D01*
X303396Y-7766484D02*
X255777Y-7766484D01*
X455777Y-7766484D02*
X455777Y-7633150D01*
X455777Y-7671246D02*
X465301Y-7652198D01*
X465301Y-7652198D02*
X474824Y-7642674D01*
X474824Y-7642674D02*
X493872Y-7633150D01*
X493872Y-7633150D02*
X512920Y-7633150D01*
X579586Y-7766484D02*
X579586Y-7633150D01*
X579586Y-7566484D02*
X570063Y-7576008D01*
X570063Y-7576008D02*
X579586Y-7585531D01*
X579586Y-7585531D02*
X589110Y-7576008D01*
X589110Y-7576008D02*
X579586Y-7566484D01*
X579586Y-7566484D02*
X579586Y-7585531D01*
X703396Y-7766484D02*
X684348Y-7756960D01*
X684348Y-7756960D02*
X674824Y-7737912D01*
X674824Y-7737912D02*
X674824Y-7566484D01*
X808158Y-7766484D02*
X789110Y-7756960D01*
X789110Y-7756960D02*
X779586Y-7737912D01*
X779586Y-7737912D02*
X779586Y-7566484D01*
X1036729Y-7766484D02*
X1036729Y-7566484D01*
X1036729Y-7566484D02*
X1103396Y-7709341D01*
X1103396Y-7709341D02*
X1170063Y-7566484D01*
X1170063Y-7566484D02*
X1170063Y-7766484D01*
X1351015Y-7766484D02*
X1351015Y-7661722D01*
X1351015Y-7661722D02*
X1341491Y-7642674D01*
X1341491Y-7642674D02*
X1322444Y-7633150D01*
X1322444Y-7633150D02*
X1284348Y-7633150D01*
X1284348Y-7633150D02*
X1265301Y-7642674D01*
X1351015Y-7756960D02*
X1331967Y-7766484D01*
X1331967Y-7766484D02*
X1284348Y-7766484D01*
X1284348Y-7766484D02*
X1265301Y-7756960D01*
X1265301Y-7756960D02*
X1255777Y-7737912D01*
X1255777Y-7737912D02*
X1255777Y-7718865D01*
X1255777Y-7718865D02*
X1265301Y-7699817D01*
X1265301Y-7699817D02*
X1284348Y-7690293D01*
X1284348Y-7690293D02*
X1331967Y-7690293D01*
X1331967Y-7690293D02*
X1351015Y-7680769D01*
X1446253Y-7633150D02*
X1446253Y-7833150D01*
X1446253Y-7642674D02*
X1465301Y-7633150D01*
X1465301Y-7633150D02*
X1503396Y-7633150D01*
X1503396Y-7633150D02*
X1522443Y-7642674D01*
X1522443Y-7642674D02*
X1531967Y-7652198D01*
X1531967Y-7652198D02*
X1541491Y-7671246D01*
X1541491Y-7671246D02*
X1541491Y-7728388D01*
X1541491Y-7728388D02*
X1531967Y-7747436D01*
X1531967Y-7747436D02*
X1522443Y-7756960D01*
X1522443Y-7756960D02*
X1503396Y-7766484D01*
X1503396Y-7766484D02*
X1465301Y-7766484D01*
X1465301Y-7766484D02*
X1446253Y-7756960D01*
X1627205Y-7747436D02*
X1636729Y-7756960D01*
X1636729Y-7756960D02*
X1627205Y-7766484D01*
X1627205Y-7766484D02*
X1617682Y-7756960D01*
X1617682Y-7756960D02*
X1627205Y-7747436D01*
X1627205Y-7747436D02*
X1627205Y-7766484D01*
X1627205Y-7642674D02*
X1636729Y-7652198D01*
X1636729Y-7652198D02*
X1627205Y-7661722D01*
X1627205Y-7661722D02*
X1617682Y-7652198D01*
X1617682Y-7652198D02*
X1627205Y-7642674D01*
X1627205Y-7642674D02*
X1627205Y-7661722D01*
D10*
X-45000Y-8075000D02*
X-5000Y-8115000D01*
X-5000Y-8075000D02*
X-45000Y-8115000D01*
D11*
X293872Y-7986484D02*
X312920Y-7986484D01*
X312920Y-7986484D02*
X331967Y-7996008D01*
X331967Y-7996008D02*
X341491Y-8005531D01*
X341491Y-8005531D02*
X351015Y-8024579D01*
X351015Y-8024579D02*
X360539Y-8062674D01*
X360539Y-8062674D02*
X360539Y-8110293D01*
X360539Y-8110293D02*
X351015Y-8148388D01*
X351015Y-8148388D02*
X341491Y-8167436D01*
X341491Y-8167436D02*
X331967Y-8176960D01*
X331967Y-8176960D02*
X312920Y-8186484D01*
X312920Y-8186484D02*
X293872Y-8186484D01*
X293872Y-8186484D02*
X274824Y-8176960D01*
X274824Y-8176960D02*
X265301Y-8167436D01*
X265301Y-8167436D02*
X255777Y-8148388D01*
X255777Y-8148388D02*
X246253Y-8110293D01*
X246253Y-8110293D02*
X246253Y-8062674D01*
X246253Y-8062674D02*
X255777Y-8024579D01*
X255777Y-8024579D02*
X265301Y-8005531D01*
X265301Y-8005531D02*
X274824Y-7996008D01*
X274824Y-7996008D02*
X293872Y-7986484D01*
X446253Y-8167436D02*
X455777Y-8176960D01*
X455777Y-8176960D02*
X446253Y-8186484D01*
X446253Y-8186484D02*
X436729Y-8176960D01*
X436729Y-8176960D02*
X446253Y-8167436D01*
X446253Y-8167436D02*
X446253Y-8186484D01*
X627205Y-8053150D02*
X627205Y-8186484D01*
X579586Y-7976960D02*
X531967Y-8119817D01*
X531967Y-8119817D02*
X655777Y-8119817D01*
X770062Y-7986484D02*
X789110Y-7986484D01*
X789110Y-7986484D02*
X808158Y-7996008D01*
X808158Y-7996008D02*
X817682Y-8005531D01*
X817682Y-8005531D02*
X827205Y-8024579D01*
X827205Y-8024579D02*
X836729Y-8062674D01*
X836729Y-8062674D02*
X836729Y-8110293D01*
X836729Y-8110293D02*
X827205Y-8148388D01*
X827205Y-8148388D02*
X817682Y-8167436D01*
X817682Y-8167436D02*
X808158Y-8176960D01*
X808158Y-8176960D02*
X789110Y-8186484D01*
X789110Y-8186484D02*
X770062Y-8186484D01*
X770062Y-8186484D02*
X751015Y-8176960D01*
X751015Y-8176960D02*
X741491Y-8167436D01*
X741491Y-8167436D02*
X731967Y-8148388D01*
X731967Y-8148388D02*
X722443Y-8110293D01*
X722443Y-8110293D02*
X722443Y-8062674D01*
X722443Y-8062674D02*
X731967Y-8024579D01*
X731967Y-8024579D02*
X741491Y-8005531D01*
X741491Y-8005531D02*
X751015Y-7996008D01*
X751015Y-7996008D02*
X770062Y-7986484D01*
X960539Y-7986484D02*
X979586Y-7986484D01*
X979586Y-7986484D02*
X998634Y-7996008D01*
X998634Y-7996008D02*
X1008158Y-8005531D01*
X1008158Y-8005531D02*
X1017682Y-8024579D01*
X1017682Y-8024579D02*
X1027205Y-8062674D01*
X1027205Y-8062674D02*
X1027205Y-8110293D01*
X1027205Y-8110293D02*
X1017682Y-8148388D01*
X1017682Y-8148388D02*
X1008158Y-8167436D01*
X1008158Y-8167436D02*
X998634Y-8176960D01*
X998634Y-8176960D02*
X979586Y-8186484D01*
X979586Y-8186484D02*
X960539Y-8186484D01*
X960539Y-8186484D02*
X941491Y-8176960D01*
X941491Y-8176960D02*
X931967Y-8167436D01*
X931967Y-8167436D02*
X922443Y-8148388D01*
X922443Y-8148388D02*
X912920Y-8110293D01*
X912920Y-8110293D02*
X912920Y-8062674D01*
X912920Y-8062674D02*
X922443Y-8024579D01*
X922443Y-8024579D02*
X931967Y-8005531D01*
X931967Y-8005531D02*
X941491Y-7996008D01*
X941491Y-7996008D02*
X960539Y-7986484D01*
X1112920Y-8186484D02*
X1112920Y-8053150D01*
X1112920Y-8072198D02*
X1122444Y-8062674D01*
X1122444Y-8062674D02*
X1141491Y-8053150D01*
X1141491Y-8053150D02*
X1170063Y-8053150D01*
X1170063Y-8053150D02*
X1189110Y-8062674D01*
X1189110Y-8062674D02*
X1198634Y-8081722D01*
X1198634Y-8081722D02*
X1198634Y-8186484D01*
X1198634Y-8081722D02*
X1208158Y-8062674D01*
X1208158Y-8062674D02*
X1227205Y-8053150D01*
X1227205Y-8053150D02*
X1255777Y-8053150D01*
X1255777Y-8053150D02*
X1274825Y-8062674D01*
X1274825Y-8062674D02*
X1284348Y-8081722D01*
X1284348Y-8081722D02*
X1284348Y-8186484D01*
X1379586Y-8186484D02*
X1379586Y-8053150D01*
X1379586Y-8072198D02*
X1389110Y-8062674D01*
X1389110Y-8062674D02*
X1408158Y-8053150D01*
X1408158Y-8053150D02*
X1436729Y-8053150D01*
X1436729Y-8053150D02*
X1455777Y-8062674D01*
X1455777Y-8062674D02*
X1465301Y-8081722D01*
X1465301Y-8081722D02*
X1465301Y-8186484D01*
X1465301Y-8081722D02*
X1474824Y-8062674D01*
X1474824Y-8062674D02*
X1493872Y-8053150D01*
X1493872Y-8053150D02*
X1522443Y-8053150D01*
X1522443Y-8053150D02*
X1541491Y-8062674D01*
X1541491Y-8062674D02*
X1551015Y-8081722D01*
X1551015Y-8081722D02*
X1551015Y-8186484D01*
X1941491Y-7976960D02*
X1770063Y-8234103D01*
X2198634Y-7986484D02*
X2217682Y-7986484D01*
X2217682Y-7986484D02*
X2236729Y-7996008D01*
X2236729Y-7996008D02*
X2246253Y-8005531D01*
X2246253Y-8005531D02*
X2255777Y-8024579D01*
X2255777Y-8024579D02*
X2265301Y-8062674D01*
X2265301Y-8062674D02*
X2265301Y-8110293D01*
X2265301Y-8110293D02*
X2255777Y-8148388D01*
X2255777Y-8148388D02*
X2246253Y-8167436D01*
X2246253Y-8167436D02*
X2236729Y-8176960D01*
X2236729Y-8176960D02*
X2217682Y-8186484D01*
X2217682Y-8186484D02*
X2198634Y-8186484D01*
X2198634Y-8186484D02*
X2179587Y-8176960D01*
X2179587Y-8176960D02*
X2170063Y-8167436D01*
X2170063Y-8167436D02*
X2160539Y-8148388D01*
X2160539Y-8148388D02*
X2151015Y-8110293D01*
X2151015Y-8110293D02*
X2151015Y-8062674D01*
X2151015Y-8062674D02*
X2160539Y-8024579D01*
X2160539Y-8024579D02*
X2170063Y-8005531D01*
X2170063Y-8005531D02*
X2179587Y-7996008D01*
X2179587Y-7996008D02*
X2198634Y-7986484D01*
X2351015Y-8167436D02*
X2360539Y-8176960D01*
X2360539Y-8176960D02*
X2351015Y-8186484D01*
X2351015Y-8186484D02*
X2341491Y-8176960D01*
X2341491Y-8176960D02*
X2351015Y-8167436D01*
X2351015Y-8167436D02*
X2351015Y-8186484D01*
X2484348Y-7986484D02*
X2503396Y-7986484D01*
X2503396Y-7986484D02*
X2522444Y-7996008D01*
X2522444Y-7996008D02*
X2531968Y-8005531D01*
X2531968Y-8005531D02*
X2541491Y-8024579D01*
X2541491Y-8024579D02*
X2551015Y-8062674D01*
X2551015Y-8062674D02*
X2551015Y-8110293D01*
X2551015Y-8110293D02*
X2541491Y-8148388D01*
X2541491Y-8148388D02*
X2531968Y-8167436D01*
X2531968Y-8167436D02*
X2522444Y-8176960D01*
X2522444Y-8176960D02*
X2503396Y-8186484D01*
X2503396Y-8186484D02*
X2484348Y-8186484D01*
X2484348Y-8186484D02*
X2465301Y-8176960D01*
X2465301Y-8176960D02*
X2455777Y-8167436D01*
X2455777Y-8167436D02*
X2446253Y-8148388D01*
X2446253Y-8148388D02*
X2436729Y-8110293D01*
X2436729Y-8110293D02*
X2436729Y-8062674D01*
X2436729Y-8062674D02*
X2446253Y-8024579D01*
X2446253Y-8024579D02*
X2455777Y-8005531D01*
X2455777Y-8005531D02*
X2465301Y-7996008D01*
X2465301Y-7996008D02*
X2484348Y-7986484D01*
X2741491Y-8186484D02*
X2627206Y-8186484D01*
X2684348Y-8186484D02*
X2684348Y-7986484D01*
X2684348Y-7986484D02*
X2665301Y-8015055D01*
X2665301Y-8015055D02*
X2646253Y-8034103D01*
X2646253Y-8034103D02*
X2627206Y-8043627D01*
X2922444Y-7986484D02*
X2827206Y-7986484D01*
X2827206Y-7986484D02*
X2817682Y-8081722D01*
X2817682Y-8081722D02*
X2827206Y-8072198D01*
X2827206Y-8072198D02*
X2846253Y-8062674D01*
X2846253Y-8062674D02*
X2893872Y-8062674D01*
X2893872Y-8062674D02*
X2912920Y-8072198D01*
X2912920Y-8072198D02*
X2922444Y-8081722D01*
X2922444Y-8081722D02*
X2931967Y-8100769D01*
X2931967Y-8100769D02*
X2931967Y-8148388D01*
X2931967Y-8148388D02*
X2922444Y-8167436D01*
X2922444Y-8167436D02*
X2912920Y-8176960D01*
X2912920Y-8176960D02*
X2893872Y-8186484D01*
X2893872Y-8186484D02*
X2846253Y-8186484D01*
X2846253Y-8186484D02*
X2827206Y-8176960D01*
X2827206Y-8176960D02*
X2817682Y-8167436D01*
X2998634Y-7986484D02*
X3131967Y-7986484D01*
X3131967Y-7986484D02*
X3046253Y-8186484D01*
X3198634Y-7986484D02*
X3198634Y-8024579D01*
X3274825Y-7986484D02*
X3274825Y-8024579D01*
X3570063Y-8262674D02*
X3560539Y-8253150D01*
X3560539Y-8253150D02*
X3541491Y-8224579D01*
X3541491Y-8224579D02*
X3531968Y-8205531D01*
X3531968Y-8205531D02*
X3522444Y-8176960D01*
X3522444Y-8176960D02*
X3512920Y-8129341D01*
X3512920Y-8129341D02*
X3512920Y-8091246D01*
X3512920Y-8091246D02*
X3522444Y-8043627D01*
X3522444Y-8043627D02*
X3531968Y-8015055D01*
X3531968Y-8015055D02*
X3541491Y-7996008D01*
X3541491Y-7996008D02*
X3560539Y-7967436D01*
X3560539Y-7967436D02*
X3570063Y-7957912D01*
X3731968Y-8053150D02*
X3731968Y-8186484D01*
X3684348Y-7976960D02*
X3636729Y-8119817D01*
X3636729Y-8119817D02*
X3760539Y-8119817D01*
X3989110Y-8186484D02*
X3989110Y-7986484D01*
X4074825Y-8186484D02*
X4074825Y-8081722D01*
X4074825Y-8081722D02*
X4065301Y-8062674D01*
X4065301Y-8062674D02*
X4046253Y-8053150D01*
X4046253Y-8053150D02*
X4017682Y-8053150D01*
X4017682Y-8053150D02*
X3998634Y-8062674D01*
X3998634Y-8062674D02*
X3989110Y-8072198D01*
X4198634Y-8186484D02*
X4179587Y-8176960D01*
X4179587Y-8176960D02*
X4170063Y-8167436D01*
X4170063Y-8167436D02*
X4160539Y-8148388D01*
X4160539Y-8148388D02*
X4160539Y-8091246D01*
X4160539Y-8091246D02*
X4170063Y-8072198D01*
X4170063Y-8072198D02*
X4179587Y-8062674D01*
X4179587Y-8062674D02*
X4198634Y-8053150D01*
X4198634Y-8053150D02*
X4227206Y-8053150D01*
X4227206Y-8053150D02*
X4246253Y-8062674D01*
X4246253Y-8062674D02*
X4255777Y-8072198D01*
X4255777Y-8072198D02*
X4265301Y-8091246D01*
X4265301Y-8091246D02*
X4265301Y-8148388D01*
X4265301Y-8148388D02*
X4255777Y-8167436D01*
X4255777Y-8167436D02*
X4246253Y-8176960D01*
X4246253Y-8176960D02*
X4227206Y-8186484D01*
X4227206Y-8186484D02*
X4198634Y-8186484D01*
X4379587Y-8186484D02*
X4360539Y-8176960D01*
X4360539Y-8176960D02*
X4351015Y-8157912D01*
X4351015Y-8157912D02*
X4351015Y-7986484D01*
X4531968Y-8176960D02*
X4512920Y-8186484D01*
X4512920Y-8186484D02*
X4474825Y-8186484D01*
X4474825Y-8186484D02*
X4455777Y-8176960D01*
X4455777Y-8176960D02*
X4446253Y-8157912D01*
X4446253Y-8157912D02*
X4446253Y-8081722D01*
X4446253Y-8081722D02*
X4455777Y-8062674D01*
X4455777Y-8062674D02*
X4474825Y-8053150D01*
X4474825Y-8053150D02*
X4512920Y-8053150D01*
X4512920Y-8053150D02*
X4531968Y-8062674D01*
X4531968Y-8062674D02*
X4541492Y-8081722D01*
X4541492Y-8081722D02*
X4541492Y-8100769D01*
X4541492Y-8100769D02*
X4446253Y-8119817D01*
X4617682Y-8176960D02*
X4636730Y-8186484D01*
X4636730Y-8186484D02*
X4674825Y-8186484D01*
X4674825Y-8186484D02*
X4693873Y-8176960D01*
X4693873Y-8176960D02*
X4703396Y-8157912D01*
X4703396Y-8157912D02*
X4703396Y-8148388D01*
X4703396Y-8148388D02*
X4693873Y-8129341D01*
X4693873Y-8129341D02*
X4674825Y-8119817D01*
X4674825Y-8119817D02*
X4646253Y-8119817D01*
X4646253Y-8119817D02*
X4627206Y-8110293D01*
X4627206Y-8110293D02*
X4617682Y-8091246D01*
X4617682Y-8091246D02*
X4617682Y-8081722D01*
X4617682Y-8081722D02*
X4627206Y-8062674D01*
X4627206Y-8062674D02*
X4646253Y-8053150D01*
X4646253Y-8053150D02*
X4674825Y-8053150D01*
X4674825Y-8053150D02*
X4693873Y-8062674D01*
X4770063Y-8262674D02*
X4779587Y-8253150D01*
X4779587Y-8253150D02*
X4798634Y-8224579D01*
X4798634Y-8224579D02*
X4808158Y-8205531D01*
X4808158Y-8205531D02*
X4817682Y-8176960D01*
X4817682Y-8176960D02*
X4827206Y-8129341D01*
X4827206Y-8129341D02*
X4827206Y-8091246D01*
X4827206Y-8091246D02*
X4817682Y-8043627D01*
X4817682Y-8043627D02*
X4808158Y-8015055D01*
X4808158Y-8015055D02*
X4798634Y-7996008D01*
X4798634Y-7996008D02*
X4779587Y-7967436D01*
X4779587Y-7967436D02*
X4770063Y-7957912D01*
D10*
X-5000Y-8359000D02*
G75*
G02*
X-55000Y-8359000I-25000J0D01*
G01*
X-55000Y-8359000D02*
G75*
G02*
X-5000Y-8359000I25000J0D01*
G01*
D11*
X293872Y-8250484D02*
X312920Y-8250484D01*
X312920Y-8250484D02*
X331967Y-8260008D01*
X331967Y-8260008D02*
X341491Y-8269531D01*
X341491Y-8269531D02*
X351015Y-8288579D01*
X351015Y-8288579D02*
X360539Y-8326674D01*
X360539Y-8326674D02*
X360539Y-8374293D01*
X360539Y-8374293D02*
X351015Y-8412389D01*
X351015Y-8412389D02*
X341491Y-8431436D01*
X341491Y-8431436D02*
X331967Y-8440960D01*
X331967Y-8440960D02*
X312920Y-8450484D01*
X312920Y-8450484D02*
X293872Y-8450484D01*
X293872Y-8450484D02*
X274824Y-8440960D01*
X274824Y-8440960D02*
X265301Y-8431436D01*
X265301Y-8431436D02*
X255777Y-8412389D01*
X255777Y-8412389D02*
X246253Y-8374293D01*
X246253Y-8374293D02*
X246253Y-8326674D01*
X246253Y-8326674D02*
X255777Y-8288579D01*
X255777Y-8288579D02*
X265301Y-8269531D01*
X265301Y-8269531D02*
X274824Y-8260008D01*
X274824Y-8260008D02*
X293872Y-8250484D01*
X446253Y-8431436D02*
X455777Y-8440960D01*
X455777Y-8440960D02*
X446253Y-8450484D01*
X446253Y-8450484D02*
X436729Y-8440960D01*
X436729Y-8440960D02*
X446253Y-8431436D01*
X446253Y-8431436D02*
X446253Y-8450484D01*
X636729Y-8250484D02*
X541491Y-8250484D01*
X541491Y-8250484D02*
X531967Y-8345722D01*
X531967Y-8345722D02*
X541491Y-8336198D01*
X541491Y-8336198D02*
X560539Y-8326674D01*
X560539Y-8326674D02*
X608158Y-8326674D01*
X608158Y-8326674D02*
X627205Y-8336198D01*
X627205Y-8336198D02*
X636729Y-8345722D01*
X636729Y-8345722D02*
X646253Y-8364769D01*
X646253Y-8364769D02*
X646253Y-8412389D01*
X646253Y-8412389D02*
X636729Y-8431436D01*
X636729Y-8431436D02*
X627205Y-8440960D01*
X627205Y-8440960D02*
X608158Y-8450484D01*
X608158Y-8450484D02*
X560539Y-8450484D01*
X560539Y-8450484D02*
X541491Y-8440960D01*
X541491Y-8440960D02*
X531967Y-8431436D01*
X770062Y-8250484D02*
X789110Y-8250484D01*
X789110Y-8250484D02*
X808158Y-8260008D01*
X808158Y-8260008D02*
X817682Y-8269531D01*
X817682Y-8269531D02*
X827205Y-8288579D01*
X827205Y-8288579D02*
X836729Y-8326674D01*
X836729Y-8326674D02*
X836729Y-8374293D01*
X836729Y-8374293D02*
X827205Y-8412389D01*
X827205Y-8412389D02*
X817682Y-8431436D01*
X817682Y-8431436D02*
X808158Y-8440960D01*
X808158Y-8440960D02*
X789110Y-8450484D01*
X789110Y-8450484D02*
X770062Y-8450484D01*
X770062Y-8450484D02*
X751015Y-8440960D01*
X751015Y-8440960D02*
X741491Y-8431436D01*
X741491Y-8431436D02*
X731967Y-8412389D01*
X731967Y-8412389D02*
X722443Y-8374293D01*
X722443Y-8374293D02*
X722443Y-8326674D01*
X722443Y-8326674D02*
X731967Y-8288579D01*
X731967Y-8288579D02*
X741491Y-8269531D01*
X741491Y-8269531D02*
X751015Y-8260008D01*
X751015Y-8260008D02*
X770062Y-8250484D01*
X960539Y-8250484D02*
X979586Y-8250484D01*
X979586Y-8250484D02*
X998634Y-8260008D01*
X998634Y-8260008D02*
X1008158Y-8269531D01*
X1008158Y-8269531D02*
X1017682Y-8288579D01*
X1017682Y-8288579D02*
X1027205Y-8326674D01*
X1027205Y-8326674D02*
X1027205Y-8374293D01*
X1027205Y-8374293D02*
X1017682Y-8412389D01*
X1017682Y-8412389D02*
X1008158Y-8431436D01*
X1008158Y-8431436D02*
X998634Y-8440960D01*
X998634Y-8440960D02*
X979586Y-8450484D01*
X979586Y-8450484D02*
X960539Y-8450484D01*
X960539Y-8450484D02*
X941491Y-8440960D01*
X941491Y-8440960D02*
X931967Y-8431436D01*
X931967Y-8431436D02*
X922443Y-8412389D01*
X922443Y-8412389D02*
X912920Y-8374293D01*
X912920Y-8374293D02*
X912920Y-8326674D01*
X912920Y-8326674D02*
X922443Y-8288579D01*
X922443Y-8288579D02*
X931967Y-8269531D01*
X931967Y-8269531D02*
X941491Y-8260008D01*
X941491Y-8260008D02*
X960539Y-8250484D01*
X1112920Y-8450484D02*
X1112920Y-8317150D01*
X1112920Y-8336198D02*
X1122444Y-8326674D01*
X1122444Y-8326674D02*
X1141491Y-8317150D01*
X1141491Y-8317150D02*
X1170063Y-8317150D01*
X1170063Y-8317150D02*
X1189110Y-8326674D01*
X1189110Y-8326674D02*
X1198634Y-8345722D01*
X1198634Y-8345722D02*
X1198634Y-8450484D01*
X1198634Y-8345722D02*
X1208158Y-8326674D01*
X1208158Y-8326674D02*
X1227205Y-8317150D01*
X1227205Y-8317150D02*
X1255777Y-8317150D01*
X1255777Y-8317150D02*
X1274825Y-8326674D01*
X1274825Y-8326674D02*
X1284348Y-8345722D01*
X1284348Y-8345722D02*
X1284348Y-8450484D01*
X1379586Y-8450484D02*
X1379586Y-8317150D01*
X1379586Y-8336198D02*
X1389110Y-8326674D01*
X1389110Y-8326674D02*
X1408158Y-8317150D01*
X1408158Y-8317150D02*
X1436729Y-8317150D01*
X1436729Y-8317150D02*
X1455777Y-8326674D01*
X1455777Y-8326674D02*
X1465301Y-8345722D01*
X1465301Y-8345722D02*
X1465301Y-8450484D01*
X1465301Y-8345722D02*
X1474824Y-8326674D01*
X1474824Y-8326674D02*
X1493872Y-8317150D01*
X1493872Y-8317150D02*
X1522443Y-8317150D01*
X1522443Y-8317150D02*
X1541491Y-8326674D01*
X1541491Y-8326674D02*
X1551015Y-8345722D01*
X1551015Y-8345722D02*
X1551015Y-8450484D01*
X1941491Y-8240960D02*
X1770063Y-8498103D01*
X2198634Y-8250484D02*
X2217682Y-8250484D01*
X2217682Y-8250484D02*
X2236729Y-8260008D01*
X2236729Y-8260008D02*
X2246253Y-8269531D01*
X2246253Y-8269531D02*
X2255777Y-8288579D01*
X2255777Y-8288579D02*
X2265301Y-8326674D01*
X2265301Y-8326674D02*
X2265301Y-8374293D01*
X2265301Y-8374293D02*
X2255777Y-8412389D01*
X2255777Y-8412389D02*
X2246253Y-8431436D01*
X2246253Y-8431436D02*
X2236729Y-8440960D01*
X2236729Y-8440960D02*
X2217682Y-8450484D01*
X2217682Y-8450484D02*
X2198634Y-8450484D01*
X2198634Y-8450484D02*
X2179587Y-8440960D01*
X2179587Y-8440960D02*
X2170063Y-8431436D01*
X2170063Y-8431436D02*
X2160539Y-8412389D01*
X2160539Y-8412389D02*
X2151015Y-8374293D01*
X2151015Y-8374293D02*
X2151015Y-8326674D01*
X2151015Y-8326674D02*
X2160539Y-8288579D01*
X2160539Y-8288579D02*
X2170063Y-8269531D01*
X2170063Y-8269531D02*
X2179587Y-8260008D01*
X2179587Y-8260008D02*
X2198634Y-8250484D01*
X2351015Y-8431436D02*
X2360539Y-8440960D01*
X2360539Y-8440960D02*
X2351015Y-8450484D01*
X2351015Y-8450484D02*
X2341491Y-8440960D01*
X2341491Y-8440960D02*
X2351015Y-8431436D01*
X2351015Y-8431436D02*
X2351015Y-8450484D01*
X2484348Y-8250484D02*
X2503396Y-8250484D01*
X2503396Y-8250484D02*
X2522444Y-8260008D01*
X2522444Y-8260008D02*
X2531968Y-8269531D01*
X2531968Y-8269531D02*
X2541491Y-8288579D01*
X2541491Y-8288579D02*
X2551015Y-8326674D01*
X2551015Y-8326674D02*
X2551015Y-8374293D01*
X2551015Y-8374293D02*
X2541491Y-8412389D01*
X2541491Y-8412389D02*
X2531968Y-8431436D01*
X2531968Y-8431436D02*
X2522444Y-8440960D01*
X2522444Y-8440960D02*
X2503396Y-8450484D01*
X2503396Y-8450484D02*
X2484348Y-8450484D01*
X2484348Y-8450484D02*
X2465301Y-8440960D01*
X2465301Y-8440960D02*
X2455777Y-8431436D01*
X2455777Y-8431436D02*
X2446253Y-8412389D01*
X2446253Y-8412389D02*
X2436729Y-8374293D01*
X2436729Y-8374293D02*
X2436729Y-8326674D01*
X2436729Y-8326674D02*
X2446253Y-8288579D01*
X2446253Y-8288579D02*
X2455777Y-8269531D01*
X2455777Y-8269531D02*
X2465301Y-8260008D01*
X2465301Y-8260008D02*
X2484348Y-8250484D01*
X2741491Y-8450484D02*
X2627206Y-8450484D01*
X2684348Y-8450484D02*
X2684348Y-8250484D01*
X2684348Y-8250484D02*
X2665301Y-8279055D01*
X2665301Y-8279055D02*
X2646253Y-8298103D01*
X2646253Y-8298103D02*
X2627206Y-8307627D01*
X2836729Y-8450484D02*
X2874825Y-8450484D01*
X2874825Y-8450484D02*
X2893872Y-8440960D01*
X2893872Y-8440960D02*
X2903396Y-8431436D01*
X2903396Y-8431436D02*
X2922444Y-8402865D01*
X2922444Y-8402865D02*
X2931967Y-8364769D01*
X2931967Y-8364769D02*
X2931967Y-8288579D01*
X2931967Y-8288579D02*
X2922444Y-8269531D01*
X2922444Y-8269531D02*
X2912920Y-8260008D01*
X2912920Y-8260008D02*
X2893872Y-8250484D01*
X2893872Y-8250484D02*
X2855777Y-8250484D01*
X2855777Y-8250484D02*
X2836729Y-8260008D01*
X2836729Y-8260008D02*
X2827206Y-8269531D01*
X2827206Y-8269531D02*
X2817682Y-8288579D01*
X2817682Y-8288579D02*
X2817682Y-8336198D01*
X2817682Y-8336198D02*
X2827206Y-8355246D01*
X2827206Y-8355246D02*
X2836729Y-8364769D01*
X2836729Y-8364769D02*
X2855777Y-8374293D01*
X2855777Y-8374293D02*
X2893872Y-8374293D01*
X2893872Y-8374293D02*
X2912920Y-8364769D01*
X2912920Y-8364769D02*
X2922444Y-8355246D01*
X2922444Y-8355246D02*
X2931967Y-8336198D01*
X2998634Y-8250484D02*
X3131967Y-8250484D01*
X3131967Y-8250484D02*
X3046253Y-8450484D01*
X3198634Y-8250484D02*
X3198634Y-8288579D01*
X3274825Y-8250484D02*
X3274825Y-8288579D01*
X3570063Y-8526674D02*
X3560539Y-8517150D01*
X3560539Y-8517150D02*
X3541491Y-8488579D01*
X3541491Y-8488579D02*
X3531968Y-8469531D01*
X3531968Y-8469531D02*
X3522444Y-8440960D01*
X3522444Y-8440960D02*
X3512920Y-8393341D01*
X3512920Y-8393341D02*
X3512920Y-8355246D01*
X3512920Y-8355246D02*
X3522444Y-8307627D01*
X3522444Y-8307627D02*
X3531968Y-8279055D01*
X3531968Y-8279055D02*
X3541491Y-8260008D01*
X3541491Y-8260008D02*
X3560539Y-8231436D01*
X3560539Y-8231436D02*
X3570063Y-8221912D01*
X3751015Y-8450484D02*
X3636729Y-8450484D01*
X3693872Y-8450484D02*
X3693872Y-8250484D01*
X3693872Y-8250484D02*
X3674825Y-8279055D01*
X3674825Y-8279055D02*
X3655777Y-8298103D01*
X3655777Y-8298103D02*
X3636729Y-8307627D01*
X3989110Y-8450484D02*
X3989110Y-8250484D01*
X4074825Y-8450484D02*
X4074825Y-8345722D01*
X4074825Y-8345722D02*
X4065301Y-8326674D01*
X4065301Y-8326674D02*
X4046253Y-8317150D01*
X4046253Y-8317150D02*
X4017682Y-8317150D01*
X4017682Y-8317150D02*
X3998634Y-8326674D01*
X3998634Y-8326674D02*
X3989110Y-8336198D01*
X4198634Y-8450484D02*
X4179587Y-8440960D01*
X4179587Y-8440960D02*
X4170063Y-8431436D01*
X4170063Y-8431436D02*
X4160539Y-8412389D01*
X4160539Y-8412389D02*
X4160539Y-8355246D01*
X4160539Y-8355246D02*
X4170063Y-8336198D01*
X4170063Y-8336198D02*
X4179587Y-8326674D01*
X4179587Y-8326674D02*
X4198634Y-8317150D01*
X4198634Y-8317150D02*
X4227206Y-8317150D01*
X4227206Y-8317150D02*
X4246253Y-8326674D01*
X4246253Y-8326674D02*
X4255777Y-8336198D01*
X4255777Y-8336198D02*
X4265301Y-8355246D01*
X4265301Y-8355246D02*
X4265301Y-8412389D01*
X4265301Y-8412389D02*
X4255777Y-8431436D01*
X4255777Y-8431436D02*
X4246253Y-8440960D01*
X4246253Y-8440960D02*
X4227206Y-8450484D01*
X4227206Y-8450484D02*
X4198634Y-8450484D01*
X4379587Y-8450484D02*
X4360539Y-8440960D01*
X4360539Y-8440960D02*
X4351015Y-8421912D01*
X4351015Y-8421912D02*
X4351015Y-8250484D01*
X4531968Y-8440960D02*
X4512920Y-8450484D01*
X4512920Y-8450484D02*
X4474825Y-8450484D01*
X4474825Y-8450484D02*
X4455777Y-8440960D01*
X4455777Y-8440960D02*
X4446253Y-8421912D01*
X4446253Y-8421912D02*
X4446253Y-8345722D01*
X4446253Y-8345722D02*
X4455777Y-8326674D01*
X4455777Y-8326674D02*
X4474825Y-8317150D01*
X4474825Y-8317150D02*
X4512920Y-8317150D01*
X4512920Y-8317150D02*
X4531968Y-8326674D01*
X4531968Y-8326674D02*
X4541492Y-8345722D01*
X4541492Y-8345722D02*
X4541492Y-8364769D01*
X4541492Y-8364769D02*
X4446253Y-8383817D01*
X4608158Y-8526674D02*
X4617682Y-8517150D01*
X4617682Y-8517150D02*
X4636730Y-8488579D01*
X4636730Y-8488579D02*
X4646253Y-8469531D01*
X4646253Y-8469531D02*
X4655777Y-8440960D01*
X4655777Y-8440960D02*
X4665301Y-8393341D01*
X4665301Y-8393341D02*
X4665301Y-8355246D01*
X4665301Y-8355246D02*
X4655777Y-8307627D01*
X4655777Y-8307627D02*
X4646253Y-8279055D01*
X4646253Y-8279055D02*
X4636730Y-8260008D01*
X4636730Y-8260008D02*
X4617682Y-8231436D01*
X4617682Y-8231436D02*
X4608158Y-8221912D01*
D10*
X-45000Y-8583000D02*
X-45000Y-8663000D01*
X-85000Y-8623000D02*
X-5000Y-8623000D01*
D11*
X293872Y-8514484D02*
X312920Y-8514484D01*
X312920Y-8514484D02*
X331967Y-8524008D01*
X331967Y-8524008D02*
X341491Y-8533531D01*
X341491Y-8533531D02*
X351015Y-8552579D01*
X351015Y-8552579D02*
X360539Y-8590674D01*
X360539Y-8590674D02*
X360539Y-8638293D01*
X360539Y-8638293D02*
X351015Y-8676389D01*
X351015Y-8676389D02*
X341491Y-8695436D01*
X341491Y-8695436D02*
X331967Y-8704960D01*
X331967Y-8704960D02*
X312920Y-8714484D01*
X312920Y-8714484D02*
X293872Y-8714484D01*
X293872Y-8714484D02*
X274824Y-8704960D01*
X274824Y-8704960D02*
X265301Y-8695436D01*
X265301Y-8695436D02*
X255777Y-8676389D01*
X255777Y-8676389D02*
X246253Y-8638293D01*
X246253Y-8638293D02*
X246253Y-8590674D01*
X246253Y-8590674D02*
X255777Y-8552579D01*
X255777Y-8552579D02*
X265301Y-8533531D01*
X265301Y-8533531D02*
X274824Y-8524008D01*
X274824Y-8524008D02*
X293872Y-8514484D01*
X446253Y-8695436D02*
X455777Y-8704960D01*
X455777Y-8704960D02*
X446253Y-8714484D01*
X446253Y-8714484D02*
X436729Y-8704960D01*
X436729Y-8704960D02*
X446253Y-8695436D01*
X446253Y-8695436D02*
X446253Y-8714484D01*
X570063Y-8600198D02*
X551015Y-8590674D01*
X551015Y-8590674D02*
X541491Y-8581150D01*
X541491Y-8581150D02*
X531967Y-8562103D01*
X531967Y-8562103D02*
X531967Y-8552579D01*
X531967Y-8552579D02*
X541491Y-8533531D01*
X541491Y-8533531D02*
X551015Y-8524008D01*
X551015Y-8524008D02*
X570063Y-8514484D01*
X570063Y-8514484D02*
X608158Y-8514484D01*
X608158Y-8514484D02*
X627205Y-8524008D01*
X627205Y-8524008D02*
X636729Y-8533531D01*
X636729Y-8533531D02*
X646253Y-8552579D01*
X646253Y-8552579D02*
X646253Y-8562103D01*
X646253Y-8562103D02*
X636729Y-8581150D01*
X636729Y-8581150D02*
X627205Y-8590674D01*
X627205Y-8590674D02*
X608158Y-8600198D01*
X608158Y-8600198D02*
X570063Y-8600198D01*
X570063Y-8600198D02*
X551015Y-8609722D01*
X551015Y-8609722D02*
X541491Y-8619246D01*
X541491Y-8619246D02*
X531967Y-8638293D01*
X531967Y-8638293D02*
X531967Y-8676389D01*
X531967Y-8676389D02*
X541491Y-8695436D01*
X541491Y-8695436D02*
X551015Y-8704960D01*
X551015Y-8704960D02*
X570063Y-8714484D01*
X570063Y-8714484D02*
X608158Y-8714484D01*
X608158Y-8714484D02*
X627205Y-8704960D01*
X627205Y-8704960D02*
X636729Y-8695436D01*
X636729Y-8695436D02*
X646253Y-8676389D01*
X646253Y-8676389D02*
X646253Y-8638293D01*
X646253Y-8638293D02*
X636729Y-8619246D01*
X636729Y-8619246D02*
X627205Y-8609722D01*
X627205Y-8609722D02*
X608158Y-8600198D01*
X770062Y-8514484D02*
X789110Y-8514484D01*
X789110Y-8514484D02*
X808158Y-8524008D01*
X808158Y-8524008D02*
X817682Y-8533531D01*
X817682Y-8533531D02*
X827205Y-8552579D01*
X827205Y-8552579D02*
X836729Y-8590674D01*
X836729Y-8590674D02*
X836729Y-8638293D01*
X836729Y-8638293D02*
X827205Y-8676389D01*
X827205Y-8676389D02*
X817682Y-8695436D01*
X817682Y-8695436D02*
X808158Y-8704960D01*
X808158Y-8704960D02*
X789110Y-8714484D01*
X789110Y-8714484D02*
X770062Y-8714484D01*
X770062Y-8714484D02*
X751015Y-8704960D01*
X751015Y-8704960D02*
X741491Y-8695436D01*
X741491Y-8695436D02*
X731967Y-8676389D01*
X731967Y-8676389D02*
X722443Y-8638293D01*
X722443Y-8638293D02*
X722443Y-8590674D01*
X722443Y-8590674D02*
X731967Y-8552579D01*
X731967Y-8552579D02*
X741491Y-8533531D01*
X741491Y-8533531D02*
X751015Y-8524008D01*
X751015Y-8524008D02*
X770062Y-8514484D01*
X960539Y-8514484D02*
X979586Y-8514484D01*
X979586Y-8514484D02*
X998634Y-8524008D01*
X998634Y-8524008D02*
X1008158Y-8533531D01*
X1008158Y-8533531D02*
X1017682Y-8552579D01*
X1017682Y-8552579D02*
X1027205Y-8590674D01*
X1027205Y-8590674D02*
X1027205Y-8638293D01*
X1027205Y-8638293D02*
X1017682Y-8676389D01*
X1017682Y-8676389D02*
X1008158Y-8695436D01*
X1008158Y-8695436D02*
X998634Y-8704960D01*
X998634Y-8704960D02*
X979586Y-8714484D01*
X979586Y-8714484D02*
X960539Y-8714484D01*
X960539Y-8714484D02*
X941491Y-8704960D01*
X941491Y-8704960D02*
X931967Y-8695436D01*
X931967Y-8695436D02*
X922443Y-8676389D01*
X922443Y-8676389D02*
X912920Y-8638293D01*
X912920Y-8638293D02*
X912920Y-8590674D01*
X912920Y-8590674D02*
X922443Y-8552579D01*
X922443Y-8552579D02*
X931967Y-8533531D01*
X931967Y-8533531D02*
X941491Y-8524008D01*
X941491Y-8524008D02*
X960539Y-8514484D01*
X1112920Y-8714484D02*
X1112920Y-8581150D01*
X1112920Y-8600198D02*
X1122444Y-8590674D01*
X1122444Y-8590674D02*
X1141491Y-8581150D01*
X1141491Y-8581150D02*
X1170063Y-8581150D01*
X1170063Y-8581150D02*
X1189110Y-8590674D01*
X1189110Y-8590674D02*
X1198634Y-8609722D01*
X1198634Y-8609722D02*
X1198634Y-8714484D01*
X1198634Y-8609722D02*
X1208158Y-8590674D01*
X1208158Y-8590674D02*
X1227205Y-8581150D01*
X1227205Y-8581150D02*
X1255777Y-8581150D01*
X1255777Y-8581150D02*
X1274825Y-8590674D01*
X1274825Y-8590674D02*
X1284348Y-8609722D01*
X1284348Y-8609722D02*
X1284348Y-8714484D01*
X1379586Y-8714484D02*
X1379586Y-8581150D01*
X1379586Y-8600198D02*
X1389110Y-8590674D01*
X1389110Y-8590674D02*
X1408158Y-8581150D01*
X1408158Y-8581150D02*
X1436729Y-8581150D01*
X1436729Y-8581150D02*
X1455777Y-8590674D01*
X1455777Y-8590674D02*
X1465301Y-8609722D01*
X1465301Y-8609722D02*
X1465301Y-8714484D01*
X1465301Y-8609722D02*
X1474824Y-8590674D01*
X1474824Y-8590674D02*
X1493872Y-8581150D01*
X1493872Y-8581150D02*
X1522443Y-8581150D01*
X1522443Y-8581150D02*
X1541491Y-8590674D01*
X1541491Y-8590674D02*
X1551015Y-8609722D01*
X1551015Y-8609722D02*
X1551015Y-8714484D01*
X1941491Y-8504960D02*
X1770063Y-8762103D01*
X2198634Y-8514484D02*
X2217682Y-8514484D01*
X2217682Y-8514484D02*
X2236729Y-8524008D01*
X2236729Y-8524008D02*
X2246253Y-8533531D01*
X2246253Y-8533531D02*
X2255777Y-8552579D01*
X2255777Y-8552579D02*
X2265301Y-8590674D01*
X2265301Y-8590674D02*
X2265301Y-8638293D01*
X2265301Y-8638293D02*
X2255777Y-8676389D01*
X2255777Y-8676389D02*
X2246253Y-8695436D01*
X2246253Y-8695436D02*
X2236729Y-8704960D01*
X2236729Y-8704960D02*
X2217682Y-8714484D01*
X2217682Y-8714484D02*
X2198634Y-8714484D01*
X2198634Y-8714484D02*
X2179587Y-8704960D01*
X2179587Y-8704960D02*
X2170063Y-8695436D01*
X2170063Y-8695436D02*
X2160539Y-8676389D01*
X2160539Y-8676389D02*
X2151015Y-8638293D01*
X2151015Y-8638293D02*
X2151015Y-8590674D01*
X2151015Y-8590674D02*
X2160539Y-8552579D01*
X2160539Y-8552579D02*
X2170063Y-8533531D01*
X2170063Y-8533531D02*
X2179587Y-8524008D01*
X2179587Y-8524008D02*
X2198634Y-8514484D01*
X2351015Y-8695436D02*
X2360539Y-8704960D01*
X2360539Y-8704960D02*
X2351015Y-8714484D01*
X2351015Y-8714484D02*
X2341491Y-8704960D01*
X2341491Y-8704960D02*
X2351015Y-8695436D01*
X2351015Y-8695436D02*
X2351015Y-8714484D01*
X2484348Y-8514484D02*
X2503396Y-8514484D01*
X2503396Y-8514484D02*
X2522444Y-8524008D01*
X2522444Y-8524008D02*
X2531968Y-8533531D01*
X2531968Y-8533531D02*
X2541491Y-8552579D01*
X2541491Y-8552579D02*
X2551015Y-8590674D01*
X2551015Y-8590674D02*
X2551015Y-8638293D01*
X2551015Y-8638293D02*
X2541491Y-8676389D01*
X2541491Y-8676389D02*
X2531968Y-8695436D01*
X2531968Y-8695436D02*
X2522444Y-8704960D01*
X2522444Y-8704960D02*
X2503396Y-8714484D01*
X2503396Y-8714484D02*
X2484348Y-8714484D01*
X2484348Y-8714484D02*
X2465301Y-8704960D01*
X2465301Y-8704960D02*
X2455777Y-8695436D01*
X2455777Y-8695436D02*
X2446253Y-8676389D01*
X2446253Y-8676389D02*
X2436729Y-8638293D01*
X2436729Y-8638293D02*
X2436729Y-8590674D01*
X2436729Y-8590674D02*
X2446253Y-8552579D01*
X2446253Y-8552579D02*
X2455777Y-8533531D01*
X2455777Y-8533531D02*
X2465301Y-8524008D01*
X2465301Y-8524008D02*
X2484348Y-8514484D01*
X2617682Y-8514484D02*
X2741491Y-8514484D01*
X2741491Y-8514484D02*
X2674825Y-8590674D01*
X2674825Y-8590674D02*
X2703396Y-8590674D01*
X2703396Y-8590674D02*
X2722444Y-8600198D01*
X2722444Y-8600198D02*
X2731968Y-8609722D01*
X2731968Y-8609722D02*
X2741491Y-8628770D01*
X2741491Y-8628770D02*
X2741491Y-8676389D01*
X2741491Y-8676389D02*
X2731968Y-8695436D01*
X2731968Y-8695436D02*
X2722444Y-8704960D01*
X2722444Y-8704960D02*
X2703396Y-8714484D01*
X2703396Y-8714484D02*
X2646253Y-8714484D01*
X2646253Y-8714484D02*
X2627206Y-8704960D01*
X2627206Y-8704960D02*
X2617682Y-8695436D01*
X2931967Y-8714484D02*
X2817682Y-8714484D01*
X2874825Y-8714484D02*
X2874825Y-8514484D01*
X2874825Y-8514484D02*
X2855777Y-8543055D01*
X2855777Y-8543055D02*
X2836729Y-8562103D01*
X2836729Y-8562103D02*
X2817682Y-8571627D01*
X3112920Y-8514484D02*
X3017682Y-8514484D01*
X3017682Y-8514484D02*
X3008158Y-8609722D01*
X3008158Y-8609722D02*
X3017682Y-8600198D01*
X3017682Y-8600198D02*
X3036729Y-8590674D01*
X3036729Y-8590674D02*
X3084348Y-8590674D01*
X3084348Y-8590674D02*
X3103396Y-8600198D01*
X3103396Y-8600198D02*
X3112920Y-8609722D01*
X3112920Y-8609722D02*
X3122444Y-8628770D01*
X3122444Y-8628770D02*
X3122444Y-8676389D01*
X3122444Y-8676389D02*
X3112920Y-8695436D01*
X3112920Y-8695436D02*
X3103396Y-8704960D01*
X3103396Y-8704960D02*
X3084348Y-8714484D01*
X3084348Y-8714484D02*
X3036729Y-8714484D01*
X3036729Y-8714484D02*
X3017682Y-8704960D01*
X3017682Y-8704960D02*
X3008158Y-8695436D01*
X3198634Y-8514484D02*
X3198634Y-8552579D01*
X3274825Y-8514484D02*
X3274825Y-8552579D01*
X3570063Y-8790674D02*
X3560539Y-8781150D01*
X3560539Y-8781150D02*
X3541491Y-8752579D01*
X3541491Y-8752579D02*
X3531968Y-8733531D01*
X3531968Y-8733531D02*
X3522444Y-8704960D01*
X3522444Y-8704960D02*
X3512920Y-8657341D01*
X3512920Y-8657341D02*
X3512920Y-8619246D01*
X3512920Y-8619246D02*
X3522444Y-8571627D01*
X3522444Y-8571627D02*
X3531968Y-8543055D01*
X3531968Y-8543055D02*
X3541491Y-8524008D01*
X3541491Y-8524008D02*
X3560539Y-8495436D01*
X3560539Y-8495436D02*
X3570063Y-8485912D01*
X3751015Y-8714484D02*
X3636729Y-8714484D01*
X3693872Y-8714484D02*
X3693872Y-8514484D01*
X3693872Y-8514484D02*
X3674825Y-8543055D01*
X3674825Y-8543055D02*
X3655777Y-8562103D01*
X3655777Y-8562103D02*
X3636729Y-8571627D01*
X3922444Y-8514484D02*
X3884348Y-8514484D01*
X3884348Y-8514484D02*
X3865301Y-8524008D01*
X3865301Y-8524008D02*
X3855777Y-8533531D01*
X3855777Y-8533531D02*
X3836729Y-8562103D01*
X3836729Y-8562103D02*
X3827206Y-8600198D01*
X3827206Y-8600198D02*
X3827206Y-8676389D01*
X3827206Y-8676389D02*
X3836729Y-8695436D01*
X3836729Y-8695436D02*
X3846253Y-8704960D01*
X3846253Y-8704960D02*
X3865301Y-8714484D01*
X3865301Y-8714484D02*
X3903396Y-8714484D01*
X3903396Y-8714484D02*
X3922444Y-8704960D01*
X3922444Y-8704960D02*
X3931968Y-8695436D01*
X3931968Y-8695436D02*
X3941491Y-8676389D01*
X3941491Y-8676389D02*
X3941491Y-8628770D01*
X3941491Y-8628770D02*
X3931968Y-8609722D01*
X3931968Y-8609722D02*
X3922444Y-8600198D01*
X3922444Y-8600198D02*
X3903396Y-8590674D01*
X3903396Y-8590674D02*
X3865301Y-8590674D01*
X3865301Y-8590674D02*
X3846253Y-8600198D01*
X3846253Y-8600198D02*
X3836729Y-8609722D01*
X3836729Y-8609722D02*
X3827206Y-8628770D01*
X4112920Y-8514484D02*
X4074825Y-8514484D01*
X4074825Y-8514484D02*
X4055777Y-8524008D01*
X4055777Y-8524008D02*
X4046253Y-8533531D01*
X4046253Y-8533531D02*
X4027206Y-8562103D01*
X4027206Y-8562103D02*
X4017682Y-8600198D01*
X4017682Y-8600198D02*
X4017682Y-8676389D01*
X4017682Y-8676389D02*
X4027206Y-8695436D01*
X4027206Y-8695436D02*
X4036729Y-8704960D01*
X4036729Y-8704960D02*
X4055777Y-8714484D01*
X4055777Y-8714484D02*
X4093872Y-8714484D01*
X4093872Y-8714484D02*
X4112920Y-8704960D01*
X4112920Y-8704960D02*
X4122444Y-8695436D01*
X4122444Y-8695436D02*
X4131968Y-8676389D01*
X4131968Y-8676389D02*
X4131968Y-8628770D01*
X4131968Y-8628770D02*
X4122444Y-8609722D01*
X4122444Y-8609722D02*
X4112920Y-8600198D01*
X4112920Y-8600198D02*
X4093872Y-8590674D01*
X4093872Y-8590674D02*
X4055777Y-8590674D01*
X4055777Y-8590674D02*
X4036729Y-8600198D01*
X4036729Y-8600198D02*
X4027206Y-8609722D01*
X4027206Y-8609722D02*
X4017682Y-8628770D01*
X4370063Y-8714484D02*
X4370063Y-8514484D01*
X4455777Y-8714484D02*
X4455777Y-8609722D01*
X4455777Y-8609722D02*
X4446253Y-8590674D01*
X4446253Y-8590674D02*
X4427206Y-8581150D01*
X4427206Y-8581150D02*
X4398634Y-8581150D01*
X4398634Y-8581150D02*
X4379587Y-8590674D01*
X4379587Y-8590674D02*
X4370063Y-8600198D01*
X4579587Y-8714484D02*
X4560539Y-8704960D01*
X4560539Y-8704960D02*
X4551015Y-8695436D01*
X4551015Y-8695436D02*
X4541492Y-8676389D01*
X4541492Y-8676389D02*
X4541492Y-8619246D01*
X4541492Y-8619246D02*
X4551015Y-8600198D01*
X4551015Y-8600198D02*
X4560539Y-8590674D01*
X4560539Y-8590674D02*
X4579587Y-8581150D01*
X4579587Y-8581150D02*
X4608158Y-8581150D01*
X4608158Y-8581150D02*
X4627206Y-8590674D01*
X4627206Y-8590674D02*
X4636730Y-8600198D01*
X4636730Y-8600198D02*
X4646253Y-8619246D01*
X4646253Y-8619246D02*
X4646253Y-8676389D01*
X4646253Y-8676389D02*
X4636730Y-8695436D01*
X4636730Y-8695436D02*
X4627206Y-8704960D01*
X4627206Y-8704960D02*
X4608158Y-8714484D01*
X4608158Y-8714484D02*
X4579587Y-8714484D01*
X4760539Y-8714484D02*
X4741492Y-8704960D01*
X4741492Y-8704960D02*
X4731968Y-8685912D01*
X4731968Y-8685912D02*
X4731968Y-8514484D01*
X4912920Y-8704960D02*
X4893873Y-8714484D01*
X4893873Y-8714484D02*
X4855777Y-8714484D01*
X4855777Y-8714484D02*
X4836730Y-8704960D01*
X4836730Y-8704960D02*
X4827206Y-8685912D01*
X4827206Y-8685912D02*
X4827206Y-8609722D01*
X4827206Y-8609722D02*
X4836730Y-8590674D01*
X4836730Y-8590674D02*
X4855777Y-8581150D01*
X4855777Y-8581150D02*
X4893873Y-8581150D01*
X4893873Y-8581150D02*
X4912920Y-8590674D01*
X4912920Y-8590674D02*
X4922444Y-8609722D01*
X4922444Y-8609722D02*
X4922444Y-8628770D01*
X4922444Y-8628770D02*
X4827206Y-8647817D01*
X4998634Y-8704960D02*
X5017682Y-8714484D01*
X5017682Y-8714484D02*
X5055777Y-8714484D01*
X5055777Y-8714484D02*
X5074825Y-8704960D01*
X5074825Y-8704960D02*
X5084349Y-8685912D01*
X5084349Y-8685912D02*
X5084349Y-8676389D01*
X5084349Y-8676389D02*
X5074825Y-8657341D01*
X5074825Y-8657341D02*
X5055777Y-8647817D01*
X5055777Y-8647817D02*
X5027206Y-8647817D01*
X5027206Y-8647817D02*
X5008158Y-8638293D01*
X5008158Y-8638293D02*
X4998634Y-8619246D01*
X4998634Y-8619246D02*
X4998634Y-8609722D01*
X4998634Y-8609722D02*
X5008158Y-8590674D01*
X5008158Y-8590674D02*
X5027206Y-8581150D01*
X5027206Y-8581150D02*
X5055777Y-8581150D01*
X5055777Y-8581150D02*
X5074825Y-8590674D01*
X5151015Y-8790674D02*
X5160539Y-8781150D01*
X5160539Y-8781150D02*
X5179587Y-8752579D01*
X5179587Y-8752579D02*
X5189111Y-8733531D01*
X5189111Y-8733531D02*
X5198634Y-8704960D01*
X5198634Y-8704960D02*
X5208158Y-8657341D01*
X5208158Y-8657341D02*
X5208158Y-8619246D01*
X5208158Y-8619246D02*
X5198634Y-8571627D01*
X5198634Y-8571627D02*
X5189111Y-8543055D01*
X5189111Y-8543055D02*
X5179587Y-8524008D01*
X5179587Y-8524008D02*
X5160539Y-8495436D01*
X5160539Y-8495436D02*
X5151015Y-8485912D01*
D10*
X-18180Y-8918820D02*
X-18180Y-8855180D01*
X-81820Y-8855180D01*
X-81820Y-8918820D01*
X-18180Y-8918820D01*
D11*
X293872Y-8778484D02*
X312920Y-8778484D01*
X312920Y-8778484D02*
X331967Y-8788008D01*
X331967Y-8788008D02*
X341491Y-8797531D01*
X341491Y-8797531D02*
X351015Y-8816579D01*
X351015Y-8816579D02*
X360539Y-8854674D01*
X360539Y-8854674D02*
X360539Y-8902293D01*
X360539Y-8902293D02*
X351015Y-8940389D01*
X351015Y-8940389D02*
X341491Y-8959436D01*
X341491Y-8959436D02*
X331967Y-8968960D01*
X331967Y-8968960D02*
X312920Y-8978484D01*
X312920Y-8978484D02*
X293872Y-8978484D01*
X293872Y-8978484D02*
X274824Y-8968960D01*
X274824Y-8968960D02*
X265301Y-8959436D01*
X265301Y-8959436D02*
X255777Y-8940389D01*
X255777Y-8940389D02*
X246253Y-8902293D01*
X246253Y-8902293D02*
X246253Y-8854674D01*
X246253Y-8854674D02*
X255777Y-8816579D01*
X255777Y-8816579D02*
X265301Y-8797531D01*
X265301Y-8797531D02*
X274824Y-8788008D01*
X274824Y-8788008D02*
X293872Y-8778484D01*
X446253Y-8959436D02*
X455777Y-8968960D01*
X455777Y-8968960D02*
X446253Y-8978484D01*
X446253Y-8978484D02*
X436729Y-8968960D01*
X436729Y-8968960D02*
X446253Y-8959436D01*
X446253Y-8959436D02*
X446253Y-8978484D01*
X551015Y-8978484D02*
X589110Y-8978484D01*
X589110Y-8978484D02*
X608158Y-8968960D01*
X608158Y-8968960D02*
X617682Y-8959436D01*
X617682Y-8959436D02*
X636729Y-8930865D01*
X636729Y-8930865D02*
X646253Y-8892770D01*
X646253Y-8892770D02*
X646253Y-8816579D01*
X646253Y-8816579D02*
X636729Y-8797531D01*
X636729Y-8797531D02*
X627205Y-8788008D01*
X627205Y-8788008D02*
X608158Y-8778484D01*
X608158Y-8778484D02*
X570063Y-8778484D01*
X570063Y-8778484D02*
X551015Y-8788008D01*
X551015Y-8788008D02*
X541491Y-8797531D01*
X541491Y-8797531D02*
X531967Y-8816579D01*
X531967Y-8816579D02*
X531967Y-8864198D01*
X531967Y-8864198D02*
X541491Y-8883246D01*
X541491Y-8883246D02*
X551015Y-8892770D01*
X551015Y-8892770D02*
X570063Y-8902293D01*
X570063Y-8902293D02*
X608158Y-8902293D01*
X608158Y-8902293D02*
X627205Y-8892770D01*
X627205Y-8892770D02*
X636729Y-8883246D01*
X636729Y-8883246D02*
X646253Y-8864198D01*
X770062Y-8778484D02*
X789110Y-8778484D01*
X789110Y-8778484D02*
X808158Y-8788008D01*
X808158Y-8788008D02*
X817682Y-8797531D01*
X817682Y-8797531D02*
X827205Y-8816579D01*
X827205Y-8816579D02*
X836729Y-8854674D01*
X836729Y-8854674D02*
X836729Y-8902293D01*
X836729Y-8902293D02*
X827205Y-8940389D01*
X827205Y-8940389D02*
X817682Y-8959436D01*
X817682Y-8959436D02*
X808158Y-8968960D01*
X808158Y-8968960D02*
X789110Y-8978484D01*
X789110Y-8978484D02*
X770062Y-8978484D01*
X770062Y-8978484D02*
X751015Y-8968960D01*
X751015Y-8968960D02*
X741491Y-8959436D01*
X741491Y-8959436D02*
X731967Y-8940389D01*
X731967Y-8940389D02*
X722443Y-8902293D01*
X722443Y-8902293D02*
X722443Y-8854674D01*
X722443Y-8854674D02*
X731967Y-8816579D01*
X731967Y-8816579D02*
X741491Y-8797531D01*
X741491Y-8797531D02*
X751015Y-8788008D01*
X751015Y-8788008D02*
X770062Y-8778484D01*
X960539Y-8778484D02*
X979586Y-8778484D01*
X979586Y-8778484D02*
X998634Y-8788008D01*
X998634Y-8788008D02*
X1008158Y-8797531D01*
X1008158Y-8797531D02*
X1017682Y-8816579D01*
X1017682Y-8816579D02*
X1027205Y-8854674D01*
X1027205Y-8854674D02*
X1027205Y-8902293D01*
X1027205Y-8902293D02*
X1017682Y-8940389D01*
X1017682Y-8940389D02*
X1008158Y-8959436D01*
X1008158Y-8959436D02*
X998634Y-8968960D01*
X998634Y-8968960D02*
X979586Y-8978484D01*
X979586Y-8978484D02*
X960539Y-8978484D01*
X960539Y-8978484D02*
X941491Y-8968960D01*
X941491Y-8968960D02*
X931967Y-8959436D01*
X931967Y-8959436D02*
X922443Y-8940389D01*
X922443Y-8940389D02*
X912920Y-8902293D01*
X912920Y-8902293D02*
X912920Y-8854674D01*
X912920Y-8854674D02*
X922443Y-8816579D01*
X922443Y-8816579D02*
X931967Y-8797531D01*
X931967Y-8797531D02*
X941491Y-8788008D01*
X941491Y-8788008D02*
X960539Y-8778484D01*
X1112920Y-8978484D02*
X1112920Y-8845150D01*
X1112920Y-8864198D02*
X1122444Y-8854674D01*
X1122444Y-8854674D02*
X1141491Y-8845150D01*
X1141491Y-8845150D02*
X1170063Y-8845150D01*
X1170063Y-8845150D02*
X1189110Y-8854674D01*
X1189110Y-8854674D02*
X1198634Y-8873722D01*
X1198634Y-8873722D02*
X1198634Y-8978484D01*
X1198634Y-8873722D02*
X1208158Y-8854674D01*
X1208158Y-8854674D02*
X1227205Y-8845150D01*
X1227205Y-8845150D02*
X1255777Y-8845150D01*
X1255777Y-8845150D02*
X1274825Y-8854674D01*
X1274825Y-8854674D02*
X1284348Y-8873722D01*
X1284348Y-8873722D02*
X1284348Y-8978484D01*
X1379586Y-8978484D02*
X1379586Y-8845150D01*
X1379586Y-8864198D02*
X1389110Y-8854674D01*
X1389110Y-8854674D02*
X1408158Y-8845150D01*
X1408158Y-8845150D02*
X1436729Y-8845150D01*
X1436729Y-8845150D02*
X1455777Y-8854674D01*
X1455777Y-8854674D02*
X1465301Y-8873722D01*
X1465301Y-8873722D02*
X1465301Y-8978484D01*
X1465301Y-8873722D02*
X1474824Y-8854674D01*
X1474824Y-8854674D02*
X1493872Y-8845150D01*
X1493872Y-8845150D02*
X1522443Y-8845150D01*
X1522443Y-8845150D02*
X1541491Y-8854674D01*
X1541491Y-8854674D02*
X1551015Y-8873722D01*
X1551015Y-8873722D02*
X1551015Y-8978484D01*
X1941491Y-8768960D02*
X1770063Y-9026103D01*
X2198634Y-8778484D02*
X2217682Y-8778484D01*
X2217682Y-8778484D02*
X2236729Y-8788008D01*
X2236729Y-8788008D02*
X2246253Y-8797531D01*
X2246253Y-8797531D02*
X2255777Y-8816579D01*
X2255777Y-8816579D02*
X2265301Y-8854674D01*
X2265301Y-8854674D02*
X2265301Y-8902293D01*
X2265301Y-8902293D02*
X2255777Y-8940389D01*
X2255777Y-8940389D02*
X2246253Y-8959436D01*
X2246253Y-8959436D02*
X2236729Y-8968960D01*
X2236729Y-8968960D02*
X2217682Y-8978484D01*
X2217682Y-8978484D02*
X2198634Y-8978484D01*
X2198634Y-8978484D02*
X2179587Y-8968960D01*
X2179587Y-8968960D02*
X2170063Y-8959436D01*
X2170063Y-8959436D02*
X2160539Y-8940389D01*
X2160539Y-8940389D02*
X2151015Y-8902293D01*
X2151015Y-8902293D02*
X2151015Y-8854674D01*
X2151015Y-8854674D02*
X2160539Y-8816579D01*
X2160539Y-8816579D02*
X2170063Y-8797531D01*
X2170063Y-8797531D02*
X2179587Y-8788008D01*
X2179587Y-8788008D02*
X2198634Y-8778484D01*
X2351015Y-8959436D02*
X2360539Y-8968960D01*
X2360539Y-8968960D02*
X2351015Y-8978484D01*
X2351015Y-8978484D02*
X2341491Y-8968960D01*
X2341491Y-8968960D02*
X2351015Y-8959436D01*
X2351015Y-8959436D02*
X2351015Y-8978484D01*
X2484348Y-8778484D02*
X2503396Y-8778484D01*
X2503396Y-8778484D02*
X2522444Y-8788008D01*
X2522444Y-8788008D02*
X2531968Y-8797531D01*
X2531968Y-8797531D02*
X2541491Y-8816579D01*
X2541491Y-8816579D02*
X2551015Y-8854674D01*
X2551015Y-8854674D02*
X2551015Y-8902293D01*
X2551015Y-8902293D02*
X2541491Y-8940389D01*
X2541491Y-8940389D02*
X2531968Y-8959436D01*
X2531968Y-8959436D02*
X2522444Y-8968960D01*
X2522444Y-8968960D02*
X2503396Y-8978484D01*
X2503396Y-8978484D02*
X2484348Y-8978484D01*
X2484348Y-8978484D02*
X2465301Y-8968960D01*
X2465301Y-8968960D02*
X2455777Y-8959436D01*
X2455777Y-8959436D02*
X2446253Y-8940389D01*
X2446253Y-8940389D02*
X2436729Y-8902293D01*
X2436729Y-8902293D02*
X2436729Y-8854674D01*
X2436729Y-8854674D02*
X2446253Y-8816579D01*
X2446253Y-8816579D02*
X2455777Y-8797531D01*
X2455777Y-8797531D02*
X2465301Y-8788008D01*
X2465301Y-8788008D02*
X2484348Y-8778484D01*
X2617682Y-8778484D02*
X2741491Y-8778484D01*
X2741491Y-8778484D02*
X2674825Y-8854674D01*
X2674825Y-8854674D02*
X2703396Y-8854674D01*
X2703396Y-8854674D02*
X2722444Y-8864198D01*
X2722444Y-8864198D02*
X2731968Y-8873722D01*
X2731968Y-8873722D02*
X2741491Y-8892770D01*
X2741491Y-8892770D02*
X2741491Y-8940389D01*
X2741491Y-8940389D02*
X2731968Y-8959436D01*
X2731968Y-8959436D02*
X2722444Y-8968960D01*
X2722444Y-8968960D02*
X2703396Y-8978484D01*
X2703396Y-8978484D02*
X2646253Y-8978484D01*
X2646253Y-8978484D02*
X2627206Y-8968960D01*
X2627206Y-8968960D02*
X2617682Y-8959436D01*
X2922444Y-8778484D02*
X2827206Y-8778484D01*
X2827206Y-8778484D02*
X2817682Y-8873722D01*
X2817682Y-8873722D02*
X2827206Y-8864198D01*
X2827206Y-8864198D02*
X2846253Y-8854674D01*
X2846253Y-8854674D02*
X2893872Y-8854674D01*
X2893872Y-8854674D02*
X2912920Y-8864198D01*
X2912920Y-8864198D02*
X2922444Y-8873722D01*
X2922444Y-8873722D02*
X2931967Y-8892770D01*
X2931967Y-8892770D02*
X2931967Y-8940389D01*
X2931967Y-8940389D02*
X2922444Y-8959436D01*
X2922444Y-8959436D02*
X2912920Y-8968960D01*
X2912920Y-8968960D02*
X2893872Y-8978484D01*
X2893872Y-8978484D02*
X2846253Y-8978484D01*
X2846253Y-8978484D02*
X2827206Y-8968960D01*
X2827206Y-8968960D02*
X2817682Y-8959436D01*
X3103396Y-8845150D02*
X3103396Y-8978484D01*
X3055777Y-8768960D02*
X3008158Y-8911817D01*
X3008158Y-8911817D02*
X3131967Y-8911817D01*
X3198634Y-8778484D02*
X3198634Y-8816579D01*
X3274825Y-8778484D02*
X3274825Y-8816579D01*
X3570063Y-9054674D02*
X3560539Y-9045150D01*
X3560539Y-9045150D02*
X3541491Y-9016579D01*
X3541491Y-9016579D02*
X3531968Y-8997531D01*
X3531968Y-8997531D02*
X3522444Y-8968960D01*
X3522444Y-8968960D02*
X3512920Y-8921341D01*
X3512920Y-8921341D02*
X3512920Y-8883246D01*
X3512920Y-8883246D02*
X3522444Y-8835627D01*
X3522444Y-8835627D02*
X3531968Y-8807055D01*
X3531968Y-8807055D02*
X3541491Y-8788008D01*
X3541491Y-8788008D02*
X3560539Y-8759436D01*
X3560539Y-8759436D02*
X3570063Y-8749912D01*
X3636729Y-8797531D02*
X3646253Y-8788008D01*
X3646253Y-8788008D02*
X3665301Y-8778484D01*
X3665301Y-8778484D02*
X3712920Y-8778484D01*
X3712920Y-8778484D02*
X3731968Y-8788008D01*
X3731968Y-8788008D02*
X3741491Y-8797531D01*
X3741491Y-8797531D02*
X3751015Y-8816579D01*
X3751015Y-8816579D02*
X3751015Y-8835627D01*
X3751015Y-8835627D02*
X3741491Y-8864198D01*
X3741491Y-8864198D02*
X3627206Y-8978484D01*
X3627206Y-8978484D02*
X3751015Y-8978484D01*
X3989110Y-8978484D02*
X3989110Y-8778484D01*
X4074825Y-8978484D02*
X4074825Y-8873722D01*
X4074825Y-8873722D02*
X4065301Y-8854674D01*
X4065301Y-8854674D02*
X4046253Y-8845150D01*
X4046253Y-8845150D02*
X4017682Y-8845150D01*
X4017682Y-8845150D02*
X3998634Y-8854674D01*
X3998634Y-8854674D02*
X3989110Y-8864198D01*
X4198634Y-8978484D02*
X4179587Y-8968960D01*
X4179587Y-8968960D02*
X4170063Y-8959436D01*
X4170063Y-8959436D02*
X4160539Y-8940389D01*
X4160539Y-8940389D02*
X4160539Y-8883246D01*
X4160539Y-8883246D02*
X4170063Y-8864198D01*
X4170063Y-8864198D02*
X4179587Y-8854674D01*
X4179587Y-8854674D02*
X4198634Y-8845150D01*
X4198634Y-8845150D02*
X4227206Y-8845150D01*
X4227206Y-8845150D02*
X4246253Y-8854674D01*
X4246253Y-8854674D02*
X4255777Y-8864198D01*
X4255777Y-8864198D02*
X4265301Y-8883246D01*
X4265301Y-8883246D02*
X4265301Y-8940389D01*
X4265301Y-8940389D02*
X4255777Y-8959436D01*
X4255777Y-8959436D02*
X4246253Y-8968960D01*
X4246253Y-8968960D02*
X4227206Y-8978484D01*
X4227206Y-8978484D02*
X4198634Y-8978484D01*
X4379587Y-8978484D02*
X4360539Y-8968960D01*
X4360539Y-8968960D02*
X4351015Y-8949912D01*
X4351015Y-8949912D02*
X4351015Y-8778484D01*
X4531968Y-8968960D02*
X4512920Y-8978484D01*
X4512920Y-8978484D02*
X4474825Y-8978484D01*
X4474825Y-8978484D02*
X4455777Y-8968960D01*
X4455777Y-8968960D02*
X4446253Y-8949912D01*
X4446253Y-8949912D02*
X4446253Y-8873722D01*
X4446253Y-8873722D02*
X4455777Y-8854674D01*
X4455777Y-8854674D02*
X4474825Y-8845150D01*
X4474825Y-8845150D02*
X4512920Y-8845150D01*
X4512920Y-8845150D02*
X4531968Y-8854674D01*
X4531968Y-8854674D02*
X4541492Y-8873722D01*
X4541492Y-8873722D02*
X4541492Y-8892770D01*
X4541492Y-8892770D02*
X4446253Y-8911817D01*
X4617682Y-8968960D02*
X4636730Y-8978484D01*
X4636730Y-8978484D02*
X4674825Y-8978484D01*
X4674825Y-8978484D02*
X4693873Y-8968960D01*
X4693873Y-8968960D02*
X4703396Y-8949912D01*
X4703396Y-8949912D02*
X4703396Y-8940389D01*
X4703396Y-8940389D02*
X4693873Y-8921341D01*
X4693873Y-8921341D02*
X4674825Y-8911817D01*
X4674825Y-8911817D02*
X4646253Y-8911817D01*
X4646253Y-8911817D02*
X4627206Y-8902293D01*
X4627206Y-8902293D02*
X4617682Y-8883246D01*
X4617682Y-8883246D02*
X4617682Y-8873722D01*
X4617682Y-8873722D02*
X4627206Y-8854674D01*
X4627206Y-8854674D02*
X4646253Y-8845150D01*
X4646253Y-8845150D02*
X4674825Y-8845150D01*
X4674825Y-8845150D02*
X4693873Y-8854674D01*
X4770063Y-9054674D02*
X4779587Y-9045150D01*
X4779587Y-9045150D02*
X4798634Y-9016579D01*
X4798634Y-9016579D02*
X4808158Y-8997531D01*
X4808158Y-8997531D02*
X4817682Y-8968960D01*
X4817682Y-8968960D02*
X4827206Y-8921341D01*
X4827206Y-8921341D02*
X4827206Y-8883246D01*
X4827206Y-8883246D02*
X4817682Y-8835627D01*
X4817682Y-8835627D02*
X4808158Y-8807055D01*
X4808158Y-8807055D02*
X4798634Y-8788008D01*
X4798634Y-8788008D02*
X4779587Y-8759436D01*
X4779587Y-8759436D02*
X4770063Y-8749912D01*
D10*
X-55000Y-9201000D02*
X-5000Y-9151000D01*
X-55000Y-9101000D01*
X-105000Y-9151000D01*
X-55000Y-9201000D01*
D11*
X360539Y-9242484D02*
X246253Y-9242484D01*
X303396Y-9242484D02*
X303396Y-9042484D01*
X303396Y-9042484D02*
X284348Y-9071055D01*
X284348Y-9071055D02*
X265301Y-9090103D01*
X265301Y-9090103D02*
X246253Y-9099627D01*
X446253Y-9223436D02*
X455777Y-9232960D01*
X455777Y-9232960D02*
X446253Y-9242484D01*
X446253Y-9242484D02*
X436729Y-9232960D01*
X436729Y-9232960D02*
X446253Y-9223436D01*
X446253Y-9223436D02*
X446253Y-9242484D01*
X579586Y-9042484D02*
X598634Y-9042484D01*
X598634Y-9042484D02*
X617682Y-9052008D01*
X617682Y-9052008D02*
X627205Y-9061531D01*
X627205Y-9061531D02*
X636729Y-9080579D01*
X636729Y-9080579D02*
X646253Y-9118674D01*
X646253Y-9118674D02*
X646253Y-9166293D01*
X646253Y-9166293D02*
X636729Y-9204389D01*
X636729Y-9204389D02*
X627205Y-9223436D01*
X627205Y-9223436D02*
X617682Y-9232960D01*
X617682Y-9232960D02*
X598634Y-9242484D01*
X598634Y-9242484D02*
X579586Y-9242484D01*
X579586Y-9242484D02*
X560539Y-9232960D01*
X560539Y-9232960D02*
X551015Y-9223436D01*
X551015Y-9223436D02*
X541491Y-9204389D01*
X541491Y-9204389D02*
X531967Y-9166293D01*
X531967Y-9166293D02*
X531967Y-9118674D01*
X531967Y-9118674D02*
X541491Y-9080579D01*
X541491Y-9080579D02*
X551015Y-9061531D01*
X551015Y-9061531D02*
X560539Y-9052008D01*
X560539Y-9052008D02*
X579586Y-9042484D01*
X770062Y-9042484D02*
X789110Y-9042484D01*
X789110Y-9042484D02*
X808158Y-9052008D01*
X808158Y-9052008D02*
X817682Y-9061531D01*
X817682Y-9061531D02*
X827205Y-9080579D01*
X827205Y-9080579D02*
X836729Y-9118674D01*
X836729Y-9118674D02*
X836729Y-9166293D01*
X836729Y-9166293D02*
X827205Y-9204389D01*
X827205Y-9204389D02*
X817682Y-9223436D01*
X817682Y-9223436D02*
X808158Y-9232960D01*
X808158Y-9232960D02*
X789110Y-9242484D01*
X789110Y-9242484D02*
X770062Y-9242484D01*
X770062Y-9242484D02*
X751015Y-9232960D01*
X751015Y-9232960D02*
X741491Y-9223436D01*
X741491Y-9223436D02*
X731967Y-9204389D01*
X731967Y-9204389D02*
X722443Y-9166293D01*
X722443Y-9166293D02*
X722443Y-9118674D01*
X722443Y-9118674D02*
X731967Y-9080579D01*
X731967Y-9080579D02*
X741491Y-9061531D01*
X741491Y-9061531D02*
X751015Y-9052008D01*
X751015Y-9052008D02*
X770062Y-9042484D01*
X960539Y-9042484D02*
X979586Y-9042484D01*
X979586Y-9042484D02*
X998634Y-9052008D01*
X998634Y-9052008D02*
X1008158Y-9061531D01*
X1008158Y-9061531D02*
X1017682Y-9080579D01*
X1017682Y-9080579D02*
X1027205Y-9118674D01*
X1027205Y-9118674D02*
X1027205Y-9166293D01*
X1027205Y-9166293D02*
X1017682Y-9204389D01*
X1017682Y-9204389D02*
X1008158Y-9223436D01*
X1008158Y-9223436D02*
X998634Y-9232960D01*
X998634Y-9232960D02*
X979586Y-9242484D01*
X979586Y-9242484D02*
X960539Y-9242484D01*
X960539Y-9242484D02*
X941491Y-9232960D01*
X941491Y-9232960D02*
X931967Y-9223436D01*
X931967Y-9223436D02*
X922443Y-9204389D01*
X922443Y-9204389D02*
X912920Y-9166293D01*
X912920Y-9166293D02*
X912920Y-9118674D01*
X912920Y-9118674D02*
X922443Y-9080579D01*
X922443Y-9080579D02*
X931967Y-9061531D01*
X931967Y-9061531D02*
X941491Y-9052008D01*
X941491Y-9052008D02*
X960539Y-9042484D01*
X1112920Y-9242484D02*
X1112920Y-9109150D01*
X1112920Y-9128198D02*
X1122444Y-9118674D01*
X1122444Y-9118674D02*
X1141491Y-9109150D01*
X1141491Y-9109150D02*
X1170063Y-9109150D01*
X1170063Y-9109150D02*
X1189110Y-9118674D01*
X1189110Y-9118674D02*
X1198634Y-9137722D01*
X1198634Y-9137722D02*
X1198634Y-9242484D01*
X1198634Y-9137722D02*
X1208158Y-9118674D01*
X1208158Y-9118674D02*
X1227205Y-9109150D01*
X1227205Y-9109150D02*
X1255777Y-9109150D01*
X1255777Y-9109150D02*
X1274825Y-9118674D01*
X1274825Y-9118674D02*
X1284348Y-9137722D01*
X1284348Y-9137722D02*
X1284348Y-9242484D01*
X1379586Y-9242484D02*
X1379586Y-9109150D01*
X1379586Y-9128198D02*
X1389110Y-9118674D01*
X1389110Y-9118674D02*
X1408158Y-9109150D01*
X1408158Y-9109150D02*
X1436729Y-9109150D01*
X1436729Y-9109150D02*
X1455777Y-9118674D01*
X1455777Y-9118674D02*
X1465301Y-9137722D01*
X1465301Y-9137722D02*
X1465301Y-9242484D01*
X1465301Y-9137722D02*
X1474824Y-9118674D01*
X1474824Y-9118674D02*
X1493872Y-9109150D01*
X1493872Y-9109150D02*
X1522443Y-9109150D01*
X1522443Y-9109150D02*
X1541491Y-9118674D01*
X1541491Y-9118674D02*
X1551015Y-9137722D01*
X1551015Y-9137722D02*
X1551015Y-9242484D01*
X1941491Y-9032960D02*
X1770063Y-9290103D01*
X2198634Y-9042484D02*
X2217682Y-9042484D01*
X2217682Y-9042484D02*
X2236729Y-9052008D01*
X2236729Y-9052008D02*
X2246253Y-9061531D01*
X2246253Y-9061531D02*
X2255777Y-9080579D01*
X2255777Y-9080579D02*
X2265301Y-9118674D01*
X2265301Y-9118674D02*
X2265301Y-9166293D01*
X2265301Y-9166293D02*
X2255777Y-9204389D01*
X2255777Y-9204389D02*
X2246253Y-9223436D01*
X2246253Y-9223436D02*
X2236729Y-9232960D01*
X2236729Y-9232960D02*
X2217682Y-9242484D01*
X2217682Y-9242484D02*
X2198634Y-9242484D01*
X2198634Y-9242484D02*
X2179587Y-9232960D01*
X2179587Y-9232960D02*
X2170063Y-9223436D01*
X2170063Y-9223436D02*
X2160539Y-9204389D01*
X2160539Y-9204389D02*
X2151015Y-9166293D01*
X2151015Y-9166293D02*
X2151015Y-9118674D01*
X2151015Y-9118674D02*
X2160539Y-9080579D01*
X2160539Y-9080579D02*
X2170063Y-9061531D01*
X2170063Y-9061531D02*
X2179587Y-9052008D01*
X2179587Y-9052008D02*
X2198634Y-9042484D01*
X2351015Y-9223436D02*
X2360539Y-9232960D01*
X2360539Y-9232960D02*
X2351015Y-9242484D01*
X2351015Y-9242484D02*
X2341491Y-9232960D01*
X2341491Y-9232960D02*
X2351015Y-9223436D01*
X2351015Y-9223436D02*
X2351015Y-9242484D01*
X2484348Y-9042484D02*
X2503396Y-9042484D01*
X2503396Y-9042484D02*
X2522444Y-9052008D01*
X2522444Y-9052008D02*
X2531968Y-9061531D01*
X2531968Y-9061531D02*
X2541491Y-9080579D01*
X2541491Y-9080579D02*
X2551015Y-9118674D01*
X2551015Y-9118674D02*
X2551015Y-9166293D01*
X2551015Y-9166293D02*
X2541491Y-9204389D01*
X2541491Y-9204389D02*
X2531968Y-9223436D01*
X2531968Y-9223436D02*
X2522444Y-9232960D01*
X2522444Y-9232960D02*
X2503396Y-9242484D01*
X2503396Y-9242484D02*
X2484348Y-9242484D01*
X2484348Y-9242484D02*
X2465301Y-9232960D01*
X2465301Y-9232960D02*
X2455777Y-9223436D01*
X2455777Y-9223436D02*
X2446253Y-9204389D01*
X2446253Y-9204389D02*
X2436729Y-9166293D01*
X2436729Y-9166293D02*
X2436729Y-9118674D01*
X2436729Y-9118674D02*
X2446253Y-9080579D01*
X2446253Y-9080579D02*
X2455777Y-9061531D01*
X2455777Y-9061531D02*
X2465301Y-9052008D01*
X2465301Y-9052008D02*
X2484348Y-9042484D01*
X2617682Y-9042484D02*
X2741491Y-9042484D01*
X2741491Y-9042484D02*
X2674825Y-9118674D01*
X2674825Y-9118674D02*
X2703396Y-9118674D01*
X2703396Y-9118674D02*
X2722444Y-9128198D01*
X2722444Y-9128198D02*
X2731968Y-9137722D01*
X2731968Y-9137722D02*
X2741491Y-9156770D01*
X2741491Y-9156770D02*
X2741491Y-9204389D01*
X2741491Y-9204389D02*
X2731968Y-9223436D01*
X2731968Y-9223436D02*
X2722444Y-9232960D01*
X2722444Y-9232960D02*
X2703396Y-9242484D01*
X2703396Y-9242484D02*
X2646253Y-9242484D01*
X2646253Y-9242484D02*
X2627206Y-9232960D01*
X2627206Y-9232960D02*
X2617682Y-9223436D01*
X2836729Y-9242484D02*
X2874825Y-9242484D01*
X2874825Y-9242484D02*
X2893872Y-9232960D01*
X2893872Y-9232960D02*
X2903396Y-9223436D01*
X2903396Y-9223436D02*
X2922444Y-9194865D01*
X2922444Y-9194865D02*
X2931967Y-9156770D01*
X2931967Y-9156770D02*
X2931967Y-9080579D01*
X2931967Y-9080579D02*
X2922444Y-9061531D01*
X2922444Y-9061531D02*
X2912920Y-9052008D01*
X2912920Y-9052008D02*
X2893872Y-9042484D01*
X2893872Y-9042484D02*
X2855777Y-9042484D01*
X2855777Y-9042484D02*
X2836729Y-9052008D01*
X2836729Y-9052008D02*
X2827206Y-9061531D01*
X2827206Y-9061531D02*
X2817682Y-9080579D01*
X2817682Y-9080579D02*
X2817682Y-9128198D01*
X2817682Y-9128198D02*
X2827206Y-9147246D01*
X2827206Y-9147246D02*
X2836729Y-9156770D01*
X2836729Y-9156770D02*
X2855777Y-9166293D01*
X2855777Y-9166293D02*
X2893872Y-9166293D01*
X2893872Y-9166293D02*
X2912920Y-9156770D01*
X2912920Y-9156770D02*
X2922444Y-9147246D01*
X2922444Y-9147246D02*
X2931967Y-9128198D01*
X3103396Y-9109150D02*
X3103396Y-9242484D01*
X3055777Y-9032960D02*
X3008158Y-9175817D01*
X3008158Y-9175817D02*
X3131967Y-9175817D01*
X3198634Y-9042484D02*
X3198634Y-9080579D01*
X3274825Y-9042484D02*
X3274825Y-9080579D01*
X3570063Y-9318674D02*
X3560539Y-9309150D01*
X3560539Y-9309150D02*
X3541491Y-9280579D01*
X3541491Y-9280579D02*
X3531968Y-9261531D01*
X3531968Y-9261531D02*
X3522444Y-9232960D01*
X3522444Y-9232960D02*
X3512920Y-9185341D01*
X3512920Y-9185341D02*
X3512920Y-9147246D01*
X3512920Y-9147246D02*
X3522444Y-9099627D01*
X3522444Y-9099627D02*
X3531968Y-9071055D01*
X3531968Y-9071055D02*
X3541491Y-9052008D01*
X3541491Y-9052008D02*
X3560539Y-9023436D01*
X3560539Y-9023436D02*
X3570063Y-9013912D01*
X3627206Y-9042484D02*
X3751015Y-9042484D01*
X3751015Y-9042484D02*
X3684348Y-9118674D01*
X3684348Y-9118674D02*
X3712920Y-9118674D01*
X3712920Y-9118674D02*
X3731968Y-9128198D01*
X3731968Y-9128198D02*
X3741491Y-9137722D01*
X3741491Y-9137722D02*
X3751015Y-9156770D01*
X3751015Y-9156770D02*
X3751015Y-9204389D01*
X3751015Y-9204389D02*
X3741491Y-9223436D01*
X3741491Y-9223436D02*
X3731968Y-9232960D01*
X3731968Y-9232960D02*
X3712920Y-9242484D01*
X3712920Y-9242484D02*
X3655777Y-9242484D01*
X3655777Y-9242484D02*
X3636729Y-9232960D01*
X3636729Y-9232960D02*
X3627206Y-9223436D01*
X3922444Y-9109150D02*
X3922444Y-9242484D01*
X3874825Y-9032960D02*
X3827206Y-9175817D01*
X3827206Y-9175817D02*
X3951015Y-9175817D01*
X4179587Y-9242484D02*
X4179587Y-9042484D01*
X4265301Y-9242484D02*
X4265301Y-9137722D01*
X4265301Y-9137722D02*
X4255777Y-9118674D01*
X4255777Y-9118674D02*
X4236730Y-9109150D01*
X4236730Y-9109150D02*
X4208158Y-9109150D01*
X4208158Y-9109150D02*
X4189110Y-9118674D01*
X4189110Y-9118674D02*
X4179587Y-9128198D01*
X4389111Y-9242484D02*
X4370063Y-9232960D01*
X4370063Y-9232960D02*
X4360539Y-9223436D01*
X4360539Y-9223436D02*
X4351015Y-9204389D01*
X4351015Y-9204389D02*
X4351015Y-9147246D01*
X4351015Y-9147246D02*
X4360539Y-9128198D01*
X4360539Y-9128198D02*
X4370063Y-9118674D01*
X4370063Y-9118674D02*
X4389111Y-9109150D01*
X4389111Y-9109150D02*
X4417682Y-9109150D01*
X4417682Y-9109150D02*
X4436730Y-9118674D01*
X4436730Y-9118674D02*
X4446253Y-9128198D01*
X4446253Y-9128198D02*
X4455777Y-9147246D01*
X4455777Y-9147246D02*
X4455777Y-9204389D01*
X4455777Y-9204389D02*
X4446253Y-9223436D01*
X4446253Y-9223436D02*
X4436730Y-9232960D01*
X4436730Y-9232960D02*
X4417682Y-9242484D01*
X4417682Y-9242484D02*
X4389111Y-9242484D01*
X4570063Y-9242484D02*
X4551015Y-9232960D01*
X4551015Y-9232960D02*
X4541492Y-9213912D01*
X4541492Y-9213912D02*
X4541492Y-9042484D01*
X4722444Y-9232960D02*
X4703396Y-9242484D01*
X4703396Y-9242484D02*
X4665301Y-9242484D01*
X4665301Y-9242484D02*
X4646253Y-9232960D01*
X4646253Y-9232960D02*
X4636730Y-9213912D01*
X4636730Y-9213912D02*
X4636730Y-9137722D01*
X4636730Y-9137722D02*
X4646253Y-9118674D01*
X4646253Y-9118674D02*
X4665301Y-9109150D01*
X4665301Y-9109150D02*
X4703396Y-9109150D01*
X4703396Y-9109150D02*
X4722444Y-9118674D01*
X4722444Y-9118674D02*
X4731968Y-9137722D01*
X4731968Y-9137722D02*
X4731968Y-9156770D01*
X4731968Y-9156770D02*
X4636730Y-9175817D01*
X4808158Y-9232960D02*
X4827206Y-9242484D01*
X4827206Y-9242484D02*
X4865301Y-9242484D01*
X4865301Y-9242484D02*
X4884349Y-9232960D01*
X4884349Y-9232960D02*
X4893873Y-9213912D01*
X4893873Y-9213912D02*
X4893873Y-9204389D01*
X4893873Y-9204389D02*
X4884349Y-9185341D01*
X4884349Y-9185341D02*
X4865301Y-9175817D01*
X4865301Y-9175817D02*
X4836730Y-9175817D01*
X4836730Y-9175817D02*
X4817682Y-9166293D01*
X4817682Y-9166293D02*
X4808158Y-9147246D01*
X4808158Y-9147246D02*
X4808158Y-9137722D01*
X4808158Y-9137722D02*
X4817682Y-9118674D01*
X4817682Y-9118674D02*
X4836730Y-9109150D01*
X4836730Y-9109150D02*
X4865301Y-9109150D01*
X4865301Y-9109150D02*
X4884349Y-9118674D01*
X4960539Y-9318674D02*
X4970063Y-9309150D01*
X4970063Y-9309150D02*
X4989111Y-9280579D01*
X4989111Y-9280579D02*
X4998634Y-9261531D01*
X4998634Y-9261531D02*
X5008158Y-9232960D01*
X5008158Y-9232960D02*
X5017682Y-9185341D01*
X5017682Y-9185341D02*
X5017682Y-9147246D01*
X5017682Y-9147246D02*
X5008158Y-9099627D01*
X5008158Y-9099627D02*
X4998634Y-9071055D01*
X4998634Y-9071055D02*
X4989111Y-9052008D01*
X4989111Y-9052008D02*
X4970063Y-9023436D01*
X4970063Y-9023436D02*
X4960539Y-9013912D01*
D12*
X-155000Y-9340000D02*
X-5000Y-9490000D01*
X-5000Y-9340000D02*
X-155000Y-9490000D01*
X-5000Y-9415000D02*
G75*
G02*
X-155000Y-9415000I-75000J0D01*
G01*
X-155000Y-9415000D02*
G75*
G02*
X-5000Y-9415000I75000J0D01*
G01*
D11*
X360539Y-9506484D02*
X246253Y-9506484D01*
X303396Y-9506484D02*
X303396Y-9306484D01*
X303396Y-9306484D02*
X284348Y-9335055D01*
X284348Y-9335055D02*
X265301Y-9354103D01*
X265301Y-9354103D02*
X246253Y-9363627D01*
X446253Y-9487436D02*
X455777Y-9496960D01*
X455777Y-9496960D02*
X446253Y-9506484D01*
X446253Y-9506484D02*
X436729Y-9496960D01*
X436729Y-9496960D02*
X446253Y-9487436D01*
X446253Y-9487436D02*
X446253Y-9506484D01*
X636729Y-9306484D02*
X541491Y-9306484D01*
X541491Y-9306484D02*
X531967Y-9401722D01*
X531967Y-9401722D02*
X541491Y-9392198D01*
X541491Y-9392198D02*
X560539Y-9382674D01*
X560539Y-9382674D02*
X608158Y-9382674D01*
X608158Y-9382674D02*
X627205Y-9392198D01*
X627205Y-9392198D02*
X636729Y-9401722D01*
X636729Y-9401722D02*
X646253Y-9420770D01*
X646253Y-9420770D02*
X646253Y-9468389D01*
X646253Y-9468389D02*
X636729Y-9487436D01*
X636729Y-9487436D02*
X627205Y-9496960D01*
X627205Y-9496960D02*
X608158Y-9506484D01*
X608158Y-9506484D02*
X560539Y-9506484D01*
X560539Y-9506484D02*
X541491Y-9496960D01*
X541491Y-9496960D02*
X531967Y-9487436D01*
X770062Y-9306484D02*
X789110Y-9306484D01*
X789110Y-9306484D02*
X808158Y-9316008D01*
X808158Y-9316008D02*
X817682Y-9325531D01*
X817682Y-9325531D02*
X827205Y-9344579D01*
X827205Y-9344579D02*
X836729Y-9382674D01*
X836729Y-9382674D02*
X836729Y-9430293D01*
X836729Y-9430293D02*
X827205Y-9468389D01*
X827205Y-9468389D02*
X817682Y-9487436D01*
X817682Y-9487436D02*
X808158Y-9496960D01*
X808158Y-9496960D02*
X789110Y-9506484D01*
X789110Y-9506484D02*
X770062Y-9506484D01*
X770062Y-9506484D02*
X751015Y-9496960D01*
X751015Y-9496960D02*
X741491Y-9487436D01*
X741491Y-9487436D02*
X731967Y-9468389D01*
X731967Y-9468389D02*
X722443Y-9430293D01*
X722443Y-9430293D02*
X722443Y-9382674D01*
X722443Y-9382674D02*
X731967Y-9344579D01*
X731967Y-9344579D02*
X741491Y-9325531D01*
X741491Y-9325531D02*
X751015Y-9316008D01*
X751015Y-9316008D02*
X770062Y-9306484D01*
X960539Y-9306484D02*
X979586Y-9306484D01*
X979586Y-9306484D02*
X998634Y-9316008D01*
X998634Y-9316008D02*
X1008158Y-9325531D01*
X1008158Y-9325531D02*
X1017682Y-9344579D01*
X1017682Y-9344579D02*
X1027205Y-9382674D01*
X1027205Y-9382674D02*
X1027205Y-9430293D01*
X1027205Y-9430293D02*
X1017682Y-9468389D01*
X1017682Y-9468389D02*
X1008158Y-9487436D01*
X1008158Y-9487436D02*
X998634Y-9496960D01*
X998634Y-9496960D02*
X979586Y-9506484D01*
X979586Y-9506484D02*
X960539Y-9506484D01*
X960539Y-9506484D02*
X941491Y-9496960D01*
X941491Y-9496960D02*
X931967Y-9487436D01*
X931967Y-9487436D02*
X922443Y-9468389D01*
X922443Y-9468389D02*
X912920Y-9430293D01*
X912920Y-9430293D02*
X912920Y-9382674D01*
X912920Y-9382674D02*
X922443Y-9344579D01*
X922443Y-9344579D02*
X931967Y-9325531D01*
X931967Y-9325531D02*
X941491Y-9316008D01*
X941491Y-9316008D02*
X960539Y-9306484D01*
X1112920Y-9506484D02*
X1112920Y-9373150D01*
X1112920Y-9392198D02*
X1122444Y-9382674D01*
X1122444Y-9382674D02*
X1141491Y-9373150D01*
X1141491Y-9373150D02*
X1170063Y-9373150D01*
X1170063Y-9373150D02*
X1189110Y-9382674D01*
X1189110Y-9382674D02*
X1198634Y-9401722D01*
X1198634Y-9401722D02*
X1198634Y-9506484D01*
X1198634Y-9401722D02*
X1208158Y-9382674D01*
X1208158Y-9382674D02*
X1227205Y-9373150D01*
X1227205Y-9373150D02*
X1255777Y-9373150D01*
X1255777Y-9373150D02*
X1274825Y-9382674D01*
X1274825Y-9382674D02*
X1284348Y-9401722D01*
X1284348Y-9401722D02*
X1284348Y-9506484D01*
X1379586Y-9506484D02*
X1379586Y-9373150D01*
X1379586Y-9392198D02*
X1389110Y-9382674D01*
X1389110Y-9382674D02*
X1408158Y-9373150D01*
X1408158Y-9373150D02*
X1436729Y-9373150D01*
X1436729Y-9373150D02*
X1455777Y-9382674D01*
X1455777Y-9382674D02*
X1465301Y-9401722D01*
X1465301Y-9401722D02*
X1465301Y-9506484D01*
X1465301Y-9401722D02*
X1474824Y-9382674D01*
X1474824Y-9382674D02*
X1493872Y-9373150D01*
X1493872Y-9373150D02*
X1522443Y-9373150D01*
X1522443Y-9373150D02*
X1541491Y-9382674D01*
X1541491Y-9382674D02*
X1551015Y-9401722D01*
X1551015Y-9401722D02*
X1551015Y-9506484D01*
X1941491Y-9296960D02*
X1770063Y-9554103D01*
X2198634Y-9306484D02*
X2217682Y-9306484D01*
X2217682Y-9306484D02*
X2236729Y-9316008D01*
X2236729Y-9316008D02*
X2246253Y-9325531D01*
X2246253Y-9325531D02*
X2255777Y-9344579D01*
X2255777Y-9344579D02*
X2265301Y-9382674D01*
X2265301Y-9382674D02*
X2265301Y-9430293D01*
X2265301Y-9430293D02*
X2255777Y-9468389D01*
X2255777Y-9468389D02*
X2246253Y-9487436D01*
X2246253Y-9487436D02*
X2236729Y-9496960D01*
X2236729Y-9496960D02*
X2217682Y-9506484D01*
X2217682Y-9506484D02*
X2198634Y-9506484D01*
X2198634Y-9506484D02*
X2179587Y-9496960D01*
X2179587Y-9496960D02*
X2170063Y-9487436D01*
X2170063Y-9487436D02*
X2160539Y-9468389D01*
X2160539Y-9468389D02*
X2151015Y-9430293D01*
X2151015Y-9430293D02*
X2151015Y-9382674D01*
X2151015Y-9382674D02*
X2160539Y-9344579D01*
X2160539Y-9344579D02*
X2170063Y-9325531D01*
X2170063Y-9325531D02*
X2179587Y-9316008D01*
X2179587Y-9316008D02*
X2198634Y-9306484D01*
X2351015Y-9487436D02*
X2360539Y-9496960D01*
X2360539Y-9496960D02*
X2351015Y-9506484D01*
X2351015Y-9506484D02*
X2341491Y-9496960D01*
X2341491Y-9496960D02*
X2351015Y-9487436D01*
X2351015Y-9487436D02*
X2351015Y-9506484D01*
X2484348Y-9306484D02*
X2503396Y-9306484D01*
X2503396Y-9306484D02*
X2522444Y-9316008D01*
X2522444Y-9316008D02*
X2531968Y-9325531D01*
X2531968Y-9325531D02*
X2541491Y-9344579D01*
X2541491Y-9344579D02*
X2551015Y-9382674D01*
X2551015Y-9382674D02*
X2551015Y-9430293D01*
X2551015Y-9430293D02*
X2541491Y-9468389D01*
X2541491Y-9468389D02*
X2531968Y-9487436D01*
X2531968Y-9487436D02*
X2522444Y-9496960D01*
X2522444Y-9496960D02*
X2503396Y-9506484D01*
X2503396Y-9506484D02*
X2484348Y-9506484D01*
X2484348Y-9506484D02*
X2465301Y-9496960D01*
X2465301Y-9496960D02*
X2455777Y-9487436D01*
X2455777Y-9487436D02*
X2446253Y-9468389D01*
X2446253Y-9468389D02*
X2436729Y-9430293D01*
X2436729Y-9430293D02*
X2436729Y-9382674D01*
X2436729Y-9382674D02*
X2446253Y-9344579D01*
X2446253Y-9344579D02*
X2455777Y-9325531D01*
X2455777Y-9325531D02*
X2465301Y-9316008D01*
X2465301Y-9316008D02*
X2484348Y-9306484D01*
X2731968Y-9306484D02*
X2636729Y-9306484D01*
X2636729Y-9306484D02*
X2627206Y-9401722D01*
X2627206Y-9401722D02*
X2636729Y-9392198D01*
X2636729Y-9392198D02*
X2655777Y-9382674D01*
X2655777Y-9382674D02*
X2703396Y-9382674D01*
X2703396Y-9382674D02*
X2722444Y-9392198D01*
X2722444Y-9392198D02*
X2731968Y-9401722D01*
X2731968Y-9401722D02*
X2741491Y-9420770D01*
X2741491Y-9420770D02*
X2741491Y-9468389D01*
X2741491Y-9468389D02*
X2731968Y-9487436D01*
X2731968Y-9487436D02*
X2722444Y-9496960D01*
X2722444Y-9496960D02*
X2703396Y-9506484D01*
X2703396Y-9506484D02*
X2655777Y-9506484D01*
X2655777Y-9506484D02*
X2636729Y-9496960D01*
X2636729Y-9496960D02*
X2627206Y-9487436D01*
X2836729Y-9506484D02*
X2874825Y-9506484D01*
X2874825Y-9506484D02*
X2893872Y-9496960D01*
X2893872Y-9496960D02*
X2903396Y-9487436D01*
X2903396Y-9487436D02*
X2922444Y-9458865D01*
X2922444Y-9458865D02*
X2931967Y-9420770D01*
X2931967Y-9420770D02*
X2931967Y-9344579D01*
X2931967Y-9344579D02*
X2922444Y-9325531D01*
X2922444Y-9325531D02*
X2912920Y-9316008D01*
X2912920Y-9316008D02*
X2893872Y-9306484D01*
X2893872Y-9306484D02*
X2855777Y-9306484D01*
X2855777Y-9306484D02*
X2836729Y-9316008D01*
X2836729Y-9316008D02*
X2827206Y-9325531D01*
X2827206Y-9325531D02*
X2817682Y-9344579D01*
X2817682Y-9344579D02*
X2817682Y-9392198D01*
X2817682Y-9392198D02*
X2827206Y-9411246D01*
X2827206Y-9411246D02*
X2836729Y-9420770D01*
X2836729Y-9420770D02*
X2855777Y-9430293D01*
X2855777Y-9430293D02*
X2893872Y-9430293D01*
X2893872Y-9430293D02*
X2912920Y-9420770D01*
X2912920Y-9420770D02*
X2922444Y-9411246D01*
X2922444Y-9411246D02*
X2931967Y-9392198D01*
X3122444Y-9506484D02*
X3008158Y-9506484D01*
X3065301Y-9506484D02*
X3065301Y-9306484D01*
X3065301Y-9306484D02*
X3046253Y-9335055D01*
X3046253Y-9335055D02*
X3027206Y-9354103D01*
X3027206Y-9354103D02*
X3008158Y-9363627D01*
X3198634Y-9306484D02*
X3198634Y-9344579D01*
X3274825Y-9306484D02*
X3274825Y-9344579D01*
X3570063Y-9582674D02*
X3560539Y-9573150D01*
X3560539Y-9573150D02*
X3541491Y-9544579D01*
X3541491Y-9544579D02*
X3531968Y-9525531D01*
X3531968Y-9525531D02*
X3522444Y-9496960D01*
X3522444Y-9496960D02*
X3512920Y-9449341D01*
X3512920Y-9449341D02*
X3512920Y-9411246D01*
X3512920Y-9411246D02*
X3522444Y-9363627D01*
X3522444Y-9363627D02*
X3531968Y-9335055D01*
X3531968Y-9335055D02*
X3541491Y-9316008D01*
X3541491Y-9316008D02*
X3560539Y-9287436D01*
X3560539Y-9287436D02*
X3570063Y-9277912D01*
X3636729Y-9325531D02*
X3646253Y-9316008D01*
X3646253Y-9316008D02*
X3665301Y-9306484D01*
X3665301Y-9306484D02*
X3712920Y-9306484D01*
X3712920Y-9306484D02*
X3731968Y-9316008D01*
X3731968Y-9316008D02*
X3741491Y-9325531D01*
X3741491Y-9325531D02*
X3751015Y-9344579D01*
X3751015Y-9344579D02*
X3751015Y-9363627D01*
X3751015Y-9363627D02*
X3741491Y-9392198D01*
X3741491Y-9392198D02*
X3627206Y-9506484D01*
X3627206Y-9506484D02*
X3751015Y-9506484D01*
X3922444Y-9373150D02*
X3922444Y-9506484D01*
X3874825Y-9296960D02*
X3827206Y-9439817D01*
X3827206Y-9439817D02*
X3951015Y-9439817D01*
X4179587Y-9506484D02*
X4179587Y-9306484D01*
X4265301Y-9506484D02*
X4265301Y-9401722D01*
X4265301Y-9401722D02*
X4255777Y-9382674D01*
X4255777Y-9382674D02*
X4236730Y-9373150D01*
X4236730Y-9373150D02*
X4208158Y-9373150D01*
X4208158Y-9373150D02*
X4189110Y-9382674D01*
X4189110Y-9382674D02*
X4179587Y-9392198D01*
X4389111Y-9506484D02*
X4370063Y-9496960D01*
X4370063Y-9496960D02*
X4360539Y-9487436D01*
X4360539Y-9487436D02*
X4351015Y-9468389D01*
X4351015Y-9468389D02*
X4351015Y-9411246D01*
X4351015Y-9411246D02*
X4360539Y-9392198D01*
X4360539Y-9392198D02*
X4370063Y-9382674D01*
X4370063Y-9382674D02*
X4389111Y-9373150D01*
X4389111Y-9373150D02*
X4417682Y-9373150D01*
X4417682Y-9373150D02*
X4436730Y-9382674D01*
X4436730Y-9382674D02*
X4446253Y-9392198D01*
X4446253Y-9392198D02*
X4455777Y-9411246D01*
X4455777Y-9411246D02*
X4455777Y-9468389D01*
X4455777Y-9468389D02*
X4446253Y-9487436D01*
X4446253Y-9487436D02*
X4436730Y-9496960D01*
X4436730Y-9496960D02*
X4417682Y-9506484D01*
X4417682Y-9506484D02*
X4389111Y-9506484D01*
X4570063Y-9506484D02*
X4551015Y-9496960D01*
X4551015Y-9496960D02*
X4541492Y-9477912D01*
X4541492Y-9477912D02*
X4541492Y-9306484D01*
X4722444Y-9496960D02*
X4703396Y-9506484D01*
X4703396Y-9506484D02*
X4665301Y-9506484D01*
X4665301Y-9506484D02*
X4646253Y-9496960D01*
X4646253Y-9496960D02*
X4636730Y-9477912D01*
X4636730Y-9477912D02*
X4636730Y-9401722D01*
X4636730Y-9401722D02*
X4646253Y-9382674D01*
X4646253Y-9382674D02*
X4665301Y-9373150D01*
X4665301Y-9373150D02*
X4703396Y-9373150D01*
X4703396Y-9373150D02*
X4722444Y-9382674D01*
X4722444Y-9382674D02*
X4731968Y-9401722D01*
X4731968Y-9401722D02*
X4731968Y-9420770D01*
X4731968Y-9420770D02*
X4636730Y-9439817D01*
X4808158Y-9496960D02*
X4827206Y-9506484D01*
X4827206Y-9506484D02*
X4865301Y-9506484D01*
X4865301Y-9506484D02*
X4884349Y-9496960D01*
X4884349Y-9496960D02*
X4893873Y-9477912D01*
X4893873Y-9477912D02*
X4893873Y-9468389D01*
X4893873Y-9468389D02*
X4884349Y-9449341D01*
X4884349Y-9449341D02*
X4865301Y-9439817D01*
X4865301Y-9439817D02*
X4836730Y-9439817D01*
X4836730Y-9439817D02*
X4817682Y-9430293D01*
X4817682Y-9430293D02*
X4808158Y-9411246D01*
X4808158Y-9411246D02*
X4808158Y-9401722D01*
X4808158Y-9401722D02*
X4817682Y-9382674D01*
X4817682Y-9382674D02*
X4836730Y-9373150D01*
X4836730Y-9373150D02*
X4865301Y-9373150D01*
X4865301Y-9373150D02*
X4884349Y-9382674D01*
X4960539Y-9582674D02*
X4970063Y-9573150D01*
X4970063Y-9573150D02*
X4989111Y-9544579D01*
X4989111Y-9544579D02*
X4998634Y-9525531D01*
X4998634Y-9525531D02*
X5008158Y-9496960D01*
X5008158Y-9496960D02*
X5017682Y-9449341D01*
X5017682Y-9449341D02*
X5017682Y-9411246D01*
X5017682Y-9411246D02*
X5008158Y-9363627D01*
X5008158Y-9363627D02*
X4998634Y-9335055D01*
X4998634Y-9335055D02*
X4989111Y-9316008D01*
X4989111Y-9316008D02*
X4970063Y-9287436D01*
X4970063Y-9287436D02*
X4960539Y-9277912D01*
X-205000Y-9585000D02*
X-5000Y-9785000D01*
X-5000Y-9585000D02*
X-205000Y-9785000D01*
X-105000Y-9585000D02*
X-105000Y-9785000D01*
X-205000Y-9685000D02*
X-5000Y-9685000D01*
X246253Y-9595531D02*
X255777Y-9586008D01*
X255777Y-9586008D02*
X274824Y-9576484D01*
X274824Y-9576484D02*
X322444Y-9576484D01*
X322444Y-9576484D02*
X341491Y-9586008D01*
X341491Y-9586008D02*
X351015Y-9595531D01*
X351015Y-9595531D02*
X360539Y-9614579D01*
X360539Y-9614579D02*
X360539Y-9633627D01*
X360539Y-9633627D02*
X351015Y-9662198D01*
X351015Y-9662198D02*
X236729Y-9776484D01*
X236729Y-9776484D02*
X360539Y-9776484D01*
X446253Y-9757436D02*
X455777Y-9766960D01*
X455777Y-9766960D02*
X446253Y-9776484D01*
X446253Y-9776484D02*
X436729Y-9766960D01*
X436729Y-9766960D02*
X446253Y-9757436D01*
X446253Y-9757436D02*
X446253Y-9776484D01*
X579586Y-9576484D02*
X598634Y-9576484D01*
X598634Y-9576484D02*
X617682Y-9586008D01*
X617682Y-9586008D02*
X627205Y-9595531D01*
X627205Y-9595531D02*
X636729Y-9614579D01*
X636729Y-9614579D02*
X646253Y-9652674D01*
X646253Y-9652674D02*
X646253Y-9700293D01*
X646253Y-9700293D02*
X636729Y-9738389D01*
X636729Y-9738389D02*
X627205Y-9757436D01*
X627205Y-9757436D02*
X617682Y-9766960D01*
X617682Y-9766960D02*
X598634Y-9776484D01*
X598634Y-9776484D02*
X579586Y-9776484D01*
X579586Y-9776484D02*
X560539Y-9766960D01*
X560539Y-9766960D02*
X551015Y-9757436D01*
X551015Y-9757436D02*
X541491Y-9738389D01*
X541491Y-9738389D02*
X531967Y-9700293D01*
X531967Y-9700293D02*
X531967Y-9652674D01*
X531967Y-9652674D02*
X541491Y-9614579D01*
X541491Y-9614579D02*
X551015Y-9595531D01*
X551015Y-9595531D02*
X560539Y-9586008D01*
X560539Y-9586008D02*
X579586Y-9576484D01*
X770062Y-9576484D02*
X789110Y-9576484D01*
X789110Y-9576484D02*
X808158Y-9586008D01*
X808158Y-9586008D02*
X817682Y-9595531D01*
X817682Y-9595531D02*
X827205Y-9614579D01*
X827205Y-9614579D02*
X836729Y-9652674D01*
X836729Y-9652674D02*
X836729Y-9700293D01*
X836729Y-9700293D02*
X827205Y-9738389D01*
X827205Y-9738389D02*
X817682Y-9757436D01*
X817682Y-9757436D02*
X808158Y-9766960D01*
X808158Y-9766960D02*
X789110Y-9776484D01*
X789110Y-9776484D02*
X770062Y-9776484D01*
X770062Y-9776484D02*
X751015Y-9766960D01*
X751015Y-9766960D02*
X741491Y-9757436D01*
X741491Y-9757436D02*
X731967Y-9738389D01*
X731967Y-9738389D02*
X722443Y-9700293D01*
X722443Y-9700293D02*
X722443Y-9652674D01*
X722443Y-9652674D02*
X731967Y-9614579D01*
X731967Y-9614579D02*
X741491Y-9595531D01*
X741491Y-9595531D02*
X751015Y-9586008D01*
X751015Y-9586008D02*
X770062Y-9576484D01*
X960539Y-9576484D02*
X979586Y-9576484D01*
X979586Y-9576484D02*
X998634Y-9586008D01*
X998634Y-9586008D02*
X1008158Y-9595531D01*
X1008158Y-9595531D02*
X1017682Y-9614579D01*
X1017682Y-9614579D02*
X1027205Y-9652674D01*
X1027205Y-9652674D02*
X1027205Y-9700293D01*
X1027205Y-9700293D02*
X1017682Y-9738389D01*
X1017682Y-9738389D02*
X1008158Y-9757436D01*
X1008158Y-9757436D02*
X998634Y-9766960D01*
X998634Y-9766960D02*
X979586Y-9776484D01*
X979586Y-9776484D02*
X960539Y-9776484D01*
X960539Y-9776484D02*
X941491Y-9766960D01*
X941491Y-9766960D02*
X931967Y-9757436D01*
X931967Y-9757436D02*
X922443Y-9738389D01*
X922443Y-9738389D02*
X912920Y-9700293D01*
X912920Y-9700293D02*
X912920Y-9652674D01*
X912920Y-9652674D02*
X922443Y-9614579D01*
X922443Y-9614579D02*
X931967Y-9595531D01*
X931967Y-9595531D02*
X941491Y-9586008D01*
X941491Y-9586008D02*
X960539Y-9576484D01*
X1112920Y-9776484D02*
X1112920Y-9643150D01*
X1112920Y-9662198D02*
X1122444Y-9652674D01*
X1122444Y-9652674D02*
X1141491Y-9643150D01*
X1141491Y-9643150D02*
X1170063Y-9643150D01*
X1170063Y-9643150D02*
X1189110Y-9652674D01*
X1189110Y-9652674D02*
X1198634Y-9671722D01*
X1198634Y-9671722D02*
X1198634Y-9776484D01*
X1198634Y-9671722D02*
X1208158Y-9652674D01*
X1208158Y-9652674D02*
X1227205Y-9643150D01*
X1227205Y-9643150D02*
X1255777Y-9643150D01*
X1255777Y-9643150D02*
X1274825Y-9652674D01*
X1274825Y-9652674D02*
X1284348Y-9671722D01*
X1284348Y-9671722D02*
X1284348Y-9776484D01*
X1379586Y-9776484D02*
X1379586Y-9643150D01*
X1379586Y-9662198D02*
X1389110Y-9652674D01*
X1389110Y-9652674D02*
X1408158Y-9643150D01*
X1408158Y-9643150D02*
X1436729Y-9643150D01*
X1436729Y-9643150D02*
X1455777Y-9652674D01*
X1455777Y-9652674D02*
X1465301Y-9671722D01*
X1465301Y-9671722D02*
X1465301Y-9776484D01*
X1465301Y-9671722D02*
X1474824Y-9652674D01*
X1474824Y-9652674D02*
X1493872Y-9643150D01*
X1493872Y-9643150D02*
X1522443Y-9643150D01*
X1522443Y-9643150D02*
X1541491Y-9652674D01*
X1541491Y-9652674D02*
X1551015Y-9671722D01*
X1551015Y-9671722D02*
X1551015Y-9776484D01*
X1941491Y-9566960D02*
X1770063Y-9824103D01*
X2198634Y-9576484D02*
X2217682Y-9576484D01*
X2217682Y-9576484D02*
X2236729Y-9586008D01*
X2236729Y-9586008D02*
X2246253Y-9595531D01*
X2246253Y-9595531D02*
X2255777Y-9614579D01*
X2255777Y-9614579D02*
X2265301Y-9652674D01*
X2265301Y-9652674D02*
X2265301Y-9700293D01*
X2265301Y-9700293D02*
X2255777Y-9738389D01*
X2255777Y-9738389D02*
X2246253Y-9757436D01*
X2246253Y-9757436D02*
X2236729Y-9766960D01*
X2236729Y-9766960D02*
X2217682Y-9776484D01*
X2217682Y-9776484D02*
X2198634Y-9776484D01*
X2198634Y-9776484D02*
X2179587Y-9766960D01*
X2179587Y-9766960D02*
X2170063Y-9757436D01*
X2170063Y-9757436D02*
X2160539Y-9738389D01*
X2160539Y-9738389D02*
X2151015Y-9700293D01*
X2151015Y-9700293D02*
X2151015Y-9652674D01*
X2151015Y-9652674D02*
X2160539Y-9614579D01*
X2160539Y-9614579D02*
X2170063Y-9595531D01*
X2170063Y-9595531D02*
X2179587Y-9586008D01*
X2179587Y-9586008D02*
X2198634Y-9576484D01*
X2351015Y-9757436D02*
X2360539Y-9766960D01*
X2360539Y-9766960D02*
X2351015Y-9776484D01*
X2351015Y-9776484D02*
X2341491Y-9766960D01*
X2341491Y-9766960D02*
X2351015Y-9757436D01*
X2351015Y-9757436D02*
X2351015Y-9776484D01*
X2484348Y-9576484D02*
X2503396Y-9576484D01*
X2503396Y-9576484D02*
X2522444Y-9586008D01*
X2522444Y-9586008D02*
X2531968Y-9595531D01*
X2531968Y-9595531D02*
X2541491Y-9614579D01*
X2541491Y-9614579D02*
X2551015Y-9652674D01*
X2551015Y-9652674D02*
X2551015Y-9700293D01*
X2551015Y-9700293D02*
X2541491Y-9738389D01*
X2541491Y-9738389D02*
X2531968Y-9757436D01*
X2531968Y-9757436D02*
X2522444Y-9766960D01*
X2522444Y-9766960D02*
X2503396Y-9776484D01*
X2503396Y-9776484D02*
X2484348Y-9776484D01*
X2484348Y-9776484D02*
X2465301Y-9766960D01*
X2465301Y-9766960D02*
X2455777Y-9757436D01*
X2455777Y-9757436D02*
X2446253Y-9738389D01*
X2446253Y-9738389D02*
X2436729Y-9700293D01*
X2436729Y-9700293D02*
X2436729Y-9652674D01*
X2436729Y-9652674D02*
X2446253Y-9614579D01*
X2446253Y-9614579D02*
X2455777Y-9595531D01*
X2455777Y-9595531D02*
X2465301Y-9586008D01*
X2465301Y-9586008D02*
X2484348Y-9576484D01*
X2617682Y-9576484D02*
X2751015Y-9576484D01*
X2751015Y-9576484D02*
X2665301Y-9776484D01*
X2855777Y-9662198D02*
X2836729Y-9652674D01*
X2836729Y-9652674D02*
X2827206Y-9643150D01*
X2827206Y-9643150D02*
X2817682Y-9624103D01*
X2817682Y-9624103D02*
X2817682Y-9614579D01*
X2817682Y-9614579D02*
X2827206Y-9595531D01*
X2827206Y-9595531D02*
X2836729Y-9586008D01*
X2836729Y-9586008D02*
X2855777Y-9576484D01*
X2855777Y-9576484D02*
X2893872Y-9576484D01*
X2893872Y-9576484D02*
X2912920Y-9586008D01*
X2912920Y-9586008D02*
X2922444Y-9595531D01*
X2922444Y-9595531D02*
X2931967Y-9614579D01*
X2931967Y-9614579D02*
X2931967Y-9624103D01*
X2931967Y-9624103D02*
X2922444Y-9643150D01*
X2922444Y-9643150D02*
X2912920Y-9652674D01*
X2912920Y-9652674D02*
X2893872Y-9662198D01*
X2893872Y-9662198D02*
X2855777Y-9662198D01*
X2855777Y-9662198D02*
X2836729Y-9671722D01*
X2836729Y-9671722D02*
X2827206Y-9681246D01*
X2827206Y-9681246D02*
X2817682Y-9700293D01*
X2817682Y-9700293D02*
X2817682Y-9738389D01*
X2817682Y-9738389D02*
X2827206Y-9757436D01*
X2827206Y-9757436D02*
X2836729Y-9766960D01*
X2836729Y-9766960D02*
X2855777Y-9776484D01*
X2855777Y-9776484D02*
X2893872Y-9776484D01*
X2893872Y-9776484D02*
X2912920Y-9766960D01*
X2912920Y-9766960D02*
X2922444Y-9757436D01*
X2922444Y-9757436D02*
X2931967Y-9738389D01*
X2931967Y-9738389D02*
X2931967Y-9700293D01*
X2931967Y-9700293D02*
X2922444Y-9681246D01*
X2922444Y-9681246D02*
X2912920Y-9671722D01*
X2912920Y-9671722D02*
X2893872Y-9662198D01*
X2998634Y-9576484D02*
X3131967Y-9576484D01*
X3131967Y-9576484D02*
X3046253Y-9776484D01*
X3198634Y-9576484D02*
X3198634Y-9614579D01*
X3274825Y-9576484D02*
X3274825Y-9614579D01*
X3570063Y-9852674D02*
X3560539Y-9843150D01*
X3560539Y-9843150D02*
X3541491Y-9814579D01*
X3541491Y-9814579D02*
X3531968Y-9795531D01*
X3531968Y-9795531D02*
X3522444Y-9766960D01*
X3522444Y-9766960D02*
X3512920Y-9719341D01*
X3512920Y-9719341D02*
X3512920Y-9681246D01*
X3512920Y-9681246D02*
X3522444Y-9633627D01*
X3522444Y-9633627D02*
X3531968Y-9605055D01*
X3531968Y-9605055D02*
X3541491Y-9586008D01*
X3541491Y-9586008D02*
X3560539Y-9557436D01*
X3560539Y-9557436D02*
X3570063Y-9547912D01*
X3674825Y-9662198D02*
X3655777Y-9652674D01*
X3655777Y-9652674D02*
X3646253Y-9643150D01*
X3646253Y-9643150D02*
X3636729Y-9624103D01*
X3636729Y-9624103D02*
X3636729Y-9614579D01*
X3636729Y-9614579D02*
X3646253Y-9595531D01*
X3646253Y-9595531D02*
X3655777Y-9586008D01*
X3655777Y-9586008D02*
X3674825Y-9576484D01*
X3674825Y-9576484D02*
X3712920Y-9576484D01*
X3712920Y-9576484D02*
X3731968Y-9586008D01*
X3731968Y-9586008D02*
X3741491Y-9595531D01*
X3741491Y-9595531D02*
X3751015Y-9614579D01*
X3751015Y-9614579D02*
X3751015Y-9624103D01*
X3751015Y-9624103D02*
X3741491Y-9643150D01*
X3741491Y-9643150D02*
X3731968Y-9652674D01*
X3731968Y-9652674D02*
X3712920Y-9662198D01*
X3712920Y-9662198D02*
X3674825Y-9662198D01*
X3674825Y-9662198D02*
X3655777Y-9671722D01*
X3655777Y-9671722D02*
X3646253Y-9681246D01*
X3646253Y-9681246D02*
X3636729Y-9700293D01*
X3636729Y-9700293D02*
X3636729Y-9738389D01*
X3636729Y-9738389D02*
X3646253Y-9757436D01*
X3646253Y-9757436D02*
X3655777Y-9766960D01*
X3655777Y-9766960D02*
X3674825Y-9776484D01*
X3674825Y-9776484D02*
X3712920Y-9776484D01*
X3712920Y-9776484D02*
X3731968Y-9766960D01*
X3731968Y-9766960D02*
X3741491Y-9757436D01*
X3741491Y-9757436D02*
X3751015Y-9738389D01*
X3751015Y-9738389D02*
X3751015Y-9700293D01*
X3751015Y-9700293D02*
X3741491Y-9681246D01*
X3741491Y-9681246D02*
X3731968Y-9671722D01*
X3731968Y-9671722D02*
X3712920Y-9662198D01*
X3989110Y-9776484D02*
X3989110Y-9576484D01*
X4074825Y-9776484D02*
X4074825Y-9671722D01*
X4074825Y-9671722D02*
X4065301Y-9652674D01*
X4065301Y-9652674D02*
X4046253Y-9643150D01*
X4046253Y-9643150D02*
X4017682Y-9643150D01*
X4017682Y-9643150D02*
X3998634Y-9652674D01*
X3998634Y-9652674D02*
X3989110Y-9662198D01*
X4198634Y-9776484D02*
X4179587Y-9766960D01*
X4179587Y-9766960D02*
X4170063Y-9757436D01*
X4170063Y-9757436D02*
X4160539Y-9738389D01*
X4160539Y-9738389D02*
X4160539Y-9681246D01*
X4160539Y-9681246D02*
X4170063Y-9662198D01*
X4170063Y-9662198D02*
X4179587Y-9652674D01*
X4179587Y-9652674D02*
X4198634Y-9643150D01*
X4198634Y-9643150D02*
X4227206Y-9643150D01*
X4227206Y-9643150D02*
X4246253Y-9652674D01*
X4246253Y-9652674D02*
X4255777Y-9662198D01*
X4255777Y-9662198D02*
X4265301Y-9681246D01*
X4265301Y-9681246D02*
X4265301Y-9738389D01*
X4265301Y-9738389D02*
X4255777Y-9757436D01*
X4255777Y-9757436D02*
X4246253Y-9766960D01*
X4246253Y-9766960D02*
X4227206Y-9776484D01*
X4227206Y-9776484D02*
X4198634Y-9776484D01*
X4379587Y-9776484D02*
X4360539Y-9766960D01*
X4360539Y-9766960D02*
X4351015Y-9747912D01*
X4351015Y-9747912D02*
X4351015Y-9576484D01*
X4531968Y-9766960D02*
X4512920Y-9776484D01*
X4512920Y-9776484D02*
X4474825Y-9776484D01*
X4474825Y-9776484D02*
X4455777Y-9766960D01*
X4455777Y-9766960D02*
X4446253Y-9747912D01*
X4446253Y-9747912D02*
X4446253Y-9671722D01*
X4446253Y-9671722D02*
X4455777Y-9652674D01*
X4455777Y-9652674D02*
X4474825Y-9643150D01*
X4474825Y-9643150D02*
X4512920Y-9643150D01*
X4512920Y-9643150D02*
X4531968Y-9652674D01*
X4531968Y-9652674D02*
X4541492Y-9671722D01*
X4541492Y-9671722D02*
X4541492Y-9690770D01*
X4541492Y-9690770D02*
X4446253Y-9709817D01*
X4617682Y-9766960D02*
X4636730Y-9776484D01*
X4636730Y-9776484D02*
X4674825Y-9776484D01*
X4674825Y-9776484D02*
X4693873Y-9766960D01*
X4693873Y-9766960D02*
X4703396Y-9747912D01*
X4703396Y-9747912D02*
X4703396Y-9738389D01*
X4703396Y-9738389D02*
X4693873Y-9719341D01*
X4693873Y-9719341D02*
X4674825Y-9709817D01*
X4674825Y-9709817D02*
X4646253Y-9709817D01*
X4646253Y-9709817D02*
X4627206Y-9700293D01*
X4627206Y-9700293D02*
X4617682Y-9681246D01*
X4617682Y-9681246D02*
X4617682Y-9671722D01*
X4617682Y-9671722D02*
X4627206Y-9652674D01*
X4627206Y-9652674D02*
X4646253Y-9643150D01*
X4646253Y-9643150D02*
X4674825Y-9643150D01*
X4674825Y-9643150D02*
X4693873Y-9652674D01*
X4770063Y-9852674D02*
X4779587Y-9843150D01*
X4779587Y-9843150D02*
X4798634Y-9814579D01*
X4798634Y-9814579D02*
X4808158Y-9795531D01*
X4808158Y-9795531D02*
X4817682Y-9766960D01*
X4817682Y-9766960D02*
X4827206Y-9719341D01*
X4827206Y-9719341D02*
X4827206Y-9681246D01*
X4827206Y-9681246D02*
X4817682Y-9633627D01*
X4817682Y-9633627D02*
X4808158Y-9605055D01*
X4808158Y-9605055D02*
X4798634Y-9586008D01*
X4798634Y-9586008D02*
X4779587Y-9557436D01*
X4779587Y-9557436D02*
X4770063Y-9547912D01*
X5131968Y-9852674D02*
X5122444Y-9843150D01*
X5122444Y-9843150D02*
X5103396Y-9814579D01*
X5103396Y-9814579D02*
X5093873Y-9795531D01*
X5093873Y-9795531D02*
X5084349Y-9766960D01*
X5084349Y-9766960D02*
X5074825Y-9719341D01*
X5074825Y-9719341D02*
X5074825Y-9681246D01*
X5074825Y-9681246D02*
X5084349Y-9633627D01*
X5084349Y-9633627D02*
X5093873Y-9605055D01*
X5093873Y-9605055D02*
X5103396Y-9586008D01*
X5103396Y-9586008D02*
X5122444Y-9557436D01*
X5122444Y-9557436D02*
X5131968Y-9547912D01*
X5208158Y-9643150D02*
X5208158Y-9776484D01*
X5208158Y-9662198D02*
X5217682Y-9652674D01*
X5217682Y-9652674D02*
X5236730Y-9643150D01*
X5236730Y-9643150D02*
X5265301Y-9643150D01*
X5265301Y-9643150D02*
X5284349Y-9652674D01*
X5284349Y-9652674D02*
X5293873Y-9671722D01*
X5293873Y-9671722D02*
X5293873Y-9776484D01*
X5417682Y-9776484D02*
X5398634Y-9766960D01*
X5398634Y-9766960D02*
X5389111Y-9757436D01*
X5389111Y-9757436D02*
X5379587Y-9738389D01*
X5379587Y-9738389D02*
X5379587Y-9681246D01*
X5379587Y-9681246D02*
X5389111Y-9662198D01*
X5389111Y-9662198D02*
X5398634Y-9652674D01*
X5398634Y-9652674D02*
X5417682Y-9643150D01*
X5417682Y-9643150D02*
X5446254Y-9643150D01*
X5446254Y-9643150D02*
X5465301Y-9652674D01*
X5465301Y-9652674D02*
X5474825Y-9662198D01*
X5474825Y-9662198D02*
X5484349Y-9681246D01*
X5484349Y-9681246D02*
X5484349Y-9738389D01*
X5484349Y-9738389D02*
X5474825Y-9757436D01*
X5474825Y-9757436D02*
X5465301Y-9766960D01*
X5465301Y-9766960D02*
X5446254Y-9776484D01*
X5446254Y-9776484D02*
X5417682Y-9776484D01*
X5541492Y-9643150D02*
X5617682Y-9643150D01*
X5570063Y-9576484D02*
X5570063Y-9747912D01*
X5570063Y-9747912D02*
X5579587Y-9766960D01*
X5579587Y-9766960D02*
X5598634Y-9776484D01*
X5598634Y-9776484D02*
X5617682Y-9776484D01*
X5836730Y-9643150D02*
X5836730Y-9843150D01*
X5836730Y-9652674D02*
X5855777Y-9643150D01*
X5855777Y-9643150D02*
X5893873Y-9643150D01*
X5893873Y-9643150D02*
X5912920Y-9652674D01*
X5912920Y-9652674D02*
X5922444Y-9662198D01*
X5922444Y-9662198D02*
X5931968Y-9681246D01*
X5931968Y-9681246D02*
X5931968Y-9738389D01*
X5931968Y-9738389D02*
X5922444Y-9757436D01*
X5922444Y-9757436D02*
X5912920Y-9766960D01*
X5912920Y-9766960D02*
X5893873Y-9776484D01*
X5893873Y-9776484D02*
X5855777Y-9776484D01*
X5855777Y-9776484D02*
X5836730Y-9766960D01*
X6046253Y-9776484D02*
X6027206Y-9766960D01*
X6027206Y-9766960D02*
X6017682Y-9747912D01*
X6017682Y-9747912D02*
X6017682Y-9576484D01*
X6208158Y-9776484D02*
X6208158Y-9671722D01*
X6208158Y-9671722D02*
X6198634Y-9652674D01*
X6198634Y-9652674D02*
X6179587Y-9643150D01*
X6179587Y-9643150D02*
X6141492Y-9643150D01*
X6141492Y-9643150D02*
X6122444Y-9652674D01*
X6208158Y-9766960D02*
X6189111Y-9776484D01*
X6189111Y-9776484D02*
X6141492Y-9776484D01*
X6141492Y-9776484D02*
X6122444Y-9766960D01*
X6122444Y-9766960D02*
X6112920Y-9747912D01*
X6112920Y-9747912D02*
X6112920Y-9728865D01*
X6112920Y-9728865D02*
X6122444Y-9709817D01*
X6122444Y-9709817D02*
X6141492Y-9700293D01*
X6141492Y-9700293D02*
X6189111Y-9700293D01*
X6189111Y-9700293D02*
X6208158Y-9690770D01*
X6274825Y-9643150D02*
X6351015Y-9643150D01*
X6303396Y-9576484D02*
X6303396Y-9747912D01*
X6303396Y-9747912D02*
X6312920Y-9766960D01*
X6312920Y-9766960D02*
X6331968Y-9776484D01*
X6331968Y-9776484D02*
X6351015Y-9776484D01*
X6493873Y-9766960D02*
X6474825Y-9776484D01*
X6474825Y-9776484D02*
X6436730Y-9776484D01*
X6436730Y-9776484D02*
X6417682Y-9766960D01*
X6417682Y-9766960D02*
X6408158Y-9747912D01*
X6408158Y-9747912D02*
X6408158Y-9671722D01*
X6408158Y-9671722D02*
X6417682Y-9652674D01*
X6417682Y-9652674D02*
X6436730Y-9643150D01*
X6436730Y-9643150D02*
X6474825Y-9643150D01*
X6474825Y-9643150D02*
X6493873Y-9652674D01*
X6493873Y-9652674D02*
X6503396Y-9671722D01*
X6503396Y-9671722D02*
X6503396Y-9690770D01*
X6503396Y-9690770D02*
X6408158Y-9709817D01*
X6674825Y-9776484D02*
X6674825Y-9576484D01*
X6674825Y-9766960D02*
X6655777Y-9776484D01*
X6655777Y-9776484D02*
X6617682Y-9776484D01*
X6617682Y-9776484D02*
X6598634Y-9766960D01*
X6598634Y-9766960D02*
X6589111Y-9757436D01*
X6589111Y-9757436D02*
X6579587Y-9738389D01*
X6579587Y-9738389D02*
X6579587Y-9681246D01*
X6579587Y-9681246D02*
X6589111Y-9662198D01*
X6589111Y-9662198D02*
X6598634Y-9652674D01*
X6598634Y-9652674D02*
X6617682Y-9643150D01*
X6617682Y-9643150D02*
X6655777Y-9643150D01*
X6655777Y-9643150D02*
X6674825Y-9652674D01*
X6751015Y-9852674D02*
X6760539Y-9843150D01*
X6760539Y-9843150D02*
X6779587Y-9814579D01*
X6779587Y-9814579D02*
X6789111Y-9795531D01*
X6789111Y-9795531D02*
X6798634Y-9766960D01*
X6798634Y-9766960D02*
X6808158Y-9719341D01*
X6808158Y-9719341D02*
X6808158Y-9681246D01*
X6808158Y-9681246D02*
X6798634Y-9633627D01*
X6798634Y-9633627D02*
X6789111Y-9605055D01*
X6789111Y-9605055D02*
X6779587Y-9586008D01*
X6779587Y-9586008D02*
X6760539Y-9557436D01*
X6760539Y-9557436D02*
X6751015Y-9547912D01*
X-205000Y-9905000D02*
X-5000Y-10105000D01*
X-5000Y-9905000D02*
X-205000Y-10105000D01*
X-34289Y-10075711D02*
X-34289Y-9934289D01*
X-175711Y-9934289D01*
X-175711Y-10075711D01*
X-34289Y-10075711D01*
X236729Y-9896484D02*
X360539Y-9896484D01*
X360539Y-9896484D02*
X293872Y-9972674D01*
X293872Y-9972674D02*
X322444Y-9972674D01*
X322444Y-9972674D02*
X341491Y-9982198D01*
X341491Y-9982198D02*
X351015Y-9991722D01*
X351015Y-9991722D02*
X360539Y-10010770D01*
X360539Y-10010770D02*
X360539Y-10058389D01*
X360539Y-10058389D02*
X351015Y-10077436D01*
X351015Y-10077436D02*
X341491Y-10086960D01*
X341491Y-10086960D02*
X322444Y-10096484D01*
X322444Y-10096484D02*
X265301Y-10096484D01*
X265301Y-10096484D02*
X246253Y-10086960D01*
X246253Y-10086960D02*
X236729Y-10077436D01*
X446253Y-10077436D02*
X455777Y-10086960D01*
X455777Y-10086960D02*
X446253Y-10096484D01*
X446253Y-10096484D02*
X436729Y-10086960D01*
X436729Y-10086960D02*
X446253Y-10077436D01*
X446253Y-10077436D02*
X446253Y-10096484D01*
X579586Y-9896484D02*
X598634Y-9896484D01*
X598634Y-9896484D02*
X617682Y-9906008D01*
X617682Y-9906008D02*
X627205Y-9915531D01*
X627205Y-9915531D02*
X636729Y-9934579D01*
X636729Y-9934579D02*
X646253Y-9972674D01*
X646253Y-9972674D02*
X646253Y-10020293D01*
X646253Y-10020293D02*
X636729Y-10058389D01*
X636729Y-10058389D02*
X627205Y-10077436D01*
X627205Y-10077436D02*
X617682Y-10086960D01*
X617682Y-10086960D02*
X598634Y-10096484D01*
X598634Y-10096484D02*
X579586Y-10096484D01*
X579586Y-10096484D02*
X560539Y-10086960D01*
X560539Y-10086960D02*
X551015Y-10077436D01*
X551015Y-10077436D02*
X541491Y-10058389D01*
X541491Y-10058389D02*
X531967Y-10020293D01*
X531967Y-10020293D02*
X531967Y-9972674D01*
X531967Y-9972674D02*
X541491Y-9934579D01*
X541491Y-9934579D02*
X551015Y-9915531D01*
X551015Y-9915531D02*
X560539Y-9906008D01*
X560539Y-9906008D02*
X579586Y-9896484D01*
X770062Y-9896484D02*
X789110Y-9896484D01*
X789110Y-9896484D02*
X808158Y-9906008D01*
X808158Y-9906008D02*
X817682Y-9915531D01*
X817682Y-9915531D02*
X827205Y-9934579D01*
X827205Y-9934579D02*
X836729Y-9972674D01*
X836729Y-9972674D02*
X836729Y-10020293D01*
X836729Y-10020293D02*
X827205Y-10058389D01*
X827205Y-10058389D02*
X817682Y-10077436D01*
X817682Y-10077436D02*
X808158Y-10086960D01*
X808158Y-10086960D02*
X789110Y-10096484D01*
X789110Y-10096484D02*
X770062Y-10096484D01*
X770062Y-10096484D02*
X751015Y-10086960D01*
X751015Y-10086960D02*
X741491Y-10077436D01*
X741491Y-10077436D02*
X731967Y-10058389D01*
X731967Y-10058389D02*
X722443Y-10020293D01*
X722443Y-10020293D02*
X722443Y-9972674D01*
X722443Y-9972674D02*
X731967Y-9934579D01*
X731967Y-9934579D02*
X741491Y-9915531D01*
X741491Y-9915531D02*
X751015Y-9906008D01*
X751015Y-9906008D02*
X770062Y-9896484D01*
X960539Y-9896484D02*
X979586Y-9896484D01*
X979586Y-9896484D02*
X998634Y-9906008D01*
X998634Y-9906008D02*
X1008158Y-9915531D01*
X1008158Y-9915531D02*
X1017682Y-9934579D01*
X1017682Y-9934579D02*
X1027205Y-9972674D01*
X1027205Y-9972674D02*
X1027205Y-10020293D01*
X1027205Y-10020293D02*
X1017682Y-10058389D01*
X1017682Y-10058389D02*
X1008158Y-10077436D01*
X1008158Y-10077436D02*
X998634Y-10086960D01*
X998634Y-10086960D02*
X979586Y-10096484D01*
X979586Y-10096484D02*
X960539Y-10096484D01*
X960539Y-10096484D02*
X941491Y-10086960D01*
X941491Y-10086960D02*
X931967Y-10077436D01*
X931967Y-10077436D02*
X922443Y-10058389D01*
X922443Y-10058389D02*
X912920Y-10020293D01*
X912920Y-10020293D02*
X912920Y-9972674D01*
X912920Y-9972674D02*
X922443Y-9934579D01*
X922443Y-9934579D02*
X931967Y-9915531D01*
X931967Y-9915531D02*
X941491Y-9906008D01*
X941491Y-9906008D02*
X960539Y-9896484D01*
X1112920Y-10096484D02*
X1112920Y-9963150D01*
X1112920Y-9982198D02*
X1122444Y-9972674D01*
X1122444Y-9972674D02*
X1141491Y-9963150D01*
X1141491Y-9963150D02*
X1170063Y-9963150D01*
X1170063Y-9963150D02*
X1189110Y-9972674D01*
X1189110Y-9972674D02*
X1198634Y-9991722D01*
X1198634Y-9991722D02*
X1198634Y-10096484D01*
X1198634Y-9991722D02*
X1208158Y-9972674D01*
X1208158Y-9972674D02*
X1227205Y-9963150D01*
X1227205Y-9963150D02*
X1255777Y-9963150D01*
X1255777Y-9963150D02*
X1274825Y-9972674D01*
X1274825Y-9972674D02*
X1284348Y-9991722D01*
X1284348Y-9991722D02*
X1284348Y-10096484D01*
X1379586Y-10096484D02*
X1379586Y-9963150D01*
X1379586Y-9982198D02*
X1389110Y-9972674D01*
X1389110Y-9972674D02*
X1408158Y-9963150D01*
X1408158Y-9963150D02*
X1436729Y-9963150D01*
X1436729Y-9963150D02*
X1455777Y-9972674D01*
X1455777Y-9972674D02*
X1465301Y-9991722D01*
X1465301Y-9991722D02*
X1465301Y-10096484D01*
X1465301Y-9991722D02*
X1474824Y-9972674D01*
X1474824Y-9972674D02*
X1493872Y-9963150D01*
X1493872Y-9963150D02*
X1522443Y-9963150D01*
X1522443Y-9963150D02*
X1541491Y-9972674D01*
X1541491Y-9972674D02*
X1551015Y-9991722D01*
X1551015Y-9991722D02*
X1551015Y-10096484D01*
X1941491Y-9886960D02*
X1770063Y-10144103D01*
X2198634Y-9896484D02*
X2217682Y-9896484D01*
X2217682Y-9896484D02*
X2236729Y-9906008D01*
X2236729Y-9906008D02*
X2246253Y-9915531D01*
X2246253Y-9915531D02*
X2255777Y-9934579D01*
X2255777Y-9934579D02*
X2265301Y-9972674D01*
X2265301Y-9972674D02*
X2265301Y-10020293D01*
X2265301Y-10020293D02*
X2255777Y-10058389D01*
X2255777Y-10058389D02*
X2246253Y-10077436D01*
X2246253Y-10077436D02*
X2236729Y-10086960D01*
X2236729Y-10086960D02*
X2217682Y-10096484D01*
X2217682Y-10096484D02*
X2198634Y-10096484D01*
X2198634Y-10096484D02*
X2179587Y-10086960D01*
X2179587Y-10086960D02*
X2170063Y-10077436D01*
X2170063Y-10077436D02*
X2160539Y-10058389D01*
X2160539Y-10058389D02*
X2151015Y-10020293D01*
X2151015Y-10020293D02*
X2151015Y-9972674D01*
X2151015Y-9972674D02*
X2160539Y-9934579D01*
X2160539Y-9934579D02*
X2170063Y-9915531D01*
X2170063Y-9915531D02*
X2179587Y-9906008D01*
X2179587Y-9906008D02*
X2198634Y-9896484D01*
X2351015Y-10077436D02*
X2360539Y-10086960D01*
X2360539Y-10086960D02*
X2351015Y-10096484D01*
X2351015Y-10096484D02*
X2341491Y-10086960D01*
X2341491Y-10086960D02*
X2351015Y-10077436D01*
X2351015Y-10077436D02*
X2351015Y-10096484D01*
X2551015Y-10096484D02*
X2436729Y-10096484D01*
X2493872Y-10096484D02*
X2493872Y-9896484D01*
X2493872Y-9896484D02*
X2474825Y-9925055D01*
X2474825Y-9925055D02*
X2455777Y-9944103D01*
X2455777Y-9944103D02*
X2436729Y-9953627D01*
X2741491Y-10096484D02*
X2627206Y-10096484D01*
X2684348Y-10096484D02*
X2684348Y-9896484D01*
X2684348Y-9896484D02*
X2665301Y-9925055D01*
X2665301Y-9925055D02*
X2646253Y-9944103D01*
X2646253Y-9944103D02*
X2627206Y-9953627D01*
X2855777Y-9982198D02*
X2836729Y-9972674D01*
X2836729Y-9972674D02*
X2827206Y-9963150D01*
X2827206Y-9963150D02*
X2817682Y-9944103D01*
X2817682Y-9944103D02*
X2817682Y-9934579D01*
X2817682Y-9934579D02*
X2827206Y-9915531D01*
X2827206Y-9915531D02*
X2836729Y-9906008D01*
X2836729Y-9906008D02*
X2855777Y-9896484D01*
X2855777Y-9896484D02*
X2893872Y-9896484D01*
X2893872Y-9896484D02*
X2912920Y-9906008D01*
X2912920Y-9906008D02*
X2922444Y-9915531D01*
X2922444Y-9915531D02*
X2931967Y-9934579D01*
X2931967Y-9934579D02*
X2931967Y-9944103D01*
X2931967Y-9944103D02*
X2922444Y-9963150D01*
X2922444Y-9963150D02*
X2912920Y-9972674D01*
X2912920Y-9972674D02*
X2893872Y-9982198D01*
X2893872Y-9982198D02*
X2855777Y-9982198D01*
X2855777Y-9982198D02*
X2836729Y-9991722D01*
X2836729Y-9991722D02*
X2827206Y-10001246D01*
X2827206Y-10001246D02*
X2817682Y-10020293D01*
X2817682Y-10020293D02*
X2817682Y-10058389D01*
X2817682Y-10058389D02*
X2827206Y-10077436D01*
X2827206Y-10077436D02*
X2836729Y-10086960D01*
X2836729Y-10086960D02*
X2855777Y-10096484D01*
X2855777Y-10096484D02*
X2893872Y-10096484D01*
X2893872Y-10096484D02*
X2912920Y-10086960D01*
X2912920Y-10086960D02*
X2922444Y-10077436D01*
X2922444Y-10077436D02*
X2931967Y-10058389D01*
X2931967Y-10058389D02*
X2931967Y-10020293D01*
X2931967Y-10020293D02*
X2922444Y-10001246D01*
X2922444Y-10001246D02*
X2912920Y-9991722D01*
X2912920Y-9991722D02*
X2893872Y-9982198D01*
X3122444Y-10096484D02*
X3008158Y-10096484D01*
X3065301Y-10096484D02*
X3065301Y-9896484D01*
X3065301Y-9896484D02*
X3046253Y-9925055D01*
X3046253Y-9925055D02*
X3027206Y-9944103D01*
X3027206Y-9944103D02*
X3008158Y-9953627D01*
X3198634Y-9896484D02*
X3198634Y-9934579D01*
X3274825Y-9896484D02*
X3274825Y-9934579D01*
X3570063Y-10172674D02*
X3560539Y-10163150D01*
X3560539Y-10163150D02*
X3541491Y-10134579D01*
X3541491Y-10134579D02*
X3531968Y-10115531D01*
X3531968Y-10115531D02*
X3522444Y-10086960D01*
X3522444Y-10086960D02*
X3512920Y-10039341D01*
X3512920Y-10039341D02*
X3512920Y-10001246D01*
X3512920Y-10001246D02*
X3522444Y-9953627D01*
X3522444Y-9953627D02*
X3531968Y-9925055D01*
X3531968Y-9925055D02*
X3541491Y-9906008D01*
X3541491Y-9906008D02*
X3560539Y-9877436D01*
X3560539Y-9877436D02*
X3570063Y-9867912D01*
X3731968Y-9963150D02*
X3731968Y-10096484D01*
X3684348Y-9886960D02*
X3636729Y-10029817D01*
X3636729Y-10029817D02*
X3760539Y-10029817D01*
X3989110Y-10096484D02*
X3989110Y-9896484D01*
X4074825Y-10096484D02*
X4074825Y-9991722D01*
X4074825Y-9991722D02*
X4065301Y-9972674D01*
X4065301Y-9972674D02*
X4046253Y-9963150D01*
X4046253Y-9963150D02*
X4017682Y-9963150D01*
X4017682Y-9963150D02*
X3998634Y-9972674D01*
X3998634Y-9972674D02*
X3989110Y-9982198D01*
X4198634Y-10096484D02*
X4179587Y-10086960D01*
X4179587Y-10086960D02*
X4170063Y-10077436D01*
X4170063Y-10077436D02*
X4160539Y-10058389D01*
X4160539Y-10058389D02*
X4160539Y-10001246D01*
X4160539Y-10001246D02*
X4170063Y-9982198D01*
X4170063Y-9982198D02*
X4179587Y-9972674D01*
X4179587Y-9972674D02*
X4198634Y-9963150D01*
X4198634Y-9963150D02*
X4227206Y-9963150D01*
X4227206Y-9963150D02*
X4246253Y-9972674D01*
X4246253Y-9972674D02*
X4255777Y-9982198D01*
X4255777Y-9982198D02*
X4265301Y-10001246D01*
X4265301Y-10001246D02*
X4265301Y-10058389D01*
X4265301Y-10058389D02*
X4255777Y-10077436D01*
X4255777Y-10077436D02*
X4246253Y-10086960D01*
X4246253Y-10086960D02*
X4227206Y-10096484D01*
X4227206Y-10096484D02*
X4198634Y-10096484D01*
X4379587Y-10096484D02*
X4360539Y-10086960D01*
X4360539Y-10086960D02*
X4351015Y-10067912D01*
X4351015Y-10067912D02*
X4351015Y-9896484D01*
X4531968Y-10086960D02*
X4512920Y-10096484D01*
X4512920Y-10096484D02*
X4474825Y-10096484D01*
X4474825Y-10096484D02*
X4455777Y-10086960D01*
X4455777Y-10086960D02*
X4446253Y-10067912D01*
X4446253Y-10067912D02*
X4446253Y-9991722D01*
X4446253Y-9991722D02*
X4455777Y-9972674D01*
X4455777Y-9972674D02*
X4474825Y-9963150D01*
X4474825Y-9963150D02*
X4512920Y-9963150D01*
X4512920Y-9963150D02*
X4531968Y-9972674D01*
X4531968Y-9972674D02*
X4541492Y-9991722D01*
X4541492Y-9991722D02*
X4541492Y-10010770D01*
X4541492Y-10010770D02*
X4446253Y-10029817D01*
X4617682Y-10086960D02*
X4636730Y-10096484D01*
X4636730Y-10096484D02*
X4674825Y-10096484D01*
X4674825Y-10096484D02*
X4693873Y-10086960D01*
X4693873Y-10086960D02*
X4703396Y-10067912D01*
X4703396Y-10067912D02*
X4703396Y-10058389D01*
X4703396Y-10058389D02*
X4693873Y-10039341D01*
X4693873Y-10039341D02*
X4674825Y-10029817D01*
X4674825Y-10029817D02*
X4646253Y-10029817D01*
X4646253Y-10029817D02*
X4627206Y-10020293D01*
X4627206Y-10020293D02*
X4617682Y-10001246D01*
X4617682Y-10001246D02*
X4617682Y-9991722D01*
X4617682Y-9991722D02*
X4627206Y-9972674D01*
X4627206Y-9972674D02*
X4646253Y-9963150D01*
X4646253Y-9963150D02*
X4674825Y-9963150D01*
X4674825Y-9963150D02*
X4693873Y-9972674D01*
X4770063Y-10172674D02*
X4779587Y-10163150D01*
X4779587Y-10163150D02*
X4798634Y-10134579D01*
X4798634Y-10134579D02*
X4808158Y-10115531D01*
X4808158Y-10115531D02*
X4817682Y-10086960D01*
X4817682Y-10086960D02*
X4827206Y-10039341D01*
X4827206Y-10039341D02*
X4827206Y-10001246D01*
X4827206Y-10001246D02*
X4817682Y-9953627D01*
X4817682Y-9953627D02*
X4808158Y-9925055D01*
X4808158Y-9925055D02*
X4798634Y-9906008D01*
X4798634Y-9906008D02*
X4779587Y-9877436D01*
X4779587Y-9877436D02*
X4770063Y-9867912D01*
X5131968Y-10172674D02*
X5122444Y-10163150D01*
X5122444Y-10163150D02*
X5103396Y-10134579D01*
X5103396Y-10134579D02*
X5093873Y-10115531D01*
X5093873Y-10115531D02*
X5084349Y-10086960D01*
X5084349Y-10086960D02*
X5074825Y-10039341D01*
X5074825Y-10039341D02*
X5074825Y-10001246D01*
X5074825Y-10001246D02*
X5084349Y-9953627D01*
X5084349Y-9953627D02*
X5093873Y-9925055D01*
X5093873Y-9925055D02*
X5103396Y-9906008D01*
X5103396Y-9906008D02*
X5122444Y-9877436D01*
X5122444Y-9877436D02*
X5131968Y-9867912D01*
X5208158Y-9963150D02*
X5208158Y-10096484D01*
X5208158Y-9982198D02*
X5217682Y-9972674D01*
X5217682Y-9972674D02*
X5236730Y-9963150D01*
X5236730Y-9963150D02*
X5265301Y-9963150D01*
X5265301Y-9963150D02*
X5284349Y-9972674D01*
X5284349Y-9972674D02*
X5293873Y-9991722D01*
X5293873Y-9991722D02*
X5293873Y-10096484D01*
X5417682Y-10096484D02*
X5398634Y-10086960D01*
X5398634Y-10086960D02*
X5389111Y-10077436D01*
X5389111Y-10077436D02*
X5379587Y-10058389D01*
X5379587Y-10058389D02*
X5379587Y-10001246D01*
X5379587Y-10001246D02*
X5389111Y-9982198D01*
X5389111Y-9982198D02*
X5398634Y-9972674D01*
X5398634Y-9972674D02*
X5417682Y-9963150D01*
X5417682Y-9963150D02*
X5446254Y-9963150D01*
X5446254Y-9963150D02*
X5465301Y-9972674D01*
X5465301Y-9972674D02*
X5474825Y-9982198D01*
X5474825Y-9982198D02*
X5484349Y-10001246D01*
X5484349Y-10001246D02*
X5484349Y-10058389D01*
X5484349Y-10058389D02*
X5474825Y-10077436D01*
X5474825Y-10077436D02*
X5465301Y-10086960D01*
X5465301Y-10086960D02*
X5446254Y-10096484D01*
X5446254Y-10096484D02*
X5417682Y-10096484D01*
X5541492Y-9963150D02*
X5617682Y-9963150D01*
X5570063Y-9896484D02*
X5570063Y-10067912D01*
X5570063Y-10067912D02*
X5579587Y-10086960D01*
X5579587Y-10086960D02*
X5598634Y-10096484D01*
X5598634Y-10096484D02*
X5617682Y-10096484D01*
X5836730Y-9963150D02*
X5836730Y-10163150D01*
X5836730Y-9972674D02*
X5855777Y-9963150D01*
X5855777Y-9963150D02*
X5893873Y-9963150D01*
X5893873Y-9963150D02*
X5912920Y-9972674D01*
X5912920Y-9972674D02*
X5922444Y-9982198D01*
X5922444Y-9982198D02*
X5931968Y-10001246D01*
X5931968Y-10001246D02*
X5931968Y-10058389D01*
X5931968Y-10058389D02*
X5922444Y-10077436D01*
X5922444Y-10077436D02*
X5912920Y-10086960D01*
X5912920Y-10086960D02*
X5893873Y-10096484D01*
X5893873Y-10096484D02*
X5855777Y-10096484D01*
X5855777Y-10096484D02*
X5836730Y-10086960D01*
X6046253Y-10096484D02*
X6027206Y-10086960D01*
X6027206Y-10086960D02*
X6017682Y-10067912D01*
X6017682Y-10067912D02*
X6017682Y-9896484D01*
X6208158Y-10096484D02*
X6208158Y-9991722D01*
X6208158Y-9991722D02*
X6198634Y-9972674D01*
X6198634Y-9972674D02*
X6179587Y-9963150D01*
X6179587Y-9963150D02*
X6141492Y-9963150D01*
X6141492Y-9963150D02*
X6122444Y-9972674D01*
X6208158Y-10086960D02*
X6189111Y-10096484D01*
X6189111Y-10096484D02*
X6141492Y-10096484D01*
X6141492Y-10096484D02*
X6122444Y-10086960D01*
X6122444Y-10086960D02*
X6112920Y-10067912D01*
X6112920Y-10067912D02*
X6112920Y-10048865D01*
X6112920Y-10048865D02*
X6122444Y-10029817D01*
X6122444Y-10029817D02*
X6141492Y-10020293D01*
X6141492Y-10020293D02*
X6189111Y-10020293D01*
X6189111Y-10020293D02*
X6208158Y-10010770D01*
X6274825Y-9963150D02*
X6351015Y-9963150D01*
X6303396Y-9896484D02*
X6303396Y-10067912D01*
X6303396Y-10067912D02*
X6312920Y-10086960D01*
X6312920Y-10086960D02*
X6331968Y-10096484D01*
X6331968Y-10096484D02*
X6351015Y-10096484D01*
X6493873Y-10086960D02*
X6474825Y-10096484D01*
X6474825Y-10096484D02*
X6436730Y-10096484D01*
X6436730Y-10096484D02*
X6417682Y-10086960D01*
X6417682Y-10086960D02*
X6408158Y-10067912D01*
X6408158Y-10067912D02*
X6408158Y-9991722D01*
X6408158Y-9991722D02*
X6417682Y-9972674D01*
X6417682Y-9972674D02*
X6436730Y-9963150D01*
X6436730Y-9963150D02*
X6474825Y-9963150D01*
X6474825Y-9963150D02*
X6493873Y-9972674D01*
X6493873Y-9972674D02*
X6503396Y-9991722D01*
X6503396Y-9991722D02*
X6503396Y-10010770D01*
X6503396Y-10010770D02*
X6408158Y-10029817D01*
X6674825Y-10096484D02*
X6674825Y-9896484D01*
X6674825Y-10086960D02*
X6655777Y-10096484D01*
X6655777Y-10096484D02*
X6617682Y-10096484D01*
X6617682Y-10096484D02*
X6598634Y-10086960D01*
X6598634Y-10086960D02*
X6589111Y-10077436D01*
X6589111Y-10077436D02*
X6579587Y-10058389D01*
X6579587Y-10058389D02*
X6579587Y-10001246D01*
X6579587Y-10001246D02*
X6589111Y-9982198D01*
X6589111Y-9982198D02*
X6598634Y-9972674D01*
X6598634Y-9972674D02*
X6617682Y-9963150D01*
X6617682Y-9963150D02*
X6655777Y-9963150D01*
X6655777Y-9963150D02*
X6674825Y-9972674D01*
X6751015Y-10172674D02*
X6760539Y-10163150D01*
X6760539Y-10163150D02*
X6779587Y-10134579D01*
X6779587Y-10134579D02*
X6789111Y-10115531D01*
X6789111Y-10115531D02*
X6798634Y-10086960D01*
X6798634Y-10086960D02*
X6808158Y-10039341D01*
X6808158Y-10039341D02*
X6808158Y-10001246D01*
X6808158Y-10001246D02*
X6798634Y-9953627D01*
X6798634Y-9953627D02*
X6789111Y-9925055D01*
X6789111Y-9925055D02*
X6779587Y-9906008D01*
X6779587Y-9906008D02*
X6760539Y-9877436D01*
X6760539Y-9877436D02*
X6751015Y-9867912D01*
M02*
