M48
; DRILL file {KiCad 9.0.6} date 2026-09-08T18:46:50-0700
; FORMAT={-:-/ absolute / metric / decimal}
; #@! TF.CreationDate,2026-09-08T18:46:50-07:00
; #@! TF.GenerationSoftware,Kicad,Pcbnew,9.0.6
; #@! TF.FileFunction,MixedPlating,1,2
FMAT,2
METRIC
; #@! TA.AperFunction,Plated,PTH,ViaDrill
T1C0.400
; #@! TA.AperFunction,Plated,PTH,ViaDrill
T2C0.500
; #@! TA.AperFunction,Plated,PTH,ComponentDrill
T3C0.800
; #@! TA.AperFunction,Plated,PTH,ComponentDrill
T4C0.900
; #@! TA.AperFunction,Plated,PTH,ComponentDrill
T5C1.000
; #@! TA.AperFunction,Plated,PTH,ComponentDrill
T6C1.500
; #@! TA.AperFunction,NonPlated,NPTH,ComponentDrill
T7C2.000
; #@! TA.AperFunction,NonPlated,NPTH,ComponentDrill
T8C3.000
%
G90
G05
T1
X28.884Y-27.265
X31.17Y-24.5
X32.017Y-8.726
X32.423Y-25.995
X32.567Y-10.343
X34.664Y-13.692
X41.784Y-9.357
X44.716Y-14.371
X54.437Y-10.33
X58.275Y-15.406
X66.245Y-8.613
X70.355Y-11.636
X74.417Y-28.011
X86.317Y-16.087
X97.507Y-13.895
X98.094Y-17.197
X98.96Y-25.976
X102.48Y-26.264
X106.56Y-21.905
X128.173Y-24.654
X129.299Y-14.908
X134.421Y-4.95
X142.728Y-23.825
X164.468Y-31.862
T2
X61.324Y-11.563
X75.315Y-30.315
X79.147Y-17.974
X84.161Y-28.889
X96.516Y-9.842
X97.329Y-36.331
X98.431Y-30.087
X100.481Y-3.354
T3
X26.5Y-2.5
X26.5Y-7.5
X26.5Y-11.0
X26.5Y-16.0
X26.5Y-19.5
X26.5Y-24.5
X26.5Y-28.0
X26.5Y-33.0
X31.5Y-4.1
X31.5Y-16.0
X31.5Y-21.9
X31.5Y-33.9
X34.0Y-4.1
X34.0Y-16.0
X34.0Y-21.9
X34.0Y-33.9
X38.5Y-2.5
X38.5Y-6.0
X38.5Y-9.5
X38.5Y-13.0
X38.5Y-16.5
X38.5Y-20.0
X38.5Y-23.5
X38.5Y-27.5
X38.5Y-31.0
X38.5Y-34.5
X43.5Y-16.5
X43.5Y-20.0
X43.5Y-23.5
X46.0Y-16.5
X46.0Y-20.0
X46.0Y-23.5
X48.66Y-2.5
X48.66Y-6.0
X48.66Y-9.5
X48.66Y-13.0
X48.66Y-27.5
X48.66Y-31.0
X48.66Y-34.5
X51.0Y-16.5
X51.0Y-20.0
X51.0Y-23.5
X52.0Y-2.5
X52.0Y-6.0
X52.0Y-9.5
X52.0Y-26.5
X52.0Y-30.0
X54.0Y-14.0
X54.0Y-16.54
X54.0Y-19.08
X54.0Y-21.62
X61.62Y-14.0
X61.62Y-16.54
X61.62Y-19.08
X61.62Y-21.62
X62.16Y-2.5
X62.16Y-6.0
X62.16Y-9.5
X62.16Y-26.5
X62.16Y-30.0
X65.0Y-4.5
X65.0Y-11.0
X65.0Y-16.5
X65.0Y-20.0
X67.5Y-4.5
X67.5Y-11.0
X70.0Y-16.5
X70.0Y-20.0
X72.0Y-4.5
X72.0Y-11.0
X72.5Y-16.5
X72.5Y-20.0
X74.5Y-4.5
X74.5Y-11.0
X77.5Y-16.5
X77.5Y-20.0
X80.5Y-4.88
X80.5Y-12.5
X81.5Y-18.5
X81.72Y-24.5
X81.72Y-32.12
X83.04Y-4.88
X83.04Y-12.5
X84.26Y-24.5
X84.26Y-32.12
X85.58Y-4.88
X85.58Y-12.5
X86.5Y-18.5
X86.8Y-24.5
X86.8Y-32.12
X88.12Y-4.88
X88.12Y-12.5
X89.34Y-24.5
X89.34Y-32.12
X90.5Y-18.5
X90.66Y-4.88
X90.66Y-12.5
X91.88Y-24.5
X91.88Y-32.12
X93.2Y-4.88
X93.2Y-12.5
X94.42Y-24.5
X94.42Y-32.12
X95.5Y-18.5
X95.74Y-4.88
X95.74Y-12.5
X96.96Y-24.5
X96.96Y-32.12
X98.28Y-4.88
X98.28Y-12.5
X99.5Y-24.5
X99.5Y-32.12
X123.5Y-32.5
X124.0Y-16.0
X124.0Y-26.16
X124.5Y-3.5
X124.5Y-6.04
X124.5Y-8.58
X124.5Y-11.12
X126.0Y-32.5
X127.5Y-16.0
X127.5Y-26.16
X131.0Y-16.0
X131.0Y-26.16
X131.0Y-32.5
X132.12Y-3.5
X132.12Y-6.04
X132.12Y-8.58
X132.12Y-11.12
X133.5Y-32.5
X134.5Y-16.0
X134.5Y-26.16
X139.0Y-3.0
X139.0Y-21.5
X139.0Y-29.0
X141.5Y-21.5
X141.5Y-29.0
X146.5Y-21.5
X146.5Y-29.0
X149.0Y-21.5
X149.0Y-29.0
X149.16Y-3.0
X153.5Y-19.0
X153.5Y-29.16
X157.5Y-19.0
X157.5Y-29.16
X164.0Y-3.5
X164.0Y-16.0
X164.0Y-21.0
X164.0Y-34.5
X169.0Y-3.5
X169.0Y-16.0
X169.0Y-21.0
X169.0Y-34.5
X172.5Y-4.5
X172.5Y-33.5
X175.0Y-4.5
X175.0Y-33.5
X181.0Y-2.5
X181.0Y-7.5
X181.0Y-11.0
X181.0Y-16.0
X181.0Y-19.5
X181.0Y-24.5
X181.0Y-28.0
X181.0Y-33.0
T4
X154.0Y-3.2
X156.54Y-3.2
T5
X103.88Y-2.49
X103.88Y-5.03
X103.88Y-7.57
X103.88Y-10.11
X103.88Y-12.65
X103.88Y-15.19
X103.88Y-17.73
X103.88Y-20.27
X103.88Y-22.81
X103.88Y-25.35
X103.88Y-27.89
X103.88Y-30.43
X103.88Y-32.97
X103.88Y-35.51
X119.12Y-2.49
X119.12Y-5.03
X119.12Y-7.57
X119.12Y-10.11
X119.12Y-12.65
X119.12Y-15.19
X119.12Y-17.73
X119.12Y-20.27
X119.12Y-22.81
X119.12Y-25.35
X119.12Y-27.89
X119.12Y-30.43
X119.12Y-32.97
X119.12Y-35.51
X139.0Y-11.5
X141.54Y-11.5
X144.08Y-11.5
X151.7Y-11.5
X154.24Y-11.5
X156.78Y-11.5
T6
X2.8Y-4.36
X2.8Y-15.79
X2.8Y-22.36
X2.8Y-33.79
X9.15Y-4.36
X9.15Y-15.79
X9.15Y-22.36
X9.15Y-33.79
X15.5Y-4.36
X15.5Y-15.79
X15.5Y-22.36
X15.5Y-33.79
X191.5Y-4.21
X191.5Y-15.64
X191.5Y-22.21
X191.5Y-33.64
X197.85Y-4.21
X197.85Y-15.64
X197.85Y-22.21
X197.85Y-33.64
X204.2Y-4.21
X204.2Y-15.64
X204.2Y-22.21
X204.2Y-33.64
T7
X6.0Y-4.36
X6.0Y-15.79
X6.0Y-22.36
X6.0Y-33.79
X201.0Y-4.21
X201.0Y-15.64
X201.0Y-22.21
X201.0Y-33.64
T8
X12.35Y-13.66
X12.35Y-31.66
X194.65Y-6.34
X194.65Y-24.34
M30
