%TF.GenerationSoftware,KiCad,Pcbnew,9.0.6*%
%TF.CreationDate,2026-09-10T14:53:47-07:00*%
%TF.ProjectId,ghost-fader-narrow,67686f73-742d-4666-9164-65722d6e6172,rev?*%
%TF.SameCoordinates,Original*%
%TF.FileFunction,Drillmap*%
%TF.FilePolarity,Positive*%
%FSLAX45Y45*%
G04 Gerber Fmt 4.5, Leading zero omitted, Abs format (unit mm)*
G04 Created by KiCad (PCBNEW 9.0.6) date 2026-09-10 14:53:47*
%MOMM*%
%LPD*%
G01*
G04 APERTURE LIST*
%ADD10C,0.100000*%
%ADD11C,0.200000*%
%ADD12C,0.150000*%
%ADD13C,0.300000*%
G04 APERTURE END LIST*
D10*
X0Y0D02*
X20700000Y0D01*
X20700000Y0D02*
X20700000Y-3800000D01*
X0Y-3800000D02*
X0Y0D01*
X20700000Y-3800000D02*
X0Y-3800000D01*
D11*
D10*
X2713800Y-2579500D02*
X2753800Y-2619500D01*
X2753800Y-2579500D02*
X2713800Y-2619500D01*
X2868450Y-2706500D02*
X2908450Y-2746500D01*
X2908450Y-2706500D02*
X2868450Y-2746500D01*
X2868510Y-895110D02*
X2908510Y-935110D01*
X2908510Y-895110D02*
X2868510Y-935110D01*
X3181780Y-852670D02*
X3221780Y-892670D01*
X3221780Y-852670D02*
X3181780Y-892670D01*
X3196250Y-2579500D02*
X3236250Y-2619500D01*
X3236250Y-2579500D02*
X3196250Y-2619500D01*
X3325920Y-1158280D02*
X3365920Y-1198280D01*
X3365920Y-1158280D02*
X3325920Y-1198280D01*
X3917590Y-700170D02*
X3957590Y-740170D01*
X3957590Y-700170D02*
X3917590Y-740170D01*
X4153940Y-3314440D02*
X4193940Y-3354440D01*
X4193940Y-3314440D02*
X4153940Y-3354440D01*
X5720980Y-1380000D02*
X5760980Y-1420000D01*
X5760980Y-1380000D02*
X5720980Y-1420000D01*
X6370170Y-2582510D02*
X6410170Y-2622510D01*
X6410170Y-2582510D02*
X6370170Y-2622510D01*
X6654130Y-2684480D02*
X6694130Y-2724480D01*
X6694130Y-2684480D02*
X6654130Y-2724480D01*
X7117570Y-2219510D02*
X7157570Y-2259510D01*
X7157570Y-2219510D02*
X7117570Y-2259510D01*
X7347230Y-2447470D02*
X7387230Y-2487470D01*
X7387230Y-2447470D02*
X7347230Y-2487470D01*
X7440470Y-1251030D02*
X7480470Y-1291030D01*
X7480470Y-1251030D02*
X7440470Y-1291030D01*
X7646850Y-2223100D02*
X7686850Y-2263100D01*
X7686850Y-2223100D02*
X7646850Y-2263100D01*
X8345500Y-2142930D02*
X8385500Y-2182930D01*
X8385500Y-2142930D02*
X8345500Y-2182930D01*
X9423510Y-1448780D02*
X9463510Y-1488780D01*
X9463510Y-1448780D02*
X9423510Y-1488780D01*
X9427910Y-997260D02*
X9467910Y-1037260D01*
X9467910Y-997260D02*
X9427910Y-1037260D01*
X10021590Y-747310D02*
X10061590Y-787310D01*
X10061590Y-747310D02*
X10021590Y-787310D01*
X10095520Y-2341700D02*
X10135520Y-2381700D01*
X10135520Y-2341700D02*
X10095520Y-2381700D01*
X10214840Y-3646780D02*
X10254840Y-3686780D01*
X10254840Y-3646780D02*
X10214840Y-3686780D01*
X10759780Y-437790D02*
X10799780Y-477790D01*
X10799780Y-437790D02*
X10759780Y-477790D01*
X10822780Y-1872000D02*
X10862780Y-1912000D01*
X10862780Y-1872000D02*
X10822780Y-1912000D01*
X10859180Y-3152950D02*
X10899180Y-3192950D01*
X10899180Y-3152950D02*
X10859180Y-3192950D01*
X10865130Y-1550760D02*
X10905130Y-1590760D01*
X10905130Y-1550760D02*
X10865130Y-1590760D01*
X10870810Y-3283390D02*
X10910810Y-3323390D01*
X10910810Y-3283390D02*
X10870810Y-3323390D01*
X10955030Y-819340D02*
X10995030Y-859340D01*
X10995030Y-819340D02*
X10955030Y-859340D01*
X10956340Y-987770D02*
X10996340Y-1027770D01*
X10996340Y-987770D02*
X10956340Y-1027770D01*
X11876390Y-676750D02*
X11916390Y-716750D01*
X11916390Y-676750D02*
X11876390Y-716750D01*
X13210750Y-711000D02*
X13250750Y-751000D01*
X13250750Y-711000D02*
X13210750Y-751000D01*
X15899150Y-2215020D02*
X15939150Y-2255020D01*
X15939150Y-2215020D02*
X15899150Y-2255020D01*
X16110600Y-853000D02*
X16150600Y-893000D01*
X16150600Y-853000D02*
X16110600Y-893000D01*
X16498070Y-2653000D02*
X16538070Y-2693000D01*
X16538070Y-2653000D02*
X16498070Y-2693000D01*
X16625500Y-2337980D02*
X16665500Y-2377980D01*
X16665500Y-2337980D02*
X16625500Y-2377980D01*
X17000170Y-3209520D02*
X17040170Y-3249520D01*
X17040170Y-3209520D02*
X17000170Y-3249520D01*
X17261920Y-3530230D02*
X17301920Y-3570230D01*
X17301920Y-3530230D02*
X17261920Y-3570230D01*
X17805580Y-2489920D02*
X17845580Y-2529920D01*
X17845580Y-2489920D02*
X17805580Y-2529920D01*
X19338950Y-3123890D02*
X19378950Y-3163890D01*
X19378950Y-3123890D02*
X19338950Y-3163890D01*
X6156320Y-1149910D02*
G75*
G02*
X6106320Y-1149910I-25000J0D01*
G01*
X6106320Y-1149910D02*
G75*
G02*
X6156320Y-1149910I25000J0D01*
G01*
X6589920Y-2473000D02*
G75*
G02*
X6539920Y-2473000I-25000J0D01*
G01*
X6539920Y-2473000D02*
G75*
G02*
X6589920Y-2473000I25000J0D01*
G01*
X7390380Y-1400000D02*
G75*
G02*
X7340380Y-1400000I-25000J0D01*
G01*
X7340380Y-1400000D02*
G75*
G02*
X7390380Y-1400000I25000J0D01*
G01*
X15957780Y-2650000D02*
G75*
G02*
X15907780Y-2650000I-25000J0D01*
G01*
X15907780Y-2650000D02*
G75*
G02*
X15957780Y-2650000I25000J0D01*
G01*
X16209410Y-2830030D02*
G75*
G02*
X16159410Y-2830030I-25000J0D01*
G01*
X16159410Y-2830030D02*
G75*
G02*
X16209410Y-2830030I25000J0D01*
G01*
X16600900Y-1063500D02*
G75*
G02*
X16550900Y-1063500I-25000J0D01*
G01*
X16550900Y-1063500D02*
G75*
G02*
X16600900Y-1063500I25000J0D01*
G01*
X2650000Y-210000D02*
X2650000Y-290000D01*
X2610000Y-250000D02*
X2690000Y-250000D01*
X2650000Y-710000D02*
X2650000Y-790000D01*
X2610000Y-750000D02*
X2690000Y-750000D01*
X2650000Y-1060000D02*
X2650000Y-1140000D01*
X2610000Y-1100000D02*
X2690000Y-1100000D01*
X2650000Y-1560000D02*
X2650000Y-1640000D01*
X2610000Y-1600000D02*
X2690000Y-1600000D01*
X2650000Y-1910000D02*
X2650000Y-1990000D01*
X2610000Y-1950000D02*
X2690000Y-1950000D01*
X2650000Y-2410000D02*
X2650000Y-2490000D01*
X2610000Y-2450000D02*
X2690000Y-2450000D01*
X2650000Y-2760000D02*
X2650000Y-2840000D01*
X2610000Y-2800000D02*
X2690000Y-2800000D01*
X2650000Y-3260000D02*
X2650000Y-3340000D01*
X2610000Y-3300000D02*
X2690000Y-3300000D01*
X3150000Y-370000D02*
X3150000Y-450000D01*
X3110000Y-410000D02*
X3190000Y-410000D01*
X3150000Y-1560000D02*
X3150000Y-1640000D01*
X3110000Y-1600000D02*
X3190000Y-1600000D01*
X3150000Y-2150000D02*
X3150000Y-2230000D01*
X3110000Y-2190000D02*
X3190000Y-2190000D01*
X3150000Y-3350000D02*
X3150000Y-3430000D01*
X3110000Y-3390000D02*
X3190000Y-3390000D01*
X3400000Y-370000D02*
X3400000Y-450000D01*
X3360000Y-410000D02*
X3440000Y-410000D01*
X3400000Y-1560000D02*
X3400000Y-1640000D01*
X3360000Y-1600000D02*
X3440000Y-1600000D01*
X3400000Y-2150000D02*
X3400000Y-2230000D01*
X3360000Y-2190000D02*
X3440000Y-2190000D01*
X3400000Y-3350000D02*
X3400000Y-3430000D01*
X3360000Y-3390000D02*
X3440000Y-3390000D01*
X3850000Y-210000D02*
X3850000Y-290000D01*
X3810000Y-250000D02*
X3890000Y-250000D01*
X3850000Y-560000D02*
X3850000Y-640000D01*
X3810000Y-600000D02*
X3890000Y-600000D01*
X3850000Y-910000D02*
X3850000Y-990000D01*
X3810000Y-950000D02*
X3890000Y-950000D01*
X3850000Y-1260000D02*
X3850000Y-1340000D01*
X3810000Y-1300000D02*
X3890000Y-1300000D01*
X3850000Y-1610000D02*
X3850000Y-1690000D01*
X3810000Y-1650000D02*
X3890000Y-1650000D01*
X3850000Y-1960000D02*
X3850000Y-2040000D01*
X3810000Y-2000000D02*
X3890000Y-2000000D01*
X3850000Y-2310000D02*
X3850000Y-2390000D01*
X3810000Y-2350000D02*
X3890000Y-2350000D01*
X3850000Y-2710000D02*
X3850000Y-2790000D01*
X3810000Y-2750000D02*
X3890000Y-2750000D01*
X3850000Y-3060000D02*
X3850000Y-3140000D01*
X3810000Y-3100000D02*
X3890000Y-3100000D01*
X3850000Y-3410000D02*
X3850000Y-3490000D01*
X3810000Y-3450000D02*
X3890000Y-3450000D01*
X4350000Y-1610000D02*
X4350000Y-1690000D01*
X4310000Y-1650000D02*
X4390000Y-1650000D01*
X4350000Y-1960000D02*
X4350000Y-2040000D01*
X4310000Y-2000000D02*
X4390000Y-2000000D01*
X4350000Y-2310000D02*
X4350000Y-2390000D01*
X4310000Y-2350000D02*
X4390000Y-2350000D01*
X4600000Y-1610000D02*
X4600000Y-1690000D01*
X4560000Y-1650000D02*
X4640000Y-1650000D01*
X4600000Y-1960000D02*
X4600000Y-2040000D01*
X4560000Y-2000000D02*
X4640000Y-2000000D01*
X4600000Y-2310000D02*
X4600000Y-2390000D01*
X4560000Y-2350000D02*
X4640000Y-2350000D01*
X4866000Y-210000D02*
X4866000Y-290000D01*
X4826000Y-250000D02*
X4906000Y-250000D01*
X4866000Y-560000D02*
X4866000Y-640000D01*
X4826000Y-600000D02*
X4906000Y-600000D01*
X4866000Y-910000D02*
X4866000Y-990000D01*
X4826000Y-950000D02*
X4906000Y-950000D01*
X4866000Y-1260000D02*
X4866000Y-1340000D01*
X4826000Y-1300000D02*
X4906000Y-1300000D01*
X4866000Y-2710000D02*
X4866000Y-2790000D01*
X4826000Y-2750000D02*
X4906000Y-2750000D01*
X4866000Y-3060000D02*
X4866000Y-3140000D01*
X4826000Y-3100000D02*
X4906000Y-3100000D01*
X4866000Y-3410000D02*
X4866000Y-3490000D01*
X4826000Y-3450000D02*
X4906000Y-3450000D01*
X5100000Y-210000D02*
X5100000Y-290000D01*
X5060000Y-250000D02*
X5140000Y-250000D01*
X5100000Y-560000D02*
X5100000Y-640000D01*
X5060000Y-600000D02*
X5140000Y-600000D01*
X5100000Y-910000D02*
X5100000Y-990000D01*
X5060000Y-950000D02*
X5140000Y-950000D01*
X5100000Y-1610000D02*
X5100000Y-1690000D01*
X5060000Y-1650000D02*
X5140000Y-1650000D01*
X5100000Y-1960000D02*
X5100000Y-2040000D01*
X5060000Y-2000000D02*
X5140000Y-2000000D01*
X5100000Y-2310000D02*
X5100000Y-2390000D01*
X5060000Y-2350000D02*
X5140000Y-2350000D01*
X5200000Y-2610000D02*
X5200000Y-2690000D01*
X5160000Y-2650000D02*
X5240000Y-2650000D01*
X5200000Y-2960000D02*
X5200000Y-3040000D01*
X5160000Y-3000000D02*
X5240000Y-3000000D01*
X5400000Y-1360000D02*
X5400000Y-1440000D01*
X5360000Y-1400000D02*
X5440000Y-1400000D01*
X5400000Y-1614000D02*
X5400000Y-1694000D01*
X5360000Y-1654000D02*
X5440000Y-1654000D01*
X5400000Y-1868000D02*
X5400000Y-1948000D01*
X5360000Y-1908000D02*
X5440000Y-1908000D01*
X5400000Y-2122000D02*
X5400000Y-2202000D01*
X5360000Y-2162000D02*
X5440000Y-2162000D01*
X6116000Y-210000D02*
X6116000Y-290000D01*
X6076000Y-250000D02*
X6156000Y-250000D01*
X6116000Y-560000D02*
X6116000Y-640000D01*
X6076000Y-600000D02*
X6156000Y-600000D01*
X6116000Y-910000D02*
X6116000Y-990000D01*
X6076000Y-950000D02*
X6156000Y-950000D01*
X6162000Y-1360000D02*
X6162000Y-1440000D01*
X6122000Y-1400000D02*
X6202000Y-1400000D01*
X6162000Y-1614000D02*
X6162000Y-1694000D01*
X6122000Y-1654000D02*
X6202000Y-1654000D01*
X6162000Y-1868000D02*
X6162000Y-1948000D01*
X6122000Y-1908000D02*
X6202000Y-1908000D01*
X6162000Y-2122000D02*
X6162000Y-2202000D01*
X6122000Y-2162000D02*
X6202000Y-2162000D01*
X6216000Y-2610000D02*
X6216000Y-2690000D01*
X6176000Y-2650000D02*
X6256000Y-2650000D01*
X6216000Y-2960000D02*
X6216000Y-3040000D01*
X6176000Y-3000000D02*
X6256000Y-3000000D01*
X6500000Y-1610000D02*
X6500000Y-1690000D01*
X6460000Y-1650000D02*
X6540000Y-1650000D01*
X6500000Y-1960000D02*
X6500000Y-2040000D01*
X6460000Y-2000000D02*
X6540000Y-2000000D01*
X6510000Y-410000D02*
X6510000Y-490000D01*
X6470000Y-450000D02*
X6550000Y-450000D01*
X6510000Y-1040000D02*
X6510000Y-1120000D01*
X6470000Y-1080000D02*
X6550000Y-1080000D01*
X6760000Y-410000D02*
X6760000Y-490000D01*
X6720000Y-450000D02*
X6800000Y-450000D01*
X6760000Y-1040000D02*
X6760000Y-1120000D01*
X6720000Y-1080000D02*
X6800000Y-1080000D01*
X7000000Y-1610000D02*
X7000000Y-1690000D01*
X6960000Y-1650000D02*
X7040000Y-1650000D01*
X7000000Y-1960000D02*
X7000000Y-2040000D01*
X6960000Y-2000000D02*
X7040000Y-2000000D01*
X7190000Y-410000D02*
X7190000Y-490000D01*
X7150000Y-450000D02*
X7230000Y-450000D01*
X7190000Y-1060000D02*
X7190000Y-1140000D01*
X7150000Y-1100000D02*
X7230000Y-1100000D01*
X7250000Y-1610000D02*
X7250000Y-1690000D01*
X7210000Y-1650000D02*
X7290000Y-1650000D01*
X7250000Y-1960000D02*
X7250000Y-2040000D01*
X7210000Y-2000000D02*
X7290000Y-2000000D01*
X7440000Y-410000D02*
X7440000Y-490000D01*
X7400000Y-450000D02*
X7480000Y-450000D01*
X7440000Y-1060000D02*
X7440000Y-1140000D01*
X7400000Y-1100000D02*
X7480000Y-1100000D01*
X7750000Y-1610000D02*
X7750000Y-1690000D01*
X7710000Y-1650000D02*
X7790000Y-1650000D01*
X7750000Y-1960000D02*
X7750000Y-2040000D01*
X7710000Y-2000000D02*
X7790000Y-2000000D01*
X7780000Y-448000D02*
X7780000Y-528000D01*
X7740000Y-488000D02*
X7820000Y-488000D01*
X7780000Y-1210000D02*
X7780000Y-1290000D01*
X7740000Y-1250000D02*
X7820000Y-1250000D01*
X8000000Y-1810000D02*
X8000000Y-1890000D01*
X7960000Y-1850000D02*
X8040000Y-1850000D01*
X8034000Y-448000D02*
X8034000Y-528000D01*
X7994000Y-488000D02*
X8074000Y-488000D01*
X8034000Y-1210000D02*
X8034000Y-1290000D01*
X7994000Y-1250000D02*
X8074000Y-1250000D01*
X8172000Y-2410000D02*
X8172000Y-2490000D01*
X8132000Y-2450000D02*
X8212000Y-2450000D01*
X8172000Y-3172000D02*
X8172000Y-3252000D01*
X8132000Y-3212000D02*
X8212000Y-3212000D01*
X8200000Y-3560000D02*
X8200000Y-3640000D01*
X8160000Y-3600000D02*
X8240000Y-3600000D01*
X8288000Y-448000D02*
X8288000Y-528000D01*
X8248000Y-488000D02*
X8328000Y-488000D01*
X8288000Y-1210000D02*
X8288000Y-1290000D01*
X8248000Y-1250000D02*
X8328000Y-1250000D01*
X8426000Y-2410000D02*
X8426000Y-2490000D01*
X8386000Y-2450000D02*
X8466000Y-2450000D01*
X8426000Y-3172000D02*
X8426000Y-3252000D01*
X8386000Y-3212000D02*
X8466000Y-3212000D01*
X8500000Y-1810000D02*
X8500000Y-1890000D01*
X8460000Y-1850000D02*
X8540000Y-1850000D01*
X8542000Y-448000D02*
X8542000Y-528000D01*
X8502000Y-488000D02*
X8582000Y-488000D01*
X8542000Y-1210000D02*
X8542000Y-1290000D01*
X8502000Y-1250000D02*
X8582000Y-1250000D01*
X8680000Y-2410000D02*
X8680000Y-2490000D01*
X8640000Y-2450000D02*
X8720000Y-2450000D01*
X8680000Y-3172000D02*
X8680000Y-3252000D01*
X8640000Y-3212000D02*
X8720000Y-3212000D01*
X8796000Y-448000D02*
X8796000Y-528000D01*
X8756000Y-488000D02*
X8836000Y-488000D01*
X8796000Y-1210000D02*
X8796000Y-1290000D01*
X8756000Y-1250000D02*
X8836000Y-1250000D01*
X8934000Y-2410000D02*
X8934000Y-2490000D01*
X8894000Y-2450000D02*
X8974000Y-2450000D01*
X8934000Y-3172000D02*
X8934000Y-3252000D01*
X8894000Y-3212000D02*
X8974000Y-3212000D01*
X8950000Y-1610000D02*
X8950000Y-1690000D01*
X8910000Y-1650000D02*
X8990000Y-1650000D01*
X8950000Y-2110000D02*
X8950000Y-2190000D01*
X8910000Y-2150000D02*
X8990000Y-2150000D01*
X9050000Y-448000D02*
X9050000Y-528000D01*
X9010000Y-488000D02*
X9090000Y-488000D01*
X9050000Y-1210000D02*
X9050000Y-1290000D01*
X9010000Y-1250000D02*
X9090000Y-1250000D01*
X9188000Y-2410000D02*
X9188000Y-2490000D01*
X9148000Y-2450000D02*
X9228000Y-2450000D01*
X9188000Y-3172000D02*
X9188000Y-3252000D01*
X9148000Y-3212000D02*
X9228000Y-3212000D01*
X9216000Y-3560000D02*
X9216000Y-3640000D01*
X9176000Y-3600000D02*
X9256000Y-3600000D01*
X9304000Y-448000D02*
X9304000Y-528000D01*
X9264000Y-488000D02*
X9344000Y-488000D01*
X9304000Y-1210000D02*
X9304000Y-1290000D01*
X9264000Y-1250000D02*
X9344000Y-1250000D01*
X9400000Y-1860000D02*
X9400000Y-1940000D01*
X9360000Y-1900000D02*
X9440000Y-1900000D01*
X9442000Y-2410000D02*
X9442000Y-2490000D01*
X9402000Y-2450000D02*
X9482000Y-2450000D01*
X9442000Y-3172000D02*
X9442000Y-3252000D01*
X9402000Y-3212000D02*
X9482000Y-3212000D01*
X9558000Y-448000D02*
X9558000Y-528000D01*
X9518000Y-488000D02*
X9598000Y-488000D01*
X9558000Y-1210000D02*
X9558000Y-1290000D01*
X9518000Y-1250000D02*
X9598000Y-1250000D01*
X9650000Y-1860000D02*
X9650000Y-1940000D01*
X9610000Y-1900000D02*
X9690000Y-1900000D01*
X9696000Y-2410000D02*
X9696000Y-2490000D01*
X9656000Y-2450000D02*
X9736000Y-2450000D01*
X9696000Y-3172000D02*
X9696000Y-3252000D01*
X9656000Y-3212000D02*
X9736000Y-3212000D01*
X9950000Y-2410000D02*
X9950000Y-2490000D01*
X9910000Y-2450000D02*
X9990000Y-2450000D01*
X9950000Y-3172000D02*
X9950000Y-3252000D01*
X9910000Y-3212000D02*
X9990000Y-3212000D01*
X10050000Y-1670000D02*
X10050000Y-1750000D01*
X10010000Y-1710000D02*
X10090000Y-1710000D01*
X10050000Y-2170000D02*
X10050000Y-2250000D01*
X10010000Y-2210000D02*
X10090000Y-2210000D01*
X10580000Y-1760000D02*
X10580000Y-1840000D01*
X10540000Y-1800000D02*
X10620000Y-1800000D01*
X10580000Y-2260000D02*
X10580000Y-2340000D01*
X10540000Y-2300000D02*
X10620000Y-2300000D01*
X11200000Y-2710000D02*
X11200000Y-2790000D01*
X11160000Y-2750000D02*
X11240000Y-2750000D01*
X11200000Y-3210000D02*
X11200000Y-3290000D01*
X11160000Y-3250000D02*
X11240000Y-3250000D01*
X11500000Y-2510000D02*
X11500000Y-2590000D01*
X11460000Y-2550000D02*
X11540000Y-2550000D01*
X12516000Y-2510000D02*
X12516000Y-2590000D01*
X12476000Y-2550000D02*
X12556000Y-2550000D01*
X12990000Y-310000D02*
X12990000Y-390000D01*
X12950000Y-350000D02*
X13030000Y-350000D01*
X12990000Y-564000D02*
X12990000Y-644000D01*
X12950000Y-604000D02*
X13030000Y-604000D01*
X12990000Y-818000D02*
X12990000Y-898000D01*
X12950000Y-858000D02*
X13030000Y-858000D01*
X12990000Y-1072000D02*
X12990000Y-1152000D01*
X12950000Y-1112000D02*
X13030000Y-1112000D01*
X13080000Y-1450000D02*
X13080000Y-1530000D01*
X13040000Y-1490000D02*
X13120000Y-1490000D01*
X13080000Y-2466000D02*
X13080000Y-2546000D01*
X13040000Y-2506000D02*
X13120000Y-2506000D01*
X13530000Y-2600000D02*
X13530000Y-2680000D01*
X13490000Y-2640000D02*
X13570000Y-2640000D01*
X13752000Y-310000D02*
X13752000Y-390000D01*
X13712000Y-350000D02*
X13792000Y-350000D01*
X13752000Y-564000D02*
X13752000Y-644000D01*
X13712000Y-604000D02*
X13792000Y-604000D01*
X13752000Y-818000D02*
X13752000Y-898000D01*
X13712000Y-858000D02*
X13792000Y-858000D01*
X13752000Y-1072000D02*
X13752000Y-1152000D01*
X13712000Y-1112000D02*
X13792000Y-1112000D01*
X13780000Y-2600000D02*
X13780000Y-2680000D01*
X13740000Y-2640000D02*
X13820000Y-2640000D01*
X14010000Y-480000D02*
X14010000Y-560000D01*
X13970000Y-520000D02*
X14050000Y-520000D01*
X14400000Y-990000D02*
X14400000Y-1070000D01*
X14360000Y-1030000D02*
X14440000Y-1030000D01*
X14400000Y-2610000D02*
X14400000Y-2690000D01*
X14360000Y-2650000D02*
X14440000Y-2650000D01*
X14650000Y-990000D02*
X14650000Y-1070000D01*
X14610000Y-1030000D02*
X14690000Y-1030000D01*
X14650000Y-2610000D02*
X14650000Y-2690000D01*
X14610000Y-2650000D02*
X14690000Y-2650000D01*
X15000000Y-2430000D02*
X15000000Y-2510000D01*
X14960000Y-2470000D02*
X15040000Y-2470000D01*
X15000000Y-2840000D02*
X15000000Y-2920000D01*
X14960000Y-2880000D02*
X15040000Y-2880000D01*
X15026000Y-480000D02*
X15026000Y-560000D01*
X14986000Y-520000D02*
X15066000Y-520000D01*
X15200000Y-810000D02*
X15200000Y-890000D01*
X15160000Y-850000D02*
X15240000Y-850000D01*
X15200000Y-1160000D02*
X15200000Y-1240000D01*
X15160000Y-1200000D02*
X15240000Y-1200000D01*
X15600000Y-410000D02*
X15600000Y-490000D01*
X15560000Y-450000D02*
X15640000Y-450000D01*
X15700000Y-810000D02*
X15700000Y-890000D01*
X15660000Y-850000D02*
X15740000Y-850000D01*
X15700000Y-1160000D02*
X15700000Y-1240000D01*
X15660000Y-1200000D02*
X15740000Y-1200000D01*
X15800000Y-1680000D02*
X15800000Y-1760000D01*
X15760000Y-1720000D02*
X15840000Y-1720000D01*
X15854000Y-410000D02*
X15854000Y-490000D01*
X15814000Y-450000D02*
X15894000Y-450000D01*
X16016000Y-2430000D02*
X16016000Y-2510000D01*
X15976000Y-2470000D02*
X16056000Y-2470000D01*
X16016000Y-2840000D02*
X16016000Y-2920000D01*
X15976000Y-2880000D02*
X16056000Y-2880000D01*
X16050000Y-1680000D02*
X16050000Y-1760000D01*
X16010000Y-1720000D02*
X16090000Y-1720000D01*
X16108000Y-410000D02*
X16108000Y-490000D01*
X16068000Y-450000D02*
X16148000Y-450000D01*
X16400000Y-310000D02*
X16400000Y-390000D01*
X16360000Y-350000D02*
X16440000Y-350000D01*
X16400000Y-1560000D02*
X16400000Y-1640000D01*
X16360000Y-1600000D02*
X16440000Y-1600000D01*
X16400000Y-2060000D02*
X16400000Y-2140000D01*
X16360000Y-2100000D02*
X16440000Y-2100000D01*
X16400000Y-3410000D02*
X16400000Y-3490000D01*
X16360000Y-3450000D02*
X16440000Y-3450000D01*
X16900000Y-310000D02*
X16900000Y-390000D01*
X16860000Y-350000D02*
X16940000Y-350000D01*
X16900000Y-1560000D02*
X16900000Y-1640000D01*
X16860000Y-1600000D02*
X16940000Y-1600000D01*
X16900000Y-2060000D02*
X16900000Y-2140000D01*
X16860000Y-2100000D02*
X16940000Y-2100000D01*
X16900000Y-3410000D02*
X16900000Y-3490000D01*
X16860000Y-3450000D02*
X16940000Y-3450000D01*
X17250000Y-410000D02*
X17250000Y-490000D01*
X17210000Y-450000D02*
X17290000Y-450000D01*
X17250000Y-3310000D02*
X17250000Y-3390000D01*
X17210000Y-3350000D02*
X17290000Y-3350000D01*
X17400000Y-2510000D02*
X17400000Y-2590000D01*
X17360000Y-2550000D02*
X17440000Y-2550000D01*
X17420000Y-960000D02*
X17420000Y-1040000D01*
X17380000Y-1000000D02*
X17460000Y-1000000D01*
X17420000Y-1976000D02*
X17420000Y-2056000D01*
X17380000Y-2016000D02*
X17460000Y-2016000D01*
X17500000Y-410000D02*
X17500000Y-490000D01*
X17460000Y-450000D02*
X17540000Y-450000D01*
X17500000Y-3310000D02*
X17500000Y-3390000D01*
X17460000Y-3350000D02*
X17540000Y-3350000D01*
X17650000Y-2510000D02*
X17650000Y-2590000D01*
X17610000Y-2550000D02*
X17690000Y-2550000D01*
X17770000Y-960000D02*
X17770000Y-1040000D01*
X17730000Y-1000000D02*
X17810000Y-1000000D01*
X17770000Y-1976000D02*
X17770000Y-2056000D01*
X17730000Y-2016000D02*
X17810000Y-2016000D01*
X18100000Y-210000D02*
X18100000Y-290000D01*
X18060000Y-250000D02*
X18140000Y-250000D01*
X18100000Y-710000D02*
X18100000Y-790000D01*
X18060000Y-750000D02*
X18140000Y-750000D01*
X18100000Y-1060000D02*
X18100000Y-1140000D01*
X18060000Y-1100000D02*
X18140000Y-1100000D01*
X18100000Y-1560000D02*
X18100000Y-1640000D01*
X18060000Y-1600000D02*
X18140000Y-1600000D01*
X18100000Y-1910000D02*
X18100000Y-1990000D01*
X18060000Y-1950000D02*
X18140000Y-1950000D01*
X18100000Y-2410000D02*
X18100000Y-2490000D01*
X18060000Y-2450000D02*
X18140000Y-2450000D01*
X18100000Y-2760000D02*
X18100000Y-2840000D01*
X18060000Y-2800000D02*
X18140000Y-2800000D01*
X18100000Y-3260000D02*
X18100000Y-3340000D01*
X18060000Y-3300000D02*
X18140000Y-3300000D01*
X10591820Y-261820D02*
X10591820Y-198180D01*
X10528180Y-198180D01*
X10528180Y-261820D01*
X10591820Y-261820D01*
X10845820Y-261820D02*
X10845820Y-198180D01*
X10782180Y-198180D01*
X10782180Y-261820D01*
X10845820Y-261820D01*
X11148000Y-418000D02*
X11198000Y-368000D01*
X11148000Y-318000D01*
X11098000Y-368000D01*
X11148000Y-418000D01*
X11148000Y-672000D02*
X11198000Y-622000D01*
X11148000Y-572000D01*
X11098000Y-622000D01*
X11148000Y-672000D01*
X11148000Y-926000D02*
X11198000Y-876000D01*
X11148000Y-826000D01*
X11098000Y-876000D01*
X11148000Y-926000D01*
X11148000Y-1180000D02*
X11198000Y-1130000D01*
X11148000Y-1080000D01*
X11098000Y-1130000D01*
X11148000Y-1180000D01*
X11148000Y-1434000D02*
X11198000Y-1384000D01*
X11148000Y-1334000D01*
X11098000Y-1384000D01*
X11148000Y-1434000D01*
X11148000Y-1688000D02*
X11198000Y-1638000D01*
X11148000Y-1588000D01*
X11098000Y-1638000D01*
X11148000Y-1688000D01*
X11148000Y-1942000D02*
X11198000Y-1892000D01*
X11148000Y-1842000D01*
X11098000Y-1892000D01*
X11148000Y-1942000D01*
X12672000Y-418000D02*
X12722000Y-368000D01*
X12672000Y-318000D01*
X12622000Y-368000D01*
X12672000Y-418000D01*
X12672000Y-672000D02*
X12722000Y-622000D01*
X12672000Y-572000D01*
X12622000Y-622000D01*
X12672000Y-672000D01*
X12672000Y-926000D02*
X12722000Y-876000D01*
X12672000Y-826000D01*
X12622000Y-876000D01*
X12672000Y-926000D01*
X12672000Y-1180000D02*
X12722000Y-1130000D01*
X12672000Y-1080000D01*
X12622000Y-1130000D01*
X12672000Y-1180000D01*
X12672000Y-1434000D02*
X12722000Y-1384000D01*
X12672000Y-1334000D01*
X12622000Y-1384000D01*
X12672000Y-1434000D01*
X12672000Y-1688000D02*
X12722000Y-1638000D01*
X12672000Y-1588000D01*
X12622000Y-1638000D01*
X12672000Y-1688000D01*
X12672000Y-1942000D02*
X12722000Y-1892000D01*
X12672000Y-1842000D01*
X12622000Y-1892000D01*
X12672000Y-1942000D01*
X13692000Y-1600000D02*
X13742000Y-1550000D01*
X13692000Y-1500000D01*
X13642000Y-1550000D01*
X13692000Y-1600000D01*
X13946000Y-1600000D02*
X13996000Y-1550000D01*
X13946000Y-1500000D01*
X13896000Y-1550000D01*
X13946000Y-1600000D01*
X14454000Y-1600000D02*
X14504000Y-1550000D01*
X14454000Y-1500000D01*
X14404000Y-1550000D01*
X14454000Y-1600000D01*
X14708000Y-1600000D02*
X14758000Y-1550000D01*
X14708000Y-1500000D01*
X14658000Y-1550000D01*
X14708000Y-1600000D01*
X14962000Y-1600000D02*
X15012000Y-1550000D01*
X14962000Y-1500000D01*
X14912000Y-1550000D01*
X14962000Y-1600000D01*
D12*
X205000Y-361000D02*
X355000Y-511000D01*
X355000Y-361000D02*
X205000Y-511000D01*
X355000Y-436000D02*
G75*
G02*
X205000Y-436000I-75000J0D01*
G01*
X205000Y-436000D02*
G75*
G02*
X355000Y-436000I75000J0D01*
G01*
X205000Y-1504000D02*
X355000Y-1654000D01*
X355000Y-1504000D02*
X205000Y-1654000D01*
X355000Y-1579000D02*
G75*
G02*
X205000Y-1579000I-75000J0D01*
G01*
X205000Y-1579000D02*
G75*
G02*
X355000Y-1579000I75000J0D01*
G01*
X205000Y-2161000D02*
X355000Y-2311000D01*
X355000Y-2161000D02*
X205000Y-2311000D01*
X355000Y-2236000D02*
G75*
G02*
X205000Y-2236000I-75000J0D01*
G01*
X205000Y-2236000D02*
G75*
G02*
X355000Y-2236000I75000J0D01*
G01*
X205000Y-3304000D02*
X355000Y-3454000D01*
X355000Y-3304000D02*
X205000Y-3454000D01*
X355000Y-3379000D02*
G75*
G02*
X205000Y-3379000I-75000J0D01*
G01*
X205000Y-3379000D02*
G75*
G02*
X355000Y-3379000I75000J0D01*
G01*
X840000Y-361000D02*
X990000Y-511000D01*
X990000Y-361000D02*
X840000Y-511000D01*
X990000Y-436000D02*
G75*
G02*
X840000Y-436000I-75000J0D01*
G01*
X840000Y-436000D02*
G75*
G02*
X990000Y-436000I75000J0D01*
G01*
X840000Y-1504000D02*
X990000Y-1654000D01*
X990000Y-1504000D02*
X840000Y-1654000D01*
X990000Y-1579000D02*
G75*
G02*
X840000Y-1579000I-75000J0D01*
G01*
X840000Y-1579000D02*
G75*
G02*
X990000Y-1579000I75000J0D01*
G01*
X840000Y-2161000D02*
X990000Y-2311000D01*
X990000Y-2161000D02*
X840000Y-2311000D01*
X990000Y-2236000D02*
G75*
G02*
X840000Y-2236000I-75000J0D01*
G01*
X840000Y-2236000D02*
G75*
G02*
X990000Y-2236000I75000J0D01*
G01*
X840000Y-3304000D02*
X990000Y-3454000D01*
X990000Y-3304000D02*
X840000Y-3454000D01*
X990000Y-3379000D02*
G75*
G02*
X840000Y-3379000I-75000J0D01*
G01*
X840000Y-3379000D02*
G75*
G02*
X990000Y-3379000I75000J0D01*
G01*
X1475000Y-361000D02*
X1625000Y-511000D01*
X1625000Y-361000D02*
X1475000Y-511000D01*
X1625000Y-436000D02*
G75*
G02*
X1475000Y-436000I-75000J0D01*
G01*
X1475000Y-436000D02*
G75*
G02*
X1625000Y-436000I75000J0D01*
G01*
X1475000Y-1504000D02*
X1625000Y-1654000D01*
X1625000Y-1504000D02*
X1475000Y-1654000D01*
X1625000Y-1579000D02*
G75*
G02*
X1475000Y-1579000I-75000J0D01*
G01*
X1475000Y-1579000D02*
G75*
G02*
X1625000Y-1579000I75000J0D01*
G01*
X1475000Y-2161000D02*
X1625000Y-2311000D01*
X1625000Y-2161000D02*
X1475000Y-2311000D01*
X1625000Y-2236000D02*
G75*
G02*
X1475000Y-2236000I-75000J0D01*
G01*
X1475000Y-2236000D02*
G75*
G02*
X1625000Y-2236000I75000J0D01*
G01*
X1475000Y-3304000D02*
X1625000Y-3454000D01*
X1625000Y-3304000D02*
X1475000Y-3454000D01*
X1625000Y-3379000D02*
G75*
G02*
X1475000Y-3379000I-75000J0D01*
G01*
X1475000Y-3379000D02*
G75*
G02*
X1625000Y-3379000I75000J0D01*
G01*
X19075000Y-346000D02*
X19225000Y-496000D01*
X19225000Y-346000D02*
X19075000Y-496000D01*
X19225000Y-421000D02*
G75*
G02*
X19075000Y-421000I-75000J0D01*
G01*
X19075000Y-421000D02*
G75*
G02*
X19225000Y-421000I75000J0D01*
G01*
X19075000Y-1489000D02*
X19225000Y-1639000D01*
X19225000Y-1489000D02*
X19075000Y-1639000D01*
X19225000Y-1564000D02*
G75*
G02*
X19075000Y-1564000I-75000J0D01*
G01*
X19075000Y-1564000D02*
G75*
G02*
X19225000Y-1564000I75000J0D01*
G01*
X19075000Y-2146000D02*
X19225000Y-2296000D01*
X19225000Y-2146000D02*
X19075000Y-2296000D01*
X19225000Y-2221000D02*
G75*
G02*
X19075000Y-2221000I-75000J0D01*
G01*
X19075000Y-2221000D02*
G75*
G02*
X19225000Y-2221000I75000J0D01*
G01*
X19075000Y-3289000D02*
X19225000Y-3439000D01*
X19225000Y-3289000D02*
X19075000Y-3439000D01*
X19225000Y-3364000D02*
G75*
G02*
X19075000Y-3364000I-75000J0D01*
G01*
X19075000Y-3364000D02*
G75*
G02*
X19225000Y-3364000I75000J0D01*
G01*
X19710000Y-346000D02*
X19860000Y-496000D01*
X19860000Y-346000D02*
X19710000Y-496000D01*
X19860000Y-421000D02*
G75*
G02*
X19710000Y-421000I-75000J0D01*
G01*
X19710000Y-421000D02*
G75*
G02*
X19860000Y-421000I75000J0D01*
G01*
X19710000Y-1489000D02*
X19860000Y-1639000D01*
X19860000Y-1489000D02*
X19710000Y-1639000D01*
X19860000Y-1564000D02*
G75*
G02*
X19710000Y-1564000I-75000J0D01*
G01*
X19710000Y-1564000D02*
G75*
G02*
X19860000Y-1564000I75000J0D01*
G01*
X19710000Y-2146000D02*
X19860000Y-2296000D01*
X19860000Y-2146000D02*
X19710000Y-2296000D01*
X19860000Y-2221000D02*
G75*
G02*
X19710000Y-2221000I-75000J0D01*
G01*
X19710000Y-2221000D02*
G75*
G02*
X19860000Y-2221000I75000J0D01*
G01*
X19710000Y-3289000D02*
X19860000Y-3439000D01*
X19860000Y-3289000D02*
X19710000Y-3439000D01*
X19860000Y-3364000D02*
G75*
G02*
X19710000Y-3364000I-75000J0D01*
G01*
X19710000Y-3364000D02*
G75*
G02*
X19860000Y-3364000I75000J0D01*
G01*
X20345000Y-346000D02*
X20495000Y-496000D01*
X20495000Y-346000D02*
X20345000Y-496000D01*
X20495000Y-421000D02*
G75*
G02*
X20345000Y-421000I-75000J0D01*
G01*
X20345000Y-421000D02*
G75*
G02*
X20495000Y-421000I75000J0D01*
G01*
X20345000Y-1489000D02*
X20495000Y-1639000D01*
X20495000Y-1489000D02*
X20345000Y-1639000D01*
X20495000Y-1564000D02*
G75*
G02*
X20345000Y-1564000I-75000J0D01*
G01*
X20345000Y-1564000D02*
G75*
G02*
X20495000Y-1564000I75000J0D01*
G01*
X20345000Y-2146000D02*
X20495000Y-2296000D01*
X20495000Y-2146000D02*
X20345000Y-2296000D01*
X20495000Y-2221000D02*
G75*
G02*
X20345000Y-2221000I-75000J0D01*
G01*
X20345000Y-2221000D02*
G75*
G02*
X20495000Y-2221000I75000J0D01*
G01*
X20345000Y-3289000D02*
X20495000Y-3439000D01*
X20495000Y-3289000D02*
X20345000Y-3439000D01*
X20495000Y-3364000D02*
G75*
G02*
X20345000Y-3364000I-75000J0D01*
G01*
X20345000Y-3364000D02*
G75*
G02*
X20495000Y-3364000I75000J0D01*
G01*
D11*
X500000Y-336000D02*
X700000Y-536000D01*
X700000Y-336000D02*
X500000Y-536000D01*
X600000Y-336000D02*
X600000Y-536000D01*
X500000Y-436000D02*
X700000Y-436000D01*
X500000Y-1479000D02*
X700000Y-1679000D01*
X700000Y-1479000D02*
X500000Y-1679000D01*
X600000Y-1479000D02*
X600000Y-1679000D01*
X500000Y-1579000D02*
X700000Y-1579000D01*
X500000Y-2136000D02*
X700000Y-2336000D01*
X700000Y-2136000D02*
X500000Y-2336000D01*
X600000Y-2136000D02*
X600000Y-2336000D01*
X500000Y-2236000D02*
X700000Y-2236000D01*
X500000Y-3279000D02*
X700000Y-3479000D01*
X700000Y-3279000D02*
X500000Y-3479000D01*
X600000Y-3279000D02*
X600000Y-3479000D01*
X500000Y-3379000D02*
X700000Y-3379000D01*
X20000000Y-321000D02*
X20200000Y-521000D01*
X20200000Y-321000D02*
X20000000Y-521000D01*
X20100000Y-321000D02*
X20100000Y-521000D01*
X20000000Y-421000D02*
X20200000Y-421000D01*
X20000000Y-1464000D02*
X20200000Y-1664000D01*
X20200000Y-1464000D02*
X20000000Y-1664000D01*
X20100000Y-1464000D02*
X20100000Y-1664000D01*
X20000000Y-1564000D02*
X20200000Y-1564000D01*
X20000000Y-2121000D02*
X20200000Y-2321000D01*
X20200000Y-2121000D02*
X20000000Y-2321000D01*
X20100000Y-2121000D02*
X20100000Y-2321000D01*
X20000000Y-2221000D02*
X20200000Y-2221000D01*
X20000000Y-3264000D02*
X20200000Y-3464000D01*
X20200000Y-3264000D02*
X20000000Y-3464000D01*
X20100000Y-3264000D02*
X20100000Y-3464000D01*
X20000000Y-3364000D02*
X20200000Y-3364000D01*
D13*
X1085000Y-1216000D02*
X1385000Y-1516000D01*
X1385000Y-1216000D02*
X1085000Y-1516000D01*
X1341067Y-1472067D02*
X1341067Y-1259933D01*
X1128933Y-1259933D01*
X1128933Y-1472067D01*
X1341067Y-1472067D01*
X1085000Y-3016000D02*
X1385000Y-3316000D01*
X1385000Y-3016000D02*
X1085000Y-3316000D01*
X1341067Y-3272067D02*
X1341067Y-3059933D01*
X1128933Y-3059933D01*
X1128933Y-3272067D01*
X1341067Y-3272067D01*
X19315000Y-484000D02*
X19615000Y-784000D01*
X19615000Y-484000D02*
X19315000Y-784000D01*
X19571067Y-740067D02*
X19571067Y-527933D01*
X19358933Y-527933D01*
X19358933Y-740067D01*
X19571067Y-740067D01*
X19315000Y-2284000D02*
X19615000Y-2584000D01*
X19615000Y-2284000D02*
X19315000Y-2584000D01*
X19571067Y-2540067D02*
X19571067Y-2327933D01*
X19358933Y-2327933D01*
X19358933Y-2540067D01*
X19571067Y-2540067D01*
D11*
X255777Y-4116484D02*
X255777Y-3916484D01*
X255777Y-3916484D02*
X303396Y-3916484D01*
X303396Y-3916484D02*
X331967Y-3926008D01*
X331967Y-3926008D02*
X351015Y-3945055D01*
X351015Y-3945055D02*
X360539Y-3964103D01*
X360539Y-3964103D02*
X370062Y-4002198D01*
X370062Y-4002198D02*
X370062Y-4030769D01*
X370062Y-4030769D02*
X360539Y-4068865D01*
X360539Y-4068865D02*
X351015Y-4087912D01*
X351015Y-4087912D02*
X331967Y-4106960D01*
X331967Y-4106960D02*
X303396Y-4116484D01*
X303396Y-4116484D02*
X255777Y-4116484D01*
X455777Y-4116484D02*
X455777Y-3983150D01*
X455777Y-4021246D02*
X465301Y-4002198D01*
X465301Y-4002198D02*
X474824Y-3992674D01*
X474824Y-3992674D02*
X493872Y-3983150D01*
X493872Y-3983150D02*
X512920Y-3983150D01*
X579586Y-4116484D02*
X579586Y-3983150D01*
X579586Y-3916484D02*
X570063Y-3926008D01*
X570063Y-3926008D02*
X579586Y-3935531D01*
X579586Y-3935531D02*
X589110Y-3926008D01*
X589110Y-3926008D02*
X579586Y-3916484D01*
X579586Y-3916484D02*
X579586Y-3935531D01*
X703396Y-4116484D02*
X684348Y-4106960D01*
X684348Y-4106960D02*
X674824Y-4087912D01*
X674824Y-4087912D02*
X674824Y-3916484D01*
X808158Y-4116484D02*
X789110Y-4106960D01*
X789110Y-4106960D02*
X779586Y-4087912D01*
X779586Y-4087912D02*
X779586Y-3916484D01*
X1036729Y-4116484D02*
X1036729Y-3916484D01*
X1036729Y-3916484D02*
X1103396Y-4059341D01*
X1103396Y-4059341D02*
X1170063Y-3916484D01*
X1170063Y-3916484D02*
X1170063Y-4116484D01*
X1351015Y-4116484D02*
X1351015Y-4011722D01*
X1351015Y-4011722D02*
X1341491Y-3992674D01*
X1341491Y-3992674D02*
X1322444Y-3983150D01*
X1322444Y-3983150D02*
X1284348Y-3983150D01*
X1284348Y-3983150D02*
X1265301Y-3992674D01*
X1351015Y-4106960D02*
X1331967Y-4116484D01*
X1331967Y-4116484D02*
X1284348Y-4116484D01*
X1284348Y-4116484D02*
X1265301Y-4106960D01*
X1265301Y-4106960D02*
X1255777Y-4087912D01*
X1255777Y-4087912D02*
X1255777Y-4068865D01*
X1255777Y-4068865D02*
X1265301Y-4049817D01*
X1265301Y-4049817D02*
X1284348Y-4040293D01*
X1284348Y-4040293D02*
X1331967Y-4040293D01*
X1331967Y-4040293D02*
X1351015Y-4030769D01*
X1446253Y-3983150D02*
X1446253Y-4183150D01*
X1446253Y-3992674D02*
X1465301Y-3983150D01*
X1465301Y-3983150D02*
X1503396Y-3983150D01*
X1503396Y-3983150D02*
X1522443Y-3992674D01*
X1522443Y-3992674D02*
X1531967Y-4002198D01*
X1531967Y-4002198D02*
X1541491Y-4021246D01*
X1541491Y-4021246D02*
X1541491Y-4078388D01*
X1541491Y-4078388D02*
X1531967Y-4097436D01*
X1531967Y-4097436D02*
X1522443Y-4106960D01*
X1522443Y-4106960D02*
X1503396Y-4116484D01*
X1503396Y-4116484D02*
X1465301Y-4116484D01*
X1465301Y-4116484D02*
X1446253Y-4106960D01*
X1627205Y-4097436D02*
X1636729Y-4106960D01*
X1636729Y-4106960D02*
X1627205Y-4116484D01*
X1627205Y-4116484D02*
X1617682Y-4106960D01*
X1617682Y-4106960D02*
X1627205Y-4097436D01*
X1627205Y-4097436D02*
X1627205Y-4116484D01*
X1627205Y-3992674D02*
X1636729Y-4002198D01*
X1636729Y-4002198D02*
X1627205Y-4011722D01*
X1627205Y-4011722D02*
X1617682Y-4002198D01*
X1617682Y-4002198D02*
X1627205Y-3992674D01*
X1627205Y-3992674D02*
X1627205Y-4011722D01*
D10*
X-45000Y-4425000D02*
X-5000Y-4465000D01*
X-5000Y-4425000D02*
X-45000Y-4465000D01*
D11*
X293872Y-4336484D02*
X312920Y-4336484D01*
X312920Y-4336484D02*
X331967Y-4346008D01*
X331967Y-4346008D02*
X341491Y-4355531D01*
X341491Y-4355531D02*
X351015Y-4374579D01*
X351015Y-4374579D02*
X360539Y-4412674D01*
X360539Y-4412674D02*
X360539Y-4460293D01*
X360539Y-4460293D02*
X351015Y-4498389D01*
X351015Y-4498389D02*
X341491Y-4517436D01*
X341491Y-4517436D02*
X331967Y-4526960D01*
X331967Y-4526960D02*
X312920Y-4536484D01*
X312920Y-4536484D02*
X293872Y-4536484D01*
X293872Y-4536484D02*
X274824Y-4526960D01*
X274824Y-4526960D02*
X265301Y-4517436D01*
X265301Y-4517436D02*
X255777Y-4498389D01*
X255777Y-4498389D02*
X246253Y-4460293D01*
X246253Y-4460293D02*
X246253Y-4412674D01*
X246253Y-4412674D02*
X255777Y-4374579D01*
X255777Y-4374579D02*
X265301Y-4355531D01*
X265301Y-4355531D02*
X274824Y-4346008D01*
X274824Y-4346008D02*
X293872Y-4336484D01*
X446253Y-4517436D02*
X455777Y-4526960D01*
X455777Y-4526960D02*
X446253Y-4536484D01*
X446253Y-4536484D02*
X436729Y-4526960D01*
X436729Y-4526960D02*
X446253Y-4517436D01*
X446253Y-4517436D02*
X446253Y-4536484D01*
X627205Y-4403150D02*
X627205Y-4536484D01*
X579586Y-4326960D02*
X531967Y-4469817D01*
X531967Y-4469817D02*
X655777Y-4469817D01*
X770062Y-4336484D02*
X789110Y-4336484D01*
X789110Y-4336484D02*
X808158Y-4346008D01*
X808158Y-4346008D02*
X817682Y-4355531D01*
X817682Y-4355531D02*
X827205Y-4374579D01*
X827205Y-4374579D02*
X836729Y-4412674D01*
X836729Y-4412674D02*
X836729Y-4460293D01*
X836729Y-4460293D02*
X827205Y-4498389D01*
X827205Y-4498389D02*
X817682Y-4517436D01*
X817682Y-4517436D02*
X808158Y-4526960D01*
X808158Y-4526960D02*
X789110Y-4536484D01*
X789110Y-4536484D02*
X770062Y-4536484D01*
X770062Y-4536484D02*
X751015Y-4526960D01*
X751015Y-4526960D02*
X741491Y-4517436D01*
X741491Y-4517436D02*
X731967Y-4498389D01*
X731967Y-4498389D02*
X722443Y-4460293D01*
X722443Y-4460293D02*
X722443Y-4412674D01*
X722443Y-4412674D02*
X731967Y-4374579D01*
X731967Y-4374579D02*
X741491Y-4355531D01*
X741491Y-4355531D02*
X751015Y-4346008D01*
X751015Y-4346008D02*
X770062Y-4336484D01*
X960539Y-4336484D02*
X979586Y-4336484D01*
X979586Y-4336484D02*
X998634Y-4346008D01*
X998634Y-4346008D02*
X1008158Y-4355531D01*
X1008158Y-4355531D02*
X1017682Y-4374579D01*
X1017682Y-4374579D02*
X1027205Y-4412674D01*
X1027205Y-4412674D02*
X1027205Y-4460293D01*
X1027205Y-4460293D02*
X1017682Y-4498389D01*
X1017682Y-4498389D02*
X1008158Y-4517436D01*
X1008158Y-4517436D02*
X998634Y-4526960D01*
X998634Y-4526960D02*
X979586Y-4536484D01*
X979586Y-4536484D02*
X960539Y-4536484D01*
X960539Y-4536484D02*
X941491Y-4526960D01*
X941491Y-4526960D02*
X931967Y-4517436D01*
X931967Y-4517436D02*
X922443Y-4498389D01*
X922443Y-4498389D02*
X912920Y-4460293D01*
X912920Y-4460293D02*
X912920Y-4412674D01*
X912920Y-4412674D02*
X922443Y-4374579D01*
X922443Y-4374579D02*
X931967Y-4355531D01*
X931967Y-4355531D02*
X941491Y-4346008D01*
X941491Y-4346008D02*
X960539Y-4336484D01*
X1112920Y-4536484D02*
X1112920Y-4403150D01*
X1112920Y-4422198D02*
X1122444Y-4412674D01*
X1122444Y-4412674D02*
X1141491Y-4403150D01*
X1141491Y-4403150D02*
X1170063Y-4403150D01*
X1170063Y-4403150D02*
X1189110Y-4412674D01*
X1189110Y-4412674D02*
X1198634Y-4431722D01*
X1198634Y-4431722D02*
X1198634Y-4536484D01*
X1198634Y-4431722D02*
X1208158Y-4412674D01*
X1208158Y-4412674D02*
X1227205Y-4403150D01*
X1227205Y-4403150D02*
X1255777Y-4403150D01*
X1255777Y-4403150D02*
X1274825Y-4412674D01*
X1274825Y-4412674D02*
X1284348Y-4431722D01*
X1284348Y-4431722D02*
X1284348Y-4536484D01*
X1379586Y-4536484D02*
X1379586Y-4403150D01*
X1379586Y-4422198D02*
X1389110Y-4412674D01*
X1389110Y-4412674D02*
X1408158Y-4403150D01*
X1408158Y-4403150D02*
X1436729Y-4403150D01*
X1436729Y-4403150D02*
X1455777Y-4412674D01*
X1455777Y-4412674D02*
X1465301Y-4431722D01*
X1465301Y-4431722D02*
X1465301Y-4536484D01*
X1465301Y-4431722D02*
X1474824Y-4412674D01*
X1474824Y-4412674D02*
X1493872Y-4403150D01*
X1493872Y-4403150D02*
X1522443Y-4403150D01*
X1522443Y-4403150D02*
X1541491Y-4412674D01*
X1541491Y-4412674D02*
X1551015Y-4431722D01*
X1551015Y-4431722D02*
X1551015Y-4536484D01*
X1941491Y-4326960D02*
X1770063Y-4584103D01*
X2198634Y-4336484D02*
X2217682Y-4336484D01*
X2217682Y-4336484D02*
X2236729Y-4346008D01*
X2236729Y-4346008D02*
X2246253Y-4355531D01*
X2246253Y-4355531D02*
X2255777Y-4374579D01*
X2255777Y-4374579D02*
X2265301Y-4412674D01*
X2265301Y-4412674D02*
X2265301Y-4460293D01*
X2265301Y-4460293D02*
X2255777Y-4498389D01*
X2255777Y-4498389D02*
X2246253Y-4517436D01*
X2246253Y-4517436D02*
X2236729Y-4526960D01*
X2236729Y-4526960D02*
X2217682Y-4536484D01*
X2217682Y-4536484D02*
X2198634Y-4536484D01*
X2198634Y-4536484D02*
X2179587Y-4526960D01*
X2179587Y-4526960D02*
X2170063Y-4517436D01*
X2170063Y-4517436D02*
X2160539Y-4498389D01*
X2160539Y-4498389D02*
X2151015Y-4460293D01*
X2151015Y-4460293D02*
X2151015Y-4412674D01*
X2151015Y-4412674D02*
X2160539Y-4374579D01*
X2160539Y-4374579D02*
X2170063Y-4355531D01*
X2170063Y-4355531D02*
X2179587Y-4346008D01*
X2179587Y-4346008D02*
X2198634Y-4336484D01*
X2351015Y-4517436D02*
X2360539Y-4526960D01*
X2360539Y-4526960D02*
X2351015Y-4536484D01*
X2351015Y-4536484D02*
X2341491Y-4526960D01*
X2341491Y-4526960D02*
X2351015Y-4517436D01*
X2351015Y-4517436D02*
X2351015Y-4536484D01*
X2484348Y-4336484D02*
X2503396Y-4336484D01*
X2503396Y-4336484D02*
X2522444Y-4346008D01*
X2522444Y-4346008D02*
X2531968Y-4355531D01*
X2531968Y-4355531D02*
X2541491Y-4374579D01*
X2541491Y-4374579D02*
X2551015Y-4412674D01*
X2551015Y-4412674D02*
X2551015Y-4460293D01*
X2551015Y-4460293D02*
X2541491Y-4498389D01*
X2541491Y-4498389D02*
X2531968Y-4517436D01*
X2531968Y-4517436D02*
X2522444Y-4526960D01*
X2522444Y-4526960D02*
X2503396Y-4536484D01*
X2503396Y-4536484D02*
X2484348Y-4536484D01*
X2484348Y-4536484D02*
X2465301Y-4526960D01*
X2465301Y-4526960D02*
X2455777Y-4517436D01*
X2455777Y-4517436D02*
X2446253Y-4498389D01*
X2446253Y-4498389D02*
X2436729Y-4460293D01*
X2436729Y-4460293D02*
X2436729Y-4412674D01*
X2436729Y-4412674D02*
X2446253Y-4374579D01*
X2446253Y-4374579D02*
X2455777Y-4355531D01*
X2455777Y-4355531D02*
X2465301Y-4346008D01*
X2465301Y-4346008D02*
X2484348Y-4336484D01*
X2741491Y-4536484D02*
X2627206Y-4536484D01*
X2684348Y-4536484D02*
X2684348Y-4336484D01*
X2684348Y-4336484D02*
X2665301Y-4365055D01*
X2665301Y-4365055D02*
X2646253Y-4384103D01*
X2646253Y-4384103D02*
X2627206Y-4393627D01*
X2922444Y-4336484D02*
X2827206Y-4336484D01*
X2827206Y-4336484D02*
X2817682Y-4431722D01*
X2817682Y-4431722D02*
X2827206Y-4422198D01*
X2827206Y-4422198D02*
X2846253Y-4412674D01*
X2846253Y-4412674D02*
X2893872Y-4412674D01*
X2893872Y-4412674D02*
X2912920Y-4422198D01*
X2912920Y-4422198D02*
X2922444Y-4431722D01*
X2922444Y-4431722D02*
X2931967Y-4450770D01*
X2931967Y-4450770D02*
X2931967Y-4498389D01*
X2931967Y-4498389D02*
X2922444Y-4517436D01*
X2922444Y-4517436D02*
X2912920Y-4526960D01*
X2912920Y-4526960D02*
X2893872Y-4536484D01*
X2893872Y-4536484D02*
X2846253Y-4536484D01*
X2846253Y-4536484D02*
X2827206Y-4526960D01*
X2827206Y-4526960D02*
X2817682Y-4517436D01*
X2998634Y-4336484D02*
X3131967Y-4336484D01*
X3131967Y-4336484D02*
X3046253Y-4536484D01*
X3198634Y-4336484D02*
X3198634Y-4374579D01*
X3274825Y-4336484D02*
X3274825Y-4374579D01*
X3570063Y-4612674D02*
X3560539Y-4603150D01*
X3560539Y-4603150D02*
X3541491Y-4574579D01*
X3541491Y-4574579D02*
X3531968Y-4555531D01*
X3531968Y-4555531D02*
X3522444Y-4526960D01*
X3522444Y-4526960D02*
X3512920Y-4479341D01*
X3512920Y-4479341D02*
X3512920Y-4441246D01*
X3512920Y-4441246D02*
X3522444Y-4393627D01*
X3522444Y-4393627D02*
X3531968Y-4365055D01*
X3531968Y-4365055D02*
X3541491Y-4346008D01*
X3541491Y-4346008D02*
X3560539Y-4317436D01*
X3560539Y-4317436D02*
X3570063Y-4307912D01*
X3627206Y-4336484D02*
X3751015Y-4336484D01*
X3751015Y-4336484D02*
X3684348Y-4412674D01*
X3684348Y-4412674D02*
X3712920Y-4412674D01*
X3712920Y-4412674D02*
X3731968Y-4422198D01*
X3731968Y-4422198D02*
X3741491Y-4431722D01*
X3741491Y-4431722D02*
X3751015Y-4450770D01*
X3751015Y-4450770D02*
X3751015Y-4498389D01*
X3751015Y-4498389D02*
X3741491Y-4517436D01*
X3741491Y-4517436D02*
X3731968Y-4526960D01*
X3731968Y-4526960D02*
X3712920Y-4536484D01*
X3712920Y-4536484D02*
X3655777Y-4536484D01*
X3655777Y-4536484D02*
X3636729Y-4526960D01*
X3636729Y-4526960D02*
X3627206Y-4517436D01*
X3865301Y-4422198D02*
X3846253Y-4412674D01*
X3846253Y-4412674D02*
X3836729Y-4403150D01*
X3836729Y-4403150D02*
X3827206Y-4384103D01*
X3827206Y-4384103D02*
X3827206Y-4374579D01*
X3827206Y-4374579D02*
X3836729Y-4355531D01*
X3836729Y-4355531D02*
X3846253Y-4346008D01*
X3846253Y-4346008D02*
X3865301Y-4336484D01*
X3865301Y-4336484D02*
X3903396Y-4336484D01*
X3903396Y-4336484D02*
X3922444Y-4346008D01*
X3922444Y-4346008D02*
X3931968Y-4355531D01*
X3931968Y-4355531D02*
X3941491Y-4374579D01*
X3941491Y-4374579D02*
X3941491Y-4384103D01*
X3941491Y-4384103D02*
X3931968Y-4403150D01*
X3931968Y-4403150D02*
X3922444Y-4412674D01*
X3922444Y-4412674D02*
X3903396Y-4422198D01*
X3903396Y-4422198D02*
X3865301Y-4422198D01*
X3865301Y-4422198D02*
X3846253Y-4431722D01*
X3846253Y-4431722D02*
X3836729Y-4441246D01*
X3836729Y-4441246D02*
X3827206Y-4460293D01*
X3827206Y-4460293D02*
X3827206Y-4498389D01*
X3827206Y-4498389D02*
X3836729Y-4517436D01*
X3836729Y-4517436D02*
X3846253Y-4526960D01*
X3846253Y-4526960D02*
X3865301Y-4536484D01*
X3865301Y-4536484D02*
X3903396Y-4536484D01*
X3903396Y-4536484D02*
X3922444Y-4526960D01*
X3922444Y-4526960D02*
X3931968Y-4517436D01*
X3931968Y-4517436D02*
X3941491Y-4498389D01*
X3941491Y-4498389D02*
X3941491Y-4460293D01*
X3941491Y-4460293D02*
X3931968Y-4441246D01*
X3931968Y-4441246D02*
X3922444Y-4431722D01*
X3922444Y-4431722D02*
X3903396Y-4422198D01*
X4179587Y-4536484D02*
X4179587Y-4336484D01*
X4265301Y-4536484D02*
X4265301Y-4431722D01*
X4265301Y-4431722D02*
X4255777Y-4412674D01*
X4255777Y-4412674D02*
X4236730Y-4403150D01*
X4236730Y-4403150D02*
X4208158Y-4403150D01*
X4208158Y-4403150D02*
X4189110Y-4412674D01*
X4189110Y-4412674D02*
X4179587Y-4422198D01*
X4389111Y-4536484D02*
X4370063Y-4526960D01*
X4370063Y-4526960D02*
X4360539Y-4517436D01*
X4360539Y-4517436D02*
X4351015Y-4498389D01*
X4351015Y-4498389D02*
X4351015Y-4441246D01*
X4351015Y-4441246D02*
X4360539Y-4422198D01*
X4360539Y-4422198D02*
X4370063Y-4412674D01*
X4370063Y-4412674D02*
X4389111Y-4403150D01*
X4389111Y-4403150D02*
X4417682Y-4403150D01*
X4417682Y-4403150D02*
X4436730Y-4412674D01*
X4436730Y-4412674D02*
X4446253Y-4422198D01*
X4446253Y-4422198D02*
X4455777Y-4441246D01*
X4455777Y-4441246D02*
X4455777Y-4498389D01*
X4455777Y-4498389D02*
X4446253Y-4517436D01*
X4446253Y-4517436D02*
X4436730Y-4526960D01*
X4436730Y-4526960D02*
X4417682Y-4536484D01*
X4417682Y-4536484D02*
X4389111Y-4536484D01*
X4570063Y-4536484D02*
X4551015Y-4526960D01*
X4551015Y-4526960D02*
X4541492Y-4507912D01*
X4541492Y-4507912D02*
X4541492Y-4336484D01*
X4722444Y-4526960D02*
X4703396Y-4536484D01*
X4703396Y-4536484D02*
X4665301Y-4536484D01*
X4665301Y-4536484D02*
X4646253Y-4526960D01*
X4646253Y-4526960D02*
X4636730Y-4507912D01*
X4636730Y-4507912D02*
X4636730Y-4431722D01*
X4636730Y-4431722D02*
X4646253Y-4412674D01*
X4646253Y-4412674D02*
X4665301Y-4403150D01*
X4665301Y-4403150D02*
X4703396Y-4403150D01*
X4703396Y-4403150D02*
X4722444Y-4412674D01*
X4722444Y-4412674D02*
X4731968Y-4431722D01*
X4731968Y-4431722D02*
X4731968Y-4450770D01*
X4731968Y-4450770D02*
X4636730Y-4469817D01*
X4808158Y-4526960D02*
X4827206Y-4536484D01*
X4827206Y-4536484D02*
X4865301Y-4536484D01*
X4865301Y-4536484D02*
X4884349Y-4526960D01*
X4884349Y-4526960D02*
X4893873Y-4507912D01*
X4893873Y-4507912D02*
X4893873Y-4498389D01*
X4893873Y-4498389D02*
X4884349Y-4479341D01*
X4884349Y-4479341D02*
X4865301Y-4469817D01*
X4865301Y-4469817D02*
X4836730Y-4469817D01*
X4836730Y-4469817D02*
X4817682Y-4460293D01*
X4817682Y-4460293D02*
X4808158Y-4441246D01*
X4808158Y-4441246D02*
X4808158Y-4431722D01*
X4808158Y-4431722D02*
X4817682Y-4412674D01*
X4817682Y-4412674D02*
X4836730Y-4403150D01*
X4836730Y-4403150D02*
X4865301Y-4403150D01*
X4865301Y-4403150D02*
X4884349Y-4412674D01*
X4960539Y-4612674D02*
X4970063Y-4603150D01*
X4970063Y-4603150D02*
X4989111Y-4574579D01*
X4989111Y-4574579D02*
X4998634Y-4555531D01*
X4998634Y-4555531D02*
X5008158Y-4526960D01*
X5008158Y-4526960D02*
X5017682Y-4479341D01*
X5017682Y-4479341D02*
X5017682Y-4441246D01*
X5017682Y-4441246D02*
X5008158Y-4393627D01*
X5008158Y-4393627D02*
X4998634Y-4365055D01*
X4998634Y-4365055D02*
X4989111Y-4346008D01*
X4989111Y-4346008D02*
X4970063Y-4317436D01*
X4970063Y-4317436D02*
X4960539Y-4307912D01*
D10*
X-5000Y-4709000D02*
G75*
G02*
X-55000Y-4709000I-25000J0D01*
G01*
X-55000Y-4709000D02*
G75*
G02*
X-5000Y-4709000I25000J0D01*
G01*
D11*
X293872Y-4600484D02*
X312920Y-4600484D01*
X312920Y-4600484D02*
X331967Y-4610008D01*
X331967Y-4610008D02*
X341491Y-4619531D01*
X341491Y-4619531D02*
X351015Y-4638579D01*
X351015Y-4638579D02*
X360539Y-4676674D01*
X360539Y-4676674D02*
X360539Y-4724293D01*
X360539Y-4724293D02*
X351015Y-4762389D01*
X351015Y-4762389D02*
X341491Y-4781436D01*
X341491Y-4781436D02*
X331967Y-4790960D01*
X331967Y-4790960D02*
X312920Y-4800484D01*
X312920Y-4800484D02*
X293872Y-4800484D01*
X293872Y-4800484D02*
X274824Y-4790960D01*
X274824Y-4790960D02*
X265301Y-4781436D01*
X265301Y-4781436D02*
X255777Y-4762389D01*
X255777Y-4762389D02*
X246253Y-4724293D01*
X246253Y-4724293D02*
X246253Y-4676674D01*
X246253Y-4676674D02*
X255777Y-4638579D01*
X255777Y-4638579D02*
X265301Y-4619531D01*
X265301Y-4619531D02*
X274824Y-4610008D01*
X274824Y-4610008D02*
X293872Y-4600484D01*
X446253Y-4781436D02*
X455777Y-4790960D01*
X455777Y-4790960D02*
X446253Y-4800484D01*
X446253Y-4800484D02*
X436729Y-4790960D01*
X436729Y-4790960D02*
X446253Y-4781436D01*
X446253Y-4781436D02*
X446253Y-4800484D01*
X636729Y-4600484D02*
X541491Y-4600484D01*
X541491Y-4600484D02*
X531967Y-4695722D01*
X531967Y-4695722D02*
X541491Y-4686198D01*
X541491Y-4686198D02*
X560539Y-4676674D01*
X560539Y-4676674D02*
X608158Y-4676674D01*
X608158Y-4676674D02*
X627205Y-4686198D01*
X627205Y-4686198D02*
X636729Y-4695722D01*
X636729Y-4695722D02*
X646253Y-4714770D01*
X646253Y-4714770D02*
X646253Y-4762389D01*
X646253Y-4762389D02*
X636729Y-4781436D01*
X636729Y-4781436D02*
X627205Y-4790960D01*
X627205Y-4790960D02*
X608158Y-4800484D01*
X608158Y-4800484D02*
X560539Y-4800484D01*
X560539Y-4800484D02*
X541491Y-4790960D01*
X541491Y-4790960D02*
X531967Y-4781436D01*
X770062Y-4600484D02*
X789110Y-4600484D01*
X789110Y-4600484D02*
X808158Y-4610008D01*
X808158Y-4610008D02*
X817682Y-4619531D01*
X817682Y-4619531D02*
X827205Y-4638579D01*
X827205Y-4638579D02*
X836729Y-4676674D01*
X836729Y-4676674D02*
X836729Y-4724293D01*
X836729Y-4724293D02*
X827205Y-4762389D01*
X827205Y-4762389D02*
X817682Y-4781436D01*
X817682Y-4781436D02*
X808158Y-4790960D01*
X808158Y-4790960D02*
X789110Y-4800484D01*
X789110Y-4800484D02*
X770062Y-4800484D01*
X770062Y-4800484D02*
X751015Y-4790960D01*
X751015Y-4790960D02*
X741491Y-4781436D01*
X741491Y-4781436D02*
X731967Y-4762389D01*
X731967Y-4762389D02*
X722443Y-4724293D01*
X722443Y-4724293D02*
X722443Y-4676674D01*
X722443Y-4676674D02*
X731967Y-4638579D01*
X731967Y-4638579D02*
X741491Y-4619531D01*
X741491Y-4619531D02*
X751015Y-4610008D01*
X751015Y-4610008D02*
X770062Y-4600484D01*
X960539Y-4600484D02*
X979586Y-4600484D01*
X979586Y-4600484D02*
X998634Y-4610008D01*
X998634Y-4610008D02*
X1008158Y-4619531D01*
X1008158Y-4619531D02*
X1017682Y-4638579D01*
X1017682Y-4638579D02*
X1027205Y-4676674D01*
X1027205Y-4676674D02*
X1027205Y-4724293D01*
X1027205Y-4724293D02*
X1017682Y-4762389D01*
X1017682Y-4762389D02*
X1008158Y-4781436D01*
X1008158Y-4781436D02*
X998634Y-4790960D01*
X998634Y-4790960D02*
X979586Y-4800484D01*
X979586Y-4800484D02*
X960539Y-4800484D01*
X960539Y-4800484D02*
X941491Y-4790960D01*
X941491Y-4790960D02*
X931967Y-4781436D01*
X931967Y-4781436D02*
X922443Y-4762389D01*
X922443Y-4762389D02*
X912920Y-4724293D01*
X912920Y-4724293D02*
X912920Y-4676674D01*
X912920Y-4676674D02*
X922443Y-4638579D01*
X922443Y-4638579D02*
X931967Y-4619531D01*
X931967Y-4619531D02*
X941491Y-4610008D01*
X941491Y-4610008D02*
X960539Y-4600484D01*
X1112920Y-4800484D02*
X1112920Y-4667150D01*
X1112920Y-4686198D02*
X1122444Y-4676674D01*
X1122444Y-4676674D02*
X1141491Y-4667150D01*
X1141491Y-4667150D02*
X1170063Y-4667150D01*
X1170063Y-4667150D02*
X1189110Y-4676674D01*
X1189110Y-4676674D02*
X1198634Y-4695722D01*
X1198634Y-4695722D02*
X1198634Y-4800484D01*
X1198634Y-4695722D02*
X1208158Y-4676674D01*
X1208158Y-4676674D02*
X1227205Y-4667150D01*
X1227205Y-4667150D02*
X1255777Y-4667150D01*
X1255777Y-4667150D02*
X1274825Y-4676674D01*
X1274825Y-4676674D02*
X1284348Y-4695722D01*
X1284348Y-4695722D02*
X1284348Y-4800484D01*
X1379586Y-4800484D02*
X1379586Y-4667150D01*
X1379586Y-4686198D02*
X1389110Y-4676674D01*
X1389110Y-4676674D02*
X1408158Y-4667150D01*
X1408158Y-4667150D02*
X1436729Y-4667150D01*
X1436729Y-4667150D02*
X1455777Y-4676674D01*
X1455777Y-4676674D02*
X1465301Y-4695722D01*
X1465301Y-4695722D02*
X1465301Y-4800484D01*
X1465301Y-4695722D02*
X1474824Y-4676674D01*
X1474824Y-4676674D02*
X1493872Y-4667150D01*
X1493872Y-4667150D02*
X1522443Y-4667150D01*
X1522443Y-4667150D02*
X1541491Y-4676674D01*
X1541491Y-4676674D02*
X1551015Y-4695722D01*
X1551015Y-4695722D02*
X1551015Y-4800484D01*
X1941491Y-4590960D02*
X1770063Y-4848103D01*
X2198634Y-4600484D02*
X2217682Y-4600484D01*
X2217682Y-4600484D02*
X2236729Y-4610008D01*
X2236729Y-4610008D02*
X2246253Y-4619531D01*
X2246253Y-4619531D02*
X2255777Y-4638579D01*
X2255777Y-4638579D02*
X2265301Y-4676674D01*
X2265301Y-4676674D02*
X2265301Y-4724293D01*
X2265301Y-4724293D02*
X2255777Y-4762389D01*
X2255777Y-4762389D02*
X2246253Y-4781436D01*
X2246253Y-4781436D02*
X2236729Y-4790960D01*
X2236729Y-4790960D02*
X2217682Y-4800484D01*
X2217682Y-4800484D02*
X2198634Y-4800484D01*
X2198634Y-4800484D02*
X2179587Y-4790960D01*
X2179587Y-4790960D02*
X2170063Y-4781436D01*
X2170063Y-4781436D02*
X2160539Y-4762389D01*
X2160539Y-4762389D02*
X2151015Y-4724293D01*
X2151015Y-4724293D02*
X2151015Y-4676674D01*
X2151015Y-4676674D02*
X2160539Y-4638579D01*
X2160539Y-4638579D02*
X2170063Y-4619531D01*
X2170063Y-4619531D02*
X2179587Y-4610008D01*
X2179587Y-4610008D02*
X2198634Y-4600484D01*
X2351015Y-4781436D02*
X2360539Y-4790960D01*
X2360539Y-4790960D02*
X2351015Y-4800484D01*
X2351015Y-4800484D02*
X2341491Y-4790960D01*
X2341491Y-4790960D02*
X2351015Y-4781436D01*
X2351015Y-4781436D02*
X2351015Y-4800484D01*
X2484348Y-4600484D02*
X2503396Y-4600484D01*
X2503396Y-4600484D02*
X2522444Y-4610008D01*
X2522444Y-4610008D02*
X2531968Y-4619531D01*
X2531968Y-4619531D02*
X2541491Y-4638579D01*
X2541491Y-4638579D02*
X2551015Y-4676674D01*
X2551015Y-4676674D02*
X2551015Y-4724293D01*
X2551015Y-4724293D02*
X2541491Y-4762389D01*
X2541491Y-4762389D02*
X2531968Y-4781436D01*
X2531968Y-4781436D02*
X2522444Y-4790960D01*
X2522444Y-4790960D02*
X2503396Y-4800484D01*
X2503396Y-4800484D02*
X2484348Y-4800484D01*
X2484348Y-4800484D02*
X2465301Y-4790960D01*
X2465301Y-4790960D02*
X2455777Y-4781436D01*
X2455777Y-4781436D02*
X2446253Y-4762389D01*
X2446253Y-4762389D02*
X2436729Y-4724293D01*
X2436729Y-4724293D02*
X2436729Y-4676674D01*
X2436729Y-4676674D02*
X2446253Y-4638579D01*
X2446253Y-4638579D02*
X2455777Y-4619531D01*
X2455777Y-4619531D02*
X2465301Y-4610008D01*
X2465301Y-4610008D02*
X2484348Y-4600484D01*
X2741491Y-4800484D02*
X2627206Y-4800484D01*
X2684348Y-4800484D02*
X2684348Y-4600484D01*
X2684348Y-4600484D02*
X2665301Y-4629055D01*
X2665301Y-4629055D02*
X2646253Y-4648103D01*
X2646253Y-4648103D02*
X2627206Y-4657627D01*
X2836729Y-4800484D02*
X2874825Y-4800484D01*
X2874825Y-4800484D02*
X2893872Y-4790960D01*
X2893872Y-4790960D02*
X2903396Y-4781436D01*
X2903396Y-4781436D02*
X2922444Y-4752865D01*
X2922444Y-4752865D02*
X2931967Y-4714770D01*
X2931967Y-4714770D02*
X2931967Y-4638579D01*
X2931967Y-4638579D02*
X2922444Y-4619531D01*
X2922444Y-4619531D02*
X2912920Y-4610008D01*
X2912920Y-4610008D02*
X2893872Y-4600484D01*
X2893872Y-4600484D02*
X2855777Y-4600484D01*
X2855777Y-4600484D02*
X2836729Y-4610008D01*
X2836729Y-4610008D02*
X2827206Y-4619531D01*
X2827206Y-4619531D02*
X2817682Y-4638579D01*
X2817682Y-4638579D02*
X2817682Y-4686198D01*
X2817682Y-4686198D02*
X2827206Y-4705246D01*
X2827206Y-4705246D02*
X2836729Y-4714770D01*
X2836729Y-4714770D02*
X2855777Y-4724293D01*
X2855777Y-4724293D02*
X2893872Y-4724293D01*
X2893872Y-4724293D02*
X2912920Y-4714770D01*
X2912920Y-4714770D02*
X2922444Y-4705246D01*
X2922444Y-4705246D02*
X2931967Y-4686198D01*
X2998634Y-4600484D02*
X3131967Y-4600484D01*
X3131967Y-4600484D02*
X3046253Y-4800484D01*
X3198634Y-4600484D02*
X3198634Y-4638579D01*
X3274825Y-4600484D02*
X3274825Y-4638579D01*
X3570063Y-4876674D02*
X3560539Y-4867150D01*
X3560539Y-4867150D02*
X3541491Y-4838579D01*
X3541491Y-4838579D02*
X3531968Y-4819531D01*
X3531968Y-4819531D02*
X3522444Y-4790960D01*
X3522444Y-4790960D02*
X3512920Y-4743341D01*
X3512920Y-4743341D02*
X3512920Y-4705246D01*
X3512920Y-4705246D02*
X3522444Y-4657627D01*
X3522444Y-4657627D02*
X3531968Y-4629055D01*
X3531968Y-4629055D02*
X3541491Y-4610008D01*
X3541491Y-4610008D02*
X3560539Y-4581436D01*
X3560539Y-4581436D02*
X3570063Y-4571912D01*
X3731968Y-4600484D02*
X3693872Y-4600484D01*
X3693872Y-4600484D02*
X3674825Y-4610008D01*
X3674825Y-4610008D02*
X3665301Y-4619531D01*
X3665301Y-4619531D02*
X3646253Y-4648103D01*
X3646253Y-4648103D02*
X3636729Y-4686198D01*
X3636729Y-4686198D02*
X3636729Y-4762389D01*
X3636729Y-4762389D02*
X3646253Y-4781436D01*
X3646253Y-4781436D02*
X3655777Y-4790960D01*
X3655777Y-4790960D02*
X3674825Y-4800484D01*
X3674825Y-4800484D02*
X3712920Y-4800484D01*
X3712920Y-4800484D02*
X3731968Y-4790960D01*
X3731968Y-4790960D02*
X3741491Y-4781436D01*
X3741491Y-4781436D02*
X3751015Y-4762389D01*
X3751015Y-4762389D02*
X3751015Y-4714770D01*
X3751015Y-4714770D02*
X3741491Y-4695722D01*
X3741491Y-4695722D02*
X3731968Y-4686198D01*
X3731968Y-4686198D02*
X3712920Y-4676674D01*
X3712920Y-4676674D02*
X3674825Y-4676674D01*
X3674825Y-4676674D02*
X3655777Y-4686198D01*
X3655777Y-4686198D02*
X3646253Y-4695722D01*
X3646253Y-4695722D02*
X3636729Y-4714770D01*
X3989110Y-4800484D02*
X3989110Y-4600484D01*
X4074825Y-4800484D02*
X4074825Y-4695722D01*
X4074825Y-4695722D02*
X4065301Y-4676674D01*
X4065301Y-4676674D02*
X4046253Y-4667150D01*
X4046253Y-4667150D02*
X4017682Y-4667150D01*
X4017682Y-4667150D02*
X3998634Y-4676674D01*
X3998634Y-4676674D02*
X3989110Y-4686198D01*
X4198634Y-4800484D02*
X4179587Y-4790960D01*
X4179587Y-4790960D02*
X4170063Y-4781436D01*
X4170063Y-4781436D02*
X4160539Y-4762389D01*
X4160539Y-4762389D02*
X4160539Y-4705246D01*
X4160539Y-4705246D02*
X4170063Y-4686198D01*
X4170063Y-4686198D02*
X4179587Y-4676674D01*
X4179587Y-4676674D02*
X4198634Y-4667150D01*
X4198634Y-4667150D02*
X4227206Y-4667150D01*
X4227206Y-4667150D02*
X4246253Y-4676674D01*
X4246253Y-4676674D02*
X4255777Y-4686198D01*
X4255777Y-4686198D02*
X4265301Y-4705246D01*
X4265301Y-4705246D02*
X4265301Y-4762389D01*
X4265301Y-4762389D02*
X4255777Y-4781436D01*
X4255777Y-4781436D02*
X4246253Y-4790960D01*
X4246253Y-4790960D02*
X4227206Y-4800484D01*
X4227206Y-4800484D02*
X4198634Y-4800484D01*
X4379587Y-4800484D02*
X4360539Y-4790960D01*
X4360539Y-4790960D02*
X4351015Y-4771912D01*
X4351015Y-4771912D02*
X4351015Y-4600484D01*
X4531968Y-4790960D02*
X4512920Y-4800484D01*
X4512920Y-4800484D02*
X4474825Y-4800484D01*
X4474825Y-4800484D02*
X4455777Y-4790960D01*
X4455777Y-4790960D02*
X4446253Y-4771912D01*
X4446253Y-4771912D02*
X4446253Y-4695722D01*
X4446253Y-4695722D02*
X4455777Y-4676674D01*
X4455777Y-4676674D02*
X4474825Y-4667150D01*
X4474825Y-4667150D02*
X4512920Y-4667150D01*
X4512920Y-4667150D02*
X4531968Y-4676674D01*
X4531968Y-4676674D02*
X4541492Y-4695722D01*
X4541492Y-4695722D02*
X4541492Y-4714770D01*
X4541492Y-4714770D02*
X4446253Y-4733817D01*
X4617682Y-4790960D02*
X4636730Y-4800484D01*
X4636730Y-4800484D02*
X4674825Y-4800484D01*
X4674825Y-4800484D02*
X4693873Y-4790960D01*
X4693873Y-4790960D02*
X4703396Y-4771912D01*
X4703396Y-4771912D02*
X4703396Y-4762389D01*
X4703396Y-4762389D02*
X4693873Y-4743341D01*
X4693873Y-4743341D02*
X4674825Y-4733817D01*
X4674825Y-4733817D02*
X4646253Y-4733817D01*
X4646253Y-4733817D02*
X4627206Y-4724293D01*
X4627206Y-4724293D02*
X4617682Y-4705246D01*
X4617682Y-4705246D02*
X4617682Y-4695722D01*
X4617682Y-4695722D02*
X4627206Y-4676674D01*
X4627206Y-4676674D02*
X4646253Y-4667150D01*
X4646253Y-4667150D02*
X4674825Y-4667150D01*
X4674825Y-4667150D02*
X4693873Y-4676674D01*
X4770063Y-4876674D02*
X4779587Y-4867150D01*
X4779587Y-4867150D02*
X4798634Y-4838579D01*
X4798634Y-4838579D02*
X4808158Y-4819531D01*
X4808158Y-4819531D02*
X4817682Y-4790960D01*
X4817682Y-4790960D02*
X4827206Y-4743341D01*
X4827206Y-4743341D02*
X4827206Y-4705246D01*
X4827206Y-4705246D02*
X4817682Y-4657627D01*
X4817682Y-4657627D02*
X4808158Y-4629055D01*
X4808158Y-4629055D02*
X4798634Y-4610008D01*
X4798634Y-4610008D02*
X4779587Y-4581436D01*
X4779587Y-4581436D02*
X4770063Y-4571912D01*
D10*
X-45000Y-4933000D02*
X-45000Y-5013000D01*
X-85000Y-4973000D02*
X-5000Y-4973000D01*
D11*
X293872Y-4864484D02*
X312920Y-4864484D01*
X312920Y-4864484D02*
X331967Y-4874008D01*
X331967Y-4874008D02*
X341491Y-4883531D01*
X341491Y-4883531D02*
X351015Y-4902579D01*
X351015Y-4902579D02*
X360539Y-4940674D01*
X360539Y-4940674D02*
X360539Y-4988293D01*
X360539Y-4988293D02*
X351015Y-5026389D01*
X351015Y-5026389D02*
X341491Y-5045436D01*
X341491Y-5045436D02*
X331967Y-5054960D01*
X331967Y-5054960D02*
X312920Y-5064484D01*
X312920Y-5064484D02*
X293872Y-5064484D01*
X293872Y-5064484D02*
X274824Y-5054960D01*
X274824Y-5054960D02*
X265301Y-5045436D01*
X265301Y-5045436D02*
X255777Y-5026389D01*
X255777Y-5026389D02*
X246253Y-4988293D01*
X246253Y-4988293D02*
X246253Y-4940674D01*
X246253Y-4940674D02*
X255777Y-4902579D01*
X255777Y-4902579D02*
X265301Y-4883531D01*
X265301Y-4883531D02*
X274824Y-4874008D01*
X274824Y-4874008D02*
X293872Y-4864484D01*
X446253Y-5045436D02*
X455777Y-5054960D01*
X455777Y-5054960D02*
X446253Y-5064484D01*
X446253Y-5064484D02*
X436729Y-5054960D01*
X436729Y-5054960D02*
X446253Y-5045436D01*
X446253Y-5045436D02*
X446253Y-5064484D01*
X570063Y-4950198D02*
X551015Y-4940674D01*
X551015Y-4940674D02*
X541491Y-4931150D01*
X541491Y-4931150D02*
X531967Y-4912103D01*
X531967Y-4912103D02*
X531967Y-4902579D01*
X531967Y-4902579D02*
X541491Y-4883531D01*
X541491Y-4883531D02*
X551015Y-4874008D01*
X551015Y-4874008D02*
X570063Y-4864484D01*
X570063Y-4864484D02*
X608158Y-4864484D01*
X608158Y-4864484D02*
X627205Y-4874008D01*
X627205Y-4874008D02*
X636729Y-4883531D01*
X636729Y-4883531D02*
X646253Y-4902579D01*
X646253Y-4902579D02*
X646253Y-4912103D01*
X646253Y-4912103D02*
X636729Y-4931150D01*
X636729Y-4931150D02*
X627205Y-4940674D01*
X627205Y-4940674D02*
X608158Y-4950198D01*
X608158Y-4950198D02*
X570063Y-4950198D01*
X570063Y-4950198D02*
X551015Y-4959722D01*
X551015Y-4959722D02*
X541491Y-4969246D01*
X541491Y-4969246D02*
X531967Y-4988293D01*
X531967Y-4988293D02*
X531967Y-5026389D01*
X531967Y-5026389D02*
X541491Y-5045436D01*
X541491Y-5045436D02*
X551015Y-5054960D01*
X551015Y-5054960D02*
X570063Y-5064484D01*
X570063Y-5064484D02*
X608158Y-5064484D01*
X608158Y-5064484D02*
X627205Y-5054960D01*
X627205Y-5054960D02*
X636729Y-5045436D01*
X636729Y-5045436D02*
X646253Y-5026389D01*
X646253Y-5026389D02*
X646253Y-4988293D01*
X646253Y-4988293D02*
X636729Y-4969246D01*
X636729Y-4969246D02*
X627205Y-4959722D01*
X627205Y-4959722D02*
X608158Y-4950198D01*
X770062Y-4864484D02*
X789110Y-4864484D01*
X789110Y-4864484D02*
X808158Y-4874008D01*
X808158Y-4874008D02*
X817682Y-4883531D01*
X817682Y-4883531D02*
X827205Y-4902579D01*
X827205Y-4902579D02*
X836729Y-4940674D01*
X836729Y-4940674D02*
X836729Y-4988293D01*
X836729Y-4988293D02*
X827205Y-5026389D01*
X827205Y-5026389D02*
X817682Y-5045436D01*
X817682Y-5045436D02*
X808158Y-5054960D01*
X808158Y-5054960D02*
X789110Y-5064484D01*
X789110Y-5064484D02*
X770062Y-5064484D01*
X770062Y-5064484D02*
X751015Y-5054960D01*
X751015Y-5054960D02*
X741491Y-5045436D01*
X741491Y-5045436D02*
X731967Y-5026389D01*
X731967Y-5026389D02*
X722443Y-4988293D01*
X722443Y-4988293D02*
X722443Y-4940674D01*
X722443Y-4940674D02*
X731967Y-4902579D01*
X731967Y-4902579D02*
X741491Y-4883531D01*
X741491Y-4883531D02*
X751015Y-4874008D01*
X751015Y-4874008D02*
X770062Y-4864484D01*
X960539Y-4864484D02*
X979586Y-4864484D01*
X979586Y-4864484D02*
X998634Y-4874008D01*
X998634Y-4874008D02*
X1008158Y-4883531D01*
X1008158Y-4883531D02*
X1017682Y-4902579D01*
X1017682Y-4902579D02*
X1027205Y-4940674D01*
X1027205Y-4940674D02*
X1027205Y-4988293D01*
X1027205Y-4988293D02*
X1017682Y-5026389D01*
X1017682Y-5026389D02*
X1008158Y-5045436D01*
X1008158Y-5045436D02*
X998634Y-5054960D01*
X998634Y-5054960D02*
X979586Y-5064484D01*
X979586Y-5064484D02*
X960539Y-5064484D01*
X960539Y-5064484D02*
X941491Y-5054960D01*
X941491Y-5054960D02*
X931967Y-5045436D01*
X931967Y-5045436D02*
X922443Y-5026389D01*
X922443Y-5026389D02*
X912920Y-4988293D01*
X912920Y-4988293D02*
X912920Y-4940674D01*
X912920Y-4940674D02*
X922443Y-4902579D01*
X922443Y-4902579D02*
X931967Y-4883531D01*
X931967Y-4883531D02*
X941491Y-4874008D01*
X941491Y-4874008D02*
X960539Y-4864484D01*
X1112920Y-5064484D02*
X1112920Y-4931150D01*
X1112920Y-4950198D02*
X1122444Y-4940674D01*
X1122444Y-4940674D02*
X1141491Y-4931150D01*
X1141491Y-4931150D02*
X1170063Y-4931150D01*
X1170063Y-4931150D02*
X1189110Y-4940674D01*
X1189110Y-4940674D02*
X1198634Y-4959722D01*
X1198634Y-4959722D02*
X1198634Y-5064484D01*
X1198634Y-4959722D02*
X1208158Y-4940674D01*
X1208158Y-4940674D02*
X1227205Y-4931150D01*
X1227205Y-4931150D02*
X1255777Y-4931150D01*
X1255777Y-4931150D02*
X1274825Y-4940674D01*
X1274825Y-4940674D02*
X1284348Y-4959722D01*
X1284348Y-4959722D02*
X1284348Y-5064484D01*
X1379586Y-5064484D02*
X1379586Y-4931150D01*
X1379586Y-4950198D02*
X1389110Y-4940674D01*
X1389110Y-4940674D02*
X1408158Y-4931150D01*
X1408158Y-4931150D02*
X1436729Y-4931150D01*
X1436729Y-4931150D02*
X1455777Y-4940674D01*
X1455777Y-4940674D02*
X1465301Y-4959722D01*
X1465301Y-4959722D02*
X1465301Y-5064484D01*
X1465301Y-4959722D02*
X1474824Y-4940674D01*
X1474824Y-4940674D02*
X1493872Y-4931150D01*
X1493872Y-4931150D02*
X1522443Y-4931150D01*
X1522443Y-4931150D02*
X1541491Y-4940674D01*
X1541491Y-4940674D02*
X1551015Y-4959722D01*
X1551015Y-4959722D02*
X1551015Y-5064484D01*
X1941491Y-4854960D02*
X1770063Y-5112103D01*
X2198634Y-4864484D02*
X2217682Y-4864484D01*
X2217682Y-4864484D02*
X2236729Y-4874008D01*
X2236729Y-4874008D02*
X2246253Y-4883531D01*
X2246253Y-4883531D02*
X2255777Y-4902579D01*
X2255777Y-4902579D02*
X2265301Y-4940674D01*
X2265301Y-4940674D02*
X2265301Y-4988293D01*
X2265301Y-4988293D02*
X2255777Y-5026389D01*
X2255777Y-5026389D02*
X2246253Y-5045436D01*
X2246253Y-5045436D02*
X2236729Y-5054960D01*
X2236729Y-5054960D02*
X2217682Y-5064484D01*
X2217682Y-5064484D02*
X2198634Y-5064484D01*
X2198634Y-5064484D02*
X2179587Y-5054960D01*
X2179587Y-5054960D02*
X2170063Y-5045436D01*
X2170063Y-5045436D02*
X2160539Y-5026389D01*
X2160539Y-5026389D02*
X2151015Y-4988293D01*
X2151015Y-4988293D02*
X2151015Y-4940674D01*
X2151015Y-4940674D02*
X2160539Y-4902579D01*
X2160539Y-4902579D02*
X2170063Y-4883531D01*
X2170063Y-4883531D02*
X2179587Y-4874008D01*
X2179587Y-4874008D02*
X2198634Y-4864484D01*
X2351015Y-5045436D02*
X2360539Y-5054960D01*
X2360539Y-5054960D02*
X2351015Y-5064484D01*
X2351015Y-5064484D02*
X2341491Y-5054960D01*
X2341491Y-5054960D02*
X2351015Y-5045436D01*
X2351015Y-5045436D02*
X2351015Y-5064484D01*
X2484348Y-4864484D02*
X2503396Y-4864484D01*
X2503396Y-4864484D02*
X2522444Y-4874008D01*
X2522444Y-4874008D02*
X2531968Y-4883531D01*
X2531968Y-4883531D02*
X2541491Y-4902579D01*
X2541491Y-4902579D02*
X2551015Y-4940674D01*
X2551015Y-4940674D02*
X2551015Y-4988293D01*
X2551015Y-4988293D02*
X2541491Y-5026389D01*
X2541491Y-5026389D02*
X2531968Y-5045436D01*
X2531968Y-5045436D02*
X2522444Y-5054960D01*
X2522444Y-5054960D02*
X2503396Y-5064484D01*
X2503396Y-5064484D02*
X2484348Y-5064484D01*
X2484348Y-5064484D02*
X2465301Y-5054960D01*
X2465301Y-5054960D02*
X2455777Y-5045436D01*
X2455777Y-5045436D02*
X2446253Y-5026389D01*
X2446253Y-5026389D02*
X2436729Y-4988293D01*
X2436729Y-4988293D02*
X2436729Y-4940674D01*
X2436729Y-4940674D02*
X2446253Y-4902579D01*
X2446253Y-4902579D02*
X2455777Y-4883531D01*
X2455777Y-4883531D02*
X2465301Y-4874008D01*
X2465301Y-4874008D02*
X2484348Y-4864484D01*
X2617682Y-4864484D02*
X2741491Y-4864484D01*
X2741491Y-4864484D02*
X2674825Y-4940674D01*
X2674825Y-4940674D02*
X2703396Y-4940674D01*
X2703396Y-4940674D02*
X2722444Y-4950198D01*
X2722444Y-4950198D02*
X2731968Y-4959722D01*
X2731968Y-4959722D02*
X2741491Y-4978770D01*
X2741491Y-4978770D02*
X2741491Y-5026389D01*
X2741491Y-5026389D02*
X2731968Y-5045436D01*
X2731968Y-5045436D02*
X2722444Y-5054960D01*
X2722444Y-5054960D02*
X2703396Y-5064484D01*
X2703396Y-5064484D02*
X2646253Y-5064484D01*
X2646253Y-5064484D02*
X2627206Y-5054960D01*
X2627206Y-5054960D02*
X2617682Y-5045436D01*
X2931967Y-5064484D02*
X2817682Y-5064484D01*
X2874825Y-5064484D02*
X2874825Y-4864484D01*
X2874825Y-4864484D02*
X2855777Y-4893055D01*
X2855777Y-4893055D02*
X2836729Y-4912103D01*
X2836729Y-4912103D02*
X2817682Y-4921627D01*
X3112920Y-4864484D02*
X3017682Y-4864484D01*
X3017682Y-4864484D02*
X3008158Y-4959722D01*
X3008158Y-4959722D02*
X3017682Y-4950198D01*
X3017682Y-4950198D02*
X3036729Y-4940674D01*
X3036729Y-4940674D02*
X3084348Y-4940674D01*
X3084348Y-4940674D02*
X3103396Y-4950198D01*
X3103396Y-4950198D02*
X3112920Y-4959722D01*
X3112920Y-4959722D02*
X3122444Y-4978770D01*
X3122444Y-4978770D02*
X3122444Y-5026389D01*
X3122444Y-5026389D02*
X3112920Y-5045436D01*
X3112920Y-5045436D02*
X3103396Y-5054960D01*
X3103396Y-5054960D02*
X3084348Y-5064484D01*
X3084348Y-5064484D02*
X3036729Y-5064484D01*
X3036729Y-5064484D02*
X3017682Y-5054960D01*
X3017682Y-5054960D02*
X3008158Y-5045436D01*
X3198634Y-4864484D02*
X3198634Y-4902579D01*
X3274825Y-4864484D02*
X3274825Y-4902579D01*
X3570063Y-5140674D02*
X3560539Y-5131150D01*
X3560539Y-5131150D02*
X3541491Y-5102579D01*
X3541491Y-5102579D02*
X3531968Y-5083531D01*
X3531968Y-5083531D02*
X3522444Y-5054960D01*
X3522444Y-5054960D02*
X3512920Y-5007341D01*
X3512920Y-5007341D02*
X3512920Y-4969246D01*
X3512920Y-4969246D02*
X3522444Y-4921627D01*
X3522444Y-4921627D02*
X3531968Y-4893055D01*
X3531968Y-4893055D02*
X3541491Y-4874008D01*
X3541491Y-4874008D02*
X3560539Y-4845436D01*
X3560539Y-4845436D02*
X3570063Y-4835912D01*
X3751015Y-5064484D02*
X3636729Y-5064484D01*
X3693872Y-5064484D02*
X3693872Y-4864484D01*
X3693872Y-4864484D02*
X3674825Y-4893055D01*
X3674825Y-4893055D02*
X3655777Y-4912103D01*
X3655777Y-4912103D02*
X3636729Y-4921627D01*
X3865301Y-4950198D02*
X3846253Y-4940674D01*
X3846253Y-4940674D02*
X3836729Y-4931150D01*
X3836729Y-4931150D02*
X3827206Y-4912103D01*
X3827206Y-4912103D02*
X3827206Y-4902579D01*
X3827206Y-4902579D02*
X3836729Y-4883531D01*
X3836729Y-4883531D02*
X3846253Y-4874008D01*
X3846253Y-4874008D02*
X3865301Y-4864484D01*
X3865301Y-4864484D02*
X3903396Y-4864484D01*
X3903396Y-4864484D02*
X3922444Y-4874008D01*
X3922444Y-4874008D02*
X3931968Y-4883531D01*
X3931968Y-4883531D02*
X3941491Y-4902579D01*
X3941491Y-4902579D02*
X3941491Y-4912103D01*
X3941491Y-4912103D02*
X3931968Y-4931150D01*
X3931968Y-4931150D02*
X3922444Y-4940674D01*
X3922444Y-4940674D02*
X3903396Y-4950198D01*
X3903396Y-4950198D02*
X3865301Y-4950198D01*
X3865301Y-4950198D02*
X3846253Y-4959722D01*
X3846253Y-4959722D02*
X3836729Y-4969246D01*
X3836729Y-4969246D02*
X3827206Y-4988293D01*
X3827206Y-4988293D02*
X3827206Y-5026389D01*
X3827206Y-5026389D02*
X3836729Y-5045436D01*
X3836729Y-5045436D02*
X3846253Y-5054960D01*
X3846253Y-5054960D02*
X3865301Y-5064484D01*
X3865301Y-5064484D02*
X3903396Y-5064484D01*
X3903396Y-5064484D02*
X3922444Y-5054960D01*
X3922444Y-5054960D02*
X3931968Y-5045436D01*
X3931968Y-5045436D02*
X3941491Y-5026389D01*
X3941491Y-5026389D02*
X3941491Y-4988293D01*
X3941491Y-4988293D02*
X3931968Y-4969246D01*
X3931968Y-4969246D02*
X3922444Y-4959722D01*
X3922444Y-4959722D02*
X3903396Y-4950198D01*
X4131968Y-5064484D02*
X4017682Y-5064484D01*
X4074825Y-5064484D02*
X4074825Y-4864484D01*
X4074825Y-4864484D02*
X4055777Y-4893055D01*
X4055777Y-4893055D02*
X4036729Y-4912103D01*
X4036729Y-4912103D02*
X4017682Y-4921627D01*
X4370063Y-5064484D02*
X4370063Y-4864484D01*
X4455777Y-5064484D02*
X4455777Y-4959722D01*
X4455777Y-4959722D02*
X4446253Y-4940674D01*
X4446253Y-4940674D02*
X4427206Y-4931150D01*
X4427206Y-4931150D02*
X4398634Y-4931150D01*
X4398634Y-4931150D02*
X4379587Y-4940674D01*
X4379587Y-4940674D02*
X4370063Y-4950198D01*
X4579587Y-5064484D02*
X4560539Y-5054960D01*
X4560539Y-5054960D02*
X4551015Y-5045436D01*
X4551015Y-5045436D02*
X4541492Y-5026389D01*
X4541492Y-5026389D02*
X4541492Y-4969246D01*
X4541492Y-4969246D02*
X4551015Y-4950198D01*
X4551015Y-4950198D02*
X4560539Y-4940674D01*
X4560539Y-4940674D02*
X4579587Y-4931150D01*
X4579587Y-4931150D02*
X4608158Y-4931150D01*
X4608158Y-4931150D02*
X4627206Y-4940674D01*
X4627206Y-4940674D02*
X4636730Y-4950198D01*
X4636730Y-4950198D02*
X4646253Y-4969246D01*
X4646253Y-4969246D02*
X4646253Y-5026389D01*
X4646253Y-5026389D02*
X4636730Y-5045436D01*
X4636730Y-5045436D02*
X4627206Y-5054960D01*
X4627206Y-5054960D02*
X4608158Y-5064484D01*
X4608158Y-5064484D02*
X4579587Y-5064484D01*
X4760539Y-5064484D02*
X4741492Y-5054960D01*
X4741492Y-5054960D02*
X4731968Y-5035912D01*
X4731968Y-5035912D02*
X4731968Y-4864484D01*
X4912920Y-5054960D02*
X4893873Y-5064484D01*
X4893873Y-5064484D02*
X4855777Y-5064484D01*
X4855777Y-5064484D02*
X4836730Y-5054960D01*
X4836730Y-5054960D02*
X4827206Y-5035912D01*
X4827206Y-5035912D02*
X4827206Y-4959722D01*
X4827206Y-4959722D02*
X4836730Y-4940674D01*
X4836730Y-4940674D02*
X4855777Y-4931150D01*
X4855777Y-4931150D02*
X4893873Y-4931150D01*
X4893873Y-4931150D02*
X4912920Y-4940674D01*
X4912920Y-4940674D02*
X4922444Y-4959722D01*
X4922444Y-4959722D02*
X4922444Y-4978770D01*
X4922444Y-4978770D02*
X4827206Y-4997817D01*
X4998634Y-5054960D02*
X5017682Y-5064484D01*
X5017682Y-5064484D02*
X5055777Y-5064484D01*
X5055777Y-5064484D02*
X5074825Y-5054960D01*
X5074825Y-5054960D02*
X5084349Y-5035912D01*
X5084349Y-5035912D02*
X5084349Y-5026389D01*
X5084349Y-5026389D02*
X5074825Y-5007341D01*
X5074825Y-5007341D02*
X5055777Y-4997817D01*
X5055777Y-4997817D02*
X5027206Y-4997817D01*
X5027206Y-4997817D02*
X5008158Y-4988293D01*
X5008158Y-4988293D02*
X4998634Y-4969246D01*
X4998634Y-4969246D02*
X4998634Y-4959722D01*
X4998634Y-4959722D02*
X5008158Y-4940674D01*
X5008158Y-4940674D02*
X5027206Y-4931150D01*
X5027206Y-4931150D02*
X5055777Y-4931150D01*
X5055777Y-4931150D02*
X5074825Y-4940674D01*
X5151015Y-5140674D02*
X5160539Y-5131150D01*
X5160539Y-5131150D02*
X5179587Y-5102579D01*
X5179587Y-5102579D02*
X5189111Y-5083531D01*
X5189111Y-5083531D02*
X5198634Y-5054960D01*
X5198634Y-5054960D02*
X5208158Y-5007341D01*
X5208158Y-5007341D02*
X5208158Y-4969246D01*
X5208158Y-4969246D02*
X5198634Y-4921627D01*
X5198634Y-4921627D02*
X5189111Y-4893055D01*
X5189111Y-4893055D02*
X5179587Y-4874008D01*
X5179587Y-4874008D02*
X5160539Y-4845436D01*
X5160539Y-4845436D02*
X5151015Y-4835912D01*
D10*
X-18180Y-5268820D02*
X-18180Y-5205180D01*
X-81820Y-5205180D01*
X-81820Y-5268820D01*
X-18180Y-5268820D01*
D11*
X293872Y-5128484D02*
X312920Y-5128484D01*
X312920Y-5128484D02*
X331967Y-5138008D01*
X331967Y-5138008D02*
X341491Y-5147531D01*
X341491Y-5147531D02*
X351015Y-5166579D01*
X351015Y-5166579D02*
X360539Y-5204674D01*
X360539Y-5204674D02*
X360539Y-5252293D01*
X360539Y-5252293D02*
X351015Y-5290389D01*
X351015Y-5290389D02*
X341491Y-5309436D01*
X341491Y-5309436D02*
X331967Y-5318960D01*
X331967Y-5318960D02*
X312920Y-5328484D01*
X312920Y-5328484D02*
X293872Y-5328484D01*
X293872Y-5328484D02*
X274824Y-5318960D01*
X274824Y-5318960D02*
X265301Y-5309436D01*
X265301Y-5309436D02*
X255777Y-5290389D01*
X255777Y-5290389D02*
X246253Y-5252293D01*
X246253Y-5252293D02*
X246253Y-5204674D01*
X246253Y-5204674D02*
X255777Y-5166579D01*
X255777Y-5166579D02*
X265301Y-5147531D01*
X265301Y-5147531D02*
X274824Y-5138008D01*
X274824Y-5138008D02*
X293872Y-5128484D01*
X446253Y-5309436D02*
X455777Y-5318960D01*
X455777Y-5318960D02*
X446253Y-5328484D01*
X446253Y-5328484D02*
X436729Y-5318960D01*
X436729Y-5318960D02*
X446253Y-5309436D01*
X446253Y-5309436D02*
X446253Y-5328484D01*
X551015Y-5328484D02*
X589110Y-5328484D01*
X589110Y-5328484D02*
X608158Y-5318960D01*
X608158Y-5318960D02*
X617682Y-5309436D01*
X617682Y-5309436D02*
X636729Y-5280865D01*
X636729Y-5280865D02*
X646253Y-5242770D01*
X646253Y-5242770D02*
X646253Y-5166579D01*
X646253Y-5166579D02*
X636729Y-5147531D01*
X636729Y-5147531D02*
X627205Y-5138008D01*
X627205Y-5138008D02*
X608158Y-5128484D01*
X608158Y-5128484D02*
X570063Y-5128484D01*
X570063Y-5128484D02*
X551015Y-5138008D01*
X551015Y-5138008D02*
X541491Y-5147531D01*
X541491Y-5147531D02*
X531967Y-5166579D01*
X531967Y-5166579D02*
X531967Y-5214198D01*
X531967Y-5214198D02*
X541491Y-5233246D01*
X541491Y-5233246D02*
X551015Y-5242770D01*
X551015Y-5242770D02*
X570063Y-5252293D01*
X570063Y-5252293D02*
X608158Y-5252293D01*
X608158Y-5252293D02*
X627205Y-5242770D01*
X627205Y-5242770D02*
X636729Y-5233246D01*
X636729Y-5233246D02*
X646253Y-5214198D01*
X770062Y-5128484D02*
X789110Y-5128484D01*
X789110Y-5128484D02*
X808158Y-5138008D01*
X808158Y-5138008D02*
X817682Y-5147531D01*
X817682Y-5147531D02*
X827205Y-5166579D01*
X827205Y-5166579D02*
X836729Y-5204674D01*
X836729Y-5204674D02*
X836729Y-5252293D01*
X836729Y-5252293D02*
X827205Y-5290389D01*
X827205Y-5290389D02*
X817682Y-5309436D01*
X817682Y-5309436D02*
X808158Y-5318960D01*
X808158Y-5318960D02*
X789110Y-5328484D01*
X789110Y-5328484D02*
X770062Y-5328484D01*
X770062Y-5328484D02*
X751015Y-5318960D01*
X751015Y-5318960D02*
X741491Y-5309436D01*
X741491Y-5309436D02*
X731967Y-5290389D01*
X731967Y-5290389D02*
X722443Y-5252293D01*
X722443Y-5252293D02*
X722443Y-5204674D01*
X722443Y-5204674D02*
X731967Y-5166579D01*
X731967Y-5166579D02*
X741491Y-5147531D01*
X741491Y-5147531D02*
X751015Y-5138008D01*
X751015Y-5138008D02*
X770062Y-5128484D01*
X960539Y-5128484D02*
X979586Y-5128484D01*
X979586Y-5128484D02*
X998634Y-5138008D01*
X998634Y-5138008D02*
X1008158Y-5147531D01*
X1008158Y-5147531D02*
X1017682Y-5166579D01*
X1017682Y-5166579D02*
X1027205Y-5204674D01*
X1027205Y-5204674D02*
X1027205Y-5252293D01*
X1027205Y-5252293D02*
X1017682Y-5290389D01*
X1017682Y-5290389D02*
X1008158Y-5309436D01*
X1008158Y-5309436D02*
X998634Y-5318960D01*
X998634Y-5318960D02*
X979586Y-5328484D01*
X979586Y-5328484D02*
X960539Y-5328484D01*
X960539Y-5328484D02*
X941491Y-5318960D01*
X941491Y-5318960D02*
X931967Y-5309436D01*
X931967Y-5309436D02*
X922443Y-5290389D01*
X922443Y-5290389D02*
X912920Y-5252293D01*
X912920Y-5252293D02*
X912920Y-5204674D01*
X912920Y-5204674D02*
X922443Y-5166579D01*
X922443Y-5166579D02*
X931967Y-5147531D01*
X931967Y-5147531D02*
X941491Y-5138008D01*
X941491Y-5138008D02*
X960539Y-5128484D01*
X1112920Y-5328484D02*
X1112920Y-5195150D01*
X1112920Y-5214198D02*
X1122444Y-5204674D01*
X1122444Y-5204674D02*
X1141491Y-5195150D01*
X1141491Y-5195150D02*
X1170063Y-5195150D01*
X1170063Y-5195150D02*
X1189110Y-5204674D01*
X1189110Y-5204674D02*
X1198634Y-5223722D01*
X1198634Y-5223722D02*
X1198634Y-5328484D01*
X1198634Y-5223722D02*
X1208158Y-5204674D01*
X1208158Y-5204674D02*
X1227205Y-5195150D01*
X1227205Y-5195150D02*
X1255777Y-5195150D01*
X1255777Y-5195150D02*
X1274825Y-5204674D01*
X1274825Y-5204674D02*
X1284348Y-5223722D01*
X1284348Y-5223722D02*
X1284348Y-5328484D01*
X1379586Y-5328484D02*
X1379586Y-5195150D01*
X1379586Y-5214198D02*
X1389110Y-5204674D01*
X1389110Y-5204674D02*
X1408158Y-5195150D01*
X1408158Y-5195150D02*
X1436729Y-5195150D01*
X1436729Y-5195150D02*
X1455777Y-5204674D01*
X1455777Y-5204674D02*
X1465301Y-5223722D01*
X1465301Y-5223722D02*
X1465301Y-5328484D01*
X1465301Y-5223722D02*
X1474824Y-5204674D01*
X1474824Y-5204674D02*
X1493872Y-5195150D01*
X1493872Y-5195150D02*
X1522443Y-5195150D01*
X1522443Y-5195150D02*
X1541491Y-5204674D01*
X1541491Y-5204674D02*
X1551015Y-5223722D01*
X1551015Y-5223722D02*
X1551015Y-5328484D01*
X1941491Y-5118960D02*
X1770063Y-5376103D01*
X2198634Y-5128484D02*
X2217682Y-5128484D01*
X2217682Y-5128484D02*
X2236729Y-5138008D01*
X2236729Y-5138008D02*
X2246253Y-5147531D01*
X2246253Y-5147531D02*
X2255777Y-5166579D01*
X2255777Y-5166579D02*
X2265301Y-5204674D01*
X2265301Y-5204674D02*
X2265301Y-5252293D01*
X2265301Y-5252293D02*
X2255777Y-5290389D01*
X2255777Y-5290389D02*
X2246253Y-5309436D01*
X2246253Y-5309436D02*
X2236729Y-5318960D01*
X2236729Y-5318960D02*
X2217682Y-5328484D01*
X2217682Y-5328484D02*
X2198634Y-5328484D01*
X2198634Y-5328484D02*
X2179587Y-5318960D01*
X2179587Y-5318960D02*
X2170063Y-5309436D01*
X2170063Y-5309436D02*
X2160539Y-5290389D01*
X2160539Y-5290389D02*
X2151015Y-5252293D01*
X2151015Y-5252293D02*
X2151015Y-5204674D01*
X2151015Y-5204674D02*
X2160539Y-5166579D01*
X2160539Y-5166579D02*
X2170063Y-5147531D01*
X2170063Y-5147531D02*
X2179587Y-5138008D01*
X2179587Y-5138008D02*
X2198634Y-5128484D01*
X2351015Y-5309436D02*
X2360539Y-5318960D01*
X2360539Y-5318960D02*
X2351015Y-5328484D01*
X2351015Y-5328484D02*
X2341491Y-5318960D01*
X2341491Y-5318960D02*
X2351015Y-5309436D01*
X2351015Y-5309436D02*
X2351015Y-5328484D01*
X2484348Y-5128484D02*
X2503396Y-5128484D01*
X2503396Y-5128484D02*
X2522444Y-5138008D01*
X2522444Y-5138008D02*
X2531968Y-5147531D01*
X2531968Y-5147531D02*
X2541491Y-5166579D01*
X2541491Y-5166579D02*
X2551015Y-5204674D01*
X2551015Y-5204674D02*
X2551015Y-5252293D01*
X2551015Y-5252293D02*
X2541491Y-5290389D01*
X2541491Y-5290389D02*
X2531968Y-5309436D01*
X2531968Y-5309436D02*
X2522444Y-5318960D01*
X2522444Y-5318960D02*
X2503396Y-5328484D01*
X2503396Y-5328484D02*
X2484348Y-5328484D01*
X2484348Y-5328484D02*
X2465301Y-5318960D01*
X2465301Y-5318960D02*
X2455777Y-5309436D01*
X2455777Y-5309436D02*
X2446253Y-5290389D01*
X2446253Y-5290389D02*
X2436729Y-5252293D01*
X2436729Y-5252293D02*
X2436729Y-5204674D01*
X2436729Y-5204674D02*
X2446253Y-5166579D01*
X2446253Y-5166579D02*
X2455777Y-5147531D01*
X2455777Y-5147531D02*
X2465301Y-5138008D01*
X2465301Y-5138008D02*
X2484348Y-5128484D01*
X2617682Y-5128484D02*
X2741491Y-5128484D01*
X2741491Y-5128484D02*
X2674825Y-5204674D01*
X2674825Y-5204674D02*
X2703396Y-5204674D01*
X2703396Y-5204674D02*
X2722444Y-5214198D01*
X2722444Y-5214198D02*
X2731968Y-5223722D01*
X2731968Y-5223722D02*
X2741491Y-5242770D01*
X2741491Y-5242770D02*
X2741491Y-5290389D01*
X2741491Y-5290389D02*
X2731968Y-5309436D01*
X2731968Y-5309436D02*
X2722444Y-5318960D01*
X2722444Y-5318960D02*
X2703396Y-5328484D01*
X2703396Y-5328484D02*
X2646253Y-5328484D01*
X2646253Y-5328484D02*
X2627206Y-5318960D01*
X2627206Y-5318960D02*
X2617682Y-5309436D01*
X2922444Y-5128484D02*
X2827206Y-5128484D01*
X2827206Y-5128484D02*
X2817682Y-5223722D01*
X2817682Y-5223722D02*
X2827206Y-5214198D01*
X2827206Y-5214198D02*
X2846253Y-5204674D01*
X2846253Y-5204674D02*
X2893872Y-5204674D01*
X2893872Y-5204674D02*
X2912920Y-5214198D01*
X2912920Y-5214198D02*
X2922444Y-5223722D01*
X2922444Y-5223722D02*
X2931967Y-5242770D01*
X2931967Y-5242770D02*
X2931967Y-5290389D01*
X2931967Y-5290389D02*
X2922444Y-5309436D01*
X2922444Y-5309436D02*
X2912920Y-5318960D01*
X2912920Y-5318960D02*
X2893872Y-5328484D01*
X2893872Y-5328484D02*
X2846253Y-5328484D01*
X2846253Y-5328484D02*
X2827206Y-5318960D01*
X2827206Y-5318960D02*
X2817682Y-5309436D01*
X3103396Y-5195150D02*
X3103396Y-5328484D01*
X3055777Y-5118960D02*
X3008158Y-5261817D01*
X3008158Y-5261817D02*
X3131967Y-5261817D01*
X3198634Y-5128484D02*
X3198634Y-5166579D01*
X3274825Y-5128484D02*
X3274825Y-5166579D01*
X3570063Y-5404674D02*
X3560539Y-5395150D01*
X3560539Y-5395150D02*
X3541491Y-5366579D01*
X3541491Y-5366579D02*
X3531968Y-5347531D01*
X3531968Y-5347531D02*
X3522444Y-5318960D01*
X3522444Y-5318960D02*
X3512920Y-5271341D01*
X3512920Y-5271341D02*
X3512920Y-5233246D01*
X3512920Y-5233246D02*
X3522444Y-5185627D01*
X3522444Y-5185627D02*
X3531968Y-5157055D01*
X3531968Y-5157055D02*
X3541491Y-5138008D01*
X3541491Y-5138008D02*
X3560539Y-5109436D01*
X3560539Y-5109436D02*
X3570063Y-5099912D01*
X3636729Y-5147531D02*
X3646253Y-5138008D01*
X3646253Y-5138008D02*
X3665301Y-5128484D01*
X3665301Y-5128484D02*
X3712920Y-5128484D01*
X3712920Y-5128484D02*
X3731968Y-5138008D01*
X3731968Y-5138008D02*
X3741491Y-5147531D01*
X3741491Y-5147531D02*
X3751015Y-5166579D01*
X3751015Y-5166579D02*
X3751015Y-5185627D01*
X3751015Y-5185627D02*
X3741491Y-5214198D01*
X3741491Y-5214198D02*
X3627206Y-5328484D01*
X3627206Y-5328484D02*
X3751015Y-5328484D01*
X3989110Y-5328484D02*
X3989110Y-5128484D01*
X4074825Y-5328484D02*
X4074825Y-5223722D01*
X4074825Y-5223722D02*
X4065301Y-5204674D01*
X4065301Y-5204674D02*
X4046253Y-5195150D01*
X4046253Y-5195150D02*
X4017682Y-5195150D01*
X4017682Y-5195150D02*
X3998634Y-5204674D01*
X3998634Y-5204674D02*
X3989110Y-5214198D01*
X4198634Y-5328484D02*
X4179587Y-5318960D01*
X4179587Y-5318960D02*
X4170063Y-5309436D01*
X4170063Y-5309436D02*
X4160539Y-5290389D01*
X4160539Y-5290389D02*
X4160539Y-5233246D01*
X4160539Y-5233246D02*
X4170063Y-5214198D01*
X4170063Y-5214198D02*
X4179587Y-5204674D01*
X4179587Y-5204674D02*
X4198634Y-5195150D01*
X4198634Y-5195150D02*
X4227206Y-5195150D01*
X4227206Y-5195150D02*
X4246253Y-5204674D01*
X4246253Y-5204674D02*
X4255777Y-5214198D01*
X4255777Y-5214198D02*
X4265301Y-5233246D01*
X4265301Y-5233246D02*
X4265301Y-5290389D01*
X4265301Y-5290389D02*
X4255777Y-5309436D01*
X4255777Y-5309436D02*
X4246253Y-5318960D01*
X4246253Y-5318960D02*
X4227206Y-5328484D01*
X4227206Y-5328484D02*
X4198634Y-5328484D01*
X4379587Y-5328484D02*
X4360539Y-5318960D01*
X4360539Y-5318960D02*
X4351015Y-5299912D01*
X4351015Y-5299912D02*
X4351015Y-5128484D01*
X4531968Y-5318960D02*
X4512920Y-5328484D01*
X4512920Y-5328484D02*
X4474825Y-5328484D01*
X4474825Y-5328484D02*
X4455777Y-5318960D01*
X4455777Y-5318960D02*
X4446253Y-5299912D01*
X4446253Y-5299912D02*
X4446253Y-5223722D01*
X4446253Y-5223722D02*
X4455777Y-5204674D01*
X4455777Y-5204674D02*
X4474825Y-5195150D01*
X4474825Y-5195150D02*
X4512920Y-5195150D01*
X4512920Y-5195150D02*
X4531968Y-5204674D01*
X4531968Y-5204674D02*
X4541492Y-5223722D01*
X4541492Y-5223722D02*
X4541492Y-5242770D01*
X4541492Y-5242770D02*
X4446253Y-5261817D01*
X4617682Y-5318960D02*
X4636730Y-5328484D01*
X4636730Y-5328484D02*
X4674825Y-5328484D01*
X4674825Y-5328484D02*
X4693873Y-5318960D01*
X4693873Y-5318960D02*
X4703396Y-5299912D01*
X4703396Y-5299912D02*
X4703396Y-5290389D01*
X4703396Y-5290389D02*
X4693873Y-5271341D01*
X4693873Y-5271341D02*
X4674825Y-5261817D01*
X4674825Y-5261817D02*
X4646253Y-5261817D01*
X4646253Y-5261817D02*
X4627206Y-5252293D01*
X4627206Y-5252293D02*
X4617682Y-5233246D01*
X4617682Y-5233246D02*
X4617682Y-5223722D01*
X4617682Y-5223722D02*
X4627206Y-5204674D01*
X4627206Y-5204674D02*
X4646253Y-5195150D01*
X4646253Y-5195150D02*
X4674825Y-5195150D01*
X4674825Y-5195150D02*
X4693873Y-5204674D01*
X4770063Y-5404674D02*
X4779587Y-5395150D01*
X4779587Y-5395150D02*
X4798634Y-5366579D01*
X4798634Y-5366579D02*
X4808158Y-5347531D01*
X4808158Y-5347531D02*
X4817682Y-5318960D01*
X4817682Y-5318960D02*
X4827206Y-5271341D01*
X4827206Y-5271341D02*
X4827206Y-5233246D01*
X4827206Y-5233246D02*
X4817682Y-5185627D01*
X4817682Y-5185627D02*
X4808158Y-5157055D01*
X4808158Y-5157055D02*
X4798634Y-5138008D01*
X4798634Y-5138008D02*
X4779587Y-5109436D01*
X4779587Y-5109436D02*
X4770063Y-5099912D01*
D10*
X-55000Y-5551000D02*
X-5000Y-5501000D01*
X-55000Y-5451000D01*
X-105000Y-5501000D01*
X-55000Y-5551000D01*
D11*
X360539Y-5592484D02*
X246253Y-5592484D01*
X303396Y-5592484D02*
X303396Y-5392484D01*
X303396Y-5392484D02*
X284348Y-5421055D01*
X284348Y-5421055D02*
X265301Y-5440103D01*
X265301Y-5440103D02*
X246253Y-5449627D01*
X446253Y-5573436D02*
X455777Y-5582960D01*
X455777Y-5582960D02*
X446253Y-5592484D01*
X446253Y-5592484D02*
X436729Y-5582960D01*
X436729Y-5582960D02*
X446253Y-5573436D01*
X446253Y-5573436D02*
X446253Y-5592484D01*
X579586Y-5392484D02*
X598634Y-5392484D01*
X598634Y-5392484D02*
X617682Y-5402008D01*
X617682Y-5402008D02*
X627205Y-5411531D01*
X627205Y-5411531D02*
X636729Y-5430579D01*
X636729Y-5430579D02*
X646253Y-5468674D01*
X646253Y-5468674D02*
X646253Y-5516293D01*
X646253Y-5516293D02*
X636729Y-5554389D01*
X636729Y-5554389D02*
X627205Y-5573436D01*
X627205Y-5573436D02*
X617682Y-5582960D01*
X617682Y-5582960D02*
X598634Y-5592484D01*
X598634Y-5592484D02*
X579586Y-5592484D01*
X579586Y-5592484D02*
X560539Y-5582960D01*
X560539Y-5582960D02*
X551015Y-5573436D01*
X551015Y-5573436D02*
X541491Y-5554389D01*
X541491Y-5554389D02*
X531967Y-5516293D01*
X531967Y-5516293D02*
X531967Y-5468674D01*
X531967Y-5468674D02*
X541491Y-5430579D01*
X541491Y-5430579D02*
X551015Y-5411531D01*
X551015Y-5411531D02*
X560539Y-5402008D01*
X560539Y-5402008D02*
X579586Y-5392484D01*
X770062Y-5392484D02*
X789110Y-5392484D01*
X789110Y-5392484D02*
X808158Y-5402008D01*
X808158Y-5402008D02*
X817682Y-5411531D01*
X817682Y-5411531D02*
X827205Y-5430579D01*
X827205Y-5430579D02*
X836729Y-5468674D01*
X836729Y-5468674D02*
X836729Y-5516293D01*
X836729Y-5516293D02*
X827205Y-5554389D01*
X827205Y-5554389D02*
X817682Y-5573436D01*
X817682Y-5573436D02*
X808158Y-5582960D01*
X808158Y-5582960D02*
X789110Y-5592484D01*
X789110Y-5592484D02*
X770062Y-5592484D01*
X770062Y-5592484D02*
X751015Y-5582960D01*
X751015Y-5582960D02*
X741491Y-5573436D01*
X741491Y-5573436D02*
X731967Y-5554389D01*
X731967Y-5554389D02*
X722443Y-5516293D01*
X722443Y-5516293D02*
X722443Y-5468674D01*
X722443Y-5468674D02*
X731967Y-5430579D01*
X731967Y-5430579D02*
X741491Y-5411531D01*
X741491Y-5411531D02*
X751015Y-5402008D01*
X751015Y-5402008D02*
X770062Y-5392484D01*
X960539Y-5392484D02*
X979586Y-5392484D01*
X979586Y-5392484D02*
X998634Y-5402008D01*
X998634Y-5402008D02*
X1008158Y-5411531D01*
X1008158Y-5411531D02*
X1017682Y-5430579D01*
X1017682Y-5430579D02*
X1027205Y-5468674D01*
X1027205Y-5468674D02*
X1027205Y-5516293D01*
X1027205Y-5516293D02*
X1017682Y-5554389D01*
X1017682Y-5554389D02*
X1008158Y-5573436D01*
X1008158Y-5573436D02*
X998634Y-5582960D01*
X998634Y-5582960D02*
X979586Y-5592484D01*
X979586Y-5592484D02*
X960539Y-5592484D01*
X960539Y-5592484D02*
X941491Y-5582960D01*
X941491Y-5582960D02*
X931967Y-5573436D01*
X931967Y-5573436D02*
X922443Y-5554389D01*
X922443Y-5554389D02*
X912920Y-5516293D01*
X912920Y-5516293D02*
X912920Y-5468674D01*
X912920Y-5468674D02*
X922443Y-5430579D01*
X922443Y-5430579D02*
X931967Y-5411531D01*
X931967Y-5411531D02*
X941491Y-5402008D01*
X941491Y-5402008D02*
X960539Y-5392484D01*
X1112920Y-5592484D02*
X1112920Y-5459150D01*
X1112920Y-5478198D02*
X1122444Y-5468674D01*
X1122444Y-5468674D02*
X1141491Y-5459150D01*
X1141491Y-5459150D02*
X1170063Y-5459150D01*
X1170063Y-5459150D02*
X1189110Y-5468674D01*
X1189110Y-5468674D02*
X1198634Y-5487722D01*
X1198634Y-5487722D02*
X1198634Y-5592484D01*
X1198634Y-5487722D02*
X1208158Y-5468674D01*
X1208158Y-5468674D02*
X1227205Y-5459150D01*
X1227205Y-5459150D02*
X1255777Y-5459150D01*
X1255777Y-5459150D02*
X1274825Y-5468674D01*
X1274825Y-5468674D02*
X1284348Y-5487722D01*
X1284348Y-5487722D02*
X1284348Y-5592484D01*
X1379586Y-5592484D02*
X1379586Y-5459150D01*
X1379586Y-5478198D02*
X1389110Y-5468674D01*
X1389110Y-5468674D02*
X1408158Y-5459150D01*
X1408158Y-5459150D02*
X1436729Y-5459150D01*
X1436729Y-5459150D02*
X1455777Y-5468674D01*
X1455777Y-5468674D02*
X1465301Y-5487722D01*
X1465301Y-5487722D02*
X1465301Y-5592484D01*
X1465301Y-5487722D02*
X1474824Y-5468674D01*
X1474824Y-5468674D02*
X1493872Y-5459150D01*
X1493872Y-5459150D02*
X1522443Y-5459150D01*
X1522443Y-5459150D02*
X1541491Y-5468674D01*
X1541491Y-5468674D02*
X1551015Y-5487722D01*
X1551015Y-5487722D02*
X1551015Y-5592484D01*
X1941491Y-5382960D02*
X1770063Y-5640103D01*
X2198634Y-5392484D02*
X2217682Y-5392484D01*
X2217682Y-5392484D02*
X2236729Y-5402008D01*
X2236729Y-5402008D02*
X2246253Y-5411531D01*
X2246253Y-5411531D02*
X2255777Y-5430579D01*
X2255777Y-5430579D02*
X2265301Y-5468674D01*
X2265301Y-5468674D02*
X2265301Y-5516293D01*
X2265301Y-5516293D02*
X2255777Y-5554389D01*
X2255777Y-5554389D02*
X2246253Y-5573436D01*
X2246253Y-5573436D02*
X2236729Y-5582960D01*
X2236729Y-5582960D02*
X2217682Y-5592484D01*
X2217682Y-5592484D02*
X2198634Y-5592484D01*
X2198634Y-5592484D02*
X2179587Y-5582960D01*
X2179587Y-5582960D02*
X2170063Y-5573436D01*
X2170063Y-5573436D02*
X2160539Y-5554389D01*
X2160539Y-5554389D02*
X2151015Y-5516293D01*
X2151015Y-5516293D02*
X2151015Y-5468674D01*
X2151015Y-5468674D02*
X2160539Y-5430579D01*
X2160539Y-5430579D02*
X2170063Y-5411531D01*
X2170063Y-5411531D02*
X2179587Y-5402008D01*
X2179587Y-5402008D02*
X2198634Y-5392484D01*
X2351015Y-5573436D02*
X2360539Y-5582960D01*
X2360539Y-5582960D02*
X2351015Y-5592484D01*
X2351015Y-5592484D02*
X2341491Y-5582960D01*
X2341491Y-5582960D02*
X2351015Y-5573436D01*
X2351015Y-5573436D02*
X2351015Y-5592484D01*
X2484348Y-5392484D02*
X2503396Y-5392484D01*
X2503396Y-5392484D02*
X2522444Y-5402008D01*
X2522444Y-5402008D02*
X2531968Y-5411531D01*
X2531968Y-5411531D02*
X2541491Y-5430579D01*
X2541491Y-5430579D02*
X2551015Y-5468674D01*
X2551015Y-5468674D02*
X2551015Y-5516293D01*
X2551015Y-5516293D02*
X2541491Y-5554389D01*
X2541491Y-5554389D02*
X2531968Y-5573436D01*
X2531968Y-5573436D02*
X2522444Y-5582960D01*
X2522444Y-5582960D02*
X2503396Y-5592484D01*
X2503396Y-5592484D02*
X2484348Y-5592484D01*
X2484348Y-5592484D02*
X2465301Y-5582960D01*
X2465301Y-5582960D02*
X2455777Y-5573436D01*
X2455777Y-5573436D02*
X2446253Y-5554389D01*
X2446253Y-5554389D02*
X2436729Y-5516293D01*
X2436729Y-5516293D02*
X2436729Y-5468674D01*
X2436729Y-5468674D02*
X2446253Y-5430579D01*
X2446253Y-5430579D02*
X2455777Y-5411531D01*
X2455777Y-5411531D02*
X2465301Y-5402008D01*
X2465301Y-5402008D02*
X2484348Y-5392484D01*
X2617682Y-5392484D02*
X2741491Y-5392484D01*
X2741491Y-5392484D02*
X2674825Y-5468674D01*
X2674825Y-5468674D02*
X2703396Y-5468674D01*
X2703396Y-5468674D02*
X2722444Y-5478198D01*
X2722444Y-5478198D02*
X2731968Y-5487722D01*
X2731968Y-5487722D02*
X2741491Y-5506770D01*
X2741491Y-5506770D02*
X2741491Y-5554389D01*
X2741491Y-5554389D02*
X2731968Y-5573436D01*
X2731968Y-5573436D02*
X2722444Y-5582960D01*
X2722444Y-5582960D02*
X2703396Y-5592484D01*
X2703396Y-5592484D02*
X2646253Y-5592484D01*
X2646253Y-5592484D02*
X2627206Y-5582960D01*
X2627206Y-5582960D02*
X2617682Y-5573436D01*
X2836729Y-5592484D02*
X2874825Y-5592484D01*
X2874825Y-5592484D02*
X2893872Y-5582960D01*
X2893872Y-5582960D02*
X2903396Y-5573436D01*
X2903396Y-5573436D02*
X2922444Y-5544865D01*
X2922444Y-5544865D02*
X2931967Y-5506770D01*
X2931967Y-5506770D02*
X2931967Y-5430579D01*
X2931967Y-5430579D02*
X2922444Y-5411531D01*
X2922444Y-5411531D02*
X2912920Y-5402008D01*
X2912920Y-5402008D02*
X2893872Y-5392484D01*
X2893872Y-5392484D02*
X2855777Y-5392484D01*
X2855777Y-5392484D02*
X2836729Y-5402008D01*
X2836729Y-5402008D02*
X2827206Y-5411531D01*
X2827206Y-5411531D02*
X2817682Y-5430579D01*
X2817682Y-5430579D02*
X2817682Y-5478198D01*
X2817682Y-5478198D02*
X2827206Y-5497246D01*
X2827206Y-5497246D02*
X2836729Y-5506770D01*
X2836729Y-5506770D02*
X2855777Y-5516293D01*
X2855777Y-5516293D02*
X2893872Y-5516293D01*
X2893872Y-5516293D02*
X2912920Y-5506770D01*
X2912920Y-5506770D02*
X2922444Y-5497246D01*
X2922444Y-5497246D02*
X2931967Y-5478198D01*
X3103396Y-5459150D02*
X3103396Y-5592484D01*
X3055777Y-5382960D02*
X3008158Y-5525817D01*
X3008158Y-5525817D02*
X3131967Y-5525817D01*
X3198634Y-5392484D02*
X3198634Y-5430579D01*
X3274825Y-5392484D02*
X3274825Y-5430579D01*
X3570063Y-5668674D02*
X3560539Y-5659150D01*
X3560539Y-5659150D02*
X3541491Y-5630579D01*
X3541491Y-5630579D02*
X3531968Y-5611531D01*
X3531968Y-5611531D02*
X3522444Y-5582960D01*
X3522444Y-5582960D02*
X3512920Y-5535341D01*
X3512920Y-5535341D02*
X3512920Y-5497246D01*
X3512920Y-5497246D02*
X3522444Y-5449627D01*
X3522444Y-5449627D02*
X3531968Y-5421055D01*
X3531968Y-5421055D02*
X3541491Y-5402008D01*
X3541491Y-5402008D02*
X3560539Y-5373436D01*
X3560539Y-5373436D02*
X3570063Y-5363912D01*
X3751015Y-5592484D02*
X3636729Y-5592484D01*
X3693872Y-5592484D02*
X3693872Y-5392484D01*
X3693872Y-5392484D02*
X3674825Y-5421055D01*
X3674825Y-5421055D02*
X3655777Y-5440103D01*
X3655777Y-5440103D02*
X3636729Y-5449627D01*
X3846253Y-5592484D02*
X3884348Y-5592484D01*
X3884348Y-5592484D02*
X3903396Y-5582960D01*
X3903396Y-5582960D02*
X3912920Y-5573436D01*
X3912920Y-5573436D02*
X3931968Y-5544865D01*
X3931968Y-5544865D02*
X3941491Y-5506770D01*
X3941491Y-5506770D02*
X3941491Y-5430579D01*
X3941491Y-5430579D02*
X3931968Y-5411531D01*
X3931968Y-5411531D02*
X3922444Y-5402008D01*
X3922444Y-5402008D02*
X3903396Y-5392484D01*
X3903396Y-5392484D02*
X3865301Y-5392484D01*
X3865301Y-5392484D02*
X3846253Y-5402008D01*
X3846253Y-5402008D02*
X3836729Y-5411531D01*
X3836729Y-5411531D02*
X3827206Y-5430579D01*
X3827206Y-5430579D02*
X3827206Y-5478198D01*
X3827206Y-5478198D02*
X3836729Y-5497246D01*
X3836729Y-5497246D02*
X3846253Y-5506770D01*
X3846253Y-5506770D02*
X3865301Y-5516293D01*
X3865301Y-5516293D02*
X3903396Y-5516293D01*
X3903396Y-5516293D02*
X3922444Y-5506770D01*
X3922444Y-5506770D02*
X3931968Y-5497246D01*
X3931968Y-5497246D02*
X3941491Y-5478198D01*
X4179587Y-5592484D02*
X4179587Y-5392484D01*
X4265301Y-5592484D02*
X4265301Y-5487722D01*
X4265301Y-5487722D02*
X4255777Y-5468674D01*
X4255777Y-5468674D02*
X4236730Y-5459150D01*
X4236730Y-5459150D02*
X4208158Y-5459150D01*
X4208158Y-5459150D02*
X4189110Y-5468674D01*
X4189110Y-5468674D02*
X4179587Y-5478198D01*
X4389111Y-5592484D02*
X4370063Y-5582960D01*
X4370063Y-5582960D02*
X4360539Y-5573436D01*
X4360539Y-5573436D02*
X4351015Y-5554389D01*
X4351015Y-5554389D02*
X4351015Y-5497246D01*
X4351015Y-5497246D02*
X4360539Y-5478198D01*
X4360539Y-5478198D02*
X4370063Y-5468674D01*
X4370063Y-5468674D02*
X4389111Y-5459150D01*
X4389111Y-5459150D02*
X4417682Y-5459150D01*
X4417682Y-5459150D02*
X4436730Y-5468674D01*
X4436730Y-5468674D02*
X4446253Y-5478198D01*
X4446253Y-5478198D02*
X4455777Y-5497246D01*
X4455777Y-5497246D02*
X4455777Y-5554389D01*
X4455777Y-5554389D02*
X4446253Y-5573436D01*
X4446253Y-5573436D02*
X4436730Y-5582960D01*
X4436730Y-5582960D02*
X4417682Y-5592484D01*
X4417682Y-5592484D02*
X4389111Y-5592484D01*
X4570063Y-5592484D02*
X4551015Y-5582960D01*
X4551015Y-5582960D02*
X4541492Y-5563912D01*
X4541492Y-5563912D02*
X4541492Y-5392484D01*
X4722444Y-5582960D02*
X4703396Y-5592484D01*
X4703396Y-5592484D02*
X4665301Y-5592484D01*
X4665301Y-5592484D02*
X4646253Y-5582960D01*
X4646253Y-5582960D02*
X4636730Y-5563912D01*
X4636730Y-5563912D02*
X4636730Y-5487722D01*
X4636730Y-5487722D02*
X4646253Y-5468674D01*
X4646253Y-5468674D02*
X4665301Y-5459150D01*
X4665301Y-5459150D02*
X4703396Y-5459150D01*
X4703396Y-5459150D02*
X4722444Y-5468674D01*
X4722444Y-5468674D02*
X4731968Y-5487722D01*
X4731968Y-5487722D02*
X4731968Y-5506770D01*
X4731968Y-5506770D02*
X4636730Y-5525817D01*
X4808158Y-5582960D02*
X4827206Y-5592484D01*
X4827206Y-5592484D02*
X4865301Y-5592484D01*
X4865301Y-5592484D02*
X4884349Y-5582960D01*
X4884349Y-5582960D02*
X4893873Y-5563912D01*
X4893873Y-5563912D02*
X4893873Y-5554389D01*
X4893873Y-5554389D02*
X4884349Y-5535341D01*
X4884349Y-5535341D02*
X4865301Y-5525817D01*
X4865301Y-5525817D02*
X4836730Y-5525817D01*
X4836730Y-5525817D02*
X4817682Y-5516293D01*
X4817682Y-5516293D02*
X4808158Y-5497246D01*
X4808158Y-5497246D02*
X4808158Y-5487722D01*
X4808158Y-5487722D02*
X4817682Y-5468674D01*
X4817682Y-5468674D02*
X4836730Y-5459150D01*
X4836730Y-5459150D02*
X4865301Y-5459150D01*
X4865301Y-5459150D02*
X4884349Y-5468674D01*
X4960539Y-5668674D02*
X4970063Y-5659150D01*
X4970063Y-5659150D02*
X4989111Y-5630579D01*
X4989111Y-5630579D02*
X4998634Y-5611531D01*
X4998634Y-5611531D02*
X5008158Y-5582960D01*
X5008158Y-5582960D02*
X5017682Y-5535341D01*
X5017682Y-5535341D02*
X5017682Y-5497246D01*
X5017682Y-5497246D02*
X5008158Y-5449627D01*
X5008158Y-5449627D02*
X4998634Y-5421055D01*
X4998634Y-5421055D02*
X4989111Y-5402008D01*
X4989111Y-5402008D02*
X4970063Y-5373436D01*
X4970063Y-5373436D02*
X4960539Y-5363912D01*
D12*
X-155000Y-5690000D02*
X-5000Y-5840000D01*
X-5000Y-5690000D02*
X-155000Y-5840000D01*
X-5000Y-5765000D02*
G75*
G02*
X-155000Y-5765000I-75000J0D01*
G01*
X-155000Y-5765000D02*
G75*
G02*
X-5000Y-5765000I75000J0D01*
G01*
D11*
X360539Y-5856484D02*
X246253Y-5856484D01*
X303396Y-5856484D02*
X303396Y-5656484D01*
X303396Y-5656484D02*
X284348Y-5685055D01*
X284348Y-5685055D02*
X265301Y-5704103D01*
X265301Y-5704103D02*
X246253Y-5713627D01*
X446253Y-5837436D02*
X455777Y-5846960D01*
X455777Y-5846960D02*
X446253Y-5856484D01*
X446253Y-5856484D02*
X436729Y-5846960D01*
X436729Y-5846960D02*
X446253Y-5837436D01*
X446253Y-5837436D02*
X446253Y-5856484D01*
X636729Y-5656484D02*
X541491Y-5656484D01*
X541491Y-5656484D02*
X531967Y-5751722D01*
X531967Y-5751722D02*
X541491Y-5742198D01*
X541491Y-5742198D02*
X560539Y-5732674D01*
X560539Y-5732674D02*
X608158Y-5732674D01*
X608158Y-5732674D02*
X627205Y-5742198D01*
X627205Y-5742198D02*
X636729Y-5751722D01*
X636729Y-5751722D02*
X646253Y-5770769D01*
X646253Y-5770769D02*
X646253Y-5818388D01*
X646253Y-5818388D02*
X636729Y-5837436D01*
X636729Y-5837436D02*
X627205Y-5846960D01*
X627205Y-5846960D02*
X608158Y-5856484D01*
X608158Y-5856484D02*
X560539Y-5856484D01*
X560539Y-5856484D02*
X541491Y-5846960D01*
X541491Y-5846960D02*
X531967Y-5837436D01*
X770062Y-5656484D02*
X789110Y-5656484D01*
X789110Y-5656484D02*
X808158Y-5666008D01*
X808158Y-5666008D02*
X817682Y-5675531D01*
X817682Y-5675531D02*
X827205Y-5694579D01*
X827205Y-5694579D02*
X836729Y-5732674D01*
X836729Y-5732674D02*
X836729Y-5780293D01*
X836729Y-5780293D02*
X827205Y-5818388D01*
X827205Y-5818388D02*
X817682Y-5837436D01*
X817682Y-5837436D02*
X808158Y-5846960D01*
X808158Y-5846960D02*
X789110Y-5856484D01*
X789110Y-5856484D02*
X770062Y-5856484D01*
X770062Y-5856484D02*
X751015Y-5846960D01*
X751015Y-5846960D02*
X741491Y-5837436D01*
X741491Y-5837436D02*
X731967Y-5818388D01*
X731967Y-5818388D02*
X722443Y-5780293D01*
X722443Y-5780293D02*
X722443Y-5732674D01*
X722443Y-5732674D02*
X731967Y-5694579D01*
X731967Y-5694579D02*
X741491Y-5675531D01*
X741491Y-5675531D02*
X751015Y-5666008D01*
X751015Y-5666008D02*
X770062Y-5656484D01*
X960539Y-5656484D02*
X979586Y-5656484D01*
X979586Y-5656484D02*
X998634Y-5666008D01*
X998634Y-5666008D02*
X1008158Y-5675531D01*
X1008158Y-5675531D02*
X1017682Y-5694579D01*
X1017682Y-5694579D02*
X1027205Y-5732674D01*
X1027205Y-5732674D02*
X1027205Y-5780293D01*
X1027205Y-5780293D02*
X1017682Y-5818388D01*
X1017682Y-5818388D02*
X1008158Y-5837436D01*
X1008158Y-5837436D02*
X998634Y-5846960D01*
X998634Y-5846960D02*
X979586Y-5856484D01*
X979586Y-5856484D02*
X960539Y-5856484D01*
X960539Y-5856484D02*
X941491Y-5846960D01*
X941491Y-5846960D02*
X931967Y-5837436D01*
X931967Y-5837436D02*
X922443Y-5818388D01*
X922443Y-5818388D02*
X912920Y-5780293D01*
X912920Y-5780293D02*
X912920Y-5732674D01*
X912920Y-5732674D02*
X922443Y-5694579D01*
X922443Y-5694579D02*
X931967Y-5675531D01*
X931967Y-5675531D02*
X941491Y-5666008D01*
X941491Y-5666008D02*
X960539Y-5656484D01*
X1112920Y-5856484D02*
X1112920Y-5723150D01*
X1112920Y-5742198D02*
X1122444Y-5732674D01*
X1122444Y-5732674D02*
X1141491Y-5723150D01*
X1141491Y-5723150D02*
X1170063Y-5723150D01*
X1170063Y-5723150D02*
X1189110Y-5732674D01*
X1189110Y-5732674D02*
X1198634Y-5751722D01*
X1198634Y-5751722D02*
X1198634Y-5856484D01*
X1198634Y-5751722D02*
X1208158Y-5732674D01*
X1208158Y-5732674D02*
X1227205Y-5723150D01*
X1227205Y-5723150D02*
X1255777Y-5723150D01*
X1255777Y-5723150D02*
X1274825Y-5732674D01*
X1274825Y-5732674D02*
X1284348Y-5751722D01*
X1284348Y-5751722D02*
X1284348Y-5856484D01*
X1379586Y-5856484D02*
X1379586Y-5723150D01*
X1379586Y-5742198D02*
X1389110Y-5732674D01*
X1389110Y-5732674D02*
X1408158Y-5723150D01*
X1408158Y-5723150D02*
X1436729Y-5723150D01*
X1436729Y-5723150D02*
X1455777Y-5732674D01*
X1455777Y-5732674D02*
X1465301Y-5751722D01*
X1465301Y-5751722D02*
X1465301Y-5856484D01*
X1465301Y-5751722D02*
X1474824Y-5732674D01*
X1474824Y-5732674D02*
X1493872Y-5723150D01*
X1493872Y-5723150D02*
X1522443Y-5723150D01*
X1522443Y-5723150D02*
X1541491Y-5732674D01*
X1541491Y-5732674D02*
X1551015Y-5751722D01*
X1551015Y-5751722D02*
X1551015Y-5856484D01*
X1941491Y-5646960D02*
X1770063Y-5904103D01*
X2198634Y-5656484D02*
X2217682Y-5656484D01*
X2217682Y-5656484D02*
X2236729Y-5666008D01*
X2236729Y-5666008D02*
X2246253Y-5675531D01*
X2246253Y-5675531D02*
X2255777Y-5694579D01*
X2255777Y-5694579D02*
X2265301Y-5732674D01*
X2265301Y-5732674D02*
X2265301Y-5780293D01*
X2265301Y-5780293D02*
X2255777Y-5818388D01*
X2255777Y-5818388D02*
X2246253Y-5837436D01*
X2246253Y-5837436D02*
X2236729Y-5846960D01*
X2236729Y-5846960D02*
X2217682Y-5856484D01*
X2217682Y-5856484D02*
X2198634Y-5856484D01*
X2198634Y-5856484D02*
X2179587Y-5846960D01*
X2179587Y-5846960D02*
X2170063Y-5837436D01*
X2170063Y-5837436D02*
X2160539Y-5818388D01*
X2160539Y-5818388D02*
X2151015Y-5780293D01*
X2151015Y-5780293D02*
X2151015Y-5732674D01*
X2151015Y-5732674D02*
X2160539Y-5694579D01*
X2160539Y-5694579D02*
X2170063Y-5675531D01*
X2170063Y-5675531D02*
X2179587Y-5666008D01*
X2179587Y-5666008D02*
X2198634Y-5656484D01*
X2351015Y-5837436D02*
X2360539Y-5846960D01*
X2360539Y-5846960D02*
X2351015Y-5856484D01*
X2351015Y-5856484D02*
X2341491Y-5846960D01*
X2341491Y-5846960D02*
X2351015Y-5837436D01*
X2351015Y-5837436D02*
X2351015Y-5856484D01*
X2484348Y-5656484D02*
X2503396Y-5656484D01*
X2503396Y-5656484D02*
X2522444Y-5666008D01*
X2522444Y-5666008D02*
X2531968Y-5675531D01*
X2531968Y-5675531D02*
X2541491Y-5694579D01*
X2541491Y-5694579D02*
X2551015Y-5732674D01*
X2551015Y-5732674D02*
X2551015Y-5780293D01*
X2551015Y-5780293D02*
X2541491Y-5818388D01*
X2541491Y-5818388D02*
X2531968Y-5837436D01*
X2531968Y-5837436D02*
X2522444Y-5846960D01*
X2522444Y-5846960D02*
X2503396Y-5856484D01*
X2503396Y-5856484D02*
X2484348Y-5856484D01*
X2484348Y-5856484D02*
X2465301Y-5846960D01*
X2465301Y-5846960D02*
X2455777Y-5837436D01*
X2455777Y-5837436D02*
X2446253Y-5818388D01*
X2446253Y-5818388D02*
X2436729Y-5780293D01*
X2436729Y-5780293D02*
X2436729Y-5732674D01*
X2436729Y-5732674D02*
X2446253Y-5694579D01*
X2446253Y-5694579D02*
X2455777Y-5675531D01*
X2455777Y-5675531D02*
X2465301Y-5666008D01*
X2465301Y-5666008D02*
X2484348Y-5656484D01*
X2731968Y-5656484D02*
X2636729Y-5656484D01*
X2636729Y-5656484D02*
X2627206Y-5751722D01*
X2627206Y-5751722D02*
X2636729Y-5742198D01*
X2636729Y-5742198D02*
X2655777Y-5732674D01*
X2655777Y-5732674D02*
X2703396Y-5732674D01*
X2703396Y-5732674D02*
X2722444Y-5742198D01*
X2722444Y-5742198D02*
X2731968Y-5751722D01*
X2731968Y-5751722D02*
X2741491Y-5770769D01*
X2741491Y-5770769D02*
X2741491Y-5818388D01*
X2741491Y-5818388D02*
X2731968Y-5837436D01*
X2731968Y-5837436D02*
X2722444Y-5846960D01*
X2722444Y-5846960D02*
X2703396Y-5856484D01*
X2703396Y-5856484D02*
X2655777Y-5856484D01*
X2655777Y-5856484D02*
X2636729Y-5846960D01*
X2636729Y-5846960D02*
X2627206Y-5837436D01*
X2836729Y-5856484D02*
X2874825Y-5856484D01*
X2874825Y-5856484D02*
X2893872Y-5846960D01*
X2893872Y-5846960D02*
X2903396Y-5837436D01*
X2903396Y-5837436D02*
X2922444Y-5808865D01*
X2922444Y-5808865D02*
X2931967Y-5770769D01*
X2931967Y-5770769D02*
X2931967Y-5694579D01*
X2931967Y-5694579D02*
X2922444Y-5675531D01*
X2922444Y-5675531D02*
X2912920Y-5666008D01*
X2912920Y-5666008D02*
X2893872Y-5656484D01*
X2893872Y-5656484D02*
X2855777Y-5656484D01*
X2855777Y-5656484D02*
X2836729Y-5666008D01*
X2836729Y-5666008D02*
X2827206Y-5675531D01*
X2827206Y-5675531D02*
X2817682Y-5694579D01*
X2817682Y-5694579D02*
X2817682Y-5742198D01*
X2817682Y-5742198D02*
X2827206Y-5761246D01*
X2827206Y-5761246D02*
X2836729Y-5770769D01*
X2836729Y-5770769D02*
X2855777Y-5780293D01*
X2855777Y-5780293D02*
X2893872Y-5780293D01*
X2893872Y-5780293D02*
X2912920Y-5770769D01*
X2912920Y-5770769D02*
X2922444Y-5761246D01*
X2922444Y-5761246D02*
X2931967Y-5742198D01*
X3122444Y-5856484D02*
X3008158Y-5856484D01*
X3065301Y-5856484D02*
X3065301Y-5656484D01*
X3065301Y-5656484D02*
X3046253Y-5685055D01*
X3046253Y-5685055D02*
X3027206Y-5704103D01*
X3027206Y-5704103D02*
X3008158Y-5713627D01*
X3198634Y-5656484D02*
X3198634Y-5694579D01*
X3274825Y-5656484D02*
X3274825Y-5694579D01*
X3570063Y-5932674D02*
X3560539Y-5923150D01*
X3560539Y-5923150D02*
X3541491Y-5894579D01*
X3541491Y-5894579D02*
X3531968Y-5875531D01*
X3531968Y-5875531D02*
X3522444Y-5846960D01*
X3522444Y-5846960D02*
X3512920Y-5799341D01*
X3512920Y-5799341D02*
X3512920Y-5761246D01*
X3512920Y-5761246D02*
X3522444Y-5713627D01*
X3522444Y-5713627D02*
X3531968Y-5685055D01*
X3531968Y-5685055D02*
X3541491Y-5666008D01*
X3541491Y-5666008D02*
X3560539Y-5637436D01*
X3560539Y-5637436D02*
X3570063Y-5627912D01*
X3636729Y-5675531D02*
X3646253Y-5666008D01*
X3646253Y-5666008D02*
X3665301Y-5656484D01*
X3665301Y-5656484D02*
X3712920Y-5656484D01*
X3712920Y-5656484D02*
X3731968Y-5666008D01*
X3731968Y-5666008D02*
X3741491Y-5675531D01*
X3741491Y-5675531D02*
X3751015Y-5694579D01*
X3751015Y-5694579D02*
X3751015Y-5713627D01*
X3751015Y-5713627D02*
X3741491Y-5742198D01*
X3741491Y-5742198D02*
X3627206Y-5856484D01*
X3627206Y-5856484D02*
X3751015Y-5856484D01*
X3922444Y-5723150D02*
X3922444Y-5856484D01*
X3874825Y-5646960D02*
X3827206Y-5789817D01*
X3827206Y-5789817D02*
X3951015Y-5789817D01*
X4179587Y-5856484D02*
X4179587Y-5656484D01*
X4265301Y-5856484D02*
X4265301Y-5751722D01*
X4265301Y-5751722D02*
X4255777Y-5732674D01*
X4255777Y-5732674D02*
X4236730Y-5723150D01*
X4236730Y-5723150D02*
X4208158Y-5723150D01*
X4208158Y-5723150D02*
X4189110Y-5732674D01*
X4189110Y-5732674D02*
X4179587Y-5742198D01*
X4389111Y-5856484D02*
X4370063Y-5846960D01*
X4370063Y-5846960D02*
X4360539Y-5837436D01*
X4360539Y-5837436D02*
X4351015Y-5818388D01*
X4351015Y-5818388D02*
X4351015Y-5761246D01*
X4351015Y-5761246D02*
X4360539Y-5742198D01*
X4360539Y-5742198D02*
X4370063Y-5732674D01*
X4370063Y-5732674D02*
X4389111Y-5723150D01*
X4389111Y-5723150D02*
X4417682Y-5723150D01*
X4417682Y-5723150D02*
X4436730Y-5732674D01*
X4436730Y-5732674D02*
X4446253Y-5742198D01*
X4446253Y-5742198D02*
X4455777Y-5761246D01*
X4455777Y-5761246D02*
X4455777Y-5818388D01*
X4455777Y-5818388D02*
X4446253Y-5837436D01*
X4446253Y-5837436D02*
X4436730Y-5846960D01*
X4436730Y-5846960D02*
X4417682Y-5856484D01*
X4417682Y-5856484D02*
X4389111Y-5856484D01*
X4570063Y-5856484D02*
X4551015Y-5846960D01*
X4551015Y-5846960D02*
X4541492Y-5827912D01*
X4541492Y-5827912D02*
X4541492Y-5656484D01*
X4722444Y-5846960D02*
X4703396Y-5856484D01*
X4703396Y-5856484D02*
X4665301Y-5856484D01*
X4665301Y-5856484D02*
X4646253Y-5846960D01*
X4646253Y-5846960D02*
X4636730Y-5827912D01*
X4636730Y-5827912D02*
X4636730Y-5751722D01*
X4636730Y-5751722D02*
X4646253Y-5732674D01*
X4646253Y-5732674D02*
X4665301Y-5723150D01*
X4665301Y-5723150D02*
X4703396Y-5723150D01*
X4703396Y-5723150D02*
X4722444Y-5732674D01*
X4722444Y-5732674D02*
X4731968Y-5751722D01*
X4731968Y-5751722D02*
X4731968Y-5770769D01*
X4731968Y-5770769D02*
X4636730Y-5789817D01*
X4808158Y-5846960D02*
X4827206Y-5856484D01*
X4827206Y-5856484D02*
X4865301Y-5856484D01*
X4865301Y-5856484D02*
X4884349Y-5846960D01*
X4884349Y-5846960D02*
X4893873Y-5827912D01*
X4893873Y-5827912D02*
X4893873Y-5818388D01*
X4893873Y-5818388D02*
X4884349Y-5799341D01*
X4884349Y-5799341D02*
X4865301Y-5789817D01*
X4865301Y-5789817D02*
X4836730Y-5789817D01*
X4836730Y-5789817D02*
X4817682Y-5780293D01*
X4817682Y-5780293D02*
X4808158Y-5761246D01*
X4808158Y-5761246D02*
X4808158Y-5751722D01*
X4808158Y-5751722D02*
X4817682Y-5732674D01*
X4817682Y-5732674D02*
X4836730Y-5723150D01*
X4836730Y-5723150D02*
X4865301Y-5723150D01*
X4865301Y-5723150D02*
X4884349Y-5732674D01*
X4960539Y-5932674D02*
X4970063Y-5923150D01*
X4970063Y-5923150D02*
X4989111Y-5894579D01*
X4989111Y-5894579D02*
X4998634Y-5875531D01*
X4998634Y-5875531D02*
X5008158Y-5846960D01*
X5008158Y-5846960D02*
X5017682Y-5799341D01*
X5017682Y-5799341D02*
X5017682Y-5761246D01*
X5017682Y-5761246D02*
X5008158Y-5713627D01*
X5008158Y-5713627D02*
X4998634Y-5685055D01*
X4998634Y-5685055D02*
X4989111Y-5666008D01*
X4989111Y-5666008D02*
X4970063Y-5637436D01*
X4970063Y-5637436D02*
X4960539Y-5627912D01*
X-205000Y-5935000D02*
X-5000Y-6135000D01*
X-5000Y-5935000D02*
X-205000Y-6135000D01*
X-105000Y-5935000D02*
X-105000Y-6135000D01*
X-205000Y-6035000D02*
X-5000Y-6035000D01*
X246253Y-5945531D02*
X255777Y-5936008D01*
X255777Y-5936008D02*
X274824Y-5926484D01*
X274824Y-5926484D02*
X322444Y-5926484D01*
X322444Y-5926484D02*
X341491Y-5936008D01*
X341491Y-5936008D02*
X351015Y-5945531D01*
X351015Y-5945531D02*
X360539Y-5964579D01*
X360539Y-5964579D02*
X360539Y-5983627D01*
X360539Y-5983627D02*
X351015Y-6012198D01*
X351015Y-6012198D02*
X236729Y-6126484D01*
X236729Y-6126484D02*
X360539Y-6126484D01*
X446253Y-6107436D02*
X455777Y-6116960D01*
X455777Y-6116960D02*
X446253Y-6126484D01*
X446253Y-6126484D02*
X436729Y-6116960D01*
X436729Y-6116960D02*
X446253Y-6107436D01*
X446253Y-6107436D02*
X446253Y-6126484D01*
X579586Y-5926484D02*
X598634Y-5926484D01*
X598634Y-5926484D02*
X617682Y-5936008D01*
X617682Y-5936008D02*
X627205Y-5945531D01*
X627205Y-5945531D02*
X636729Y-5964579D01*
X636729Y-5964579D02*
X646253Y-6002674D01*
X646253Y-6002674D02*
X646253Y-6050293D01*
X646253Y-6050293D02*
X636729Y-6088388D01*
X636729Y-6088388D02*
X627205Y-6107436D01*
X627205Y-6107436D02*
X617682Y-6116960D01*
X617682Y-6116960D02*
X598634Y-6126484D01*
X598634Y-6126484D02*
X579586Y-6126484D01*
X579586Y-6126484D02*
X560539Y-6116960D01*
X560539Y-6116960D02*
X551015Y-6107436D01*
X551015Y-6107436D02*
X541491Y-6088388D01*
X541491Y-6088388D02*
X531967Y-6050293D01*
X531967Y-6050293D02*
X531967Y-6002674D01*
X531967Y-6002674D02*
X541491Y-5964579D01*
X541491Y-5964579D02*
X551015Y-5945531D01*
X551015Y-5945531D02*
X560539Y-5936008D01*
X560539Y-5936008D02*
X579586Y-5926484D01*
X770062Y-5926484D02*
X789110Y-5926484D01*
X789110Y-5926484D02*
X808158Y-5936008D01*
X808158Y-5936008D02*
X817682Y-5945531D01*
X817682Y-5945531D02*
X827205Y-5964579D01*
X827205Y-5964579D02*
X836729Y-6002674D01*
X836729Y-6002674D02*
X836729Y-6050293D01*
X836729Y-6050293D02*
X827205Y-6088388D01*
X827205Y-6088388D02*
X817682Y-6107436D01*
X817682Y-6107436D02*
X808158Y-6116960D01*
X808158Y-6116960D02*
X789110Y-6126484D01*
X789110Y-6126484D02*
X770062Y-6126484D01*
X770062Y-6126484D02*
X751015Y-6116960D01*
X751015Y-6116960D02*
X741491Y-6107436D01*
X741491Y-6107436D02*
X731967Y-6088388D01*
X731967Y-6088388D02*
X722443Y-6050293D01*
X722443Y-6050293D02*
X722443Y-6002674D01*
X722443Y-6002674D02*
X731967Y-5964579D01*
X731967Y-5964579D02*
X741491Y-5945531D01*
X741491Y-5945531D02*
X751015Y-5936008D01*
X751015Y-5936008D02*
X770062Y-5926484D01*
X960539Y-5926484D02*
X979586Y-5926484D01*
X979586Y-5926484D02*
X998634Y-5936008D01*
X998634Y-5936008D02*
X1008158Y-5945531D01*
X1008158Y-5945531D02*
X1017682Y-5964579D01*
X1017682Y-5964579D02*
X1027205Y-6002674D01*
X1027205Y-6002674D02*
X1027205Y-6050293D01*
X1027205Y-6050293D02*
X1017682Y-6088388D01*
X1017682Y-6088388D02*
X1008158Y-6107436D01*
X1008158Y-6107436D02*
X998634Y-6116960D01*
X998634Y-6116960D02*
X979586Y-6126484D01*
X979586Y-6126484D02*
X960539Y-6126484D01*
X960539Y-6126484D02*
X941491Y-6116960D01*
X941491Y-6116960D02*
X931967Y-6107436D01*
X931967Y-6107436D02*
X922443Y-6088388D01*
X922443Y-6088388D02*
X912920Y-6050293D01*
X912920Y-6050293D02*
X912920Y-6002674D01*
X912920Y-6002674D02*
X922443Y-5964579D01*
X922443Y-5964579D02*
X931967Y-5945531D01*
X931967Y-5945531D02*
X941491Y-5936008D01*
X941491Y-5936008D02*
X960539Y-5926484D01*
X1112920Y-6126484D02*
X1112920Y-5993150D01*
X1112920Y-6012198D02*
X1122444Y-6002674D01*
X1122444Y-6002674D02*
X1141491Y-5993150D01*
X1141491Y-5993150D02*
X1170063Y-5993150D01*
X1170063Y-5993150D02*
X1189110Y-6002674D01*
X1189110Y-6002674D02*
X1198634Y-6021722D01*
X1198634Y-6021722D02*
X1198634Y-6126484D01*
X1198634Y-6021722D02*
X1208158Y-6002674D01*
X1208158Y-6002674D02*
X1227205Y-5993150D01*
X1227205Y-5993150D02*
X1255777Y-5993150D01*
X1255777Y-5993150D02*
X1274825Y-6002674D01*
X1274825Y-6002674D02*
X1284348Y-6021722D01*
X1284348Y-6021722D02*
X1284348Y-6126484D01*
X1379586Y-6126484D02*
X1379586Y-5993150D01*
X1379586Y-6012198D02*
X1389110Y-6002674D01*
X1389110Y-6002674D02*
X1408158Y-5993150D01*
X1408158Y-5993150D02*
X1436729Y-5993150D01*
X1436729Y-5993150D02*
X1455777Y-6002674D01*
X1455777Y-6002674D02*
X1465301Y-6021722D01*
X1465301Y-6021722D02*
X1465301Y-6126484D01*
X1465301Y-6021722D02*
X1474824Y-6002674D01*
X1474824Y-6002674D02*
X1493872Y-5993150D01*
X1493872Y-5993150D02*
X1522443Y-5993150D01*
X1522443Y-5993150D02*
X1541491Y-6002674D01*
X1541491Y-6002674D02*
X1551015Y-6021722D01*
X1551015Y-6021722D02*
X1551015Y-6126484D01*
X1941491Y-5916960D02*
X1770063Y-6174103D01*
X2198634Y-5926484D02*
X2217682Y-5926484D01*
X2217682Y-5926484D02*
X2236729Y-5936008D01*
X2236729Y-5936008D02*
X2246253Y-5945531D01*
X2246253Y-5945531D02*
X2255777Y-5964579D01*
X2255777Y-5964579D02*
X2265301Y-6002674D01*
X2265301Y-6002674D02*
X2265301Y-6050293D01*
X2265301Y-6050293D02*
X2255777Y-6088388D01*
X2255777Y-6088388D02*
X2246253Y-6107436D01*
X2246253Y-6107436D02*
X2236729Y-6116960D01*
X2236729Y-6116960D02*
X2217682Y-6126484D01*
X2217682Y-6126484D02*
X2198634Y-6126484D01*
X2198634Y-6126484D02*
X2179587Y-6116960D01*
X2179587Y-6116960D02*
X2170063Y-6107436D01*
X2170063Y-6107436D02*
X2160539Y-6088388D01*
X2160539Y-6088388D02*
X2151015Y-6050293D01*
X2151015Y-6050293D02*
X2151015Y-6002674D01*
X2151015Y-6002674D02*
X2160539Y-5964579D01*
X2160539Y-5964579D02*
X2170063Y-5945531D01*
X2170063Y-5945531D02*
X2179587Y-5936008D01*
X2179587Y-5936008D02*
X2198634Y-5926484D01*
X2351015Y-6107436D02*
X2360539Y-6116960D01*
X2360539Y-6116960D02*
X2351015Y-6126484D01*
X2351015Y-6126484D02*
X2341491Y-6116960D01*
X2341491Y-6116960D02*
X2351015Y-6107436D01*
X2351015Y-6107436D02*
X2351015Y-6126484D01*
X2484348Y-5926484D02*
X2503396Y-5926484D01*
X2503396Y-5926484D02*
X2522444Y-5936008D01*
X2522444Y-5936008D02*
X2531968Y-5945531D01*
X2531968Y-5945531D02*
X2541491Y-5964579D01*
X2541491Y-5964579D02*
X2551015Y-6002674D01*
X2551015Y-6002674D02*
X2551015Y-6050293D01*
X2551015Y-6050293D02*
X2541491Y-6088388D01*
X2541491Y-6088388D02*
X2531968Y-6107436D01*
X2531968Y-6107436D02*
X2522444Y-6116960D01*
X2522444Y-6116960D02*
X2503396Y-6126484D01*
X2503396Y-6126484D02*
X2484348Y-6126484D01*
X2484348Y-6126484D02*
X2465301Y-6116960D01*
X2465301Y-6116960D02*
X2455777Y-6107436D01*
X2455777Y-6107436D02*
X2446253Y-6088388D01*
X2446253Y-6088388D02*
X2436729Y-6050293D01*
X2436729Y-6050293D02*
X2436729Y-6002674D01*
X2436729Y-6002674D02*
X2446253Y-5964579D01*
X2446253Y-5964579D02*
X2455777Y-5945531D01*
X2455777Y-5945531D02*
X2465301Y-5936008D01*
X2465301Y-5936008D02*
X2484348Y-5926484D01*
X2617682Y-5926484D02*
X2751015Y-5926484D01*
X2751015Y-5926484D02*
X2665301Y-6126484D01*
X2855777Y-6012198D02*
X2836729Y-6002674D01*
X2836729Y-6002674D02*
X2827206Y-5993150D01*
X2827206Y-5993150D02*
X2817682Y-5974103D01*
X2817682Y-5974103D02*
X2817682Y-5964579D01*
X2817682Y-5964579D02*
X2827206Y-5945531D01*
X2827206Y-5945531D02*
X2836729Y-5936008D01*
X2836729Y-5936008D02*
X2855777Y-5926484D01*
X2855777Y-5926484D02*
X2893872Y-5926484D01*
X2893872Y-5926484D02*
X2912920Y-5936008D01*
X2912920Y-5936008D02*
X2922444Y-5945531D01*
X2922444Y-5945531D02*
X2931967Y-5964579D01*
X2931967Y-5964579D02*
X2931967Y-5974103D01*
X2931967Y-5974103D02*
X2922444Y-5993150D01*
X2922444Y-5993150D02*
X2912920Y-6002674D01*
X2912920Y-6002674D02*
X2893872Y-6012198D01*
X2893872Y-6012198D02*
X2855777Y-6012198D01*
X2855777Y-6012198D02*
X2836729Y-6021722D01*
X2836729Y-6021722D02*
X2827206Y-6031246D01*
X2827206Y-6031246D02*
X2817682Y-6050293D01*
X2817682Y-6050293D02*
X2817682Y-6088388D01*
X2817682Y-6088388D02*
X2827206Y-6107436D01*
X2827206Y-6107436D02*
X2836729Y-6116960D01*
X2836729Y-6116960D02*
X2855777Y-6126484D01*
X2855777Y-6126484D02*
X2893872Y-6126484D01*
X2893872Y-6126484D02*
X2912920Y-6116960D01*
X2912920Y-6116960D02*
X2922444Y-6107436D01*
X2922444Y-6107436D02*
X2931967Y-6088388D01*
X2931967Y-6088388D02*
X2931967Y-6050293D01*
X2931967Y-6050293D02*
X2922444Y-6031246D01*
X2922444Y-6031246D02*
X2912920Y-6021722D01*
X2912920Y-6021722D02*
X2893872Y-6012198D01*
X2998634Y-5926484D02*
X3131967Y-5926484D01*
X3131967Y-5926484D02*
X3046253Y-6126484D01*
X3198634Y-5926484D02*
X3198634Y-5964579D01*
X3274825Y-5926484D02*
X3274825Y-5964579D01*
X3570063Y-6202674D02*
X3560539Y-6193150D01*
X3560539Y-6193150D02*
X3541491Y-6164579D01*
X3541491Y-6164579D02*
X3531968Y-6145531D01*
X3531968Y-6145531D02*
X3522444Y-6116960D01*
X3522444Y-6116960D02*
X3512920Y-6069341D01*
X3512920Y-6069341D02*
X3512920Y-6031246D01*
X3512920Y-6031246D02*
X3522444Y-5983627D01*
X3522444Y-5983627D02*
X3531968Y-5955055D01*
X3531968Y-5955055D02*
X3541491Y-5936008D01*
X3541491Y-5936008D02*
X3560539Y-5907436D01*
X3560539Y-5907436D02*
X3570063Y-5897912D01*
X3674825Y-6012198D02*
X3655777Y-6002674D01*
X3655777Y-6002674D02*
X3646253Y-5993150D01*
X3646253Y-5993150D02*
X3636729Y-5974103D01*
X3636729Y-5974103D02*
X3636729Y-5964579D01*
X3636729Y-5964579D02*
X3646253Y-5945531D01*
X3646253Y-5945531D02*
X3655777Y-5936008D01*
X3655777Y-5936008D02*
X3674825Y-5926484D01*
X3674825Y-5926484D02*
X3712920Y-5926484D01*
X3712920Y-5926484D02*
X3731968Y-5936008D01*
X3731968Y-5936008D02*
X3741491Y-5945531D01*
X3741491Y-5945531D02*
X3751015Y-5964579D01*
X3751015Y-5964579D02*
X3751015Y-5974103D01*
X3751015Y-5974103D02*
X3741491Y-5993150D01*
X3741491Y-5993150D02*
X3731968Y-6002674D01*
X3731968Y-6002674D02*
X3712920Y-6012198D01*
X3712920Y-6012198D02*
X3674825Y-6012198D01*
X3674825Y-6012198D02*
X3655777Y-6021722D01*
X3655777Y-6021722D02*
X3646253Y-6031246D01*
X3646253Y-6031246D02*
X3636729Y-6050293D01*
X3636729Y-6050293D02*
X3636729Y-6088388D01*
X3636729Y-6088388D02*
X3646253Y-6107436D01*
X3646253Y-6107436D02*
X3655777Y-6116960D01*
X3655777Y-6116960D02*
X3674825Y-6126484D01*
X3674825Y-6126484D02*
X3712920Y-6126484D01*
X3712920Y-6126484D02*
X3731968Y-6116960D01*
X3731968Y-6116960D02*
X3741491Y-6107436D01*
X3741491Y-6107436D02*
X3751015Y-6088388D01*
X3751015Y-6088388D02*
X3751015Y-6050293D01*
X3751015Y-6050293D02*
X3741491Y-6031246D01*
X3741491Y-6031246D02*
X3731968Y-6021722D01*
X3731968Y-6021722D02*
X3712920Y-6012198D01*
X3989110Y-6126484D02*
X3989110Y-5926484D01*
X4074825Y-6126484D02*
X4074825Y-6021722D01*
X4074825Y-6021722D02*
X4065301Y-6002674D01*
X4065301Y-6002674D02*
X4046253Y-5993150D01*
X4046253Y-5993150D02*
X4017682Y-5993150D01*
X4017682Y-5993150D02*
X3998634Y-6002674D01*
X3998634Y-6002674D02*
X3989110Y-6012198D01*
X4198634Y-6126484D02*
X4179587Y-6116960D01*
X4179587Y-6116960D02*
X4170063Y-6107436D01*
X4170063Y-6107436D02*
X4160539Y-6088388D01*
X4160539Y-6088388D02*
X4160539Y-6031246D01*
X4160539Y-6031246D02*
X4170063Y-6012198D01*
X4170063Y-6012198D02*
X4179587Y-6002674D01*
X4179587Y-6002674D02*
X4198634Y-5993150D01*
X4198634Y-5993150D02*
X4227206Y-5993150D01*
X4227206Y-5993150D02*
X4246253Y-6002674D01*
X4246253Y-6002674D02*
X4255777Y-6012198D01*
X4255777Y-6012198D02*
X4265301Y-6031246D01*
X4265301Y-6031246D02*
X4265301Y-6088388D01*
X4265301Y-6088388D02*
X4255777Y-6107436D01*
X4255777Y-6107436D02*
X4246253Y-6116960D01*
X4246253Y-6116960D02*
X4227206Y-6126484D01*
X4227206Y-6126484D02*
X4198634Y-6126484D01*
X4379587Y-6126484D02*
X4360539Y-6116960D01*
X4360539Y-6116960D02*
X4351015Y-6097912D01*
X4351015Y-6097912D02*
X4351015Y-5926484D01*
X4531968Y-6116960D02*
X4512920Y-6126484D01*
X4512920Y-6126484D02*
X4474825Y-6126484D01*
X4474825Y-6126484D02*
X4455777Y-6116960D01*
X4455777Y-6116960D02*
X4446253Y-6097912D01*
X4446253Y-6097912D02*
X4446253Y-6021722D01*
X4446253Y-6021722D02*
X4455777Y-6002674D01*
X4455777Y-6002674D02*
X4474825Y-5993150D01*
X4474825Y-5993150D02*
X4512920Y-5993150D01*
X4512920Y-5993150D02*
X4531968Y-6002674D01*
X4531968Y-6002674D02*
X4541492Y-6021722D01*
X4541492Y-6021722D02*
X4541492Y-6040769D01*
X4541492Y-6040769D02*
X4446253Y-6059817D01*
X4617682Y-6116960D02*
X4636730Y-6126484D01*
X4636730Y-6126484D02*
X4674825Y-6126484D01*
X4674825Y-6126484D02*
X4693873Y-6116960D01*
X4693873Y-6116960D02*
X4703396Y-6097912D01*
X4703396Y-6097912D02*
X4703396Y-6088388D01*
X4703396Y-6088388D02*
X4693873Y-6069341D01*
X4693873Y-6069341D02*
X4674825Y-6059817D01*
X4674825Y-6059817D02*
X4646253Y-6059817D01*
X4646253Y-6059817D02*
X4627206Y-6050293D01*
X4627206Y-6050293D02*
X4617682Y-6031246D01*
X4617682Y-6031246D02*
X4617682Y-6021722D01*
X4617682Y-6021722D02*
X4627206Y-6002674D01*
X4627206Y-6002674D02*
X4646253Y-5993150D01*
X4646253Y-5993150D02*
X4674825Y-5993150D01*
X4674825Y-5993150D02*
X4693873Y-6002674D01*
X4770063Y-6202674D02*
X4779587Y-6193150D01*
X4779587Y-6193150D02*
X4798634Y-6164579D01*
X4798634Y-6164579D02*
X4808158Y-6145531D01*
X4808158Y-6145531D02*
X4817682Y-6116960D01*
X4817682Y-6116960D02*
X4827206Y-6069341D01*
X4827206Y-6069341D02*
X4827206Y-6031246D01*
X4827206Y-6031246D02*
X4817682Y-5983627D01*
X4817682Y-5983627D02*
X4808158Y-5955055D01*
X4808158Y-5955055D02*
X4798634Y-5936008D01*
X4798634Y-5936008D02*
X4779587Y-5907436D01*
X4779587Y-5907436D02*
X4770063Y-5897912D01*
X5131968Y-6202674D02*
X5122444Y-6193150D01*
X5122444Y-6193150D02*
X5103396Y-6164579D01*
X5103396Y-6164579D02*
X5093873Y-6145531D01*
X5093873Y-6145531D02*
X5084349Y-6116960D01*
X5084349Y-6116960D02*
X5074825Y-6069341D01*
X5074825Y-6069341D02*
X5074825Y-6031246D01*
X5074825Y-6031246D02*
X5084349Y-5983627D01*
X5084349Y-5983627D02*
X5093873Y-5955055D01*
X5093873Y-5955055D02*
X5103396Y-5936008D01*
X5103396Y-5936008D02*
X5122444Y-5907436D01*
X5122444Y-5907436D02*
X5131968Y-5897912D01*
X5208158Y-5993150D02*
X5208158Y-6126484D01*
X5208158Y-6012198D02*
X5217682Y-6002674D01*
X5217682Y-6002674D02*
X5236730Y-5993150D01*
X5236730Y-5993150D02*
X5265301Y-5993150D01*
X5265301Y-5993150D02*
X5284349Y-6002674D01*
X5284349Y-6002674D02*
X5293873Y-6021722D01*
X5293873Y-6021722D02*
X5293873Y-6126484D01*
X5417682Y-6126484D02*
X5398634Y-6116960D01*
X5398634Y-6116960D02*
X5389111Y-6107436D01*
X5389111Y-6107436D02*
X5379587Y-6088388D01*
X5379587Y-6088388D02*
X5379587Y-6031246D01*
X5379587Y-6031246D02*
X5389111Y-6012198D01*
X5389111Y-6012198D02*
X5398634Y-6002674D01*
X5398634Y-6002674D02*
X5417682Y-5993150D01*
X5417682Y-5993150D02*
X5446254Y-5993150D01*
X5446254Y-5993150D02*
X5465301Y-6002674D01*
X5465301Y-6002674D02*
X5474825Y-6012198D01*
X5474825Y-6012198D02*
X5484349Y-6031246D01*
X5484349Y-6031246D02*
X5484349Y-6088388D01*
X5484349Y-6088388D02*
X5474825Y-6107436D01*
X5474825Y-6107436D02*
X5465301Y-6116960D01*
X5465301Y-6116960D02*
X5446254Y-6126484D01*
X5446254Y-6126484D02*
X5417682Y-6126484D01*
X5541492Y-5993150D02*
X5617682Y-5993150D01*
X5570063Y-5926484D02*
X5570063Y-6097912D01*
X5570063Y-6097912D02*
X5579587Y-6116960D01*
X5579587Y-6116960D02*
X5598634Y-6126484D01*
X5598634Y-6126484D02*
X5617682Y-6126484D01*
X5836730Y-5993150D02*
X5836730Y-6193150D01*
X5836730Y-6002674D02*
X5855777Y-5993150D01*
X5855777Y-5993150D02*
X5893873Y-5993150D01*
X5893873Y-5993150D02*
X5912920Y-6002674D01*
X5912920Y-6002674D02*
X5922444Y-6012198D01*
X5922444Y-6012198D02*
X5931968Y-6031246D01*
X5931968Y-6031246D02*
X5931968Y-6088388D01*
X5931968Y-6088388D02*
X5922444Y-6107436D01*
X5922444Y-6107436D02*
X5912920Y-6116960D01*
X5912920Y-6116960D02*
X5893873Y-6126484D01*
X5893873Y-6126484D02*
X5855777Y-6126484D01*
X5855777Y-6126484D02*
X5836730Y-6116960D01*
X6046253Y-6126484D02*
X6027206Y-6116960D01*
X6027206Y-6116960D02*
X6017682Y-6097912D01*
X6017682Y-6097912D02*
X6017682Y-5926484D01*
X6208158Y-6126484D02*
X6208158Y-6021722D01*
X6208158Y-6021722D02*
X6198634Y-6002674D01*
X6198634Y-6002674D02*
X6179587Y-5993150D01*
X6179587Y-5993150D02*
X6141492Y-5993150D01*
X6141492Y-5993150D02*
X6122444Y-6002674D01*
X6208158Y-6116960D02*
X6189111Y-6126484D01*
X6189111Y-6126484D02*
X6141492Y-6126484D01*
X6141492Y-6126484D02*
X6122444Y-6116960D01*
X6122444Y-6116960D02*
X6112920Y-6097912D01*
X6112920Y-6097912D02*
X6112920Y-6078865D01*
X6112920Y-6078865D02*
X6122444Y-6059817D01*
X6122444Y-6059817D02*
X6141492Y-6050293D01*
X6141492Y-6050293D02*
X6189111Y-6050293D01*
X6189111Y-6050293D02*
X6208158Y-6040769D01*
X6274825Y-5993150D02*
X6351015Y-5993150D01*
X6303396Y-5926484D02*
X6303396Y-6097912D01*
X6303396Y-6097912D02*
X6312920Y-6116960D01*
X6312920Y-6116960D02*
X6331968Y-6126484D01*
X6331968Y-6126484D02*
X6351015Y-6126484D01*
X6493873Y-6116960D02*
X6474825Y-6126484D01*
X6474825Y-6126484D02*
X6436730Y-6126484D01*
X6436730Y-6126484D02*
X6417682Y-6116960D01*
X6417682Y-6116960D02*
X6408158Y-6097912D01*
X6408158Y-6097912D02*
X6408158Y-6021722D01*
X6408158Y-6021722D02*
X6417682Y-6002674D01*
X6417682Y-6002674D02*
X6436730Y-5993150D01*
X6436730Y-5993150D02*
X6474825Y-5993150D01*
X6474825Y-5993150D02*
X6493873Y-6002674D01*
X6493873Y-6002674D02*
X6503396Y-6021722D01*
X6503396Y-6021722D02*
X6503396Y-6040769D01*
X6503396Y-6040769D02*
X6408158Y-6059817D01*
X6674825Y-6126484D02*
X6674825Y-5926484D01*
X6674825Y-6116960D02*
X6655777Y-6126484D01*
X6655777Y-6126484D02*
X6617682Y-6126484D01*
X6617682Y-6126484D02*
X6598634Y-6116960D01*
X6598634Y-6116960D02*
X6589111Y-6107436D01*
X6589111Y-6107436D02*
X6579587Y-6088388D01*
X6579587Y-6088388D02*
X6579587Y-6031246D01*
X6579587Y-6031246D02*
X6589111Y-6012198D01*
X6589111Y-6012198D02*
X6598634Y-6002674D01*
X6598634Y-6002674D02*
X6617682Y-5993150D01*
X6617682Y-5993150D02*
X6655777Y-5993150D01*
X6655777Y-5993150D02*
X6674825Y-6002674D01*
X6751015Y-6202674D02*
X6760539Y-6193150D01*
X6760539Y-6193150D02*
X6779587Y-6164579D01*
X6779587Y-6164579D02*
X6789111Y-6145531D01*
X6789111Y-6145531D02*
X6798634Y-6116960D01*
X6798634Y-6116960D02*
X6808158Y-6069341D01*
X6808158Y-6069341D02*
X6808158Y-6031246D01*
X6808158Y-6031246D02*
X6798634Y-5983627D01*
X6798634Y-5983627D02*
X6789111Y-5955055D01*
X6789111Y-5955055D02*
X6779587Y-5936008D01*
X6779587Y-5936008D02*
X6760539Y-5907436D01*
X6760539Y-5907436D02*
X6751015Y-5897912D01*
X-205000Y-6255000D02*
X-5000Y-6455000D01*
X-5000Y-6255000D02*
X-205000Y-6455000D01*
X-34289Y-6425711D02*
X-34289Y-6284289D01*
X-175711Y-6284289D01*
X-175711Y-6425711D01*
X-34289Y-6425711D01*
X236729Y-6246484D02*
X360539Y-6246484D01*
X360539Y-6246484D02*
X293872Y-6322674D01*
X293872Y-6322674D02*
X322444Y-6322674D01*
X322444Y-6322674D02*
X341491Y-6332198D01*
X341491Y-6332198D02*
X351015Y-6341722D01*
X351015Y-6341722D02*
X360539Y-6360769D01*
X360539Y-6360769D02*
X360539Y-6408388D01*
X360539Y-6408388D02*
X351015Y-6427436D01*
X351015Y-6427436D02*
X341491Y-6436960D01*
X341491Y-6436960D02*
X322444Y-6446484D01*
X322444Y-6446484D02*
X265301Y-6446484D01*
X265301Y-6446484D02*
X246253Y-6436960D01*
X246253Y-6436960D02*
X236729Y-6427436D01*
X446253Y-6427436D02*
X455777Y-6436960D01*
X455777Y-6436960D02*
X446253Y-6446484D01*
X446253Y-6446484D02*
X436729Y-6436960D01*
X436729Y-6436960D02*
X446253Y-6427436D01*
X446253Y-6427436D02*
X446253Y-6446484D01*
X579586Y-6246484D02*
X598634Y-6246484D01*
X598634Y-6246484D02*
X617682Y-6256008D01*
X617682Y-6256008D02*
X627205Y-6265531D01*
X627205Y-6265531D02*
X636729Y-6284579D01*
X636729Y-6284579D02*
X646253Y-6322674D01*
X646253Y-6322674D02*
X646253Y-6370293D01*
X646253Y-6370293D02*
X636729Y-6408388D01*
X636729Y-6408388D02*
X627205Y-6427436D01*
X627205Y-6427436D02*
X617682Y-6436960D01*
X617682Y-6436960D02*
X598634Y-6446484D01*
X598634Y-6446484D02*
X579586Y-6446484D01*
X579586Y-6446484D02*
X560539Y-6436960D01*
X560539Y-6436960D02*
X551015Y-6427436D01*
X551015Y-6427436D02*
X541491Y-6408388D01*
X541491Y-6408388D02*
X531967Y-6370293D01*
X531967Y-6370293D02*
X531967Y-6322674D01*
X531967Y-6322674D02*
X541491Y-6284579D01*
X541491Y-6284579D02*
X551015Y-6265531D01*
X551015Y-6265531D02*
X560539Y-6256008D01*
X560539Y-6256008D02*
X579586Y-6246484D01*
X770062Y-6246484D02*
X789110Y-6246484D01*
X789110Y-6246484D02*
X808158Y-6256008D01*
X808158Y-6256008D02*
X817682Y-6265531D01*
X817682Y-6265531D02*
X827205Y-6284579D01*
X827205Y-6284579D02*
X836729Y-6322674D01*
X836729Y-6322674D02*
X836729Y-6370293D01*
X836729Y-6370293D02*
X827205Y-6408388D01*
X827205Y-6408388D02*
X817682Y-6427436D01*
X817682Y-6427436D02*
X808158Y-6436960D01*
X808158Y-6436960D02*
X789110Y-6446484D01*
X789110Y-6446484D02*
X770062Y-6446484D01*
X770062Y-6446484D02*
X751015Y-6436960D01*
X751015Y-6436960D02*
X741491Y-6427436D01*
X741491Y-6427436D02*
X731967Y-6408388D01*
X731967Y-6408388D02*
X722443Y-6370293D01*
X722443Y-6370293D02*
X722443Y-6322674D01*
X722443Y-6322674D02*
X731967Y-6284579D01*
X731967Y-6284579D02*
X741491Y-6265531D01*
X741491Y-6265531D02*
X751015Y-6256008D01*
X751015Y-6256008D02*
X770062Y-6246484D01*
X960539Y-6246484D02*
X979586Y-6246484D01*
X979586Y-6246484D02*
X998634Y-6256008D01*
X998634Y-6256008D02*
X1008158Y-6265531D01*
X1008158Y-6265531D02*
X1017682Y-6284579D01*
X1017682Y-6284579D02*
X1027205Y-6322674D01*
X1027205Y-6322674D02*
X1027205Y-6370293D01*
X1027205Y-6370293D02*
X1017682Y-6408388D01*
X1017682Y-6408388D02*
X1008158Y-6427436D01*
X1008158Y-6427436D02*
X998634Y-6436960D01*
X998634Y-6436960D02*
X979586Y-6446484D01*
X979586Y-6446484D02*
X960539Y-6446484D01*
X960539Y-6446484D02*
X941491Y-6436960D01*
X941491Y-6436960D02*
X931967Y-6427436D01*
X931967Y-6427436D02*
X922443Y-6408388D01*
X922443Y-6408388D02*
X912920Y-6370293D01*
X912920Y-6370293D02*
X912920Y-6322674D01*
X912920Y-6322674D02*
X922443Y-6284579D01*
X922443Y-6284579D02*
X931967Y-6265531D01*
X931967Y-6265531D02*
X941491Y-6256008D01*
X941491Y-6256008D02*
X960539Y-6246484D01*
X1112920Y-6446484D02*
X1112920Y-6313150D01*
X1112920Y-6332198D02*
X1122444Y-6322674D01*
X1122444Y-6322674D02*
X1141491Y-6313150D01*
X1141491Y-6313150D02*
X1170063Y-6313150D01*
X1170063Y-6313150D02*
X1189110Y-6322674D01*
X1189110Y-6322674D02*
X1198634Y-6341722D01*
X1198634Y-6341722D02*
X1198634Y-6446484D01*
X1198634Y-6341722D02*
X1208158Y-6322674D01*
X1208158Y-6322674D02*
X1227205Y-6313150D01*
X1227205Y-6313150D02*
X1255777Y-6313150D01*
X1255777Y-6313150D02*
X1274825Y-6322674D01*
X1274825Y-6322674D02*
X1284348Y-6341722D01*
X1284348Y-6341722D02*
X1284348Y-6446484D01*
X1379586Y-6446484D02*
X1379586Y-6313150D01*
X1379586Y-6332198D02*
X1389110Y-6322674D01*
X1389110Y-6322674D02*
X1408158Y-6313150D01*
X1408158Y-6313150D02*
X1436729Y-6313150D01*
X1436729Y-6313150D02*
X1455777Y-6322674D01*
X1455777Y-6322674D02*
X1465301Y-6341722D01*
X1465301Y-6341722D02*
X1465301Y-6446484D01*
X1465301Y-6341722D02*
X1474824Y-6322674D01*
X1474824Y-6322674D02*
X1493872Y-6313150D01*
X1493872Y-6313150D02*
X1522443Y-6313150D01*
X1522443Y-6313150D02*
X1541491Y-6322674D01*
X1541491Y-6322674D02*
X1551015Y-6341722D01*
X1551015Y-6341722D02*
X1551015Y-6446484D01*
X1941491Y-6236960D02*
X1770063Y-6494103D01*
X2198634Y-6246484D02*
X2217682Y-6246484D01*
X2217682Y-6246484D02*
X2236729Y-6256008D01*
X2236729Y-6256008D02*
X2246253Y-6265531D01*
X2246253Y-6265531D02*
X2255777Y-6284579D01*
X2255777Y-6284579D02*
X2265301Y-6322674D01*
X2265301Y-6322674D02*
X2265301Y-6370293D01*
X2265301Y-6370293D02*
X2255777Y-6408388D01*
X2255777Y-6408388D02*
X2246253Y-6427436D01*
X2246253Y-6427436D02*
X2236729Y-6436960D01*
X2236729Y-6436960D02*
X2217682Y-6446484D01*
X2217682Y-6446484D02*
X2198634Y-6446484D01*
X2198634Y-6446484D02*
X2179587Y-6436960D01*
X2179587Y-6436960D02*
X2170063Y-6427436D01*
X2170063Y-6427436D02*
X2160539Y-6408388D01*
X2160539Y-6408388D02*
X2151015Y-6370293D01*
X2151015Y-6370293D02*
X2151015Y-6322674D01*
X2151015Y-6322674D02*
X2160539Y-6284579D01*
X2160539Y-6284579D02*
X2170063Y-6265531D01*
X2170063Y-6265531D02*
X2179587Y-6256008D01*
X2179587Y-6256008D02*
X2198634Y-6246484D01*
X2351015Y-6427436D02*
X2360539Y-6436960D01*
X2360539Y-6436960D02*
X2351015Y-6446484D01*
X2351015Y-6446484D02*
X2341491Y-6436960D01*
X2341491Y-6436960D02*
X2351015Y-6427436D01*
X2351015Y-6427436D02*
X2351015Y-6446484D01*
X2551015Y-6446484D02*
X2436729Y-6446484D01*
X2493872Y-6446484D02*
X2493872Y-6246484D01*
X2493872Y-6246484D02*
X2474825Y-6275055D01*
X2474825Y-6275055D02*
X2455777Y-6294103D01*
X2455777Y-6294103D02*
X2436729Y-6303627D01*
X2741491Y-6446484D02*
X2627206Y-6446484D01*
X2684348Y-6446484D02*
X2684348Y-6246484D01*
X2684348Y-6246484D02*
X2665301Y-6275055D01*
X2665301Y-6275055D02*
X2646253Y-6294103D01*
X2646253Y-6294103D02*
X2627206Y-6303627D01*
X2855777Y-6332198D02*
X2836729Y-6322674D01*
X2836729Y-6322674D02*
X2827206Y-6313150D01*
X2827206Y-6313150D02*
X2817682Y-6294103D01*
X2817682Y-6294103D02*
X2817682Y-6284579D01*
X2817682Y-6284579D02*
X2827206Y-6265531D01*
X2827206Y-6265531D02*
X2836729Y-6256008D01*
X2836729Y-6256008D02*
X2855777Y-6246484D01*
X2855777Y-6246484D02*
X2893872Y-6246484D01*
X2893872Y-6246484D02*
X2912920Y-6256008D01*
X2912920Y-6256008D02*
X2922444Y-6265531D01*
X2922444Y-6265531D02*
X2931967Y-6284579D01*
X2931967Y-6284579D02*
X2931967Y-6294103D01*
X2931967Y-6294103D02*
X2922444Y-6313150D01*
X2922444Y-6313150D02*
X2912920Y-6322674D01*
X2912920Y-6322674D02*
X2893872Y-6332198D01*
X2893872Y-6332198D02*
X2855777Y-6332198D01*
X2855777Y-6332198D02*
X2836729Y-6341722D01*
X2836729Y-6341722D02*
X2827206Y-6351246D01*
X2827206Y-6351246D02*
X2817682Y-6370293D01*
X2817682Y-6370293D02*
X2817682Y-6408388D01*
X2817682Y-6408388D02*
X2827206Y-6427436D01*
X2827206Y-6427436D02*
X2836729Y-6436960D01*
X2836729Y-6436960D02*
X2855777Y-6446484D01*
X2855777Y-6446484D02*
X2893872Y-6446484D01*
X2893872Y-6446484D02*
X2912920Y-6436960D01*
X2912920Y-6436960D02*
X2922444Y-6427436D01*
X2922444Y-6427436D02*
X2931967Y-6408388D01*
X2931967Y-6408388D02*
X2931967Y-6370293D01*
X2931967Y-6370293D02*
X2922444Y-6351246D01*
X2922444Y-6351246D02*
X2912920Y-6341722D01*
X2912920Y-6341722D02*
X2893872Y-6332198D01*
X3122444Y-6446484D02*
X3008158Y-6446484D01*
X3065301Y-6446484D02*
X3065301Y-6246484D01*
X3065301Y-6246484D02*
X3046253Y-6275055D01*
X3046253Y-6275055D02*
X3027206Y-6294103D01*
X3027206Y-6294103D02*
X3008158Y-6303627D01*
X3198634Y-6246484D02*
X3198634Y-6284579D01*
X3274825Y-6246484D02*
X3274825Y-6284579D01*
X3570063Y-6522674D02*
X3560539Y-6513150D01*
X3560539Y-6513150D02*
X3541491Y-6484579D01*
X3541491Y-6484579D02*
X3531968Y-6465531D01*
X3531968Y-6465531D02*
X3522444Y-6436960D01*
X3522444Y-6436960D02*
X3512920Y-6389341D01*
X3512920Y-6389341D02*
X3512920Y-6351246D01*
X3512920Y-6351246D02*
X3522444Y-6303627D01*
X3522444Y-6303627D02*
X3531968Y-6275055D01*
X3531968Y-6275055D02*
X3541491Y-6256008D01*
X3541491Y-6256008D02*
X3560539Y-6227436D01*
X3560539Y-6227436D02*
X3570063Y-6217912D01*
X3731968Y-6313150D02*
X3731968Y-6446484D01*
X3684348Y-6236960D02*
X3636729Y-6379817D01*
X3636729Y-6379817D02*
X3760539Y-6379817D01*
X3989110Y-6446484D02*
X3989110Y-6246484D01*
X4074825Y-6446484D02*
X4074825Y-6341722D01*
X4074825Y-6341722D02*
X4065301Y-6322674D01*
X4065301Y-6322674D02*
X4046253Y-6313150D01*
X4046253Y-6313150D02*
X4017682Y-6313150D01*
X4017682Y-6313150D02*
X3998634Y-6322674D01*
X3998634Y-6322674D02*
X3989110Y-6332198D01*
X4198634Y-6446484D02*
X4179587Y-6436960D01*
X4179587Y-6436960D02*
X4170063Y-6427436D01*
X4170063Y-6427436D02*
X4160539Y-6408388D01*
X4160539Y-6408388D02*
X4160539Y-6351246D01*
X4160539Y-6351246D02*
X4170063Y-6332198D01*
X4170063Y-6332198D02*
X4179587Y-6322674D01*
X4179587Y-6322674D02*
X4198634Y-6313150D01*
X4198634Y-6313150D02*
X4227206Y-6313150D01*
X4227206Y-6313150D02*
X4246253Y-6322674D01*
X4246253Y-6322674D02*
X4255777Y-6332198D01*
X4255777Y-6332198D02*
X4265301Y-6351246D01*
X4265301Y-6351246D02*
X4265301Y-6408388D01*
X4265301Y-6408388D02*
X4255777Y-6427436D01*
X4255777Y-6427436D02*
X4246253Y-6436960D01*
X4246253Y-6436960D02*
X4227206Y-6446484D01*
X4227206Y-6446484D02*
X4198634Y-6446484D01*
X4379587Y-6446484D02*
X4360539Y-6436960D01*
X4360539Y-6436960D02*
X4351015Y-6417912D01*
X4351015Y-6417912D02*
X4351015Y-6246484D01*
X4531968Y-6436960D02*
X4512920Y-6446484D01*
X4512920Y-6446484D02*
X4474825Y-6446484D01*
X4474825Y-6446484D02*
X4455777Y-6436960D01*
X4455777Y-6436960D02*
X4446253Y-6417912D01*
X4446253Y-6417912D02*
X4446253Y-6341722D01*
X4446253Y-6341722D02*
X4455777Y-6322674D01*
X4455777Y-6322674D02*
X4474825Y-6313150D01*
X4474825Y-6313150D02*
X4512920Y-6313150D01*
X4512920Y-6313150D02*
X4531968Y-6322674D01*
X4531968Y-6322674D02*
X4541492Y-6341722D01*
X4541492Y-6341722D02*
X4541492Y-6360769D01*
X4541492Y-6360769D02*
X4446253Y-6379817D01*
X4617682Y-6436960D02*
X4636730Y-6446484D01*
X4636730Y-6446484D02*
X4674825Y-6446484D01*
X4674825Y-6446484D02*
X4693873Y-6436960D01*
X4693873Y-6436960D02*
X4703396Y-6417912D01*
X4703396Y-6417912D02*
X4703396Y-6408388D01*
X4703396Y-6408388D02*
X4693873Y-6389341D01*
X4693873Y-6389341D02*
X4674825Y-6379817D01*
X4674825Y-6379817D02*
X4646253Y-6379817D01*
X4646253Y-6379817D02*
X4627206Y-6370293D01*
X4627206Y-6370293D02*
X4617682Y-6351246D01*
X4617682Y-6351246D02*
X4617682Y-6341722D01*
X4617682Y-6341722D02*
X4627206Y-6322674D01*
X4627206Y-6322674D02*
X4646253Y-6313150D01*
X4646253Y-6313150D02*
X4674825Y-6313150D01*
X4674825Y-6313150D02*
X4693873Y-6322674D01*
X4770063Y-6522674D02*
X4779587Y-6513150D01*
X4779587Y-6513150D02*
X4798634Y-6484579D01*
X4798634Y-6484579D02*
X4808158Y-6465531D01*
X4808158Y-6465531D02*
X4817682Y-6436960D01*
X4817682Y-6436960D02*
X4827206Y-6389341D01*
X4827206Y-6389341D02*
X4827206Y-6351246D01*
X4827206Y-6351246D02*
X4817682Y-6303627D01*
X4817682Y-6303627D02*
X4808158Y-6275055D01*
X4808158Y-6275055D02*
X4798634Y-6256008D01*
X4798634Y-6256008D02*
X4779587Y-6227436D01*
X4779587Y-6227436D02*
X4770063Y-6217912D01*
X5131968Y-6522674D02*
X5122444Y-6513150D01*
X5122444Y-6513150D02*
X5103396Y-6484579D01*
X5103396Y-6484579D02*
X5093873Y-6465531D01*
X5093873Y-6465531D02*
X5084349Y-6436960D01*
X5084349Y-6436960D02*
X5074825Y-6389341D01*
X5074825Y-6389341D02*
X5074825Y-6351246D01*
X5074825Y-6351246D02*
X5084349Y-6303627D01*
X5084349Y-6303627D02*
X5093873Y-6275055D01*
X5093873Y-6275055D02*
X5103396Y-6256008D01*
X5103396Y-6256008D02*
X5122444Y-6227436D01*
X5122444Y-6227436D02*
X5131968Y-6217912D01*
X5208158Y-6313150D02*
X5208158Y-6446484D01*
X5208158Y-6332198D02*
X5217682Y-6322674D01*
X5217682Y-6322674D02*
X5236730Y-6313150D01*
X5236730Y-6313150D02*
X5265301Y-6313150D01*
X5265301Y-6313150D02*
X5284349Y-6322674D01*
X5284349Y-6322674D02*
X5293873Y-6341722D01*
X5293873Y-6341722D02*
X5293873Y-6446484D01*
X5417682Y-6446484D02*
X5398634Y-6436960D01*
X5398634Y-6436960D02*
X5389111Y-6427436D01*
X5389111Y-6427436D02*
X5379587Y-6408388D01*
X5379587Y-6408388D02*
X5379587Y-6351246D01*
X5379587Y-6351246D02*
X5389111Y-6332198D01*
X5389111Y-6332198D02*
X5398634Y-6322674D01*
X5398634Y-6322674D02*
X5417682Y-6313150D01*
X5417682Y-6313150D02*
X5446254Y-6313150D01*
X5446254Y-6313150D02*
X5465301Y-6322674D01*
X5465301Y-6322674D02*
X5474825Y-6332198D01*
X5474825Y-6332198D02*
X5484349Y-6351246D01*
X5484349Y-6351246D02*
X5484349Y-6408388D01*
X5484349Y-6408388D02*
X5474825Y-6427436D01*
X5474825Y-6427436D02*
X5465301Y-6436960D01*
X5465301Y-6436960D02*
X5446254Y-6446484D01*
X5446254Y-6446484D02*
X5417682Y-6446484D01*
X5541492Y-6313150D02*
X5617682Y-6313150D01*
X5570063Y-6246484D02*
X5570063Y-6417912D01*
X5570063Y-6417912D02*
X5579587Y-6436960D01*
X5579587Y-6436960D02*
X5598634Y-6446484D01*
X5598634Y-6446484D02*
X5617682Y-6446484D01*
X5836730Y-6313150D02*
X5836730Y-6513150D01*
X5836730Y-6322674D02*
X5855777Y-6313150D01*
X5855777Y-6313150D02*
X5893873Y-6313150D01*
X5893873Y-6313150D02*
X5912920Y-6322674D01*
X5912920Y-6322674D02*
X5922444Y-6332198D01*
X5922444Y-6332198D02*
X5931968Y-6351246D01*
X5931968Y-6351246D02*
X5931968Y-6408388D01*
X5931968Y-6408388D02*
X5922444Y-6427436D01*
X5922444Y-6427436D02*
X5912920Y-6436960D01*
X5912920Y-6436960D02*
X5893873Y-6446484D01*
X5893873Y-6446484D02*
X5855777Y-6446484D01*
X5855777Y-6446484D02*
X5836730Y-6436960D01*
X6046253Y-6446484D02*
X6027206Y-6436960D01*
X6027206Y-6436960D02*
X6017682Y-6417912D01*
X6017682Y-6417912D02*
X6017682Y-6246484D01*
X6208158Y-6446484D02*
X6208158Y-6341722D01*
X6208158Y-6341722D02*
X6198634Y-6322674D01*
X6198634Y-6322674D02*
X6179587Y-6313150D01*
X6179587Y-6313150D02*
X6141492Y-6313150D01*
X6141492Y-6313150D02*
X6122444Y-6322674D01*
X6208158Y-6436960D02*
X6189111Y-6446484D01*
X6189111Y-6446484D02*
X6141492Y-6446484D01*
X6141492Y-6446484D02*
X6122444Y-6436960D01*
X6122444Y-6436960D02*
X6112920Y-6417912D01*
X6112920Y-6417912D02*
X6112920Y-6398865D01*
X6112920Y-6398865D02*
X6122444Y-6379817D01*
X6122444Y-6379817D02*
X6141492Y-6370293D01*
X6141492Y-6370293D02*
X6189111Y-6370293D01*
X6189111Y-6370293D02*
X6208158Y-6360769D01*
X6274825Y-6313150D02*
X6351015Y-6313150D01*
X6303396Y-6246484D02*
X6303396Y-6417912D01*
X6303396Y-6417912D02*
X6312920Y-6436960D01*
X6312920Y-6436960D02*
X6331968Y-6446484D01*
X6331968Y-6446484D02*
X6351015Y-6446484D01*
X6493873Y-6436960D02*
X6474825Y-6446484D01*
X6474825Y-6446484D02*
X6436730Y-6446484D01*
X6436730Y-6446484D02*
X6417682Y-6436960D01*
X6417682Y-6436960D02*
X6408158Y-6417912D01*
X6408158Y-6417912D02*
X6408158Y-6341722D01*
X6408158Y-6341722D02*
X6417682Y-6322674D01*
X6417682Y-6322674D02*
X6436730Y-6313150D01*
X6436730Y-6313150D02*
X6474825Y-6313150D01*
X6474825Y-6313150D02*
X6493873Y-6322674D01*
X6493873Y-6322674D02*
X6503396Y-6341722D01*
X6503396Y-6341722D02*
X6503396Y-6360769D01*
X6503396Y-6360769D02*
X6408158Y-6379817D01*
X6674825Y-6446484D02*
X6674825Y-6246484D01*
X6674825Y-6436960D02*
X6655777Y-6446484D01*
X6655777Y-6446484D02*
X6617682Y-6446484D01*
X6617682Y-6446484D02*
X6598634Y-6436960D01*
X6598634Y-6436960D02*
X6589111Y-6427436D01*
X6589111Y-6427436D02*
X6579587Y-6408388D01*
X6579587Y-6408388D02*
X6579587Y-6351246D01*
X6579587Y-6351246D02*
X6589111Y-6332198D01*
X6589111Y-6332198D02*
X6598634Y-6322674D01*
X6598634Y-6322674D02*
X6617682Y-6313150D01*
X6617682Y-6313150D02*
X6655777Y-6313150D01*
X6655777Y-6313150D02*
X6674825Y-6322674D01*
X6751015Y-6522674D02*
X6760539Y-6513150D01*
X6760539Y-6513150D02*
X6779587Y-6484579D01*
X6779587Y-6484579D02*
X6789111Y-6465531D01*
X6789111Y-6465531D02*
X6798634Y-6436960D01*
X6798634Y-6436960D02*
X6808158Y-6389341D01*
X6808158Y-6389341D02*
X6808158Y-6351246D01*
X6808158Y-6351246D02*
X6798634Y-6303627D01*
X6798634Y-6303627D02*
X6789111Y-6275055D01*
X6789111Y-6275055D02*
X6779587Y-6256008D01*
X6779587Y-6256008D02*
X6760539Y-6227436D01*
X6760539Y-6227436D02*
X6751015Y-6217912D01*
M02*
