%TF.GenerationSoftware,KiCad,Pcbnew,9.0.6*%
%TF.CreationDate,2026-09-08T18:46:50-07:00*%
%TF.ProjectId,ghost-fader-narrow,67686f73-742d-4666-9164-65722d6e6172,rev?*%
%TF.SameCoordinates,Original*%
%TF.FileFunction,Soldermask,Bot*%
%TF.FilePolarity,Negative*%
%FSLAX46Y46*%
G04 Gerber Fmt 4.6, Leading zero omitted, Abs format (unit mm)*
G04 Created by KiCad (PCBNEW 9.0.6) date 2026-09-08 18:46:50*
%MOMM*%
%LPD*%
G01*
G04 APERTURE LIST*
G04 Aperture macros list*
%AMRoundRect*
0 Rectangle with rounded corners*
0 $1 Rounding radius*
0 $2 $3 $4 $5 $6 $7 $8 $9 X,Y pos of 4 corners*
0 Add a 4 corners polygon primitive as box body*
4,1,4,$2,$3,$4,$5,$6,$7,$8,$9,$2,$3,0*
0 Add four circle primitives for the rounded corners*
1,1,$1+$1,$2,$3*
1,1,$1+$1,$4,$5*
1,1,$1+$1,$6,$7*
1,1,$1+$1,$8,$9*
0 Add four rect primitives between the rounded corners*
20,1,$1+$1,$2,$3,$4,$5,0*
20,1,$1+$1,$4,$5,$6,$7,0*
20,1,$1+$1,$6,$7,$8,$9,0*
20,1,$1+$1,$8,$9,$2,$3,0*%
G04 Aperture macros list end*
%ADD10C,1.700000*%
%ADD11RoundRect,0.050000X-0.850000X-0.850000X0.850000X-0.850000X0.850000X0.850000X-0.850000X0.850000X0*%
%ADD12C,1.800000*%
%ADD13C,3.100000*%
%ADD14C,2.100000*%
%ADD15RoundRect,0.265625X-0.584375X-0.584375X0.584375X-0.584375X0.584375X0.584375X-0.584375X0.584375X0*%
%ADD16RoundRect,0.265625X-0.584375X0.584375X-0.584375X-0.584375X0.584375X-0.584375X0.584375X0.584375X0*%
%ADD17RoundRect,0.265625X0.584375X-0.584375X0.584375X0.584375X-0.584375X0.584375X-0.584375X-0.584375X0*%
%ADD18RoundRect,0.050000X-0.900000X-0.900000X0.900000X-0.900000X0.900000X0.900000X-0.900000X0.900000X0*%
%ADD19C,1.900000*%
G04 APERTURE END LIST*
D10*
%TO.C,R4*%
X52000000Y-2500000D03*
X62160000Y-2500000D03*
%TD*%
D11*
%TO.C,U9*%
X103880000Y-2490000D03*
D12*
X103880000Y-5030000D03*
X103880000Y-7570000D03*
X103880000Y-10110000D03*
X103880000Y-12650000D03*
X103880000Y-15190000D03*
X103880000Y-17730000D03*
X103880000Y-20270000D03*
X103880000Y-22810000D03*
X103880000Y-25350000D03*
X103880000Y-27890000D03*
X103880000Y-30430000D03*
X103880000Y-32970000D03*
X103880000Y-35510000D03*
X119120000Y-2490000D03*
X119120000Y-5030000D03*
X119120000Y-7570000D03*
X119120000Y-10110000D03*
X119120000Y-12650000D03*
X119120000Y-15190000D03*
X119120000Y-17730000D03*
X119120000Y-20270000D03*
X119120000Y-22810000D03*
X119120000Y-25350000D03*
X119120000Y-27890000D03*
X119120000Y-30430000D03*
X119120000Y-32970000D03*
X119120000Y-35510000D03*
%TD*%
D10*
%TO.C,C8*%
X181000000Y-28000000D03*
X181000000Y-33000000D03*
%TD*%
%TO.C,C24*%
X164000000Y-21000000D03*
X169000000Y-21000000D03*
%TD*%
%TO.C,R8*%
X52000000Y-9500000D03*
X62160000Y-9500000D03*
%TD*%
D13*
%TO.C,J4*%
X12350000Y-31660000D03*
D14*
X6000000Y-33790000D03*
X6000000Y-22360000D03*
D13*
X9150000Y-33790000D03*
X9150000Y-22360000D03*
X2800000Y-33790000D03*
X2800000Y-22360000D03*
X15500000Y-33790000D03*
X15500000Y-22360000D03*
%TD*%
D10*
%TO.C,C35*%
X38500000Y-20000000D03*
X43500000Y-20000000D03*
%TD*%
D15*
%TO.C,C4*%
X65000000Y-4500000D03*
D10*
X67500000Y-4500000D03*
%TD*%
%TO.C,C26*%
X72500000Y-16500000D03*
X77500000Y-16500000D03*
%TD*%
%TO.C,R2*%
X38500000Y-27500000D03*
X48660000Y-27500000D03*
%TD*%
%TO.C,R11*%
X38500000Y-6000000D03*
X48660000Y-6000000D03*
%TD*%
D16*
%TO.C,U4*%
X99500000Y-24500000D03*
D10*
X96960000Y-24500000D03*
X94420000Y-24500000D03*
X91880000Y-24500000D03*
X89340000Y-24500000D03*
X86800000Y-24500000D03*
X84260000Y-24500000D03*
X81720000Y-24500000D03*
X81720000Y-32120000D03*
X84260000Y-32120000D03*
X86800000Y-32120000D03*
X89340000Y-32120000D03*
X91880000Y-32120000D03*
X94420000Y-32120000D03*
X96960000Y-32120000D03*
X99500000Y-32120000D03*
%TD*%
%TO.C,R9*%
X52000000Y-26500000D03*
X62160000Y-26500000D03*
%TD*%
%TO.C,C1*%
X181000000Y-2500000D03*
X181000000Y-7500000D03*
%TD*%
%TO.C,C34*%
X46000000Y-16500000D03*
X51000000Y-16500000D03*
%TD*%
D13*
%TO.C,J3*%
X12350000Y-13660000D03*
D14*
X6000000Y-15790000D03*
X6000000Y-4360000D03*
D13*
X9150000Y-15790000D03*
X9150000Y-4360000D03*
X2800000Y-15790000D03*
X2800000Y-4360000D03*
X15500000Y-15790000D03*
X15500000Y-4360000D03*
%TD*%
D15*
%TO.C,C20*%
X31500000Y-33900000D03*
D10*
X34000000Y-33900000D03*
%TD*%
%TO.C,C33*%
X38500000Y-16500000D03*
X43500000Y-16500000D03*
%TD*%
D11*
%TO.C,PS1*%
X139000000Y-11500000D03*
D12*
X141540000Y-11500000D03*
X144080000Y-11500000D03*
X151700000Y-11500000D03*
X154240000Y-11500000D03*
X156780000Y-11500000D03*
%TD*%
D10*
%TO.C,R1*%
X131000000Y-16000000D03*
X131000000Y-26160000D03*
%TD*%
%TO.C,R15*%
X124000000Y-16000000D03*
X124000000Y-26160000D03*
%TD*%
D15*
%TO.C,U5*%
X54000000Y-14000000D03*
D10*
X54000000Y-16540000D03*
X54000000Y-19080000D03*
X54000000Y-21620000D03*
X61620000Y-21620000D03*
X61620000Y-19080000D03*
X61620000Y-16540000D03*
X61620000Y-14000000D03*
%TD*%
%TO.C,C21*%
X164000000Y-16000000D03*
X169000000Y-16000000D03*
%TD*%
D15*
%TO.C,C11*%
X139000000Y-21500000D03*
D10*
X141500000Y-21500000D03*
%TD*%
%TO.C,R16*%
X127500000Y-16000000D03*
X127500000Y-26160000D03*
%TD*%
%TO.C,C10*%
X26500000Y-11000000D03*
X26500000Y-16000000D03*
%TD*%
D15*
%TO.C,C3*%
X72000000Y-4500000D03*
D10*
X74500000Y-4500000D03*
%TD*%
%TO.C,C30*%
X90500000Y-18500000D03*
X95500000Y-18500000D03*
%TD*%
%TO.C,R3*%
X38500000Y-31000000D03*
X48660000Y-31000000D03*
%TD*%
D15*
%TO.C,C12*%
X146500000Y-21500000D03*
D10*
X149000000Y-21500000D03*
%TD*%
%TO.C,C28*%
X65000000Y-20000000D03*
X70000000Y-20000000D03*
%TD*%
D15*
%TO.C,C41*%
X131000000Y-32500000D03*
D10*
X133500000Y-32500000D03*
%TD*%
%TO.C,C25*%
X65000000Y-16500000D03*
X70000000Y-16500000D03*
%TD*%
%TO.C,L2*%
X157500000Y-19000000D03*
X157500000Y-29160000D03*
%TD*%
%TO.C,FB1*%
X139000000Y-3000000D03*
X149160000Y-3000000D03*
%TD*%
D15*
%TO.C,C42*%
X172500000Y-4500000D03*
D10*
X175000000Y-4500000D03*
%TD*%
D15*
%TO.C,C19*%
X31500000Y-21900000D03*
D10*
X34000000Y-21900000D03*
%TD*%
%TO.C,C15*%
X26500000Y-19500000D03*
X26500000Y-24500000D03*
%TD*%
D17*
%TO.C,U3*%
X80500000Y-12500000D03*
D10*
X83040000Y-12500000D03*
X85580000Y-12500000D03*
X88120000Y-12500000D03*
X90660000Y-12500000D03*
X93200000Y-12500000D03*
X95740000Y-12500000D03*
X98280000Y-12500000D03*
X98280000Y-4880000D03*
X95740000Y-4880000D03*
X93200000Y-4880000D03*
X90660000Y-4880000D03*
X88120000Y-4880000D03*
X85580000Y-4880000D03*
X83040000Y-4880000D03*
X80500000Y-4880000D03*
%TD*%
%TO.C,C16*%
X26500000Y-28000000D03*
X26500000Y-33000000D03*
%TD*%
D15*
%TO.C,C13*%
X146500000Y-29000000D03*
D10*
X149000000Y-29000000D03*
%TD*%
%TO.C,R5*%
X52000000Y-6000000D03*
X62160000Y-6000000D03*
%TD*%
%TO.C,L1*%
X153500000Y-19000000D03*
X153500000Y-29160000D03*
%TD*%
%TO.C,R6*%
X38500000Y-34500000D03*
X48660000Y-34500000D03*
%TD*%
D15*
%TO.C,C6*%
X72000000Y-11000000D03*
D10*
X74500000Y-11000000D03*
%TD*%
%TO.C,C22*%
X164000000Y-3500000D03*
X169000000Y-3500000D03*
%TD*%
D15*
%TO.C,SW1*%
X124500000Y-3500000D03*
D10*
X124500000Y-6040000D03*
X124500000Y-8580000D03*
X124500000Y-11120000D03*
X132120000Y-11120000D03*
X132120000Y-8580000D03*
X132120000Y-6040000D03*
X132120000Y-3500000D03*
%TD*%
D13*
%TO.C,J2*%
X194650000Y-24340000D03*
D14*
X201000000Y-22210000D03*
X201000000Y-33640000D03*
D13*
X197850000Y-22210000D03*
X197850000Y-33640000D03*
X204200000Y-22210000D03*
X204200000Y-33640000D03*
X191500000Y-22210000D03*
X191500000Y-33640000D03*
%TD*%
D10*
%TO.C,R13*%
X38500000Y-13000000D03*
X48660000Y-13000000D03*
%TD*%
%TO.C,C31*%
X38500000Y-23500000D03*
X43500000Y-23500000D03*
%TD*%
D15*
%TO.C,C17*%
X31500000Y-4100000D03*
D10*
X34000000Y-4100000D03*
%TD*%
%TO.C,C2*%
X181000000Y-11000000D03*
X181000000Y-16000000D03*
%TD*%
D15*
%TO.C,C14*%
X139000000Y-29000000D03*
D10*
X141500000Y-29000000D03*
%TD*%
%TO.C,R7*%
X52000000Y-30000000D03*
X62160000Y-30000000D03*
%TD*%
D13*
%TO.C,J1*%
X194650000Y-6340000D03*
D14*
X201000000Y-4210000D03*
X201000000Y-15640000D03*
D13*
X197850000Y-4210000D03*
X197850000Y-15640000D03*
X204200000Y-4210000D03*
X204200000Y-15640000D03*
X191500000Y-4210000D03*
X191500000Y-15640000D03*
%TD*%
D10*
%TO.C,C7*%
X181000000Y-19500000D03*
X181000000Y-24500000D03*
%TD*%
%TO.C,C27*%
X81500000Y-18500000D03*
X86500000Y-18500000D03*
%TD*%
%TO.C,R14*%
X134500000Y-16000000D03*
X134500000Y-26160000D03*
%TD*%
D15*
%TO.C,C5*%
X65000000Y-11000000D03*
D10*
X67500000Y-11000000D03*
%TD*%
%TO.C,C36*%
X46000000Y-20000000D03*
X51000000Y-20000000D03*
%TD*%
%TO.C,R12*%
X38500000Y-9500000D03*
X48660000Y-9500000D03*
%TD*%
D15*
%TO.C,C40*%
X123500000Y-32500000D03*
D10*
X126000000Y-32500000D03*
%TD*%
D18*
%TO.C,LED1*%
X154000000Y-3200000D03*
D19*
X156540000Y-3200000D03*
%TD*%
D10*
%TO.C,C9*%
X26500000Y-2500000D03*
X26500000Y-7500000D03*
%TD*%
%TO.C,C29*%
X72500000Y-20000000D03*
X77500000Y-20000000D03*
%TD*%
D15*
%TO.C,C18*%
X31500000Y-16000000D03*
D10*
X34000000Y-16000000D03*
%TD*%
%TO.C,C32*%
X46000000Y-23500000D03*
X51000000Y-23500000D03*
%TD*%
%TO.C,C23*%
X164000000Y-34500000D03*
X169000000Y-34500000D03*
%TD*%
D15*
%TO.C,C43*%
X172500000Y-33500000D03*
D10*
X175000000Y-33500000D03*
%TD*%
%TO.C,R10*%
X38500000Y-2500000D03*
X48660000Y-2500000D03*
%TD*%
M02*
