%TF.GenerationSoftware,KiCad,Pcbnew,9.0.6*%
%TF.CreationDate,2026-09-10T14:53:47-07:00*%
%TF.ProjectId,ghost-fader-narrow,67686f73-742d-4666-9164-65722d6e6172,rev?*%
%TF.SameCoordinates,Original*%
%TF.FileFunction,Legend,Bot*%
%TF.FilePolarity,Positive*%
%FSLAX46Y46*%
G04 Gerber Fmt 4.6, Leading zero omitted, Abs format (unit mm)*
G04 Created by KiCad (PCBNEW 9.0.6) date 2026-09-10 14:53:47*
%MOMM*%
%LPD*%
G01*
G04 APERTURE LIST*
%ADD10C,0.200000*%
G04 APERTURE END LIST*
D10*
X122266666Y-22352219D02*
X122266666Y-23161742D01*
X122266666Y-23161742D02*
X122219047Y-23256980D01*
X122219047Y-23256980D02*
X122171428Y-23304600D01*
X122171428Y-23304600D02*
X122076190Y-23352219D01*
X122076190Y-23352219D02*
X121885714Y-23352219D01*
X121885714Y-23352219D02*
X121790476Y-23304600D01*
X121790476Y-23304600D02*
X121742857Y-23256980D01*
X121742857Y-23256980D02*
X121695238Y-23161742D01*
X121695238Y-23161742D02*
X121695238Y-22352219D01*
X121266666Y-23304600D02*
X121123809Y-23352219D01*
X121123809Y-23352219D02*
X120885714Y-23352219D01*
X120885714Y-23352219D02*
X120790476Y-23304600D01*
X120790476Y-23304600D02*
X120742857Y-23256980D01*
X120742857Y-23256980D02*
X120695238Y-23161742D01*
X120695238Y-23161742D02*
X120695238Y-23066504D01*
X120695238Y-23066504D02*
X120742857Y-22971266D01*
X120742857Y-22971266D02*
X120790476Y-22923647D01*
X120790476Y-22923647D02*
X120885714Y-22876028D01*
X120885714Y-22876028D02*
X121076190Y-22828409D01*
X121076190Y-22828409D02*
X121171428Y-22780790D01*
X121171428Y-22780790D02*
X121219047Y-22733171D01*
X121219047Y-22733171D02*
X121266666Y-22637933D01*
X121266666Y-22637933D02*
X121266666Y-22542695D01*
X121266666Y-22542695D02*
X121219047Y-22447457D01*
X121219047Y-22447457D02*
X121171428Y-22399838D01*
X121171428Y-22399838D02*
X121076190Y-22352219D01*
X121076190Y-22352219D02*
X120838095Y-22352219D01*
X120838095Y-22352219D02*
X120695238Y-22399838D01*
X119933333Y-22828409D02*
X119790476Y-22876028D01*
X119790476Y-22876028D02*
X119742857Y-22923647D01*
X119742857Y-22923647D02*
X119695238Y-23018885D01*
X119695238Y-23018885D02*
X119695238Y-23161742D01*
X119695238Y-23161742D02*
X119742857Y-23256980D01*
X119742857Y-23256980D02*
X119790476Y-23304600D01*
X119790476Y-23304600D02*
X119885714Y-23352219D01*
X119885714Y-23352219D02*
X120266666Y-23352219D01*
X120266666Y-23352219D02*
X120266666Y-22352219D01*
X120266666Y-22352219D02*
X119933333Y-22352219D01*
X119933333Y-22352219D02*
X119838095Y-22399838D01*
X119838095Y-22399838D02*
X119790476Y-22447457D01*
X119790476Y-22447457D02*
X119742857Y-22542695D01*
X119742857Y-22542695D02*
X119742857Y-22637933D01*
X119742857Y-22637933D02*
X119790476Y-22733171D01*
X119790476Y-22733171D02*
X119838095Y-22780790D01*
X119838095Y-22780790D02*
X119933333Y-22828409D01*
X119933333Y-22828409D02*
X120266666Y-22828409D01*
X117980952Y-22399838D02*
X118076190Y-22352219D01*
X118076190Y-22352219D02*
X118219047Y-22352219D01*
X118219047Y-22352219D02*
X118361904Y-22399838D01*
X118361904Y-22399838D02*
X118457142Y-22495076D01*
X118457142Y-22495076D02*
X118504761Y-22590314D01*
X118504761Y-22590314D02*
X118552380Y-22780790D01*
X118552380Y-22780790D02*
X118552380Y-22923647D01*
X118552380Y-22923647D02*
X118504761Y-23114123D01*
X118504761Y-23114123D02*
X118457142Y-23209361D01*
X118457142Y-23209361D02*
X118361904Y-23304600D01*
X118361904Y-23304600D02*
X118219047Y-23352219D01*
X118219047Y-23352219D02*
X118123809Y-23352219D01*
X118123809Y-23352219D02*
X117980952Y-23304600D01*
X117980952Y-23304600D02*
X117933333Y-23256980D01*
X117933333Y-23256980D02*
X117933333Y-22923647D01*
X117933333Y-22923647D02*
X118123809Y-22923647D01*
X117504761Y-23352219D02*
X117504761Y-22352219D01*
X117504761Y-22352219D02*
X116933333Y-23352219D01*
X116933333Y-23352219D02*
X116933333Y-22352219D01*
X116457142Y-23352219D02*
X116457142Y-22352219D01*
X116457142Y-22352219D02*
X116219047Y-22352219D01*
X116219047Y-22352219D02*
X116076190Y-22399838D01*
X116076190Y-22399838D02*
X115980952Y-22495076D01*
X115980952Y-22495076D02*
X115933333Y-22590314D01*
X115933333Y-22590314D02*
X115885714Y-22780790D01*
X115885714Y-22780790D02*
X115885714Y-22923647D01*
X115885714Y-22923647D02*
X115933333Y-23114123D01*
X115933333Y-23114123D02*
X115980952Y-23209361D01*
X115980952Y-23209361D02*
X116076190Y-23304600D01*
X116076190Y-23304600D02*
X116219047Y-23352219D01*
X116219047Y-23352219D02*
X116457142Y-23352219D01*
X196271428Y-13044742D02*
X196271428Y-11844742D01*
X195699999Y-13044742D02*
X195699999Y-11844742D01*
X195699999Y-11844742D02*
X195014285Y-13044742D01*
X195014285Y-13044742D02*
X195014285Y-11844742D01*
X192957142Y-13044742D02*
X193528570Y-13044742D01*
X193528570Y-13044742D02*
X193528570Y-11844742D01*
X14557143Y-24844742D02*
X14328571Y-24844742D01*
X14328571Y-24844742D02*
X14214286Y-24901885D01*
X14214286Y-24901885D02*
X14100000Y-25016171D01*
X14100000Y-25016171D02*
X14042857Y-25244742D01*
X14042857Y-25244742D02*
X14042857Y-25644742D01*
X14042857Y-25644742D02*
X14100000Y-25873314D01*
X14100000Y-25873314D02*
X14214286Y-25987600D01*
X14214286Y-25987600D02*
X14328571Y-26044742D01*
X14328571Y-26044742D02*
X14557143Y-26044742D01*
X14557143Y-26044742D02*
X14671429Y-25987600D01*
X14671429Y-25987600D02*
X14785714Y-25873314D01*
X14785714Y-25873314D02*
X14842857Y-25644742D01*
X14842857Y-25644742D02*
X14842857Y-25244742D01*
X14842857Y-25244742D02*
X14785714Y-25016171D01*
X14785714Y-25016171D02*
X14671429Y-24901885D01*
X14671429Y-24901885D02*
X14557143Y-24844742D01*
X13528571Y-24844742D02*
X13528571Y-25816171D01*
X13528571Y-25816171D02*
X13471428Y-25930457D01*
X13471428Y-25930457D02*
X13414286Y-25987600D01*
X13414286Y-25987600D02*
X13300000Y-26044742D01*
X13300000Y-26044742D02*
X13071428Y-26044742D01*
X13071428Y-26044742D02*
X12957143Y-25987600D01*
X12957143Y-25987600D02*
X12900000Y-25930457D01*
X12900000Y-25930457D02*
X12842857Y-25816171D01*
X12842857Y-25816171D02*
X12842857Y-24844742D01*
X12442857Y-24844742D02*
X11757143Y-24844742D01*
X12100000Y-26044742D02*
X12100000Y-24844742D01*
X9757142Y-26044742D02*
X10157142Y-25473314D01*
X10442856Y-26044742D02*
X10442856Y-24844742D01*
X10442856Y-24844742D02*
X9985713Y-24844742D01*
X9985713Y-24844742D02*
X9871428Y-24901885D01*
X9871428Y-24901885D02*
X9814285Y-24959028D01*
X9814285Y-24959028D02*
X9757142Y-25073314D01*
X9757142Y-25073314D02*
X9757142Y-25244742D01*
X9757142Y-25244742D02*
X9814285Y-25359028D01*
X9814285Y-25359028D02*
X9871428Y-25416171D01*
X9871428Y-25416171D02*
X9985713Y-25473314D01*
X9985713Y-25473314D02*
X10442856Y-25473314D01*
X133971428Y-35901885D02*
X134085714Y-35844742D01*
X134085714Y-35844742D02*
X134257142Y-35844742D01*
X134257142Y-35844742D02*
X134428571Y-35901885D01*
X134428571Y-35901885D02*
X134542856Y-36016171D01*
X134542856Y-36016171D02*
X134599999Y-36130457D01*
X134599999Y-36130457D02*
X134657142Y-36359028D01*
X134657142Y-36359028D02*
X134657142Y-36530457D01*
X134657142Y-36530457D02*
X134599999Y-36759028D01*
X134599999Y-36759028D02*
X134542856Y-36873314D01*
X134542856Y-36873314D02*
X134428571Y-36987600D01*
X134428571Y-36987600D02*
X134257142Y-37044742D01*
X134257142Y-37044742D02*
X134142856Y-37044742D01*
X134142856Y-37044742D02*
X133971428Y-36987600D01*
X133971428Y-36987600D02*
X133914285Y-36930457D01*
X133914285Y-36930457D02*
X133914285Y-36530457D01*
X133914285Y-36530457D02*
X134142856Y-36530457D01*
X133399999Y-37044742D02*
X133399999Y-35844742D01*
X133399999Y-36416171D02*
X132714285Y-36416171D01*
X132714285Y-37044742D02*
X132714285Y-35844742D01*
X131914285Y-35844742D02*
X131685713Y-35844742D01*
X131685713Y-35844742D02*
X131571428Y-35901885D01*
X131571428Y-35901885D02*
X131457142Y-36016171D01*
X131457142Y-36016171D02*
X131399999Y-36244742D01*
X131399999Y-36244742D02*
X131399999Y-36644742D01*
X131399999Y-36644742D02*
X131457142Y-36873314D01*
X131457142Y-36873314D02*
X131571428Y-36987600D01*
X131571428Y-36987600D02*
X131685713Y-37044742D01*
X131685713Y-37044742D02*
X131914285Y-37044742D01*
X131914285Y-37044742D02*
X132028571Y-36987600D01*
X132028571Y-36987600D02*
X132142856Y-36873314D01*
X132142856Y-36873314D02*
X132199999Y-36644742D01*
X132199999Y-36644742D02*
X132199999Y-36244742D01*
X132199999Y-36244742D02*
X132142856Y-36016171D01*
X132142856Y-36016171D02*
X132028571Y-35901885D01*
X132028571Y-35901885D02*
X131914285Y-35844742D01*
X130942856Y-36987600D02*
X130771428Y-37044742D01*
X130771428Y-37044742D02*
X130485713Y-37044742D01*
X130485713Y-37044742D02*
X130371428Y-36987600D01*
X130371428Y-36987600D02*
X130314285Y-36930457D01*
X130314285Y-36930457D02*
X130257142Y-36816171D01*
X130257142Y-36816171D02*
X130257142Y-36701885D01*
X130257142Y-36701885D02*
X130314285Y-36587600D01*
X130314285Y-36587600D02*
X130371428Y-36530457D01*
X130371428Y-36530457D02*
X130485713Y-36473314D01*
X130485713Y-36473314D02*
X130714285Y-36416171D01*
X130714285Y-36416171D02*
X130828570Y-36359028D01*
X130828570Y-36359028D02*
X130885713Y-36301885D01*
X130885713Y-36301885D02*
X130942856Y-36187600D01*
X130942856Y-36187600D02*
X130942856Y-36073314D01*
X130942856Y-36073314D02*
X130885713Y-35959028D01*
X130885713Y-35959028D02*
X130828570Y-35901885D01*
X130828570Y-35901885D02*
X130714285Y-35844742D01*
X130714285Y-35844742D02*
X130428570Y-35844742D01*
X130428570Y-35844742D02*
X130257142Y-35901885D01*
X129914285Y-35844742D02*
X129228571Y-35844742D01*
X129571428Y-37044742D02*
X129571428Y-35844742D01*
X127514284Y-36416171D02*
X127914284Y-36416171D01*
X127914284Y-37044742D02*
X127914284Y-35844742D01*
X127914284Y-35844742D02*
X127342856Y-35844742D01*
X126942856Y-36701885D02*
X126371428Y-36701885D01*
X127057142Y-37044742D02*
X126657142Y-35844742D01*
X126657142Y-35844742D02*
X126257142Y-37044742D01*
X125857142Y-37044742D02*
X125857142Y-35844742D01*
X125857142Y-35844742D02*
X125571428Y-35844742D01*
X125571428Y-35844742D02*
X125399999Y-35901885D01*
X125399999Y-35901885D02*
X125285714Y-36016171D01*
X125285714Y-36016171D02*
X125228571Y-36130457D01*
X125228571Y-36130457D02*
X125171428Y-36359028D01*
X125171428Y-36359028D02*
X125171428Y-36530457D01*
X125171428Y-36530457D02*
X125228571Y-36759028D01*
X125228571Y-36759028D02*
X125285714Y-36873314D01*
X125285714Y-36873314D02*
X125399999Y-36987600D01*
X125399999Y-36987600D02*
X125571428Y-37044742D01*
X125571428Y-37044742D02*
X125857142Y-37044742D01*
X124657142Y-36416171D02*
X124257142Y-36416171D01*
X124085714Y-37044742D02*
X124657142Y-37044742D01*
X124657142Y-37044742D02*
X124657142Y-35844742D01*
X124657142Y-35844742D02*
X124085714Y-35844742D01*
X122885714Y-37044742D02*
X123285714Y-36473314D01*
X123571428Y-37044742D02*
X123571428Y-35844742D01*
X123571428Y-35844742D02*
X123114285Y-35844742D01*
X123114285Y-35844742D02*
X123000000Y-35901885D01*
X123000000Y-35901885D02*
X122942857Y-35959028D01*
X122942857Y-35959028D02*
X122885714Y-36073314D01*
X122885714Y-36073314D02*
X122885714Y-36244742D01*
X122885714Y-36244742D02*
X122942857Y-36359028D01*
X122942857Y-36359028D02*
X123000000Y-36416171D01*
X123000000Y-36416171D02*
X123114285Y-36473314D01*
X123114285Y-36473314D02*
X123571428Y-36473314D01*
X121457142Y-37044742D02*
X121457142Y-36244742D01*
X121457142Y-36473314D02*
X121399999Y-36359028D01*
X121399999Y-36359028D02*
X121342857Y-36301885D01*
X121342857Y-36301885D02*
X121228571Y-36244742D01*
X121228571Y-36244742D02*
X121114285Y-36244742D01*
X120257142Y-36987600D02*
X120371428Y-37044742D01*
X120371428Y-37044742D02*
X120600000Y-37044742D01*
X120600000Y-37044742D02*
X120714285Y-36987600D01*
X120714285Y-36987600D02*
X120771428Y-36873314D01*
X120771428Y-36873314D02*
X120771428Y-36416171D01*
X120771428Y-36416171D02*
X120714285Y-36301885D01*
X120714285Y-36301885D02*
X120600000Y-36244742D01*
X120600000Y-36244742D02*
X120371428Y-36244742D01*
X120371428Y-36244742D02*
X120257142Y-36301885D01*
X120257142Y-36301885D02*
X120200000Y-36416171D01*
X120200000Y-36416171D02*
X120200000Y-36530457D01*
X120200000Y-36530457D02*
X120771428Y-36644742D01*
X119800000Y-36244742D02*
X119514286Y-37044742D01*
X119514286Y-37044742D02*
X119228571Y-36244742D01*
X117857142Y-37044742D02*
X117857142Y-35844742D01*
X117857142Y-35844742D02*
X117571428Y-35844742D01*
X117571428Y-35844742D02*
X117399999Y-35901885D01*
X117399999Y-35901885D02*
X117285714Y-36016171D01*
X117285714Y-36016171D02*
X117228571Y-36130457D01*
X117228571Y-36130457D02*
X117171428Y-36359028D01*
X117171428Y-36359028D02*
X117171428Y-36530457D01*
X117171428Y-36530457D02*
X117228571Y-36759028D01*
X117228571Y-36759028D02*
X117285714Y-36873314D01*
X117285714Y-36873314D02*
X117399999Y-36987600D01*
X117399999Y-36987600D02*
X117571428Y-37044742D01*
X117571428Y-37044742D02*
X117857142Y-37044742D01*
X114828570Y-36244742D02*
X114828570Y-37044742D01*
X114828570Y-36359028D02*
X114771427Y-36301885D01*
X114771427Y-36301885D02*
X114657142Y-36244742D01*
X114657142Y-36244742D02*
X114485713Y-36244742D01*
X114485713Y-36244742D02*
X114371427Y-36301885D01*
X114371427Y-36301885D02*
X114314285Y-36416171D01*
X114314285Y-36416171D02*
X114314285Y-37044742D01*
X113228571Y-37044742D02*
X113228571Y-36416171D01*
X113228571Y-36416171D02*
X113285713Y-36301885D01*
X113285713Y-36301885D02*
X113399999Y-36244742D01*
X113399999Y-36244742D02*
X113628571Y-36244742D01*
X113628571Y-36244742D02*
X113742856Y-36301885D01*
X113228571Y-36987600D02*
X113342856Y-37044742D01*
X113342856Y-37044742D02*
X113628571Y-37044742D01*
X113628571Y-37044742D02*
X113742856Y-36987600D01*
X113742856Y-36987600D02*
X113799999Y-36873314D01*
X113799999Y-36873314D02*
X113799999Y-36759028D01*
X113799999Y-36759028D02*
X113742856Y-36644742D01*
X113742856Y-36644742D02*
X113628571Y-36587600D01*
X113628571Y-36587600D02*
X113342856Y-36587600D01*
X113342856Y-36587600D02*
X113228571Y-36530457D01*
X112657142Y-37044742D02*
X112657142Y-36244742D01*
X112657142Y-36473314D02*
X112599999Y-36359028D01*
X112599999Y-36359028D02*
X112542857Y-36301885D01*
X112542857Y-36301885D02*
X112428571Y-36244742D01*
X112428571Y-36244742D02*
X112314285Y-36244742D01*
X111914285Y-37044742D02*
X111914285Y-36244742D01*
X111914285Y-36473314D02*
X111857142Y-36359028D01*
X111857142Y-36359028D02*
X111800000Y-36301885D01*
X111800000Y-36301885D02*
X111685714Y-36244742D01*
X111685714Y-36244742D02*
X111571428Y-36244742D01*
X111000000Y-37044742D02*
X111114285Y-36987600D01*
X111114285Y-36987600D02*
X111171428Y-36930457D01*
X111171428Y-36930457D02*
X111228571Y-36816171D01*
X111228571Y-36816171D02*
X111228571Y-36473314D01*
X111228571Y-36473314D02*
X111171428Y-36359028D01*
X111171428Y-36359028D02*
X111114285Y-36301885D01*
X111114285Y-36301885D02*
X111000000Y-36244742D01*
X111000000Y-36244742D02*
X110828571Y-36244742D01*
X110828571Y-36244742D02*
X110714285Y-36301885D01*
X110714285Y-36301885D02*
X110657143Y-36359028D01*
X110657143Y-36359028D02*
X110600000Y-36473314D01*
X110600000Y-36473314D02*
X110600000Y-36816171D01*
X110600000Y-36816171D02*
X110657143Y-36930457D01*
X110657143Y-36930457D02*
X110714285Y-36987600D01*
X110714285Y-36987600D02*
X110828571Y-37044742D01*
X110828571Y-37044742D02*
X111000000Y-37044742D01*
X110200000Y-36244742D02*
X109971429Y-37044742D01*
X109971429Y-37044742D02*
X109742857Y-36473314D01*
X109742857Y-36473314D02*
X109514286Y-37044742D01*
X109514286Y-37044742D02*
X109285714Y-36244742D01*
X14442857Y-6844742D02*
X14214285Y-6844742D01*
X14214285Y-6844742D02*
X14100000Y-6901885D01*
X14100000Y-6901885D02*
X13985714Y-7016171D01*
X13985714Y-7016171D02*
X13928571Y-7244742D01*
X13928571Y-7244742D02*
X13928571Y-7644742D01*
X13928571Y-7644742D02*
X13985714Y-7873314D01*
X13985714Y-7873314D02*
X14100000Y-7987600D01*
X14100000Y-7987600D02*
X14214285Y-8044742D01*
X14214285Y-8044742D02*
X14442857Y-8044742D01*
X14442857Y-8044742D02*
X14557143Y-7987600D01*
X14557143Y-7987600D02*
X14671428Y-7873314D01*
X14671428Y-7873314D02*
X14728571Y-7644742D01*
X14728571Y-7644742D02*
X14728571Y-7244742D01*
X14728571Y-7244742D02*
X14671428Y-7016171D01*
X14671428Y-7016171D02*
X14557143Y-6901885D01*
X14557143Y-6901885D02*
X14442857Y-6844742D01*
X13414285Y-6844742D02*
X13414285Y-7816171D01*
X13414285Y-7816171D02*
X13357142Y-7930457D01*
X13357142Y-7930457D02*
X13300000Y-7987600D01*
X13300000Y-7987600D02*
X13185714Y-8044742D01*
X13185714Y-8044742D02*
X12957142Y-8044742D01*
X12957142Y-8044742D02*
X12842857Y-7987600D01*
X12842857Y-7987600D02*
X12785714Y-7930457D01*
X12785714Y-7930457D02*
X12728571Y-7816171D01*
X12728571Y-7816171D02*
X12728571Y-6844742D01*
X12328571Y-6844742D02*
X11642857Y-6844742D01*
X11985714Y-8044742D02*
X11985714Y-6844742D01*
X9757142Y-8044742D02*
X10328570Y-8044742D01*
X10328570Y-8044742D02*
X10328570Y-6844742D01*
X120361904Y-1952219D02*
X120361904Y-2761742D01*
X120361904Y-2761742D02*
X120314285Y-2856980D01*
X120314285Y-2856980D02*
X120266666Y-2904600D01*
X120266666Y-2904600D02*
X120171428Y-2952219D01*
X120171428Y-2952219D02*
X119980952Y-2952219D01*
X119980952Y-2952219D02*
X119885714Y-2904600D01*
X119885714Y-2904600D02*
X119838095Y-2856980D01*
X119838095Y-2856980D02*
X119790476Y-2761742D01*
X119790476Y-2761742D02*
X119790476Y-1952219D01*
X119361904Y-2904600D02*
X119219047Y-2952219D01*
X119219047Y-2952219D02*
X118980952Y-2952219D01*
X118980952Y-2952219D02*
X118885714Y-2904600D01*
X118885714Y-2904600D02*
X118838095Y-2856980D01*
X118838095Y-2856980D02*
X118790476Y-2761742D01*
X118790476Y-2761742D02*
X118790476Y-2666504D01*
X118790476Y-2666504D02*
X118838095Y-2571266D01*
X118838095Y-2571266D02*
X118885714Y-2523647D01*
X118885714Y-2523647D02*
X118980952Y-2476028D01*
X118980952Y-2476028D02*
X119171428Y-2428409D01*
X119171428Y-2428409D02*
X119266666Y-2380790D01*
X119266666Y-2380790D02*
X119314285Y-2333171D01*
X119314285Y-2333171D02*
X119361904Y-2237933D01*
X119361904Y-2237933D02*
X119361904Y-2142695D01*
X119361904Y-2142695D02*
X119314285Y-2047457D01*
X119314285Y-2047457D02*
X119266666Y-1999838D01*
X119266666Y-1999838D02*
X119171428Y-1952219D01*
X119171428Y-1952219D02*
X118933333Y-1952219D01*
X118933333Y-1952219D02*
X118790476Y-1999838D01*
X118028571Y-2428409D02*
X117885714Y-2476028D01*
X117885714Y-2476028D02*
X117838095Y-2523647D01*
X117838095Y-2523647D02*
X117790476Y-2618885D01*
X117790476Y-2618885D02*
X117790476Y-2761742D01*
X117790476Y-2761742D02*
X117838095Y-2856980D01*
X117838095Y-2856980D02*
X117885714Y-2904600D01*
X117885714Y-2904600D02*
X117980952Y-2952219D01*
X117980952Y-2952219D02*
X118361904Y-2952219D01*
X118361904Y-2952219D02*
X118361904Y-1952219D01*
X118361904Y-1952219D02*
X118028571Y-1952219D01*
X118028571Y-1952219D02*
X117933333Y-1999838D01*
X117933333Y-1999838D02*
X117885714Y-2047457D01*
X117885714Y-2047457D02*
X117838095Y-2142695D01*
X117838095Y-2142695D02*
X117838095Y-2237933D01*
X117838095Y-2237933D02*
X117885714Y-2333171D01*
X117885714Y-2333171D02*
X117933333Y-2380790D01*
X117933333Y-2380790D02*
X118028571Y-2428409D01*
X118028571Y-2428409D02*
X118361904Y-2428409D01*
X153928570Y-35666504D02*
X153452380Y-35666504D01*
X154023808Y-35952219D02*
X153690475Y-34952219D01*
X153690475Y-34952219D02*
X153357142Y-35952219D01*
X153023808Y-34952219D02*
X153023808Y-35761742D01*
X153023808Y-35761742D02*
X152976189Y-35856980D01*
X152976189Y-35856980D02*
X152928570Y-35904600D01*
X152928570Y-35904600D02*
X152833332Y-35952219D01*
X152833332Y-35952219D02*
X152642856Y-35952219D01*
X152642856Y-35952219D02*
X152547618Y-35904600D01*
X152547618Y-35904600D02*
X152499999Y-35856980D01*
X152499999Y-35856980D02*
X152452380Y-35761742D01*
X152452380Y-35761742D02*
X152452380Y-34952219D01*
X151976189Y-35952219D02*
X151976189Y-34952219D01*
X151976189Y-34952219D02*
X151738094Y-34952219D01*
X151738094Y-34952219D02*
X151595237Y-34999838D01*
X151595237Y-34999838D02*
X151499999Y-35095076D01*
X151499999Y-35095076D02*
X151452380Y-35190314D01*
X151452380Y-35190314D02*
X151404761Y-35380790D01*
X151404761Y-35380790D02*
X151404761Y-35523647D01*
X151404761Y-35523647D02*
X151452380Y-35714123D01*
X151452380Y-35714123D02*
X151499999Y-35809361D01*
X151499999Y-35809361D02*
X151595237Y-35904600D01*
X151595237Y-35904600D02*
X151738094Y-35952219D01*
X151738094Y-35952219D02*
X151976189Y-35952219D01*
X150976189Y-35952219D02*
X150976189Y-34952219D01*
X150309523Y-34952219D02*
X150119047Y-34952219D01*
X150119047Y-34952219D02*
X150023809Y-34999838D01*
X150023809Y-34999838D02*
X149928571Y-35095076D01*
X149928571Y-35095076D02*
X149880952Y-35285552D01*
X149880952Y-35285552D02*
X149880952Y-35618885D01*
X149880952Y-35618885D02*
X149928571Y-35809361D01*
X149928571Y-35809361D02*
X150023809Y-35904600D01*
X150023809Y-35904600D02*
X150119047Y-35952219D01*
X150119047Y-35952219D02*
X150309523Y-35952219D01*
X150309523Y-35952219D02*
X150404761Y-35904600D01*
X150404761Y-35904600D02*
X150499999Y-35809361D01*
X150499999Y-35809361D02*
X150547618Y-35618885D01*
X150547618Y-35618885D02*
X150547618Y-35285552D01*
X150547618Y-35285552D02*
X150499999Y-35095076D01*
X150499999Y-35095076D02*
X150404761Y-34999838D01*
X150404761Y-34999838D02*
X150309523Y-34952219D01*
X148166666Y-34999838D02*
X148261904Y-34952219D01*
X148261904Y-34952219D02*
X148404761Y-34952219D01*
X148404761Y-34952219D02*
X148547618Y-34999838D01*
X148547618Y-34999838D02*
X148642856Y-35095076D01*
X148642856Y-35095076D02*
X148690475Y-35190314D01*
X148690475Y-35190314D02*
X148738094Y-35380790D01*
X148738094Y-35380790D02*
X148738094Y-35523647D01*
X148738094Y-35523647D02*
X148690475Y-35714123D01*
X148690475Y-35714123D02*
X148642856Y-35809361D01*
X148642856Y-35809361D02*
X148547618Y-35904600D01*
X148547618Y-35904600D02*
X148404761Y-35952219D01*
X148404761Y-35952219D02*
X148309523Y-35952219D01*
X148309523Y-35952219D02*
X148166666Y-35904600D01*
X148166666Y-35904600D02*
X148119047Y-35856980D01*
X148119047Y-35856980D02*
X148119047Y-35523647D01*
X148119047Y-35523647D02*
X148309523Y-35523647D01*
X147690475Y-35952219D02*
X147690475Y-34952219D01*
X147690475Y-34952219D02*
X147119047Y-35952219D01*
X147119047Y-35952219D02*
X147119047Y-34952219D01*
X146642856Y-35952219D02*
X146642856Y-34952219D01*
X146642856Y-34952219D02*
X146404761Y-34952219D01*
X146404761Y-34952219D02*
X146261904Y-34999838D01*
X146261904Y-34999838D02*
X146166666Y-35095076D01*
X146166666Y-35095076D02*
X146119047Y-35190314D01*
X146119047Y-35190314D02*
X146071428Y-35380790D01*
X146071428Y-35380790D02*
X146071428Y-35523647D01*
X146071428Y-35523647D02*
X146119047Y-35714123D01*
X146119047Y-35714123D02*
X146166666Y-35809361D01*
X146166666Y-35809361D02*
X146261904Y-35904600D01*
X146261904Y-35904600D02*
X146404761Y-35952219D01*
X146404761Y-35952219D02*
X146642856Y-35952219D01*
X196385714Y-31044742D02*
X196385714Y-29844742D01*
X195814285Y-31044742D02*
X195814285Y-29844742D01*
X195814285Y-29844742D02*
X195128571Y-31044742D01*
X195128571Y-31044742D02*
X195128571Y-29844742D01*
X192957142Y-31044742D02*
X193357142Y-30473314D01*
X193642856Y-31044742D02*
X193642856Y-29844742D01*
X193642856Y-29844742D02*
X193185713Y-29844742D01*
X193185713Y-29844742D02*
X193071428Y-29901885D01*
X193071428Y-29901885D02*
X193014285Y-29959028D01*
X193014285Y-29959028D02*
X192957142Y-30073314D01*
X192957142Y-30073314D02*
X192957142Y-30244742D01*
X192957142Y-30244742D02*
X193014285Y-30359028D01*
X193014285Y-30359028D02*
X193071428Y-30416171D01*
X193071428Y-30416171D02*
X193185713Y-30473314D01*
X193185713Y-30473314D02*
X193642856Y-30473314D01*
M02*
