%TF.GenerationSoftware,KiCad,Pcbnew,9.0.6*%
%TF.CreationDate,2026-09-08T18:46:50-07:00*%
%TF.ProjectId,ghost-fader-narrow,67686f73-742d-4666-9164-65722d6e6172,rev?*%
%TF.SameCoordinates,Original*%
%TF.FileFunction,Legend,Bot*%
%TF.FilePolarity,Positive*%
%FSLAX46Y46*%
G04 Gerber Fmt 4.6, Leading zero omitted, Abs format (unit mm)*
G04 Created by KiCad (PCBNEW 9.0.6) date 2026-09-08 18:46:50*
%MOMM*%
%LPD*%
G01*
G04 APERTURE LIST*
G04 Aperture macros list*
%AMRoundRect*
0 Rectangle with rounded corners*
0 $1 Rounding radius*
0 $2 $3 $4 $5 $6 $7 $8 $9 X,Y pos of 4 corners*
0 Add a 4 corners polygon primitive as box body*
4,1,4,$2,$3,$4,$5,$6,$7,$8,$9,$2,$3,0*
0 Add four circle primitives for the rounded corners*
1,1,$1+$1,$2,$3*
1,1,$1+$1,$4,$5*
1,1,$1+$1,$6,$7*
1,1,$1+$1,$8,$9*
0 Add four rect primitives between the rounded corners*
20,1,$1+$1,$2,$3,$4,$5,0*
20,1,$1+$1,$4,$5,$6,$7,0*
20,1,$1+$1,$6,$7,$8,$9,0*
20,1,$1+$1,$8,$9,$2,$3,0*%
G04 Aperture macros list end*
%ADD10C,0.200000*%
%ADD11C,1.700000*%
%ADD12RoundRect,0.050000X-0.850000X-0.850000X0.850000X-0.850000X0.850000X0.850000X-0.850000X0.850000X0*%
%ADD13C,1.800000*%
%ADD14C,3.100000*%
%ADD15C,2.100000*%
%ADD16RoundRect,0.265625X-0.584375X-0.584375X0.584375X-0.584375X0.584375X0.584375X-0.584375X0.584375X0*%
%ADD17RoundRect,0.265625X-0.584375X0.584375X-0.584375X-0.584375X0.584375X-0.584375X0.584375X0.584375X0*%
%ADD18RoundRect,0.265625X0.584375X-0.584375X0.584375X0.584375X-0.584375X0.584375X-0.584375X-0.584375X0*%
%ADD19RoundRect,0.050000X-0.900000X-0.900000X0.900000X-0.900000X0.900000X0.900000X-0.900000X0.900000X0*%
%ADD20C,1.900000*%
G04 APERTURE END LIST*
D10*
X112761904Y-1952219D02*
X112761904Y-2761742D01*
X112761904Y-2761742D02*
X112714285Y-2856980D01*
X112714285Y-2856980D02*
X112666666Y-2904600D01*
X112666666Y-2904600D02*
X112571428Y-2952219D01*
X112571428Y-2952219D02*
X112380952Y-2952219D01*
X112380952Y-2952219D02*
X112285714Y-2904600D01*
X112285714Y-2904600D02*
X112238095Y-2856980D01*
X112238095Y-2856980D02*
X112190476Y-2761742D01*
X112190476Y-2761742D02*
X112190476Y-1952219D01*
X111761904Y-2904600D02*
X111619047Y-2952219D01*
X111619047Y-2952219D02*
X111380952Y-2952219D01*
X111380952Y-2952219D02*
X111285714Y-2904600D01*
X111285714Y-2904600D02*
X111238095Y-2856980D01*
X111238095Y-2856980D02*
X111190476Y-2761742D01*
X111190476Y-2761742D02*
X111190476Y-2666504D01*
X111190476Y-2666504D02*
X111238095Y-2571266D01*
X111238095Y-2571266D02*
X111285714Y-2523647D01*
X111285714Y-2523647D02*
X111380952Y-2476028D01*
X111380952Y-2476028D02*
X111571428Y-2428409D01*
X111571428Y-2428409D02*
X111666666Y-2380790D01*
X111666666Y-2380790D02*
X111714285Y-2333171D01*
X111714285Y-2333171D02*
X111761904Y-2237933D01*
X111761904Y-2237933D02*
X111761904Y-2142695D01*
X111761904Y-2142695D02*
X111714285Y-2047457D01*
X111714285Y-2047457D02*
X111666666Y-1999838D01*
X111666666Y-1999838D02*
X111571428Y-1952219D01*
X111571428Y-1952219D02*
X111333333Y-1952219D01*
X111333333Y-1952219D02*
X111190476Y-1999838D01*
X110428571Y-2428409D02*
X110285714Y-2476028D01*
X110285714Y-2476028D02*
X110238095Y-2523647D01*
X110238095Y-2523647D02*
X110190476Y-2618885D01*
X110190476Y-2618885D02*
X110190476Y-2761742D01*
X110190476Y-2761742D02*
X110238095Y-2856980D01*
X110238095Y-2856980D02*
X110285714Y-2904600D01*
X110285714Y-2904600D02*
X110380952Y-2952219D01*
X110380952Y-2952219D02*
X110761904Y-2952219D01*
X110761904Y-2952219D02*
X110761904Y-1952219D01*
X110761904Y-1952219D02*
X110428571Y-1952219D01*
X110428571Y-1952219D02*
X110333333Y-1999838D01*
X110333333Y-1999838D02*
X110285714Y-2047457D01*
X110285714Y-2047457D02*
X110238095Y-2142695D01*
X110238095Y-2142695D02*
X110238095Y-2237933D01*
X110238095Y-2237933D02*
X110285714Y-2333171D01*
X110285714Y-2333171D02*
X110333333Y-2380790D01*
X110333333Y-2380790D02*
X110428571Y-2428409D01*
X110428571Y-2428409D02*
X110761904Y-2428409D01*
X196385714Y-31044742D02*
X196385714Y-29844742D01*
X195814285Y-31044742D02*
X195814285Y-29844742D01*
X195814285Y-29844742D02*
X195128571Y-31044742D01*
X195128571Y-31044742D02*
X195128571Y-29844742D01*
X192957142Y-31044742D02*
X193357142Y-30473314D01*
X193642856Y-31044742D02*
X193642856Y-29844742D01*
X193642856Y-29844742D02*
X193185713Y-29844742D01*
X193185713Y-29844742D02*
X193071428Y-29901885D01*
X193071428Y-29901885D02*
X193014285Y-29959028D01*
X193014285Y-29959028D02*
X192957142Y-30073314D01*
X192957142Y-30073314D02*
X192957142Y-30244742D01*
X192957142Y-30244742D02*
X193014285Y-30359028D01*
X193014285Y-30359028D02*
X193071428Y-30416171D01*
X193071428Y-30416171D02*
X193185713Y-30473314D01*
X193185713Y-30473314D02*
X193642856Y-30473314D01*
X196271428Y-13044742D02*
X196271428Y-11844742D01*
X195699999Y-13044742D02*
X195699999Y-11844742D01*
X195699999Y-11844742D02*
X195014285Y-13044742D01*
X195014285Y-13044742D02*
X195014285Y-11844742D01*
X192957142Y-13044742D02*
X193528570Y-13044742D01*
X193528570Y-13044742D02*
X193528570Y-11844742D01*
X14557143Y-24844742D02*
X14328571Y-24844742D01*
X14328571Y-24844742D02*
X14214286Y-24901885D01*
X14214286Y-24901885D02*
X14100000Y-25016171D01*
X14100000Y-25016171D02*
X14042857Y-25244742D01*
X14042857Y-25244742D02*
X14042857Y-25644742D01*
X14042857Y-25644742D02*
X14100000Y-25873314D01*
X14100000Y-25873314D02*
X14214286Y-25987600D01*
X14214286Y-25987600D02*
X14328571Y-26044742D01*
X14328571Y-26044742D02*
X14557143Y-26044742D01*
X14557143Y-26044742D02*
X14671429Y-25987600D01*
X14671429Y-25987600D02*
X14785714Y-25873314D01*
X14785714Y-25873314D02*
X14842857Y-25644742D01*
X14842857Y-25644742D02*
X14842857Y-25244742D01*
X14842857Y-25244742D02*
X14785714Y-25016171D01*
X14785714Y-25016171D02*
X14671429Y-24901885D01*
X14671429Y-24901885D02*
X14557143Y-24844742D01*
X13528571Y-24844742D02*
X13528571Y-25816171D01*
X13528571Y-25816171D02*
X13471428Y-25930457D01*
X13471428Y-25930457D02*
X13414286Y-25987600D01*
X13414286Y-25987600D02*
X13300000Y-26044742D01*
X13300000Y-26044742D02*
X13071428Y-26044742D01*
X13071428Y-26044742D02*
X12957143Y-25987600D01*
X12957143Y-25987600D02*
X12900000Y-25930457D01*
X12900000Y-25930457D02*
X12842857Y-25816171D01*
X12842857Y-25816171D02*
X12842857Y-24844742D01*
X12442857Y-24844742D02*
X11757143Y-24844742D01*
X12100000Y-26044742D02*
X12100000Y-24844742D01*
X9757142Y-26044742D02*
X10157142Y-25473314D01*
X10442856Y-26044742D02*
X10442856Y-24844742D01*
X10442856Y-24844742D02*
X9985713Y-24844742D01*
X9985713Y-24844742D02*
X9871428Y-24901885D01*
X9871428Y-24901885D02*
X9814285Y-24959028D01*
X9814285Y-24959028D02*
X9757142Y-25073314D01*
X9757142Y-25073314D02*
X9757142Y-25244742D01*
X9757142Y-25244742D02*
X9814285Y-25359028D01*
X9814285Y-25359028D02*
X9871428Y-25416171D01*
X9871428Y-25416171D02*
X9985713Y-25473314D01*
X9985713Y-25473314D02*
X10442856Y-25473314D01*
X14442857Y-6844742D02*
X14214285Y-6844742D01*
X14214285Y-6844742D02*
X14100000Y-6901885D01*
X14100000Y-6901885D02*
X13985714Y-7016171D01*
X13985714Y-7016171D02*
X13928571Y-7244742D01*
X13928571Y-7244742D02*
X13928571Y-7644742D01*
X13928571Y-7644742D02*
X13985714Y-7873314D01*
X13985714Y-7873314D02*
X14100000Y-7987600D01*
X14100000Y-7987600D02*
X14214285Y-8044742D01*
X14214285Y-8044742D02*
X14442857Y-8044742D01*
X14442857Y-8044742D02*
X14557143Y-7987600D01*
X14557143Y-7987600D02*
X14671428Y-7873314D01*
X14671428Y-7873314D02*
X14728571Y-7644742D01*
X14728571Y-7644742D02*
X14728571Y-7244742D01*
X14728571Y-7244742D02*
X14671428Y-7016171D01*
X14671428Y-7016171D02*
X14557143Y-6901885D01*
X14557143Y-6901885D02*
X14442857Y-6844742D01*
X13414285Y-6844742D02*
X13414285Y-7816171D01*
X13414285Y-7816171D02*
X13357142Y-7930457D01*
X13357142Y-7930457D02*
X13300000Y-7987600D01*
X13300000Y-7987600D02*
X13185714Y-8044742D01*
X13185714Y-8044742D02*
X12957142Y-8044742D01*
X12957142Y-8044742D02*
X12842857Y-7987600D01*
X12842857Y-7987600D02*
X12785714Y-7930457D01*
X12785714Y-7930457D02*
X12728571Y-7816171D01*
X12728571Y-7816171D02*
X12728571Y-6844742D01*
X12328571Y-6844742D02*
X11642857Y-6844742D01*
X11985714Y-8044742D02*
X11985714Y-6844742D01*
X9757142Y-8044742D02*
X10328570Y-8044742D01*
X10328570Y-8044742D02*
X10328570Y-6844742D01*
X110754957Y-7035715D02*
X110683528Y-6892858D01*
X110683528Y-6892858D02*
X110683528Y-6678572D01*
X110683528Y-6678572D02*
X110754957Y-6464286D01*
X110754957Y-6464286D02*
X110897814Y-6321429D01*
X110897814Y-6321429D02*
X111040671Y-6250000D01*
X111040671Y-6250000D02*
X111326385Y-6178572D01*
X111326385Y-6178572D02*
X111540671Y-6178572D01*
X111540671Y-6178572D02*
X111826385Y-6250000D01*
X111826385Y-6250000D02*
X111969242Y-6321429D01*
X111969242Y-6321429D02*
X112112100Y-6464286D01*
X112112100Y-6464286D02*
X112183528Y-6678572D01*
X112183528Y-6678572D02*
X112183528Y-6821429D01*
X112183528Y-6821429D02*
X112112100Y-7035715D01*
X112112100Y-7035715D02*
X112040671Y-7107143D01*
X112040671Y-7107143D02*
X111540671Y-7107143D01*
X111540671Y-7107143D02*
X111540671Y-6821429D01*
X112183528Y-7750000D02*
X110683528Y-7750000D01*
X111397814Y-7750000D02*
X111397814Y-8607143D01*
X112183528Y-8607143D02*
X110683528Y-8607143D01*
X110683528Y-9607144D02*
X110683528Y-9892858D01*
X110683528Y-9892858D02*
X110754957Y-10035715D01*
X110754957Y-10035715D02*
X110897814Y-10178572D01*
X110897814Y-10178572D02*
X111183528Y-10250001D01*
X111183528Y-10250001D02*
X111683528Y-10250001D01*
X111683528Y-10250001D02*
X111969242Y-10178572D01*
X111969242Y-10178572D02*
X112112100Y-10035715D01*
X112112100Y-10035715D02*
X112183528Y-9892858D01*
X112183528Y-9892858D02*
X112183528Y-9607144D01*
X112183528Y-9607144D02*
X112112100Y-9464287D01*
X112112100Y-9464287D02*
X111969242Y-9321429D01*
X111969242Y-9321429D02*
X111683528Y-9250001D01*
X111683528Y-9250001D02*
X111183528Y-9250001D01*
X111183528Y-9250001D02*
X110897814Y-9321429D01*
X110897814Y-9321429D02*
X110754957Y-9464287D01*
X110754957Y-9464287D02*
X110683528Y-9607144D01*
X112112100Y-10821430D02*
X112183528Y-11035716D01*
X112183528Y-11035716D02*
X112183528Y-11392858D01*
X112183528Y-11392858D02*
X112112100Y-11535716D01*
X112112100Y-11535716D02*
X112040671Y-11607144D01*
X112040671Y-11607144D02*
X111897814Y-11678573D01*
X111897814Y-11678573D02*
X111754957Y-11678573D01*
X111754957Y-11678573D02*
X111612100Y-11607144D01*
X111612100Y-11607144D02*
X111540671Y-11535716D01*
X111540671Y-11535716D02*
X111469242Y-11392858D01*
X111469242Y-11392858D02*
X111397814Y-11107144D01*
X111397814Y-11107144D02*
X111326385Y-10964287D01*
X111326385Y-10964287D02*
X111254957Y-10892858D01*
X111254957Y-10892858D02*
X111112100Y-10821430D01*
X111112100Y-10821430D02*
X110969242Y-10821430D01*
X110969242Y-10821430D02*
X110826385Y-10892858D01*
X110826385Y-10892858D02*
X110754957Y-10964287D01*
X110754957Y-10964287D02*
X110683528Y-11107144D01*
X110683528Y-11107144D02*
X110683528Y-11464287D01*
X110683528Y-11464287D02*
X110754957Y-11678573D01*
X110683528Y-12107144D02*
X110683528Y-12964287D01*
X112183528Y-12535715D02*
X110683528Y-12535715D01*
X111397814Y-15107143D02*
X111397814Y-14607143D01*
X112183528Y-14607143D02*
X110683528Y-14607143D01*
X110683528Y-14607143D02*
X110683528Y-15321429D01*
X111754957Y-15821429D02*
X111754957Y-16535715D01*
X112183528Y-15678572D02*
X110683528Y-16178572D01*
X110683528Y-16178572D02*
X112183528Y-16678572D01*
X112183528Y-17178571D02*
X110683528Y-17178571D01*
X110683528Y-17178571D02*
X110683528Y-17535714D01*
X110683528Y-17535714D02*
X110754957Y-17750000D01*
X110754957Y-17750000D02*
X110897814Y-17892857D01*
X110897814Y-17892857D02*
X111040671Y-17964286D01*
X111040671Y-17964286D02*
X111326385Y-18035714D01*
X111326385Y-18035714D02*
X111540671Y-18035714D01*
X111540671Y-18035714D02*
X111826385Y-17964286D01*
X111826385Y-17964286D02*
X111969242Y-17892857D01*
X111969242Y-17892857D02*
X112112100Y-17750000D01*
X112112100Y-17750000D02*
X112183528Y-17535714D01*
X112183528Y-17535714D02*
X112183528Y-17178571D01*
X111397814Y-18678571D02*
X111397814Y-19178571D01*
X112183528Y-19392857D02*
X112183528Y-18678571D01*
X112183528Y-18678571D02*
X110683528Y-18678571D01*
X110683528Y-18678571D02*
X110683528Y-19392857D01*
X112183528Y-20892857D02*
X111469242Y-20392857D01*
X112183528Y-20035714D02*
X110683528Y-20035714D01*
X110683528Y-20035714D02*
X110683528Y-20607143D01*
X110683528Y-20607143D02*
X110754957Y-20750000D01*
X110754957Y-20750000D02*
X110826385Y-20821429D01*
X110826385Y-20821429D02*
X110969242Y-20892857D01*
X110969242Y-20892857D02*
X111183528Y-20892857D01*
X111183528Y-20892857D02*
X111326385Y-20821429D01*
X111326385Y-20821429D02*
X111397814Y-20750000D01*
X111397814Y-20750000D02*
X111469242Y-20607143D01*
X111469242Y-20607143D02*
X111469242Y-20035714D01*
X112183528Y-22678571D02*
X111183528Y-22678571D01*
X111469242Y-22678571D02*
X111326385Y-22750000D01*
X111326385Y-22750000D02*
X111254957Y-22821429D01*
X111254957Y-22821429D02*
X111183528Y-22964286D01*
X111183528Y-22964286D02*
X111183528Y-23107143D01*
X112112100Y-24178571D02*
X112183528Y-24035714D01*
X112183528Y-24035714D02*
X112183528Y-23750000D01*
X112183528Y-23750000D02*
X112112100Y-23607142D01*
X112112100Y-23607142D02*
X111969242Y-23535714D01*
X111969242Y-23535714D02*
X111397814Y-23535714D01*
X111397814Y-23535714D02*
X111254957Y-23607142D01*
X111254957Y-23607142D02*
X111183528Y-23750000D01*
X111183528Y-23750000D02*
X111183528Y-24035714D01*
X111183528Y-24035714D02*
X111254957Y-24178571D01*
X111254957Y-24178571D02*
X111397814Y-24250000D01*
X111397814Y-24250000D02*
X111540671Y-24250000D01*
X111540671Y-24250000D02*
X111683528Y-23535714D01*
X111183528Y-24749999D02*
X112183528Y-25107142D01*
X112183528Y-25107142D02*
X111183528Y-25464285D01*
X111397814Y-27678570D02*
X111469242Y-27892856D01*
X111469242Y-27892856D02*
X111540671Y-27964285D01*
X111540671Y-27964285D02*
X111683528Y-28035713D01*
X111683528Y-28035713D02*
X111897814Y-28035713D01*
X111897814Y-28035713D02*
X112040671Y-27964285D01*
X112040671Y-27964285D02*
X112112100Y-27892856D01*
X112112100Y-27892856D02*
X112183528Y-27749999D01*
X112183528Y-27749999D02*
X112183528Y-27178570D01*
X112183528Y-27178570D02*
X110683528Y-27178570D01*
X110683528Y-27178570D02*
X110683528Y-27678570D01*
X110683528Y-27678570D02*
X110754957Y-27821428D01*
X110754957Y-27821428D02*
X110826385Y-27892856D01*
X110826385Y-27892856D02*
X110969242Y-27964285D01*
X110969242Y-27964285D02*
X111112100Y-27964285D01*
X111112100Y-27964285D02*
X111254957Y-27892856D01*
X111254957Y-27892856D02*
X111326385Y-27821428D01*
X111326385Y-27821428D02*
X111397814Y-27678570D01*
X111397814Y-27678570D02*
X111397814Y-27178570D01*
X111183528Y-30964284D02*
X112183528Y-30964284D01*
X111326385Y-30964284D02*
X111254957Y-31035713D01*
X111254957Y-31035713D02*
X111183528Y-31178570D01*
X111183528Y-31178570D02*
X111183528Y-31392856D01*
X111183528Y-31392856D02*
X111254957Y-31535713D01*
X111254957Y-31535713D02*
X111397814Y-31607142D01*
X111397814Y-31607142D02*
X112183528Y-31607142D01*
X112183528Y-32964285D02*
X111397814Y-32964285D01*
X111397814Y-32964285D02*
X111254957Y-32892856D01*
X111254957Y-32892856D02*
X111183528Y-32749999D01*
X111183528Y-32749999D02*
X111183528Y-32464285D01*
X111183528Y-32464285D02*
X111254957Y-32321427D01*
X112112100Y-32964285D02*
X112183528Y-32821427D01*
X112183528Y-32821427D02*
X112183528Y-32464285D01*
X112183528Y-32464285D02*
X112112100Y-32321427D01*
X112112100Y-32321427D02*
X111969242Y-32249999D01*
X111969242Y-32249999D02*
X111826385Y-32249999D01*
X111826385Y-32249999D02*
X111683528Y-32321427D01*
X111683528Y-32321427D02*
X111612100Y-32464285D01*
X111612100Y-32464285D02*
X111612100Y-32821427D01*
X111612100Y-32821427D02*
X111540671Y-32964285D01*
X112183528Y-33678570D02*
X111183528Y-33678570D01*
X111469242Y-33678570D02*
X111326385Y-33749999D01*
X111326385Y-33749999D02*
X111254957Y-33821428D01*
X111254957Y-33821428D02*
X111183528Y-33964285D01*
X111183528Y-33964285D02*
X111183528Y-34107142D01*
X112183528Y-34607141D02*
X111183528Y-34607141D01*
X111469242Y-34607141D02*
X111326385Y-34678570D01*
X111326385Y-34678570D02*
X111254957Y-34749999D01*
X111254957Y-34749999D02*
X111183528Y-34892856D01*
X111183528Y-34892856D02*
X111183528Y-35035713D01*
X112183528Y-35749998D02*
X112112100Y-35607141D01*
X112112100Y-35607141D02*
X112040671Y-35535712D01*
X112040671Y-35535712D02*
X111897814Y-35464284D01*
X111897814Y-35464284D02*
X111469242Y-35464284D01*
X111469242Y-35464284D02*
X111326385Y-35535712D01*
X111326385Y-35535712D02*
X111254957Y-35607141D01*
X111254957Y-35607141D02*
X111183528Y-35749998D01*
X111183528Y-35749998D02*
X111183528Y-35964284D01*
X111183528Y-35964284D02*
X111254957Y-36107141D01*
X111254957Y-36107141D02*
X111326385Y-36178570D01*
X111326385Y-36178570D02*
X111469242Y-36249998D01*
X111469242Y-36249998D02*
X111897814Y-36249998D01*
X111897814Y-36249998D02*
X112040671Y-36178570D01*
X112040671Y-36178570D02*
X112112100Y-36107141D01*
X112112100Y-36107141D02*
X112183528Y-35964284D01*
X112183528Y-35964284D02*
X112183528Y-35749998D01*
X111183528Y-36749998D02*
X112183528Y-37035713D01*
X112183528Y-37035713D02*
X111469242Y-37321427D01*
X111469242Y-37321427D02*
X112183528Y-37607141D01*
X112183528Y-37607141D02*
X111183528Y-37892855D01*
%LPC*%
D11*
%TO.C,R4*%
X52000000Y-2500000D03*
X62160000Y-2500000D03*
%TD*%
D12*
%TO.C,U9*%
X103880000Y-2490000D03*
D13*
X103880000Y-5030000D03*
X103880000Y-7570000D03*
X103880000Y-10110000D03*
X103880000Y-12650000D03*
X103880000Y-15190000D03*
X103880000Y-17730000D03*
X103880000Y-20270000D03*
X103880000Y-22810000D03*
X103880000Y-25350000D03*
X103880000Y-27890000D03*
X103880000Y-30430000D03*
X103880000Y-32970000D03*
X103880000Y-35510000D03*
X119120000Y-2490000D03*
X119120000Y-5030000D03*
X119120000Y-7570000D03*
X119120000Y-10110000D03*
X119120000Y-12650000D03*
X119120000Y-15190000D03*
X119120000Y-17730000D03*
X119120000Y-20270000D03*
X119120000Y-22810000D03*
X119120000Y-25350000D03*
X119120000Y-27890000D03*
X119120000Y-30430000D03*
X119120000Y-32970000D03*
X119120000Y-35510000D03*
%TD*%
D11*
%TO.C,C8*%
X181000000Y-28000000D03*
X181000000Y-33000000D03*
%TD*%
%TO.C,C24*%
X164000000Y-21000000D03*
X169000000Y-21000000D03*
%TD*%
%TO.C,R8*%
X52000000Y-9500000D03*
X62160000Y-9500000D03*
%TD*%
D14*
%TO.C,J4*%
X12350000Y-31660000D03*
D15*
X6000000Y-33790000D03*
X6000000Y-22360000D03*
D14*
X9150000Y-33790000D03*
X9150000Y-22360000D03*
X2800000Y-33790000D03*
X2800000Y-22360000D03*
X15500000Y-33790000D03*
X15500000Y-22360000D03*
%TD*%
D11*
%TO.C,C35*%
X38500000Y-20000000D03*
X43500000Y-20000000D03*
%TD*%
D16*
%TO.C,C4*%
X65000000Y-4500000D03*
D11*
X67500000Y-4500000D03*
%TD*%
%TO.C,C26*%
X72500000Y-16500000D03*
X77500000Y-16500000D03*
%TD*%
%TO.C,R2*%
X38500000Y-27500000D03*
X48660000Y-27500000D03*
%TD*%
%TO.C,R11*%
X38500000Y-6000000D03*
X48660000Y-6000000D03*
%TD*%
D17*
%TO.C,U4*%
X99500000Y-24500000D03*
D11*
X96960000Y-24500000D03*
X94420000Y-24500000D03*
X91880000Y-24500000D03*
X89340000Y-24500000D03*
X86800000Y-24500000D03*
X84260000Y-24500000D03*
X81720000Y-24500000D03*
X81720000Y-32120000D03*
X84260000Y-32120000D03*
X86800000Y-32120000D03*
X89340000Y-32120000D03*
X91880000Y-32120000D03*
X94420000Y-32120000D03*
X96960000Y-32120000D03*
X99500000Y-32120000D03*
%TD*%
%TO.C,R9*%
X52000000Y-26500000D03*
X62160000Y-26500000D03*
%TD*%
%TO.C,C1*%
X181000000Y-2500000D03*
X181000000Y-7500000D03*
%TD*%
%TO.C,C34*%
X46000000Y-16500000D03*
X51000000Y-16500000D03*
%TD*%
D14*
%TO.C,J3*%
X12350000Y-13660000D03*
D15*
X6000000Y-15790000D03*
X6000000Y-4360000D03*
D14*
X9150000Y-15790000D03*
X9150000Y-4360000D03*
X2800000Y-15790000D03*
X2800000Y-4360000D03*
X15500000Y-15790000D03*
X15500000Y-4360000D03*
%TD*%
D16*
%TO.C,C20*%
X31500000Y-33900000D03*
D11*
X34000000Y-33900000D03*
%TD*%
%TO.C,C33*%
X38500000Y-16500000D03*
X43500000Y-16500000D03*
%TD*%
D12*
%TO.C,PS1*%
X139000000Y-11500000D03*
D13*
X141540000Y-11500000D03*
X144080000Y-11500000D03*
X151700000Y-11500000D03*
X154240000Y-11500000D03*
X156780000Y-11500000D03*
%TD*%
D11*
%TO.C,R1*%
X131000000Y-16000000D03*
X131000000Y-26160000D03*
%TD*%
%TO.C,R15*%
X124000000Y-16000000D03*
X124000000Y-26160000D03*
%TD*%
D16*
%TO.C,U5*%
X54000000Y-14000000D03*
D11*
X54000000Y-16540000D03*
X54000000Y-19080000D03*
X54000000Y-21620000D03*
X61620000Y-21620000D03*
X61620000Y-19080000D03*
X61620000Y-16540000D03*
X61620000Y-14000000D03*
%TD*%
%TO.C,C21*%
X164000000Y-16000000D03*
X169000000Y-16000000D03*
%TD*%
D16*
%TO.C,C11*%
X139000000Y-21500000D03*
D11*
X141500000Y-21500000D03*
%TD*%
%TO.C,R16*%
X127500000Y-16000000D03*
X127500000Y-26160000D03*
%TD*%
%TO.C,C10*%
X26500000Y-11000000D03*
X26500000Y-16000000D03*
%TD*%
D16*
%TO.C,C3*%
X72000000Y-4500000D03*
D11*
X74500000Y-4500000D03*
%TD*%
%TO.C,C30*%
X90500000Y-18500000D03*
X95500000Y-18500000D03*
%TD*%
%TO.C,R3*%
X38500000Y-31000000D03*
X48660000Y-31000000D03*
%TD*%
D16*
%TO.C,C12*%
X146500000Y-21500000D03*
D11*
X149000000Y-21500000D03*
%TD*%
%TO.C,C28*%
X65000000Y-20000000D03*
X70000000Y-20000000D03*
%TD*%
D16*
%TO.C,C41*%
X131000000Y-32500000D03*
D11*
X133500000Y-32500000D03*
%TD*%
%TO.C,C25*%
X65000000Y-16500000D03*
X70000000Y-16500000D03*
%TD*%
%TO.C,L2*%
X157500000Y-19000000D03*
X157500000Y-29160000D03*
%TD*%
%TO.C,FB1*%
X139000000Y-3000000D03*
X149160000Y-3000000D03*
%TD*%
D16*
%TO.C,C42*%
X172500000Y-4500000D03*
D11*
X175000000Y-4500000D03*
%TD*%
D16*
%TO.C,C19*%
X31500000Y-21900000D03*
D11*
X34000000Y-21900000D03*
%TD*%
%TO.C,C15*%
X26500000Y-19500000D03*
X26500000Y-24500000D03*
%TD*%
D18*
%TO.C,U3*%
X80500000Y-12500000D03*
D11*
X83040000Y-12500000D03*
X85580000Y-12500000D03*
X88120000Y-12500000D03*
X90660000Y-12500000D03*
X93200000Y-12500000D03*
X95740000Y-12500000D03*
X98280000Y-12500000D03*
X98280000Y-4880000D03*
X95740000Y-4880000D03*
X93200000Y-4880000D03*
X90660000Y-4880000D03*
X88120000Y-4880000D03*
X85580000Y-4880000D03*
X83040000Y-4880000D03*
X80500000Y-4880000D03*
%TD*%
%TO.C,C16*%
X26500000Y-28000000D03*
X26500000Y-33000000D03*
%TD*%
D16*
%TO.C,C13*%
X146500000Y-29000000D03*
D11*
X149000000Y-29000000D03*
%TD*%
%TO.C,R5*%
X52000000Y-6000000D03*
X62160000Y-6000000D03*
%TD*%
%TO.C,L1*%
X153500000Y-19000000D03*
X153500000Y-29160000D03*
%TD*%
%TO.C,R6*%
X38500000Y-34500000D03*
X48660000Y-34500000D03*
%TD*%
D16*
%TO.C,C6*%
X72000000Y-11000000D03*
D11*
X74500000Y-11000000D03*
%TD*%
%TO.C,C22*%
X164000000Y-3500000D03*
X169000000Y-3500000D03*
%TD*%
D16*
%TO.C,SW1*%
X124500000Y-3500000D03*
D11*
X124500000Y-6040000D03*
X124500000Y-8580000D03*
X124500000Y-11120000D03*
X132120000Y-11120000D03*
X132120000Y-8580000D03*
X132120000Y-6040000D03*
X132120000Y-3500000D03*
%TD*%
D14*
%TO.C,J2*%
X194650000Y-24340000D03*
D15*
X201000000Y-22210000D03*
X201000000Y-33640000D03*
D14*
X197850000Y-22210000D03*
X197850000Y-33640000D03*
X204200000Y-22210000D03*
X204200000Y-33640000D03*
X191500000Y-22210000D03*
X191500000Y-33640000D03*
%TD*%
D11*
%TO.C,R13*%
X38500000Y-13000000D03*
X48660000Y-13000000D03*
%TD*%
%TO.C,C31*%
X38500000Y-23500000D03*
X43500000Y-23500000D03*
%TD*%
D16*
%TO.C,C17*%
X31500000Y-4100000D03*
D11*
X34000000Y-4100000D03*
%TD*%
%TO.C,C2*%
X181000000Y-11000000D03*
X181000000Y-16000000D03*
%TD*%
D16*
%TO.C,C14*%
X139000000Y-29000000D03*
D11*
X141500000Y-29000000D03*
%TD*%
%TO.C,R7*%
X52000000Y-30000000D03*
X62160000Y-30000000D03*
%TD*%
D14*
%TO.C,J1*%
X194650000Y-6340000D03*
D15*
X201000000Y-4210000D03*
X201000000Y-15640000D03*
D14*
X197850000Y-4210000D03*
X197850000Y-15640000D03*
X204200000Y-4210000D03*
X204200000Y-15640000D03*
X191500000Y-4210000D03*
X191500000Y-15640000D03*
%TD*%
D11*
%TO.C,C7*%
X181000000Y-19500000D03*
X181000000Y-24500000D03*
%TD*%
%TO.C,C27*%
X81500000Y-18500000D03*
X86500000Y-18500000D03*
%TD*%
%TO.C,R14*%
X134500000Y-16000000D03*
X134500000Y-26160000D03*
%TD*%
D16*
%TO.C,C5*%
X65000000Y-11000000D03*
D11*
X67500000Y-11000000D03*
%TD*%
%TO.C,C36*%
X46000000Y-20000000D03*
X51000000Y-20000000D03*
%TD*%
%TO.C,R12*%
X38500000Y-9500000D03*
X48660000Y-9500000D03*
%TD*%
D16*
%TO.C,C40*%
X123500000Y-32500000D03*
D11*
X126000000Y-32500000D03*
%TD*%
D19*
%TO.C,LED1*%
X154000000Y-3200000D03*
D20*
X156540000Y-3200000D03*
%TD*%
D11*
%TO.C,C9*%
X26500000Y-2500000D03*
X26500000Y-7500000D03*
%TD*%
%TO.C,C29*%
X72500000Y-20000000D03*
X77500000Y-20000000D03*
%TD*%
D16*
%TO.C,C18*%
X31500000Y-16000000D03*
D11*
X34000000Y-16000000D03*
%TD*%
%TO.C,C32*%
X46000000Y-23500000D03*
X51000000Y-23500000D03*
%TD*%
%TO.C,C23*%
X164000000Y-34500000D03*
X169000000Y-34500000D03*
%TD*%
D16*
%TO.C,C43*%
X172500000Y-33500000D03*
D11*
X175000000Y-33500000D03*
%TD*%
%TO.C,R10*%
X38500000Y-2500000D03*
X48660000Y-2500000D03*
%TD*%
%LPD*%
M02*
