M48
; DRILL file {KiCad 9.0.6} date 2026-09-10T14:53:47-0700
; FORMAT={-:-/ absolute / metric / decimal}
; #@! TF.CreationDate,2026-09-10T14:53:47-07:00
; #@! TF.GenerationSoftware,Kicad,Pcbnew,9.0.6
; #@! TF.FileFunction,MixedPlating,1,2
FMAT,2
METRIC
; #@! TA.AperFunction,Plated,PTH,ViaDrill
T1C0.400
; #@! TA.AperFunction,Plated,PTH,ViaDrill
T2C0.500
; #@! TA.AperFunction,Plated,PTH,ComponentDrill
T3C0.800
; #@! TA.AperFunction,Plated,PTH,ComponentDrill
T4C0.900
; #@! TA.AperFunction,Plated,PTH,ComponentDrill
T5C1.000
; #@! TA.AperFunction,Plated,PTH,ComponentDrill
T6C1.500
; #@! TA.AperFunction,NonPlated,NPTH,ComponentDrill
T7C2.000
; #@! TA.AperFunction,NonPlated,NPTH,ComponentDrill
T8C3.000
%
G90
G05
T1
X27.338Y-25.995
X28.884Y-27.265
X28.885Y-9.151
X32.018Y-8.727
X32.163Y-25.995
X33.459Y-11.783
X39.376Y-7.202
X41.739Y-33.344
X57.41Y-14.0
X63.902Y-26.025
X66.741Y-27.045
X71.376Y-22.395
X73.672Y-24.675
X74.605Y-12.71
X76.668Y-22.431
X83.655Y-21.629
X94.435Y-14.688
X94.479Y-10.173
X100.416Y-7.673
X101.155Y-23.617
X102.348Y-36.668
X107.798Y-4.578
X108.428Y-18.92
X108.792Y-31.729
X108.851Y-15.708
X108.908Y-33.034
X109.75Y-8.393
X109.763Y-10.078
X118.964Y-6.967
X132.308Y-7.31
X159.191Y-22.35
X161.306Y-8.73
X165.181Y-26.73
X166.455Y-23.58
X170.202Y-32.295
X172.819Y-35.502
X178.256Y-25.099
X193.589Y-31.439
T2
X61.313Y-11.499
X65.649Y-24.73
X73.654Y-14.0
X159.328Y-26.5
X161.844Y-28.3
X165.759Y-10.635
T3
X26.5Y-2.5
X26.5Y-7.5
X26.5Y-11.0
X26.5Y-16.0
X26.5Y-19.5
X26.5Y-24.5
X26.5Y-28.0
X26.5Y-33.0
X31.5Y-4.1
X31.5Y-16.0
X31.5Y-21.9
X31.5Y-33.9
X34.0Y-4.1
X34.0Y-16.0
X34.0Y-21.9
X34.0Y-33.9
X38.5Y-2.5
X38.5Y-6.0
X38.5Y-9.5
X38.5Y-13.0
X38.5Y-16.5
X38.5Y-20.0
X38.5Y-23.5
X38.5Y-27.5
X38.5Y-31.0
X38.5Y-34.5
X43.5Y-16.5
X43.5Y-20.0
X43.5Y-23.5
X46.0Y-16.5
X46.0Y-20.0
X46.0Y-23.5
X48.66Y-2.5
X48.66Y-6.0
X48.66Y-9.5
X48.66Y-13.0
X48.66Y-27.5
X48.66Y-31.0
X48.66Y-34.5
X51.0Y-2.5
X51.0Y-6.0
X51.0Y-9.5
X51.0Y-16.5
X51.0Y-20.0
X51.0Y-23.5
X52.0Y-26.5
X52.0Y-30.0
X54.0Y-14.0
X54.0Y-16.54
X54.0Y-19.08
X54.0Y-21.62
X61.16Y-2.5
X61.16Y-6.0
X61.16Y-9.5
X61.62Y-14.0
X61.62Y-16.54
X61.62Y-19.08
X61.62Y-21.62
X62.16Y-26.5
X62.16Y-30.0
X65.0Y-16.5
X65.0Y-20.0
X65.1Y-4.5
X65.1Y-10.8
X67.6Y-4.5
X67.6Y-10.8
X70.0Y-16.5
X70.0Y-20.0
X71.9Y-4.5
X71.9Y-11.0
X72.5Y-16.5
X72.5Y-20.0
X74.4Y-4.5
X74.4Y-11.0
X77.5Y-16.5
X77.5Y-20.0
X77.8Y-4.88
X77.8Y-12.5
X80.0Y-18.5
X80.34Y-4.88
X80.34Y-12.5
X81.72Y-24.5
X81.72Y-32.12
X82.0Y-36.0
X82.88Y-4.88
X82.88Y-12.5
X84.26Y-24.5
X84.26Y-32.12
X85.0Y-18.5
X85.42Y-4.88
X85.42Y-12.5
X86.8Y-24.5
X86.8Y-32.12
X87.96Y-4.88
X87.96Y-12.5
X89.34Y-24.5
X89.34Y-32.12
X89.5Y-16.5
X89.5Y-21.5
X90.5Y-4.88
X90.5Y-12.5
X91.88Y-24.5
X91.88Y-32.12
X92.16Y-36.0
X93.04Y-4.88
X93.04Y-12.5
X94.0Y-19.0
X94.42Y-24.5
X94.42Y-32.12
X95.58Y-4.88
X95.58Y-12.5
X96.5Y-19.0
X96.96Y-24.5
X96.96Y-32.12
X99.5Y-24.5
X99.5Y-32.12
X100.5Y-17.1
X100.5Y-22.1
X105.8Y-18.0
X105.8Y-23.0
X112.0Y-27.5
X112.0Y-32.5
X115.0Y-25.5
X125.16Y-25.5
X129.9Y-3.5
X129.9Y-6.04
X129.9Y-8.58
X129.9Y-11.12
X130.8Y-14.9
X130.8Y-25.06
X135.3Y-26.4
X137.52Y-3.5
X137.52Y-6.04
X137.52Y-8.58
X137.52Y-11.12
X137.8Y-26.4
X140.1Y-5.2
X144.0Y-10.3
X144.0Y-26.5
X146.5Y-10.3
X146.5Y-26.5
X150.0Y-24.7
X150.0Y-28.8
X150.26Y-5.2
X152.0Y-8.5
X152.0Y-12.0
X156.0Y-4.5
X157.0Y-8.5
X157.0Y-12.0
X158.0Y-17.2
X158.54Y-4.5
X160.16Y-24.7
X160.16Y-28.8
X160.5Y-17.2
X161.08Y-4.5
X164.0Y-3.5
X164.0Y-16.0
X164.0Y-21.0
X164.0Y-34.5
X169.0Y-3.5
X169.0Y-16.0
X169.0Y-21.0
X169.0Y-34.5
X172.5Y-4.5
X172.5Y-33.5
X174.0Y-25.5
X174.2Y-10.0
X174.2Y-20.16
X175.0Y-4.5
X175.0Y-33.5
X176.5Y-25.5
X177.7Y-10.0
X177.7Y-20.16
X181.0Y-2.5
X181.0Y-7.5
X181.0Y-11.0
X181.0Y-16.0
X181.0Y-19.5
X181.0Y-24.5
X181.0Y-28.0
X181.0Y-33.0
T4
X105.6Y-2.3
X108.14Y-2.3
T5
X111.48Y-3.68
X111.48Y-6.22
X111.48Y-8.76
X111.48Y-11.3
X111.48Y-13.84
X111.48Y-16.38
X111.48Y-18.92
X126.72Y-3.68
X126.72Y-6.22
X126.72Y-8.76
X126.72Y-11.3
X126.72Y-13.84
X126.72Y-16.38
X126.72Y-18.92
X136.92Y-15.5
X139.46Y-15.5
X144.54Y-15.5
X147.08Y-15.5
X149.62Y-15.5
T6
X2.8Y-4.36
X2.8Y-15.79
X2.8Y-22.36
X2.8Y-33.79
X9.15Y-4.36
X9.15Y-15.79
X9.15Y-22.36
X9.15Y-33.79
X15.5Y-4.36
X15.5Y-15.79
X15.5Y-22.36
X15.5Y-33.79
X191.5Y-4.21
X191.5Y-15.64
X191.5Y-22.21
X191.5Y-33.64
X197.85Y-4.21
X197.85Y-15.64
X197.85Y-22.21
X197.85Y-33.64
X204.2Y-4.21
X204.2Y-15.64
X204.2Y-22.21
X204.2Y-33.64
T7
X6.0Y-4.36
X6.0Y-15.79
X6.0Y-22.36
X6.0Y-33.79
X201.0Y-4.21
X201.0Y-15.64
X201.0Y-22.21
X201.0Y-33.64
T8
X12.35Y-13.66
X12.35Y-31.66
X194.65Y-6.34
X194.65Y-24.34
M30
