M48
; DRILL file {KiCad 9.0.6} date 2026-09-08T13:17:16-0700
; FORMAT={-:-/ absolute / metric / decimal}
; #@! TF.CreationDate,2026-09-08T13:17:16-07:00
; #@! TF.GenerationSoftware,Kicad,Pcbnew,9.0.6
; #@! TF.FileFunction,MixedPlating,1,2
FMAT,2
METRIC
; #@! TA.AperFunction,Plated,PTH,ViaDrill
T1C0.400
; #@! TA.AperFunction,Plated,PTH,ViaDrill
T2C0.500
; #@! TA.AperFunction,Plated,PTH,ComponentDrill
T3C0.800
; #@! TA.AperFunction,Plated,PTH,ComponentDrill
T4C0.900
; #@! TA.AperFunction,Plated,PTH,ComponentDrill
T5C1.000
; #@! TA.AperFunction,Plated,PTH,ComponentDrill
T6C1.500
; #@! TA.AperFunction,NonPlated,NPTH,ComponentDrill
T7C2.000
; #@! TA.AperFunction,NonPlated,NPTH,ComponentDrill
T8C3.000
%
G90
G05
T1
X32.534Y-33.524
X36.018Y-29.127
X67.042Y-66.702
X113.205Y-24.615
T2
X104.715Y-34.921
T3
X7.0Y-8.0
X9.5Y-8.0
X16.0Y-8.0
X18.5Y-8.0
X26.5Y-18.75
X26.5Y-23.75
X26.5Y-27.0
X26.5Y-32.0
X26.5Y-42.75
X26.5Y-47.75
X26.5Y-51.0
X26.5Y-56.0
X30.0Y-65.0
X35.0Y-70.0
X36.0Y-15.5
X36.0Y-32.0
X36.0Y-41.0
X36.0Y-57.5
X38.5Y-15.5
X38.5Y-32.0
X38.5Y-41.0
X38.5Y-57.5
X40.0Y-70.0
X40.16Y-65.0
X42.5Y-37.5
X43.0Y-44.5
X44.0Y-8.5
X44.0Y-22.0
X44.0Y-27.0
X44.0Y-47.5
X44.0Y-52.5
X45.5Y-62.5
X45.5Y-65.04
X45.5Y-67.58
X45.5Y-70.12
X48.5Y-22.0
X48.5Y-27.0
X48.5Y-47.5
X48.5Y-52.5
X52.66Y-37.5
X53.12Y-62.5
X53.12Y-65.04
X53.12Y-67.58
X53.12Y-70.12
X53.16Y-44.5
X54.16Y-8.5
X54.5Y-24.5
X54.5Y-34.66
X56.0Y-41.0
X56.0Y-46.0
X56.0Y-60.5
X56.0Y-65.5
X57.5Y-54.5
X58.0Y-12.0
X58.0Y-14.54
X58.0Y-17.08
X58.0Y-19.62
X58.0Y-24.5
X58.0Y-34.66
X59.22Y-41.0
X59.22Y-48.62
X59.5Y-59.5
X59.5Y-69.66
X60.0Y-54.5
X61.5Y-24.5
X61.5Y-34.66
X61.76Y-41.0
X61.76Y-48.62
X63.0Y-59.5
X63.0Y-69.66
X63.5Y-51.5
X63.5Y-56.5
X64.3Y-41.0
X64.3Y-48.62
X65.0Y-24.5
X65.0Y-34.66
X65.62Y-12.0
X65.62Y-14.54
X65.62Y-17.08
X65.62Y-19.62
X66.5Y-59.5
X66.5Y-69.66
X66.84Y-41.0
X66.84Y-48.62
X68.0Y-51.5
X68.0Y-56.5
X69.38Y-41.0
X69.38Y-48.62
X70.0Y-59.5
X70.0Y-69.66
X71.92Y-41.0
X71.92Y-48.62
X73.5Y-54.5
X73.5Y-59.5
X73.5Y-69.66
X74.46Y-41.0
X74.46Y-48.62
X76.0Y-54.5
X77.0Y-41.0
X77.0Y-48.62
X77.0Y-59.5
X77.0Y-69.66
X80.5Y-54.5
X80.5Y-59.5
X80.5Y-69.66
X82.22Y-41.0
X82.22Y-48.62
X83.0Y-54.5
X84.0Y-59.5
X84.0Y-69.66
X84.76Y-41.0
X84.76Y-48.62
X86.5Y-51.5
X86.5Y-56.5
X87.3Y-41.0
X87.3Y-48.62
X89.84Y-41.0
X89.84Y-48.62
X90.0Y-4.5
X91.0Y-51.5
X91.0Y-56.5
X92.38Y-41.0
X92.38Y-48.62
X94.0Y-24.0
X94.0Y-32.0
X94.92Y-41.0
X94.92Y-48.62
X96.5Y-24.0
X96.5Y-32.0
X96.5Y-54.5
X97.46Y-41.0
X97.46Y-48.62
X99.0Y-54.5
X100.0Y-41.0
X100.0Y-48.62
X100.16Y-4.5
X103.0Y-36.5
X103.7Y-21.5
X103.7Y-31.66
X104.0Y-5.2
X106.5Y-5.2
X108.0Y-36.5
X108.78Y-21.5
X108.78Y-31.66
X113.0Y-5.2
X115.5Y-5.2
X116.0Y-18.0
X116.0Y-32.5
X116.0Y-42.0
X116.0Y-56.5
X121.0Y-18.0
X121.0Y-32.5
X121.0Y-42.0
X121.0Y-56.5
X129.5Y-18.75
X129.5Y-23.75
X129.5Y-27.0
X129.5Y-32.0
X129.5Y-42.75
X129.5Y-47.75
X129.5Y-51.0
X129.5Y-56.0
X140.0Y-8.0
X142.5Y-8.0
X149.0Y-8.0
X151.5Y-8.0
T4
X63.0Y-4.5
X65.54Y-4.5
T5
X70.38Y-2.79
X70.38Y-5.33
X70.38Y-7.87
X70.38Y-10.41
X70.38Y-12.95
X70.38Y-15.49
X70.38Y-18.03
X70.38Y-20.57
X70.38Y-23.11
X70.38Y-25.65
X70.38Y-28.19
X70.38Y-30.73
X70.38Y-33.27
X70.38Y-35.81
X85.62Y-2.79
X85.62Y-5.33
X85.62Y-7.87
X85.62Y-10.41
X85.62Y-12.95
X85.62Y-15.49
X85.62Y-18.03
X85.62Y-20.57
X85.62Y-23.11
X85.62Y-25.65
X85.62Y-28.19
X85.62Y-30.73
X85.62Y-33.27
X85.62Y-35.81
X91.0Y-14.0
X93.54Y-14.0
X96.08Y-14.0
X103.7Y-14.0
X106.24Y-14.0
X108.78Y-14.0
T6
X2.8Y-19.61
X2.8Y-31.04
X2.8Y-43.61
X2.8Y-55.04
X9.15Y-19.61
X9.15Y-31.04
X9.15Y-43.61
X9.15Y-55.04
X15.5Y-19.61
X15.5Y-31.04
X15.5Y-43.61
X15.5Y-55.04
X140.5Y-19.46
X140.5Y-30.89
X140.5Y-43.46
X140.5Y-54.89
X146.85Y-19.46
X146.85Y-30.89
X146.85Y-43.46
X146.85Y-54.89
X153.2Y-19.46
X153.2Y-30.89
X153.2Y-43.46
X153.2Y-54.89
T7
X6.0Y-19.61
X6.0Y-31.04
X6.0Y-43.61
X6.0Y-55.04
X150.0Y-19.46
X150.0Y-30.89
X150.0Y-43.46
X150.0Y-54.89
T8
X12.35Y-28.91
X12.35Y-52.91
X143.65Y-21.59
X143.65Y-45.59
M30
