M48
; DRILL file {KiCad 9.0.6} date 2026-09-09T19:00:15-0700
; FORMAT={-:-/ absolute / metric / decimal}
; #@! TF.CreationDate,2026-09-09T19:00:15-07:00
; #@! TF.GenerationSoftware,Kicad,Pcbnew,9.0.6
; #@! TF.FileFunction,MixedPlating,1,2
FMAT,2
METRIC
; #@! TA.AperFunction,Plated,PTH,ViaDrill
T1C0.400
; #@! TA.AperFunction,Plated,PTH,ViaDrill
T2C0.500
; #@! TA.AperFunction,Plated,PTH,ComponentDrill
T3C0.800
; #@! TA.AperFunction,Plated,PTH,ComponentDrill
T4C0.900
; #@! TA.AperFunction,Plated,PTH,ComponentDrill
T5C1.000
; #@! TA.AperFunction,Plated,PTH,ComponentDrill
T6C1.500
; #@! TA.AperFunction,NonPlated,NPTH,ComponentDrill
T7C2.000
; #@! TA.AperFunction,NonPlated,NPTH,ComponentDrill
T8C3.000
%
G90
G05
T1
X31.998Y-7.429
X32.063Y-27.886
X32.161Y-25.995
X32.187Y-12.28
X70.345Y-11.636
X71.922Y-2.874
X77.52Y-28.632
X81.586Y-9.224
X108.966Y-4.452
X127.826Y-18.585
X137.613Y-15.871
X143.99Y-4.058
T2
X28.098Y-28.535
X37.079Y-29.185
X61.316Y-12.129
X88.4Y-29.623
X136.745Y-23.009
X168.307Y-13.955
T3
X26.5Y-2.5
X26.5Y-7.5
X26.5Y-11.0
X26.5Y-16.0
X26.5Y-19.5
X26.5Y-24.5
X26.5Y-28.0
X26.5Y-33.0
X31.5Y-4.1
X31.5Y-16.0
X31.5Y-21.9
X31.5Y-33.9
X34.0Y-4.1
X34.0Y-16.0
X34.0Y-21.9
X34.0Y-33.9
X38.5Y-2.5
X38.5Y-6.0
X38.5Y-9.5
X38.5Y-13.0
X38.5Y-16.5
X38.5Y-20.0
X38.5Y-23.5
X38.5Y-27.5
X38.5Y-31.0
X38.5Y-34.5
X43.5Y-16.5
X43.5Y-20.0
X43.5Y-23.5
X46.0Y-16.5
X46.0Y-20.0
X46.0Y-23.5
X48.66Y-2.5
X48.66Y-6.0
X48.66Y-9.5
X48.66Y-13.0
X48.66Y-27.5
X48.66Y-31.0
X48.66Y-34.5
X51.0Y-16.5
X51.0Y-20.0
X51.0Y-23.5
X52.0Y-2.5
X52.0Y-6.0
X52.0Y-9.5
X52.0Y-26.5
X52.0Y-30.0
X54.0Y-14.0
X54.0Y-16.54
X54.0Y-19.08
X54.0Y-21.62
X61.62Y-14.0
X61.62Y-16.54
X61.62Y-19.08
X61.62Y-21.62
X62.16Y-2.5
X62.16Y-6.0
X62.16Y-9.5
X62.16Y-26.5
X62.16Y-30.0
X65.0Y-4.5
X65.0Y-11.0
X65.0Y-16.5
X65.0Y-20.0
X67.5Y-4.5
X67.5Y-11.0
X70.0Y-16.5
X70.0Y-20.0
X72.0Y-4.5
X72.0Y-11.0
X72.5Y-16.5
X72.5Y-20.0
X74.5Y-4.5
X74.5Y-11.0
X77.5Y-16.5
X77.5Y-20.0
X80.5Y-4.88
X80.5Y-12.5
X81.5Y-18.5
X81.72Y-24.5
X81.72Y-32.12
X83.04Y-4.88
X83.04Y-12.5
X84.26Y-24.5
X84.26Y-32.12
X85.58Y-4.88
X85.58Y-12.5
X86.5Y-18.5
X86.8Y-24.5
X86.8Y-32.12
X88.12Y-4.88
X88.12Y-12.5
X89.34Y-24.5
X89.34Y-32.12
X90.5Y-18.5
X90.66Y-4.88
X90.66Y-12.5
X91.88Y-24.5
X91.88Y-32.12
X93.2Y-4.88
X93.2Y-12.5
X94.42Y-24.5
X94.42Y-32.12
X95.5Y-18.5
X95.74Y-4.88
X95.74Y-12.5
X96.96Y-24.5
X96.96Y-32.12
X98.28Y-4.88
X98.28Y-12.5
X99.5Y-24.5
X99.5Y-32.12
X123.5Y-32.5
X124.0Y-16.0
X124.0Y-26.16
X124.5Y-3.5
X124.5Y-6.04
X124.5Y-8.58
X124.5Y-11.12
X126.0Y-32.5
X127.5Y-16.0
X127.5Y-26.16
X131.0Y-16.0
X131.0Y-26.16
X131.0Y-32.5
X132.12Y-3.5
X132.12Y-6.04
X132.12Y-8.58
X132.12Y-11.12
X133.5Y-32.5
X134.5Y-16.0
X134.5Y-26.16
X139.0Y-3.0
X139.0Y-21.5
X139.0Y-29.0
X141.5Y-21.5
X141.5Y-29.0
X146.5Y-21.5
X146.5Y-29.0
X149.0Y-21.5
X149.0Y-29.0
X149.16Y-3.0
X153.5Y-19.0
X153.5Y-29.16
X157.5Y-19.0
X157.5Y-29.16
X164.0Y-3.5
X164.0Y-16.0
X164.0Y-21.0
X164.0Y-34.5
X169.0Y-3.5
X169.0Y-16.0
X169.0Y-21.0
X169.0Y-34.5
X172.5Y-4.5
X172.5Y-33.5
X175.0Y-4.5
X175.0Y-33.5
X181.0Y-2.5
X181.0Y-7.5
X181.0Y-11.0
X181.0Y-16.0
X181.0Y-19.5
X181.0Y-24.5
X181.0Y-28.0
X181.0Y-33.0
T4
X154.0Y-3.2
X156.54Y-3.2
T5
X103.88Y-3.68
X103.88Y-6.22
X103.88Y-8.76
X103.88Y-11.3
X103.88Y-13.84
X103.88Y-16.38
X103.88Y-18.92
X119.12Y-3.68
X119.12Y-6.22
X119.12Y-8.76
X119.12Y-11.3
X119.12Y-13.84
X119.12Y-16.38
X119.12Y-18.92
X139.0Y-10.0
X141.54Y-10.0
X146.62Y-10.0
X149.16Y-10.0
X151.7Y-10.0
T6
X2.8Y-4.36
X2.8Y-15.79
X2.8Y-22.36
X2.8Y-33.79
X9.15Y-4.36
X9.15Y-15.79
X9.15Y-22.36
X9.15Y-33.79
X15.5Y-4.36
X15.5Y-15.79
X15.5Y-22.36
X15.5Y-33.79
X191.5Y-4.21
X191.5Y-15.64
X191.5Y-22.21
X191.5Y-33.64
X197.85Y-4.21
X197.85Y-15.64
X197.85Y-22.21
X197.85Y-33.64
X204.2Y-4.21
X204.2Y-15.64
X204.2Y-22.21
X204.2Y-33.64
T7
X6.0Y-4.36
X6.0Y-15.79
X6.0Y-22.36
X6.0Y-33.79
X201.0Y-4.21
X201.0Y-15.64
X201.0Y-22.21
X201.0Y-33.64
T8
X12.35Y-13.66
X12.35Y-31.66
X194.65Y-6.34
X194.65Y-24.34
M30
